<svg width="174" height="200" viewBox="0 0 174 200" fill="none" xmlns="http://www.w3.org/2000/svg">
<rect width="174" height="200" fill="white" fill-opacity="0.05"/>
<path d="M84.8682 66.8472C84.8682 66.8472 85.3948 102.847 84.8682 111.838C84.3416 120.841 83.0482 128.988 85.2007 131.291C87.3533 133.593 87.2886 129.734 87.2147 127.639C87.1408 125.545 88.3973 108.91 87.8707 100.741C87.3441 92.572 86.3094 57.0002 86.3094 57.0002C86.3094 57.0002 83.815 57.8336 84.8682 66.8362V66.8472Z" fill="#9BB75E"/>
<path d="M84.8682 66.8472C84.8682 66.8472 85.3948 102.847 84.8682 111.838C84.3416 120.841 83.0482 128.988 85.2007 131.291C87.3533 133.593 87.2886 129.734 87.2147 127.639C87.1408 125.545 88.3973 108.91 87.8707 100.741C87.3441 92.572 86.3094 57.0002 86.3094 57.0002C86.3094 57.0002 83.815 57.8336 84.8682 66.8362V66.8472Z" fill="url(#paint0_linear_622_49926)" fill-opacity="0.6" style="mix-blend-mode:multiply"/>
<path d="M84.1613 42.9932C84.1613 42.9932 80.3113 31.9412 80.303 28.6057C80.303 23.8514 85.4307 18.5744 86.0115 17.3796C86.2356 16.9232 86.4845 16.8237 86.6919 17.3879C87.1234 18.5827 90.5169 22.6483 90.8571 28.7966C91.1973 34.9448 85.7958 42.9932 85.7958 42.9932H84.1613Z" fill="#083548"/>
<path d="M85.2565 42.993H86.4513C86.4513 42.993 90.3842 35.343 90.1353 29.5017C89.8864 23.6604 87.4221 19.7939 87.1068 18.6655C86.9574 18.1262 86.7749 18.2174 86.6172 18.6655C86.1941 19.8022 82.9664 24.8635 82.8088 29.3772C82.7673 30.5057 85.2648 43.0013 85.2648 43.0013" fill="#0E516A"/>
<path opacity="0.84" d="M84.767 41.6323C84.767 41.6323 85.2814 35.6499 85.2814 33.5839C85.2814 30.6301 85.7543 25.8924 86.0945 25.1456C86.2273 24.8635 86.0696 30.1406 86.2688 33.9573C86.4679 37.774 85.7129 41.624 85.7129 41.624H84.7753L84.767 41.6323Z" fill="#78D3F5"/>
<path d="M88.7496 28.4395C88.7496 28.4395 88.7496 27.2032 88.5754 25.27C88.3846 23.1542 86.8828 20.5571 86.8828 20.5571C86.8828 20.5571 86.7666 24.3905 86.7666 24.8219C86.7666 26.0997 86.8828 31.0946 87.1815 30.5968C87.6378 29.8252 88.3016 28.6884 88.7496 28.4395Z" fill="#4493B1"/>
<path d="M74.5281 23.1789C74.3207 23.154 74.7771 26.1825 75.4906 30.9202C76.5859 38.1388 81.2655 43.9054 83.8874 44.2539C86.5094 44.6024 85.2897 42.6359 85.2897 42.6359C85.2897 42.6359 82.983 41.3913 82.8005 36.3383C82.7092 33.9736 81.7053 30.2149 79.8301 28.8625C77.7641 27.3773 76.2208 25.2034 74.5364 23.1789H74.5281Z" fill="#032B3D"/>
<path d="M75.1173 24.6396C74.9347 24.6147 75.3247 27.2283 75.947 31.3106C76.8929 37.5252 80.9171 42.4953 83.1822 42.8023C85.4474 43.1093 84.3853 41.4083 84.3853 41.4083C84.3853 41.4083 82.4023 40.338 82.2363 35.9819C82.1616 33.9491 81.2904 30.7049 79.6725 29.5433C77.8969 28.2655 76.561 26.3903 75.1173 24.6479V24.6396Z" fill="#0E516A"/>
<path d="M96.1342 23.1711C96.3416 23.1462 96.1757 26.3739 95.4621 30.8295C94.3752 37.6332 89.7038 43.0679 87.0902 43.3998C84.4765 43.7317 85.6962 41.8731 85.6962 41.8731C85.6962 41.8731 87.9946 40.6949 88.1854 35.9406C88.2767 33.7169 88.8658 30.6221 91.1475 28.8879C93.031 27.4608 94.6739 25.5524 96.1425 23.1628L96.1342 23.1711Z" fill="#032B3D"/>
<path d="M95.6944 24.6396C95.877 24.6147 95.487 27.2283 94.8647 31.3106C93.9188 37.5252 89.8946 42.4953 87.6295 42.8023C85.3643 43.1093 86.4264 41.4083 86.4264 41.4083C86.4264 41.4083 88.4094 40.338 88.5754 35.9819C88.6501 33.9491 89.4715 30.6385 91.1392 29.5433C93.255 28.1493 94.3171 26.4235 95.6944 24.6479V24.6396Z" fill="#0E516A"/>
<path d="M94.6241 27.4112C94.7568 27.4029 94.3586 29.6348 93.728 33.1197C92.7655 38.4382 89.5379 42.5702 87.8286 42.7445C86.1194 42.9187 86.6587 42.5702 86.6587 42.5702C86.6587 42.5702 88.2933 39.6994 88.8243 36.9115C89.1562 35.1857 89.5213 32.6633 90.575 31.4934C92.0354 29.8588 93.4791 28.8632 94.6324 27.4112H94.6241Z" fill="#247C9C"/>
<path d="M92.334 31.4271C92.4668 31.4106 91.5209 32.8377 91.0563 35.219C90.3427 38.8532 88.5007 41.4087 86.7998 41.583C85.0988 41.7572 88.4592 41.5996 90.0606 37.0942C90.5003 35.8579 91.2471 32.4477 92.334 31.4271Z" fill="#78D3F5"/>
<path d="M76.1295 26.8966C75.9885 26.88 76.3619 29.1783 76.9593 32.7627C77.8637 38.2306 81.1992 42.5286 83.008 42.7443C84.8168 42.96 83.8294 42.8356 83.8294 42.8356C83.8294 42.8356 82.701 39.3673 81.8629 36.9943C81.2655 35.3017 80.8839 32.5885 79.8799 31.1199C78.8759 29.6513 77.3243 28.4067 76.1295 26.8966Z" fill="#247C9C"/>
<path d="M77.6728 30.6298C77.54 30.6132 78.4859 32.0403 78.9506 34.4216C79.6641 38.0558 81.5061 40.6114 83.2071 40.7856C84.908 40.9599 81.5476 40.8022 79.9462 36.2968C79.5065 35.0605 78.7597 31.6503 77.6728 30.6298Z" fill="#78D3F5"/>
<path d="M69.3589 36.6376C69.3589 36.6376 75.2583 34.6628 81.5891 39.1267C87.9199 43.5906 86.1526 45.3663 86.1526 45.3663C86.1526 45.3663 78.7597 41.9976 77.2579 41.4914C75.7561 40.9853 69.8568 39.1931 69.3589 36.6376Z" fill="#032B3D"/>
<path d="M101.353 36.5463C101.353 36.5463 95.4372 34.5633 89.0815 39.0438C82.7259 43.5243 84.5015 45.2999 84.5015 45.2999C84.5015 45.2999 91.9192 41.923 93.4293 41.4085C94.9394 40.8941 100.855 39.1019 101.353 36.538V36.5463Z" fill="#032B3D"/>
<path d="M70.3546 37.2681C70.3546 37.2681 75.8557 35.6087 81.755 39.359C87.6627 43.1094 86.0115 44.5946 86.0115 44.5946C86.0115 44.5946 79.1165 41.7735 77.7143 41.3421C76.312 40.9106 70.811 39.4171 70.3463 37.2681H70.3546Z" fill="#0E516A"/>
<path d="M73.3167 37.8734C73.3167 37.8734 77.5151 36.5044 82.0205 39.5993C86.5259 42.6941 85.273 43.9138 85.273 43.9138C85.273 43.9138 80.0126 41.5823 78.9422 41.2338C77.8719 40.8853 73.6735 39.6408 73.3167 37.8734Z" fill="#247C9C"/>
<path d="M74.8932 38.413C74.8932 38.413 76.2042 37.6663 77.9134 38.3964C79.6226 39.1266 79.2907 39.6161 79.2907 39.6161C79.2907 39.6161 77.3741 39.193 76.9924 39.1515C76.6107 39.11 75.1255 38.9772 74.8849 38.413H74.8932Z" fill="#78D3F5"/>
<path d="M100.142 37.2681C100.142 37.2681 94.6407 35.6087 88.7414 39.359C82.8337 43.1094 84.4849 44.5946 84.4849 44.5946C84.4849 44.5946 91.3799 41.7735 92.7821 41.3421C94.1843 40.9106 99.6854 39.4171 100.15 37.2681H100.142Z" fill="#0E516A"/>
<path d="M97.246 37.8322C97.246 37.8322 93.1887 36.5046 88.8243 39.4999C84.4682 42.4952 85.6796 43.6735 85.6796 43.6735C85.6796 43.6735 90.7659 41.4166 91.803 41.0764C92.8402 40.7362 96.8975 39.5414 97.2377 37.8322H97.246Z" fill="#247C9C"/>
<path d="M79.0142 43.9716C76.384 44.0628 70.8414 47.6224 73.7206 57.8363C74.8573 61.8687 62.4778 60.4914 63.0171 48.0123C63.3407 40.3872 72.9157 36.0643 87.2451 44.9838L86.7307 47.6804C86.7307 47.6804 82.2419 43.8554 79.0225 43.9716H79.0142Z" fill="#032B3D"/>
<path d="M77.0892 44.2042C74.8988 44.2789 70.2689 47.4152 72.6751 56.3928C73.621 59.9358 63.2992 58.7244 63.7473 47.7554C64.0211 41.0512 72.003 37.2511 83.9511 45.092L83.5196 47.465C83.5196 47.465 79.7776 44.1046 77.0892 44.2042Z" fill="#0E516A"/>
<path d="M81.7591 44.7948C84.1676 45.6685 67.7604 36.4268 66.1432 47.47C65.378 52.6764 67.8213 56.3965 70.1167 54.4959C72.1513 52.7935 70.0471 47.7222 71.3688 46.1459C74.8119 42.0475 78.6116 43.6598 81.7591 44.7948Z" fill="#247C9C"/>
<path d="M82.7231 46.2202C82.7231 46.2202 79.3129 41.3663 70.6506 44.511C70.6506 44.511 77.3382 40.2711 83.196 45.3739L82.7231 46.2119V46.2202Z" fill="#FDD22D"/>
<path opacity="0.8" d="M65.0333 45.3657C65.0333 45.3657 61.9219 52.8167 68.9828 57.0317C69.7711 57.5046 70.3602 56.9072 69.0907 56.1687C65.6888 54.1857 64.1206 50.817 65.0333 45.3657Z" fill="#78D3F5"/>
<path d="M95.1302 38.297C95.1302 38.297 93.7861 37.6249 92.11 38.4464C90.434 39.2678 90.7991 39.7407 90.7991 39.7407C90.7991 39.7407 92.6908 39.218 93.0642 39.1516C93.4376 39.0852 94.9228 38.8778 95.1219 38.297H95.1302Z" fill="#78D3F5"/>
<path d="M92.4253 43.9528C94.9726 44.044 100.349 47.5787 97.5613 57.7262C96.4578 61.7338 108.456 60.3564 107.941 47.9603C107.626 40.3849 98.3495 36.087 84.4517 44.9567L84.9495 47.6367C84.9495 47.6367 89.2972 43.8366 92.4253 43.9445V43.9528Z" fill="#032B3D"/>
<path d="M93.9769 44.0855C96.1673 44.1602 100.797 47.2966 98.391 56.2742C97.4451 59.8171 107.767 58.6057 107.319 47.6368C107.045 40.9326 99.0631 37.1324 87.1151 44.9733L87.5465 47.3463C87.5465 47.3463 91.2886 43.986 93.9769 44.0855Z" fill="#0E516A"/>
<path d="M90.2265 44.6026C87.9694 45.4072 103.288 36.8306 104.861 47.0661C105.594 51.8603 103.288 55.2859 101.137 53.5358C99.2305 51.9681 101.202 47.2983 99.9639 45.8468C96.7371 42.0728 93.1762 43.5575 90.2265 44.6026Z" fill="#247C9C"/>
<path d="M88.4841 46.1015C88.4841 46.1015 91.8943 41.2477 100.557 44.3923C100.557 44.3923 93.869 40.1524 88.0112 45.2552L88.4841 46.0932V46.1015Z" fill="#FDD22D"/>
<path opacity="0.8" d="M100.078 53.5976C100.078 53.5976 99.3635 58.1467 102.263 56.7246C105.47 55.1533 106.913 49.622 105.393 46C105.393 46 105.982 52.7255 102.9 54.5169C100.596 55.8525 100.078 53.5897 100.078 53.5897V53.5976Z" fill="#78D3F5"/>
<path d="M83.0162 44.7188C83.0162 44.7188 76.2125 49.8879 77.2082 58.9153C78.3117 68.9135 83.987 64.7483 85.5386 64.7483C86.7998 64.7483 92.9066 69.345 93.6616 58.3262C94.2424 49.8299 87.5714 44.7188 87.5714 44.7188H83.0079H83.0162Z" fill="#032B3D"/>
<path d="M83.2568 44.7188C83.2568 44.7188 77.1335 49.6556 78.0296 58.2682C79.0252 67.81 84.128 63.8356 85.5303 63.8439C86.667 63.8439 92.1598 68.2331 92.8402 57.7122C93.3629 49.5975 87.364 44.727 87.364 44.727H83.2651L83.2568 44.7188Z" fill="#0E516A"/>
<path d="M84.4516 44.7024C84.4516 44.7024 78.1623 49.1829 79.0584 57.7954C80.0541 67.3373 85.0075 61.4296 85.5883 60.1602C87.4137 56.1775 84.4516 44.7107 84.4516 44.7107V44.7024Z" fill="#247C9C"/>
<path d="M89.8864 54.5261C89.8864 54.5261 92.3009 57.09 91.1309 60.8569C89.8366 65.0304 88.1439 61.9522 88.0029 61.3299C87.5382 59.3883 89.8946 54.5261 89.8946 54.5261H89.8864Z" fill="#78D3F5"/>
<path opacity="0.51" d="M83.5555 45.5488C83.5555 45.5488 79.9131 47.6148 82.3441 52.5268C84.7752 57.4388 85.2565 61.3385 85.2565 61.3385C85.2565 61.3385 88.2435 55.1404 89.2558 52.2364C90.658 48.2039 87.6876 45.5488 87.6876 45.5488H83.5555Z" fill="#78D3F5"/>
<path opacity="0.44" d="M84.1945 45.366C84.1945 45.366 81.7136 47.125 83.3647 51.2902C85.0159 55.4637 85.3478 58.766 85.3478 58.766C85.3478 58.766 87.3889 53.5056 88.0693 51.0413C89.0234 47.6145 86.9989 45.366 86.9989 45.366H84.1862H84.1945Z" fill="#FFD42C"/>
<path d="M85.9867 45.5569C86.9657 47.4984 85.4888 51.4894 85.5635 54.3935C85.4888 51.5309 84.294 48.4526 85.0657 45.5569" fill="#FFD42C"/>
<path d="M87.984 44.7789L87.984 44.7789L87.9871 44.7755L90.2688 42.1535L90.3286 42.0848L90.2658 42.0189L90.1934 42.0879C90.2658 42.0189 90.2657 42.0189 90.2657 42.0188L90.2656 42.0187L90.2653 42.0184L90.2645 42.0176L90.2622 42.0153L90.2547 42.0079C90.2483 42.0018 90.2393 41.9935 90.2277 41.9835C90.2044 41.9636 90.1706 41.9368 90.1264 41.9076C90.0381 41.8492 89.9079 41.7809 89.7383 41.7388C89.3954 41.6536 88.9066 41.6794 88.2966 42.0789L88.3514 42.1625L88.2968 42.0787C88.2204 42.1285 88.1633 42.1413 88.1175 42.1376C88.0706 42.1338 88.0202 42.1117 87.9597 42.063C87.8984 42.0137 87.8336 41.9429 87.7582 41.8518C87.7208 41.8067 87.6819 41.7579 87.64 41.7054L87.6396 41.705C87.598 41.6529 87.5538 41.5974 87.5066 41.54C87.1249 41.0759 86.5492 40.4829 85.4277 40.2313L85.4057 40.2263L85.3836 40.2314C84.2624 40.4872 83.6868 41.08 83.3052 41.543C83.2585 41.5997 83.2147 41.6544 83.1735 41.7059L83.1718 41.708C83.13 41.7603 83.091 41.8089 83.0536 41.8539C82.9782 41.9446 82.9135 42.015 82.8523 42.064C82.7918 42.1124 82.7414 42.1342 82.6945 42.1379C82.6486 42.1414 82.5914 42.1286 82.5149 42.0787L82.5149 42.0787C81.9009 41.6794 81.4122 41.6536 81.0702 41.7388C80.9011 41.781 80.7716 41.8494 80.6839 41.9078C80.64 41.937 80.6064 41.9639 80.5833 41.9839C80.5718 41.9939 80.5628 42.0022 80.5565 42.0083L80.549 42.0157L80.5468 42.018L80.546 42.0188L80.5457 42.0191L80.5456 42.0193C80.5456 42.0193 80.5455 42.0194 80.6183 42.0879L80.5455 42.0194L80.4835 42.0853L80.5429 42.1535L82.8247 44.7755L82.8246 44.7755L82.8273 44.7783C82.9624 44.9219 84.0114 46.0326 85.6367 45.9214L85.6368 45.9214C86.9829 45.8277 87.8011 44.9704 87.9821 44.7808L87.984 44.7789Z" fill="#247C9C" stroke="#083548" stroke-width="0.2"/>
<path d="M85.4059 40.3293C87.588 40.8272 87.6378 42.6277 88.3514 42.163C89.5379 41.3914 90.1934 42.0884 90.1934 42.0884L87.9116 44.7103C87.7457 44.8928 86.9408 45.7391 85.6299 45.8221C84.7753 45.0837 85.9867 44.9758 86.1775 43.6068C86.4098 41.8643 85.4059 40.321 85.4059 40.321V40.3293Z" fill="#0E516A"/>
<path opacity="0.6" d="M84.7255 41.5156C83.8625 42.1711 83.4892 42.8515 83.6551 43.5816C83.8211 44.3118 85.1237 44.2288 85.2482 43.3825C85.439 42.0384 84.7255 41.5156 84.7255 41.5156Z" fill="#78D3F5"/>
<path d="M85.98 132C85.98 132 77.99 119.596 64.62 112.945C51.25 106.294 44.5 107.419 38 101.801C38 101.801 43.14 112.073 66.7 121C74.66 124.013 85.98 132 85.98 132Z" fill="#788C41"/>
<path d="M85.98 132C85.98 132 77.99 119.596 64.62 112.945C51.25 106.294 44.5 107.419 38 101.801C38 101.801 43.14 112.073 66.7 121C74.66 124.013 85.98 132 85.98 132Z" fill="url(#paint1_linear_622_49926)" fill-opacity="0.5" style="mix-blend-mode:multiply"/>
<path d="M85.35 131.095C85.35 131.095 82.99 117.412 72.96 108.215C62.93 99.017 55.93 98.7378 52.09 91.9517C52.09 91.9517 52.62 102.986 71.5 116.465C77.88 121.017 85.36 131.086 85.36 131.086L85.35 131.095Z" fill="#9BB75E"/>
<path d="M85.35 131.095C85.35 131.095 82.99 117.412 72.96 108.215C62.93 99.017 55.93 98.7378 52.09 91.9517C52.09 91.9517 52.62 102.986 71.5 116.465C77.88 121.017 85.36 131.086 85.36 131.086L85.35 131.095Z" fill="url(#paint2_linear_622_49926)" fill-opacity="0.5" style="mix-blend-mode:multiply"/>
<path d="M85.28 130.833C85.28 130.833 88.55 117.886 83.18 107.343C77.81 96.8002 71.66 95.0064 70.89 88.0002C70.89 88.0002 67.03 98.1372 78.62 114.519C82.54 120.053 85.28 130.833 85.28 130.833Z" fill="#ABC779"/>
<path d="M85.28 130.833C85.28 130.833 88.55 117.886 83.18 107.343C77.81 96.8002 71.66 95.0064 70.89 88.0002C70.89 88.0002 67.03 98.1372 78.62 114.519C82.54 120.053 85.28 130.833 85.28 130.833Z" fill="url(#paint3_linear_622_49926)" fill-opacity="0.5" style="mix-blend-mode:multiply"/>
<path d="M87.02 132C87.02 132 95.16 119.644 108.77 113.015C122.38 106.386 129.26 107.505 135.88 101.909C135.88 101.909 130.64 112.148 106.66 121.041C98.56 124.043 87.02 132 87.02 132Z" fill="#788C41"/>
<path d="M87.02 132C87.02 132 95.16 119.644 108.77 113.015C122.38 106.386 129.26 107.505 135.88 101.909C135.88 101.909 130.64 112.148 106.66 121.041C98.56 124.043 87.02 132 87.02 132Z" fill="url(#paint4_linear_622_49926)" fill-opacity="0.5" style="mix-blend-mode:multiply"/>
<path d="M87.66 131.098C87.66 131.098 90.07 117.458 100.28 108.304C110.5 99.1415 117.63 98.8639 121.54 92.0959C121.54 92.0959 121 103.089 101.77 116.521C95.28 121.059 87.65 131.089 87.65 131.089L87.66 131.098Z" fill="#9BB75E"/>
<path d="M87.66 131.098C87.66 131.098 90.07 117.458 100.28 108.304C110.5 99.1415 117.63 98.8639 121.54 92.0959C121.54 92.0959 121 103.089 101.77 116.521C95.28 121.059 87.65 131.089 87.65 131.089L87.66 131.098Z" fill="url(#paint5_linear_622_49926)" fill-opacity="0.5" style="mix-blend-mode:multiply"/>
<path d="M87.73 130.838C87.73 130.838 84.39 117.892 89.88 107.341C95.37 96.7898 101.65 95.0024 102.44 88.0002C102.44 88.0002 106.39 98.1347 94.53 114.517C90.53 120.052 87.73 130.838 87.73 130.838Z" fill="#ABC779"/>
<path d="M87.73 130.838C87.73 130.838 84.39 117.892 89.88 107.341C95.37 96.7898 101.65 95.0024 102.44 88.0002C102.44 88.0002 106.39 98.1347 94.53 114.517C90.53 120.052 87.73 130.838 87.73 130.838Z" fill="url(#paint6_linear_622_49926)" fill-opacity="0.5" style="mix-blend-mode:multiply"/>
<path d="M60.0195 158.5H72.0195V160.35H67.0445V174.15H72.0195V176H60.0195V174.15H64.9695V160.35H60.0195V158.5ZM66.8695 154.25H69.7195V154.775L65.6445 157.2H63.9195L66.8695 154.25ZM74.1598 176V174.325H77.5348V165.175H74.1598V163.5H78.8348L79.2348 165.125H79.3598C79.9264 164.608 80.5598 164.167 81.2598 163.8C81.9598 163.433 82.7931 163.25 83.7598 163.25C84.3264 163.25 84.7764 163.358 85.1098 163.575C85.4598 163.792 85.7264 164.108 85.9098 164.525C86.1098 164.942 86.2431 165.45 86.3098 166.05C86.3764 166.633 86.4098 167.3 86.4098 168.05L84.6598 168.075C84.6598 167.008 84.5514 166.225 84.3348 165.725C84.1348 165.225 83.7598 164.975 83.2098 164.975C82.6931 164.975 82.2264 165.05 81.8098 165.2C81.3931 165.35 81.0264 165.533 80.7098 165.75C80.4098 165.967 80.1514 166.183 79.9348 166.4C79.7181 166.617 79.5598 166.8 79.4598 166.95V174.325H84.2598V176H74.1598ZM89.125 176V174.325H93.475V165.175H89.125V163.5H95.475V174.325H99.725V176H89.125ZM92.8 159.95C92.8 159.5 92.95 159.117 93.25 158.8C93.55 158.467 93.9333 158.3 94.4 158.3C94.8833 158.3 95.2833 158.467 95.6 158.8C95.9333 159.117 96.1 159.5 96.1 159.95C96.1 160.383 95.9333 160.75 95.6 161.05C95.2833 161.35 94.8833 161.5 94.4 161.5C93.9333 161.5 93.55 161.35 93.25 161.05C92.95 160.75 92.8 160.383 92.8 159.95ZM111.44 172.625C111.44 172.092 111.232 171.683 110.815 171.4C110.399 171.1 109.882 170.867 109.265 170.7C108.649 170.517 107.974 170.35 107.24 170.2C106.524 170.05 105.857 169.85 105.24 169.6C104.624 169.35 104.107 169.017 103.69 168.6C103.274 168.167 103.065 167.567 103.065 166.8C103.065 166.167 103.199 165.625 103.465 165.175C103.749 164.725 104.115 164.358 104.565 164.075C105.015 163.775 105.54 163.558 106.14 163.425C106.74 163.275 107.365 163.2 108.015 163.2C109.182 163.2 110.182 163.35 111.015 163.65C111.865 163.933 112.54 164.233 113.04 164.55L112.24 166.125C111.69 165.825 111.09 165.542 110.44 165.275C109.807 164.992 109.007 164.85 108.04 164.85C107.674 164.85 107.307 164.892 106.94 164.975C106.59 165.042 106.265 165.15 105.965 165.3C105.682 165.45 105.449 165.65 105.265 165.9C105.099 166.133 105.015 166.425 105.015 166.775C105.015 167.208 105.224 167.542 105.64 167.775C106.057 168.008 106.574 168.208 107.19 168.375C107.807 168.525 108.474 168.675 109.19 168.825C109.924 168.958 110.599 169.158 111.215 169.425C111.832 169.692 112.349 170.05 112.765 170.5C113.182 170.95 113.39 171.558 113.39 172.325C113.39 173.475 112.932 174.425 112.015 175.175C111.115 175.925 109.757 176.3 107.94 176.3C107.39 176.3 106.849 176.25 106.315 176.15C105.782 176.05 105.282 175.917 104.815 175.75C104.349 175.583 103.924 175.4 103.54 175.2C103.157 174.983 102.84 174.767 102.59 174.55L103.59 172.925C103.79 173.125 104.057 173.333 104.39 173.55C104.724 173.75 105.09 173.933 105.49 174.1C105.89 174.267 106.315 174.4 106.765 174.5C107.232 174.6 107.699 174.65 108.165 174.65C108.615 174.65 109.032 174.617 109.415 174.55C109.815 174.467 110.165 174.35 110.465 174.2C110.765 174.033 110.999 173.825 111.165 173.575C111.349 173.308 111.44 172.992 111.44 172.625Z" fill="white"/>
<defs>
<linearGradient id="paint0_linear_622_49926" x1="85.6442" y1="127.903" x2="85.6442" y2="52.2414" gradientUnits="userSpaceOnUse">
<stop stop-color="#497122"/>
<stop offset="0.34375" stop-color="#ADBA79"/>
<stop offset="0.640625" stop-color="#E3FBCC"/>
<stop offset="1" stop-color="#497122"/>
</linearGradient>
<linearGradient id="paint1_linear_622_49926" x1="85.1819" y1="127.183" x2="76.8317" y2="85.2448" gradientUnits="userSpaceOnUse">
<stop stop-color="#618938"/>
<stop offset="0.52" stop-color="#D9EE85"/>
<stop offset="1" stop-color="white"/>
</linearGradient>
<linearGradient id="paint2_linear_622_49926" x1="84.8066" y1="124.851" x2="66.3322" y2="75.2129" gradientUnits="userSpaceOnUse">
<stop stop-color="#618938"/>
<stop offset="0.52" stop-color="#D9EE85"/>
<stop offset="1" stop-color="white"/>
</linearGradient>
<linearGradient id="paint3_linear_622_49926" x1="86" y1="124" x2="55.5" y2="88.0002" gradientUnits="userSpaceOnUse">
<stop stop-color="#618938"/>
<stop offset="0.52" stop-color="#D9EE85"/>
<stop offset="1" stop-color="white"/>
</linearGradient>
<linearGradient id="paint4_linear_622_49926" x1="123.5" y1="113" x2="93" y2="128.5" gradientUnits="userSpaceOnUse">
<stop offset="0.078125" stop-color="white"/>
<stop offset="0.52" stop-color="#D9EE85"/>
<stop offset="1" stop-color="#618938"/>
</linearGradient>
<linearGradient id="paint5_linear_622_49926" x1="115" y1="96.5002" x2="91.7978" y2="126.562" gradientUnits="userSpaceOnUse">
<stop offset="0.078125" stop-color="white"/>
<stop offset="0.52" stop-color="#D9EE85"/>
<stop offset="1" stop-color="#618938"/>
</linearGradient>
<linearGradient id="paint6_linear_622_49926" x1="100.5" y1="88.0002" x2="88.7245" y2="125.855" gradientUnits="userSpaceOnUse">
<stop offset="0.078125" stop-color="white"/>
<stop offset="0.52" stop-color="#D9EE85"/>
<stop offset="1" stop-color="#618938"/>
</linearGradient>
</defs>
</svg>
