<svg width="237" height="237" viewBox="0 0 237 237" fill="none" xmlns="http://www.w3.org/2000/svg">
<path d="M201.402 236.486L236.5 92.0177L118.5 0.486339L0.499999 92.0177L35.5981 236.486L201.402 236.486Z" fill="white" fill-opacity="0.3"/>
<path d="M201.402 236.486L236.5 92.0177L118.5 0.486339L0.499999 92.0177L35.5981 236.486L201.402 236.486Z" fill="#D32833"/>
<g filter="url(#filter0_d_612_41086)">
<path d="M103.5 147.307C103.5 147.307 124.03 146.267 128.1 162.637C132.17 179.007 130.09 181.747 130.09 181.747C130.09 181.747 130.56 173.087 127.61 171.257C124.66 169.427 121.29 169.337 119.66 164.007C118.03 158.677 117.72 156.347 113.62 155.277C110.41 154.437 107.97 146.857 103.51 147.307H103.5Z" fill="#7A9C69"/>
<path d="M103.5 147.307C103.5 147.307 124.03 146.267 128.1 162.637C132.17 179.007 130.09 181.747 130.09 181.747C130.09 181.747 130.56 173.087 127.61 171.257C124.66 169.427 121.29 169.337 119.66 164.007C118.03 158.677 117.72 156.347 113.62 155.277C110.41 154.437 107.97 146.857 103.51 147.307H103.5Z" fill="url(#paint0_linear_612_41086)" fill-opacity="0.8" style="mix-blend-mode:multiply"/>
<path d="M124.55 122.126C124.55 122.126 134.72 149.946 129.34 179.856C123.96 209.766 130.91 184.936 130.91 184.936C130.91 184.936 137.95 149.456 127.31 120.906C126.1 117.646 126.63 124.036 124.55 122.126Z" fill="#7A9C69"/>
<path d="M124.55 122.126C124.55 122.126 134.72 149.946 129.34 179.856C123.96 209.766 130.91 184.936 130.91 184.936C130.91 184.936 137.95 149.456 127.31 120.906C126.1 117.646 126.63 124.036 124.55 122.126Z" fill="url(#paint1_linear_612_41086)" fill-opacity="0.8" style="mix-blend-mode:multiply"/>
<path d="M150.21 126.487C150.21 126.487 139.52 132.237 135.74 141.207C128.64 158.057 131.3 166.517 131.3 166.517C131.3 166.517 131.78 157.187 134.33 155.167C136.88 153.147 141.18 151.117 143.02 145.337C144.86 139.557 146.27 133.897 150.2 126.487H150.21Z" fill="#7A9C69"/>
<path d="M150.21 126.487C150.21 126.487 139.52 132.237 135.74 141.207C128.64 158.057 131.3 166.517 131.3 166.517C131.3 166.517 131.78 157.187 134.33 155.167C136.88 153.147 141.18 151.117 143.02 145.337C144.86 139.557 146.27 133.897 150.2 126.487H150.21Z" fill="url(#paint2_linear_612_41086)" fill-opacity="0.8" style="mix-blend-mode:multiply"/>
</g>
<g filter="url(#filter1_d_612_41086)">
<path d="M113.08 106.606C113.08 106.606 123.24 96.9064 116.19 85.8764C112.12 79.5064 108.04 77.2264 107.4 77.5064C106.3 77.9964 100.7 93.4364 106.96 101.026C108.29 102.636 113.08 106.606 113.08 106.606Z" fill="#EDECEB"/>
<path d="M113.08 106.606C113.08 106.606 123.24 96.9064 116.19 85.8764C112.12 79.5064 108.04 77.2264 107.4 77.5064C106.3 77.9964 100.7 93.4364 106.96 101.026C108.29 102.636 113.08 106.606 113.08 106.606Z" fill="url(#paint3_linear_612_41086)" fill-opacity="0.4"/>
<path d="M89.1601 127.976C93.0101 125.836 102.29 125.576 105.73 124.656C110.02 123.506 117.64 112.706 117.64 112.706C117.64 112.706 107.42 106.276 94.0201 115.246C87.9001 119.346 85.0201 130.276 89.1601 127.976Z" fill="#EDECEB"/>
<path d="M89.1601 127.976C93.0101 125.836 102.29 125.576 105.73 124.656C110.02 123.506 117.64 112.706 117.64 112.706C117.64 112.706 107.42 106.276 94.0201 115.246C87.9001 119.346 85.0201 130.276 89.1601 127.976Z" fill="url(#paint4_linear_612_41086)" fill-opacity="0.4"/>
<path d="M147.03 117.806C142.17 117.116 132.56 121.526 128.66 121.956C123.81 122.496 111.29 113.286 111.29 113.286C111.29 113.286 122.56 102.026 136.51 105.696C144.52 107.796 152.26 118.546 147.02 117.806H147.03Z" fill="#EDECEB"/>
<path d="M147.03 117.806C142.17 117.116 132.56 121.526 128.66 121.956C123.81 122.496 111.29 113.286 111.29 113.286C111.29 113.286 122.56 102.026 136.51 105.696C144.52 107.796 152.26 118.546 147.02 117.806H147.03Z" fill="url(#paint5_linear_612_41086)" fill-opacity="0.4"/>
<path d="M138.27 89.9263C135.67 94.4763 135.43 101.156 133.43 104.676C129.25 112.026 115.93 112.586 115.93 112.586C115.93 112.586 108.92 97.2363 121.26 87.6763C128.34 82.1863 142.98 81.6863 138.27 89.9363V89.9263Z" fill="white"/>
<path d="M138.27 89.9263C135.67 94.4763 135.43 101.156 133.43 104.676C129.25 112.026 115.93 112.586 115.93 112.586C115.93 112.586 108.92 97.2363 121.26 87.6763C128.34 82.1863 142.98 81.6863 138.27 89.9363V89.9263Z" fill="url(#paint6_linear_612_41086)" fill-opacity="0.3"/>
<path d="M117.59 112.756C116.82 112.906 116.04 112.826 115.31 112.556C109.26 110.306 97.6302 117.626 108.66 131.666C113.81 138.216 117.17 140.856 119.16 140.856C124.34 140.856 131.73 121.166 123.28 112.886C120.98 110.626 119.18 112.456 117.59 112.766V112.756Z" fill="white"/>
<path d="M117.59 112.756C116.82 112.906 116.04 112.826 115.31 112.556C109.26 110.306 97.6302 117.626 108.66 131.666C113.81 138.216 117.17 140.856 119.16 140.856C124.34 140.856 131.73 121.166 123.28 112.886C120.98 110.626 119.18 112.456 117.59 112.766V112.756Z" fill="url(#paint7_linear_612_41086)" fill-opacity="0.3"/>
<path d="M115.93 112.576C115.93 112.576 115.58 95.6563 100.4 94.9263C91.6302 94.5063 86.6802 96.9763 86.5002 97.8263C86.2002 99.2863 96.2502 117.246 107.34 112.246C113.38 109.526 115.92 112.576 115.92 112.576H115.93Z" fill="white"/>
<path d="M115.93 112.576C115.93 112.576 115.58 95.6563 100.4 94.9263C91.6302 94.5063 86.6802 96.9763 86.5002 97.8263C86.2002 99.2863 96.2502 117.246 107.34 112.246C113.38 109.526 115.92 112.576 115.92 112.576H115.93Z" fill="url(#paint8_linear_612_41086)" fill-opacity="0.3"/>
<path d="M115.562 110.591C110.059 105.827 107.053 102.538 104.274 99.4782C102.61 97.6394 97.9797 94.284 99.6708 96.1362C103.134 99.9614 107.026 104.136 113.871 110.055C117.025 112.779 118.73 113.329 115.576 110.591H115.562Z" fill="#B9D68A"/>
<path d="M99.805 94.9688C97.9528 95.5056 98.1273 96.982 99.9795 96.4317C101.832 95.8949 101.657 94.4185 99.805 94.9688Z" fill="#7A4A35"/>
<path d="M116.823 111.061C114.072 106.108 112.77 102.847 111.576 99.8135C110.851 97.9882 108.368 94.3509 109.093 96.1897C110.582 99.9746 112.287 104.122 115.709 110.282C117.28 113.128 118.407 113.906 116.823 111.061Z" fill="#B9D68A"/>
<path d="M109.549 95.8008C108.193 95.2505 107.818 96.3779 109.173 96.9282C110.529 97.4785 110.905 96.3511 109.549 95.8008Z" fill="#7A4A35"/>
<path d="M112.851 109.223C109.858 108.31 107.965 108.162 106.207 108.028C105.147 107.948 102.878 106.847 103.952 106.928C106.14 107.089 108.556 107.317 112.287 108.458C114.005 108.981 114.582 109.746 112.864 109.209L112.851 109.223Z" fill="#B9D68A"/>
<path d="M104.422 107.183C103.831 106.109 102.946 106.914 103.536 107.988C104.127 109.062 105.012 108.257 104.422 107.183Z" fill="#7A4A35"/>
<path d="M116.596 112.337C114.784 111.786 113.603 111.773 112.515 111.773C111.858 111.773 110.516 111.035 111.173 111.035C112.529 111.035 114.032 111.075 116.287 111.773C117.32 112.095 117.643 112.659 116.596 112.337Z" fill="#B9D68A"/>
<path d="M111.187 111.061C110.717 109.719 109.764 110.309 110.234 111.652C110.703 112.994 111.656 112.403 111.187 111.061Z" fill="#7A4A35"/>
<path d="M116.891 110.901C116.944 107.505 117.32 105.438 117.669 103.519C117.884 102.364 117.602 99.707 117.387 100.875C116.944 103.264 116.501 105.921 116.434 110.136C116.407 112.082 116.85 112.847 116.877 110.887L116.891 110.901Z" fill="#B9D68A"/>
<path d="M117.159 100.351C115.964 101.25 116.367 102.203 117.575 101.304C118.783 100.405 118.367 99.4519 117.159 100.351Z" fill="#7A4A35"/>
</g>
<g opacity="0.4" filter="url(#filter2_f_612_41086)">
<rect x="115.794" y="93.4863" width="24.0339" height="19.4131" transform="rotate(57.0701 115.794 93.4863)" fill="#5F7E2D"/>
</g>
<defs>
<filter id="filter0_d_612_41086" x="97.5" y="115.963" width="62.71" height="90.6448" filterUnits="userSpaceOnUse" color-interpolation-filters="sRGB">
<feFlood flood-opacity="0" result="BackgroundImageFix"/>
<feColorMatrix in="SourceAlpha" type="matrix" values="0 0 0 0 0 0 0 0 0 0 0 0 0 0 0 0 0 0 127 0" result="hardAlpha"/>
<feOffset dx="2" dy="4"/>
<feGaussianBlur stdDeviation="4"/>
<feComposite in2="hardAlpha" operator="out"/>
<feColorMatrix type="matrix" values="0 0 0 0 0 0 0 0 0 0.137376 0 0 0 0 0.195833 0 0 0 0.4 0"/>
<feBlend mode="normal" in2="BackgroundImageFix" result="effect1_dropShadow_612_41086"/>
<feBlend mode="normal" in="SourceGraphic" in2="effect1_dropShadow_612_41086" result="shape"/>
</filter>
<filter id="filter1_d_612_41086" x="80.4937" y="73.4836" width="78.2368" height="79.3728" filterUnits="userSpaceOnUse" color-interpolation-filters="sRGB">
<feFlood flood-opacity="0" result="BackgroundImageFix"/>
<feColorMatrix in="SourceAlpha" type="matrix" values="0 0 0 0 0 0 0 0 0 0 0 0 0 0 0 0 0 0 127 0" result="hardAlpha"/>
<feOffset dx="2" dy="4"/>
<feGaussianBlur stdDeviation="4"/>
<feComposite in2="hardAlpha" operator="out"/>
<feColorMatrix type="matrix" values="0 0 0 0 0 0 0 0 0 0.137376 0 0 0 0 0.195833 0 0 0 0.4 0"/>
<feBlend mode="normal" in2="BackgroundImageFix" result="effect1_dropShadow_612_41086"/>
<feBlend mode="normal" in="SourceGraphic" in2="effect1_dropShadow_612_41086" result="shape"/>
</filter>
<filter id="filter2_f_612_41086" x="89.5" y="83.4863" width="49.3589" height="50.7258" filterUnits="userSpaceOnUse" color-interpolation-filters="sRGB">
<feFlood flood-opacity="0" result="BackgroundImageFix"/>
<feBlend mode="normal" in="SourceGraphic" in2="BackgroundImageFix" result="shape"/>
<feGaussianBlur stdDeviation="5" result="effect1_foregroundBlur_612_41086"/>
</filter>
<linearGradient id="paint0_linear_612_41086" x1="115.54" y1="147.207" x2="131.04" y2="173.707" gradientUnits="userSpaceOnUse">
<stop offset="0.078125" stop-color="#B4D902"/>
<stop offset="0.52" stop-color="#A0C704"/>
<stop offset="1" stop-color="#52990B"/>
</linearGradient>
<linearGradient id="paint1_linear_612_41086" x1="133.5" y1="208.987" x2="140.564" y2="207.885" gradientUnits="userSpaceOnUse">
<stop offset="0.078125" stop-color="#B4D902"/>
<stop offset="0.52" stop-color="#A0C704"/>
<stop offset="1" stop-color="#52990B"/>
</linearGradient>
<linearGradient id="paint2_linear_612_41086" x1="144.04" y1="131.207" x2="127.872" y2="134.898" gradientUnits="userSpaceOnUse">
<stop offset="0.078125" stop-color="#B4D902"/>
<stop offset="0.52" stop-color="#A0C704"/>
<stop offset="1" stop-color="#52990B"/>
</linearGradient>
<linearGradient id="paint3_linear_612_41086" x1="111.5" y1="100.487" x2="109.5" y2="80.4866" gradientUnits="userSpaceOnUse">
<stop stop-color="#8ABC38"/>
<stop offset="1" stop-color="white" stop-opacity="0"/>
</linearGradient>
<linearGradient id="paint4_linear_612_41086" x1="104" y1="115.987" x2="90.6982" y2="129.653" gradientUnits="userSpaceOnUse">
<stop stop-color="#8ABC38"/>
<stop offset="1" stop-color="white" stop-opacity="0"/>
</linearGradient>
<linearGradient id="paint5_linear_612_41086" x1="123" y1="111.486" x2="148.5" y2="115.986" gradientUnits="userSpaceOnUse">
<stop stop-color="#8ABC38"/>
<stop offset="1" stop-color="white" stop-opacity="0"/>
</linearGradient>
<linearGradient id="paint6_linear_612_41086" x1="117.5" y1="109.987" x2="136" y2="85.4866" gradientUnits="userSpaceOnUse">
<stop stop-color="#9EFF00"/>
<stop offset="1" stop-color="white" stop-opacity="0"/>
</linearGradient>
<linearGradient id="paint7_linear_612_41086" x1="115.604" y1="111.773" x2="115.604" y2="140.856" gradientUnits="userSpaceOnUse">
<stop stop-color="#A4FF11"/>
<stop offset="0.947917" stop-color="white" stop-opacity="0"/>
</linearGradient>
<linearGradient id="paint8_linear_612_41086" x1="111.5" y1="108.487" x2="86.5002" y2="97.9866" gradientUnits="userSpaceOnUse">
<stop stop-color="#9EFF00"/>
<stop offset="1" stop-color="white" stop-opacity="0"/>
</linearGradient>
</defs>
</svg>
