<svg width="236" height="236" viewBox="0 0 236 236" fill="none" xmlns="http://www.w3.org/2000/svg">
<path d="M200.902 236L236 91.5313L118 5.15794e-06L-6.31493e-06 91.5314L35.0981 236L200.902 236Z" fill="white" fill-opacity="0.2"/>
<path d="M169.056 80.4271C168.473 80.0183 167.576 80.2421 166.777 80.8947C166.424 80.5477 166.013 80.2106 165.587 79.9057L166.588 78.7859C166.588 78.7859 166.615 78.7301 166.617 78.7004C166.612 78.6721 166.6 78.645 166.568 78.6287L155.041 70.5573C155.041 70.5573 154.985 70.5306 154.957 70.5356C154.928 70.5406 154.902 70.5598 154.886 70.5919L154.185 71.9219C153.744 71.6195 153.287 71.3491 152.831 71.1297C153.171 70.1558 153.074 69.2299 152.491 68.8282C151.691 68.2675 150.301 68.8854 149.384 70.1949C148.467 71.5045 148.37 73.0276 149.164 73.5896C149.747 73.9984 150.644 73.7745 151.443 73.1219C151.813 73.4806 152.233 73.8306 152.682 74.1389C152.765 74.1973 152.848 74.2486 152.938 74.3058L150.781 78.4075C150.671 78.3245 150.56 78.2344 150.443 78.1526C150.051 77.8781 149.629 77.6383 149.228 77.4384C149.53 76.5809 149.439 75.7709 148.929 75.4076C148.228 74.917 147 75.4553 146.195 76.6134C145.39 77.7716 145.296 79.1041 145.997 79.5947C146.505 79.951 147.298 79.7601 148.008 79.1817C148.334 79.497 148.702 79.8049 149.094 80.0794C149.294 80.2196 149.492 80.3455 149.696 80.4632L147.621 84.4114C147.52 84.3343 147.418 84.2571 147.31 84.1812C146.918 83.9067 146.502 83.6655 146.095 83.4669C146.397 82.6095 146.305 81.7995 145.796 81.4432C145.096 80.9526 143.867 81.4909 143.061 82.6419C142.255 83.793 142.17 85.1314 142.87 85.622C143.379 85.9783 144.171 85.7873 144.874 85.2102C145.2 85.5256 145.569 85.8334 145.961 86.1079C146.144 86.2364 146.342 86.3624 146.53 86.4754L145.944 87.5877C145.916 87.6365 145.933 87.692 145.976 87.7283L146.21 87.8918L120.144 125.117C110.77 120.424 100.504 121.247 95.3926 127.42C95.3572 127.426 95.3288 127.431 95.3042 127.457L94.7494 128.25L91.0933 133.471C89.9953 135.039 89.2639 136.82 88.9 138.778C88.8941 138.787 88.8895 138.802 88.892 138.816C88.892 138.816 88.8695 138.937 88.8348 139.155L88.8102 139.306C88.6286 140.515 88.2253 143.576 88.4397 145.995C87.7911 146.256 87.085 146.439 86.313 146.538C84.3739 146.778 80.6584 147.806 77.1054 149.507C75.1033 150.342 73.343 151.472 71.8634 152.866C71.745 152.982 71.6194 153.099 71.508 153.214C71.2289 153.497 70.9666 153.792 70.7054 154.094C70.7054 154.094 70.7054 154.094 70.6971 154.088C70.6508 154.074 70.6095 154.088 70.5803 154.13L66.5563 159.877C66.5563 159.877 66.54 159.909 66.5438 159.93C66.3777 160.15 66.2292 160.344 66.1007 160.528C59.4135 170.078 64.4857 185.202 77.4057 194.249C89.9087 203.004 105.214 202.981 112.296 194.216C112.296 194.216 112.296 194.216 112.303 194.215C112.331 194.21 112.358 194.198 112.376 194.173L117.112 187.408C117.112 187.408 117.132 187.354 117.127 187.325C117.127 187.325 117.127 187.325 117.126 187.318C118.841 184.523 119.682 181.209 119.559 177.648C119.725 174.651 119.541 171.451 119.084 169.485C118.908 168.734 118.844 167.999 118.867 167.301C120.061 166.98 121.499 166.427 123.123 165.644C125.971 164.593 128.225 162.902 129.837 160.6L133.493 155.378L134.048 154.586C134.048 154.586 134.066 154.524 134.053 154.49C138.224 147.379 135.201 137.077 127.087 129.83L153.082 92.7043L153.666 93.1131C153.708 93.1423 153.773 93.1381 153.809 93.0952L154.64 92.1664C154.784 92.2799 154.92 92.3875 155.07 92.4927C155.462 92.7672 155.885 93.007 156.293 93.2056C155.991 94.0631 156.082 94.8731 156.591 95.2294C157.292 95.72 158.52 95.1817 159.326 94.0306C160.138 92.8712 160.218 91.5412 159.517 91.0506C159.008 90.6943 158.216 90.8852 157.513 91.4624C157.187 91.147 156.818 90.8392 156.426 90.5647C156.36 90.5179 156.279 90.4737 156.211 90.4199L159.172 87.1049C159.334 87.2372 159.502 87.361 159.678 87.4837C160.07 87.7582 160.485 87.9993 160.893 88.1979C160.591 89.0554 160.682 89.8654 161.191 90.2217C161.892 90.7122 163.12 90.174 163.933 89.0217C164.739 87.8706 164.832 86.531 164.123 86.0345C163.614 85.6783 162.822 85.8692 162.112 86.4476C161.786 86.1322 161.418 85.8244 161.026 85.5499C160.934 85.4856 160.828 85.4239 160.729 85.3609L163.813 81.9145C163.881 81.9683 163.949 82.0221 164.023 82.0676C164.474 82.383 164.946 82.6579 165.41 82.8832C165.07 83.8571 165.167 84.783 165.75 85.1847C166.551 85.7454 167.94 85.1275 168.857 83.818C169.774 82.5084 169.871 80.9853 169.079 80.4304L169.056 80.4271Z" fill="black"/>
</svg>
