<svg width="236" height="236" viewBox="0 0 236 236" fill="none" xmlns="http://www.w3.org/2000/svg">
<path d="M200.902 236L236 91.5313L118 5.15794e-06L-6.31493e-06 91.5314L35.0981 236L200.902 236Z" fill="white" fill-opacity="0.5"/>
<g clip-path="url(#clip0_589_23904)">
<g clip-path="url(#clip1_589_23904)">
<g filter="url(#filter0_d_589_23904)">
<path d="M106.013 187.981C106.409 186.816 106.699 185.589 106.874 184.332C107.651 181.019 107.979 177.712 107.88 175.777C107.682 172.075 109.662 168.853 112.892 168.578C114.446 168.449 116.229 168.03 117.646 167.626C120.655 167.085 123.367 165.775 125.5 163.642L130.992 158.15L129.339 156.496C130.962 149.259 127.945 140.103 120.876 133.041C113.814 125.979 104.65 122.955 97.4203 124.585L95.7672 122.932L90.2747 128.424C88.8121 129.887 87.7379 131.632 87.0295 133.551C87.0295 133.551 86.9838 133.666 86.9076 133.879C86.8847 133.932 86.8695 133.985 86.8543 134.031C86.4505 135.227 85.4602 138.373 85.2469 140.933C84.9726 144.163 81.7502 146.144 78.0479 145.946C75.8006 145.831 71.7327 146.288 67.939 147.347C66.8801 147.583 65.8669 147.903 64.8842 148.3C65.0213 147.035 65.1203 146.159 65.1203 146.159L59.8716 151.408L59.8868 151.423C59.6811 151.613 59.4754 151.804 59.2774 152.002C50.5853 160.694 53.084 177.278 64.8613 189.055C76.2958 200.49 92.263 203.179 101.13 195.371L101.153 195.394L107.331 189.215L106.013 187.966V187.981Z" fill="white"/>
<path d="M64.7851 189.146C52.985 177.346 50.4787 160.655 59.2012 151.933C59.3688 151.765 59.5592 151.59 59.7725 151.392C59.7725 151.369 59.7802 151.354 59.7954 151.339L65.0441 146.09C65.0441 146.09 65.1279 146.044 65.1737 146.067C65.2194 146.09 65.2422 146.128 65.2346 146.181L65.0213 148.132C65.9507 147.766 66.9258 147.469 67.9161 147.24C71.9307 146.12 75.9911 145.732 78.0556 145.839C81.9026 146.037 84.8736 143.972 85.1326 140.925C85.3535 138.358 86.3362 135.227 86.7476 133.993L86.8009 133.84C86.8771 133.619 86.9228 133.498 86.9228 133.498C86.9228 133.482 86.9304 133.475 86.9381 133.459C87.677 131.486 88.7664 129.765 90.1985 128.333L95.691 122.84C95.7368 122.794 95.8053 122.794 95.851 122.84L97.4584 124.447C104.924 122.802 114.142 126.131 120.96 132.949C127.778 139.767 131.107 148.985 129.461 156.45L131.069 158.058C131.114 158.103 131.114 158.172 131.069 158.218L125.576 163.71C123.474 165.813 120.815 167.161 117.654 167.732C115.802 168.25 114.195 168.57 112.892 168.677C109.845 168.936 107.781 171.915 107.979 175.754C108.093 177.88 107.697 181.254 106.973 184.347C106.798 185.581 106.516 186.793 106.135 187.943L107.4 189.139C107.4 189.139 107.438 189.192 107.438 189.215C107.438 189.245 107.43 189.276 107.407 189.299L101.229 195.477C101.229 195.477 101.176 195.507 101.145 195.507C101.145 195.507 101.145 195.507 101.138 195.507C92.1487 203.339 76.1968 200.55 64.7775 189.131L64.7851 189.146Z" fill="white"/>
<path d="M111.643 179.563C112.42 176.249 112.748 172.943 112.649 171.001C112.45 167.298 114.431 164.076 117.661 163.802C119.223 163.672 120.998 163.253 122.415 162.849C125.424 162.309 128.136 160.998 130.276 158.865C137.452 151.689 135.388 137.985 125.66 128.264C115.932 118.536 102.227 116.472 95.0512 123.648C93.5885 125.11 92.5144 126.855 91.8059 128.774C91.8059 128.774 91.7602 128.889 91.684 129.102C91.6612 129.155 91.6459 129.209 91.6307 129.254C91.227 130.45 90.2366 133.597 90.0157 136.156C89.7415 139.386 86.5191 141.367 82.8168 141.169C80.5695 141.055 76.5015 141.512 72.7002 142.571C70.5214 143.058 68.4798 143.896 66.6592 145.092C66.5144 145.191 66.3697 145.283 66.2326 145.389C65.4555 145.93 64.7242 146.547 64.0386 147.233C55.3465 155.925 57.8528 172.509 69.6225 184.286C81.3998 196.064 97.9841 198.562 106.676 189.87C109.449 187.097 111.079 183.517 111.635 179.556L111.643 179.563Z" fill="#053448"/>
<g style="mix-blend-mode:multiply" opacity="0.29">
<path d="M108.725 187.402C108.512 187.699 108.299 187.996 108.085 188.293C108.306 188.004 108.52 187.707 108.725 187.402Z" fill="#F8B000"/>
<path d="M108.718 187.402C108.497 187.715 108.291 188.019 108.139 188.324L108.032 188.24C108.276 187.996 108.497 187.707 108.725 187.395L108.718 187.402ZM108.718 187.402L108.085 188.301C108.032 188.301 108.733 187.41 108.718 187.402Z" fill="#4C0003"/>
</g>
<path d="M69.5539 184.37C57.7538 172.57 55.2475 155.879 63.97 147.156C64.648 146.478 65.3946 145.854 66.1792 145.297C66.3163 145.198 66.4611 145.099 66.6134 145C68.4112 143.82 70.4529 142.966 72.6925 142.464C76.7072 141.344 80.7675 140.948 82.832 141.062C86.679 141.26 89.65 139.195 89.909 136.148C90.1299 133.581 91.1127 130.45 91.524 129.216L91.5774 129.064C91.6535 128.843 91.6992 128.721 91.6992 128.721C91.6992 128.706 91.7069 128.698 91.7221 128.683C92.461 126.71 93.5504 124.988 94.9826 123.564C102.189 116.357 115.993 118.421 125.751 128.18C135.502 137.931 137.574 151.735 130.368 158.949C128.265 161.051 125.607 162.4 122.445 162.971C120.594 163.489 118.987 163.809 117.684 163.916C114.637 164.175 112.572 167.153 112.77 170.993C112.885 173.118 112.489 176.493 111.765 179.586C111.193 183.677 109.464 187.265 106.775 189.954C98.0526 198.676 81.3617 196.17 69.5616 184.37H69.5539ZM91.8973 128.843C91.8821 128.896 91.844 128.995 91.7983 129.14L91.7449 129.292C91.3336 130.519 90.3509 133.627 90.1376 136.171C89.8709 139.34 86.7933 141.496 82.8244 141.29C80.7751 141.184 76.7453 141.572 72.7458 142.692C70.529 143.187 68.5103 144.033 66.7353 145.198C66.5906 145.297 66.4458 145.389 66.3087 145.488C65.5317 146.036 64.7927 146.653 64.13 147.324C55.4989 155.955 58.0052 172.501 69.7139 184.217C81.4227 195.926 97.9764 198.432 106.608 189.801C109.266 187.143 110.965 183.6 111.536 179.548C112.252 176.462 112.649 173.118 112.542 171.008C112.336 167.039 114.484 163.961 117.661 163.695C118.956 163.58 120.548 163.268 122.392 162.742C125.515 162.186 128.136 160.853 130.2 158.789C137.323 151.666 135.251 138.007 125.584 128.34C115.917 118.673 102.258 116.601 95.1349 123.723C93.718 125.14 92.6362 126.847 91.9125 128.805C91.9125 128.82 91.9049 128.827 91.8897 128.843H91.8973Z" fill="#0E516A"/>
<path d="M113.951 154.767C109.967 158.751 103.515 158.743 99.5382 154.767C95.554 150.783 95.554 144.33 99.5382 140.354C103.515 136.377 109.967 136.377 113.951 140.354C117.928 144.33 117.935 150.79 113.951 154.767Z" fill="#005268"/>
<path d="M113.951 154.766C107.56 161.181 96.5138 156.61 96.4986 147.56C96.3691 142.06 101.245 137.184 106.745 137.314C115.795 137.329 120.373 148.375 113.959 154.766H113.951ZM113.951 154.766C120.335 148.382 115.772 137.374 106.745 137.374C101.283 137.26 96.4452 142.098 96.5595 147.56C96.5595 156.587 107.567 161.142 113.951 154.766Z" fill="#4C0003"/>
<path d="M112.306 154.767C108.779 158.294 103.065 158.294 99.5381 154.767C96.011 151.24 96.011 145.526 99.5381 141.999C103.065 138.472 108.779 138.472 112.306 141.999C115.833 145.526 115.833 151.24 112.306 154.767Z" fill="white"/>
<path d="M99.4543 154.843C95.4321 150.821 95.4321 144.285 99.4543 140.27C103.469 136.256 110.013 136.248 114.027 140.27C118.042 144.285 118.042 150.829 114.027 154.843C110.013 158.858 103.469 158.858 99.4543 154.843ZM113.867 140.43C109.937 136.499 103.545 136.499 99.6143 140.43C95.6835 144.361 95.6835 150.752 99.6143 154.683C103.545 158.614 109.937 158.614 113.867 154.683C117.798 150.752 117.798 144.361 113.867 140.43Z" fill="white"/>
<path d="M156.833 90.5701L121.722 125.681L127.572 131.53L162.683 96.4201L156.833 90.5701Z" fill="white"/>
<path d="M127.496 131.609L121.645 125.758C121.6 125.712 121.6 125.644 121.645 125.598L156.756 90.487C156.802 90.4413 156.871 90.4413 156.916 90.487L162.767 96.3376C162.813 96.3833 162.813 96.4519 162.767 96.4976L127.656 131.609C127.61 131.654 127.542 131.654 127.496 131.609ZM121.882 125.682L127.572 131.372L162.523 96.4214L156.833 90.7308L121.882 125.682Z" fill="#005268"/>
<path d="M127.496 131.608C127.161 131.311 121.79 125.887 121.691 125.819C121.516 125.651 121.638 125.583 121.775 125.445L122.095 125.125C122.879 124.341 125.134 122.078 125.957 121.256C135.411 111.786 147.264 99.9025 156.665 90.4791C156.688 90.4182 156.878 90.3344 156.954 90.441C157.29 90.7381 162.653 96.1697 162.744 96.2459C162.79 96.2764 162.904 96.3982 162.828 96.5125C162.759 96.5963 162.714 96.6268 162.66 96.6877L162.34 97.0077C151.866 107.459 139.281 120.014 128.821 130.45L128.174 131.09L127.854 131.41L127.694 131.57C127.656 131.631 127.549 131.669 127.496 131.601V131.608ZM127.496 131.608C127.618 131.73 127.762 131.471 127.846 131.41C128.037 131.22 128.616 130.648 128.814 130.443C139.258 119.999 151.835 107.421 162.295 96.962L162.614 96.642C162.668 96.5887 162.729 96.5354 162.774 96.482C162.82 96.4135 162.759 96.3449 162.706 96.2992L162.058 95.6517L156.909 90.502C156.794 90.3801 156.642 90.6391 156.566 90.7C147.226 100.032 135.365 111.901 125.98 121.286C125.188 122.086 122.902 124.364 122.118 125.148L121.798 125.468C121.744 125.522 121.683 125.575 121.638 125.628C121.592 125.697 121.653 125.765 121.706 125.819C121.737 125.902 127.229 131.304 127.503 131.616L127.496 131.608Z" fill="#4C0003"/>
<path d="M121.889 125.681L127.587 131.364C127.511 131.387 162.493 96.3752 162.477 96.3752V96.4743L156.794 90.7761C157.183 90.6161 121.79 125.712 121.889 125.681ZM121.881 125.681C121.881 125.681 156.832 90.7075 156.84 90.7304C156.84 90.738 162.554 96.4209 162.531 96.4362C162.531 96.4362 127.58 131.395 127.572 131.38L121.881 125.681Z" fill="#4C0003"/>
<path d="M82.3673 173.019C82.253 172.905 82.253 172.715 82.3673 172.593L160.771 94.1892C160.893 94.0673 161.076 94.0749 161.198 94.1892C161.319 94.3034 161.319 94.4939 161.198 94.6158L82.7939 173.019C82.6797 173.134 82.4892 173.141 82.3673 173.019Z" fill="#005268"/>
<path d="M82.3597 173.019C82.1007 172.722 82.4587 172.501 82.6416 172.303C82.9844 171.96 84.127 170.818 84.4927 170.452C108.108 146.814 134.969 119.915 158.585 96.2762L159.819 95.0421L160.436 94.4251L160.756 94.1127C160.893 93.9985 161.121 94.0137 161.243 94.1432C161.533 94.486 161.182 94.7146 160.961 94.9507C160.619 95.2935 159.476 96.4362 159.11 96.8019C135.472 120.417 108.573 147.278 84.9345 170.894L83.7004 172.128L83.0834 172.745L82.7711 173.05C82.6568 173.149 82.474 173.133 82.3673 173.027L82.3597 173.019ZM82.3597 173.019C82.6492 173.271 82.8701 172.913 83.0605 172.737C83.4033 172.395 84.546 171.252 84.9117 170.886C108.535 147.255 135.411 120.379 159.042 96.7485L160.276 95.5144L160.893 94.8974L161.198 94.5851C161.289 94.4708 161.281 94.2956 161.175 94.1965C160.885 93.9452 160.672 94.3032 160.474 94.4784C160.131 94.8212 158.988 95.9639 158.623 96.3296C134.992 119.953 108.116 146.829 84.4851 170.46L83.251 171.694L82.6339 172.311L82.3292 172.623C82.2378 172.737 82.2454 172.913 82.3521 173.019H82.3597Z" fill="white"/>
<path d="M83.4567 174.109C83.3424 173.994 83.3348 173.796 83.4567 173.682L161.86 95.2783C161.982 95.1564 162.173 95.164 162.287 95.2783C162.401 95.3925 162.401 95.583 162.287 95.7049L83.8833 174.109C83.769 174.223 83.5786 174.23 83.4567 174.109Z" fill="#005268"/>
<path d="M83.449 174.109C83.19 173.812 83.5481 173.591 83.7309 173.393C84.0737 173.05 85.2164 171.907 85.582 171.542C109.198 147.903 136.058 121.004 159.674 97.366L160.908 96.1319L161.525 95.5148L161.837 95.2025C161.975 95.0882 162.203 95.1034 162.325 95.2329C162.614 95.5757 162.264 95.8043 162.043 96.0404C161.7 96.3832 160.558 97.5259 160.192 97.8916C136.554 121.507 109.655 148.368 86.0163 171.984L84.7822 173.218L84.1651 173.835L83.8528 174.139C83.7385 174.238 83.5557 174.223 83.449 174.117V174.109ZM83.449 174.109C83.7309 174.36 83.967 173.995 84.1499 173.819C84.4927 173.477 85.6354 172.334 86.001 171.968C109.624 148.337 136.5 121.461 160.131 97.8307L161.365 96.5965L161.982 95.9795L162.287 95.6672C162.378 95.5529 162.371 95.3777 162.264 95.2786C161.975 95.0273 161.761 95.3853 161.563 95.5605C161.22 95.9033 160.078 97.046 159.712 97.4117C136.081 121.035 109.205 147.911 85.5744 171.542L84.3403 172.776L83.7233 173.393L83.4186 173.705C83.3271 173.819 83.3424 173.995 83.4414 174.101L83.449 174.109Z" fill="white"/>
<path d="M81.278 171.93C81.1638 171.816 81.1638 171.625 81.278 171.504L159.682 93.0999C159.804 92.978 159.994 92.9857 160.108 93.0999C160.223 93.2142 160.23 93.4123 160.108 93.5265L81.7046 171.93C81.5904 172.044 81.3923 172.044 81.278 171.93Z" fill="#005268"/>
<path d="M81.2779 171.938C81.0265 171.641 81.3769 171.42 81.5598 171.222C81.9026 170.879 83.0453 169.736 83.4109 169.37C107.026 145.732 133.887 118.833 157.503 95.1947L158.737 93.9606L159.354 93.3435L159.674 93.0312C159.819 92.9169 160.04 92.9322 160.161 93.0617C160.451 93.4045 160.101 93.633 159.88 93.8692C159.537 94.212 158.394 95.3547 158.028 95.7203C134.39 119.336 107.491 146.197 83.8528 169.812L82.6187 171.046L82.0016 171.663L81.6893 171.968C81.575 172.06 81.3922 172.052 81.2855 171.945L81.2779 171.938ZM81.2779 171.938C81.5674 172.189 81.7883 171.831 81.9788 171.656C82.3216 171.313 83.4642 170.17 83.8299 169.805C107.453 146.174 134.337 119.298 157.96 95.667L159.194 94.4329L159.811 93.8159L160.116 93.5035C160.207 93.3892 160.192 93.214 160.093 93.115C159.803 92.8636 159.59 93.2217 159.392 93.3969C159.049 93.7397 157.907 94.8824 157.541 95.248C133.91 118.871 107.034 145.755 83.4033 169.378L82.1692 170.612L81.5521 171.229L81.2474 171.542C81.156 171.656 81.1636 171.831 81.2703 171.938H81.2779Z" fill="white"/>
<path d="M80.1885 170.848C80.0743 170.734 80.0743 170.544 80.1885 170.422L158.592 92.0106C158.714 91.8887 158.897 91.8963 159.019 92.0106C159.141 92.1248 159.141 92.3153 159.019 92.4372L80.6151 170.841C80.5009 170.955 80.3104 170.963 80.1885 170.841V170.848Z" fill="#005268"/>
<path d="M80.1885 170.848C79.9295 170.551 80.2876 170.33 80.4704 170.132C80.8132 169.79 81.9559 168.647 82.3216 168.281C105.937 144.643 132.798 117.744 156.413 94.1055L157.648 92.8714L158.265 92.2543L158.585 91.942C158.722 91.8277 158.95 91.8429 159.072 91.9724C159.362 92.3152 159.011 92.5438 158.79 92.7799C158.447 93.1227 157.305 94.2654 156.939 94.6311C133.301 118.247 106.402 145.107 82.7634 168.723L81.5293 169.957L80.9123 170.574L80.5999 170.879C80.4856 170.978 80.3028 170.963 80.1962 170.856L80.1885 170.848ZM80.1885 170.848C80.478 171.1 80.6989 170.742 80.8894 170.567C81.2322 170.224 82.3749 169.081 82.7406 168.715C106.364 145.085 133.24 118.209 156.871 94.5778L158.105 93.3437L158.722 92.7266L159.026 92.4143C159.118 92.3 159.11 92.1248 159.004 92.0258C158.714 91.7744 158.501 92.1324 158.303 92.3076C157.96 92.6504 156.817 93.7931 156.452 94.1588C132.821 117.782 105.945 144.658 82.3139 168.289L81.0798 169.523L80.4628 170.14L80.1581 170.452C80.0667 170.567 80.0743 170.742 80.1809 170.848H80.1885Z" fill="white"/>
<path d="M79.0991 169.759C78.9849 169.645 78.9849 169.454 79.0991 169.332L157.51 90.9285C157.632 90.8067 157.815 90.8143 157.937 90.9285C158.059 91.0428 158.059 91.2333 157.937 91.3552L79.5334 169.759C79.4191 169.873 79.2286 169.873 79.1067 169.759H79.0991Z" fill="#005268"/>
<path d="M79.0992 169.759C78.8402 169.462 79.1982 169.241 79.3811 169.043C79.7239 168.7 80.8665 167.557 81.2322 167.192C104.848 143.553 131.709 116.654 155.324 93.016L156.558 91.7819L157.175 91.1648L157.495 90.8525C157.632 90.7382 157.861 90.7535 157.983 90.883C158.272 91.2258 157.922 91.4543 157.701 91.6905C157.358 92.0333 156.215 93.176 155.85 93.5416C132.211 117.157 105.312 144.018 81.6741 167.634L80.4399 168.868L79.8229 169.485L79.5106 169.789C79.3963 169.888 79.2135 169.873 79.1068 169.767L79.0992 169.759ZM79.0992 169.759C79.3887 170.01 79.6096 169.652 79.8 169.477C80.1428 169.134 81.2855 167.992 81.6512 167.626C105.274 143.995 132.15 117.119 155.781 93.4883L157.015 92.2542L157.632 91.6371L157.937 91.3248C158.028 91.2105 158.021 91.0353 157.914 90.9363C157.625 90.6849 157.411 91.0429 157.213 91.2182C156.871 91.561 155.728 92.7036 155.362 93.0693C131.731 116.692 104.855 143.569 81.2246 167.199L79.9905 168.433L79.3734 169.05L79.0687 169.363C78.9773 169.477 78.9849 169.652 79.0916 169.759H79.0992Z" fill="white"/>
<path d="M77.0458 166.315L75.3436 168.017L86.0901 178.763L87.7923 177.061L77.0458 166.315Z" fill="#005268"/>
<path d="M86.0852 178.77C86.0166 178.694 75.3135 168.083 75.2601 168.022L75.3058 167.976L77.0046 166.269C77.058 166.224 77.0351 166.201 77.1037 166.269C77.1113 166.277 87.8068 177.056 87.8145 177.064C87.8145 177.072 86.1004 178.763 86.0928 178.77H86.0852ZM86.0852 178.763C86.0852 178.763 87.7916 177.041 87.784 177.064L77.0351 166.323C77.0808 166.292 75.3211 168.06 75.3439 168.014L86.0852 178.755V178.763Z" fill="#4C0003"/>
<path d="M86.0087 178.847L75.2674 168.106C75.2217 168.06 75.2217 167.991 75.2674 167.946L76.9662 166.247C77.0119 166.201 77.0805 166.201 77.1262 166.247L87.8675 176.988C87.9132 177.034 87.9132 177.102 87.8675 177.148L86.1687 178.847C86.123 178.893 86.0544 178.893 86.0087 178.847Z" fill="white"/>
<path d="M84.0661 175.038L78.2155 169.187C78.1013 169.073 78.1013 168.883 78.2155 168.761L156.619 90.3571C156.733 90.2428 156.924 90.2428 157.046 90.3571L162.896 96.2076C163.018 96.3295 163.011 96.5123 162.896 96.6342L84.4927 175.038C84.3784 175.152 84.188 175.16 84.0661 175.038ZM78.8554 168.974L84.2794 174.398L162.256 96.4209L156.832 90.997L78.8554 168.974Z" fill="white"/>
<path d="M158.181 87.4854C157.731 87.0359 157.267 86.6474 156.825 86.3351C157.381 85.3981 157.472 84.4306 156.954 83.9202C156.269 83.2346 154.776 83.6155 153.618 84.7734C152.46 85.9313 152.079 87.4245 152.765 88.1101C153.275 88.6205 154.242 88.5367 155.179 87.9806C155.492 88.4224 155.873 88.8795 156.33 89.3366C157.869 90.8754 159.529 91.7057 160.04 91.1953C160.55 90.6849 159.712 89.0318 158.173 87.493L158.181 87.4854Z" fill="white"/>
<path d="M162.356 81.7489C161.906 81.2995 161.441 80.911 161 80.5986C161.556 79.6616 161.647 78.6942 161.129 78.1838C160.443 77.4981 158.95 77.879 157.792 79.037C156.634 80.1949 156.254 81.688 156.939 82.3736C157.45 82.884 158.417 82.8002 159.354 82.2441C159.666 82.686 160.047 83.143 160.504 83.6001C162.043 85.1389 163.704 85.9693 164.214 85.4589C164.725 84.9485 163.887 83.2954 162.348 81.7566L162.356 81.7489Z" fill="white"/>
<path d="M164.161 97.1599C164.61 97.6094 165.075 97.9979 165.517 98.3102C164.961 99.2472 164.869 100.215 165.387 100.725C166.073 101.411 167.566 101.03 168.724 99.8719C169.882 98.714 170.263 97.2208 169.577 96.5352C169.067 96.0248 168.099 96.1086 167.162 96.6647C166.85 96.2229 166.469 95.7658 166.012 95.3087C164.473 93.7699 162.813 92.9396 162.302 93.45C161.792 93.9604 162.63 95.6135 164.169 97.1523L164.161 97.1599Z" fill="white"/>
<path d="M175.824 88.1022C176.273 88.5516 176.738 88.9401 177.18 89.2525C176.624 90.1895 176.532 91.1569 177.05 91.6673C177.736 92.353 179.229 91.9721 180.387 90.8141C181.545 89.6562 181.926 88.1631 181.24 87.4775C180.73 86.9671 179.762 87.0509 178.825 87.607C178.513 87.1652 178.132 86.7081 177.675 86.251C176.136 84.7122 174.476 83.8818 173.965 84.3922C173.455 84.9026 174.293 86.5557 175.832 88.0945L175.824 88.1022Z" fill="white"/>
<path d="M169.76 92.772C170.21 93.2214 170.674 93.6099 171.116 93.9223C170.56 94.8593 170.469 95.8267 170.987 96.3371C171.672 97.0228 173.165 96.6419 174.323 95.4839C175.481 94.326 175.862 92.8329 175.176 92.1473C174.666 91.6369 173.699 91.7207 172.762 92.2768C172.449 91.835 172.068 91.3779 171.611 90.9208C170.072 89.382 168.412 88.5516 167.901 89.062C167.391 89.5724 168.229 91.2255 169.768 92.7643L169.76 92.772Z" fill="white"/>
<path d="M163.582 74.1233C163.178 74.527 163.826 76.0506 165.441 77.6732C167.063 79.2958 168.579 79.9434 168.991 79.532C169.402 79.1206 168.747 77.6047 167.124 75.9897C165.509 74.3747 163.986 73.7195 163.582 74.1309V74.1233Z" fill="#005268"/>
<path d="M163.59 74.131C162.798 75.5708 167.505 80.2025 168.945 79.4864C169.669 78.0619 165.037 73.3464 163.59 74.131ZM163.59 74.131C165.022 73.3083 169.837 78.1076 169.006 79.5474C167.566 80.3777 162.767 75.5708 163.59 74.131Z" fill="#4C0003"/>
<path d="M167.208 75.9061C166.759 75.4566 166.294 75.0681 165.852 74.7557C166.408 73.8187 166.5 72.8513 165.982 72.3409C165.296 71.6553 163.803 72.0361 162.645 73.1941C161.487 74.352 161.106 75.8451 161.792 76.5307C162.302 77.0411 163.27 76.9573 164.207 76.4012C164.519 76.8431 164.9 77.3001 165.357 77.7572C166.896 79.296 168.556 80.1264 169.067 79.616C169.577 79.1056 168.739 77.4525 167.2 75.9137L167.208 75.9061Z" fill="white"/>
<path d="M168.32 74.6111L155.873 90.6773L162.896 97.701L178.856 85.1467L168.32 74.6111Z" fill="#053448"/>
<path d="M93.3676 129.445C93.3676 129.445 101.077 114.841 120.213 125.202C120.213 125.202 105.046 117.005 93.3676 129.445Z" fill="white"/>
</g>
</g>
</g>
<defs>
<filter id="filter0_d_589_23904" x="48" y="68" width="143.581" height="143.944" filterUnits="userSpaceOnUse" color-interpolation-filters="sRGB">
<feFlood flood-opacity="0" result="BackgroundImageFix"/>
<feColorMatrix in="SourceAlpha" type="matrix" values="0 0 0 0 0 0 0 0 0 0 0 0 0 0 0 0 0 0 127 0" result="hardAlpha"/>
<feOffset dx="2" dy="4"/>
<feGaussianBlur stdDeviation="4"/>
<feComposite in2="hardAlpha" operator="out"/>
<feColorMatrix type="matrix" values="0 0 0 0 0 0 0 0 0 0.137376 0 0 0 0 0.195833 0 0 0 0.4 0"/>
<feBlend mode="normal" in2="BackgroundImageFix" result="effect1_dropShadow_589_23904"/>
<feBlend mode="normal" in="SourceGraphic" in2="effect1_dropShadow_589_23904" result="shape"/>
</filter>
<clipPath id="clip0_589_23904">
<rect width="144" height="144" fill="white" transform="translate(46 64)"/>
</clipPath>
<clipPath id="clip1_589_23904">
<rect width="144" height="144" fill="white" transform="translate(46 64)"/>
</clipPath>
</defs>
</svg>
