<svg width="236" height="236" viewBox="0 0 236 236" fill="none" xmlns="http://www.w3.org/2000/svg">
<path d="M200.902 236L236 91.5313L118 5.15794e-06L-6.31493e-06 91.5314L35.0981 236L200.902 236Z" fill="white" fill-opacity="0.3"/>
<g clip-path="url(#clip0_612_41079)">
<path d="M83.6689 116.372C81.912 117.37 80.1473 118.368 78.3904 119.357C78.2171 119.452 78.0674 119.571 78.0674 119.801C78.1068 119.872 78.1304 119.967 78.1934 120.006C80.6515 121.558 82.4872 123.72 84.0943 126.111C85.347 127.971 86.7415 129.682 88.648 130.925C90.2946 132.009 92.0751 132.595 93.9423 131.906C96.3137 131.028 98.3384 131.724 100.355 132.849C102.821 134.218 104.625 136.269 106.217 138.541C107.651 140.592 109.029 142.682 111.259 144.028C112.906 145.018 114.536 145.635 116.467 144.923C118.082 144.329 119.697 144.487 121.28 145.113C124.353 146.316 126.614 148.509 128.465 151.154C130.01 153.363 131.491 155.611 133.831 157.084C135.351 158.034 136.911 158.707 138.786 158.074C140.519 157.488 142.26 157.456 144.002 158.232C145.467 158.889 146.034 160.338 145.278 161.843C145.278 161.89 145.278 161.93 145.301 161.969H145.632C151.194 158.707 156.757 155.445 162.319 152.191C162.319 151.138 162.319 150.093 162.319 149.04C162.138 148.977 161.941 148.945 161.783 148.85C159.9 147.749 157.923 147.599 155.843 148.185C153.716 148.787 151.88 148.153 150.147 146.871C148.043 145.319 146.649 143.189 145.168 141.107C143.568 138.858 141.638 136.982 139.188 135.683C137.935 135.018 136.58 134.63 135.186 134.654C134.232 134.67 133.263 135.01 132.326 135.303C131.585 135.533 130.916 135.398 130.246 135.168C127.701 134.298 125.842 132.556 124.313 130.41C122.974 128.534 121.721 126.586 119.996 125.034C118.342 123.546 116.522 122.342 114.332 121.796C112.984 121.463 111.645 121.63 110.369 122.089C109.132 122.532 107.989 122.303 106.871 121.796C104.775 120.83 103.136 119.31 101.813 117.433C100.403 115.438 99.0633 113.387 97.1961 111.772C96.5973 111.25 95.9671 110.759 95.3289 110.284C94.8798 109.951 94.4465 109.912 93.9108 110.244C92.4218 111.178 90.8855 112.041 89.3729 112.936C89.2153 113.031 88.9947 113.063 88.9711 113.308C89.0341 113.395 89.0814 113.506 89.168 113.562C91.6103 114.979 93.3357 117.093 94.9035 119.389C96.2901 121.416 97.7476 123.387 99.9378 124.654C101.498 125.557 103.05 126.19 104.909 125.525C106.886 124.82 108.848 125.058 110.7 126.016C113.441 127.441 115.529 129.587 117.254 132.136C118.625 134.171 120.051 136.174 122.186 137.512C123.817 138.541 125.487 139.333 127.496 138.549C128.733 138.066 130.12 137.987 131.309 138.343C133.988 139.143 136.21 140.758 138.061 142.896C139.857 144.978 141.087 147.512 143.19 149.333C145.199 151.083 147.271 152.5 150.218 151.589C152.14 150.996 154.125 151.154 155.937 152.247C156.394 152.524 156.441 152.65 155.945 152.927C154.653 153.656 153.369 154.408 152.108 155.184C151.557 155.524 151.116 155.516 150.517 155.184C149.587 154.677 148.587 154.321 147.476 154.305C146.278 154.281 145.16 154.63 144.025 154.891C143.032 155.113 142.024 155.057 141.142 154.606C138.699 153.355 136.793 151.502 135.28 149.198C133.823 146.981 132.231 144.867 130.002 143.347C127.741 141.803 125.409 140.6 122.564 141.558C120.752 142.168 119.074 141.898 117.467 140.901C115.655 139.776 114.229 138.288 113.008 136.554C111.369 134.218 109.77 131.851 107.336 130.196C104.901 128.549 102.404 127.52 99.4178 128.597C97.8421 129.167 96.3216 128.692 94.9507 127.845C93.3042 126.831 91.9176 125.525 90.7673 123.941C89.2547 121.859 87.9547 119.587 85.867 117.972C85.15 117.417 84.4174 116.895 83.6847 116.356L83.6689 116.372Z" fill="#D32833"/>
<path d="M83.6691 116.372C84.3939 116.911 85.1345 117.433 85.8514 117.988C87.9313 119.603 89.2312 121.875 90.7517 123.957C91.902 125.541 93.2886 126.847 94.9352 127.861C96.306 128.708 97.8265 129.183 99.4022 128.613C102.396 127.536 104.886 128.565 107.32 130.212C109.754 131.859 111.354 134.226 112.992 136.57C114.206 138.304 115.64 139.8 117.452 140.917C119.059 141.914 120.745 142.184 122.549 141.574C125.401 140.624 127.733 141.819 129.986 143.363C132.216 144.891 133.807 147.005 135.265 149.214C136.777 151.518 138.684 153.371 141.126 154.622C142.008 155.073 143.017 155.129 144.01 154.907C145.152 154.654 146.263 154.305 147.46 154.321C148.571 154.337 149.572 154.693 150.501 155.2C151.1 155.525 151.533 155.532 152.093 155.2C153.361 154.424 154.638 153.672 155.93 152.943C156.426 152.666 156.379 152.54 155.922 152.263C154.11 151.17 152.124 151.012 150.202 151.605C147.255 152.508 145.191 151.091 143.174 149.349C141.071 147.52 139.842 144.986 138.046 142.912C136.202 140.774 133.973 139.159 131.294 138.359C130.104 138.003 128.718 138.082 127.481 138.565C125.48 139.341 123.809 138.557 122.171 137.528C120.044 136.182 118.61 134.187 117.239 132.152C115.513 129.603 113.426 127.457 110.684 126.032C108.833 125.066 106.871 124.836 104.893 125.541C103.034 126.198 101.482 125.573 99.9222 124.67C97.732 123.395 96.2745 121.432 94.8879 119.405C93.328 117.117 91.5947 114.995 89.1524 113.578C89.0658 113.53 89.0185 113.411 88.9555 113.324C87.6398 113.886 86.4895 114.741 85.229 115.414C84.6854 115.707 84.1733 116.056 83.6533 116.38L83.6691 116.372Z" fill="white"/>
<path d="M145.278 161.851C146.034 160.346 145.467 158.889 144.002 158.24C142.26 157.456 140.519 157.496 138.786 158.082C136.911 158.715 135.351 158.05 133.831 157.092C131.491 155.619 130.01 153.371 128.465 151.162C126.622 148.517 124.353 146.324 121.28 145.121C119.697 144.503 118.082 144.337 116.467 144.931C114.536 145.636 112.906 145.026 111.259 144.036C109.029 142.698 107.651 140.6 106.217 138.549C104.625 136.277 102.821 134.226 100.355 132.857C98.3385 131.732 96.3138 131.036 93.9424 131.914C92.0752 132.603 90.2947 132.009 88.6481 130.933C86.7415 129.682 85.3392 127.972 84.0944 126.119C82.4872 123.728 80.6594 121.566 78.1935 120.014C78.1305 119.975 78.1068 119.88 78.0674 119.809C78.0438 119.809 77.9965 119.809 77.9886 119.809C77.4844 120.363 77.6499 122.706 78.2723 123.086C80.6831 124.551 82.0145 126.942 83.5902 129.151C84.3938 130.276 85.3392 131.36 86.4185 132.295C87.9548 133.625 89.6959 134.63 91.5473 135.351C92.5243 135.731 93.706 135.747 94.8169 135.351C96.5107 134.757 98.2282 134.606 99.8748 135.525C101.687 136.538 103.16 137.932 104.373 139.618C105.744 141.518 107.02 143.498 108.762 145.105C110.44 146.649 112.323 147.844 114.552 148.422C115.836 148.755 117.121 148.581 118.334 148.185C120.311 147.536 121.911 148.288 123.502 149.285C125.645 150.631 127.016 152.682 128.371 154.717C129.427 156.308 130.656 157.828 132.105 158.929C134.075 160.418 136.234 161.93 138.975 161.629C139.668 161.558 140.385 161.494 141.047 161.273C142.576 160.758 143.946 161.09 145.286 161.843L145.278 161.851Z" fill="white"/>
<path d="M61.9797 133.395C60.2228 134.393 58.4581 135.39 56.7012 136.38C56.5279 136.475 56.3782 136.594 56.3782 136.824C56.4176 136.895 56.4412 136.99 56.5042 137.029C58.9623 138.581 60.7979 140.743 62.4051 143.134C63.6578 144.994 65.0523 146.705 66.9588 147.948C68.6054 149.032 70.3859 149.618 72.2531 148.929C74.6245 148.051 76.6492 148.747 78.6661 149.872C81.132 151.241 82.9362 153.292 84.5276 155.564C85.9615 157.615 87.3402 159.705 89.5698 161.051C91.2164 162.041 92.8472 162.658 94.7774 161.946C96.3925 161.352 98.0075 161.51 99.5911 162.136C102.664 163.339 104.925 165.532 106.776 168.177C108.32 170.386 109.801 172.634 112.141 174.107C113.662 175.057 115.222 175.73 117.097 175.097C118.83 174.511 120.571 174.479 122.312 175.255C123.778 175.912 124.345 177.361 123.589 178.866C123.589 178.913 123.589 178.953 123.612 178.992H123.943C129.505 175.73 135.067 172.468 140.63 169.214C140.63 168.161 140.63 167.116 140.63 166.063C140.448 166 140.251 165.968 140.094 165.873C138.211 164.772 136.233 164.622 134.154 165.208C132.026 165.81 130.191 165.176 128.457 163.894C126.354 162.342 124.959 160.212 123.478 158.13C121.879 155.881 119.949 154.005 117.499 152.706C116.246 152.041 114.891 151.653 113.496 151.677C112.543 151.693 111.574 152.033 110.637 152.326C109.896 152.556 109.226 152.421 108.557 152.191C106.012 151.321 104.153 149.579 102.624 147.433C101.285 145.557 100.032 143.609 98.3069 142.057C96.6524 140.569 94.8325 139.365 92.6423 138.819C91.2951 138.486 89.9558 138.652 88.6795 139.112C87.4426 139.555 86.3003 139.325 85.1815 138.819C83.0859 137.853 81.4472 136.333 80.1236 134.456C78.7134 132.461 77.3741 130.41 75.5069 128.795C74.9081 128.273 74.2778 127.782 73.6397 127.307C73.1906 126.974 72.7573 126.935 72.2216 127.267C70.7326 128.201 69.1963 129.064 67.6836 129.959C67.5261 130.054 67.3055 130.086 67.2818 130.331C67.3449 130.418 67.3921 130.529 67.4788 130.585C69.9211 132.002 71.6465 134.116 73.2143 136.412C74.6009 138.439 76.0584 140.41 78.2485 141.677C79.8085 142.58 81.3605 143.213 83.2198 142.548C85.1973 141.843 87.159 142.081 89.0104 143.039C91.7521 144.464 93.8399 146.61 95.5652 149.159C96.9361 151.194 98.362 153.197 100.497 154.535C102.128 155.564 103.798 156.356 105.807 155.572C107.044 155.089 108.431 155.01 109.62 155.366C112.299 156.166 114.521 157.781 116.372 159.919C118.168 162.001 119.397 164.535 121.501 166.356C123.51 168.106 125.582 169.523 128.528 168.612C130.451 168.019 132.436 168.177 134.248 169.27C134.705 169.547 134.752 169.673 134.256 169.95C132.964 170.679 131.68 171.431 130.419 172.207C129.868 172.547 129.426 172.539 128.828 172.207C127.898 171.7 126.898 171.344 125.787 171.328C124.589 171.304 123.47 171.653 122.336 171.914C121.343 172.136 120.335 172.08 119.452 171.629C117.01 170.378 115.104 168.525 113.591 166.221C112.133 164.004 110.542 161.89 108.312 160.37C106.051 158.826 103.719 157.623 100.875 158.581C99.0632 159.191 97.3851 158.921 95.7779 157.924C93.9659 156.799 92.5399 155.311 91.3188 153.577C89.6801 151.241 88.0808 148.874 85.6463 147.219C83.2119 145.572 80.7145 144.543 77.7286 145.62C76.1529 146.19 74.6324 145.715 73.2615 144.868C71.615 143.854 70.2284 142.548 69.0781 140.964C67.5655 138.882 66.2655 136.61 64.1778 134.995C63.4608 134.44 62.7281 133.918 61.9955 133.379L61.9797 133.395Z" fill="#D32833"/>
<path d="M61.9796 133.395C62.7044 133.934 63.445 134.456 64.1619 135.011C66.2418 136.626 67.5418 138.898 69.0623 140.98C70.2125 142.564 71.5991 143.87 73.2457 144.884C74.6165 145.731 76.1371 146.206 77.7127 145.636C80.7065 144.559 83.1961 145.588 85.6305 147.235C88.0649 148.882 89.6642 151.249 91.3029 153.593C92.5162 155.327 93.9501 156.823 95.7621 157.94C97.3693 158.937 99.0553 159.206 100.859 158.597C103.711 157.647 106.043 158.842 108.297 160.386C110.526 161.914 112.118 164.028 113.575 166.237C115.088 168.541 116.994 170.394 119.437 171.645C120.319 172.096 121.327 172.152 122.32 171.93C123.462 171.677 124.573 171.328 125.771 171.344C126.882 171.36 127.882 171.716 128.812 172.223C129.411 172.547 129.844 172.555 130.403 172.223C131.672 171.447 132.948 170.695 134.24 169.966C134.736 169.689 134.689 169.563 134.232 169.285C132.42 168.193 130.435 168.035 128.513 168.628C125.566 169.531 123.502 168.114 121.485 166.372C119.381 164.543 118.152 162.009 116.356 159.935C114.513 157.797 112.283 156.182 109.604 155.382C108.415 155.026 107.028 155.105 105.791 155.588C103.79 156.364 102.12 155.58 100.481 154.551C98.3541 153.205 96.9202 151.21 95.5494 149.175C93.824 146.626 91.7363 144.48 88.9946 143.055C87.1432 142.089 85.1814 141.859 83.204 142.564C81.3447 143.221 79.7926 142.596 78.2327 141.693C76.0425 140.418 74.585 138.455 73.1984 136.428C71.6385 134.14 69.9053 132.018 67.463 130.601C67.3763 130.553 67.329 130.434 67.266 130.347C65.9503 130.909 64.8001 131.764 63.5395 132.437C62.9959 132.73 62.4838 133.079 61.9639 133.403L61.9796 133.395Z" fill="white"/>
<path d="M123.596 178.874C124.353 177.369 123.786 175.912 122.32 175.263C120.579 174.479 118.838 174.519 117.105 175.105C115.23 175.738 113.67 175.073 112.149 174.115C109.809 172.642 108.328 170.394 106.784 168.185C104.94 165.54 102.672 163.347 99.5989 162.144C98.0154 161.526 96.4003 161.36 94.7853 161.954C92.855 162.658 91.2242 162.049 89.5776 161.059C87.3481 159.721 85.9693 157.623 84.5355 155.572C82.944 153.3 81.1399 151.249 78.674 149.88C76.6571 148.755 74.6324 148.059 72.261 148.937C70.3938 149.626 68.6133 149.032 66.9667 147.956C65.0601 146.705 63.6578 144.994 62.413 143.142C60.8058 140.751 58.978 138.589 56.5121 137.037C56.4491 136.998 56.4254 136.903 56.386 136.832C56.3624 136.832 56.3151 136.832 56.3073 136.832C55.803 137.386 55.9685 139.729 56.5909 140.109C59.0017 141.574 60.3331 143.965 61.9088 146.174C62.7124 147.298 63.6578 148.383 64.7371 149.317C66.2734 150.648 68.0145 151.653 69.8659 152.374C70.8429 152.754 72.0246 152.769 73.1355 152.374C74.8293 151.78 76.5468 151.629 78.1934 152.548C80.0054 153.561 81.4787 154.955 82.6919 156.641C84.0628 158.541 85.3391 160.521 87.0802 162.128C88.7583 163.672 90.6412 164.867 92.8708 165.445C94.155 165.778 95.4392 165.604 96.6524 165.208C98.6299 164.559 100.229 165.311 101.821 166.308C103.964 167.654 105.334 169.705 106.689 171.74C107.745 173.331 108.974 174.851 110.424 175.952C112.393 177.44 114.552 178.953 117.294 178.652C117.987 178.581 118.704 178.517 119.366 178.296C120.894 177.781 122.265 178.113 123.604 178.866L123.596 178.874Z" fill="white"/>
<path d="M105.35 99.3499C103.593 100.347 101.828 101.345 100.072 102.335C99.8982 102.43 99.7485 102.549 99.7485 102.778C99.7879 102.849 99.8116 102.944 99.8746 102.984C102.333 104.536 104.168 106.697 105.775 109.088C107.028 110.949 108.423 112.659 110.329 113.902C111.976 114.987 113.756 115.573 115.623 114.884C117.995 114.005 120.02 114.702 122.036 115.826C124.502 117.196 126.307 119.247 127.898 121.519C129.332 123.57 130.711 125.66 132.94 127.006C134.587 127.995 136.218 128.613 138.148 127.9C139.763 127.307 141.378 127.465 142.961 128.09C146.034 129.294 148.295 131.487 150.147 134.131C151.691 136.34 153.172 138.589 155.512 140.062C157.032 141.012 158.592 141.685 160.467 141.051C162.2 140.465 163.942 140.434 165.683 141.21C167.148 141.867 167.715 143.316 166.959 144.82C166.959 144.868 166.959 144.907 166.983 144.947H167.313C172.876 141.685 178.438 138.423 184 135.169C184 134.116 184 133.071 184 132.018C183.819 131.954 183.622 131.922 183.464 131.827C181.581 130.727 179.604 130.577 177.524 131.162C175.397 131.764 173.561 131.131 171.828 129.848C169.724 128.296 168.33 126.166 166.849 124.084C165.249 121.836 163.319 119.959 160.869 118.661C159.616 117.996 158.261 117.608 156.867 117.631C155.913 117.647 154.944 117.988 154.007 118.281C153.266 118.51 152.597 118.376 151.927 118.146C149.382 117.275 147.523 115.533 145.995 113.388C144.655 111.511 143.403 109.563 141.677 108.012C140.023 106.523 138.203 105.32 136.013 104.773C134.666 104.441 133.326 104.607 132.05 105.066C130.813 105.51 129.671 105.28 128.552 104.773C126.456 103.807 124.818 102.287 123.494 100.411C122.084 98.4156 120.744 96.365 118.877 94.7498C118.278 94.2272 117.648 93.7363 117.01 93.2613C116.561 92.9288 116.128 92.8892 115.592 93.2217C114.103 94.156 112.567 95.019 111.054 95.9137C110.896 96.0087 110.676 96.0403 110.652 96.2858C110.715 96.3729 110.763 96.4837 110.849 96.5391C113.291 97.9564 115.017 100.07 116.585 102.366C117.971 104.393 119.429 106.365 121.619 107.632C123.179 108.534 124.731 109.168 126.59 108.502C128.568 107.798 130.529 108.035 132.381 108.993C135.122 110.419 137.21 112.564 138.936 115.114C140.306 117.148 141.732 119.152 143.867 120.49C145.498 121.519 147.168 122.311 149.177 121.527C150.414 121.044 151.801 120.965 152.991 121.321C155.669 122.121 157.891 123.736 159.742 125.874C161.539 127.956 162.768 130.489 164.871 132.31C166.88 134.06 168.952 135.477 171.899 134.567C173.821 133.973 175.806 134.131 177.618 135.224C178.075 135.501 178.123 135.628 177.626 135.905C176.334 136.633 175.05 137.386 173.79 138.161C173.238 138.502 172.797 138.494 172.198 138.161C171.268 137.655 170.268 137.298 169.157 137.283C167.96 137.259 166.841 137.607 165.706 137.869C164.714 138.09 163.705 138.035 162.823 137.584C160.381 136.333 158.474 134.48 156.961 132.176C155.504 129.959 153.912 127.845 151.683 126.325C149.422 124.781 147.09 123.577 144.246 124.535C142.434 125.145 140.755 124.876 139.148 123.878C137.336 122.754 135.91 121.266 134.689 119.532C133.05 117.196 131.451 114.829 129.017 113.174C126.582 111.527 124.085 110.498 121.099 111.574C119.523 112.145 118.003 111.67 116.632 110.822C114.985 109.809 113.599 108.502 112.448 106.919C110.936 104.837 109.636 102.564 107.548 100.949C106.831 100.395 106.099 99.8724 105.366 99.334L105.35 99.3499Z" fill="#D32833"/>
<path d="M105.35 99.35C106.075 99.8884 106.815 100.411 107.532 100.965C109.612 102.58 110.912 104.853 112.433 106.935C113.583 108.518 114.969 109.825 116.616 110.838C117.987 111.685 119.507 112.161 121.083 111.59C124.077 110.514 126.566 111.543 129.001 113.19C131.435 114.837 133.035 117.204 134.673 119.548C135.887 121.282 137.32 122.778 139.132 123.894C140.74 124.892 142.426 125.161 144.23 124.551C147.082 123.601 149.414 124.797 151.667 126.341C153.897 127.869 155.488 129.983 156.945 132.192C158.458 134.496 160.365 136.349 162.807 137.599C163.689 138.051 164.698 138.106 165.69 137.885C166.833 137.631 167.944 137.283 169.141 137.299C170.252 137.314 171.253 137.671 172.182 138.177C172.781 138.502 173.214 138.51 173.774 138.177C175.042 137.402 176.318 136.649 177.61 135.921C178.107 135.644 178.06 135.517 177.603 135.24C175.791 134.147 173.805 133.989 171.883 134.583C168.936 135.486 166.872 134.068 164.855 132.326C162.752 130.497 161.523 127.964 159.727 125.889C157.883 123.752 155.653 122.137 152.975 121.337C151.785 120.981 150.399 121.06 149.162 121.543C147.161 122.319 145.49 121.535 143.852 120.506C141.724 119.16 140.291 117.164 138.92 115.13C137.194 112.58 135.107 110.435 132.365 109.009C130.514 108.043 128.552 107.814 126.574 108.518C124.715 109.176 123.163 108.55 121.603 107.648C119.413 106.373 117.955 104.409 116.569 102.382C115.009 100.094 113.276 97.9724 110.833 96.5551C110.747 96.5076 110.699 96.3889 110.636 96.3018C109.321 96.8639 108.17 97.719 106.91 98.392C106.366 98.6849 105.854 99.0333 105.334 99.3579L105.35 99.35Z" fill="white"/>
<path d="M166.967 144.828C167.723 143.324 167.156 141.867 165.691 141.218C163.949 140.434 162.208 140.473 160.475 141.059C158.6 141.693 157.04 141.028 155.52 140.07C153.18 138.597 151.699 136.348 150.154 134.139C148.311 131.495 146.042 129.302 142.969 128.098C141.386 127.481 139.771 127.315 138.156 127.908C136.225 128.613 134.595 128.003 132.948 127.014C130.718 125.676 129.34 123.578 127.906 121.527C126.314 119.255 124.51 117.204 122.044 115.834C120.027 114.71 118.003 114.013 115.631 114.892C113.764 115.581 111.984 114.987 110.337 113.91C108.43 112.659 107.028 110.949 105.783 109.096C104.176 106.705 102.348 104.544 99.8825 102.992C99.8194 102.952 99.7958 102.857 99.7564 102.786C99.7328 102.786 99.6855 102.786 99.6776 102.786C99.1734 103.34 99.3388 105.684 99.9612 106.064C102.372 107.529 103.703 109.92 105.279 112.129C106.083 113.253 107.028 114.338 108.107 115.272C109.644 116.602 111.385 117.608 113.236 118.328C114.213 118.708 115.395 118.724 116.506 118.328C118.2 117.734 119.917 117.584 121.564 118.502C123.376 119.516 124.849 120.909 126.062 122.596C127.433 124.496 128.709 126.475 130.451 128.083C132.129 129.626 134.012 130.822 136.241 131.4C137.525 131.733 138.81 131.558 140.023 131.162C142 130.513 143.6 131.265 145.191 132.263C147.334 133.609 148.705 135.66 150.06 137.694C151.116 139.286 152.345 140.806 153.794 141.907C155.764 143.395 157.922 144.907 160.664 144.606C161.357 144.535 162.074 144.472 162.736 144.25C164.265 143.736 165.635 144.068 166.975 144.82L166.967 144.828Z" fill="white"/>
</g>
<defs>
<clipPath id="clip0_612_41079">
<rect width="128" height="86" fill="white" transform="translate(56 93)"/>
</clipPath>
</defs>
</svg>
