<svg width="174" height="200" viewBox="0 0 174 200" fill="none" xmlns="http://www.w3.org/2000/svg">
<rect width="174" height="200" fill="white" fill-opacity="0.05"/>
<g clip-path="url(#clip0_622_49915)">
<path d="M49.301 45.4018C49.301 45.4018 40.9907 39.5023 40.605 32.7808C40.605 32.7808 44.9668 31.3105 50.0356 34.1507C50.0356 34.1507 46.9503 27.21 50.2285 21.5845C50.2285 21.5845 56.8308 22.5799 59.8886 30.4247C59.8886 30.4247 60.0539 23.758 66.8032 19C66.8032 19 69.8243 21.484 70.7884 30.4886C70.7884 30.4886 76.7296 24.242 81.6148 24.8447C81.6148 24.8447 82.8545 32.6347 79.4569 36.8539C79.4569 36.8539 87.2254 36.1689 88.7681 38.6986C88.7681 38.6986 87.207 42.6986 83.2218 45.8858C75.4165 52.1324 76.7847 52.2785 65.2972 53.6758C53.8097 55.0731 49.2918 45.3927 49.2918 45.3927L49.301 45.4018Z" fill="#6DC82A"/>
<path d="M50.9723 47.9589C47.1339 35.4658 67.1246 29.6484 69.3284 23.5205C68.1438 20.105 66.8032 19 66.8032 19C60.0539 23.758 59.8886 30.4247 59.8886 30.4247C56.8308 22.5799 50.2285 21.5845 50.2285 21.5845C46.9503 27.21 50.0356 34.1507 50.0356 34.1507C44.9668 31.3014 40.605 32.7808 40.605 32.7808C40.9907 39.5023 49.301 45.4018 49.301 45.4018C49.301 45.4018 49.8244 46.5251 50.9814 47.9589H50.9723Z" fill="#B4D902"/>
<path d="M56.1421 42.6348C56.1421 42.6348 41.9917 34.5069 33.9844 51.9407C31.551 57.2558 30.6052 63.1279 31.1469 68.9453C31.9826 77.9042 34.8384 93.4202 44.5353 103.84C46.0412 105.457 47.9512 106.653 50.0632 107.32C52.9466 108.224 57.5379 109.32 62.7537 109.292C67.1062 109.274 71.3303 107.758 74.7187 105.027C83.6534 97.822 101.348 79.6211 92.9279 53.5023C92.9279 53.5023 89.0161 41.475 73.2954 44.5708L71.7159 44.9818C69.8243 45.5754 63.3505 47.0823 56.1421 42.6165V42.6348Z" fill="#D32833"/>
<path d="M50.0724 107.32C51.257 107.694 52.7354 108.096 54.425 108.443C36.0138 69.5389 35.1598 46.4521 55.178 42.169C51.863 40.717 40.7336 37.2375 33.9844 51.9407C31.551 57.2558 30.6052 63.1279 31.1469 68.9453C31.9826 77.9042 34.8384 93.4202 44.5353 103.84C46.0412 105.457 47.9512 106.653 50.0632 107.32H50.0724Z" fill="#F45751"/>
<path opacity="0.5" d="M44.3571 54.2402C44.5893 52.1243 43.4984 50.2702 41.9204 50.0989C40.3424 49.9276 38.8749 51.5039 38.6427 53.6198C38.4104 55.7357 39.5014 57.5898 41.0794 57.7611C42.6574 57.9324 44.1248 56.3561 44.3571 54.2402Z" fill="white"/>
<path d="M55.175 55.4179C55.4072 53.3021 54.3163 51.4479 52.7383 51.2766C51.1603 51.1053 49.6928 52.6817 49.4606 54.7975C49.2283 56.9134 50.3193 58.7675 51.8972 58.9389C53.4752 59.1102 54.9427 57.5338 55.175 55.4179Z" fill="white"/>
<path d="M66.5863 55.7075C66.8186 53.5916 65.7276 51.7375 64.1496 51.5662C62.5716 51.3948 61.1042 52.9712 60.8719 55.0871C60.6397 57.203 61.7306 59.0571 63.3086 59.2284C64.8866 59.3997 66.3541 57.8234 66.5863 55.7075Z" fill="white"/>
<path d="M78.3515 55.5193C78.5838 53.4034 77.4928 51.5493 75.9148 51.3779C74.3368 51.2066 72.8694 52.783 72.6371 54.8989C72.4049 57.0147 73.4958 58.8689 75.0738 59.0402C76.6518 59.2115 78.1193 57.6351 78.3515 55.5193Z" fill="white"/>
<path d="M88.5956 54.6137C88.8278 52.4979 87.7369 50.6437 86.1589 50.4724C84.5809 50.3011 83.1134 51.8775 82.8812 53.9933C82.6489 56.1092 83.7398 57.9633 85.3178 58.1347C86.8958 58.306 88.3633 56.7296 88.5956 54.6137Z" fill="white"/>
<path d="M93.5681 67.4519C93.8003 65.336 92.7094 63.4819 91.1314 63.3106C89.5534 63.1392 88.0859 64.7156 87.8537 66.8315C87.6214 68.9473 88.7124 70.8015 90.2904 70.9728C91.8684 71.1441 93.3358 69.5677 93.5681 67.4519Z" fill="white"/>
<path d="M84.3479 67.4931C84.5802 65.3773 83.4892 63.5231 81.9112 63.3518C80.3332 63.1805 78.8658 64.7569 78.6335 66.8727C78.4013 68.9886 79.4922 70.8427 81.0702 71.0141C82.6482 71.1854 84.1157 69.609 84.3479 67.4931Z" fill="white"/>
<path d="M73.3156 67.646C73.5478 65.5301 72.4569 63.676 70.8789 63.5046C69.3009 63.3333 67.8334 64.9097 67.6012 67.0256C67.3689 69.1414 68.4598 70.9956 70.0378 71.1669C71.6158 71.3382 73.0833 69.7618 73.3156 67.646Z" fill="white"/>
<path d="M60.82 67.7783C61.0522 65.6624 59.9613 63.8083 58.3833 63.637C56.8053 63.4656 55.3378 65.042 55.1056 67.1579C54.8733 69.2738 55.9643 71.1279 57.5423 71.2992C59.1202 71.4705 60.5877 69.8942 60.82 67.7783Z" fill="white"/>
<path d="M48.433 68.8139C48.6652 66.6981 47.5743 64.8439 45.9963 64.6726C44.4183 64.5013 42.9508 66.0777 42.7186 68.1935C42.4863 70.3094 43.5772 72.1635 45.1552 72.3349C46.7332 72.5062 48.2007 70.9298 48.433 68.8139Z" fill="white"/>
<path opacity="0.5" d="M38.8705 69.2629C39.1027 67.147 38.0118 65.2929 36.4338 65.1216C34.8558 64.9503 33.3883 66.5266 33.1561 68.6425C32.9238 70.7584 34.0147 72.6125 35.5927 72.7838C37.1707 72.9551 38.6382 71.3788 38.8705 69.2629Z" fill="white"/>
<path opacity="0.5" d="M43.6997 80.3584C43.9319 78.2425 42.841 76.3884 41.263 76.217C39.685 76.0457 38.2175 77.6221 37.9853 79.738C37.753 81.8538 38.844 83.708 40.422 83.8793C41.9999 84.0506 43.4674 82.4742 43.6997 80.3584Z" fill="white"/>
<path d="M55.5569 81.6455C55.7892 79.5296 54.6982 77.6755 53.1202 77.5042C51.5423 77.3328 50.0748 78.9092 49.8425 81.0251C49.6103 83.141 50.7012 84.9951 52.2792 85.1664C53.8572 85.3377 55.3247 83.7613 55.5569 81.6455Z" fill="white"/>
<path d="M67.7999 82.2385C68.0322 80.1226 66.9412 78.2685 65.3633 78.0972C63.7853 77.9259 62.3178 79.5022 62.0855 81.6181C61.8533 83.734 62.9442 85.5881 64.5222 85.7594C66.1002 85.9307 67.5677 84.3544 67.7999 82.2385Z" fill="white"/>
<path d="M78.399 82.2155C78.6312 80.0997 77.5403 78.2455 75.9623 78.0742C74.3843 77.9029 72.9168 79.4793 72.6846 81.5951C72.4523 83.711 73.5433 85.5651 75.1213 85.7365C76.6993 85.9078 78.1667 84.3314 78.399 82.2155Z" fill="white"/>
<path d="M90.2495 83.0925C90.4818 80.9766 89.3908 79.1225 87.8128 78.9512C86.2348 78.7799 84.7674 80.3562 84.5351 82.4721C84.3029 84.588 85.3938 86.4421 86.9718 86.6134C88.5498 86.7847 90.0173 85.2084 90.2495 83.0925Z" fill="white"/>
<path d="M76.9603 94.0373C77.1925 91.9215 76.1016 90.0673 74.5236 89.896C72.9456 89.7247 71.4781 91.3011 71.2459 93.4169C71.0136 95.5328 72.1046 97.3869 73.6825 97.5582C75.2605 97.7296 76.728 96.1532 76.9603 94.0373Z" fill="white"/>
<path d="M65.5827 93.5427C65.8149 91.4268 64.724 89.5727 63.146 89.4014C61.568 89.2301 60.1005 90.8064 59.8683 92.9223C59.636 95.0382 60.727 96.8923 62.305 97.0636C63.8829 97.2349 65.3504 95.6586 65.5827 93.5427Z" fill="white"/>
<path d="M52.6138 92.1357C52.8461 90.0198 51.7551 88.1657 50.1771 87.9944C48.5991 87.8231 47.1317 89.3994 46.8994 91.5153C46.6672 93.6312 47.7581 95.4853 49.3361 95.6566C50.9141 95.828 52.3816 94.2516 52.6138 92.1357Z" fill="white"/>
<path d="M59.3984 103.511C59.6306 101.395 58.5397 99.541 56.9617 99.3696C55.3837 99.1983 53.9162 100.775 53.684 102.891C53.4517 105.006 54.5426 106.861 56.1206 107.032C57.6986 107.203 59.1661 105.627 59.3984 103.511Z" fill="white"/>
<path d="M69.5322 103.845C69.7644 101.729 68.6735 99.8747 67.0955 99.7034C65.5175 99.5321 64.0501 101.108 63.8178 103.224C63.5856 105.34 64.6765 107.194 66.2545 107.366C67.8325 107.537 69.2999 105.961 69.5322 103.845Z" fill="white"/>
<path d="M103.864 62.6803C103.864 62.6803 101.1 52.8995 105.031 47.4292C105.031 47.4292 109.356 48.9908 111.523 54.3698C111.523 54.3698 113.488 47.0365 119.585 44.6895C119.585 44.6895 124.112 49.5753 121.55 57.5936C121.55 57.5936 125.875 52.5068 134.14 53C134.14 53 134.929 56.8173 130.007 64.4429C130.007 64.4429 138.566 63.2739 142 66.7899C142 66.7899 138.07 73.6392 132.753 74.8082C132.753 74.8082 139.245 79.1095 138.85 82.0411C138.85 82.0411 135.122 84.1872 129.998 84.1963C119.98 84.2054 120.953 85.1735 111.119 79.1095C101.284 73.0456 103.855 62.6803 103.855 62.6803H103.864Z" fill="#6DC82A"/>
<path d="M103.561 65.7214C108.437 53.5844 127.684 61.5114 133.258 58.0958C134.489 54.6986 134.14 53 134.14 53C125.884 52.5068 121.55 57.5936 121.55 57.5936C124.103 49.5753 119.585 44.6895 119.585 44.6895C113.488 47.0365 111.523 54.3698 111.523 54.3698C109.356 48.9908 105.031 47.4292 105.031 47.4292C101.1 52.9086 103.864 62.6803 103.864 62.6803C103.864 62.6803 103.561 63.8858 103.561 65.7214Z" fill="#B4D902"/>
<path d="M110.944 64.7807C110.944 64.7807 105.031 49.63 87.8131 58.2327C82.5606 60.8537 78.1346 64.8537 74.8839 69.7213C69.8886 77.2282 62.3496 91.1003 63.3505 105.265C63.5066 107.466 64.2412 109.584 65.4717 111.42C67.1521 113.913 70.0447 117.639 74.1218 120.863C77.5285 123.557 81.7709 125.009 86.1327 124.991C97.6386 124.936 122.891 121.767 132.771 96.1597C132.771 96.1597 137.298 84.3423 123.084 76.9724L121.596 76.3149C119.741 75.6026 113.754 72.735 110.944 64.7715V64.7807Z" fill="#D32833"/>
<path d="M65.4809 111.438C66.1696 112.461 67.0695 113.703 68.1714 115.018C78.3183 73.2282 92.1933 54.6894 110.494 63.8218C108.823 60.6255 102.34 50.9816 87.8223 58.2419C82.5698 60.8629 78.1438 64.8629 74.8931 69.7305C69.8978 77.2373 62.3588 91.1095 63.3597 105.274C63.5158 107.475 64.2504 109.593 65.4809 111.429V111.438Z" fill="#F45751"/>
<path opacity="0.5" d="M94.4378 66.4939C95.9511 64.9888 96.268 62.8638 95.1455 61.7475C94.0231 60.6312 91.8864 60.9464 90.3731 62.4514C88.8598 63.9564 88.5429 66.0814 89.6653 67.1977C90.7878 68.314 92.9245 67.9989 94.4378 66.4939Z" fill="white"/>
<path d="M102.134 74.1469C103.647 72.6419 103.964 70.5169 102.842 69.4006C101.719 68.2843 99.5825 68.5994 98.0692 70.1045C96.5559 71.6095 96.239 73.7345 97.3614 74.8508C98.4839 75.9671 100.621 75.652 102.134 74.1469Z" fill="white"/>
<path d="M110.853 81.4807C112.367 79.9756 112.684 77.8506 111.561 76.7343C110.439 75.6181 108.302 75.9332 106.789 77.4382C105.275 78.9433 104.958 81.0683 106.081 82.1846C107.203 83.3008 109.34 82.9857 110.853 81.4807Z" fill="white"/>
<path d="M120.147 88.667C121.66 87.1619 121.977 85.0369 120.855 83.9206C119.732 82.8043 117.596 83.1195 116.082 84.6245C114.569 86.1295 114.252 88.2545 115.375 89.3708C116.497 90.4871 118.634 90.172 120.147 88.667Z" fill="white"/>
<path d="M128.7 94.3364C130.213 92.8314 130.53 90.7063 129.408 89.5901C128.285 88.4738 126.149 88.7889 124.635 90.2939C123.122 91.799 122.805 93.924 123.928 95.0403C125.05 96.1566 127.187 95.8414 128.7 94.3364Z" fill="white"/>
<path d="M124.499 107.453C126.013 105.948 126.33 103.823 125.207 102.707C124.085 101.59 121.948 101.905 120.435 103.41C118.921 104.915 118.604 107.04 119.727 108.157C120.849 109.273 122.986 108.958 124.499 107.453Z" fill="white"/>
<path d="M117.271 101.722C118.785 100.217 119.102 98.0916 117.979 96.9753C116.857 95.859 114.72 96.1742 113.207 97.6792C111.693 99.1842 111.376 101.309 112.499 102.426C113.621 103.542 115.758 103.227 117.271 101.722Z" fill="white"/>
<path d="M108.574 94.9736C110.087 93.4686 110.404 91.3436 109.281 90.2273C108.159 89.111 106.022 89.4261 104.509 90.9311C102.996 92.4362 102.679 94.5612 103.801 95.6775C104.924 96.7938 107.06 96.4786 108.574 94.9736Z" fill="white"/>
<path d="M98.7548 87.2924C100.268 85.7874 100.585 83.6624 99.4626 82.5461C98.3401 81.4298 96.2035 81.745 94.6901 83.25C93.1768 84.755 92.86 86.88 93.9824 87.9963C95.1048 89.1126 97.2415 88.7975 98.7548 87.2924Z" fill="white"/>
<path d="M88.4497 80.393C89.963 78.888 90.2799 76.763 89.1574 75.6467C88.035 74.5304 85.8983 74.8455 84.385 76.3506C82.8717 77.8556 82.5548 79.9806 83.6772 81.0969C84.7997 82.2132 86.9364 81.8981 88.4497 80.393Z" fill="white"/>
<path opacity="0.5" d="M80.7064 74.7942C82.2197 73.2891 82.5366 71.1641 81.4141 70.0478C80.2917 68.9315 78.155 69.2467 76.6417 70.7517C75.1284 72.2567 74.8115 74.3817 75.9339 75.498C77.0564 76.6143 79.1931 76.2992 80.7064 74.7942Z" fill="white"/>
<path opacity="0.5" d="M77.4839 86.4514C78.9972 84.9463 79.3141 82.8213 78.1917 81.705C77.0692 80.5888 74.9326 80.9039 73.4192 82.4089C71.9059 83.914 71.589 86.039 72.7115 87.1553C73.8339 88.2716 75.9706 87.9564 77.4839 86.4514Z" fill="white"/>
<path d="M85.9159 94.8349C87.4292 93.3299 87.7461 91.2049 86.6236 90.0886C85.5012 88.9723 83.3645 89.2874 81.8512 90.7925C80.3379 92.2975 80.021 94.4225 81.1434 95.5388C82.2659 96.6551 84.4026 96.34 85.9159 94.8349Z" fill="white"/>
<path d="M95.0884 102.918C96.6017 101.413 96.9186 99.2879 95.7962 98.1716C94.6737 97.0553 92.537 97.3704 91.0237 98.8755C89.5104 100.381 89.1935 102.506 90.316 103.622C91.4384 104.738 93.5751 104.423 95.0884 102.918Z" fill="white"/>
<path d="M103.37 109.496C104.884 107.991 105.201 105.866 104.078 104.75C102.956 103.634 100.819 103.949 99.3058 105.454C97.7925 106.959 97.4756 109.084 98.598 110.2C99.7205 111.316 101.857 111.001 103.37 109.496Z" fill="white"/>
<path d="M110.805 116.768C112.318 115.263 112.635 113.138 111.513 112.021C110.39 110.905 108.253 111.22 106.74 112.725C105.227 114.23 104.91 116.355 106.032 117.471C107.155 118.588 109.292 118.273 110.805 116.768Z" fill="white"/>
<path d="M94.8071 117.815C96.3205 116.31 96.6373 114.185 95.5149 113.069C94.3925 111.952 92.2558 112.267 90.7424 113.772C89.2291 115.277 88.9123 117.402 90.0347 118.519C91.1571 119.635 93.2938 119.32 94.8071 117.815Z" fill="white"/>
<path d="M86.2514 110.357C87.7647 108.852 88.0816 106.727 86.9591 105.61C85.8367 104.494 83.7 104.809 82.1867 106.314C80.6734 107.819 80.3565 109.944 81.4789 111.061C82.6014 112.177 84.7381 111.862 86.2514 110.357Z" fill="white"/>
<path d="M77.024 101.188C78.5373 99.6827 78.8542 97.5577 77.7317 96.4414C76.6093 95.3251 74.4726 95.6402 72.9593 97.1453C71.446 98.6503 71.1291 100.775 72.2516 101.892C73.374 103.008 75.5107 102.693 77.024 101.188Z" fill="white"/>
<path d="M75.1575 114.277C76.6709 112.772 76.9877 110.647 75.8653 109.53C74.7429 108.414 72.6062 108.729 71.0928 110.234C69.5795 111.739 69.2627 113.864 70.3851 114.98C71.5075 116.097 73.6442 115.782 75.1575 114.277Z" fill="white"/>
<path d="M82.8431 120.854C84.3564 119.349 84.6733 117.224 83.5509 116.108C82.4284 114.992 80.2917 115.307 78.7784 116.812C77.2651 118.317 76.9482 120.442 78.0707 121.558C79.1931 122.675 81.3298 122.359 82.8431 120.854Z" fill="white"/>
</g>
<path d="M48.9592 164.375L49.2092 162H49.0842L47.8842 164.15L45.3342 168.425H44.7092L42.0342 164.125L40.8842 162H40.7592L41.0592 164.35V176H39.0342V158.5H40.9592L45.1092 165.15H45.1592L49.1592 158.5H51.0342V176H48.9592V164.375ZM52.9494 169.75C52.9494 167.733 53.4744 166.142 54.5244 164.975C55.5744 163.792 57.0744 163.2 59.0244 163.2C60.0744 163.2 60.9744 163.375 61.7244 163.725C62.4911 164.058 63.1244 164.517 63.6244 165.1C64.1244 165.683 64.4911 166.375 64.7244 167.175C64.9744 167.975 65.0994 168.833 65.0994 169.75C65.0994 170.75 64.9661 171.658 64.6994 172.475C64.4327 173.275 64.0411 173.958 63.5244 174.525C63.0077 175.092 62.3661 175.533 61.5994 175.85C60.8494 176.15 59.9911 176.3 59.0244 176.3C57.9911 176.3 57.0911 176.133 56.3244 175.8C55.5577 175.45 54.9244 174.983 54.4244 174.4C53.9244 173.817 53.5494 173.125 53.2994 172.325C53.0661 171.525 52.9494 170.667 52.9494 169.75ZM55.0244 169.75C55.0244 170.333 55.0911 170.917 55.2244 171.5C55.3744 172.083 55.6077 172.608 55.9244 173.075C56.2411 173.542 56.6494 173.917 57.1494 174.2C57.6661 174.483 58.2911 174.625 59.0244 174.625C60.3577 174.625 61.3577 174.217 62.0244 173.4C62.7077 172.567 63.0494 171.35 63.0494 169.75C63.0494 169.15 62.9744 168.567 62.8244 168C62.6911 167.417 62.4577 166.892 62.1244 166.425C61.8077 165.958 61.3911 165.583 60.8744 165.3C60.3744 165.017 59.7577 164.875 59.0244 164.875C57.6911 164.875 56.6911 165.283 56.0244 166.1C55.3577 166.917 55.0244 168.133 55.0244 169.75ZM67.1646 176V174.325H70.5396V165.175H67.1646V163.5H71.8396L72.2396 165.125H72.3646C72.9313 164.608 73.5646 164.167 74.2646 163.8C74.9646 163.433 75.798 163.25 76.7646 163.25C77.3313 163.25 77.7813 163.358 78.1146 163.575C78.4646 163.792 78.7313 164.108 78.9146 164.525C79.1146 164.942 79.248 165.45 79.3146 166.05C79.3813 166.633 79.4146 167.3 79.4146 168.05L77.6646 168.075C77.6646 167.008 77.5563 166.225 77.3396 165.725C77.1396 165.225 76.7646 164.975 76.2146 164.975C75.698 164.975 75.2313 165.05 74.8146 165.2C74.398 165.35 74.0313 165.533 73.7146 165.75C73.4146 165.967 73.1563 166.183 72.9396 166.4C72.723 166.617 72.5646 166.8 72.4646 166.95V174.325H77.2646V176H67.1646ZM82.2049 164.475C82.9215 164.058 83.7299 163.758 84.6299 163.575C85.5299 163.392 86.4132 163.3 87.2799 163.3C88.1299 163.3 88.8215 163.433 89.3549 163.7C89.9049 163.967 90.3299 164.317 90.6299 164.75C90.9465 165.167 91.1549 165.65 91.2549 166.2C91.3716 166.733 91.4299 167.275 91.4299 167.825C91.4299 168.458 91.4132 169.133 91.3799 169.85C91.3466 170.567 91.3216 171.283 91.3049 172C91.3049 172.833 91.3549 173.625 91.4549 174.375H93.1299V176H89.8049L89.5799 174.125H89.4549C89.3549 174.275 89.2049 174.467 89.0049 174.7C88.8049 174.933 88.5382 175.167 88.2049 175.4C87.8882 175.617 87.4966 175.808 87.0299 175.975C86.5632 176.142 86.0132 176.225 85.3799 176.225C84.1465 176.225 83.1715 175.908 82.4549 175.275C81.7382 174.642 81.3799 173.775 81.3799 172.675C81.3799 171.825 81.5632 171.117 81.9299 170.55C82.3132 169.983 82.8549 169.55 83.5549 169.25C84.2549 168.95 85.0965 168.775 86.0799 168.725C87.0799 168.675 88.1965 168.742 89.4299 168.925C89.5132 168.158 89.5215 167.525 89.4549 167.025C89.4049 166.508 89.2715 166.1 89.0549 165.8C88.8549 165.5 88.5632 165.292 88.1799 165.175C87.8132 165.042 87.3549 164.975 86.8049 164.975C86.0549 164.975 85.3382 165.083 84.6549 165.3C83.9715 165.5 83.3632 165.708 82.8299 165.925L82.2049 164.475ZM85.8799 174.55C86.3466 174.55 86.7799 174.475 87.1799 174.325C87.5799 174.175 87.9299 173.983 88.2299 173.75C88.5299 173.517 88.7799 173.267 88.9799 173C89.1799 172.717 89.3299 172.45 89.4299 172.2V170.45C88.5632 170.3 87.7632 170.225 87.0299 170.225C86.2965 170.225 85.6632 170.308 85.1299 170.475C84.5965 170.625 84.1799 170.867 83.8799 171.2C83.5799 171.533 83.4299 171.967 83.4299 172.5C83.4299 173.05 83.6132 173.533 83.9799 173.95C84.3632 174.35 84.9965 174.55 85.8799 174.55ZM95.8201 167.875C95.8201 167.725 95.8118 167.533 95.7951 167.3C95.7951 167.05 95.7868 166.8 95.7701 166.55C95.7535 166.283 95.7285 166.025 95.6951 165.775C95.6785 165.525 95.6535 165.308 95.6201 165.125H93.9451V163.5H97.2951L97.5201 165.525H97.6451C97.8118 165.242 98.0285 164.967 98.2951 164.7C98.5785 164.417 98.9035 164.167 99.2701 163.95C99.6368 163.717 100.045 163.533 100.495 163.4C100.945 163.267 101.42 163.2 101.92 163.2C102.687 163.2 103.362 163.283 103.945 163.45C104.545 163.617 105.037 163.917 105.42 164.35C105.82 164.767 106.12 165.342 106.32 166.075C106.52 166.792 106.62 167.708 106.62 168.825V176H104.67V169.2C104.67 167.817 104.445 166.775 103.995 166.075C103.545 165.375 102.728 165.025 101.545 165.025C101.112 165.025 100.687 165.117 100.27 165.3C99.8701 165.467 99.5035 165.692 99.1701 165.975C98.8368 166.258 98.5451 166.592 98.2951 166.975C98.0451 167.342 97.8618 167.733 97.7451 168.15V176H95.8201V167.875ZM120.585 176.625C120.585 177.408 120.435 178.092 120.135 178.675C119.835 179.275 119.419 179.767 118.885 180.15C118.369 180.533 117.76 180.817 117.06 181C116.36 181.2 115.602 181.3 114.785 181.3C113.802 181.3 112.944 181.2 112.21 181C111.477 180.8 110.844 180.542 110.31 180.225L111.26 178.45C111.41 178.583 111.602 178.708 111.835 178.825C112.085 178.958 112.369 179.075 112.685 179.175C113.002 179.292 113.335 179.383 113.685 179.45C114.052 179.517 114.41 179.55 114.76 179.55C115.494 179.55 116.102 179.483 116.585 179.35C117.085 179.217 117.485 179.008 117.785 178.725C118.085 178.442 118.302 178.075 118.435 177.625C118.569 177.175 118.635 176.625 118.635 175.975V174.575H118.535C118.152 175.125 117.66 175.55 117.06 175.85C116.46 176.15 115.685 176.3 114.735 176.3C112.835 176.3 111.435 175.775 110.535 174.725C109.652 173.658 109.21 172.008 109.21 169.775C109.21 167.642 109.777 166.033 110.91 164.95C112.044 163.85 113.727 163.3 115.96 163.3C116.994 163.3 117.869 163.375 118.585 163.525C119.319 163.658 119.985 163.833 120.585 164.05V176.625ZM115.01 174.625C116.027 174.625 116.827 174.367 117.41 173.85C117.994 173.317 118.402 172.508 118.635 171.425V165.5C117.902 165.15 116.877 164.975 115.56 164.975C114.227 164.975 113.177 165.367 112.41 166.15C111.644 166.933 111.26 168.133 111.26 169.75C111.26 170.467 111.327 171.125 111.46 171.725C111.594 172.308 111.802 172.817 112.085 173.25C112.385 173.683 112.769 174.025 113.235 174.275C113.719 174.508 114.31 174.625 115.01 174.625ZM122.901 169.75C122.901 167.733 123.426 166.142 124.476 164.975C125.526 163.792 127.026 163.2 128.976 163.2C130.026 163.2 130.926 163.375 131.676 163.725C132.442 164.058 133.076 164.517 133.576 165.1C134.076 165.683 134.442 166.375 134.676 167.175C134.926 167.975 135.051 168.833 135.051 169.75C135.051 170.75 134.917 171.658 134.651 172.475C134.384 173.275 133.992 173.958 133.476 174.525C132.959 175.092 132.317 175.533 131.551 175.85C130.801 176.15 129.942 176.3 128.976 176.3C127.942 176.3 127.042 176.133 126.276 175.8C125.509 175.45 124.876 174.983 124.376 174.4C123.876 173.817 123.501 173.125 123.251 172.325C123.017 171.525 122.901 170.667 122.901 169.75ZM124.976 169.75C124.976 170.333 125.042 170.917 125.176 171.5C125.326 172.083 125.559 172.608 125.876 173.075C126.192 173.542 126.601 173.917 127.101 174.2C127.617 174.483 128.242 174.625 128.976 174.625C130.309 174.625 131.309 174.217 131.976 173.4C132.659 172.567 133.001 171.35 133.001 169.75C133.001 169.15 132.926 168.567 132.776 168C132.642 167.417 132.409 166.892 132.076 166.425C131.759 165.958 131.342 165.583 130.826 165.3C130.326 165.017 129.709 164.875 128.976 164.875C127.642 164.875 126.642 165.283 125.976 166.1C125.309 166.917 124.976 168.133 124.976 169.75Z" fill="white"/>
<defs>
<clipPath id="clip0_622_49915">
<rect width="111" height="106" fill="white" transform="translate(31 19)"/>
</clipPath>
</defs>
</svg>
