<svg width="236" height="236" viewBox="0 0 236 236" fill="none" xmlns="http://www.w3.org/2000/svg">
<path d="M200.902 236L236 91.5313L118 1.04032e-05L-1.06972e-06 91.5314L35.0981 236L200.902 236Z" fill="#0E516A" fill-opacity="0.6"/>
<g clip-path="url(#clip0_144_6881)">
<g clip-path="url(#clip1_144_6881)">
<path d="M128.616 133.081C129.008 136.388 129.399 139.746 129.793 143.112C130.182 146.462 130.566 149.822 130.944 153.116C131.386 156.398 131.765 159.642 132.307 162.747C132.754 165.866 133.417 168.829 133.974 171.65C134.29 173.048 134.672 174.39 135 175.699C135.064 175.965 135.143 176.225 135.204 176.484C135.197 176.486 135.182 176.491 135.174 176.494C134.672 176.628 134.175 176.752 133.675 176.869C133.341 176.854 133.011 176.846 132.675 176.824C132.636 176.659 132.593 176.504 132.552 176.332C132.236 174.985 131.867 173.605 131.571 172.167C131.044 169.285 130.423 166.249 130.022 163.089C129.53 159.934 129.205 156.672 128.811 153.357C128.485 150.045 128.15 146.677 127.816 143.317C127.475 139.959 127.134 136.601 126.804 133.299C126.392 130.007 126.062 126.756 125.567 123.644C125.331 122.084 125.129 120.547 124.87 119.045C124.597 117.549 124.328 116.093 124.062 114.67C123.934 113.961 123.799 113.254 123.671 112.571C123.518 111.887 123.36 111.213 123.215 110.552C122.906 109.228 122.613 107.949 122.327 106.719C122.064 105.48 121.728 104.326 121.408 103.217C121.089 102.115 120.789 101.067 120.509 100.079C119.987 98.0916 119.352 96.4204 118.871 95.0353C117.893 92.2626 117.336 90.6749 117.336 90.6749L117.326 90.6446C117.227 90.3483 117.373 90.0292 117.665 89.9228C117.961 89.824 118.272 89.9733 118.383 90.2569C118.383 90.2569 118.975 91.8496 120.007 94.6299C120.523 96.02 121.188 97.7064 121.746 99.6992C122.043 100.689 122.369 101.738 122.707 102.849C123.053 103.958 123.409 105.123 123.69 106.364C123.993 107.597 124.314 108.883 124.643 110.218C124.806 110.881 124.974 111.56 125.138 112.249C125.278 112.945 125.421 113.649 125.567 114.361C125.853 115.794 126.149 117.257 126.45 118.762C126.734 120.263 126.957 121.81 127.221 123.378C127.773 126.513 128.157 129.772 128.621 133.071L128.616 133.081Z" fill="#5B3939"/>
<g style="mix-blend-mode:screen" opacity="0.7">
<path d="M126.657 124.158C127.046 126.351 127.339 128.559 127.657 130.894C127.79 131.871 127.916 132.851 128.06 133.834L129.232 143.849L130.383 153.854C130.491 154.679 130.601 155.487 130.704 156.297C131.03 158.807 131.341 161.17 131.748 163.517C132.097 165.968 132.58 168.315 133.047 170.592L133.42 172.435C133.629 173.362 133.858 174.248 134.09 175.117C134.215 175.59 134.337 176.056 134.449 176.517L134.49 176.639C134.49 176.639 134.482 176.641 134.485 176.649C134.212 176.715 133.935 176.791 133.67 176.854C133.506 176.842 133.346 176.844 133.182 176.831C133.07 176.371 132.955 175.902 132.838 175.426C132.616 174.537 132.4 173.638 132.206 172.707L131.871 170.901C131.436 168.571 130.976 166.166 130.665 163.677C130.291 161.301 130.023 158.916 129.735 156.394C129.639 155.581 129.552 154.766 129.454 153.945L128.462 143.912L127.449 133.895C127.326 132.897 127.207 131.915 127.094 130.947C126.816 128.607 126.558 126.404 126.202 124.209C126.12 123.662 126.036 123.107 125.961 122.558C125.813 121.56 125.677 120.575 125.513 119.608L124.319 113.123L123.587 109.905L122.972 107.238C122.709 106 122.376 104.853 122.053 103.736L121.144 100.568C120.708 98.9149 120.198 97.4893 119.75 96.2283L119.72 96.1371L119.755 96.2435C120.22 97.4817 120.744 98.8946 121.202 100.515L122.169 103.68C122.517 104.797 122.868 105.947 123.146 107.155L124.607 113.052L125.912 119.542C126.091 120.504 126.252 121.489 126.411 122.492C126.5 123.036 126.585 123.591 126.685 124.141L126.657 124.158Z" fill="white"/>
</g>
<g style="mix-blend-mode:screen" opacity="0.4">
<path d="M133.841 176.813C133.76 176.468 133.678 176.124 133.586 175.775C133.367 174.893 133.151 173.994 132.962 173.078C132.962 173.078 132.583 171.042 132.558 170.915C132.581 171.009 132.992 173.042 132.992 173.042C133.206 173.984 133.438 174.878 133.672 175.754C133.764 176.104 133.853 176.446 133.94 176.78C133.909 176.79 133.879 176.8 133.849 176.81L133.841 176.813Z" fill="#5B3939"/>
</g>
<path d="M120.195 77.3597C120.88 77.3418 122.399 82.7126 122.791 87.3036C123.141 91.3932 122.161 99.0789 120.865 98.9804C120.047 98.8742 120.75 91.3404 120.642 87.2964C120.521 83.0117 119.569 77.4257 120.195 77.3597Z" fill="#6DC82A"/>
<path d="M138.331 151.844C139.157 151.973 139.796 158.712 139.26 164.28C138.789 169.236 135.938 178.198 134.424 177.801C133.472 177.495 135.952 168.657 136.701 163.802C137.49 158.664 137.571 151.786 138.331 151.844Z" fill="#6DC82A"/>
<path d="M134.409 177.756C134.098 177.379 137.039 165.843 137.196 163.848L137.314 162.339C137.446 160.596 137.564 158.859 137.704 157.114C137.805 155.906 138.144 151.865 138.328 151.913C138.556 151.964 138.96 156.441 139.022 158.185C139.092 160.079 139.101 161.994 138.916 163.88C138.906 164.027 138.886 164.169 138.869 164.319C138.423 168.117 135.324 177.973 134.399 177.751L134.409 177.756Z" fill="white"/>
<path d="M113.176 86.67C114.303 88.1765 116.91 91.0375 118.605 92.1007C118.744 92.1894 118.915 92.0475 118.854 91.8905C117.965 89.6369 116.148 86.7479 115.52 85.801C113.265 82.4334 108.87 76.8252 107.926 76.9216C107.57 77.97 111.691 84.7001 113.178 86.6776L113.176 86.67Z" fill="#6DC82A"/>
<path d="M141.467 178.468C141.27 181.001 140.36 186.129 139.201 188.552C139.108 188.752 138.808 188.709 138.762 188.497C138.146 185.299 138.131 180.7 138.173 179.165C138.314 173.703 139.273 164.166 140.41 163.591C141.572 164.52 141.727 175.146 141.467 178.468Z" fill="#6DC82A"/>
<path d="M138.938 188.472C138.534 188.269 138.835 180.794 138.88 179.191C139.007 174.088 139.762 166.207 140.413 163.599C140.907 166.483 141.017 175.139 140.759 178.418C140.59 180.603 139.431 188.636 138.938 188.472Z" fill="white"/>
<path d="M136.496 161.125C135.915 163.591 134.242 168.527 132.727 170.741C132.603 170.926 132.313 170.837 132.307 170.619C132.186 167.365 132.87 162.82 133.14 161.31C134.102 155.937 136.503 146.66 137.717 146.263C138.725 147.361 137.264 157.886 136.503 161.122L136.496 161.125Z" fill="#6DC82A"/>
<path d="M130.356 126.357C130.192 128.482 129.432 132.8 128.461 134.831C128.383 135 128.128 134.968 128.093 134.785C127.571 132.096 127.558 128.232 127.59 126.945C127.703 122.354 128.499 114.342 129.455 113.853C130.431 114.633 130.567 123.567 130.356 126.357Z" fill="#6DC82A"/>
<path d="M124.925 101.981C125.028 103.822 124.89 107.61 124.29 109.466C124.24 109.618 124.023 109.623 123.972 109.471C123.222 107.231 122.753 103.916 122.626 102.809C122.191 98.8665 121.938 91.8977 122.704 91.3708C123.632 91.9303 124.791 99.5675 124.933 101.978L124.925 101.981Z" fill="#6DC82A"/>
<path d="M118.972 86.8589C119.264 88.6619 119.504 92.3995 119.102 94.2912C119.07 94.4457 118.85 94.4685 118.786 94.3293C117.812 92.1973 117.024 88.989 116.79 87.9103C115.96 84.074 115.01 77.2369 115.714 76.6468C116.682 77.0999 118.595 84.5014 118.974 86.8665L118.972 86.8589Z" fill="#6DC82A"/>
<path d="M118.905 94.2809C118.587 94.21 117.534 88.9278 117.287 87.8111C116.516 84.2256 115.698 78.5863 115.709 76.6567C116.549 78.5886 118.085 84.6127 118.464 86.9525C118.715 88.5073 119.274 94.3264 118.9 94.291L118.905 94.2809Z" fill="white"/>
<path d="M133.223 143.399C132.718 145.562 131.25 149.88 129.919 151.812C129.813 151.974 129.553 151.901 129.547 151.709C129.437 148.865 130.042 144.886 130.274 143.567C131.117 138.867 133.215 130.748 134.277 130.401C135.163 131.363 133.884 140.568 133.216 143.402L133.223 143.399Z" fill="#6DC82A"/>
<path d="M125.693 175.029C127.47 176.842 131.462 180.194 133.904 181.303C134.104 181.397 134.306 181.169 134.199 180.976C132.614 178.128 129.672 174.593 128.657 173.446C125.046 169.35 118.185 162.658 116.943 162.947C116.649 164.406 123.357 172.652 125.683 175.024L125.693 175.029Z" fill="#6DC82A"/>
<path d="M124.726 149.2C125.627 151.137 127.852 154.92 129.487 156.485C129.624 156.617 129.846 156.5 129.815 156.308C129.357 153.606 128.008 149.977 127.531 148.777C125.809 144.513 122.239 137.269 121.173 137.152C120.532 138.229 123.546 146.656 124.731 149.19L124.726 149.2Z" fill="#6DC82A"/>
<path d="M129.666 156.341C129.926 156.059 127.478 150.256 126.975 149.005C125.373 145.022 122.455 139.021 121.168 137.163C121.626 139.586 124.088 146.44 125.266 148.952C126.045 150.626 129.324 156.624 129.669 156.348L129.666 156.341Z" fill="white"/>
<path d="M123.484 131.454C124.283 133.164 126.243 136.503 127.683 137.888C127.804 138 127.998 137.901 127.968 137.734C127.566 135.351 126.374 132.143 125.948 131.094C124.427 127.329 121.278 120.941 120.336 120.842C119.77 121.792 122.426 129.224 123.471 131.467L123.484 131.454Z" fill="#6DC82A"/>
<path d="M127.842 137.759C128.071 137.514 125.91 132.391 125.466 131.29C124.046 127.778 121.474 122.481 120.344 120.84C120.747 122.977 122.923 129.024 123.958 131.237C124.646 132.713 127.537 138.005 127.842 137.759Z" fill="white"/>
<path d="M121.17 113.273C121.969 114.982 123.929 118.322 125.369 119.707C125.491 119.818 125.685 119.719 125.654 119.552C125.252 117.169 124.061 113.961 123.634 112.913C122.115 109.155 118.965 102.759 118.022 102.66C117.456 103.61 120.112 111.042 121.157 113.285L121.17 113.273Z" fill="#6DC82A"/>
<path d="M125.528 119.578C125.757 119.332 123.597 114.209 123.152 113.108C121.733 109.596 119.16 104.299 118.03 102.658C118.434 104.795 120.609 110.842 121.644 113.055C122.332 114.531 125.223 119.823 125.528 119.578Z" fill="white"/>
<path d="M115.669 96.0821C116.796 97.5886 119.404 100.45 121.098 101.513C121.237 101.601 121.409 101.46 121.348 101.303C120.461 99.0566 118.642 96.16 118.013 95.2131C115.758 91.8455 111.364 86.2373 110.42 86.3337C110.063 87.3822 114.185 94.1122 115.672 96.0897L115.669 96.0821Z" fill="#6DC82A"/>
<path d="M127.023 91.471C127.707 91.5545 128.399 97.0925 128.094 101.689C127.823 105.783 125.693 113.229 124.442 112.938C123.649 112.705 125.478 105.369 125.979 101.357C126.51 97.108 126.407 91.4407 127.03 91.4685L127.023 91.471Z" fill="#6DC82A"/>
<path d="M135.389 117.324C136.036 117.547 135.574 123.108 134.329 127.537C133.224 131.48 129.606 138.326 128.43 137.781C127.702 137.391 131.007 130.592 132.322 126.773C133.712 122.726 134.78 117.165 135.389 117.324Z" fill="#6DC82A"/>
<path d="M134.099 100.692C134.635 100.961 133.585 105.696 131.998 109.378C130.583 112.648 126.661 118.134 125.715 117.521C125.136 117.098 128.775 111.623 130.352 108.485C132.023 105.155 133.591 100.482 134.099 100.692Z" fill="#6DC82A"/>
<path d="M125.713 117.488C125.588 117.167 130.133 109.944 130.685 108.627L131.1 107.626C131.579 106.469 132.042 105.309 132.514 104.154C132.843 103.351 133.968 100.677 134.084 100.748C134.223 100.837 133.516 103.979 133.178 105.182C132.807 106.489 132.393 107.793 131.853 109.047C131.81 109.146 131.765 109.237 131.722 109.336C130.576 111.822 126.292 117.86 125.708 117.498L125.713 117.488Z" fill="white"/>
<path d="M111.646 106.272C111.147 106.743 113.828 111.633 116.765 115.177C119.378 118.332 125.47 123.127 126.322 122.15C126.828 121.499 121.046 116.625 118.287 113.663C115.368 110.526 112.128 105.875 111.644 106.265L111.646 106.272Z" fill="#6DC82A"/>
<path d="M117.197 122.855C116.606 123.205 118.164 128.563 120.259 132.66C122.129 136.308 127.026 142.314 128.067 141.552C128.7 141.027 124.118 135.009 122.075 131.52C119.902 127.821 117.759 122.574 117.197 122.855Z" fill="#6DC82A"/>
<path d="M128.072 141.517C128.198 141.137 122.437 133.181 121.707 131.703L121.156 130.586C120.522 129.295 119.903 127.998 119.268 126.707C118.824 125.808 117.335 122.818 117.214 122.909C117.058 123.02 118.104 126.573 118.589 127.922C119.115 129.394 119.684 130.867 120.402 132.257C120.455 132.366 120.516 132.473 120.57 132.582C122.063 135.359 127.432 141.967 128.072 141.517Z" fill="white"/>
<path d="M119.605 141.622C119.015 141.971 120.57 147.322 122.668 151.426C124.537 155.075 129.435 161.081 130.476 160.318C131.108 159.794 126.527 153.776 124.483 150.286C122.318 146.585 120.168 141.341 119.605 141.622Z" fill="#6DC82A"/>
<path d="M130.481 160.283C130.606 159.903 124.846 151.947 124.115 150.469L123.564 149.352C122.93 148.061 122.311 146.764 121.677 145.473C121.233 144.574 119.744 141.584 119.615 141.677C119.459 141.789 120.505 145.341 120.99 146.691C121.516 148.162 122.085 149.636 122.803 151.026C122.856 151.135 122.917 151.241 122.97 151.35C124.464 154.128 129.833 160.736 130.473 160.285L130.481 160.283Z" fill="white"/>
<path d="M114.66 173.079C114.238 173.778 118.92 178.513 123.453 181.616C127.492 184.378 136.043 187.869 136.697 186.476C137.063 185.559 128.835 181.876 124.7 179.383C120.323 176.742 115.088 172.471 114.653 173.082L114.66 173.079Z" fill="#6DC82A"/>
<path d="M113.899 148.042C113.358 148.587 116.592 153.975 120.048 157.836C123.127 161.274 130.186 166.396 131.103 165.261C131.642 164.506 124.925 159.278 121.696 156.068C118.276 152.668 114.426 147.579 113.899 148.042Z" fill="#6DC82A"/>
<path d="M131.095 165.213C131.122 164.765 122.568 157.77 121.35 156.37L120.431 155.309C119.373 154.084 118.327 152.845 117.264 151.63C116.524 150.779 114.048 147.959 113.932 148.091C113.794 148.255 115.956 151.823 116.866 153.157C117.856 154.608 118.9 156.041 120.08 157.353C120.173 157.456 120.265 157.553 120.358 157.656C122.781 160.241 130.524 165.895 131.088 165.216L131.095 165.213Z" fill="white"/>
<path d="M137.125 134.432C137.772 134.655 137.31 140.216 136.065 144.645C134.96 148.588 131.341 155.434 130.166 154.89C129.437 154.5 132.738 147.71 134.058 143.881C135.448 139.834 136.516 134.273 137.125 134.432Z" fill="#6DC82A"/>
<g style="mix-blend-mode:screen">
<path d="M121.531 93.0225C121.641 90.4345 121.742 87.9933 121.659 87.1931L121.53 85.9523C121.458 85.2585 121.252 83.334 121.221 83.0656C121.466 84.2253 121.729 85.6408 121.849 87.0791L121.875 87.4337C121.971 88.9302 121.78 91.4524 121.5 93.7088C121.507 93.4783 121.522 93.2454 121.531 93.0225Z" fill="white"/>
</g>
<g style="mix-blend-mode:screen">
<path d="M115.339 87.5513C114.823 86.9386 114.374 86.379 114.076 85.9891C113.483 85.1992 112.611 83.8775 111.719 82.4443C112.745 83.7989 113.766 85.2143 114.577 86.4296C114.577 86.4296 115.195 87.3462 115.337 87.5437L115.339 87.5513Z" fill="white"/>
</g>
<g style="mix-blend-mode:screen">
<path d="M133.508 166.636C133.774 165.043 134.089 163.367 134.244 162.521L134.423 161.549C134.962 158.555 135.85 154.719 136.686 151.584C136.292 154.959 135.68 158.839 135.214 160.819C134.909 162.121 134.185 164.56 133.505 166.629L133.508 166.636Z" fill="white"/>
</g>
<g style="mix-blend-mode:screen">
<path d="M128.7 129.912C128.724 129.051 128.75 128.273 128.759 127.797L128.78 126.979C128.833 124.875 129.004 122.267 129.228 119.894C129.279 122.335 129.262 124.85 129.147 126.265C129.08 127.098 128.902 128.501 128.693 129.914L128.7 129.912Z" fill="white"/>
</g>
<g style="mix-blend-mode:screen">
<path d="M123.737 102.682C123.585 101.348 123.466 99.7574 123.374 98.2001C123.589 99.7245 123.751 101.14 123.802 102.044C123.825 102.467 123.842 103.07 123.843 103.753C123.833 103.622 123.732 102.692 123.732 102.692L123.737 102.682Z" fill="white"/>
</g>
<g style="mix-blend-mode:screen">
<path d="M130.865 147.171C131.05 146.138 131.225 145.175 131.334 144.623L131.492 143.785C131.901 141.511 132.541 138.67 133.184 136.165C132.842 138.814 132.393 141.6 132.033 143.114C131.818 144.031 131.359 145.629 130.87 147.161L130.865 147.171Z" fill="white"/>
</g>
<g style="mix-blend-mode:screen">
<path d="M131.104 178.194C129.452 176.779 127.564 175.062 126.63 174.108C125.21 172.657 122.671 169.647 120.579 166.968C122.922 169.216 125.669 172.039 127.686 174.32L128.345 175.054C128.922 175.698 130.054 176.966 131.112 178.191L131.104 178.194Z" fill="white"/>
</g>
<g style="mix-blend-mode:screen">
<path d="M127.53 151.971C126.833 150.717 126.168 149.461 125.813 148.702C125.214 147.415 124.307 145.058 123.492 142.746C124.539 144.896 125.626 147.286 126.408 149.246L126.718 149.995C126.9 150.441 127.203 151.168 127.523 151.973L127.53 151.971Z" fill="white"/>
</g>
<g style="mix-blend-mode:screen">
<path d="M125.421 132.766C125.043 132.064 124.719 131.421 124.513 130.983C124.097 130.092 123.51 128.616 122.938 127.033C123.664 128.573 124.372 130.16 124.918 131.515C124.918 131.515 125.337 132.541 125.429 132.763L125.421 132.766Z" fill="white"/>
</g>
<g style="mix-blend-mode:screen">
<path d="M117.833 96.9634C117.316 96.3507 116.868 95.7911 116.569 95.4012C115.976 94.6113 115.105 93.2896 114.213 91.8564C115.238 93.211 116.259 94.6264 117.07 95.8418C117.07 95.8418 117.688 96.7583 117.83 96.9558L117.833 96.9634Z" fill="white"/>
</g>
<g style="mix-blend-mode:screen">
<path d="M125.98 107.144C126.477 104.604 126.938 102.211 126.979 101.403L127.042 100.157C127.079 99.4609 127.163 97.5237 127.175 97.2578C127.243 98.4429 127.287 99.8812 127.196 101.322L127.169 101.669C127.036 103.158 126.471 105.62 125.85 107.813C125.9 107.585 125.942 107.359 125.977 107.137L125.98 107.144Z" fill="white"/>
</g>
<g style="mix-blend-mode:screen">
<path d="M131.14 132.448C132.145 130.068 133.102 127.821 133.305 127.044L133.626 125.839C133.798 125.173 134.282 123.296 134.352 123.028C134.172 124.203 133.923 125.621 133.53 127.011L133.432 127.348C132.993 128.779 131.933 131.068 130.882 133.084C130.97 132.869 131.06 132.661 131.151 132.453L131.14 132.448Z" fill="white"/>
</g>
<g style="mix-blend-mode:screen">
<path d="M122.183 118.839C120.397 117.426 118.494 115.765 117.516 114.631L117.291 114.36C116.364 113.251 115.559 112.051 114.922 111.056C115.097 111.276 116.295 112.793 116.728 113.332L117.508 114.304C118.012 114.93 119.799 116.595 121.689 118.37C121.849 118.52 122.018 118.674 122.19 118.836L122.183 118.839Z" fill="white"/>
</g>
<g style="mix-blend-mode:screen">
<path d="M127.156 156.184C125.72 154.409 124.223 152.376 123.513 151.059L123.35 150.75C122.691 149.459 122.16 148.124 121.761 147.008C121.873 147.241 122.718 148.985 123.032 149.623L123.583 150.74C123.943 151.464 125.316 153.48 126.771 155.612C126.9 155.796 127.032 155.989 127.163 156.181L127.156 156.184Z" fill="white"/>
</g>
<g style="mix-blend-mode:screen">
<path d="M132.976 184.993C130.047 183.912 126.04 182.128 124.07 180.844L123.721 180.606C122.061 179.472 120.553 178.161 119.422 177.145C119.167 176.91 118.853 176.626 118.516 176.3C118.572 176.34 118.628 176.381 118.683 176.421C119.409 176.93 120.13 177.449 120.843 177.971C121.519 178.454 122.187 178.94 122.867 179.414L124.081 180.274C124.863 180.824 127.444 182.148 130.187 183.553C131.062 184.003 132.056 184.507 132.983 184.99L132.976 184.993Z" fill="white"/>
</g>
<g style="mix-blend-mode:screen">
<path d="M127.552 162.699C125.174 161.054 122.222 158.747 120.807 157.236L120.541 156.945C119.278 155.535 118.181 153.993 117.373 152.81C117.258 152.646 117.134 152.451 116.995 152.235C117.479 152.8 117.962 153.365 118.446 153.929C118.955 154.519 119.466 155.117 119.975 155.707L120.894 156.767C121.484 157.449 123.559 159.246 125.76 161.145C126.319 161.634 126.944 162.168 127.552 162.699Z" fill="white"/>
</g>
<g style="mix-blend-mode:screen">
<path d="M132.873 149.548C133.878 147.168 134.835 144.921 135.038 144.144L135.359 142.939C135.539 142.27 136.015 140.396 136.085 140.128C135.905 141.303 135.656 142.721 135.263 144.111L135.165 144.448C134.726 145.879 133.666 148.168 132.607 150.187C132.695 149.971 132.785 149.764 132.876 149.556L132.873 149.548Z" fill="white"/>
</g>
<path d="M115.096 90.6221C114.071 88.3888 111.869 81.7596 112.762 81.41C113.539 81.1161 116.514 86.5068 117.988 89.5022C120.471 94.5588 123.395 102.163 122.346 102.573C121.513 102.877 117.568 96.0205 115.094 90.6145L115.096 90.6221Z" fill="#6DC82A"/>
<path d="M121.005 99.6001C119.563 97.2023 117.628 93.584 116.067 90.1783C115.441 88.8085 114.483 86.1472 113.834 83.9569C114.807 85.6331 115.994 87.8714 117.029 89.9831C118.693 93.3711 120.156 97.0376 121.008 99.6077L121.005 99.6001Z" fill="white"/>
<path d="M118.084 94.3186C117.496 91.9307 116.551 85.0076 117.495 84.8352C118.315 84.6958 120.238 90.54 121.131 93.7634C122.631 99.2 124.096 107.199 122.998 107.415C122.127 107.554 119.519 100.089 118.084 94.3186Z" fill="#6DC82A"/>
<path d="M122.231 104.242C121.26 101.619 120.024 97.6989 119.127 94.0627C118.765 92.6041 118.319 89.8136 118.087 87.5346C118.732 89.3628 119.49 91.7785 120.114 94.0448C121.12 97.6784 121.881 101.563 122.238 104.239L122.231 104.242Z" fill="white"/>
<path d="M116.305 103.615C114.974 101.551 111.839 95.3022 112.676 94.8361C113.41 94.4384 117.113 99.3403 119.003 102.095C122.186 106.749 126.169 113.846 125.185 114.403C124.409 114.824 119.523 108.603 116.302 103.607L116.305 103.615Z" fill="#6DC82A"/>
<path d="M123.432 111.653C121.664 109.491 119.227 106.184 117.197 103.037C116.379 101.774 115.055 99.2771 114.098 97.1982C115.299 98.7225 116.796 100.756 118.129 102.7C120.257 105.815 122.234 109.233 123.442 111.658L123.432 111.653Z" fill="white"/>
<path d="M124.629 110.73C124.598 108.273 125.26 101.319 126.219 101.37C127.053 101.42 127.589 107.551 127.728 110.883C127.955 116.518 127.56 124.641 126.433 124.596C125.554 124.535 124.713 116.665 124.637 110.727L124.629 110.73Z" fill="#6DC82A"/>
<path d="M126.403 121.337C126.056 118.564 125.744 114.462 125.695 110.719C125.671 109.215 125.875 106.402 126.165 104.125C126.374 106.057 126.561 108.579 126.655 110.922C126.805 114.69 126.662 118.64 126.401 121.329L126.403 121.337Z" fill="white"/>
<path d="M123.571 127.741C122.882 125.379 121.649 118.501 122.58 118.291C123.396 118.111 125.56 123.874 126.59 127.052C128.32 132.42 130.125 140.356 129.032 140.612C128.167 140.792 125.243 133.441 123.571 127.741Z" fill="#6DC82A"/>
<path d="M128.126 137.477C127.045 134.9 125.642 131.036 124.591 127.443C124.166 125.997 123.602 123.229 123.273 120.965C123.995 122.768 124.851 125.151 125.573 127.384C126.733 130.975 127.658 134.821 128.126 137.477Z" fill="white"/>
<path d="M123.483 135.424C122.801 133.059 121.616 126.174 122.55 125.972C123.368 125.799 125.502 131.572 126.509 134.758C128.208 140.136 129.966 148.08 128.87 148.328C128.002 148.5 125.124 141.134 123.49 135.422L123.483 135.424Z" fill="#6DC82A"/>
<path d="M127.982 145.196C126.916 142.613 125.536 138.742 124.507 135.141C124.09 133.693 123.548 130.917 123.23 128.658C123.944 130.464 124.785 132.852 125.492 135.09C126.629 138.688 127.529 142.535 127.985 145.204L127.982 145.196Z" fill="white"/>
<path d="M129.454 136.239C129.838 133.813 131.666 127.077 132.604 127.287C133.417 127.479 132.908 133.605 132.476 136.917C131.744 142.501 129.981 150.44 128.875 150.203C128.013 149.993 128.521 142.102 129.452 136.232L129.454 136.239Z" fill="#6DC82A"/>
<path d="M129.408 146.992C129.533 144.196 129.925 140.111 130.505 136.412C130.742 134.93 131.415 132.187 132.09 130.002C131.97 131.934 131.728 134.456 131.42 136.781C130.929 140.519 130.119 144.388 129.408 146.992Z" fill="white"/>
<path d="M135.435 144.298C136.627 142.15 140.66 136.467 141.467 136.991C142.16 137.452 139.589 143.026 138.037 145.986C135.43 150.973 131.043 157.814 130.09 157.203C129.351 156.707 132.54 149.482 135.427 144.3L135.435 144.298Z" fill="#6DC82A"/>
<path d="M131.7 154.367C132.775 151.794 134.549 148.092 136.368 144.822C137.1 143.513 138.673 141.17 140.053 139.357C139.274 141.129 138.186 143.411 137.097 145.491C135.352 148.828 133.266 152.179 131.7 154.367Z" fill="white"/>
<path d="M128.271 149.078C128.089 146.621 128.321 139.642 129.278 139.635C130.111 139.634 131.026 145.714 131.365 149.039C131.935 154.643 132.042 162.784 130.921 162.805C130.034 162.797 128.714 155.003 128.271 149.078Z" fill="#6DC82A"/>
<path d="M130.701 159.558C130.177 156.811 129.623 152.739 129.342 149.006C129.227 147.507 129.259 144.684 129.403 142.397C129.73 144.306 130.074 146.818 130.309 149.156C130.689 152.906 130.791 156.859 130.694 159.561L130.701 159.558Z" fill="white"/>
<path d="M130.117 153.334C130.247 150.883 131.376 143.993 132.331 144.104C133.157 144.207 133.287 150.356 133.193 153.699C133.042 159.333 132.1 167.411 130.981 167.287C130.107 167.166 129.794 159.263 130.117 153.334Z" fill="#6DC82A"/>
<path d="M131.174 164.038C131.013 161.245 130.979 157.143 131.183 153.4C131.262 151.903 131.655 149.103 132.1 146.859C132.177 148.801 132.198 151.328 132.133 153.673C132.03 157.441 131.62 161.372 131.181 164.036L131.174 164.038Z" fill="white"/>
<path d="M126.288 161.112C125.298 158.858 123.195 152.196 124.103 151.867C124.885 151.588 127.771 157.017 129.197 160.045C131.603 165.145 134.403 172.782 133.351 173.185C132.51 173.466 128.674 166.556 126.288 161.112Z" fill="#6DC82A"/>
<path d="M133.309 172.784C133.327 172.913 133.166 172.984 133.087 172.875C131.814 171.232 128.841 165.722 126.735 160.911C125.841 158.871 124.371 154.277 123.987 152.176C123.947 151.953 124.242 151.829 124.374 152.021C125.433 153.601 127.355 157.257 128.758 160.243C131.085 165.183 133.045 170.812 133.317 172.782L133.309 172.784Z" fill="white"/>
<path d="M132.051 170.182C130.644 167.763 128.765 164.11 127.262 160.676C126.658 159.299 125.745 156.622 125.126 154.422C126.072 156.116 127.229 158.364 128.229 160.496C129.835 163.912 131.247 167.604 132.051 170.182Z" fill="white"/>
<path d="M126.656 171.97C125.318 169.909 122.177 163.67 123.012 163.196C123.744 162.791 127.462 167.688 129.355 170.45C132.542 175.094 136.533 182.189 135.559 182.751C134.782 183.172 129.884 176.963 126.656 171.97Z" fill="#6DC82A"/>
<path d="M135.455 182.364C135.496 182.485 135.342 182.579 135.246 182.493C133.72 181.078 129.913 176.118 127.054 171.702C125.838 169.828 123.662 165.539 122.945 163.523C122.871 163.303 123.143 163.136 123.3 163.303C124.596 164.685 127.076 167.995 128.946 170.714C132.035 175.213 134.867 180.457 135.452 182.356L135.455 182.364Z" fill="white"/>
<path d="M133.795 179.996C132.02 177.836 129.583 174.529 127.546 171.385C126.727 170.121 125.396 167.627 124.432 165.551C125.64 167.072 127.137 169.106 128.467 171.043C130.603 174.154 132.58 177.573 133.793 179.988L133.795 179.996Z" fill="white"/>
<path d="M132.548 172.245C132.038 169.84 131.328 162.889 132.274 162.749C133.095 162.635 134.828 168.543 135.61 171.786C136.931 177.266 138.136 185.319 137.023 185.488C136.141 185.598 133.783 178.049 132.546 172.238L132.548 172.245Z" fill="#6DC82A"/>
<path d="M136.359 182.297C135.472 179.646 134.374 175.689 133.593 172.022C133.277 170.548 132.927 167.742 132.763 165.466C133.348 167.314 134.022 169.758 134.576 172.039C135.458 175.706 136.098 179.606 136.359 182.297Z" fill="white"/>
<path d="M89.6116 91.2196C89.9447 91.1081 90.3113 91.298 90.4156 91.6348L90.4283 91.6728C90.4283 91.6728 91.0107 93.4883 92.0406 96.6661C92.5543 98.2513 93.137 100.193 94.0257 102.346C94.4473 103.429 94.8994 104.579 95.3643 105.792C95.8292 107.005 96.3245 108.284 96.936 109.583C97.5249 110.889 98.139 112.246 98.7685 113.649C99.0883 114.353 99.4106 115.064 99.7456 115.789C100.101 116.498 100.469 117.219 100.839 117.948C101.58 119.407 102.335 120.911 103.119 122.448C103.916 123.972 104.79 125.504 105.65 127.066C107.336 130.219 109.278 133.379 111.164 136.625C113.131 139.835 115.131 143.094 117.131 146.353C119.141 149.617 121.158 152.878 123.135 156.093C125.059 159.352 127.011 162.517 128.725 165.702C130.538 168.83 132.058 171.987 133.562 174.947C134.282 176.446 134.894 177.948 135.534 179.381C136.174 180.814 136.788 182.196 137.253 183.587C138.239 186.331 139.207 188.82 139.768 191.175C140.382 193.487 141.023 195.528 141.236 197.172C141.617 199.316 141.896 200.853 142.044 201.674C140.966 201.773 139.893 201.862 138.815 201.961C138.679 201.102 138.441 199.661 138.121 197.699C137.766 195.807 137.343 194.141 136.8 191.941C136.323 189.735 135.413 187.294 134.5 184.618C134.081 183.263 133.494 181.913 132.895 180.5C132.291 179.098 131.712 177.619 131.039 176.138C129.611 173.203 128.172 170.086 126.427 166.961C124.786 163.794 122.895 160.609 121.037 157.345C119.11 154.104 117.153 150.822 115.201 147.531C113.247 144.231 111.293 140.932 109.371 137.681C107.525 134.379 105.629 131.179 103.975 127.973C103.138 126.378 102.281 124.823 101.502 123.276C100.744 121.714 99.9979 120.19 99.2799 118.698C98.9221 117.956 98.5593 117.225 98.2067 116.498C97.8843 115.761 97.567 115.039 97.2598 114.323C96.6455 112.89 96.0489 111.51 95.4727 110.191C94.8738 108.879 94.3961 107.577 93.9488 106.342C93.494 105.109 93.0595 103.936 92.6505 102.84C91.7844 100.655 91.2345 98.6845 90.7384 97.0766C89.7539 93.8583 89.1967 92.0174 89.1967 92.0174C89.0949 91.6882 89.2785 91.3311 89.6116 91.2196Z" fill="#5B3939"/>
<g style="mix-blend-mode:screen" opacity="0.7">
<path d="M140.993 197.929C140.838 196.713 140.444 195.308 139.993 193.685C139.845 193.143 139.69 192.578 139.537 191.996C139.086 190.069 138.347 188.035 137.556 185.876L137.04 184.46C136.593 183.123 136.009 181.806 135.39 180.409L135.354 180.302C135.121 179.806 134.897 179.29 134.674 178.773C134.263 177.821 133.839 176.856 133.38 175.886L132.446 174.028C131.239 171.627 129.996 169.146 128.573 166.682C127.272 164.279 125.886 161.947 124.411 159.476C123.934 158.681 123.457 157.886 122.983 157.073L116.984 147.348L111.007 137.615C110.434 136.632 109.866 135.665 109.301 134.706C107.942 132.406 106.662 130.242 105.47 128.013C105.169 127.464 104.864 126.907 104.555 126.36C104.002 125.362 103.452 124.372 102.937 123.387L99.5608 116.72L98.0152 113.31L96.7411 110.484C96.1245 109.195 95.6393 107.921 95.1694 106.693L93.8105 103.212C93.0665 101.416 92.5451 99.7832 92.0797 98.3424L92.0467 98.2437L92.0874 98.3652C92.5199 99.8085 93.0135 101.434 93.7196 103.217L95.023 106.734C95.4829 107.982 95.9428 109.256 96.5316 110.537L99.2707 116.86L102.549 123.61C103.048 124.6 103.586 125.603 104.126 126.613C104.42 127.165 104.717 127.725 105.014 128.284C106.17 130.533 107.418 132.726 108.741 135.045C109.294 136.017 109.847 136.99 110.405 137.977L116.222 147.814L122.058 157.628C122.527 158.451 122.988 159.251 123.45 160.051C124.88 162.538 126.228 164.882 127.466 167.273C128.833 169.721 130.015 172.172 131.154 174.545L132.083 176.464C132.535 177.436 132.933 178.401 133.322 179.335C133.535 179.847 133.746 180.351 133.954 180.847L134.015 180.979C134.606 182.369 135.165 183.686 135.587 185.023L136.073 186.423C136.81 188.55 137.506 190.555 137.907 192.406L138.029 192.898C138.518 194.863 138.898 196.425 139.236 198.187L139.825 201.834L141.673 201.671L141.003 197.908L140.993 197.929Z" fill="white"/>
</g>
<g style="mix-blend-mode:screen" opacity="0.4">
<path d="M140.504 198.607C140.348 197.409 139.968 196.024 139.525 194.424C139.375 193.874 139.22 193.31 139.064 192.72C138.613 190.818 137.879 188.8 137.106 186.668L136.588 185.245C136.145 183.923 135.574 182.619 134.96 181.237L134.924 181.13C134.691 180.634 134.467 180.117 134.242 179.593C133.833 178.649 133.419 177.689 132.955 176.729C132.955 176.729 131.899 174.633 131.831 174.504C131.882 174.605 132.899 176.714 132.899 176.714C133.358 177.709 133.76 178.682 134.151 179.624C134.364 180.135 134.572 180.631 134.78 181.128L134.844 181.267C135.446 182.687 136.014 184.009 136.439 185.379L136.917 186.757C137.662 188.906 138.363 190.927 138.769 192.819L138.884 193.287C139.378 195.293 139.763 196.845 140.095 198.617L140.587 201.646L141.044 201.603L140.504 198.582L140.504 198.607Z" fill="#5B3939"/>
</g>
<path d="M138.802 201.974C138.784 201.769 139.486 201.525 140.387 201.426C141.281 201.33 142.028 201.426 142.046 201.631C142.065 201.836 141.363 202.08 140.462 202.179C139.568 202.275 138.82 202.179 138.802 201.974Z" fill="#D32833"/>
<path d="M78.683 81.6574C78.0527 82.1133 80.3741 87.9929 83.1796 92.4011C85.6709 96.3231 91.8392 102.579 92.9381 101.612C93.6008 100.951 87.7884 94.6514 85.1082 90.9193C82.2734 86.977 79.2908 81.285 78.683 81.6574Z" fill="#6DC82A"/>
<path d="M113.515 161.281C112.86 161.965 116.91 168.483 121.219 173.131C125.047 177.273 133.773 183.4 134.868 181.994C135.515 181.06 127.208 174.801 123.204 170.938C118.957 166.851 114.163 160.701 113.523 161.279L113.515 161.281Z" fill="#6DC82A"/>
<path d="M91.4113 85.2277C91.4288 87.3675 91.0471 91.7358 90.2488 93.8529C90.1811 94.0277 89.926 94.0201 89.8801 93.8327C89.1317 91.1942 88.7846 87.3401 88.706 86.0487C88.4254 81.4627 88.5335 73.3847 89.449 72.8248C90.491 73.5236 91.3898 82.4219 91.4189 85.2252L91.4113 85.2277Z" fill="#6DC82A"/>
<path d="M121.542 168.386C123.76 170.211 128.662 173.512 131.548 174.464C131.786 174.545 131.987 174.266 131.843 174.061C129.722 171.046 125.974 167.417 124.696 166.24C120.131 162.058 111.6 155.334 110.23 155.817C110.077 157.499 118.624 165.983 121.531 168.381L121.542 168.386Z" fill="#6DC82A"/>
<path d="M103.196 132.812C104.808 134.612 108.455 137.987 110.73 139.152C110.923 139.248 111.124 139.045 111.028 138.858C109.65 136.075 107.008 132.583 106.097 131.444C102.842 127.38 96.6176 120.704 95.4211 120.927C95.0731 122.302 101.092 130.45 103.198 132.82L103.196 132.812Z" fill="#6DC82A"/>
<path d="M91.3393 107.097C92.5099 108.834 95.2422 112.143 97.0557 113.412C97.2075 113.513 97.4042 113.371 97.3457 113.196C96.494 110.652 94.6304 107.347 93.9815 106.264C91.6621 102.402 87.112 95.9507 86.0515 96.0016C85.5919 97.1437 89.7962 104.826 91.3317 107.1L91.3393 107.097Z" fill="#6DC82A"/>
<path d="M97.2094 113.242C97.4158 112.928 94.1665 107.697 93.4846 106.565C91.3199 102.964 87.5829 97.6093 86.0591 95.999" fill="white"/>
<path d="M86.3194 89.3815C87.2933 91.2097 89.6549 94.7443 91.3122 96.1748C91.4514 96.2887 91.6632 96.1671 91.6199 95.9873C91.0307 93.3969 89.5355 89.9608 89.0052 88.829C87.1172 84.7979 83.2811 77.9893 82.2354 77.9338C81.6697 79.0101 85.0337 86.9989 86.3119 89.3841L86.3194 89.3815Z" fill="#6DC82A"/>
<path d="M112.316 150.152C114.256 151.75 118.548 154.638 121.076 155.473C121.283 155.539 121.464 155.301 121.337 155.124C119.478 152.486 116.208 149.306 115.082 148.28C111.089 144.624 103.623 138.743 102.424 139.161C102.286 140.635 109.771 148.056 112.316 150.152Z" fill="#6DC82A"/>
<path d="M140.837 173.492C140.479 176.348 139.184 182.112 137.741 184.792C137.623 185.017 137.281 184.954 137.248 184.703C136.717 181.054 136.943 175.843 137.07 174.11C137.513 167.939 139.093 157.189 140.417 156.594C141.683 157.708 141.303 169.754 140.837 173.492Z" fill="#6DC82A"/>
<path d="M123.966 149.547C124.482 151.917 125.074 156.855 124.675 159.387C124.646 159.6 124.358 159.646 124.261 159.458C122.818 156.706 121.539 152.505 121.152 151.097C119.772 146.068 118.011 137.087 118.901 136.248C120.223 136.777 123.29 146.445 123.966 149.547Z" fill="#6DC82A"/>
<path d="M112.895 132.691C113.349 134.778 113.874 139.138 113.528 141.374C113.499 141.562 113.251 141.602 113.162 141.438C111.887 139.01 110.757 135.308 110.416 134.062C109.201 129.628 107.643 121.702 108.429 120.957C109.594 121.421 112.301 129.959 112.895 132.691Z" fill="#6DC82A"/>
<path d="M113.291 141.369C112.915 141.301 111.338 135.206 110.986 133.905C109.851 129.757 108.53 123.221 108.422 120.96C109.523 123.168 111.72 130.111 112.307 132.821C112.7 134.623 113.725 141.385 113.291 141.369Z" fill="white"/>
<path d="M102.488 114.702C102.942 116.789 103.467 121.149 103.121 123.385C103.091 123.573 102.844 123.613 102.755 123.449C101.48 121.02 100.35 117.318 100.009 116.073C98.7943 111.639 97.236 103.713 98.0222 102.968C99.1874 103.431 101.891 111.962 102.496 114.7L102.488 114.702Z" fill="#6DC82A"/>
<path d="M102.884 123.38C102.508 123.312 100.931 117.217 100.579 115.915C99.4436 111.768 98.1233 105.232 98.0146 102.971C99.1156 105.179 101.313 112.122 101.9 114.831C102.293 116.634 103.318 123.395 102.884 123.38Z" fill="white"/>
<path d="M95.6314 95.422C95.6488 97.5618 95.2672 101.93 94.4689 104.047C94.4011 104.222 94.146 104.214 94.1002 104.027C93.3518 101.389 93.0047 97.5345 92.926 96.243C92.6455 91.6571 92.7536 83.579 93.669 83.0192C94.7111 83.7179 95.6099 92.6162 95.6389 95.4195L95.6314 95.422Z" fill="#6DC82A"/>
<path d="M82.2274 99.0633C81.668 99.6053 84.8547 105.077 88.2828 109.007C91.3414 112.511 98.3712 117.769 99.3055 116.637C99.8619 115.885 93.1703 110.53 89.9658 107.244C86.5715 103.768 82.7693 98.5947 82.2249 99.0557L82.2274 99.0633Z" fill="#6DC82A"/>
<path d="M92.4447 128.133C92.0143 128.784 96.2523 133.473 100.419 136.614C104.132 139.409 112.093 143.097 112.777 141.796C113.166 140.947 105.518 137.087 101.704 134.545C97.6629 131.852 92.8803 127.573 92.4447 128.133Z" fill="#6DC82A"/>
<path d="M82.1863 112.247C81.8922 112.852 86.0873 116.407 90.047 118.629C93.5718 120.609 100.873 122.854 101.307 121.661C101.542 120.881 94.4988 118.449 90.9164 116.7C87.1217 114.844 82.4958 111.713 82.1863 112.247Z" fill="#6DC82A"/>
<path d="M106.26 101.85C107.035 101.928 107.974 108.177 107.761 113.402C107.572 118.043 105.368 126.552 103.938 126.254C103.034 126.016 104.899 117.654 105.348 113.086C105.827 108.254 105.548 101.835 106.26 101.85Z" fill="#6DC82A"/>
<path d="M112.658 120.615C113.426 120.518 115.704 126.421 116.635 131.566C117.461 136.147 117.165 144.921 115.703 144.955C114.774 144.919 114.767 136.347 114.216 131.784C113.63 126.963 111.964 120.754 112.658 120.615Z" fill="#6DC82A"/>
<path d="M115.665 144.917C115.291 144.654 115.021 133.534 114.658 131.696L114.387 130.308C114.071 128.708 113.739 127.113 113.422 125.512C113.202 124.403 112.494 120.678 112.669 120.671C112.883 120.658 114.382 124.583 114.878 126.14C115.417 127.826 115.908 129.546 116.223 131.29C116.251 131.425 116.272 131.561 116.292 131.698C116.851 135.228 116.554 144.881 115.663 144.909L115.665 144.917Z" fill="white"/>
<path d="M123.372 139.195C124.147 139.096 126.418 145.001 127.349 150.146C128.175 154.727 127.879 163.501 126.417 163.535C125.488 163.499 125.481 154.928 124.93 150.364C124.344 145.543 122.678 139.334 123.372 139.195Z" fill="#6DC82A"/>
<path d="M132.928 141.057C133.794 141.181 134.578 148.251 134.108 154.119C133.691 159.335 130.841 168.804 129.244 168.41C128.238 168.096 130.7 158.774 131.41 153.653C132.156 148.234 132.127 141.004 132.928 141.057Z" fill="#6DC82A"/>
<path d="M102.637 144.75C102.206 145.401 106.444 150.09 110.611 153.232C114.324 156.027 122.285 159.715 122.969 158.413C123.358 157.565 115.71 153.704 111.896 151.162C107.862 148.466 103.072 144.19 102.637 144.75Z" fill="#6DC82A"/>
<g style="mix-blend-mode:screen">
<path d="M88.2425 96.6865C86.3686 94.4331 84.6011 92.2962 84.1221 91.5189L83.382 90.3136C82.9714 89.6401 81.8358 87.7563 81.6736 87.498C82.2495 88.716 82.9902 90.1744 83.8646 91.5544L84.0775 91.8886C85.0201 93.2964 86.9189 95.4485 88.7312 97.2917C88.5616 97.0866 88.3919 96.8815 88.2349 96.6891L88.2425 96.6865Z" fill="white"/>
</g>
<g style="mix-blend-mode:screen">
<path d="M131.198 179.48C130.244 178.667 129.204 177.799 128.291 177.031C125.566 174.75 123.001 172.593 122.264 171.776L121.119 170.494C120.476 169.78 119.849 169.061 119.211 168.337C118.535 167.575 117.859 166.813 117.183 166.051C117.091 165.955 117.008 165.856 116.917 165.76C117.244 166.259 117.545 166.707 117.801 167.069C118.812 168.504 120.177 170.37 121.754 172.064L122.091 172.416C124.02 174.406 128.163 177.505 131.196 179.472L131.198 179.48Z" fill="white"/>
</g>
<g style="mix-blend-mode:screen">
<path d="M90.0704 87.5089C90.1138 86.6074 90.1347 85.7895 90.1335 85.2324C90.1208 84.1131 90.0006 82.3203 89.8272 80.4185C89.8315 82.3431 89.8864 84.3183 89.9861 85.9744C89.9861 85.9744 90.0521 87.2279 90.0679 87.5013L90.0704 87.5089Z" fill="white"/>
</g>
<g style="mix-blend-mode:screen">
<path d="M128.021 171.294C126.684 170.043 125.25 168.749 124.526 168.096L123.693 167.344C121.155 165.018 117.717 162.164 114.808 159.911C117.486 162.681 120.707 165.767 122.483 167.226C123.655 168.185 125.987 169.896 128.018 171.286L128.021 171.294Z" fill="white"/>
</g>
<g style="mix-blend-mode:screen">
<path d="M107.122 134.885C106.512 134.118 105.955 133.435 105.613 133.017L105.028 132.3C103.539 130.442 101.587 128.206 99.7513 126.219C101.385 128.46 103.13 130.705 104.196 131.903C104.826 132.604 105.95 133.749 107.112 134.88L107.122 134.885Z" fill="white"/>
</g>
<g style="mix-blend-mode:screen">
<path d="M92.897 106.922C92.1137 105.613 91.1355 104.099 90.1372 102.625C90.9917 104.147 91.8181 105.534 92.3882 106.383C92.6568 106.783 93.0596 107.332 93.5282 107.952C93.4521 107.826 92.8945 106.914 92.8945 106.914L92.897 106.922Z" fill="white"/>
</g>
<g style="mix-blend-mode:screen">
<path d="M87.8624 89.363C87.2432 88.0412 86.4721 86.5169 85.6682 85.0205C86.3282 86.5398 86.9752 87.9197 87.4317 88.7806C87.6372 89.168 87.9515 89.7048 88.3115 90.3024C88.2734 90.2138 87.8624 89.363 87.8624 89.363Z" fill="white"/>
</g>
<g style="mix-blend-mode:screen">
<path d="M117.027 151.928C116.151 151.123 115.329 150.376 114.858 149.951L114.145 149.303C112.214 147.533 109.686 145.414 107.387 143.599C109.513 145.751 111.841 147.953 113.202 149.077C114.027 149.756 115.54 150.88 117.037 151.933L117.027 151.928Z" fill="white"/>
</g>
<g style="mix-blend-mode:screen">
<path d="M138.129 180.066C138.651 177.653 139.173 174.809 139.359 173.302C139.647 171.018 139.864 166.561 139.913 162.71C139.346 166.346 138.803 170.785 138.563 174.219L138.472 175.331C138.393 176.303 138.246 178.228 138.137 180.064L138.129 180.066Z" fill="white"/>
</g>
<g style="mix-blend-mode:screen">
<path d="M123.34 153.963C123.104 152.353 122.84 150.76 122.639 149.831C122.297 148.256 121.495 145.508 120.636 142.865C121.172 145.524 121.832 148.428 122.469 150.732L122.708 151.624C122.851 152.15 123.08 153.011 123.34 153.963Z" fill="white"/>
</g>
<g style="mix-blend-mode:screen">
<path d="M112.042 135.198C111.896 134.31 111.753 133.504 111.638 132.96C111.398 131.866 110.912 130.137 110.345 128.316C110.748 130.2 111.207 132.124 111.64 133.72C111.64 133.72 111.961 134.93 112.035 135.201L112.042 135.198Z" fill="white"/>
</g>
<g style="mix-blend-mode:screen">
<path d="M94.2829 97.7062C94.3264 96.8047 94.3472 95.9868 94.346 95.4297C94.3334 94.3104 94.2132 92.5175 94.0397 90.6158C94.0466 92.5479 94.099 94.5155 94.1987 96.1716C94.1987 96.1716 94.2646 97.4251 94.2804 97.6986L94.2829 97.7062Z" fill="white"/>
</g>
<g style="mix-blend-mode:screen">
<path d="M93.9348 112.487C91.7409 110.535 89.6761 108.692 89.0912 108.001L88.1822 106.92C87.6682 106.315 86.2704 104.629 86.0728 104.391C86.8254 105.507 87.7653 106.831 88.8439 108.067L89.1122 108.366C90.2565 109.622 92.4602 111.452 94.5193 113.001C94.3169 112.824 94.1246 112.652 93.9424 112.485L93.9348 112.487Z" fill="white"/>
</g>
<g style="mix-blend-mode:screen">
<path d="M106.661 138.841C104.12 137.386 101.715 136.011 100.997 135.449L99.8813 134.581C99.264 134.094 97.5386 132.738 97.2957 132.54C98.2575 133.477 99.4621 134.586 100.775 135.565L101.099 135.803C102.475 136.796 105.001 138.13 107.344 139.221C107.114 139.087 106.886 138.96 106.669 138.839L106.661 138.841Z" fill="white"/>
</g>
<g style="mix-blend-mode:screen">
<path d="M93.7124 119.116C92.1502 118.473 90.8661 117.932 90.3655 117.643C90.3655 117.643 89.0354 116.863 88.9014 116.79C89.3414 117.074 89.7992 117.36 90.2745 117.623L90.5729 117.785C91.3516 118.2 92.484 118.666 93.7124 119.116Z" fill="white"/>
</g>
<g style="mix-blend-mode:screen">
<path d="M105.395 120.418C106.038 117.914 106.608 115.113 106.713 113.414L106.732 113.019C106.799 111.383 106.707 109.75 106.595 108.41C106.591 108.724 106.551 110.917 106.527 111.702L106.495 113.115C106.472 114.027 106.006 116.759 105.517 119.651C105.475 119.902 105.432 120.152 105.388 120.421L105.395 120.418Z" fill="white"/>
</g>
<g style="mix-blend-mode:screen">
<path d="M126.565 157.513C126.643 154.928 126.593 152.064 126.327 150.387L126.263 149.995C125.974 148.377 125.526 146.812 125.129 145.525C125.19 145.809 125.625 147.961 125.78 148.754L126.051 150.142C126.225 151.038 126.368 153.803 126.521 156.726C126.539 156.981 126.55 157.24 126.563 157.506L126.565 157.513Z" fill="white"/>
</g>
<g style="mix-blend-mode:screen">
<path d="M130.693 163.658C131.704 160.541 132.785 156.428 133.022 154.093L133.064 153.64C133.239 151.495 133.163 149.358 133.076 147.74C133.066 147.507 133.047 147.251 133.027 146.962C132.97 147.801 132.924 148.644 132.878 149.487C132.83 150.373 132.781 151.26 132.723 152.141L132.623 153.729C132.559 154.747 131.92 157.791 131.24 161.017C131.07 161.843 130.88 162.759 130.69 163.651L130.693 163.658Z" fill="white"/>
</g>
<g style="mix-blend-mode:screen">
<path d="M116.853 155.459C114.312 154.003 111.907 152.628 111.191 152.074L110.076 151.206C109.458 150.72 107.733 149.363 107.49 149.165C108.452 150.102 109.654 151.203 110.962 152.193L111.275 152.426C112.651 153.418 115.185 154.75 117.521 155.843C117.291 155.709 117.063 155.583 116.846 155.461L116.853 155.459Z" fill="white"/>
</g>
<path d="M92.3971 90.1099C91.7824 87.3929 89.2225 79.8952 88.1726 80.2044C87.2717 80.4806 88.2897 87.3708 89.0229 91.0956C90.2618 97.3629 92.8399 106.223 94.0715 105.878C95.0305 105.574 93.8741 96.686 92.3921 90.1201L92.3971 90.1099Z" fill="#6DC82A"/>
<path d="M93.2401 102.263C92.8921 99.1099 92.1519 94.5089 91.2209 90.3687C90.8484 88.7026 89.8769 85.6488 88.9648 83.2255C89.2399 85.4058 89.7009 88.2419 90.2219 90.8551C91.0521 95.0459 92.2462 99.3684 93.2502 102.268L93.2401 102.263Z" fill="white"/>
<path d="M92.24 95.5014C91.1307 92.9414 87.2261 86.0543 86.255 86.5483C85.4175 86.9891 87.6976 93.5752 89.1122 97.0973C91.4917 103.025 95.6695 111.257 96.8097 110.689C97.6951 110.216 94.9182 101.692 92.2426 95.509L92.24 95.5014Z" fill="#6DC82A"/>
<path d="M95.3273 107.291C94.4037 104.255 92.8206 99.8774 91.1375 95.9805C90.4623 94.4156 88.9457 91.5949 87.5897 89.3794C88.2662 91.476 89.2445 94.1728 90.24 96.6441C91.8298 100.614 93.8061 104.633 95.3298 107.299L95.3273 107.291Z" fill="white"/>
<path d="M100.231 102.651C100.015 99.8683 98.5483 92.0894 97.4703 92.239C96.5413 92.381 96.5595 99.3524 96.7574 103.138C97.0823 109.517 98.3732 118.656 99.638 118.486C100.628 118.324 100.761 109.367 100.239 102.649L100.231 102.651Z" fill="#6DC82A"/>
<path d="M99.3317 114.804C99.4407 111.634 99.3646 106.979 99.0344 102.748C98.9043 101.051 98.382 97.8809 97.8233 95.3563C97.7853 97.5569 97.8346 100.421 97.977 103.085C98.1937 107.354 98.7643 111.801 99.3418 114.809L99.3317 114.804Z" fill="white"/>
<path d="M97.6169 114.786C95.9578 112.545 90.5859 106.732 89.7516 107.434C89.0408 108.052 92.7563 113.946 94.9325 117.053C98.596 122.289 104.534 129.34 105.517 128.53C106.27 127.864 101.627 120.202 97.6094 114.789L97.6169 114.786Z" fill="#6DC82A"/>
<path d="M103.306 125.57C101.713 122.826 99.1768 118.919 96.6463 115.508C95.6331 114.141 93.5139 111.733 91.6941 109.893C92.8297 111.776 94.3907 114.177 95.9209 116.359C98.3733 119.864 101.215 123.322 103.298 125.573L103.306 125.57Z" fill="white"/>
<path d="M110.261 129.4C109.263 126.795 105.651 119.75 104.665 120.199C103.815 120.602 105.815 127.281 107.07 130.857C109.197 136.886 113.017 145.28 114.19 144.76C115.096 144.322 112.677 135.687 110.269 129.398L110.261 129.4Z" fill="#6DC82A"/>
<path d="M112.841 141.309C112.049 138.237 110.655 133.796 109.134 129.828C108.524 128.233 107.128 125.346 105.873 123.08C106.456 125.2 107.321 127.934 108.213 130.449C109.631 134.485 111.441 138.584 112.849 141.306L112.841 141.309Z" fill="white"/>
<path d="M115.626 136.272C114.612 133.671 110.957 126.65 109.973 127.106C109.123 127.509 111.161 134.176 112.442 137.751C114.607 143.768 118.477 152.136 119.64 151.612C120.546 151.174 118.072 142.549 115.626 136.272Z" fill="#6DC82A"/>
<path d="M118.269 148.168C117.454 145.104 116.034 140.662 114.493 136.71C113.875 135.117 112.46 132.246 111.19 129.985C111.788 132.099 112.668 134.829 113.567 137.34C115.016 141.367 116.838 145.453 118.269 148.168Z" fill="white"/>
<path d="M110.795 141.107C108.778 139.18 102.502 134.362 101.807 135.203C101.21 135.935 105.871 141.108 108.541 143.804C113.039 148.338 120.088 154.283 120.917 153.313C121.546 152.528 115.672 145.768 110.798 141.114L110.795 141.107Z" fill="#6DC82A"/>
<path d="M118.219 150.761C116.186 148.332 113.029 144.912 109.959 141.978C108.724 140.803 106.232 138.79 104.127 137.281C105.568 138.945 107.517 141.046 109.388 142.937C112.397 145.968 115.778 148.9 118.219 150.761Z" fill="white"/>
<path d="M110.94 152.48C108.387 151.366 100.846 149.007 100.474 150.035C100.165 150.924 106.314 154.18 109.74 155.787C115.519 158.491 124.168 161.644 124.61 160.449C124.931 159.497 117.092 155.168 110.932 152.482L110.94 152.48Z" fill="#6DC82A"/>
<path d="M121.225 158.988C118.481 157.406 114.345 155.285 110.46 153.586C108.903 152.908 105.872 151.878 103.376 151.185C105.297 152.248 107.846 153.549 110.255 154.685C114.121 156.5 118.304 158.082 121.222 158.981L121.225 158.988Z" fill="white"/>
<path d="M120.679 151.873C119.156 149.536 114.157 143.403 113.279 144.052C112.528 144.624 115.878 150.734 117.863 153.972C121.201 159.419 126.695 166.83 127.723 166.08C128.52 165.467 124.348 157.529 120.681 151.88L120.679 151.873Z" fill="#6DC82A"/>
<path d="M125.694 162.983C124.273 160.147 121.981 156.091 119.67 152.531C118.737 151.103 116.772 148.576 115.073 146.619C116.088 148.569 117.505 151.068 118.896 153.339C121.127 156.985 123.749 160.619 125.694 162.983Z" fill="white"/>
<path d="M121.95 156.98C120.145 154.856 114.395 149.423 113.611 150.175C112.941 150.839 117.047 156.467 119.425 159.422C123.432 164.4 129.836 171.033 130.755 170.159C131.461 169.45 126.31 162.11 121.943 156.983L121.95 156.98Z" fill="#6DC82A"/>
<path d="M128.343 167.351C126.571 164.726 123.775 160.999 121.025 157.763C119.919 156.469 117.648 154.213 115.708 152.489C116.967 154.289 118.687 156.586 120.366 158.66C123.045 161.987 126.115 165.25 128.35 167.349L128.343 167.351Z" fill="white"/>
<path d="M130.738 161.354C130.083 158.642 127.397 151.195 126.36 151.517C125.461 151.801 126.596 158.686 127.382 162.393C128.724 168.643 131.439 177.457 132.663 177.09C133.616 176.77 132.324 167.902 130.731 161.357L130.738 161.354Z" fill="#6DC82A"/>
<path d="M131.781 173.498C131.385 170.353 130.574 165.768 129.57 161.635C129.167 159.979 128.15 156.94 127.19 154.525C127.498 156.702 128.004 159.523 128.566 162.132C129.459 166.31 130.731 170.614 131.778 173.491L131.781 173.498Z" fill="white"/>
<path d="M137.87 171.393C137.654 168.61 136.202 160.826 135.124 160.975C134.192 161.11 134.203 168.084 134.393 171.872C134.711 178.253 135.984 187.39 137.251 187.227C138.243 187.073 138.392 178.111 137.87 171.393Z" fill="#6DC82A"/>
<path d="M136.945 183.545C137.057 180.382 136.988 175.726 136.663 171.484C136.533 169.787 136.021 166.622 135.459 164.09C135.421 166.29 135.463 169.157 135.595 171.816C135.812 176.085 136.365 180.529 136.945 183.545Z" fill="white"/>
<path d="M132.745 175.702C131.555 173.177 127.419 166.427 126.465 166.949C125.643 167.41 128.143 173.922 129.666 177.391C132.237 183.238 136.687 191.328 137.805 190.717C138.672 190.216 135.615 181.786 132.735 175.696L132.745 175.702Z" fill="#6DC82A"/>
<path d="M136.216 187.38C135.194 184.377 133.47 180.055 131.653 176.211C130.927 174.671 129.317 171.899 127.893 169.731C128.635 171.798 129.705 174.464 130.773 176.902C132.497 180.82 134.602 184.77 136.209 187.383L136.216 187.38Z" fill="white"/>
</g>
</g>
<defs>
<clipPath id="clip0_144_6881">
<rect width="144" height="144" fill="white" transform="translate(46 64)"/>
</clipPath>
<clipPath id="clip1_144_6881">
<rect width="53" height="139" fill="white" transform="translate(71 79) rotate(-18.5049)"/>
</clipPath>
</defs>
</svg>
