<svg width="163" height="313" viewBox="0 0 163 313" fill="none" xmlns="http://www.w3.org/2000/svg">
<g filter="url(#filter0_d_297_25293)">
<rect y="36" width="156" height="184" fill="white"/>
<path d="M36.2122 203.95C35.7622 203.95 35.3706 203.767 35.0372 203.4C34.7039 203.017 34.4289 202.575 34.2122 202.075C33.9956 201.558 33.8206 201.117 33.6872 200.75C33.3872 199.867 33.0789 198.908 32.7622 197.875C32.4456 196.825 32.1206 195.767 31.7872 194.7C31.4706 193.633 31.1456 192.625 30.8122 191.675C30.4789 190.708 30.1539 189.883 29.8372 189.2V188.925C29.8372 188.658 29.8956 188.483 30.0122 188.4C30.1289 188.3 30.3789 188.25 30.7622 188.25C31.1956 188.25 31.5122 188.317 31.7122 188.45C31.9289 188.583 32.1122 188.883 32.2622 189.35L33.8622 194.475C34.3289 195.975 34.7039 197.158 34.9872 198.025C35.2706 198.892 35.5039 199.533 35.6872 199.95C35.8706 200.367 36.0456 200.633 36.2122 200.75C36.3956 200.867 36.6039 200.925 36.8372 200.925C37.1372 200.925 37.5122 200.625 37.9622 200.025C38.4122 199.408 38.8872 198.55 39.3872 197.45C39.8872 196.35 40.3789 195.058 40.8622 193.575C41.3622 192.075 41.8039 190.45 42.1872 188.7C42.2372 188.467 42.3539 188.267 42.5372 188.1C42.7372 187.933 42.9456 187.85 43.1622 187.85C43.4122 187.85 43.5789 187.942 43.6622 188.125C43.7622 188.308 43.8122 188.525 43.8122 188.775C43.8122 189.025 43.8122 189.25 43.8122 189.45C43.8122 189.983 43.6956 190.692 43.4622 191.575C43.2289 192.442 42.9039 193.408 42.4872 194.475C42.0872 195.542 41.6289 196.633 41.1122 197.75C40.5956 198.867 40.0539 199.925 39.4872 200.925C39.2539 201.325 38.9789 201.758 38.6622 202.225C38.3622 202.692 38.0122 203.1 37.6122 203.45C37.2122 203.783 36.7456 203.95 36.2122 203.95ZM46.8203 204.825C46.5869 204.825 46.4036 204.675 46.2703 204.375C46.1536 204.075 46.0703 203.692 46.0203 203.225C45.9869 202.758 45.9703 202.275 45.9703 201.775C45.9703 201.542 45.9703 201.308 45.9703 201.075C45.9869 200.825 45.9952 200.592 45.9952 200.375C45.9952 200.308 46.0203 200.092 46.0703 199.725C46.1203 199.342 46.1786 198.9 46.2453 198.4C46.3119 197.9 46.3786 197.408 46.4453 196.925C46.5286 196.425 46.5952 196.033 46.6453 195.75C46.6953 195.533 46.7536 195.25 46.8203 194.9C46.8869 194.533 47.0036 194.208 47.1703 193.925C47.3536 193.625 47.6119 193.475 47.9453 193.475C48.3286 193.475 48.5953 193.55 48.7453 193.7C48.9119 193.833 48.9953 194.05 48.9953 194.35C48.9953 194.433 48.9869 194.517 48.9702 194.6C48.9702 194.683 48.9619 194.775 48.9453 194.875C48.8619 195.408 48.7536 196.075 48.6203 196.875C48.5036 197.658 48.3953 198.483 48.2953 199.35C48.2119 200.2 48.1869 201.008 48.2202 201.775C48.2369 201.958 48.2536 202.175 48.2703 202.425C48.3036 202.658 48.3203 202.892 48.3203 203.125C48.3203 203.558 48.2286 203.95 48.0452 204.3C47.8619 204.65 47.4536 204.825 46.8203 204.825ZM46.5203 190.975C46.2869 190.975 46.1703 190.808 46.1703 190.475C46.1703 190.275 46.2536 190.067 46.4203 189.85C46.5869 189.633 46.7786 189.433 46.9953 189.25C47.2286 189.05 47.4203 188.892 47.5703 188.775C47.6869 188.675 47.8036 188.583 47.9203 188.5C48.0369 188.4 48.1369 188.317 48.2202 188.25C48.3036 188.183 48.4536 188.075 48.6703 187.925C48.8869 187.775 49.1036 187.625 49.3203 187.475C49.5369 187.325 49.6703 187.242 49.7203 187.225C49.8036 187.192 49.8619 187.175 49.8953 187.175C49.9453 187.175 50.0036 187.175 50.0703 187.175C50.2869 187.175 50.5036 187.258 50.7203 187.425C50.9536 187.575 51.0703 187.717 51.0703 187.85C51.0703 187.917 51.0203 188 50.9203 188.1L50.7703 188.275C50.7369 188.325 50.6869 188.375 50.6203 188.425C50.5703 188.458 50.5286 188.492 50.4953 188.525C50.4286 188.592 50.2536 188.7 49.9703 188.85C49.6869 188.983 49.4119 189.142 49.1453 189.325L48.3703 189.825C48.0869 190.025 47.9203 190.15 47.8702 190.2C47.7536 190.3 47.5536 190.458 47.2703 190.675C46.9869 190.875 46.7369 190.975 46.5203 190.975ZM56.1132 205.7C55.6966 205.7 55.3882 205.567 55.1882 205.3C54.9882 205.033 54.8549 204.7 54.7882 204.3C54.7382 203.9 54.7132 203.508 54.7132 203.125C54.7132 202.942 54.7132 202.767 54.7132 202.6C54.7299 202.433 54.7382 202.292 54.7382 202.175C54.7382 200.975 54.7632 199.767 54.8132 198.55C54.8632 197.317 54.8882 195.975 54.8882 194.525C54.2716 194.525 53.7632 194.55 53.3632 194.6C52.9632 194.65 52.5632 194.675 52.1632 194.675C51.8966 194.675 51.7132 194.625 51.6132 194.525C51.5132 194.425 51.4632 194.258 51.4632 194.025C51.4632 193.758 51.4966 193.567 51.5632 193.45C51.6466 193.317 51.7466 193.233 51.8632 193.2L54.3132 192.7C54.6799 192.617 54.9382 192.45 55.0882 192.2C55.2549 191.95 55.3716 191.708 55.4382 191.475C55.4716 191.342 55.4882 191.217 55.4882 191.1C55.5049 190.967 55.5216 190.825 55.5382 190.675C55.5382 190.542 55.5382 190.417 55.5382 190.3C55.5549 190.167 55.5632 190.042 55.5632 189.925C55.5966 189.392 55.6799 189 55.8132 188.75C55.9632 188.5 56.2466 188.375 56.6632 188.375C57.0466 188.375 57.2716 188.525 57.3382 188.825C57.4216 189.125 57.4632 189.408 57.4632 189.675C57.4632 189.858 57.4466 190.142 57.4132 190.525C57.3966 190.892 57.3799 191.258 57.3632 191.625C57.3466 191.992 57.3299 192.258 57.3132 192.425H61.3132C61.4632 192.425 61.6132 192.525 61.7632 192.725C61.9132 192.925 61.9882 193.183 61.9882 193.5C61.9882 193.6 61.9466 193.733 61.8632 193.9C61.7799 194.05 61.6799 194.125 61.5632 194.125C61.3966 194.125 61.0799 194.133 60.6132 194.15C60.1632 194.15 59.6716 194.158 59.1382 194.175C58.6216 194.192 58.1632 194.208 57.7632 194.225C57.3632 194.242 57.1382 194.267 57.0882 194.3C57.0049 195.3 56.9382 196.267 56.8882 197.2C56.8549 198.117 56.8382 199.008 56.8382 199.875C56.8382 200.442 56.8466 200.992 56.8632 201.525C56.8966 202.042 56.9216 202.558 56.9382 203.075C56.9382 203.158 56.9466 203.283 56.9632 203.45C56.9799 203.617 56.9882 203.8 56.9882 204C56.9882 204.383 56.9299 204.767 56.8132 205.15C56.7132 205.517 56.4799 205.7 56.1132 205.7ZM66.372 188.85C65.822 188.85 65.3803 188.725 65.047 188.475C64.7303 188.208 64.572 187.867 64.572 187.45C64.572 187.067 64.7553 186.775 65.122 186.575C65.4887 186.358 65.9553 186.25 66.522 186.25C67.0887 186.25 67.5303 186.383 67.847 186.65C68.1637 186.9 68.322 187.25 68.322 187.7C68.322 188.067 68.1387 188.35 67.772 188.55C67.422 188.75 66.9553 188.85 66.372 188.85ZM65.072 204.825C64.8387 204.825 64.6553 204.675 64.522 204.375C64.4053 204.075 64.322 203.692 64.272 203.225C64.2387 202.758 64.222 202.275 64.222 201.775C64.222 201.542 64.222 201.308 64.222 201.075C64.2387 200.825 64.247 200.592 64.247 200.375C64.247 200.308 64.272 200.092 64.322 199.725C64.372 199.342 64.4303 198.9 64.497 198.4C64.5637 197.9 64.6303 197.408 64.697 196.925C64.7803 196.425 64.847 196.033 64.897 195.75C64.947 195.533 65.0053 195.25 65.072 194.9C65.1387 194.533 65.2553 194.208 65.422 193.925C65.6053 193.625 65.8637 193.475 66.197 193.475C66.5803 193.475 66.847 193.55 66.997 193.7C67.1637 193.833 67.247 194.05 67.247 194.35C67.247 194.433 67.2387 194.517 67.222 194.6C67.222 194.683 67.2137 194.775 67.197 194.875C67.1137 195.408 67.0053 196.075 66.872 196.875C66.7553 197.658 66.647 198.483 66.547 199.35C66.4637 200.2 66.4387 201.008 66.472 201.775C66.4887 201.958 66.5053 202.175 66.522 202.425C66.5553 202.658 66.572 202.892 66.572 203.125C66.572 203.558 66.4803 203.95 66.297 204.3C66.1137 204.65 65.7053 204.825 65.072 204.825ZM71.165 204.95C70.8983 204.95 70.6816 204.875 70.515 204.725C70.3483 204.558 70.265 204.358 70.265 204.125C70.265 203.542 70.2816 202.967 70.315 202.4C70.365 201.833 70.39 201.258 70.39 200.675V198.9C70.39 198.417 70.3816 197.933 70.365 197.45C70.3483 196.95 70.315 196.4 70.265 195.8C70.215 195.333 70.115 194.85 69.965 194.35C69.815 193.833 69.74 193.392 69.74 193.025C69.74 192.308 69.9566 191.95 70.39 191.95C70.89 191.95 71.265 192.442 71.515 193.425C71.7816 194.392 72.0316 195.783 72.265 197.6C72.2983 197.817 72.34 197.975 72.39 198.075C72.44 198.158 72.49 198.2 72.54 198.2C72.64 198.2 72.7316 198.142 72.815 198.025C72.915 197.892 72.99 197.783 73.04 197.7C73.1733 197.45 73.3233 197.158 73.49 196.825C73.6733 196.492 73.8316 196.208 73.965 195.975C74.0983 195.742 74.24 195.517 74.39 195.3C74.5566 195.067 74.7233 194.85 74.89 194.65C75.2233 194.233 75.5816 193.908 75.965 193.675C76.3483 193.425 76.765 193.3 77.215 193.3C77.615 193.3 77.9233 193.408 78.14 193.625C78.3566 193.842 78.5483 194.125 78.715 194.475C78.815 194.675 78.8983 194.875 78.965 195.075C79.0483 195.258 79.1233 195.442 79.19 195.625C79.2733 195.808 79.3816 196.108 79.515 196.525C79.6483 196.925 79.815 197.258 80.015 197.525L80.765 196.45C81.065 196.017 81.3566 195.592 81.64 195.175C81.94 194.742 82.2733 194.342 82.64 193.975C82.99 193.608 83.3566 193.317 83.74 193.1C84.1233 192.867 84.5233 192.75 84.94 192.75C85.5066 192.75 85.9816 192.983 86.365 193.45C86.7483 193.917 87.04 194.492 87.24 195.175C87.44 195.858 87.5483 196.525 87.565 197.175L87.715 202.95C87.7316 203.217 87.6733 203.533 87.54 203.9C87.4066 204.25 87.1483 204.425 86.765 204.425C86.5483 204.425 86.365 204.342 86.215 204.175C86.065 203.992 85.99 203.808 85.99 203.625V198.65C85.99 198.317 85.965 197.933 85.915 197.5C85.865 197.05 85.7816 196.617 85.665 196.2C85.565 195.783 85.4233 195.442 85.24 195.175C85.0566 194.892 84.8233 194.75 84.54 194.75C84.09 194.75 83.6816 194.967 83.315 195.4C82.9483 195.817 82.6066 196.383 82.29 197.1C81.99 197.8 81.6816 198.575 81.365 199.425C81.0483 200.508 80.7733 201.233 80.54 201.6C80.3233 201.967 80.09 202.15 79.84 202.15C79.6233 202.15 79.4483 202.1 79.315 202C79.1816 201.9 79.065 201.767 78.965 201.6C78.8483 201.4 78.7566 201.167 78.69 200.9C78.6233 200.617 78.565 200.367 78.515 200.15L78.04 197.95C77.9733 197.65 77.8983 197.283 77.815 196.85C77.7483 196.417 77.6316 196.042 77.465 195.725C77.315 195.392 77.0816 195.225 76.765 195.225C76.5483 195.225 76.315 195.358 76.065 195.625C75.8316 195.875 75.59 196.192 75.34 196.575C75.1066 196.958 74.89 197.35 74.69 197.75C74.49 198.15 74.3233 198.508 74.19 198.825C74.0566 199.142 73.9733 199.342 73.94 199.425C73.9066 199.525 73.8066 199.783 73.64 200.2C73.4733 200.617 73.2816 201.092 73.065 201.625C72.8483 202.142 72.6483 202.625 72.465 203.075C72.2983 203.508 72.19 203.792 72.14 203.925C71.9733 204.308 71.8233 204.575 71.69 204.725C71.5566 204.875 71.3816 204.95 71.165 204.95ZM94.3658 205.45C93.6158 205.45 92.9158 205.283 92.2658 204.95C91.6324 204.617 91.0991 204.167 90.6658 203.6C90.2324 203.033 89.9491 202.4 89.8158 201.7V200.375C89.8158 199.425 89.9908 198.467 90.3408 197.5C90.6908 196.533 91.1741 195.642 91.7908 194.825C92.4241 194.008 93.1658 193.358 94.0158 192.875C94.8824 192.375 95.8158 192.125 96.8158 192.125C97.4491 192.125 98.0574 192.233 98.6408 192.45C99.2408 192.667 99.7741 192.917 100.241 193.2C100.341 192.5 100.466 192.017 100.616 191.75C100.766 191.483 101.024 191.35 101.391 191.35C101.674 191.35 101.874 191.442 101.991 191.625C102.107 191.792 102.166 192.092 102.166 192.525C102.166 193.525 102.141 194.508 102.091 195.475C102.057 196.425 102.041 197.4 102.041 198.4C102.041 199.2 102.082 200.025 102.166 200.875C102.266 201.725 102.316 202.542 102.316 203.325C102.316 203.575 102.316 203.825 102.316 204.075C102.332 204.325 102.291 204.533 102.191 204.7C102.107 204.85 101.924 204.925 101.641 204.925C101.241 204.925 100.941 204.742 100.741 204.375C100.557 203.992 100.432 203.533 100.366 203C100.299 202.467 100.232 201.967 100.166 201.5C99.9991 201.95 99.7158 202.392 99.3158 202.825C98.9324 203.258 98.5408 203.633 98.1408 203.95C97.7574 204.25 97.4574 204.467 97.2408 204.6C97.0408 204.717 97.0408 204.7 97.2408 204.55C96.8741 204.817 96.4158 205.033 95.8658 205.2C95.3324 205.367 94.8324 205.45 94.3658 205.45ZM94.1158 203.875C94.8658 203.875 95.5658 203.658 96.2158 203.225C96.8658 202.792 97.4324 202.233 97.9158 201.55C98.4158 200.867 98.7991 200.15 99.0658 199.4C99.3491 198.65 99.4908 197.958 99.4908 197.325C99.4908 197.008 99.4491 196.65 99.3658 196.25C99.2991 195.833 99.1658 195.433 98.9658 195.05C98.7658 194.667 98.4908 194.35 98.1408 194.1C97.8074 193.85 97.3658 193.725 96.8158 193.725C96.0991 193.725 95.4158 193.958 94.7658 194.425C94.1158 194.875 93.5324 195.458 93.0158 196.175C92.5158 196.875 92.1241 197.6 91.8408 198.35C91.5574 199.1 91.4158 199.775 91.4158 200.375C91.4158 200.825 91.4908 201.325 91.6408 201.875C91.8074 202.425 92.0824 202.9 92.4658 203.3C92.8658 203.683 93.4158 203.875 94.1158 203.875ZM117.441 205.95C117.174 205.95 116.874 205.942 116.541 205.925C116.207 205.925 115.916 205.858 115.666 205.725C115.416 205.608 115.291 205.383 115.291 205.05V204.675C115.291 204.558 115.299 204.45 115.316 204.35C115.349 204.233 115.407 204.158 115.491 204.125C115.824 204.125 116.124 204.133 116.391 204.15C116.657 204.15 116.916 204.15 117.166 204.15C117.449 204.15 117.732 204.142 118.016 204.125C118.299 204.092 118.599 204.042 118.916 203.975C119.566 203.842 120.207 203.583 120.841 203.2C121.491 202.817 122.074 202.35 122.591 201.8C123.124 201.25 123.549 200.65 123.866 200C124.182 199.35 124.341 198.675 124.341 197.975C124.341 197.275 124.149 196.742 123.766 196.375C123.399 195.992 122.941 195.725 122.391 195.575C121.857 195.425 121.332 195.35 120.816 195.35C120.182 195.35 119.557 195.425 118.941 195.575C118.341 195.725 117.749 195.983 117.166 196.35C116.966 196.467 116.732 196.625 116.466 196.825C116.199 197.025 115.924 197.2 115.641 197.35C115.374 197.5 115.116 197.575 114.866 197.575C114.599 197.575 114.357 197.475 114.141 197.275C113.924 197.075 113.816 196.875 113.816 196.675C113.816 196.458 113.849 196.217 113.916 195.95C113.982 195.683 114.074 195.392 114.191 195.075C114.257 194.908 114.316 194.75 114.366 194.6C114.416 194.433 114.466 194.275 114.516 194.125C114.632 193.825 114.716 193.517 114.766 193.2C114.799 193.033 114.832 192.758 114.866 192.375C114.916 191.975 114.957 191.542 114.991 191.075C115.041 190.592 115.082 190.142 115.116 189.725C115.149 189.308 115.174 189 115.191 188.8C115.357 188.45 115.632 188.208 116.016 188.075C116.416 187.925 116.857 187.833 117.341 187.8C117.824 187.767 118.257 187.75 118.641 187.75C118.507 187.75 118.524 187.75 118.691 187.75C118.874 187.733 119.149 187.717 119.516 187.7C119.882 187.683 120.282 187.675 120.716 187.675C121.166 187.658 121.591 187.65 121.991 187.65C122.391 187.633 122.716 187.625 122.966 187.625H123.116C123.416 187.625 123.732 187.625 124.066 187.625C124.399 187.625 124.707 187.667 124.991 187.75C125.257 187.817 125.457 187.925 125.591 188.075C125.724 188.208 125.791 188.408 125.791 188.675C125.791 188.892 125.682 189.05 125.466 189.15C125.266 189.233 125.032 189.283 124.766 189.3C124.499 189.317 124.266 189.325 124.066 189.325H118.391C118.274 189.325 118.099 189.35 117.866 189.4C117.799 189.417 117.724 189.433 117.641 189.45C117.574 189.45 117.474 189.45 117.341 189.45L116.891 189.9C116.891 190.033 116.882 190.142 116.866 190.225C116.866 190.292 116.857 190.358 116.841 190.425C116.841 190.492 116.832 190.558 116.816 190.625C116.816 190.692 116.807 190.75 116.791 190.8C116.741 190.967 116.666 191.242 116.566 191.625C116.482 192.008 116.399 192.392 116.316 192.775C116.232 193.142 116.157 193.4 116.091 193.55V194.45C116.724 194.45 117.241 194.417 117.641 194.35C118.041 194.267 118.407 194.183 118.741 194.1C119.024 194.017 119.316 193.942 119.616 193.875C119.932 193.808 120.241 193.775 120.541 193.775C121.591 193.775 122.524 193.908 123.341 194.175C124.157 194.442 124.791 194.875 125.241 195.475C125.707 196.058 125.941 196.842 125.941 197.825C125.941 198.875 125.699 199.883 125.216 200.85C124.749 201.817 124.116 202.683 123.316 203.45C122.516 204.217 121.607 204.825 120.591 205.275C119.574 205.725 118.524 205.95 117.441 205.95Z" fill="#D32833"/>
<rect x="7" y="42" width="142.63" height="134" fill="black"/>
<path opacity="0.1" d="M149.63 176V42L24.8291 176H149.63Z" fill="white"/>
<path opacity="0.15" d="M149.63 42H78.315L7 160.686V176H24.8288L149.63 42Z" fill="white"/>
<path opacity="0.3" d="M149.63 176V103.257L60.4863 176H149.63Z" fill="black"/>
<path opacity="0.1" d="M7.00043 42.0001V160.686L78.3154 42.0001H7.00043Z" fill="white"/>
</g>
<path d="M80.2295 33.4519L89.7676 35.749L83.5406 51.7354L81.8481 52.3564L79.9037 51.8881L78.6796 50.5647L80.2295 33.4519Z" fill="#A9A9A9"/>
<path d="M89.2922 37.7211L81.9219 35.946L83.5401 51.7355L89.2922 37.7211Z" fill="#878787"/>
<path d="M99.9073 37.1625L85.3242 33.6503L70.7412 30.1382L70.4837 31.2076L72.5777 40.2771L82.7487 44.3445L92.7965 45.1465L99.6497 38.2319L99.9073 37.1625Z" fill="#AB1E27"/>
<path d="M96.4868 29.8244L87.4317 24.9006L76.268 24.955L70.7414 30.1382L73.0126 38.4718L83.2171 42.4002L93.2314 43.3412L99.9074 37.1625L96.4868 29.8244Z" fill="#D32833"/>
<path opacity="0.8" d="M97.4651 31.5077L90.8524 27.7816L82.638 27.9368L78.5192 32.0115L80.106 38.4498L87.5744 41.3925L94.9331 42.0207L99.9077 37.1626L97.4651 31.5077Z" fill="#A11B24"/>
<path d="M80.25 7.74194L101.638 12.8931L90.5677 34.8554L82.9121 35.1265L80.1082 32.3364L80.25 7.74194Z" fill="#D32833"/>
<path d="M101.638 12.8931L80.25 7.74194L80.0871 16.96L82.9121 35.1265L86.1978 36.4321L90.5677 34.8554L101.638 12.8931Z" fill="#A11B24"/>
<path d="M90.5673 34.8553L97.2456 21.6067L87.9534 29.1405L86.1973 36.432L90.5673 34.8553Z" fill="#811219"/>
<path d="M99.1955 7.23814L92.5829 3.51209L84.3684 3.66722L80.2497 7.74194L81.8365 14.1803L89.3049 17.1229L96.6636 17.7512L101.638 12.8931L99.1955 7.23814Z" fill="#D32833"/>
<g filter="url(#filter1_d_297_25293)">
<path d="M10 227H146.667V307H22.8446L18.7343 303.25L11.0276 275.75L10 261.583V227Z" fill="#FFCDD0"/>
<path d="M54.1849 272.417C53.7349 272.417 53.3432 272.233 53.0099 271.867C52.6766 271.483 52.4016 271.042 52.1849 270.542C51.9682 270.025 51.7932 269.583 51.6599 269.217C51.3599 268.333 51.0516 267.375 50.7349 266.342C50.4182 265.292 50.0932 264.233 49.7599 263.167C49.4432 262.1 49.1182 261.092 48.7849 260.142C48.4516 259.175 48.1266 258.35 47.8099 257.667V257.392C47.8099 257.125 47.8682 256.95 47.9849 256.867C48.1016 256.767 48.3516 256.717 48.7349 256.717C49.1682 256.717 49.4849 256.783 49.6849 256.917C49.9016 257.05 50.0849 257.35 50.2349 257.817L51.8349 262.942C52.3016 264.442 52.6766 265.625 52.9599 266.492C53.2432 267.358 53.4766 268 53.6599 268.417C53.8432 268.833 54.0182 269.1 54.1849 269.217C54.3682 269.333 54.5766 269.392 54.8099 269.392C55.1099 269.392 55.4849 269.092 55.9349 268.492C56.3849 267.875 56.8599 267.017 57.3599 265.917C57.8599 264.817 58.3516 263.525 58.8349 262.042C59.3349 260.542 59.7766 258.917 60.1599 257.167C60.2099 256.933 60.3266 256.733 60.5099 256.567C60.7099 256.4 60.9182 256.317 61.1349 256.317C61.3849 256.317 61.5516 256.408 61.6349 256.592C61.7349 256.775 61.7849 256.992 61.7849 257.242C61.7849 257.492 61.7849 257.717 61.7849 257.917C61.7849 258.45 61.6682 259.158 61.4349 260.042C61.2016 260.908 60.8766 261.875 60.4599 262.942C60.0599 264.008 59.6016 265.1 59.0849 266.217C58.5682 267.333 58.0266 268.392 57.4599 269.392C57.2266 269.792 56.9516 270.225 56.6349 270.692C56.3349 271.158 55.9849 271.567 55.5849 271.917C55.1849 272.25 54.7182 272.417 54.1849 272.417ZM66.6679 257.317C66.1179 257.317 65.6762 257.192 65.3429 256.942C65.0262 256.675 64.8679 256.333 64.8679 255.917C64.8679 255.533 65.0512 255.242 65.4179 255.042C65.7846 254.825 66.2512 254.717 66.8179 254.717C67.3846 254.717 67.8262 254.85 68.1429 255.117C68.4596 255.367 68.6179 255.717 68.6179 256.167C68.6179 256.533 68.4346 256.817 68.0679 257.017C67.7179 257.217 67.2512 257.317 66.6679 257.317ZM65.3679 273.292C65.1346 273.292 64.9512 273.142 64.8179 272.842C64.7012 272.542 64.6179 272.158 64.5679 271.692C64.5346 271.225 64.5179 270.742 64.5179 270.242C64.5179 270.008 64.5179 269.775 64.5179 269.542C64.5346 269.292 64.5429 269.058 64.5429 268.842C64.5429 268.775 64.5679 268.558 64.6179 268.192C64.6679 267.808 64.7262 267.367 64.7929 266.867C64.8596 266.367 64.9262 265.875 64.9929 265.392C65.0762 264.892 65.1429 264.5 65.1929 264.217C65.2429 264 65.3012 263.717 65.3679 263.367C65.4346 263 65.5512 262.675 65.7179 262.392C65.9012 262.092 66.1596 261.942 66.4929 261.942C66.8762 261.942 67.1429 262.017 67.2929 262.167C67.4596 262.3 67.5429 262.517 67.5429 262.817C67.5429 262.9 67.5346 262.983 67.5179 263.067C67.5179 263.15 67.5096 263.242 67.4929 263.342C67.4096 263.875 67.3012 264.542 67.1679 265.342C67.0512 266.125 66.9429 266.95 66.8429 267.817C66.7596 268.667 66.7346 269.475 66.7679 270.242C66.7846 270.425 66.8012 270.642 66.8179 270.892C66.8512 271.125 66.8679 271.358 66.8679 271.592C66.8679 272.025 66.7762 272.417 66.5929 272.767C66.4096 273.117 66.0012 273.292 65.3679 273.292ZM74.7859 274.042C74.3359 274.042 73.8109 274.017 73.2109 273.967C72.6109 273.917 72.0192 273.808 71.4359 273.642C70.8692 273.475 70.3942 273.208 70.0109 272.842C69.6442 272.475 69.4609 271.983 69.4609 271.367C69.4609 270.567 69.7775 270.167 70.4109 270.167C70.6275 270.167 70.7942 270.242 70.9109 270.392L71.1359 270.692C71.1859 270.758 71.2275 270.833 71.2609 270.917C71.3109 270.983 71.3692 271.058 71.4359 271.142C71.6692 271.492 72.0025 271.817 72.4359 272.117C72.8692 272.417 73.5192 272.567 74.3859 272.567C74.8859 272.567 75.4359 272.492 76.0359 272.342C76.6359 272.175 77.1442 271.917 77.5609 271.567C77.9942 271.217 78.2109 270.75 78.2109 270.167C78.2109 269.683 78.0609 269.3 77.7609 269.017C77.4609 268.733 77.1275 268.508 76.7609 268.342C76.5942 268.258 76.4025 268.175 76.1859 268.092C75.9859 268.008 75.7692 267.933 75.5359 267.867C75.3192 267.8 75.1025 267.733 74.8859 267.667C74.6692 267.6 74.4442 267.533 74.2109 267.467C73.6109 267.267 73.0609 267.042 72.5609 266.792C72.0775 266.525 71.6859 266.192 71.3859 265.792C71.1025 265.392 70.9609 264.883 70.9609 264.267C70.9609 263.5 71.2109 262.858 71.7109 262.342C72.2275 261.825 72.8692 261.442 73.6359 261.192C74.4192 260.925 75.2109 260.792 76.0109 260.792C76.3109 260.792 76.6609 260.817 77.0609 260.867C77.4609 260.917 77.8525 261.008 78.2359 261.142C78.6192 261.275 78.9359 261.467 79.1859 261.717C79.4525 261.95 79.5859 262.267 79.5859 262.667C79.5859 262.867 79.5442 263.042 79.4609 263.192C79.3942 263.325 79.2859 263.392 79.1359 263.392C79.0359 263.392 78.9525 263.375 78.8859 263.342C78.1525 263.008 77.5359 262.767 77.0359 262.617C76.5525 262.467 76.1275 262.392 75.7609 262.392C75.5442 262.392 75.2609 262.425 74.9109 262.492C74.5775 262.542 74.2442 262.633 73.9109 262.767C73.5775 262.883 73.2942 263.058 73.0609 263.292C72.8442 263.508 72.7359 263.792 72.7359 264.142C72.7359 264.775 73.2192 265.3 74.1859 265.717C74.5359 265.85 74.9275 265.983 75.3609 266.117C75.7942 266.25 76.2442 266.408 76.7109 266.592C77.3109 266.808 77.8609 267.067 78.3609 267.367C78.8609 267.667 79.2525 268.033 79.5359 268.467C79.8359 268.883 79.9859 269.408 79.9859 270.042C79.9859 270.992 79.7442 271.767 79.2609 272.367C78.7775 272.95 78.1442 273.375 77.3609 273.642C76.5775 273.908 75.7192 274.042 74.7859 274.042ZM86.4341 273.917C85.6841 273.917 84.9841 273.75 84.3341 273.417C83.7008 273.083 83.1674 272.633 82.7341 272.067C82.3008 271.5 82.0174 270.867 81.8841 270.167V268.842C81.8841 267.892 82.0591 266.933 82.4091 265.967C82.7591 265 83.2424 264.108 83.8591 263.292C84.4924 262.475 85.2341 261.825 86.0841 261.342C86.9508 260.842 87.8841 260.592 88.8841 260.592C89.5174 260.592 90.1258 260.7 90.7091 260.917C91.3091 261.133 91.8424 261.383 92.3091 261.667C92.4091 260.967 92.5341 260.483 92.6841 260.217C92.8341 259.95 93.0924 259.817 93.4591 259.817C93.7424 259.817 93.9424 259.908 94.0591 260.092C94.1758 260.258 94.2341 260.558 94.2341 260.992C94.2341 261.992 94.2091 262.975 94.1591 263.942C94.1258 264.892 94.1091 265.867 94.1091 266.867C94.1091 267.667 94.1508 268.492 94.2341 269.342C94.3341 270.192 94.3841 271.008 94.3841 271.792C94.3841 272.042 94.3841 272.292 94.3841 272.542C94.4008 272.792 94.3591 273 94.2591 273.167C94.1758 273.317 93.9924 273.392 93.7091 273.392C93.3091 273.392 93.0091 273.208 92.8091 272.842C92.6258 272.458 92.5008 272 92.4341 271.467C92.3674 270.933 92.3008 270.433 92.2341 269.967C92.0674 270.417 91.7841 270.858 91.3841 271.292C91.0008 271.725 90.6091 272.1 90.2091 272.417C89.8258 272.717 89.5258 272.933 89.3091 273.067C89.1091 273.183 89.1091 273.167 89.3091 273.017C88.9424 273.283 88.4841 273.5 87.9341 273.667C87.4008 273.833 86.9008 273.917 86.4341 273.917ZM86.1841 272.342C86.9341 272.342 87.6341 272.125 88.2841 271.692C88.9341 271.258 89.5008 270.7 89.9841 270.017C90.4841 269.333 90.8674 268.617 91.1341 267.867C91.4174 267.117 91.5591 266.425 91.5591 265.792C91.5591 265.475 91.5174 265.117 91.4341 264.717C91.3674 264.3 91.2341 263.9 91.0341 263.517C90.8341 263.133 90.5591 262.817 90.2091 262.567C89.8758 262.317 89.4341 262.192 88.8841 262.192C88.1674 262.192 87.4841 262.425 86.8341 262.892C86.1841 263.342 85.6008 263.925 85.0841 264.642C84.5841 265.342 84.1924 266.067 83.9091 266.817C83.6258 267.567 83.4841 268.242 83.4841 268.842C83.4841 269.292 83.5591 269.792 83.7091 270.342C83.8758 270.892 84.1508 271.367 84.5341 271.767C84.9341 272.15 85.4841 272.342 86.1841 272.342ZM86.0591 258.292C85.8091 258.292 85.6341 258.217 85.5341 258.067C85.4341 257.917 85.3841 257.758 85.3841 257.592C85.3841 257.442 85.4341 257.25 85.5341 257.017C85.6508 256.783 85.7841 256.55 85.9341 256.317C86.1008 256.083 86.2591 255.9 86.4091 255.767C86.6258 255.583 86.8341 255.442 87.0341 255.342C87.2508 255.242 87.4841 255.192 87.7341 255.192C88.1341 255.192 88.4841 255.308 88.7841 255.542C89.0841 255.775 89.3674 256.008 89.6341 256.242C89.9008 256.475 90.1758 256.592 90.4591 256.592C90.7091 256.592 90.9008 256.533 91.0341 256.417C91.1674 256.283 91.3174 256.133 91.4841 255.967C91.5841 255.867 91.6924 255.767 91.8091 255.667C91.9258 255.567 92.0591 255.517 92.2091 255.517C92.3591 255.517 92.4841 255.567 92.5841 255.667C92.7008 255.75 92.7591 255.892 92.7591 256.092C92.7591 256.342 92.6674 256.633 92.4841 256.967C92.3008 257.283 92.0508 257.567 91.7341 257.817C91.4174 258.05 91.0508 258.167 90.6341 258.167C90.1674 258.167 89.8091 258.1 89.5591 257.967C89.3091 257.833 89.1091 257.683 88.9591 257.517C88.8258 257.333 88.6758 257.175 88.5091 257.042C88.3591 256.908 88.1341 256.842 87.8341 256.842C87.5674 256.842 87.3674 256.925 87.2341 257.092C87.1008 257.242 86.9424 257.442 86.7591 257.692C86.6924 257.758 86.6258 257.833 86.5591 257.917C86.5091 258 86.4424 258.083 86.3591 258.167C86.2258 258.25 86.1258 258.292 86.0591 258.292ZM103.393 273.667C102.193 273.667 101.077 273.408 100.043 272.892C99.0102 272.358 98.1768 271.625 97.5435 270.692C96.9268 269.742 96.6185 268.642 96.6185 267.392C96.6185 266.542 96.7935 265.75 97.1435 265.017C97.5102 264.283 97.9768 263.583 98.5435 262.917C99.1102 262.25 99.7018 261.6 100.318 260.967C100.602 260.683 100.927 260.483 101.293 260.367C101.66 260.233 102.052 260.167 102.468 260.167C103.618 260.167 104.702 260.292 105.718 260.542C106.735 260.775 107.635 261.158 108.418 261.692C109.218 262.225 109.843 262.917 110.293 263.767C110.743 264.617 110.968 265.65 110.968 266.867C110.968 267.867 110.752 268.783 110.318 269.617C109.902 270.45 109.327 271.175 108.593 271.792C107.877 272.392 107.068 272.858 106.168 273.192C105.268 273.508 104.343 273.667 103.393 273.667ZM102.843 271.817C103.61 271.817 104.368 271.708 105.118 271.492C105.885 271.275 106.577 270.95 107.193 270.517C107.81 270.067 108.302 269.508 108.668 268.842C109.052 268.175 109.243 267.383 109.243 266.467C109.243 265.633 109.06 264.925 108.693 264.342C108.343 263.742 107.877 263.258 107.293 262.892C106.71 262.508 106.077 262.225 105.393 262.042C104.71 261.858 104.043 261.767 103.393 261.767C103.127 261.767 102.827 261.792 102.493 261.842C102.177 261.875 101.868 262.033 101.568 262.317C101.202 262.667 100.827 263.025 100.443 263.392C100.077 263.742 99.7352 264.133 99.4185 264.567C99.1018 264.983 98.8435 265.45 98.6435 265.967C98.4435 266.483 98.3435 267.042 98.3435 267.642C98.3435 268.608 98.5435 269.4 98.9435 270.017C99.3602 270.633 99.9102 271.092 100.593 271.392C101.277 271.675 102.027 271.817 102.843 271.817Z" fill="#D32833"/>
<path opacity="0.5" d="M26.4411 307H23.8722L18.7343 303.269L11.0276 276.089L10 261.167L19.7619 279.287L38.7719 301.671L32.6065 300.072L27.4687 302.737L26.4411 307Z" fill="#F3A4A9"/>
<path d="M24.1553 307H22.5825L18.7343 303.25L11.0485 276.089L10 261.167L18.9126 280.353L35.6892 299.539L30.4465 297.94L25.2038 300.605L24.1553 307Z" fill="#F3A4A9"/>
</g>
<defs>
<filter id="filter0_d_297_25293" x="0" y="36" width="162.296" height="192.395" filterUnits="userSpaceOnUse" color-interpolation-filters="sRGB">
<feFlood flood-opacity="0" result="BackgroundImageFix"/>
<feColorMatrix in="SourceAlpha" type="matrix" values="0 0 0 0 0 0 0 0 0 0 0 0 0 0 0 0 0 0 127 0" result="hardAlpha"/>
<feOffset dx="6.29605" dy="8.39474"/>
<feComposite in2="hardAlpha" operator="out"/>
<feColorMatrix type="matrix" values="0 0 0 0 0.366667 0 0 0 0 0.199655 0 0 0 0 0.113056 0 0 0 0.3 0"/>
<feBlend mode="normal" in2="BackgroundImageFix" result="effect1_dropShadow_297_25293"/>
<feBlend mode="normal" in="SourceGraphic" in2="effect1_dropShadow_297_25293" result="shape"/>
</filter>
<filter id="filter1_d_297_25293" x="10" y="227" width="140.667" height="86" filterUnits="userSpaceOnUse" color-interpolation-filters="sRGB">
<feFlood flood-opacity="0" result="BackgroundImageFix"/>
<feColorMatrix in="SourceAlpha" type="matrix" values="0 0 0 0 0 0 0 0 0 0 0 0 0 0 0 0 0 0 127 0" result="hardAlpha"/>
<feOffset dx="4" dy="6"/>
<feComposite in2="hardAlpha" operator="out"/>
<feColorMatrix type="matrix" values="0 0 0 0 0.366667 0 0 0 0 0.199655 0 0 0 0 0.113056 0 0 0 0.3 0"/>
<feBlend mode="normal" in2="BackgroundImageFix" result="effect1_dropShadow_297_25293"/>
<feBlend mode="normal" in="SourceGraphic" in2="effect1_dropShadow_297_25293" result="shape"/>
</filter>
</defs>
</svg>
