<svg width="174" height="200" viewBox="0 0 174 200" fill="none" xmlns="http://www.w3.org/2000/svg">
<rect width="174" height="200" fill="white" fill-opacity="0.05"/>
<g clip-path="url(#clip0_622_49917)">
<g filter="url(#filter0_d_622_49917)">
<path d="M97.6165 69.0818C98.0078 72.3889 98.3992 75.7467 98.7931 79.112C99.182 82.4622 99.5658 85.8225 99.9445 89.1169C100.386 92.3987 100.765 95.6425 101.307 98.747C101.754 101.867 102.417 104.829 102.974 107.65C103.29 109.048 103.672 110.39 104 111.699C104.064 111.965 104.143 112.226 104.204 112.484C104.197 112.487 104.182 112.492 104.174 112.494C103.672 112.629 103.175 112.753 102.675 112.869C102.341 112.854 102.011 112.847 101.675 112.824C101.636 112.659 101.593 112.505 101.552 112.333C101.236 110.986 100.867 109.606 100.571 108.167C100.044 105.286 99.4235 102.25 99.0224 99.0893C98.5304 95.9341 98.2049 92.6726 97.8111 89.3579C97.4854 86.0457 97.1496 82.6778 96.8162 79.3175C96.4753 75.9597 96.1344 72.602 95.8037 69.2999C95.3923 66.008 95.0617 62.7566 94.5673 59.6445C94.3315 58.0846 94.1285 56.5475 93.8701 55.0459C93.5965 53.5494 93.3281 52.0934 93.0622 50.6703C92.9344 49.9612 92.7989 49.2548 92.6711 48.5711C92.5181 47.8874 92.36 47.2138 92.2146 46.5529C91.906 45.2286 91.6127 43.9498 91.3271 42.7192C91.0642 41.4809 90.7283 40.3262 90.4076 39.2172C90.0894 38.1157 89.7891 37.0674 89.5091 36.0798C88.9869 34.092 88.3518 32.4208 87.8714 31.0358C86.8929 28.2631 86.3363 26.6754 86.3363 26.6754L86.3261 26.645C86.2269 26.3488 86.3727 26.0297 86.6654 25.9233C86.9606 25.8245 87.2716 25.9738 87.3833 26.2574C87.3833 26.2574 87.9753 27.8501 89.0069 30.6304C89.5227 32.0205 90.1881 33.7069 90.7456 35.6997C91.0433 36.6898 91.3689 37.7381 91.7073 38.8497C92.0532 39.9588 92.4094 41.1236 92.69 42.3644C92.9933 43.5976 93.3144 44.8839 93.6432 46.2184C93.8063 46.8818 93.9745 47.5604 94.1376 48.2492C94.2781 48.9455 94.4211 49.6495 94.5666 50.361C94.8527 51.7943 95.149 53.2579 95.4503 54.762C95.734 56.2636 95.9572 57.8108 96.2208 59.3783C96.7734 62.5131 97.157 65.7721 97.6215 69.0716L97.6165 69.0818Z" fill="#5B3939"/>
<g style="mix-blend-mode:screen" opacity="0.7">
<path d="M95.6569 60.1583C96.0457 62.3512 96.3386 64.5593 96.657 66.894C96.7905 67.8714 96.9164 68.8514 97.0601 69.8339L98.2316 79.849L99.383 89.8539C99.4909 90.6794 99.6013 91.4872 99.7041 92.2975C100.03 94.8069 100.341 97.1695 100.748 99.5169C101.097 101.968 101.58 104.315 102.047 106.592L102.42 108.435C102.629 109.362 102.858 110.248 103.09 111.117C103.215 111.59 103.337 112.056 103.449 112.517L103.49 112.639C103.49 112.639 103.482 112.641 103.485 112.649C103.212 112.715 102.935 112.791 102.67 112.854C102.506 112.842 102.346 112.844 102.182 112.831C102.07 112.371 101.955 111.902 101.838 111.426C101.616 110.537 101.4 109.638 101.206 108.707L100.871 106.901C100.436 104.571 99.9763 102.166 99.6652 99.6766C99.2911 97.3014 99.0231 94.916 98.7346 92.3939C98.6393 91.581 98.5516 90.7656 98.4538 89.9452L97.4615 79.9124L96.4491 69.8948C96.3256 68.8971 96.2072 67.9146 96.0939 66.9473C95.8159 64.6075 95.5584 62.4044 95.2025 60.209C95.1204 59.662 95.0358 59.1075 94.9614 58.558C94.8127 57.5603 94.6766 56.5752 94.5128 55.6079L93.3189 49.1229L92.5868 45.9045L91.9722 43.2381C91.7093 41.9999 91.3759 40.8528 91.0527 39.7361L90.144 36.5684C89.7085 34.9149 89.1977 33.4893 88.7504 32.2283L88.7199 32.1371L88.7555 32.2435C89.2204 33.4817 89.7438 34.8946 90.202 36.5152L91.1687 39.6804C91.5172 40.7971 91.8683 41.9467 92.1463 43.1545L93.6066 49.052L94.9117 55.542C95.0906 56.5043 95.2519 57.4893 95.4107 58.492C95.5003 59.0365 95.5849 59.591 95.6847 60.1405L95.6569 60.1583Z" fill="white"/>
</g>
<g style="mix-blend-mode:screen" opacity="0.4">
<path d="M102.841 112.814C102.76 112.469 102.678 112.125 102.586 111.776C102.367 110.894 102.151 109.995 101.962 109.079C101.962 109.079 101.583 107.043 101.558 106.916C101.581 107.01 101.992 109.043 101.992 109.043C102.206 109.985 102.438 110.879 102.672 111.755C102.764 112.105 102.853 112.447 102.94 112.781C102.909 112.791 102.879 112.801 102.849 112.811L102.841 112.814Z" fill="#5B3939"/>
</g>
<path d="M89.1953 13.3602C89.8796 13.3423 91.3994 18.7131 91.791 23.304C92.1411 27.3937 91.1609 35.0794 89.8652 34.9809C89.0467 34.8747 89.7495 27.3409 89.6419 23.2969C89.5212 19.0122 88.5692 13.4261 89.1953 13.3602Z" fill="#6DC82A"/>
<path d="M107.331 87.8443C108.157 87.9733 108.796 94.7116 108.26 100.28C107.789 105.236 104.938 114.198 103.424 113.801C102.472 113.495 104.952 104.657 105.701 99.8021C106.49 94.6639 106.571 87.7862 107.331 87.8443Z" fill="#6DC82A"/>
<path d="M103.409 113.756C103.098 113.378 106.039 101.843 106.196 99.8476L106.314 98.3384C106.446 96.5961 106.564 94.8589 106.704 93.1142C106.805 91.9062 107.144 87.8646 107.328 87.9127C107.556 87.9633 107.96 92.4403 108.022 94.1851C108.092 96.0792 108.101 97.9936 107.916 99.8802C107.906 100.027 107.886 100.169 107.869 100.318C107.423 104.117 104.324 113.973 103.399 113.751L103.409 113.756Z" fill="white"/>
<path d="M82.1756 22.6702C83.3027 24.1767 85.9103 27.0377 87.6047 28.101C87.7438 28.1896 87.9152 28.0478 87.8542 27.8908C86.9653 25.6372 85.1481 22.7482 84.5197 21.8012C82.2645 18.4337 77.8704 12.8254 76.9261 12.9218C76.5699 13.9703 80.6913 20.7004 82.1781 22.6778L82.1756 22.6702Z" fill="#6DC82A"/>
<path d="M110.467 114.469C110.27 117.001 109.36 122.129 108.201 124.553C108.108 124.753 107.808 124.71 107.762 124.497C107.146 121.299 107.131 116.7 107.173 115.166C107.314 109.703 108.273 100.166 109.41 99.5915C110.572 100.521 110.727 111.146 110.467 114.469Z" fill="#6DC82A"/>
<path d="M107.938 124.472C107.534 124.269 107.835 116.794 107.88 115.191C108.007 110.088 108.762 102.208 109.413 99.5992C109.907 102.483 110.017 111.139 109.759 114.418C109.59 116.604 108.431 124.636 107.938 124.472Z" fill="white"/>
<path d="M105.496 97.1256C104.915 99.5922 103.242 104.528 101.727 106.741C101.603 106.926 101.313 106.838 101.307 106.62C101.186 103.366 101.87 98.8204 102.14 97.3111C103.102 91.9374 105.503 82.6611 106.717 82.2633C107.725 83.3621 106.264 93.8867 105.503 97.1231L105.496 97.1256Z" fill="#6DC82A"/>
<path d="M99.3565 62.3583C99.192 64.483 98.4315 68.8007 97.4613 70.8318C97.3834 71.0014 97.1283 70.9686 97.0925 70.7862C96.5713 68.097 96.5575 64.2327 96.59 62.9463C96.7034 58.3552 97.4986 50.3429 98.4546 49.854C99.4311 50.6337 99.5674 59.5677 99.3565 62.3583Z" fill="#6DC82A"/>
<path d="M93.9251 37.9807C94.0278 39.8217 93.8898 43.6101 93.2904 45.4663C93.2403 45.6183 93.0231 45.6234 92.9723 45.4715C92.2222 43.2305 91.7526 39.9158 91.6264 38.8092C91.1907 34.8665 90.9377 27.8977 91.7042 27.3708C92.6323 27.9303 93.7909 35.5675 93.9327 37.9782L93.9251 37.9807Z" fill="#6DC82A"/>
<path d="M87.9717 22.8589C88.2636 24.6619 88.5044 28.3995 88.102 30.2912C88.0696 30.4457 87.8499 30.4685 87.7865 30.3293C86.8119 28.1973 86.0244 24.989 85.7896 23.9103C84.9602 20.074 84.0105 13.2369 84.7137 12.6468C85.682 13.0999 87.5952 20.5014 87.9742 22.8665L87.9717 22.8589Z" fill="#6DC82A"/>
<path d="M87.9051 30.2811C87.5867 30.2103 86.5344 24.9281 86.2869 23.8114C85.5162 20.2258 84.6979 14.5865 84.7087 12.6569C85.549 14.5889 87.0853 20.6129 87.4643 22.9527C87.7153 24.5075 88.2739 30.3266 87.9 30.2913L87.9051 30.2811Z" fill="white"/>
<path d="M102.223 79.4001C101.718 81.5628 100.25 85.8806 98.9188 87.813C98.8131 87.9751 98.5528 87.9017 98.5473 87.7092C98.4374 84.8655 99.0421 80.8871 99.274 79.5678C100.117 74.8676 102.215 66.7487 103.277 66.4016C104.163 67.3637 102.884 76.5688 102.216 79.4026L102.223 79.4001Z" fill="#6DC82A"/>
<path d="M94.693 111.03C96.4699 112.843 100.462 116.195 102.904 117.303C103.104 117.397 103.306 117.169 103.199 116.977C101.614 114.128 98.672 110.594 97.6568 109.447C94.0464 105.35 87.1851 98.6585 85.9433 98.9474C85.6486 100.406 92.3568 108.653 94.6829 111.025L94.693 111.03Z" fill="#6DC82A"/>
<path d="M93.7258 85.2008C94.6267 87.1378 96.8524 90.9207 98.4873 92.4853C98.624 92.617 98.846 92.5005 98.8152 92.308C98.3571 89.6061 97.008 85.9776 96.5305 84.7774C94.8087 80.5133 91.2393 73.2691 90.1733 73.1528C89.5318 74.2291 92.5458 82.6561 93.7308 85.1907L93.7258 85.2008Z" fill="#6DC82A"/>
<path d="M98.6663 92.3411C98.9258 92.06 96.4783 86.2564 95.9755 85.0055C94.373 81.0225 91.4554 75.0215 90.1683 73.163C90.6258 75.5864 93.0883 82.4408 94.2657 84.9527C95.0448 86.6264 98.3235 92.6248 98.6689 92.3487L98.6663 92.3411Z" fill="white"/>
<path d="M92.4838 67.4546C93.2831 69.1638 95.2427 72.5035 96.6828 73.8884C96.8043 73.9998 96.9985 73.901 96.9678 73.7339C96.566 71.3511 95.3744 68.1429 94.9477 67.0946C93.4266 63.3293 90.2782 56.9409 89.3361 56.8423C88.77 57.7921 91.4257 65.2239 92.4712 67.4673L92.4838 67.4546Z" fill="#6DC82A"/>
<path d="M96.8416 73.7592C97.0709 73.5136 94.9103 68.3911 94.4658 67.2896C93.0463 63.7776 90.4736 58.4805 89.3436 56.8398C89.7475 58.977 91.9228 65.0237 92.9581 67.2367C93.6458 68.7129 96.5366 74.0049 96.8416 73.7592Z" fill="white"/>
<path d="M90.1701 49.273C90.9694 50.9821 92.929 54.3219 94.3691 55.7068C94.4905 55.8182 94.6848 55.7194 94.6541 55.5523C94.2523 53.1694 93.0606 49.9612 92.634 48.9129C91.1154 45.1553 87.9645 38.7593 87.0223 38.6607C86.4563 39.6104 89.112 47.0422 90.1575 49.2857L90.1701 49.273Z" fill="#6DC82A"/>
<path d="M94.5279 55.5776C94.7571 55.3319 92.5965 50.2095 92.1521 49.108C90.7326 45.596 88.1599 40.2989 87.0299 38.6582C87.4337 40.7953 89.609 46.8421 90.6444 49.0551C91.3321 50.5313 94.2229 55.8233 94.5279 55.5776Z" fill="white"/>
<path d="M84.6691 32.0823C85.7962 33.5888 88.4038 36.4499 90.0982 37.5131C90.2373 37.6017 90.4087 37.4599 90.3477 37.3029C89.4613 35.0569 87.6416 32.1603 87.0132 31.2133C84.758 27.8458 80.3639 22.2376 79.4196 22.334C79.0634 23.3824 83.1848 30.1125 84.6716 32.0899L84.6691 32.0823Z" fill="#6DC82A"/>
<path d="M96.0228 27.4713C96.7074 27.5547 97.3991 33.0927 97.0938 37.6889C96.8227 41.7837 94.6929 49.229 93.4422 48.9381C92.6487 48.7052 94.4782 41.3688 94.9793 37.3576C95.5102 33.1083 95.4066 27.441 96.0304 27.4687L96.0228 27.4713Z" fill="#6DC82A"/>
<path d="M104.389 53.3246C105.036 53.5473 104.574 59.1083 103.329 63.5376C102.224 67.4806 98.6056 74.326 97.4301 73.7818C96.7019 73.392 100.007 66.5921 101.322 62.7732C102.712 58.7263 103.78 53.1652 104.389 53.3246Z" fill="#6DC82A"/>
<path d="M103.099 36.6928C103.635 36.9611 102.585 41.6967 100.998 45.379C99.5832 48.6485 95.661 54.1342 94.7152 53.5215C94.1359 53.0987 97.7753 47.6232 99.3516 44.4854C101.023 41.1551 102.591 36.4827 103.099 36.6928Z" fill="#6DC82A"/>
<path d="M94.7126 53.4886C94.5881 53.167 99.1327 45.944 99.6853 44.6271L100.1 43.6268C100.579 42.4695 101.042 41.3096 101.514 40.1548C101.843 39.352 102.968 36.6776 103.084 36.7485C103.223 36.8371 102.516 39.9798 102.178 41.1827C101.807 42.4895 101.393 43.7937 100.853 45.0473C100.81 45.1461 100.765 45.2372 100.722 45.336C99.5763 47.8229 95.2917 53.8607 94.7075 53.4987L94.7126 53.4886Z" fill="white"/>
<path d="M80.6464 42.273C80.1474 42.7441 82.8277 47.6335 85.7651 51.1782C88.3784 54.3329 94.4702 59.128 95.3216 58.1503C95.8277 57.4994 90.0463 52.6258 87.287 49.6636C84.3682 46.5266 81.1278 41.8754 80.6438 42.2654L80.6464 42.273Z" fill="#6DC82A"/>
<path d="M86.1965 58.856C85.6064 59.2055 87.1639 64.5636 89.2591 68.6605C91.1285 72.3092 96.0261 78.3149 97.0673 77.5524C97.7 77.0281 93.1181 71.0097 91.0748 67.5206C88.9023 63.8213 86.759 58.5748 86.1965 58.856Z" fill="#6DC82A"/>
<path d="M97.0723 77.5169C97.1977 77.137 91.4371 69.1816 90.7065 67.7029L90.156 66.5862C89.5218 65.2949 88.9026 63.9984 88.2684 62.7071C87.8244 61.8082 86.3353 58.8178 86.2143 58.909C86.058 59.0205 87.1039 62.5731 87.5893 63.9227C88.1154 65.3939 88.6843 66.8676 89.4021 68.2577C89.4554 68.3666 89.5163 68.4729 89.5696 68.5818C91.0632 71.3594 96.4319 77.9677 97.0723 77.5169Z" fill="white"/>
<path d="M88.605 77.6226C88.0149 77.9721 89.5699 83.3226 91.6676 87.4271C93.537 91.0758 98.4345 97.0815 99.4758 96.319C100.108 95.7947 95.5266 89.7763 93.4833 86.2872C91.3183 82.5854 89.1675 77.3414 88.605 77.6226Z" fill="#6DC82A"/>
<path d="M99.4808 96.2836C99.6062 95.9038 93.8456 87.9483 93.115 86.4696L92.5645 85.353C91.9302 84.0616 91.3111 82.7652 90.6769 81.4738C90.2329 80.575 88.7438 77.5846 88.6152 77.6783C88.4589 77.7898 89.5048 81.3424 89.9902 82.692C90.5163 84.1632 91.0853 85.6369 91.8031 87.027C91.8563 87.1358 91.9172 87.2422 91.9705 87.3511C93.4641 90.1287 98.8328 96.737 99.4732 96.2862L99.4808 96.2836Z" fill="white"/>
<path d="M83.6604 109.08C83.2377 109.779 87.9203 114.513 92.4527 117.617C96.4919 120.379 105.043 123.869 105.697 122.476C106.063 121.56 97.8348 117.877 93.7003 115.383C89.3229 112.743 84.0884 108.472 83.6528 109.082L83.6604 109.08Z" fill="#6DC82A"/>
<path d="M82.8995 84.0429C82.3578 84.5874 85.5922 89.9755 89.048 93.8366C92.1266 97.2749 99.1864 102.396 100.103 101.262C100.642 100.507 93.9252 95.2791 90.6957 92.0688C87.2762 88.6685 83.4263 83.5793 82.8995 84.0429Z" fill="#6DC82A"/>
<path d="M100.095 101.214C100.122 100.765 91.5682 93.7703 90.3503 92.3701L89.4313 91.3093C88.3729 90.0838 87.3271 88.8457 86.2638 87.6304C85.5244 86.7797 83.0483 83.9592 82.9324 84.0909C82.7939 84.2555 84.9561 87.8231 85.8657 89.1575C86.8563 90.6083 87.9 92.0414 89.0798 93.3529C89.1734 93.4567 89.2646 93.5529 89.3583 93.6567C91.7808 96.2417 99.5237 101.895 100.088 101.216L100.095 101.214Z" fill="white"/>
<path d="M106.125 70.4325C106.772 70.6552 106.31 76.2162 105.065 80.6454C103.96 84.5884 100.341 91.4339 99.1656 90.8897C98.4374 90.4999 101.738 83.7102 103.058 79.8811C104.448 75.8342 105.516 70.273 106.125 70.4325Z" fill="#6DC82A"/>
<g style="mix-blend-mode:screen">
<path d="M90.5311 29.0223C90.6415 26.4342 90.742 23.9931 90.6594 23.1929L90.5304 21.9521C90.4581 21.2582 90.2517 19.3337 90.2208 19.0653C90.4659 20.2251 90.7292 21.6406 90.8486 23.0789L90.8746 23.4334C90.9714 24.93 90.7801 27.4522 90.4998 29.7085C90.5069 29.4781 90.5215 29.2451 90.5311 29.0223Z" fill="white"/>
</g>
<g style="mix-blend-mode:screen">
<path d="M84.3393 23.5511C83.8227 22.9383 83.3745 22.3788 83.0756 21.9889C82.4829 21.1989 81.6112 19.8772 80.719 18.4441C81.7448 19.7987 82.7657 21.214 83.5766 22.4294C83.5766 22.4294 84.1948 23.346 84.3367 23.5435L84.3393 23.5511Z" fill="white"/>
</g>
<g style="mix-blend-mode:screen">
<path d="M102.508 102.637C102.774 101.044 103.089 99.3673 103.244 98.5214L103.423 97.549C103.962 94.5557 104.85 90.7191 105.686 87.584C105.292 90.9596 104.68 94.8392 104.214 96.8196C103.909 98.1212 103.185 100.56 102.505 102.629L102.508 102.637Z" fill="white"/>
</g>
<g style="mix-blend-mode:screen">
<path d="M97.7003 65.9115C97.7236 65.0505 97.7496 64.2731 97.7586 63.797L97.7795 62.9791C97.8329 60.8747 98.0038 58.2664 98.2283 55.8936C98.2792 58.3348 98.2621 60.8493 98.1466 62.2649C98.0803 63.0981 97.9016 64.501 97.6927 65.914L97.7003 65.9115Z" fill="white"/>
</g>
<g style="mix-blend-mode:screen">
<path d="M92.7373 38.6827C92.5853 37.3482 92.4655 35.7579 92.3737 34.2006C92.5892 35.725 92.7515 37.1405 92.8015 38.0445C92.8252 38.4674 92.8417 39.0701 92.8432 39.7538C92.8328 39.6222 92.7323 38.6928 92.7323 38.6928L92.7373 38.6827Z" fill="white"/>
</g>
<g style="mix-blend-mode:screen">
<path d="M99.8654 83.1712C100.05 82.138 100.225 81.1757 100.334 80.6236L100.492 79.7854C100.901 77.5113 101.541 74.6699 102.184 72.1654C101.842 74.8142 101.393 77.5999 101.033 79.1142C100.818 80.031 100.359 81.6289 99.8705 83.1611L99.8654 83.1712Z" fill="white"/>
</g>
<g style="mix-blend-mode:screen">
<path d="M100.104 114.195C98.4522 112.779 96.5644 111.063 95.6304 110.108C94.2104 108.657 91.6707 105.647 89.5787 102.968C91.9222 105.217 94.6686 108.04 96.6865 110.321L97.3447 111.055C97.9219 111.698 99.0536 112.967 100.112 114.192L100.104 114.195Z" fill="white"/>
</g>
<g style="mix-blend-mode:screen">
<path d="M96.5301 87.9705C95.8328 86.7172 95.1684 85.4613 94.8131 84.7016C94.2142 83.4153 93.3074 81.0579 92.4915 78.7461C93.5393 80.8958 94.6256 83.2861 95.4078 85.246L95.7176 85.9955C95.9004 86.4411 96.2025 87.1678 96.5225 87.973L96.5301 87.9705Z" fill="white"/>
</g>
<g style="mix-blend-mode:screen">
<path d="M94.4212 68.7661C94.0433 68.0647 93.7186 67.4216 93.5131 66.9835C93.0969 66.0922 92.5102 64.616 91.9385 63.0334C92.6642 64.573 93.3723 66.1606 93.9183 67.5152C93.9183 67.5152 94.3373 68.5408 94.4287 68.7636L94.4212 68.7661Z" fill="white"/>
</g>
<g style="mix-blend-mode:screen">
<path d="M86.8327 32.9632C86.3162 32.3505 85.868 31.7909 85.5691 31.401C84.9764 30.611 84.1047 29.2893 83.2125 27.8562C84.2383 29.2108 85.2592 30.6262 86.0701 31.8415C86.0701 31.8415 86.6883 32.7581 86.8302 32.9556L86.8327 32.9632Z" fill="white"/>
</g>
<g style="mix-blend-mode:screen">
<path d="M94.9797 43.1441C95.4766 40.6041 95.9384 38.211 95.9795 37.4032L96.0423 36.1573C96.0787 35.4609 96.1627 33.5237 96.1747 33.2578C96.243 34.4429 96.2867 35.8812 96.1965 37.3221L96.1695 37.669C96.0365 39.1581 95.4713 41.6196 94.8499 43.8127C94.8999 43.5847 94.9423 43.3594 94.9772 43.1365L94.9797 43.1441Z" fill="white"/>
</g>
<g style="mix-blend-mode:screen">
<path d="M100.14 68.4483C101.145 66.0678 102.102 63.8215 102.305 63.044L102.626 61.8386C102.798 61.1725 103.282 59.296 103.352 59.0276C103.172 60.2026 102.923 61.6207 102.53 63.011L102.432 63.3479C101.993 64.7787 100.933 67.0681 99.8817 69.084C99.9696 68.8687 100.06 68.6611 100.151 68.4534L100.14 68.4483Z" fill="white"/>
</g>
<g style="mix-blend-mode:screen">
<path d="M91.1827 54.8391C89.3966 53.4264 87.4938 51.7656 86.5164 50.6313L86.2911 50.3604C85.3643 49.2514 84.5585 48.0512 83.9224 47.0562C84.0972 47.2764 85.2951 48.7931 85.7281 49.3324L86.5081 50.3046C87.0121 50.93 88.7987 52.5959 90.6892 54.3707C90.8486 54.5201 91.0181 54.6745 91.1902 54.8366L91.1827 54.8391Z" fill="white"/>
</g>
<g style="mix-blend-mode:screen">
<path d="M96.1557 92.1843C94.7199 90.4095 93.2228 88.3763 92.5127 87.0597L92.3504 86.7507C91.6909 85.4594 91.1601 84.125 90.7611 83.0083C90.8728 83.2413 91.7176 84.9858 92.0322 85.6239L92.5827 86.7406C92.943 87.4647 94.3163 89.4802 95.7706 91.6121C95.8998 91.797 96.0316 91.9894 96.1633 92.1818L96.1557 92.1843Z" fill="white"/>
</g>
<g style="mix-blend-mode:screen">
<path d="M101.976 120.993C99.0465 119.913 95.0398 118.128 93.0697 116.844L92.7206 116.607C91.0615 115.472 89.5534 114.161 88.4223 113.146C88.1667 112.91 87.8529 112.627 87.5163 112.3C87.5719 112.341 87.6276 112.381 87.6832 112.422C88.4092 112.93 89.1301 113.449 89.8434 113.971C90.5187 114.454 91.1865 114.941 91.8669 115.414L93.081 116.275C93.8626 116.824 96.444 118.148 99.1871 119.553C100.062 120.003 101.056 120.507 101.983 120.991L101.976 120.993Z" fill="white"/>
</g>
<g style="mix-blend-mode:screen">
<path d="M96.5517 98.7001C94.1742 97.0546 91.2219 94.7482 89.8068 93.2367L89.541 92.9455C88.2777 91.5352 87.1808 89.9933 86.3725 88.8108C86.2585 88.6463 86.1343 88.4513 85.9949 88.2361C86.4785 88.8007 86.9622 89.3653 87.4458 89.9299C87.9547 90.5199 88.4662 91.1174 88.9751 91.7073L89.8942 92.7682C90.4841 93.4493 92.559 95.2468 94.7603 97.1456C95.3195 97.6342 95.9445 98.1684 96.5517 98.7001Z" fill="white"/>
</g>
<g style="mix-blend-mode:screen">
<path d="M101.873 85.5488C102.878 83.1683 103.835 80.9219 104.038 80.1445L104.359 78.9391C104.539 78.2705 105.015 76.3965 105.085 76.1281C104.905 77.3031 104.656 78.7212 104.263 80.1115L104.165 80.4483C103.726 81.8792 102.666 84.1686 101.607 86.187C101.695 85.9718 101.785 85.7641 101.876 85.5564L101.873 85.5488Z" fill="white"/>
</g>
<path d="M84.0962 26.6228C83.0709 24.3895 80.869 17.7603 81.7622 17.4107C82.5394 17.1168 85.5137 22.5075 86.9877 25.503C89.4714 30.5595 92.3952 38.1635 91.3456 38.5739C90.5129 38.8779 86.568 32.0212 84.0936 26.6152L84.0962 26.6228Z" fill="#6DC82A"/>
<path d="M90.0055 35.6013C88.5632 33.2035 86.6282 29.5852 85.0674 26.1795C84.4406 24.8097 83.4825 22.1484 82.8336 19.9581C83.8072 21.6343 84.9941 23.8726 86.0292 25.9844C87.6934 29.3723 89.1563 33.0388 90.008 35.6089L90.0055 35.6013Z" fill="white"/>
<path d="M87.0844 30.3193C86.4957 27.9314 85.5508 21.0083 86.4949 20.8359C87.3153 20.6965 89.2376 26.5407 90.1313 29.7641C91.6309 35.2007 93.0959 43.2 91.9979 43.4154C91.127 43.5549 88.5192 36.0901 87.0844 30.3193Z" fill="#6DC82A"/>
<path d="M91.2306 40.2427C90.26 37.6194 89.0239 33.6996 88.1268 30.0634C87.7649 28.6049 87.3192 25.8143 87.0868 23.5353C87.7324 25.3635 88.4903 27.7792 89.1142 30.0455C90.1198 33.6791 90.8811 37.5636 91.2382 40.2401L91.2306 40.2427Z" fill="white"/>
<path d="M85.3047 39.6157C83.9743 37.5521 80.8389 31.303 81.6762 30.8369C82.4102 30.4392 86.1133 35.341 88.0034 38.0958C91.1858 42.7496 95.1691 49.8469 94.1854 50.4042C93.4086 50.8247 88.5232 44.6037 85.3022 39.6081L85.3047 39.6157Z" fill="#6DC82A"/>
<path d="M92.4317 47.6544C90.6641 45.4921 88.2273 42.1854 86.1974 39.0381C85.3789 37.7747 84.055 35.2781 83.0983 33.1992C84.2987 34.7234 85.7958 36.7566 87.1285 38.7012C89.2568 41.8155 91.2343 45.2337 92.4418 47.6594L92.4317 47.6544Z" fill="white"/>
<path d="M93.6292 46.73C93.5984 44.2737 94.2595 37.3198 95.2193 37.3703C96.0528 37.4208 96.5893 43.5514 96.7281 46.8839C96.9555 52.5182 96.5596 60.6419 95.4332 60.5965C94.5542 60.5359 93.7132 52.6657 93.6367 46.7275L93.6292 46.73Z" fill="#6DC82A"/>
<path d="M95.4031 57.3375C95.0559 54.5647 94.7437 50.4624 94.6948 46.7197C94.6712 45.2155 94.8745 42.4021 95.1649 40.1255C95.3738 42.0576 95.5613 44.5797 95.6549 46.9221C95.8048 50.6901 95.6622 54.6405 95.4005 57.3299L95.4031 57.3375Z" fill="white"/>
<path d="M92.5714 63.7422C91.8817 61.3797 90.649 54.5022 91.5804 54.2918C92.3957 54.1119 94.5603 59.875 95.5902 63.0528C97.3195 68.421 99.1253 76.3569 98.0324 76.6129C97.1666 76.7928 94.2434 69.4421 92.5714 63.7422Z" fill="#6DC82A"/>
<path d="M97.1264 73.4781C96.0448 70.9004 94.6421 67.0364 93.591 63.4432C93.166 61.9974 92.6017 59.2297 92.2734 56.9659C92.9946 58.7687 93.851 61.1515 94.5732 63.3848C95.7329 66.9754 96.6582 70.8218 97.1264 73.4781Z" fill="white"/>
<path d="M92.4826 71.4252C91.8005 69.0601 90.6158 62.175 91.5497 61.9723C92.3676 61.7999 94.5018 67.5732 95.5091 70.7586C97.2081 76.1369 98.9659 84.0804 97.8705 84.3288C97.0022 84.5012 94.1243 77.1352 92.4902 71.4227L92.4826 71.4252Z" fill="#6DC82A"/>
<path d="M96.9821 81.1965C95.9156 78.6138 94.5356 74.7422 93.5073 71.1414C93.0899 69.693 92.5483 66.9177 92.23 64.659C92.9437 66.4644 93.785 68.8522 94.4921 71.0906C95.629 74.6888 96.5291 78.5352 96.9846 81.2041L96.9821 81.1965Z" fill="white"/>
<path d="M98.4544 72.2396C98.8379 69.8136 100.666 63.0773 101.604 63.2873C102.417 63.4796 101.908 69.6053 101.476 72.9177C100.744 78.5015 98.9813 86.4406 97.8747 86.2028C97.0131 85.9928 97.5206 78.102 98.4519 72.232L98.4544 72.2396Z" fill="#6DC82A"/>
<path d="M98.4079 82.9917C98.5329 80.196 98.9253 76.1113 99.5054 72.4115C99.7419 70.9301 100.415 68.1875 101.09 66.002C100.97 67.9342 100.728 70.4564 100.42 72.7811C99.9288 76.5188 99.1192 80.3884 98.4079 82.9917Z" fill="white"/>
<path d="M104.435 80.2986C105.627 78.151 109.66 72.4677 110.467 72.9918C111.16 73.4525 108.589 79.0266 107.037 81.9872C104.43 86.9738 100.043 93.8143 99.09 93.2042C98.3515 92.708 101.54 85.4828 104.427 80.3011L104.435 80.2986Z" fill="#6DC82A"/>
<path d="M100.7 90.3677C101.775 87.7947 103.549 84.0922 105.368 80.8226C106.1 79.5133 107.673 77.1706 109.053 75.3572C108.274 77.13 107.186 79.4118 106.097 81.491C104.352 84.8289 102.266 88.1795 100.7 90.3677Z" fill="white"/>
<path d="M97.2711 85.0785C97.0888 82.6222 97.3206 75.6431 98.2777 75.6354C99.1111 75.6352 100.026 81.7151 100.365 85.0399C100.935 90.6438 101.042 98.7852 99.9208 98.8056C99.0344 98.7982 97.7138 91.004 97.2711 85.0785Z" fill="#6DC82A"/>
<path d="M99.7014 95.5594C99.1775 92.8119 98.6229 88.7401 98.3417 85.0075C98.2272 83.5084 98.2588 80.6849 98.4026 78.3982C98.7302 80.3075 99.0742 82.8195 99.3093 85.1567C99.6889 88.907 99.7913 92.8599 99.6938 95.5619L99.7014 95.5594Z" fill="white"/>
<path d="M99.1166 89.3349C99.2475 86.8836 100.376 79.993 101.331 80.1043C102.157 80.2079 102.287 86.3563 102.193 89.699C102.042 95.3334 101.1 103.412 99.9814 103.288C99.1074 103.166 98.7941 95.2631 99.1166 89.3349Z" fill="#6DC82A"/>
<path d="M100.174 100.039C100.013 97.2456 99.9788 93.1433 100.183 89.4005C100.262 87.9039 100.655 85.1031 101.1 82.8594C101.177 84.8017 101.198 87.3289 101.133 89.6738C101.03 93.4419 100.62 97.3721 100.181 100.036L100.174 100.039Z" fill="white"/>
<path d="M95.288 97.1123C94.298 94.8587 92.1946 88.1966 93.103 87.8673C93.8852 87.5886 96.7713 93.0173 98.1973 96.0457C100.603 101.145 103.403 108.782 102.351 109.185C101.51 109.466 97.6741 102.556 95.288 97.1123Z" fill="#6DC82A"/>
<path d="M102.309 108.785C102.327 108.914 102.166 108.985 102.087 108.876C100.814 107.233 97.8414 101.723 95.7345 96.9122C94.841 94.8713 93.371 90.278 92.9875 88.1762C92.9466 87.9534 93.2418 87.8293 93.3735 88.0217C94.4327 89.6016 96.3551 93.2579 97.7584 96.2433C100.085 101.183 102.045 106.812 102.317 108.782L102.309 108.785Z" fill="white"/>
<path d="M101.051 106.182C99.6441 103.764 97.7645 100.11 96.2618 96.6764C95.6577 95.299 94.7451 92.6225 94.1264 90.4221C95.0722 92.116 96.2288 94.3645 97.2286 96.4965C98.8349 99.9122 100.247 103.604 101.051 106.182Z" fill="white"/>
<path d="M95.6559 107.971C94.3179 105.91 91.1774 99.6708 92.0123 99.1971C92.7437 98.7918 96.4619 103.689 98.3546 106.451C101.542 111.095 105.533 118.189 104.559 118.752C103.782 119.172 98.8844 112.964 95.6559 107.971Z" fill="#6DC82A"/>
<path d="M104.455 118.364C104.496 118.486 104.342 118.58 104.246 118.493C102.72 117.078 98.9128 112.118 96.0543 107.702C94.8379 105.829 92.6615 101.539 91.9448 99.5238C91.8711 99.3035 92.1434 99.1363 92.3004 99.3034C93.5965 100.686 96.0763 103.995 97.9461 106.714C101.035 111.214 103.867 116.458 104.452 118.357L104.455 118.364Z" fill="white"/>
<path d="M102.795 115.997C101.02 113.837 98.5835 110.531 96.546 107.386C95.7275 106.122 94.3961 103.628 93.4318 101.552C94.6398 103.074 96.1368 105.107 97.467 107.044C99.6029 110.156 101.58 113.574 102.793 115.989L102.795 115.997Z" fill="white"/>
<path d="M101.548 108.246C101.038 105.84 100.328 98.889 101.274 98.7495C102.095 98.6354 103.828 104.543 104.61 107.787C105.931 113.266 107.136 121.319 106.023 121.489C105.141 121.598 102.783 114.049 101.546 108.238L101.548 108.246Z" fill="#6DC82A"/>
<path d="M105.359 118.298C104.472 115.647 103.374 111.689 102.593 108.023C102.277 106.549 101.927 103.743 101.763 101.467C102.348 103.315 103.022 105.759 103.576 108.04C104.458 111.707 105.098 115.606 105.359 118.298Z" fill="white"/>
<path d="M58.6116 27.2201C58.9447 27.1086 59.3113 27.2985 59.4156 27.6353L59.4283 27.6732C59.4283 27.6732 60.0107 29.4888 61.0406 32.6666C61.5543 34.2518 62.137 36.1939 63.0257 38.3462C63.4473 39.43 63.8994 40.5795 64.3643 41.7924C64.8292 43.0053 65.3245 44.284 65.936 45.583C66.5249 46.8895 67.139 48.2467 67.7685 49.6495C68.0883 50.3534 68.4106 51.065 68.7456 51.7891C69.1007 52.4981 69.4685 53.2198 69.8388 53.949C70.5795 55.4075 71.3355 56.9115 72.1193 58.4485C72.9157 59.9728 73.7904 61.5046 74.65 63.0669C76.3364 66.2193 78.278 69.3792 80.1641 72.6253C82.131 75.8359 84.1309 79.0946 86.1307 82.3533C88.1406 85.617 90.1582 88.8783 92.1352 92.0939C94.0593 95.3526 96.0109 98.5176 97.7252 101.703C99.5379 104.83 101.058 107.988 102.562 110.947C103.282 112.446 103.894 113.948 104.534 115.381C105.174 116.814 105.788 118.197 106.253 119.587C107.239 122.332 108.207 124.821 108.768 127.176C109.382 129.488 110.023 131.529 110.236 133.172C110.617 135.317 110.896 136.854 111.044 137.674C109.966 137.773 108.893 137.862 107.815 137.961C107.679 137.103 107.441 135.662 107.121 133.699C106.766 131.808 106.343 130.142 105.8 127.941C105.323 125.736 104.413 123.295 103.5 120.618C103.081 119.263 102.494 117.914 101.895 116.501C101.291 115.098 100.712 113.619 100.039 112.138C98.6108 109.203 97.1719 106.086 95.4274 102.962C93.7864 99.7943 91.8953 96.6091 90.0369 93.3453C88.1103 90.1043 86.1534 86.8228 84.2014 83.5312C82.247 80.232 80.2925 76.9327 78.371 73.6816C76.5251 70.3798 74.6289 67.1794 72.9752 63.9738C72.1382 62.3786 71.2811 60.8239 70.5024 59.2768C69.7438 57.7145 68.9979 56.1902 68.2799 54.6988C67.9221 53.9569 67.5593 53.2252 67.2067 52.4985C66.8843 51.7616 66.567 51.04 66.2598 50.3234C65.6455 48.8902 65.0489 47.5102 64.4727 46.191C63.8738 44.8794 63.3961 43.5779 62.9488 42.3422C62.494 41.1091 62.0595 39.9367 61.6505 38.8403C60.7844 36.6551 60.2345 34.685 59.7384 33.0771C58.7539 29.8587 58.1967 28.0179 58.1967 28.0179C58.0949 27.6887 58.2785 27.3316 58.6116 27.2201Z" fill="#5B3939"/>
<g style="mix-blend-mode:screen" opacity="0.7">
<path d="M109.993 133.929C109.838 132.714 109.444 131.308 108.993 129.685C108.845 129.143 108.69 128.579 108.537 127.996C108.086 126.069 107.347 124.036 106.556 121.876L106.04 120.461C105.593 119.124 105.009 117.807 104.39 116.409L104.354 116.303C104.121 115.807 103.897 115.29 103.674 114.773C103.263 113.821 102.839 112.857 102.38 111.887L101.446 110.028C100.239 107.628 98.9956 105.147 97.5734 102.683C96.2725 100.28 94.8858 97.948 93.4105 95.4767C92.934 94.6817 92.4574 93.8866 91.9833 93.0738L85.9839 83.3484L80.0073 73.6153C79.4343 72.6329 78.8665 71.6657 78.3011 70.7061C76.9424 68.407 75.6622 66.2421 74.4703 64.0139C74.1685 63.4644 73.8642 62.9074 73.5549 62.3605C73.0021 61.3629 72.4519 60.3728 71.937 59.3879L68.5608 52.7209L67.0152 49.3102L65.7411 46.4844C65.1245 45.1956 64.6393 43.9219 64.1694 42.6939L62.8105 39.2122C62.0665 37.4169 61.5451 35.7837 61.0797 34.3429L61.0467 34.2441L61.0874 34.3657C61.5199 35.809 62.0135 37.4347 62.7196 39.2173L64.023 42.7344C64.4829 43.9827 64.9428 45.2564 65.5316 46.5376L68.2707 52.8603L71.5486 59.6108C72.0484 60.6008 72.586 61.6035 73.1262 62.6138C73.4203 63.1658 73.7171 63.7254 74.0138 64.2849C75.1704 66.5334 76.4178 68.7261 77.7413 71.0455C78.294 72.0178 78.8467 72.9901 79.4045 73.9776L85.2223 83.8145L91.0578 93.6286C91.5268 94.4515 91.9882 95.2516 92.4497 96.0517C93.8796 98.5382 95.2283 100.883 96.4661 103.273C97.8327 105.722 99.0151 108.173 100.154 110.545L101.083 112.465C101.535 113.437 101.933 114.402 102.322 115.336C102.535 115.847 102.746 116.351 102.954 116.848L103.015 116.979C103.606 118.369 104.165 119.686 104.587 121.023L105.073 122.423C105.81 124.55 106.506 126.556 106.907 128.407L107.029 128.898C107.518 130.863 107.898 132.425 108.236 134.188L108.825 137.834L110.673 137.672L110.003 133.909L109.993 133.929Z" fill="white"/>
</g>
<g style="mix-blend-mode:screen" opacity="0.4">
<path d="M109.504 134.608C109.348 133.41 108.968 132.025 108.525 130.425C108.375 129.875 108.22 129.311 108.064 128.721C107.613 126.819 106.879 124.801 106.106 122.669L105.588 121.246C105.145 119.924 104.574 118.62 103.96 117.237L103.924 117.131C103.691 116.635 103.467 116.118 103.242 115.594C102.833 114.65 102.419 113.69 101.955 112.73C101.955 112.73 100.899 110.634 100.831 110.505C100.882 110.606 101.899 112.715 101.899 112.715C102.358 113.71 102.76 114.683 103.151 115.625C103.364 116.136 103.572 116.632 103.78 117.129L103.844 117.268C104.446 118.688 105.014 120.01 105.439 121.38L105.917 122.758C106.662 124.907 107.363 126.928 107.769 128.82L107.884 129.288C108.378 131.293 108.763 132.846 109.095 134.618L109.587 137.647L110.044 137.604L109.504 134.583L109.504 134.608Z" fill="#5B3939"/>
</g>
<path d="M107.802 137.974C107.784 137.769 108.486 137.525 109.387 137.426C110.281 137.33 111.028 137.426 111.046 137.631C111.065 137.836 110.363 138.08 109.462 138.179C108.568 138.275 107.82 138.179 107.802 137.974Z" fill="#D32833"/>
<path d="M47.683 17.6578C47.0527 18.1138 49.3741 23.9933 52.1796 28.4016C54.6709 32.3236 60.8392 38.5798 61.9381 37.6122C62.6008 36.9512 56.7884 30.6519 54.1082 26.9198C51.2734 22.9775 48.2908 17.2855 47.683 17.6578Z" fill="#6DC82A"/>
<path d="M82.5151 97.2819C81.8601 97.9657 85.9102 104.483 90.2189 109.132C94.0465 113.274 102.773 119.4 103.868 117.995C104.515 117.06 96.2077 110.802 92.2039 106.938C87.9572 102.852 83.1628 96.7018 82.5227 97.2793L82.5151 97.2819Z" fill="#6DC82A"/>
<path d="M60.4113 21.2284C60.4288 23.3682 60.0471 27.7365 59.2488 29.8537C59.1811 30.0284 58.926 30.0209 58.8801 29.8335C58.1317 27.195 57.7846 23.3409 57.706 22.0494C57.4254 17.4634 57.5335 9.38538 58.449 8.82557C59.491 9.52429 60.3898 18.4226 60.4189 21.2259L60.4113 21.2284Z" fill="#6DC82A"/>
<path d="M90.5416 104.386C92.7604 106.212 97.662 109.513 100.548 110.464C100.786 110.545 100.987 110.267 100.843 110.062C98.7221 107.046 94.9739 103.418 93.696 102.241C89.1308 98.0582 80.6002 91.334 79.23 91.8179C79.0772 93.4994 87.6244 101.984 90.5314 104.381L90.5416 104.386Z" fill="#6DC82A"/>
<path d="M72.1956 68.8133C73.8083 70.6135 77.4549 73.9883 79.7304 75.1528C79.9225 75.2489 80.1241 75.0463 80.0277 74.859C78.6502 72.0762 76.0084 68.5847 75.0967 67.4453C71.8425 63.3816 65.6176 56.7051 64.4211 56.9281C64.0731 58.3032 70.0917 66.451 72.1981 68.8209L72.1956 68.8133Z" fill="#6DC82A"/>
<path d="M60.3393 43.0974C61.5099 44.8343 64.2422 48.1435 66.0557 49.4119C66.2075 49.5131 66.4042 49.3713 66.3457 49.1966C65.494 46.6518 63.6304 43.3475 62.9815 42.2638C60.6621 38.4024 56.112 31.951 55.0515 32.0018C54.5919 33.144 58.7962 40.8262 60.3317 43.0999L60.3393 43.0974Z" fill="#6DC82A"/>
<path d="M66.2094 49.2421C66.4158 48.9281 63.1665 43.697 62.4846 42.5652C60.3199 38.9646 56.5829 33.6095 55.0591 31.9993" fill="white"/>
<path d="M55.3194 25.3823C56.2933 27.2104 58.6549 30.7451 60.3122 32.1755C60.4514 32.2894 60.6632 32.1678 60.6199 31.9881C60.0307 29.3976 58.5355 25.9616 58.0052 24.8297C56.1172 20.7987 52.2811 13.99 51.2354 13.9345C50.6697 15.0108 54.0337 22.9996 55.3119 25.3848L55.3194 25.3823Z" fill="#6DC82A"/>
<path d="M81.3158 86.1526C83.2563 87.7502 87.5484 90.6387 90.0756 91.4739C90.2828 91.5397 90.4641 91.3016 90.3374 91.1244C88.4779 88.4861 85.208 85.3061 84.0819 84.2807C80.0887 80.6249 72.6231 74.7437 71.4245 75.1618C71.2864 76.6356 78.7706 84.0564 81.3158 86.1526Z" fill="#6DC82A"/>
<path d="M109.837 109.493C109.479 112.349 108.184 118.113 106.741 120.792C106.623 121.018 106.281 120.954 106.248 120.704C105.717 117.055 105.943 111.843 106.07 110.111C106.513 103.94 108.093 93.1899 109.417 92.5946C110.683 93.7086 110.303 105.755 109.837 109.493Z" fill="#6DC82A"/>
<path d="M92.9664 85.5479C93.4819 87.918 94.0738 92.8559 93.6755 95.3883C93.6456 95.601 93.3579 95.6466 93.2615 95.4593C91.8184 92.7069 90.5387 88.5061 90.1516 87.0982C88.7716 82.0693 87.0114 73.0875 87.901 72.2492C89.2229 72.7782 92.2902 82.4459 92.9664 85.5479Z" fill="#6DC82A"/>
<path d="M81.8952 68.6923C82.3494 70.7789 82.8744 75.1394 82.5284 77.3755C82.4985 77.5629 82.2511 77.6034 82.1624 77.4388C80.8867 75.0106 79.7571 71.3086 79.4159 70.0628C78.2013 65.6289 76.643 57.7031 77.4292 56.9585C78.5945 57.4217 81.3007 65.9601 81.8952 68.6923Z" fill="#6DC82A"/>
<path d="M82.291 77.3704C81.9146 77.3021 80.3377 71.2071 79.9863 69.9056C78.8506 65.7579 77.5303 59.2223 77.4217 56.9609C78.5226 59.1689 80.7202 66.1121 81.3071 68.8215C81.7001 70.6244 82.7254 77.3855 82.291 77.3704Z" fill="white"/>
<path d="M71.4882 50.7023C71.9424 52.7889 72.4674 57.1494 72.1214 59.3855C72.0915 59.5729 71.8441 59.6134 71.7553 59.4489C70.4796 57.0206 69.35 53.3186 69.0088 52.0728C67.7943 47.6389 66.236 39.7131 67.0222 38.9685C68.1874 39.4317 70.8911 47.9625 71.4957 50.6998L71.4882 50.7023Z" fill="#6DC82A"/>
<path d="M71.884 59.3804C71.5075 59.3121 69.9306 53.2171 69.5792 51.9156C68.4436 47.7679 67.1233 41.2323 67.0146 38.9709C68.1156 41.1789 70.3131 48.1221 70.9001 50.8315C71.293 52.6344 72.3184 59.3955 71.884 59.3804Z" fill="white"/>
<path d="M64.6314 31.4228C64.6488 33.5626 64.2672 37.9308 63.4689 40.048C63.4011 40.2227 63.146 40.2152 63.1002 40.0278C62.3518 37.3893 62.0047 33.5352 61.926 32.2437C61.6455 27.6578 61.7536 19.5797 62.669 19.0199C63.7111 19.7186 64.6099 28.617 64.6389 31.4202L64.6314 31.4228Z" fill="#6DC82A"/>
<path d="M51.2274 35.064C50.668 35.6061 53.8547 41.0778 57.2828 45.0072C60.3414 48.5114 67.3712 53.7696 68.3055 52.6375C68.8619 51.8853 62.1703 46.5308 58.9658 43.2444C55.5715 39.7682 51.7693 34.5955 51.2249 35.0564L51.2274 35.064Z" fill="#6DC82A"/>
<path d="M61.4447 64.133C61.0143 64.7839 65.2523 69.4729 69.4187 72.6147C73.1322 75.4096 81.0928 79.0977 81.7768 77.796C82.1663 76.9476 74.5184 73.0873 70.7045 70.5455C66.6629 67.8519 61.8803 63.5732 61.4447 64.133Z" fill="#6DC82A"/>
<path d="M51.1863 48.2472C50.8922 48.8525 55.0873 52.4071 59.047 54.6297C62.5718 56.6093 69.8726 58.854 70.3068 57.6612C70.5424 56.8813 63.4988 54.449 59.9164 52.6999C56.1217 50.8444 51.4958 47.7128 51.1863 48.2472Z" fill="#6DC82A"/>
<path d="M75.2599 37.8501C76.0354 37.9284 76.9737 44.178 76.7607 49.4022C76.5717 54.0439 74.3685 62.5529 72.9385 62.2543C72.0339 62.0164 73.899 53.6544 74.3483 49.0861C74.8274 44.2544 74.5477 37.835 75.2599 37.8501Z" fill="#6DC82A"/>
<path d="M81.6585 56.6159C82.4259 56.5195 84.7045 62.4219 85.6353 67.5674C86.4613 72.1482 86.1653 80.9226 84.7032 80.9558C83.7738 80.9206 83.7672 72.3487 83.2165 67.7856C82.6298 62.9642 80.9643 56.7553 81.6585 56.6159Z" fill="#6DC82A"/>
<path d="M84.6653 80.9179C84.2909 80.6546 84.021 69.5353 83.6582 67.6969L83.3874 66.3093C83.0707 64.7089 82.7388 63.1136 82.422 61.5133C82.2024 60.4042 81.4945 56.6793 81.6687 56.6717C81.8833 56.659 83.3821 60.5837 83.8781 62.141C84.4172 63.8274 84.9085 65.5468 85.223 67.2915C85.2511 67.4257 85.2716 67.5624 85.2921 67.6992C85.8506 71.2291 85.5541 80.8823 84.6627 80.9103L84.6653 80.9179Z" fill="white"/>
<path d="M92.3724 75.196C93.1475 75.0971 95.4184 81.002 96.3492 86.1475C97.1752 90.7282 96.8793 99.5027 95.4172 99.5359C94.4878 99.5006 94.4811 90.9288 93.9304 86.3657C93.3438 81.5443 91.6783 75.3354 92.3724 75.196Z" fill="#6DC82A"/>
<path d="M101.928 77.0579C102.794 77.1818 103.578 84.2519 103.108 90.1193C102.691 95.3359 99.8408 104.805 98.2439 104.41C97.2381 104.096 99.6996 94.7743 100.41 89.6539C101.156 84.2346 101.127 77.0049 101.928 77.0579Z" fill="#6DC82A"/>
<path d="M71.6366 80.7506C71.2062 81.4015 75.4442 86.0906 79.6105 89.2324C83.3241 92.0273 91.2847 95.7154 91.9687 94.4137C92.3582 93.5653 84.7103 89.7049 80.8963 87.1632C76.8623 84.4671 72.0722 80.1909 71.6366 80.7506Z" fill="#6DC82A"/>
<g style="mix-blend-mode:screen">
<path d="M57.2425 32.6875C55.3686 30.4341 53.6011 28.2972 53.1221 27.5199L52.382 26.3146C51.9714 25.6411 50.8358 23.7573 50.6736 23.499C51.2495 24.717 51.9902 26.1754 52.8646 27.5554L53.0775 27.8896C54.0201 29.2974 55.9189 31.4495 57.7312 33.2926C57.5616 33.0876 57.3919 32.8825 57.2349 32.69L57.2425 32.6875Z" fill="white"/>
</g>
<g style="mix-blend-mode:screen">
<path d="M100.198 115.481C99.2443 114.668 98.2044 113.8 97.2911 113.033C94.5661 110.752 92.0006 108.595 91.2638 107.777L90.1195 106.496C89.4764 105.782 88.8485 105.063 88.2105 104.338C87.5345 103.576 86.8586 102.814 86.1826 102.052C86.0914 101.956 86.0079 101.857 85.9167 101.761C86.2436 102.26 86.5452 102.708 86.801 103.07C87.8119 104.506 89.1773 106.372 90.7544 108.066L91.091 108.417C93.0198 110.407 97.1633 113.506 100.196 115.473L100.198 115.481Z" fill="white"/>
</g>
<g style="mix-blend-mode:screen">
<path d="M59.0704 23.5102C59.1138 22.6087 59.1347 21.7907 59.1335 21.2336C59.1208 20.1143 59.0006 18.3215 58.8272 16.4198C58.8315 18.3443 58.8864 20.3195 58.9861 21.9756C58.9861 21.9756 59.0521 23.2291 59.0679 23.5026L59.0704 23.5102Z" fill="white"/>
</g>
<g style="mix-blend-mode:screen">
<path d="M97.0206 107.294C95.6844 106.044 94.2496 104.75 93.5258 104.097L92.6933 103.345C90.1551 101.018 86.7168 98.1648 83.8075 95.9116C86.4856 98.6815 89.7073 101.768 91.4834 103.226C92.6548 104.186 94.987 105.897 97.018 107.287L97.0206 107.294Z" fill="white"/>
</g>
<g style="mix-blend-mode:screen">
<path d="M76.1221 70.8864C75.5118 70.1192 74.9547 69.4356 74.6128 69.0179L74.0278 68.3013C72.5387 66.4429 70.5867 64.2072 68.7513 62.2197C70.3852 64.4605 72.1302 66.7063 73.1961 67.9039C73.8265 68.6052 74.9503 69.7496 76.112 70.8813L76.1221 70.8864Z" fill="white"/>
</g>
<g style="mix-blend-mode:screen">
<path d="M61.897 42.9223C61.1137 41.6132 60.1355 40.0991 59.1372 38.6255C59.9917 40.1472 60.8181 41.5348 61.3882 42.383C61.6568 42.7831 62.0596 43.3325 62.5282 43.9528C62.4521 43.8262 61.8945 42.9147 61.8945 42.9147L61.897 42.9223Z" fill="white"/>
</g>
<g style="mix-blend-mode:screen">
<path d="M56.8624 25.3642C56.2432 24.0425 55.4721 22.5182 54.6682 21.0217C55.3282 22.541 55.9752 23.921 56.4317 24.7819C56.6372 25.1693 56.9515 25.7061 57.3115 26.3036C57.2734 26.215 56.8624 25.3642 56.8624 25.3642Z" fill="white"/>
</g>
<g style="mix-blend-mode:screen">
<path d="M86.027 87.9296C85.1515 87.1245 84.329 86.3776 83.8584 85.9522L83.1448 85.3041C81.2139 83.5344 78.6863 81.4153 76.3867 79.6001C78.5128 81.7522 80.8411 83.9548 82.2023 85.0789C83.0271 85.7574 84.5398 86.8815 86.0372 87.9346L86.027 87.9296Z" fill="white"/>
</g>
<g style="mix-blend-mode:screen">
<path d="M107.129 116.067C107.651 113.654 108.173 110.81 108.359 109.303C108.647 107.019 108.864 102.562 108.913 98.7102C108.346 102.347 107.803 106.786 107.563 110.22L107.472 111.331C107.393 112.304 107.246 114.228 107.137 116.064L107.129 116.067Z" fill="white"/>
</g>
<g style="mix-blend-mode:screen">
<path d="M92.34 89.9642C92.104 88.3537 91.8403 86.7609 91.6387 85.8316C91.2968 84.2566 90.4951 81.5092 89.6356 78.8656C90.1719 81.5244 90.8325 84.4289 91.469 86.7332L91.7084 87.6245C91.851 88.1512 92.0802 89.0121 92.34 89.9642Z" fill="white"/>
</g>
<g style="mix-blend-mode:screen">
<path d="M81.0422 71.1995C80.8963 70.3107 80.7531 69.5054 80.6382 68.961C80.3984 67.8671 79.9121 66.1376 79.3449 64.317C79.7481 66.2009 80.207 68.1254 80.6399 69.7207C80.6399 69.7207 80.9608 70.9311 81.0347 71.202L81.0422 71.1995Z" fill="white"/>
</g>
<g style="mix-blend-mode:screen">
<path d="M63.2829 33.7069C63.3264 32.8054 63.3472 31.9875 63.346 31.4304C63.3334 30.3111 63.2132 28.5183 63.0397 26.6165C63.0466 28.5487 63.099 30.5163 63.1987 32.1724C63.1987 32.1724 63.2646 33.4259 63.2804 33.6993L63.2829 33.7069Z" fill="white"/>
</g>
<g style="mix-blend-mode:screen">
<path d="M62.9348 48.4882C60.7409 46.5362 58.6761 44.6931 58.0912 44.0019L57.1822 42.9207C56.6682 42.3156 55.2704 40.6294 55.0728 40.3914C55.8254 41.508 56.7653 42.8322 57.8439 44.0677L58.1122 44.3665C59.2565 45.6223 61.4602 47.4527 63.5193 49.0021C63.3169 48.8249 63.1246 48.6527 62.9424 48.4856L62.9348 48.4882Z" fill="white"/>
</g>
<g style="mix-blend-mode:screen">
<path d="M75.6613 74.8419C73.1201 73.3863 70.7154 72.0117 69.9969 71.4497L68.8813 70.5813C68.264 70.0952 66.5386 68.7382 66.2957 68.5408C67.2575 69.4775 68.4621 70.5865 69.7749 71.5662L70.0987 71.8042C71.4747 72.7966 74.0006 74.1306 76.344 75.2216C76.1139 75.0875 75.8863 74.9609 75.6689 74.8394L75.6613 74.8419Z" fill="white"/>
</g>
<g style="mix-blend-mode:screen">
<path d="M62.7124 55.1178C61.1502 54.4749 59.8661 53.9332 59.3655 53.6446C59.3655 53.6446 58.0354 52.8649 57.9014 52.7915C58.3414 53.075 58.7992 53.3611 59.2745 53.6244L59.5729 53.7864C60.3516 54.2015 61.484 54.6673 62.7124 55.1178Z" fill="white"/>
</g>
<g style="mix-blend-mode:screen">
<path d="M74.3951 56.4196C75.0385 53.915 75.608 51.1142 75.7127 49.415L75.732 49.0199C75.7991 47.3841 75.707 45.7507 75.5954 44.4112C75.5911 44.7252 75.5505 46.9182 75.527 47.7032L75.4949 49.1162C75.4717 50.0278 75.0056 52.7603 74.5171 55.6523C74.4747 55.903 74.4324 56.1537 74.3875 56.4221L74.3951 56.4196Z" fill="white"/>
</g>
<g style="mix-blend-mode:screen">
<path d="M95.5653 93.5138C95.6428 90.9283 95.5934 88.0643 95.327 86.388L95.263 85.9955C94.974 84.3774 94.526 82.8125 94.1292 81.5262C94.1904 81.8098 94.6246 83.9622 94.7804 84.7548L95.0512 86.1424C95.2249 87.0388 95.3675 89.8041 95.5206 92.7263C95.5388 92.9821 95.5495 93.2404 95.5627 93.5062L95.5653 93.5138Z" fill="white"/>
</g>
<g style="mix-blend-mode:screen">
<path d="M99.6929 99.6591C100.704 96.5416 101.785 92.429 102.022 90.0941L102.064 89.6408C102.239 87.496 102.163 85.3587 102.076 83.7406C102.066 83.5076 102.047 83.2519 102.027 82.9632C101.97 83.8014 101.924 84.6446 101.878 85.4879C101.83 86.3742 101.781 87.2605 101.723 88.1418L101.623 89.7296C101.559 90.7476 100.92 93.7915 100.24 97.0178C100.07 97.8434 99.8803 98.7601 99.6904 99.6515L99.6929 99.6591Z" fill="white"/>
</g>
<g style="mix-blend-mode:screen">
<path d="M85.8531 91.4596C83.3119 90.004 80.9072 88.6294 80.1913 88.0749L79.0756 87.2066C78.4583 86.7205 76.733 85.3635 76.4901 85.166C77.4519 86.1028 78.6539 87.2041 79.9617 88.194L80.2754 88.4269C81.6514 89.4193 84.1848 90.7508 86.5207 91.8443C86.2906 91.7102 86.063 91.5836 85.8456 91.4621L85.8531 91.4596Z" fill="white"/>
</g>
<path d="M61.3971 26.1104C60.7824 23.3934 58.2225 15.8957 57.1726 16.2049C56.2717 16.481 57.2897 23.3712 58.0229 27.0961C59.2618 33.3633 61.8399 42.2234 63.0715 41.8788C64.0305 41.5747 62.8741 32.6865 61.3921 26.1206L61.3971 26.1104Z" fill="#6DC82A"/>
<path d="M62.2401 38.2628C61.8921 35.1102 61.1519 30.5091 60.2209 26.369C59.8484 24.7028 58.8769 21.649 57.9648 19.2258C58.2399 21.4061 58.7009 24.2421 59.2219 26.8554C60.0521 31.0462 61.2462 35.3686 62.2502 38.2679L62.2401 38.2628Z" fill="white"/>
<path d="M61.24 31.5019C60.1307 28.9419 56.2261 22.0548 55.255 22.5488C54.4175 22.9896 56.6976 29.5757 58.1122 33.0978C60.4917 39.0255 64.6695 47.2572 65.8097 46.6898C66.6951 46.2161 63.9182 37.6929 61.2426 31.5095L61.24 31.5019Z" fill="#6DC82A"/>
<path d="M64.3273 43.2917C63.4037 40.2557 61.8206 35.8776 60.1375 31.9807C59.4623 30.4159 57.9457 27.5952 56.5897 25.3797C57.2662 27.4763 58.2445 30.173 59.24 32.6444C60.8298 36.6147 62.8061 40.6331 64.3298 43.2993L64.3273 43.2917Z" fill="white"/>
<path d="M69.2312 38.6515C69.0153 35.8686 67.5483 28.0896 66.4703 28.2392C65.5413 28.3812 65.5595 35.3526 65.7574 39.1384C66.0823 45.5172 67.3732 54.656 68.638 54.4861C69.6276 54.3239 69.7615 45.3671 69.2387 38.649L69.2312 38.6515Z" fill="#6DC82A"/>
<path d="M68.3317 50.8043C68.4407 47.6339 68.3646 42.9795 68.0344 38.7481C67.9043 37.0515 67.382 33.8811 66.8233 31.3565C66.7853 33.5571 66.8346 36.4211 66.977 39.0851C67.1937 43.3545 67.7643 47.8011 68.3418 50.8094L68.3317 50.8043Z" fill="white"/>
<path d="M66.6169 50.7868C64.9578 48.5461 59.5859 42.7329 58.7516 43.4345C58.0408 44.0525 61.7563 49.947 63.9325 53.0537C67.596 58.2899 73.5338 65.3412 74.5169 64.5307C75.2705 63.8645 70.6268 56.2027 66.6094 50.7894L66.6169 50.7868Z" fill="#6DC82A"/>
<path d="M72.3056 61.5709C70.7135 58.8262 68.1768 54.9193 65.6463 51.5088C64.6331 50.1415 62.5139 47.7337 60.6941 45.8931C61.8297 47.7769 63.3907 50.1772 64.9209 52.3598C67.3733 55.864 70.2146 59.3226 72.298 61.5734L72.3056 61.5709Z" fill="white"/>
<path d="M79.2615 65.4008C78.2631 62.7953 74.6512 55.7511 73.6648 56.1995C72.8146 56.6023 74.8146 63.2821 76.0702 66.8575C78.1974 72.8865 82.017 81.2804 83.1901 80.761C84.0957 80.3228 81.6772 71.6881 79.269 65.3983L79.2615 65.4008Z" fill="#6DC82A"/>
<path d="M81.8414 77.3097C81.0491 74.2381 79.6552 69.7967 78.1336 65.8289C77.5239 64.2337 76.1285 61.3471 74.8733 59.0809C75.4564 61.2004 76.3212 63.9351 77.2132 66.4495C78.6314 70.4857 80.4412 74.5852 81.8489 77.3071L81.8414 77.3097Z" fill="white"/>
<path d="M84.6256 72.2727C83.6121 69.6722 79.9573 62.6508 78.9734 63.1068C78.1233 63.5096 80.1611 70.1768 81.4419 73.7521C83.6071 79.7685 87.4771 88.137 88.6401 87.6126C89.5457 87.1743 87.0716 78.5498 84.6256 72.2727Z" fill="#6DC82A"/>
<path d="M87.2686 84.1689C86.4536 81.105 85.0345 76.6636 83.4927 72.711C82.8754 71.1183 81.4598 68.2469 80.1895 65.9858C80.7878 68.1002 81.6677 70.8298 82.5673 73.3417C84.0158 77.3678 85.8382 81.4546 87.2686 84.1689Z" fill="white"/>
<path d="M79.7954 77.1076C77.7783 75.1809 71.5021 70.3631 70.807 71.204C70.2101 71.9359 74.8709 77.1085 77.5412 79.8049C82.039 84.3395 89.088 90.284 89.9167 89.314C90.5463 88.5288 84.6722 81.7687 79.7979 77.1152L79.7954 77.1076Z" fill="#6DC82A"/>
<path d="M87.2189 86.7618C85.1856 84.3337 82.0288 80.9132 78.9589 77.9788C77.7239 76.804 75.2319 74.7913 73.1274 73.2825C74.5681 74.9459 76.5173 77.0474 78.3878 78.9386C81.3973 81.9692 84.7778 84.901 87.2189 86.7618Z" fill="white"/>
<path d="M79.9397 88.4802C77.3865 87.3665 69.8456 85.0078 69.4741 86.036C69.1655 86.9249 75.3145 90.1802 78.74 91.7876C84.519 94.491 93.1679 97.6447 93.6097 96.4493C93.9308 95.4971 86.0924 91.1683 79.9321 88.4827L79.9397 88.4802Z" fill="#6DC82A"/>
<path d="M90.2249 94.9888C87.4814 93.4066 83.3451 91.2853 79.4598 89.5869C77.9027 88.9085 74.8724 87.8784 72.3758 87.1851C74.2975 88.2483 76.846 89.5494 79.2552 90.6859C83.1206 92.5009 87.3036 94.0828 90.2224 94.9812L90.2249 94.9888Z" fill="white"/>
<path d="M89.6786 87.8731C88.1556 85.536 83.1568 79.4037 82.2794 80.0522C81.5281 80.6246 84.8779 86.7344 86.8625 89.9729C90.2007 95.4192 95.6948 102.83 96.7235 102.08C97.5201 101.468 93.3481 93.5295 89.6812 87.8807L89.6786 87.8731Z" fill="#6DC82A"/>
<path d="M94.6937 98.9839C93.2731 96.148 90.9811 92.0917 88.6699 88.5317C87.7374 87.1036 85.772 84.5768 84.0731 82.6196C85.0876 84.5693 86.5049 87.0684 87.8965 89.3396C90.127 92.9857 92.7489 96.6191 94.6937 98.9839Z" fill="white"/>
<path d="M90.9502 92.9805C89.1449 90.8563 83.395 85.423 82.6113 86.1753C81.9411 86.8389 86.0474 92.4674 88.4253 95.4221C92.4316 100.4 98.8357 107.033 99.7555 106.16C100.461 105.45 95.3104 98.1101 90.9427 92.9831L90.9502 92.9805Z" fill="#6DC82A"/>
<path d="M97.3425 103.352C95.5714 100.726 92.775 96.9991 90.0252 93.7633C88.9187 92.4695 86.6484 90.2136 84.7076 88.4895C85.9667 90.2897 87.6866 92.5862 89.3656 94.6598C92.0449 97.9868 95.1155 101.25 97.3501 103.349L97.3425 103.352Z" fill="white"/>
<path d="M99.7382 97.3547C99.0831 94.6427 96.3971 87.1957 95.3599 87.5175C94.4615 87.8013 95.5957 94.6864 96.3818 98.3935C97.7242 104.643 100.439 113.457 101.663 113.09C102.616 112.771 101.324 103.903 99.7307 97.3572L99.7382 97.3547Z" fill="#6DC82A"/>
<path d="M100.781 109.499C100.385 106.354 99.5739 101.769 98.5696 97.636C98.1669 95.98 97.1499 92.9414 96.1899 90.5258C96.4978 92.7035 97.0042 95.5244 97.5656 98.1325C98.4589 102.311 99.7313 106.615 100.778 109.492L100.781 109.499Z" fill="white"/>
<path d="M106.87 107.394C106.654 104.611 105.202 96.827 104.124 96.9766C103.192 97.111 103.203 104.085 103.393 107.873C103.711 114.255 104.984 123.391 106.251 123.229C107.243 123.074 107.392 114.112 106.87 107.394Z" fill="#6DC82A"/>
<path d="M105.945 119.547C106.057 116.384 105.988 111.727 105.663 107.485C105.533 105.789 105.021 102.624 104.459 100.091C104.421 102.292 104.463 105.159 104.595 107.817C104.812 112.087 105.365 116.531 105.945 119.547Z" fill="white"/>
<path d="M101.745 111.702C100.555 109.178 96.4187 102.427 95.4653 102.949C94.643 103.41 97.1426 109.923 98.6657 113.392C101.237 119.238 105.687 127.328 106.805 126.718C107.672 126.216 104.615 117.787 101.735 111.697L101.745 111.702Z" fill="#6DC82A"/>
<path d="M105.216 123.381C104.194 120.377 102.47 116.055 100.653 112.211C99.9273 110.672 98.3174 107.899 96.8933 105.732C97.6354 107.798 98.7045 110.464 99.7732 112.903C101.497 116.82 103.602 120.77 105.209 123.383L105.216 123.381Z" fill="white"/>
</g>
</g>
<path d="M48.3092 171.15H41.5842L39.9842 176H37.9342L43.7842 158.5H46.2342L52.1342 176H49.9592L48.3092 171.15ZM42.2342 169.35H47.7342L45.1592 161.125H44.8592L42.2342 169.35ZM54.4994 158.5H58.6494V171.8C58.6494 172.817 58.8161 173.533 59.1494 173.95C59.4994 174.367 60.0077 174.575 60.6744 174.575C61.1411 174.575 61.5827 174.492 61.9994 174.325C62.4327 174.158 62.9077 173.875 63.4244 173.475L64.3244 174.85C64.0577 175.083 63.7661 175.292 63.4494 175.475C63.1327 175.658 62.8077 175.817 62.4744 175.95C62.1411 176.067 61.8077 176.158 61.4744 176.225C61.1411 176.292 60.8327 176.325 60.5494 176.325C59.9327 176.325 59.3827 176.242 58.8994 176.075C58.4161 175.925 58.0077 175.675 57.6744 175.325C57.3577 174.975 57.1161 174.517 56.9494 173.95C56.7827 173.367 56.6994 172.65 56.6994 171.8V160.175H54.4994V158.5ZM78.7396 174.425C78.4396 174.692 78.0813 174.942 77.6646 175.175C77.2646 175.408 76.823 175.608 76.3396 175.775C75.8563 175.942 75.348 176.067 74.8146 176.15C74.298 176.25 73.773 176.3 73.2396 176.3C72.2396 176.3 71.3563 176.15 70.5896 175.85C69.823 175.533 69.1813 175.092 68.6646 174.525C68.148 173.942 67.7563 173.25 67.4896 172.45C67.223 171.65 67.0896 170.75 67.0896 169.75C67.0896 168.7 67.2313 167.767 67.5146 166.95C67.8146 166.133 68.2396 165.45 68.7896 164.9C69.3396 164.35 70.0063 163.933 70.7896 163.65C71.573 163.35 72.448 163.2 73.4146 163.2C74.1146 163.2 74.8063 163.292 75.4896 163.475C76.173 163.658 76.773 164.008 77.2896 164.525C77.823 165.025 78.2313 165.725 78.5146 166.625C78.798 167.508 78.898 168.658 78.8146 170.075H69.1396C69.1396 171.575 69.5396 172.7 70.3396 173.45C71.1563 174.183 72.2396 174.55 73.5896 174.55C74.0396 174.55 74.4813 174.5 74.9146 174.4C75.3646 174.283 75.7896 174.15 76.1896 174C76.5896 173.85 76.9396 173.683 77.2396 173.5C77.5563 173.317 77.798 173.15 77.9646 173L78.7396 174.425ZM73.4646 164.85C72.9146 164.85 72.3896 164.908 71.8896 165.025C71.4063 165.142 70.973 165.342 70.5896 165.625C70.223 165.892 69.9146 166.25 69.6646 166.7C69.4313 167.133 69.2813 167.675 69.2146 168.325H76.9896C76.9063 167.225 76.548 166.375 75.9146 165.775C75.298 165.158 74.4813 164.85 73.4646 164.85ZM90.4799 165.425C90.0965 165.292 89.6799 165.183 89.2299 165.1C88.7965 165 88.3632 164.95 87.9299 164.95C86.2965 164.95 85.0799 165.333 84.2799 166.1C83.4799 166.867 83.0799 168.083 83.0799 169.75C83.0799 170.483 83.1965 171.142 83.4299 171.725C83.6632 172.292 83.9965 172.775 84.4299 173.175C84.8632 173.575 85.3799 173.883 85.9799 174.1C86.5965 174.317 87.2715 174.425 88.0049 174.425C88.7882 174.425 89.5466 174.292 90.2799 174.025C91.0299 173.758 91.6549 173.408 92.1549 172.975L93.0299 174.425C92.7965 174.625 92.5049 174.833 92.1549 175.05C91.8049 175.267 91.3965 175.475 90.9299 175.675C90.4799 175.858 89.9715 176.008 89.4049 176.125C88.8549 176.242 88.2549 176.3 87.6049 176.3C86.5215 176.3 85.5632 176.15 84.7299 175.85C83.9132 175.533 83.2299 175.092 82.6799 174.525C82.1299 173.942 81.7132 173.25 81.4299 172.45C81.1465 171.633 81.0049 170.733 81.0049 169.75C81.0049 168.7 81.1465 167.767 81.4299 166.95C81.7299 166.133 82.1549 165.45 82.7049 164.9C83.2549 164.35 83.9215 163.933 84.7049 163.65C85.4882 163.35 86.3632 163.2 87.3299 163.2C88.5632 163.2 89.5632 163.308 90.3299 163.525C91.1132 163.742 91.7715 163.983 92.3049 164.25L92.2799 164.325V167.8H90.4799V165.425ZM95.1451 176V174.325H98.5201V165.175H95.1451V163.5H99.8201L100.22 165.125H100.345C100.912 164.608 101.545 164.167 102.245 163.8C102.945 163.433 103.778 163.25 104.745 163.25C105.312 163.25 105.762 163.358 106.095 163.575C106.445 163.792 106.712 164.108 106.895 164.525C107.095 164.942 107.228 165.45 107.295 166.05C107.362 166.633 107.395 167.3 107.395 168.05L105.645 168.075C105.645 167.008 105.537 166.225 105.32 165.725C105.12 165.225 104.745 164.975 104.195 164.975C103.678 164.975 103.212 165.05 102.795 165.2C102.378 165.35 102.012 165.533 101.695 165.75C101.395 165.967 101.137 166.183 100.92 166.4C100.703 166.617 100.545 166.8 100.445 166.95V174.325H105.245V176H95.1451ZM110.11 176V174.325H114.46V165.175H110.11V163.5H116.46V174.325H120.71V176H110.11ZM113.785 159.95C113.785 159.5 113.935 159.117 114.235 158.8C114.535 158.467 114.919 158.3 115.385 158.3C115.869 158.3 116.269 158.467 116.585 158.8C116.919 159.117 117.085 159.5 117.085 159.95C117.085 160.383 116.919 160.75 116.585 161.05C116.269 161.35 115.869 161.5 115.385 161.5C114.919 161.5 114.535 161.35 114.235 161.05C113.935 160.75 113.785 160.383 113.785 159.95ZM128.026 176V167.675C128.026 167.325 128.009 166.992 127.976 166.675C127.959 166.342 127.901 166.05 127.801 165.8C127.717 165.533 127.584 165.325 127.401 165.175C127.234 165.025 127.009 164.95 126.726 164.95C126.159 164.95 125.676 165.183 125.276 165.65C124.892 166.117 124.601 166.7 124.401 167.4V176H122.501V163.5H123.801L124.176 165.025H124.276C124.442 164.775 124.601 164.542 124.751 164.325C124.917 164.092 125.101 163.892 125.301 163.725C125.517 163.558 125.767 163.433 126.051 163.35C126.334 163.25 126.692 163.2 127.126 163.2C127.376 163.2 127.634 163.242 127.901 163.325C128.167 163.392 128.409 163.508 128.626 163.675C128.859 163.825 129.059 164.033 129.226 164.3C129.392 164.567 129.501 164.892 129.551 165.275C129.934 164.625 130.359 164.117 130.826 163.75C131.309 163.383 131.967 163.2 132.801 163.2C133.351 163.2 133.792 163.292 134.126 163.475C134.476 163.658 134.742 163.925 134.926 164.275C135.126 164.608 135.259 165.017 135.326 165.5C135.409 165.967 135.451 166.492 135.451 167.075V176H133.551V167.5C133.551 167.15 133.534 166.825 133.501 166.525C133.467 166.208 133.401 165.933 133.301 165.7C133.217 165.467 133.092 165.283 132.926 165.15C132.776 165.017 132.567 164.95 132.301 164.95C131.717 164.95 131.226 165.183 130.826 165.65C130.426 166.117 130.126 166.783 129.926 167.65V176H128.026Z" fill="white"/>
<defs>
<filter id="filter0_d_622_49917" x="41.5789" y="4.82568" width="79.468" height="145.39" filterUnits="userSpaceOnUse" color-interpolation-filters="sRGB">
<feFlood flood-opacity="0" result="BackgroundImageFix"/>
<feColorMatrix in="SourceAlpha" type="matrix" values="0 0 0 0 0 0 0 0 0 0 0 0 0 0 0 0 0 0 127 0" result="hardAlpha"/>
<feOffset dx="2" dy="4"/>
<feGaussianBlur stdDeviation="4"/>
<feComposite in2="hardAlpha" operator="out"/>
<feColorMatrix type="matrix" values="0 0 0 0 0 0 0 0 0 0.137376 0 0 0 0 0.195833 0 0 0 0.4 0"/>
<feBlend mode="normal" in2="BackgroundImageFix" result="effect1_dropShadow_622_49917"/>
<feBlend mode="normal" in="SourceGraphic" in2="effect1_dropShadow_622_49917" result="shape"/>
</filter>
<clipPath id="clip0_622_49917">
<rect width="144" height="144" fill="white" transform="translate(15)"/>
</clipPath>
</defs>
</svg>
