<svg width="174" height="200" viewBox="0 0 174 200" fill="none" xmlns="http://www.w3.org/2000/svg">
<rect width="174" height="200" fill="white" fill-opacity="0.05"/>
<path d="M27.7497 49.556C27.4196 49.8308 27.1339 50.1558 26.9103 50.5574C23.2156 57.169 34.9616 58.0799 32.0622 62.9461C29.8919 66.5921 30.9186 70.8101 34.8798 72.1091C39.6897 73.6777 30.8837 77.673 35.8395 83.8818C35.9808 84.0614 36.1478 84.1823 36.3482 84.2735C38.323 85.1524 42.9435 81.9576 46.362 78.6812C43.3654 80.7886 40.3684 82.161 39.317 80.9416C34.641 75.5067 43.3004 71.737 38.6551 70.4349C34.8288 69.3689 33.9167 65.6171 36.1145 62.3055C39.0504 57.885 27.6405 57.3395 31.3868 51.3457C32.393 49.7302 34.5986 49.191 37.1328 49.2987C37.1135 49.3039 37.089 49.2898 37.06 49.2975C33.4752 48.1668 29.7085 47.9027 27.74 49.5586" fill="white"/>
<path d="M35.8273 83.8748C30.874 77.6756 39.6774 73.6706 34.8676 72.1021C30.9064 70.803 29.87 66.5876 32.05 62.9391C34.9493 58.0729 23.213 57.1593 26.898 50.5504C27.1146 50.1611 27.4003 49.8361 27.7374 49.549C26.1312 49.8138 24.8179 50.4762 24.0882 51.6553C20.0173 58.2537 32.4767 58.8907 29.2863 63.7521C26.8976 67.3945 27.8939 71.5378 32.0836 72.7238C37.1581 74.1594 27.719 78.3036 32.8363 84.3036C33.4698 85.0449 34.7605 84.9164 36.3431 84.2543C36.1426 84.163 35.9634 84.0351 35.8247 83.8652L35.8273 83.8748Z" fill="#0E516A"/>
<path d="M49.4736 54.7091C47.9982 51.2118 34.3815 46.5264 31.3746 51.3386C27.6282 57.3324 39.0382 57.8779 36.1023 62.2984C33.9045 65.6101 34.807 69.3644 38.6429 70.4279C43.2856 71.7203 34.6288 75.4996 39.3048 80.9346C41.5464 83.5433 52.75 74.2779 53.7121 71.3387C54.6742 68.3995 51.1313 58.6545 49.4736 54.7091Z" fill="url(#paint0_linear_622_49910)"/>
<path d="M110.742 27.3182C111.165 27.3911 111.575 27.5298 111.97 27.7657C118.475 31.6441 108.758 38.306 113.702 41.0706C117.405 43.1429 118.625 47.3092 115.844 50.4148C112.462 54.1781 122.086 53.2351 120.899 61.0901C120.866 61.3163 120.782 61.5045 120.654 61.6837C119.383 63.4322 113.785 62.9757 109.186 61.8475C112.835 62.1742 116.116 61.8643 116.417 60.2826C117.749 53.2378 108.365 54.3028 111.737 50.8526C114.518 48.0162 113.432 44.311 109.873 42.5419C105.12 40.1816 114.728 34.0043 108.487 30.6866C106.808 29.7906 104.628 30.4265 102.487 31.7869C102.507 31.7817 102.521 31.7572 102.55 31.7495C105.089 28.9778 108.219 26.8658 110.752 27.3156" fill="white"/>
<path d="M120.906 61.078C122.096 53.2326 112.47 54.1659 115.851 50.4026C118.632 47.297 117.422 43.1282 113.709 41.0584C108.765 38.2938 118.473 31.6345 111.977 27.7535C111.595 27.5247 111.185 27.386 110.749 27.306C112.272 26.7322 113.741 26.6493 114.963 27.3055C121.787 30.9845 111.316 37.7658 116.509 40.3807C120.399 42.3407 121.608 46.4271 118.573 49.5491C114.896 53.3295 125.142 52.199 123.711 59.9538C123.533 60.9125 122.351 61.4466 120.649 61.6644C120.777 61.4852 120.868 61.2848 120.903 61.0683L120.906 61.078Z" fill="#0E516A"/>
<path d="M94.5051 42.6428C94.0342 38.8764 103.484 28.0104 108.494 30.6744C114.735 33.9921 105.127 40.1694 109.88 42.5297C113.439 44.2988 114.534 48.0014 111.744 50.8404C108.37 54.281 117.756 53.2256 116.424 60.2704C115.787 63.6504 101.452 61.2281 99.1493 59.1638C96.8465 57.0994 95.0422 46.8885 94.5051 42.6428Z" fill="url(#paint1_linear_622_49910)"/>
<path d="M79.8135 77.876C95.2413 73.7422 105.091 60.4747 101.813 48.2423C98.5357 36.0099 83.3719 29.4448 67.944 33.5787C52.5162 37.7126 42.6665 50.98 45.9442 63.2124C49.2218 75.4448 64.3856 82.0099 79.8135 77.876Z" fill="#D32833"/>
<path d="M79.8135 77.876C95.2413 73.7422 105.091 60.4747 101.813 48.2423C98.5357 36.0099 83.3719 29.4448 67.944 33.5787C52.5162 37.7126 42.6665 50.98 45.9442 63.2124C49.2218 75.4448 64.3856 82.0099 79.8135 77.876Z" fill="url(#paint2_linear_622_49910)"/>
<path opacity="0.3" d="M89.9784 43.0642C89.9337 38.5633 84.6504 34.9668 78.1779 35.0312C71.7055 35.0956 66.4948 38.7965 66.5396 43.2974C66.5844 47.7983 71.8676 51.3948 78.3401 51.3304C84.8125 51.266 90.0232 47.5651 89.9784 43.0642Z" fill="white"/>
<path d="M51.8117 56.1325C50.427 50.9648 51.3946 45.612 54.1233 40.8432C47.229 46.8731 43.8141 55.2628 45.9442 63.2124C49.2208 75.441 64.3876 82.0093 79.8135 77.876C88.7193 75.4897 95.7618 70.0517 99.5017 63.5315C95.7965 66.7812 91.0805 69.3493 85.681 70.7961C70.2551 74.9295 55.0883 68.3611 51.8117 56.1325Z" fill="#720D14"/>
<path d="M60.9558 69.7274C60.5455 69.8546 60.1571 70.0452 59.7965 70.3303C53.8488 75.0195 64.3475 80.3653 59.8037 83.7476C56.4011 86.2825 55.7317 90.5717 58.8919 93.2905C62.7325 96.5837 53.0676 96.8965 55.2635 104.531C55.3252 104.751 55.433 104.927 55.5831 105.088C57.0699 106.657 62.5624 105.478 66.976 103.763C63.4002 104.561 60.1061 104.679 59.6027 103.149C57.3685 96.3367 66.8114 96.1761 63.0206 93.1921C59.8957 90.7403 60.4921 86.9256 63.7918 84.7099C68.1985 81.7533 57.87 76.8739 63.6285 72.775C65.1773 71.6689 67.421 72.0167 69.7202 73.0881C69.7004 73.0855 69.6832 73.063 69.6534 73.0591C66.7763 70.6401 63.3989 68.9517 60.9459 69.7261" fill="white"/>
<path d="M55.255 104.52C53.0577 96.8952 62.7239 96.5725 58.8833 93.2793C55.7232 90.5605 56.3826 86.27 59.7951 83.7364C64.3389 80.3541 53.8502 75.0096 59.7879 70.3191C60.1373 70.0426 60.5257 69.852 60.9472 69.7162C59.3623 69.3447 57.8953 69.4529 56.7693 70.262C50.4792 74.7948 61.7417 80.1611 56.9309 83.4274C53.328 85.8752 52.6592 90.0838 56.0738 92.7859C60.2098 96.0577 49.9032 96.2653 52.3283 103.769C52.629 104.697 53.8703 105.073 55.5858 105.068C55.4357 104.907 55.3192 104.72 55.2563 104.51L55.255 104.52Z" fill="#D32833"/>
<path d="M79.0427 82.8174C79.0212 79.0216 68.2424 69.4726 63.6199 72.7638C57.8615 76.8627 68.1899 81.7421 63.7832 84.6987C60.4835 86.9144 59.8772 90.7278 63.0121 93.1809C66.8042 96.155 57.3599 96.3256 59.5941 103.138C60.6639 106.407 74.5642 102.147 76.5799 99.801C78.5955 97.4555 79.0606 87.0968 79.0427 82.8174Z" fill="url(#paint3_linear_622_49910)"/>
<path d="M146.131 81.0165C146.494 81.2462 146.819 81.5314 147.093 81.9006C151.614 87.9773 140.085 90.4036 143.591 94.8528C146.216 98.1865 145.745 102.502 141.985 104.304C137.419 106.483 146.669 109.302 142.56 116.102C142.443 116.298 142.293 116.439 142.106 116.556C140.262 117.683 135.267 115.115 131.452 112.309C134.697 114.01 137.846 114.982 138.731 113.637C142.663 107.642 133.587 105.027 138.025 103.133C141.68 101.58 142.098 97.7417 139.49 94.743C136.005 90.7405 147.248 88.7202 142.757 83.2627C141.549 81.7913 139.292 81.5426 136.794 81.9781C136.813 81.9807 136.836 81.9635 136.866 81.9674C140.274 80.3814 143.974 79.6312 146.141 81.0179" fill="white"/>
<path d="M142.571 116.093C146.679 109.304 137.431 106.474 141.997 104.295C145.756 102.494 146.237 98.1794 143.602 94.8443C140.096 90.3951 151.615 87.9675 147.104 81.8922C146.839 81.5342 146.514 81.249 146.142 81.0081C147.769 81.0623 149.157 81.5489 150.034 82.6234C154.926 88.6383 142.654 90.8854 146.448 95.2921C149.289 98.594 148.838 102.832 144.838 104.551C139.992 106.632 149.889 109.518 145.593 116.13C145.061 116.948 143.764 116.988 142.109 116.536C142.296 116.42 142.457 116.27 142.573 116.083L142.571 116.093Z" fill="#D32833"/>
<path d="M125.259 88.943C126.268 85.2839 139.162 78.8725 142.768 83.2542C147.26 88.7117 136.017 90.732 139.501 94.7345C142.11 97.7333 141.702 101.573 138.036 103.125C133.6 105.008 142.674 107.633 138.742 113.629C136.858 116.506 124.547 108.771 123.212 105.982C121.877 103.192 124.126 93.07 125.259 88.943Z" fill="url(#paint4_linear_622_49910)"/>
<path d="M98.1787 115.848C114.012 117.947 128.197 109.471 129.861 96.9165C131.525 84.3624 120.038 72.4841 104.204 70.3855C88.3706 68.2869 74.1861 76.7628 72.5222 89.3169C70.8583 101.871 82.3451 113.749 98.1787 115.848Z" fill="#0E516A"/>
<path d="M98.1787 115.848C114.012 117.947 128.197 109.471 129.861 96.9165C131.525 84.3624 120.038 72.4841 104.204 70.3855C88.3706 68.2869 74.1861 76.7628 72.5222 89.3169C70.8583 101.871 82.3451 113.749 98.1787 115.848Z" fill="url(#paint5_linear_622_49910)"/>
<path opacity="0.3" d="M120.916 87.5957C122.601 83.4217 119.101 78.0741 113.099 75.6515C107.096 73.2288 100.865 74.6486 99.1802 78.8225C97.4955 82.9965 100.996 88.3441 106.998 90.7667C113 93.1894 119.232 91.7696 120.916 87.5957Z" fill="white"/>
<path d="M80.6562 85.0284C81.3591 79.7248 84.3055 75.1523 88.6543 71.7946C79.9748 74.7195 73.6036 81.1582 72.5222 89.3169C70.8588 101.867 82.3472 113.75 98.1787 115.848C107.319 117.059 115.908 114.738 121.863 110.15C117.195 111.731 111.854 112.294 106.313 111.559C90.4811 109.461 78.9928 97.5787 80.6562 85.0284Z" fill="#022231"/>
<path d="M64.5744 162.5C64.5744 162.917 64.5077 163.342 64.3744 163.775C64.2411 164.208 64.0411 164.617 63.7744 165C63.5077 165.367 63.1661 165.692 62.7494 165.975C62.3327 166.258 61.8411 166.475 61.2744 166.625V166.725C61.7744 166.808 62.2494 166.95 62.6994 167.15C63.1661 167.35 63.5744 167.625 63.9244 167.975C64.2744 168.325 64.5577 168.75 64.7744 169.25C64.9911 169.75 65.0994 170.342 65.0994 171.025C65.0994 171.925 64.9077 172.708 64.5244 173.375C64.1577 174.025 63.6661 174.558 63.0494 174.975C62.4494 175.392 61.7577 175.7 60.9744 175.9C60.1911 176.1 59.3911 176.2 58.5744 176.2C58.2911 176.2 57.9577 176.2 57.5744 176.2C57.1911 176.2 56.7911 176.183 56.3744 176.15C55.9577 176.133 55.5411 176.1 55.1244 176.05C54.7077 176.017 54.3411 175.958 54.0244 175.875V158.65C54.6411 158.55 55.3577 158.467 56.1744 158.4C56.9911 158.333 57.8827 158.3 58.8494 158.3C59.4994 158.3 60.1577 158.358 60.8244 158.475C61.5077 158.575 62.1244 158.783 62.6744 159.1C63.2244 159.4 63.6744 159.825 64.0244 160.375C64.3911 160.925 64.5744 161.633 64.5744 162.5ZM58.7744 174.4C59.3077 174.4 59.8244 174.333 60.3244 174.2C60.8244 174.067 61.2661 173.867 61.6494 173.6C62.0327 173.333 62.3327 173 62.5494 172.6C62.7827 172.2 62.8994 171.725 62.8994 171.175C62.8994 170.492 62.7577 169.942 62.4744 169.525C62.2077 169.108 61.8494 168.783 61.3994 168.55C60.9661 168.317 60.4744 168.158 59.9244 168.075C59.3744 167.992 58.8244 167.95 58.2744 167.95H56.0994V174.225C56.2161 174.258 56.3827 174.283 56.5994 174.3C56.8161 174.317 57.0494 174.333 57.2994 174.35C57.5494 174.367 57.8077 174.383 58.0744 174.4C58.3411 174.4 58.5744 174.4 58.7744 174.4ZM57.3994 166.2C57.6827 166.2 58.0244 166.192 58.4244 166.175C58.8244 166.158 59.1577 166.133 59.4244 166.1C59.8244 165.967 60.1994 165.808 60.5494 165.625C60.8994 165.425 61.2077 165.192 61.4744 164.925C61.7577 164.658 61.9744 164.358 62.1244 164.025C62.2911 163.692 62.3744 163.325 62.3744 162.925C62.3744 162.375 62.2661 161.917 62.0494 161.55C61.8494 161.183 61.5744 160.892 61.2244 160.675C60.8744 160.458 60.4744 160.308 60.0244 160.225C59.5744 160.142 59.1161 160.1 58.6494 160.1C58.0994 160.1 57.5911 160.117 57.1244 160.15C56.6744 160.167 56.3327 160.2 56.0994 160.25V166.2H57.3994ZM68.2146 164.475C68.9313 164.058 69.7396 163.758 70.6396 163.575C71.5396 163.392 72.423 163.3 73.2896 163.3C74.1396 163.3 74.8313 163.433 75.3646 163.7C75.9146 163.967 76.3396 164.317 76.6396 164.75C76.9563 165.167 77.1646 165.65 77.2646 166.2C77.3813 166.733 77.4396 167.275 77.4396 167.825C77.4396 168.458 77.423 169.133 77.3896 169.85C77.3563 170.567 77.3313 171.283 77.3146 172C77.3146 172.833 77.3646 173.625 77.4646 174.375H79.1396V176H75.8146L75.5896 174.125H75.4646C75.3646 174.275 75.2146 174.467 75.0146 174.7C74.8146 174.933 74.548 175.167 74.2146 175.4C73.898 175.617 73.5063 175.808 73.0396 175.975C72.573 176.142 72.023 176.225 71.3896 176.225C70.1563 176.225 69.1813 175.908 68.4646 175.275C67.748 174.642 67.3896 173.775 67.3896 172.675C67.3896 171.825 67.573 171.117 67.9396 170.55C68.323 169.983 68.8646 169.55 69.5646 169.25C70.2646 168.95 71.1063 168.775 72.0896 168.725C73.0896 168.675 74.2063 168.742 75.4396 168.925C75.523 168.158 75.5313 167.525 75.4646 167.025C75.4146 166.508 75.2813 166.1 75.0646 165.8C74.8646 165.5 74.573 165.292 74.1896 165.175C73.823 165.042 73.3646 164.975 72.8146 164.975C72.0646 164.975 71.348 165.083 70.6646 165.3C69.9813 165.5 69.373 165.708 68.8396 165.925L68.2146 164.475ZM71.8896 174.55C72.3563 174.55 72.7896 174.475 73.1896 174.325C73.5896 174.175 73.9396 173.983 74.2396 173.75C74.5396 173.517 74.7896 173.267 74.9896 173C75.1896 172.717 75.3396 172.45 75.4396 172.2V170.45C74.573 170.3 73.773 170.225 73.0396 170.225C72.3063 170.225 71.673 170.308 71.1396 170.475C70.6063 170.625 70.1896 170.867 69.8896 171.2C69.5896 171.533 69.4396 171.967 69.4396 172.5C69.4396 173.05 69.623 173.533 69.9896 173.95C70.373 174.35 71.0063 174.55 71.8896 174.55ZM82.4799 158.5H86.6299V171.8C86.6299 172.817 86.7965 173.533 87.1299 173.95C87.4799 174.367 87.9882 174.575 88.6549 174.575C89.1216 174.575 89.5632 174.492 89.9799 174.325C90.4132 174.158 90.8882 173.875 91.4049 173.475L92.3049 174.85C92.0382 175.083 91.7466 175.292 91.4299 175.475C91.1132 175.658 90.7882 175.817 90.4549 175.95C90.1215 176.067 89.7882 176.158 89.4549 176.225C89.1216 176.292 88.8132 176.325 88.5299 176.325C87.9132 176.325 87.3632 176.242 86.8799 176.075C86.3965 175.925 85.9882 175.675 85.6549 175.325C85.3382 174.975 85.0965 174.517 84.9299 173.95C84.7632 173.367 84.6799 172.65 84.6799 171.8V160.175H82.4799V158.5ZM96.1951 164.475C96.9118 164.058 97.7201 163.758 98.6201 163.575C99.5201 163.392 100.403 163.3 101.27 163.3C102.12 163.3 102.812 163.433 103.345 163.7C103.895 163.967 104.32 164.317 104.62 164.75C104.937 165.167 105.145 165.65 105.245 166.2C105.362 166.733 105.42 167.275 105.42 167.825C105.42 168.458 105.403 169.133 105.37 169.85C105.337 170.567 105.312 171.283 105.295 172C105.295 172.833 105.345 173.625 105.445 174.375H107.12V176H103.795L103.57 174.125H103.445C103.345 174.275 103.195 174.467 102.995 174.7C102.795 174.933 102.528 175.167 102.195 175.4C101.878 175.617 101.487 175.808 101.02 175.975C100.553 176.142 100.003 176.225 99.3701 176.225C98.1368 176.225 97.1618 175.908 96.4451 175.275C95.7285 174.642 95.3701 173.775 95.3701 172.675C95.3701 171.825 95.5535 171.117 95.9201 170.55C96.3035 169.983 96.8451 169.55 97.5451 169.25C98.2451 168.95 99.0868 168.775 100.07 168.725C101.07 168.675 102.187 168.742 103.42 168.925C103.503 168.158 103.512 167.525 103.445 167.025C103.395 166.508 103.262 166.1 103.045 165.8C102.845 165.5 102.553 165.292 102.17 165.175C101.803 165.042 101.345 164.975 100.795 164.975C100.045 164.975 99.3285 165.083 98.6451 165.3C97.9618 165.5 97.3535 165.708 96.8201 165.925L96.1951 164.475ZM99.8701 174.55C100.337 174.55 100.77 174.475 101.17 174.325C101.57 174.175 101.92 173.983 102.22 173.75C102.52 173.517 102.77 173.267 102.97 173C103.17 172.717 103.32 172.45 103.42 172.2V170.45C102.553 170.3 101.753 170.225 101.02 170.225C100.287 170.225 99.6535 170.308 99.1201 170.475C98.5868 170.625 98.1701 170.867 97.8701 171.2C97.5701 171.533 97.4201 171.967 97.4201 172.5C97.4201 173.05 97.6035 173.533 97.9701 173.95C98.3535 174.35 98.9868 174.55 99.8701 174.55ZM118.435 172.625C118.435 172.092 118.227 171.683 117.81 171.4C117.394 171.1 116.877 170.867 116.26 170.7C115.644 170.517 114.969 170.35 114.235 170.2C113.519 170.05 112.852 169.85 112.235 169.6C111.619 169.35 111.102 169.017 110.685 168.6C110.269 168.167 110.06 167.567 110.06 166.8C110.06 166.167 110.194 165.625 110.46 165.175C110.744 164.725 111.11 164.358 111.56 164.075C112.01 163.775 112.535 163.558 113.135 163.425C113.735 163.275 114.36 163.2 115.01 163.2C116.177 163.2 117.177 163.35 118.01 163.65C118.86 163.933 119.535 164.233 120.035 164.55L119.235 166.125C118.685 165.825 118.085 165.542 117.435 165.275C116.802 164.992 116.002 164.85 115.035 164.85C114.669 164.85 114.302 164.892 113.935 164.975C113.585 165.042 113.26 165.15 112.96 165.3C112.677 165.45 112.444 165.65 112.26 165.9C112.094 166.133 112.01 166.425 112.01 166.775C112.01 167.208 112.219 167.542 112.635 167.775C113.052 168.008 113.569 168.208 114.185 168.375C114.802 168.525 115.469 168.675 116.185 168.825C116.919 168.958 117.594 169.158 118.21 169.425C118.827 169.692 119.344 170.05 119.76 170.5C120.177 170.95 120.385 171.558 120.385 172.325C120.385 173.475 119.927 174.425 119.01 175.175C118.11 175.925 116.752 176.3 114.935 176.3C114.385 176.3 113.844 176.25 113.31 176.15C112.777 176.05 112.277 175.917 111.81 175.75C111.344 175.583 110.919 175.4 110.535 175.2C110.152 174.983 109.835 174.767 109.585 174.55L110.585 172.925C110.785 173.125 111.052 173.333 111.385 173.55C111.719 173.75 112.085 173.933 112.485 174.1C112.885 174.267 113.31 174.4 113.76 174.5C114.227 174.6 114.694 174.65 115.16 174.65C115.61 174.65 116.027 174.617 116.41 174.55C116.81 174.467 117.16 174.35 117.46 174.2C117.76 174.033 117.994 173.825 118.16 173.575C118.344 173.308 118.435 172.992 118.435 172.625Z" fill="white"/>
<defs>
<linearGradient id="paint0_linear_622_49910" x1="29.7341" y1="50.7153" x2="56.311" y2="77.2714" gradientUnits="userSpaceOnUse">
<stop stop-color="#FF6D5E"/>
<stop offset="0.416667" stop-color="#F02431"/>
<stop offset="1" stop-color="#670617"/>
<stop offset="1" stop-color="#4E0815"/>
</linearGradient>
<linearGradient id="paint1_linear_622_49910" x1="91.4456" y1="34.1797" x2="118.023" y2="60.7358" gradientUnits="userSpaceOnUse">
<stop stop-color="#4E0815"/>
<stop offset="0.598958" stop-color="#F02431"/>
<stop offset="1" stop-color="#FF6D5E"/>
</linearGradient>
<linearGradient id="paint2_linear_622_49910" x1="61.5" y1="78.5002" x2="91" y2="28.5002" gradientUnits="userSpaceOnUse">
<stop stop-color="#4E0815"/>
<stop offset="0.598958" stop-color="#F02431"/>
<stop offset="1" stop-color="#FF6D5E"/>
</linearGradient>
<linearGradient id="paint3_linear_622_49910" x1="80.44" y1="91.5295" x2="59.9485" y2="84.2945" gradientUnits="userSpaceOnUse">
<stop stop-color="#002433"/>
<stop offset="0.442708" stop-color="#063445"/>
<stop offset="1" stop-color="#136888"/>
</linearGradient>
<linearGradient id="paint4_linear_622_49910" x1="143.775" y1="99.9241" x2="123.283" y2="92.689" gradientUnits="userSpaceOnUse">
<stop stop-color="#136D8F"/>
<stop offset="0.604167" stop-color="#063445"/>
<stop offset="1" stop-color="#002433"/>
</linearGradient>
<linearGradient id="paint5_linear_622_49910" x1="139.106" y1="68.3228" x2="68.758" y2="84.9625" gradientUnits="userSpaceOnUse">
<stop stop-color="#197192"/>
<stop offset="0.748271" stop-color="#063445"/>
<stop offset="1" stop-color="#002433"/>
</linearGradient>
</defs>
</svg>
