<svg width="236" height="237" viewBox="0 0 236 237" fill="none" xmlns="http://www.w3.org/2000/svg">
<path d="M200.902 236.486L236 92.0177L118 0.486339L-1.06972e-06 92.0177L35.0981 236.486L200.902 236.486Z" fill="white" fill-opacity="0.3"/>
<path d="M200.902 236.486L236 92.0177L118 0.486339L-1.06972e-06 92.0177L35.0981 236.486L200.902 236.486Z" fill="#D32833"/>
<g clip-path="url(#clip0_612_41072)">
<path d="M170.678 103.973C170.465 101.634 169.888 99.3756 169.089 97.17C168.139 94.548 166.914 92.0678 165.165 89.871C163.86 88.2234 162.341 86.8327 160.326 86.0975C160.255 86.0709 160.175 86.0443 160.104 86.0266C159.376 85.6811 158.586 85.4951 157.76 85.4951C156.934 85.4951 156.18 85.6723 155.46 86.0089C155.372 86.0355 155.292 86.062 155.203 86.0886C153.676 86.6201 152.424 87.5856 151.323 88.7371C149.405 90.7479 148.082 93.1219 147.008 95.6553C145.996 98.0292 145.294 100.492 144.93 103.043C144.566 105.594 144.637 108.127 145.543 110.581C146.973 114.461 149.645 117.118 153.587 118.456C155.203 119.005 156.872 119.191 158.586 119.085C160.841 118.952 162.927 118.296 164.836 117.092C166.399 116.1 167.677 114.815 168.672 113.265C169.577 111.848 170.208 110.315 170.501 108.659C170.616 108.003 170.661 107.348 170.741 106.683C170.767 106.489 170.785 106.294 170.803 106.099V105.381C170.758 104.921 170.723 104.451 170.678 103.991V103.973Z" fill="white"/>
<path d="M130.485 103.973C130.272 101.634 129.695 99.3756 128.896 97.17C127.946 94.548 126.721 92.0678 124.971 89.871C123.666 88.2234 122.148 86.8327 120.133 86.0975C120.062 86.0709 119.982 86.0443 119.911 86.0266C119.183 85.6811 118.392 85.4951 117.567 85.4951C116.741 85.4951 115.986 85.6723 115.267 86.0089C115.178 86.0355 115.098 86.062 115.01 86.0886C113.483 86.6201 112.231 87.5856 111.13 88.7371C109.212 90.7479 107.889 93.1219 106.815 95.6553C105.803 98.0292 105.101 100.492 104.737 103.043C104.373 105.594 104.444 108.127 105.35 110.581C106.779 114.461 109.452 117.118 113.394 118.456C115.01 119.005 116.679 119.191 118.392 119.085C120.648 118.952 122.734 118.296 124.643 117.092C126.206 116.1 127.484 114.815 128.478 113.265C129.384 111.848 130.014 110.315 130.307 108.659C130.423 108.003 130.467 107.348 130.547 106.683C130.574 106.489 130.592 106.294 130.609 106.099V105.381C130.565 104.921 130.529 104.451 130.485 103.991V103.973Z" fill="white"/>
<path d="M90.5046 103.973C90.2915 101.634 89.7144 99.3756 88.9153 97.17C87.9653 94.548 86.7401 92.0678 84.991 89.871C83.6858 88.2234 82.1676 86.8327 80.1521 86.0975C80.0811 86.0709 80.0012 86.0443 79.9302 86.0266C79.2021 85.6811 78.4119 85.4951 77.5862 85.4951C76.7605 85.4951 76.0058 85.6723 75.2867 86.0089C75.1979 86.0355 75.118 86.062 75.0292 86.0886C73.5021 86.6201 72.2502 87.5856 71.1492 88.7371C69.2314 90.7479 67.9085 93.1219 66.8342 95.6553C65.8221 98.0292 65.1206 100.492 64.7566 103.043C64.3926 105.594 64.4636 108.127 65.3693 110.581C66.7987 114.461 69.4712 117.118 73.4133 118.456C75.0292 119.005 76.6984 119.191 78.4119 119.085C80.6671 118.952 82.7536 118.296 84.6625 117.092C86.2251 116.1 87.5036 114.815 88.498 113.265C89.4036 111.848 90.034 110.315 90.327 108.659C90.4424 108.003 90.4868 107.348 90.5667 106.683C90.5934 106.489 90.6111 106.294 90.6289 106.099V105.381C90.5845 104.921 90.549 104.451 90.5046 103.991V103.973Z" fill="white"/>
<path d="M137.33 106.586L97.6696 106.586L58 106.586L58 121.352L66.6211 121.352L68.6987 134.214L87.8765 134.214L89.963 121.352L97.6696 121.352L106.291 121.352L108.368 134.214L127.546 134.214L129.624 121.352L137.33 121.352L145.952 121.352L148.038 134.214L167.207 134.214L169.293 121.352L177 121.352L177 106.586L137.33 106.586Z" fill="#AF3030"/>
<path d="M151.909 108.402L140.083 108.402L134.72 108.402L100.28 108.402L95.0594 108.402L83.8102 108.402L60.6104 108.402L60.6104 119.829L68.095 119.829L69.9063 129.785L86.5536 129.785L88.3649 119.829L95.0594 119.829L100.28 119.829L107.765 119.829L109.576 129.785L126.223 129.785L128.035 119.829L134.72 119.829L140.083 119.829H147.567L149.379 129.785L166.026 129.785L167.837 119.829L174.523 119.829V108.402L151.909 108.402Z" fill="white"/>
<path d="M170.678 157.245C170.465 154.907 169.888 152.648 169.089 150.442C168.139 147.82 166.914 145.34 165.165 143.143C163.86 141.496 162.341 140.105 160.326 139.37C160.255 139.343 160.175 139.317 160.104 139.299C159.376 138.953 158.586 138.767 157.76 138.767C156.934 138.767 156.18 138.944 155.46 139.281C155.372 139.308 155.292 139.334 155.203 139.361C153.676 139.892 152.424 140.858 151.323 142.009C149.405 144.02 148.082 146.394 147.008 148.927C145.996 151.301 145.294 153.764 144.93 156.315C144.566 158.866 144.637 161.4 145.543 163.853C146.973 167.733 149.645 170.39 153.587 171.728C155.203 172.277 156.872 172.463 158.586 172.357C160.841 172.224 162.927 171.569 164.836 170.364C166.399 169.372 167.677 168.087 168.672 166.537C169.577 165.12 170.208 163.587 170.501 161.931C170.616 161.276 170.661 160.62 170.741 159.956C170.767 159.761 170.785 159.566 170.803 159.371V158.654C170.758 158.193 170.723 157.723 170.678 157.263V157.245Z" fill="white"/>
<path d="M130.485 157.245C130.272 154.907 129.695 152.648 128.896 150.442C127.946 147.82 126.721 145.34 124.971 143.143C123.666 141.496 122.148 140.105 120.133 139.37C120.062 139.343 119.982 139.317 119.911 139.299C119.183 138.953 118.392 138.767 117.567 138.767C116.741 138.767 115.986 138.944 115.267 139.281C115.178 139.308 115.098 139.334 115.01 139.361C113.483 139.892 112.231 140.858 111.13 142.009C109.212 144.02 107.889 146.394 106.815 148.927C105.803 151.301 105.101 153.764 104.737 156.315C104.373 158.866 104.444 161.4 105.35 163.853C106.779 167.733 109.452 170.39 113.394 171.728C115.01 172.277 116.679 172.463 118.392 172.357C120.648 172.224 122.734 171.569 124.643 170.364C126.206 169.372 127.484 168.087 128.478 166.537C129.384 165.12 130.014 163.587 130.307 161.931C130.423 161.276 130.467 160.62 130.547 159.956C130.574 159.761 130.592 159.566 130.609 159.371V158.654C130.565 158.193 130.529 157.723 130.485 157.263V157.245Z" fill="white"/>
<path d="M90.5046 157.245C90.2915 154.907 89.7144 152.648 88.9153 150.442C87.9653 147.82 86.7401 145.34 84.991 143.143C83.6858 141.496 82.1676 140.105 80.1521 139.37C80.0811 139.343 80.0012 139.317 79.9302 139.299C79.2021 138.953 78.4119 138.767 77.5862 138.767C76.7605 138.767 76.0058 138.944 75.2867 139.281C75.1979 139.308 75.118 139.334 75.0292 139.361C73.5021 139.892 72.2502 140.858 71.1492 142.009C69.2314 144.02 67.9085 146.394 66.8342 148.927C65.8221 151.301 65.1206 153.764 64.7566 156.315C64.3926 158.866 64.4636 161.4 65.3693 163.853C66.7987 167.733 69.4712 170.39 73.4133 171.728C75.0292 172.277 76.6984 172.463 78.4119 172.357C80.6671 172.224 82.7536 171.569 84.6625 170.364C86.2251 169.372 87.5036 168.087 88.498 166.537C89.4036 165.12 90.034 163.587 90.327 161.931C90.4424 161.276 90.4868 160.62 90.5667 159.956C90.5934 159.761 90.6111 159.566 90.6289 159.371V158.654C90.5845 158.193 90.549 157.723 90.5046 157.263V157.245Z" fill="white"/>
<path d="M137.33 159.858L97.6696 159.858L58 159.858L58 174.624H66.6211L68.6987 187.486L87.8765 187.486L89.963 174.624H97.6696L106.291 174.624L108.368 187.486L127.546 187.486L129.624 174.624L137.33 174.624H145.952L148.038 187.486L167.207 187.486L169.293 174.624H177L177 159.858L137.33 159.858Z" fill="#AF3030"/>
<path d="M151.909 161.674L140.083 161.674L134.72 161.674L100.28 161.674H95.0594L83.8102 161.674L60.6104 161.674L60.6104 173.101H68.095L69.9063 183.057L86.5536 183.057L88.3649 173.101H95.0594H100.28L107.765 173.101L109.576 183.057L126.223 183.057L128.035 173.101H134.72L140.083 173.101H147.567L149.379 183.057L166.026 183.057L167.837 173.101L174.523 173.101V161.674L151.909 161.674Z" fill="white"/>
</g>
<defs>
<clipPath id="clip0_612_41072">
<rect width="119" height="102" fill="white" transform="translate(58 85.4863)"/>
</clipPath>
</defs>
</svg>
