<svg width="236" height="236" viewBox="0 0 236 236" fill="none" xmlns="http://www.w3.org/2000/svg">
<path d="M200.902 236L236 91.5313L118 1.04032e-05L-1.06972e-06 91.5314L35.0981 236L200.902 236Z" fill="#0E516A" fill-opacity="0.6"/>
<path d="M158.806 108.495L124.243 108.495C114.199 108.495 106.056 116.567 106.056 126.525L106.056 131.945C106.056 141.902 114.199 149.974 124.243 149.974L158.806 149.974C168.851 149.974 176.993 141.902 176.993 131.945L176.993 126.525C176.993 116.567 168.851 108.495 158.806 108.495Z" fill="#AF3030"/>
<path d="M141.398 125.793C158.192 125.793 171.806 121.306 171.806 115.772C171.806 110.237 158.192 105.751 141.398 105.751C124.605 105.751 110.991 110.237 110.991 115.772C110.991 121.306 124.605 125.793 141.398 125.793Z" fill="#E5CE6A"/>
<path d="M131.222 116.836L168.552 120.298C168.552 120.298 177.232 132.934 170.938 145.381C170.938 145.381 166.96 149.568 160.112 149.975L148.623 149.975C148.623 149.975 152.334 133.7 147.611 125.793L131.222 116.829V116.836Z" fill="white"/>
<path d="M171.484 144.208L149.88 141.261L148.643 149.974L160.105 149.974C163.146 150.191 171.689 147.542 171.478 144.208H171.484Z" fill="#E5CE6A"/>
<path d="M62.9333 144.266L131.71 144.266L97.3252 129.448L62.9333 144.266Z" fill="white"/>
<path d="M131.71 144.266L62.9333 144.266L62.9333 167.797L131.71 167.797L131.71 144.266Z" fill="#AF3030"/>
<path d="M71.1076 153.44C73.1383 153.44 74.7846 152.933 74.7846 152.308C74.7846 151.683 73.1383 151.177 71.1076 151.177C69.0768 151.177 67.4305 151.683 67.4305 152.308C67.4305 152.933 69.0768 153.44 71.1076 153.44Z" fill="#E5CE6A"/>
<path d="M71.7022 153.44C73.4008 153.44 74.7778 152.933 74.7778 152.308C74.7778 151.683 73.4008 151.177 71.7022 151.177C70.0036 151.177 68.6266 151.683 68.6266 152.308C68.6266 152.933 70.0036 153.44 71.7022 153.44Z" fill="white"/>
<path d="M77.539 164.741C78.8978 164.741 79.9994 164.402 79.9994 163.982C79.9994 163.563 78.8978 163.224 77.539 163.224C76.1801 163.224 75.0785 163.563 75.0785 163.982C75.0785 164.402 76.1801 164.741 77.539 164.741Z" fill="#E5CE6A"/>
<path d="M77.9354 164.741C79.0716 164.741 79.9926 164.402 79.9926 163.982C79.9926 163.563 79.0716 163.224 77.9354 163.224C76.7992 163.224 75.8782 163.563 75.8782 163.982C75.8782 164.402 76.7992 164.741 77.9354 164.741Z" fill="white"/>
<path d="M90.2855 158.453C91.8256 158.453 93.0741 158.068 93.0741 157.593C93.0741 157.118 91.8256 156.732 90.2855 156.732C88.7455 156.732 87.497 157.118 87.497 157.593C87.497 158.068 88.7455 158.453 90.2855 158.453Z" fill="#E5CE6A"/>
<path d="M90.7366 158.453C92.0276 158.453 93.0741 158.068 93.0741 157.593C93.0741 157.118 92.0276 156.732 90.7366 156.732C89.4457 156.732 88.3992 157.118 88.3992 157.593C88.3992 158.068 89.4457 158.453 90.7366 158.453Z" fill="white"/>
<path d="M125.163 149.47C127.775 149.47 129.892 148.818 129.892 148.013C129.892 147.209 127.775 146.557 125.163 146.557C122.551 146.557 120.433 147.209 120.433 148.013C120.433 148.818 122.551 149.47 125.163 149.47Z" fill="#E5CE6A"/>
<path d="M125.935 149.47C128.121 149.47 129.892 148.818 129.892 148.013C129.892 147.209 128.121 146.557 125.935 146.557C123.75 146.557 121.978 147.209 121.978 148.013C121.978 148.818 123.75 149.47 125.935 149.47Z" fill="white"/>
<path d="M109.669 164.68C111.186 164.68 112.416 164.301 112.416 163.833C112.416 163.366 111.186 162.986 109.669 162.986C108.151 162.986 106.921 163.366 106.921 163.833C106.921 164.301 108.151 164.68 109.669 164.68Z" fill="#E5CE6A"/>
<path d="M110.113 164.68C111.385 164.68 112.416 164.301 112.416 163.833C112.416 163.366 111.385 162.986 110.113 162.986C108.841 162.986 107.81 163.366 107.81 163.833C107.81 164.301 108.841 164.68 110.113 164.68Z" fill="white"/>
<path d="M86.9708 151.407C88.3297 151.407 89.4313 151.068 89.4313 150.648C89.4313 150.229 88.3297 149.89 86.9708 149.89C85.6119 149.89 84.5103 150.229 84.5103 150.648C84.5103 151.068 85.6119 151.407 86.9708 151.407Z" fill="#E5CE6A"/>
<path d="M87.3672 151.407C88.5034 151.407 89.4244 151.068 89.4244 150.648C89.4244 150.229 88.5034 149.89 87.3672 149.89C86.2311 149.89 85.31 150.229 85.31 150.648C85.31 151.068 86.2311 151.407 87.3672 151.407Z" fill="white"/>
<path d="M127.104 165.602C128.644 165.602 129.892 165.217 129.892 164.741C129.892 164.266 128.644 163.881 127.104 163.881C125.564 163.881 124.315 164.266 124.315 164.741C124.315 165.217 125.564 165.602 127.104 165.602Z" fill="#E5CE6A"/>
<path d="M127.562 165.602C128.853 165.602 129.899 165.217 129.899 164.741C129.899 164.266 128.853 163.881 127.562 163.881C126.271 163.881 125.224 164.266 125.224 164.741C125.224 165.217 126.271 165.602 127.562 165.602Z" fill="white"/>
<path d="M66.4873 166.998C67.9934 166.998 69.2144 166.622 69.2144 166.158C69.2144 165.694 67.9934 165.317 66.4873 165.317C64.9812 165.317 63.7603 165.694 63.7603 166.158C63.7603 166.622 64.9812 166.998 66.4873 166.998Z" fill="#E5CE6A"/>
<path d="M66.9316 166.998C68.1923 166.998 69.2143 166.622 69.2143 166.158C69.2143 165.694 68.1923 165.317 66.9316 165.317C65.6708 165.317 64.6488 165.694 64.6488 166.158C64.6488 166.622 65.6708 166.998 66.9316 166.998Z" fill="white"/>
<path d="M93.4568 166.455C95.4876 166.455 97.1339 165.949 97.1339 165.324C97.1339 164.699 95.4876 164.192 93.4568 164.192C91.426 164.192 89.7798 164.699 89.7798 165.324C89.7798 165.949 91.426 166.455 93.4568 166.455Z" fill="#E5CE6A"/>
<path d="M94.0514 166.455C95.75 166.455 97.127 165.949 97.127 165.324C97.127 164.699 95.75 164.192 94.0514 164.192C92.3528 164.192 90.9758 164.699 90.9758 165.324C90.9758 165.949 92.3528 166.455 94.0514 166.455Z" fill="white"/>
<path d="M102.26 160.703C103.619 160.703 104.72 160.415 104.72 160.06C104.72 159.704 103.619 159.416 102.26 159.416C100.901 159.416 99.7994 159.704 99.7994 160.06C99.7994 160.415 100.901 160.703 102.26 160.703Z" fill="#E5CE6A"/>
<path d="M102.656 160.703C103.792 160.703 104.714 160.415 104.714 160.06C104.714 159.704 103.792 159.416 102.656 159.416C101.52 159.416 100.599 159.704 100.599 160.06C100.599 160.415 101.52 160.703 102.656 160.703Z" fill="white"/>
<path d="M120.433 156.787C121.792 156.787 122.894 156.447 122.894 156.028C122.894 155.609 121.792 155.27 120.433 155.27C119.074 155.27 117.973 155.609 117.973 156.028C117.973 156.447 119.074 156.787 120.433 156.787Z" fill="#E5CE6A"/>
<path d="M120.83 156.787C121.966 156.787 122.887 156.447 122.887 156.028C122.887 155.609 121.966 155.27 120.83 155.27C119.693 155.27 118.772 155.609 118.772 156.028C118.772 156.447 119.693 156.787 120.83 156.787Z" fill="white"/>
<path d="M108.739 149.145C110.77 149.145 112.416 148.638 112.416 148.013C112.416 147.388 110.77 146.882 108.739 146.882C106.708 146.882 105.062 147.388 105.062 148.013C105.062 148.638 106.708 149.145 108.739 149.145Z" fill="#E5CE6A"/>
<path d="M109.341 149.145C111.039 149.145 112.416 148.638 112.416 148.013C112.416 147.388 111.039 146.882 109.341 146.882C107.642 146.882 106.265 147.388 106.265 148.013C106.265 148.638 107.642 149.145 109.341 149.145Z" fill="white"/>
<path d="M68.9273 160.548C70.1088 160.548 71.0666 160.254 71.0666 159.891C71.0666 159.528 70.1088 159.233 68.9273 159.233C67.7459 159.233 66.7881 159.528 66.7881 159.891C66.7881 160.254 67.7459 160.548 68.9273 160.548Z" fill="#E5CE6A"/>
<path d="M69.2759 160.548C70.2649 160.548 71.0666 160.254 71.0666 159.891C71.0666 159.528 70.2649 159.233 69.2759 159.233C68.2869 159.233 67.4852 159.528 67.4852 159.891C67.4852 160.254 68.2869 160.548 69.2759 160.548Z" fill="white"/>
</svg>
