<svg width="346" height="237" viewBox="0 0 346 237" fill="none" xmlns="http://www.w3.org/2000/svg">
<g filter="url(#filter0_d_399_25342)">
<rect x="183" y="37" width="156" height="184" fill="white"/>
<path d="M219.335 204.95C218.885 204.95 218.493 204.767 218.16 204.4C217.826 204.017 217.551 203.575 217.335 203.075C217.118 202.558 216.943 202.117 216.81 201.75C216.51 200.867 216.201 199.908 215.885 198.875C215.568 197.825 215.243 196.767 214.91 195.7C214.593 194.633 214.268 193.625 213.935 192.675C213.601 191.708 213.276 190.883 212.96 190.2V189.925C212.96 189.658 213.018 189.483 213.135 189.4C213.251 189.3 213.501 189.25 213.885 189.25C214.318 189.25 214.635 189.317 214.835 189.45C215.051 189.583 215.235 189.883 215.385 190.35L216.985 195.475C217.451 196.975 217.826 198.158 218.11 199.025C218.393 199.892 218.626 200.533 218.81 200.95C218.993 201.367 219.168 201.633 219.335 201.75C219.518 201.867 219.726 201.925 219.96 201.925C220.26 201.925 220.635 201.625 221.085 201.025C221.535 200.408 222.01 199.55 222.51 198.45C223.01 197.35 223.501 196.058 223.985 194.575C224.485 193.075 224.926 191.45 225.31 189.7C225.36 189.467 225.476 189.267 225.66 189.1C225.86 188.933 226.068 188.85 226.285 188.85C226.535 188.85 226.701 188.942 226.785 189.125C226.885 189.308 226.935 189.525 226.935 189.775C226.935 190.025 226.935 190.25 226.935 190.45C226.935 190.983 226.818 191.692 226.585 192.575C226.351 193.442 226.026 194.408 225.61 195.475C225.21 196.542 224.751 197.633 224.235 198.75C223.718 199.867 223.176 200.925 222.61 201.925C222.376 202.325 222.101 202.758 221.785 203.225C221.485 203.692 221.135 204.1 220.735 204.45C220.335 204.783 219.868 204.95 219.335 204.95ZM229.943 205.825C229.709 205.825 229.526 205.675 229.393 205.375C229.276 205.075 229.193 204.692 229.143 204.225C229.109 203.758 229.093 203.275 229.093 202.775C229.093 202.542 229.093 202.308 229.093 202.075C229.109 201.825 229.118 201.592 229.118 201.375C229.118 201.308 229.143 201.092 229.193 200.725C229.243 200.342 229.301 199.9 229.368 199.4C229.434 198.9 229.501 198.408 229.568 197.925C229.651 197.425 229.718 197.033 229.768 196.75C229.818 196.533 229.876 196.25 229.943 195.9C230.009 195.533 230.126 195.208 230.293 194.925C230.476 194.625 230.734 194.475 231.068 194.475C231.451 194.475 231.718 194.55 231.868 194.7C232.034 194.833 232.118 195.05 232.118 195.35C232.118 195.433 232.109 195.517 232.093 195.6C232.093 195.683 232.084 195.775 232.068 195.875C231.984 196.408 231.876 197.075 231.743 197.875C231.626 198.658 231.518 199.483 231.418 200.35C231.334 201.2 231.309 202.008 231.343 202.775C231.359 202.958 231.376 203.175 231.393 203.425C231.426 203.658 231.443 203.892 231.443 204.125C231.443 204.558 231.351 204.95 231.168 205.3C230.984 205.65 230.576 205.825 229.943 205.825ZM229.643 191.975C229.409 191.975 229.293 191.808 229.293 191.475C229.293 191.275 229.376 191.067 229.543 190.85C229.709 190.633 229.901 190.433 230.118 190.25C230.351 190.05 230.543 189.892 230.693 189.775C230.809 189.675 230.926 189.583 231.043 189.5C231.159 189.4 231.259 189.317 231.343 189.25C231.426 189.183 231.576 189.075 231.793 188.925C232.009 188.775 232.226 188.625 232.443 188.475C232.659 188.325 232.793 188.242 232.843 188.225C232.926 188.192 232.984 188.175 233.018 188.175C233.068 188.175 233.126 188.175 233.193 188.175C233.409 188.175 233.626 188.258 233.843 188.425C234.076 188.575 234.193 188.717 234.193 188.85C234.193 188.917 234.143 189 234.043 189.1L233.893 189.275C233.859 189.325 233.809 189.375 233.743 189.425C233.693 189.458 233.651 189.492 233.618 189.525C233.551 189.592 233.376 189.7 233.093 189.85C232.809 189.983 232.534 190.142 232.268 190.325L231.493 190.825C231.209 191.025 231.043 191.15 230.993 191.2C230.876 191.3 230.676 191.458 230.393 191.675C230.109 191.875 229.859 191.975 229.643 191.975ZM239.236 206.7C238.819 206.7 238.511 206.567 238.311 206.3C238.111 206.033 237.977 205.7 237.911 205.3C237.861 204.9 237.836 204.508 237.836 204.125C237.836 203.942 237.836 203.767 237.836 203.6C237.852 203.433 237.861 203.292 237.861 203.175C237.861 201.975 237.886 200.767 237.936 199.55C237.986 198.317 238.011 196.975 238.011 195.525C237.394 195.525 236.886 195.55 236.486 195.6C236.086 195.65 235.686 195.675 235.286 195.675C235.019 195.675 234.836 195.625 234.736 195.525C234.636 195.425 234.586 195.258 234.586 195.025C234.586 194.758 234.619 194.567 234.686 194.45C234.769 194.317 234.869 194.233 234.986 194.2L237.436 193.7C237.802 193.617 238.061 193.45 238.211 193.2C238.377 192.95 238.494 192.708 238.561 192.475C238.594 192.342 238.611 192.217 238.611 192.1C238.627 191.967 238.644 191.825 238.661 191.675C238.661 191.542 238.661 191.417 238.661 191.3C238.677 191.167 238.686 191.042 238.686 190.925C238.719 190.392 238.802 190 238.936 189.75C239.086 189.5 239.369 189.375 239.786 189.375C240.169 189.375 240.394 189.525 240.461 189.825C240.544 190.125 240.586 190.408 240.586 190.675C240.586 190.858 240.569 191.142 240.536 191.525C240.519 191.892 240.502 192.258 240.486 192.625C240.469 192.992 240.452 193.258 240.436 193.425H244.436C244.586 193.425 244.736 193.525 244.886 193.725C245.036 193.925 245.111 194.183 245.111 194.5C245.111 194.6 245.069 194.733 244.986 194.9C244.902 195.05 244.802 195.125 244.686 195.125C244.519 195.125 244.202 195.133 243.736 195.15C243.286 195.15 242.794 195.158 242.261 195.175C241.744 195.192 241.286 195.208 240.886 195.225C240.486 195.242 240.261 195.267 240.211 195.3C240.127 196.3 240.061 197.267 240.011 198.2C239.977 199.117 239.961 200.008 239.961 200.875C239.961 201.442 239.969 201.992 239.986 202.525C240.019 203.042 240.044 203.558 240.061 204.075C240.061 204.158 240.069 204.283 240.086 204.45C240.102 204.617 240.111 204.8 240.111 205C240.111 205.383 240.052 205.767 239.936 206.15C239.836 206.517 239.602 206.7 239.236 206.7ZM249.494 189.85C248.944 189.85 248.503 189.725 248.169 189.475C247.853 189.208 247.694 188.867 247.694 188.45C247.694 188.067 247.878 187.775 248.244 187.575C248.611 187.358 249.078 187.25 249.644 187.25C250.211 187.25 250.653 187.383 250.969 187.65C251.286 187.9 251.444 188.25 251.444 188.7C251.444 189.067 251.261 189.35 250.894 189.55C250.544 189.75 250.078 189.85 249.494 189.85ZM248.194 205.825C247.961 205.825 247.778 205.675 247.644 205.375C247.528 205.075 247.444 204.692 247.394 204.225C247.361 203.758 247.344 203.275 247.344 202.775C247.344 202.542 247.344 202.308 247.344 202.075C247.361 201.825 247.369 201.592 247.369 201.375C247.369 201.308 247.394 201.092 247.444 200.725C247.494 200.342 247.553 199.9 247.619 199.4C247.686 198.9 247.753 198.408 247.819 197.925C247.903 197.425 247.969 197.033 248.019 196.75C248.069 196.533 248.128 196.25 248.194 195.9C248.261 195.533 248.378 195.208 248.544 194.925C248.728 194.625 248.986 194.475 249.319 194.475C249.703 194.475 249.969 194.55 250.119 194.7C250.286 194.833 250.369 195.05 250.369 195.35C250.369 195.433 250.361 195.517 250.344 195.6C250.344 195.683 250.336 195.775 250.319 195.875C250.236 196.408 250.128 197.075 249.994 197.875C249.878 198.658 249.769 199.483 249.669 200.35C249.586 201.2 249.561 202.008 249.594 202.775C249.611 202.958 249.628 203.175 249.644 203.425C249.678 203.658 249.694 203.892 249.694 204.125C249.694 204.558 249.603 204.95 249.419 205.3C249.236 205.65 248.828 205.825 248.194 205.825ZM254.287 205.95C254.021 205.95 253.804 205.875 253.637 205.725C253.471 205.558 253.387 205.358 253.387 205.125C253.387 204.542 253.404 203.967 253.437 203.4C253.487 202.833 253.512 202.258 253.512 201.675V199.9C253.512 199.417 253.504 198.933 253.487 198.45C253.471 197.95 253.437 197.4 253.387 196.8C253.337 196.333 253.237 195.85 253.087 195.35C252.937 194.833 252.862 194.392 252.862 194.025C252.862 193.308 253.079 192.95 253.512 192.95C254.012 192.95 254.387 193.442 254.637 194.425C254.904 195.392 255.154 196.783 255.387 198.6C255.421 198.817 255.462 198.975 255.512 199.075C255.562 199.158 255.612 199.2 255.662 199.2C255.762 199.2 255.854 199.142 255.937 199.025C256.037 198.892 256.112 198.783 256.162 198.7C256.296 198.45 256.446 198.158 256.612 197.825C256.796 197.492 256.954 197.208 257.087 196.975C257.221 196.742 257.362 196.517 257.512 196.3C257.679 196.067 257.846 195.85 258.012 195.65C258.346 195.233 258.704 194.908 259.087 194.675C259.471 194.425 259.887 194.3 260.337 194.3C260.737 194.3 261.046 194.408 261.262 194.625C261.479 194.842 261.671 195.125 261.837 195.475C261.937 195.675 262.021 195.875 262.087 196.075C262.171 196.258 262.246 196.442 262.312 196.625C262.396 196.808 262.504 197.108 262.637 197.525C262.771 197.925 262.937 198.258 263.137 198.525L263.887 197.45C264.187 197.017 264.479 196.592 264.762 196.175C265.062 195.742 265.396 195.342 265.762 194.975C266.112 194.608 266.479 194.317 266.862 194.1C267.246 193.867 267.646 193.75 268.062 193.75C268.629 193.75 269.104 193.983 269.487 194.45C269.871 194.917 270.162 195.492 270.362 196.175C270.562 196.858 270.671 197.525 270.687 198.175L270.837 203.95C270.854 204.217 270.796 204.533 270.662 204.9C270.529 205.25 270.271 205.425 269.887 205.425C269.671 205.425 269.487 205.342 269.337 205.175C269.187 204.992 269.112 204.808 269.112 204.625V199.65C269.112 199.317 269.087 198.933 269.037 198.5C268.987 198.05 268.904 197.617 268.787 197.2C268.687 196.783 268.546 196.442 268.362 196.175C268.179 195.892 267.946 195.75 267.662 195.75C267.212 195.75 266.804 195.967 266.437 196.4C266.071 196.817 265.729 197.383 265.412 198.1C265.112 198.8 264.804 199.575 264.487 200.425C264.171 201.508 263.896 202.233 263.662 202.6C263.446 202.967 263.212 203.15 262.962 203.15C262.746 203.15 262.571 203.1 262.437 203C262.304 202.9 262.187 202.767 262.087 202.6C261.971 202.4 261.879 202.167 261.812 201.9C261.746 201.617 261.687 201.367 261.637 201.15L261.162 198.95C261.096 198.65 261.021 198.283 260.937 197.85C260.871 197.417 260.754 197.042 260.587 196.725C260.437 196.392 260.204 196.225 259.887 196.225C259.671 196.225 259.437 196.358 259.187 196.625C258.954 196.875 258.712 197.192 258.462 197.575C258.229 197.958 258.012 198.35 257.812 198.75C257.612 199.15 257.446 199.508 257.312 199.825C257.179 200.142 257.096 200.342 257.062 200.425C257.029 200.525 256.929 200.783 256.762 201.2C256.596 201.617 256.404 202.092 256.187 202.625C255.971 203.142 255.771 203.625 255.587 204.075C255.421 204.508 255.312 204.792 255.262 204.925C255.096 205.308 254.946 205.575 254.812 205.725C254.679 205.875 254.504 205.95 254.287 205.95ZM277.488 206.45C276.738 206.45 276.038 206.283 275.388 205.95C274.755 205.617 274.221 205.167 273.788 204.6C273.355 204.033 273.071 203.4 272.938 202.7V201.375C272.938 200.425 273.113 199.467 273.463 198.5C273.813 197.533 274.296 196.642 274.913 195.825C275.546 195.008 276.288 194.358 277.138 193.875C278.005 193.375 278.938 193.125 279.938 193.125C280.571 193.125 281.18 193.233 281.763 193.45C282.363 193.667 282.896 193.917 283.363 194.2C283.463 193.5 283.588 193.017 283.738 192.75C283.888 192.483 284.146 192.35 284.513 192.35C284.796 192.35 284.996 192.442 285.113 192.625C285.23 192.792 285.288 193.092 285.288 193.525C285.288 194.525 285.263 195.508 285.213 196.475C285.18 197.425 285.163 198.4 285.163 199.4C285.163 200.2 285.205 201.025 285.288 201.875C285.388 202.725 285.438 203.542 285.438 204.325C285.438 204.575 285.438 204.825 285.438 205.075C285.455 205.325 285.413 205.533 285.313 205.7C285.23 205.85 285.046 205.925 284.763 205.925C284.363 205.925 284.063 205.742 283.863 205.375C283.68 204.992 283.555 204.533 283.488 204C283.421 203.467 283.355 202.967 283.288 202.5C283.121 202.95 282.838 203.392 282.438 203.825C282.055 204.258 281.663 204.633 281.263 204.95C280.88 205.25 280.58 205.467 280.363 205.6C280.163 205.717 280.163 205.7 280.363 205.55C279.996 205.817 279.538 206.033 278.988 206.2C278.455 206.367 277.955 206.45 277.488 206.45ZM277.238 204.875C277.988 204.875 278.688 204.658 279.338 204.225C279.988 203.792 280.555 203.233 281.038 202.55C281.538 201.867 281.921 201.15 282.188 200.4C282.471 199.65 282.613 198.958 282.613 198.325C282.613 198.008 282.571 197.65 282.488 197.25C282.421 196.833 282.288 196.433 282.088 196.05C281.888 195.667 281.613 195.35 281.263 195.1C280.93 194.85 280.488 194.725 279.938 194.725C279.221 194.725 278.538 194.958 277.888 195.425C277.238 195.875 276.655 196.458 276.138 197.175C275.638 197.875 275.246 198.6 274.963 199.35C274.68 200.1 274.538 200.775 274.538 201.375C274.538 201.825 274.613 202.325 274.763 202.875C274.93 203.425 275.205 203.9 275.588 204.3C275.988 204.683 276.538 204.875 277.238 204.875ZM297.963 205.325C297.58 205.325 297.33 205.267 297.213 205.15C297.096 205.033 297.038 204.792 297.038 204.425C297.038 203.542 297.296 202.692 297.813 201.875C298.346 201.058 298.971 200.325 299.688 199.675C299.838 199.575 300.096 199.392 300.463 199.125C300.846 198.842 301.246 198.542 301.663 198.225C302.096 197.908 302.488 197.625 302.838 197.375C303.205 197.108 303.455 196.925 303.588 196.825C304.221 196.342 304.771 195.783 305.238 195.15C305.721 194.517 305.963 193.75 305.963 192.85C305.963 192.367 305.846 191.917 305.613 191.5C305.38 191.067 305.055 190.725 304.638 190.475C304.238 190.208 303.78 190.075 303.263 190.075C302.413 190.075 301.713 190.233 301.163 190.55C300.63 190.867 300.163 191.192 299.763 191.525C299.68 191.608 299.588 191.692 299.488 191.775C299.388 191.842 299.296 191.917 299.213 192C298.996 192.183 298.771 192.35 298.538 192.5C298.305 192.633 298.03 192.7 297.713 192.7C297.63 192.7 297.538 192.65 297.438 192.55C297.355 192.433 297.313 192.258 297.313 192.025C297.313 191.508 297.521 191.033 297.938 190.6C298.371 190.15 298.913 189.758 299.563 189.425C300.213 189.092 300.88 188.833 301.563 188.65C302.263 188.467 302.871 188.375 303.388 188.375C304.271 188.375 305.055 188.583 305.738 189C306.438 189.417 306.988 189.975 307.388 190.675C307.788 191.375 307.988 192.142 307.988 192.975C307.988 193.908 307.713 194.808 307.163 195.675C306.63 196.525 305.988 197.242 305.238 197.825L300.438 201.4L298.588 203.225H300.288C301.088 203.225 301.871 203.158 302.638 203.025C303.405 202.892 304.196 202.825 305.013 202.825C305.163 202.825 305.338 202.825 305.538 202.825C305.755 202.825 305.971 202.833 306.188 202.85C306.421 202.85 306.655 202.867 306.888 202.9C307.121 202.917 307.346 202.942 307.563 202.975C308.463 203.158 308.913 203.508 308.913 204.025C308.913 204.292 308.846 204.492 308.713 204.625C308.58 204.742 308.338 204.8 307.988 204.8C307.438 204.8 306.888 204.758 306.338 204.675C305.805 204.575 305.23 204.525 304.613 204.525H303.463L298.588 205.325H297.963Z" fill="#032B3D"/>
<rect x="190" y="43" width="142.63" height="134" fill="black"/>
<path opacity="0.1" d="M332.63 177V43L207.829 177H332.63Z" fill="white"/>
<path opacity="0.15" d="M332.63 43H261.315L190 161.686V177H207.829L332.63 43Z" fill="white"/>
<path opacity="0.3" d="M332.63 177V104.257L243.486 177H332.63Z" fill="black"/>
<path opacity="0.1" d="M190 43.0001V161.686L261.315 43.0001H190Z" fill="white"/>
</g>
<path d="M259.309 32.2219L251.117 37.6208L262.402 50.5436L264.204 50.5531L265.874 49.4525L266.576 47.7921L259.309 32.2219Z" fill="#A9A9A9"/>
<path d="M252.233 39.3144L258.563 35.1426L262.402 50.5436L252.233 39.3144Z" fill="#878787"/>
<path d="M242.059 42.393L254.584 34.1385L267.108 25.884L267.714 26.8025L268.823 36.0442L260.637 43.3232L251.458 47.4887L242.664 43.3114L242.059 42.393Z" fill="#AB1E27"/>
<path d="M242.785 34.3294L249.631 26.6239L260.15 22.885L267.108 25.8841L267.801 34.4937L259.536 41.6533L250.436 45.9382L242.059 42.393L242.785 34.3294Z" fill="#D32833"/>
<path opacity="0.8" d="M242.437 36.2447L247.392 30.4949L255.171 27.852L260.428 30.2864L261.122 36.8811L255.096 42.1845L248.388 45.2737L242.059 42.393L242.437 36.2447Z" fill="#A11B24"/>
<path d="M250.561 8.0459L232.192 20.1524L250.061 37.0519L257.354 34.7078L259.044 31.1314L250.561 8.0459Z" fill="#D32833"/>
<path d="M232.192 20.1524L250.561 8.0459L253.844 16.6612L257.354 34.7078L254.707 37.0513L250.061 37.0519L232.192 20.1524Z" fill="#A11B24"/>
<path d="M250.061 37.052L239.282 26.8576L250.58 30.7891L254.707 37.0514L250.061 37.052Z" fill="#811219"/>
<path d="M232.57 14.0042L237.524 8.25445L245.304 5.61157L250.561 8.04595L251.254 14.6406L245.229 19.944L238.52 23.0332L232.192 20.1525L232.57 14.0042Z" fill="#D32833"/>
<g filter="url(#filter1_d_399_25342)">
<path d="M164 135H0.00012207V231H120.842L164 207V135Z" fill="#FFCDD0"/>
<path opacity="0.5" d="M122.692 210.5L117.143 231H120.842L164 207L122.692 210.5Z" fill="#F3A4A9"/>
<path d="M120.842 231L164 207L127.624 208L120.842 231Z" fill="#F3A4A9"/>
</g>
<g filter="url(#filter2_d_399_25342)">
<path d="M0.00012207 27H164V123H15.4137L10.4813 118.5L1.2332 85.5L0.00012207 68.5V27Z" fill="#D4F3FF"/>
<path d="M19.7294 123H16.6467L10.4813 118.523L1.2332 85.907L0.00012207 68L11.7144 89.7442L34.5264 116.605L27.1279 114.686L20.9625 117.884L19.7294 123Z" fill="#B2DDEE"/>
<path d="M16.9865 123H15.0991L10.4813 118.5L1.25837 85.907L0.00012207 68L10.6952 91.0233L30.8272 114.047L24.536 112.128L18.2447 115.326L16.9865 123Z" fill="#91C9DF"/>
</g>
<defs>
<filter id="filter0_d_399_25342" x="183" y="37" width="162.296" height="192.395" filterUnits="userSpaceOnUse" color-interpolation-filters="sRGB">
<feFlood flood-opacity="0" result="BackgroundImageFix"/>
<feColorMatrix in="SourceAlpha" type="matrix" values="0 0 0 0 0 0 0 0 0 0 0 0 0 0 0 0 0 0 127 0" result="hardAlpha"/>
<feOffset dx="6.29605" dy="8.39474"/>
<feComposite in2="hardAlpha" operator="out"/>
<feColorMatrix type="matrix" values="0 0 0 0 0.366667 0 0 0 0 0.199655 0 0 0 0 0.113056 0 0 0 0.3 0"/>
<feBlend mode="normal" in2="BackgroundImageFix" result="effect1_dropShadow_399_25342"/>
<feBlend mode="normal" in="SourceGraphic" in2="effect1_dropShadow_399_25342" result="shape"/>
</filter>
<filter id="filter1_d_399_25342" x="0.00012207" y="135" width="168" height="102" filterUnits="userSpaceOnUse" color-interpolation-filters="sRGB">
<feFlood flood-opacity="0" result="BackgroundImageFix"/>
<feColorMatrix in="SourceAlpha" type="matrix" values="0 0 0 0 0 0 0 0 0 0 0 0 0 0 0 0 0 0 127 0" result="hardAlpha"/>
<feOffset dx="4" dy="6"/>
<feComposite in2="hardAlpha" operator="out"/>
<feColorMatrix type="matrix" values="0 0 0 0 0.366667 0 0 0 0 0.199655 0 0 0 0 0.113056 0 0 0 0.3 0"/>
<feBlend mode="normal" in2="BackgroundImageFix" result="effect1_dropShadow_399_25342"/>
<feBlend mode="normal" in="SourceGraphic" in2="effect1_dropShadow_399_25342" result="shape"/>
</filter>
<filter id="filter2_d_399_25342" x="0.00012207" y="27" width="168" height="102" filterUnits="userSpaceOnUse" color-interpolation-filters="sRGB">
<feFlood flood-opacity="0" result="BackgroundImageFix"/>
<feColorMatrix in="SourceAlpha" type="matrix" values="0 0 0 0 0 0 0 0 0 0 0 0 0 0 0 0 0 0 127 0" result="hardAlpha"/>
<feOffset dx="4" dy="6"/>
<feComposite in2="hardAlpha" operator="out"/>
<feColorMatrix type="matrix" values="0 0 0 0 0.366667 0 0 0 0 0.199655 0 0 0 0 0.113056 0 0 0 0.3 0"/>
<feBlend mode="normal" in2="BackgroundImageFix" result="effect1_dropShadow_399_25342"/>
<feBlend mode="normal" in="SourceGraphic" in2="effect1_dropShadow_399_25342" result="shape"/>
</filter>
</defs>
</svg>
