<svg width="237" height="237" viewBox="0 0 237 237" fill="none" xmlns="http://www.w3.org/2000/svg">
<path d="M201.402 236.486L236.5 92.0177L118.5 0.486333L0.499994 92.0177L35.5981 236.486L201.402 236.486Z" fill="white" fill-opacity="0.3"/>
<g clip-path="url(#clip0_612_41092)">
<g filter="url(#filter0_d_612_41092)">
<path d="M129.117 133.568C129.508 136.875 129.899 140.233 130.293 143.598C130.682 146.949 131.066 150.309 131.445 153.603C131.886 156.885 132.265 160.129 132.807 163.233C133.254 166.353 133.917 169.316 134.474 172.137C134.79 173.534 135.172 174.876 135.501 176.186C135.564 176.451 135.643 176.712 135.704 176.971C135.697 176.973 135.682 176.978 135.674 176.981C135.172 177.115 134.675 177.239 134.175 177.356C133.841 177.341 133.511 177.333 133.175 177.31C133.136 177.146 133.093 176.991 133.052 176.819C132.736 175.472 132.367 174.092 132.071 172.654C131.544 169.772 130.924 166.736 130.522 163.576C130.031 160.42 129.705 157.159 129.311 153.844C128.986 150.532 128.65 147.164 128.316 143.804C127.975 140.446 127.635 137.088 127.304 133.786C126.892 130.494 126.562 127.243 126.067 124.131C125.832 122.571 125.629 121.034 125.37 119.532C125.097 118.036 124.828 116.58 124.562 115.157C124.434 114.448 124.299 113.741 124.171 113.057C124.018 112.374 123.86 111.7 123.715 111.039C123.406 109.715 123.113 108.436 122.827 107.205C122.564 105.967 122.228 104.813 121.908 103.703C121.59 102.602 121.289 101.554 121.009 100.566C120.487 98.5784 119.852 96.9072 119.371 95.5221C118.393 92.7494 117.836 91.1618 117.836 91.1618L117.826 91.1314C117.727 90.8351 117.873 90.516 118.165 90.4096C118.461 90.3108 118.772 90.4601 118.883 90.7437C118.883 90.7437 119.475 92.3364 120.507 95.1167C121.023 96.5069 121.688 98.1932 122.246 100.186C122.543 101.176 122.869 102.224 123.207 103.336C123.553 104.445 123.91 105.61 124.19 106.851C124.493 108.084 124.814 109.37 125.143 110.705C125.306 111.368 125.475 112.047 125.638 112.736C125.778 113.432 125.921 114.136 126.067 114.847C126.353 116.281 126.649 117.744 126.95 119.248C127.234 120.75 127.457 122.297 127.721 123.865C128.273 126.999 128.657 130.258 129.122 133.558L129.117 133.568Z" fill="#5B3939"/>
<g style="mix-blend-mode:screen" opacity="0.7">
<path d="M127.157 124.645C127.546 126.837 127.838 129.046 128.157 131.38C128.29 132.358 128.416 133.338 128.56 134.32L129.732 144.335L130.883 154.34C130.991 155.166 131.101 155.973 131.204 156.784C131.53 159.293 131.841 161.656 132.248 164.003C132.597 166.454 133.08 168.802 133.547 171.078L133.92 172.922C134.129 173.848 134.358 174.735 134.59 175.603C134.715 176.077 134.837 176.543 134.949 177.004L134.99 177.125C134.99 177.125 134.982 177.128 134.985 177.135C134.712 177.201 134.435 177.277 134.17 177.34C134.005 177.328 133.846 177.33 133.682 177.318C133.57 176.857 133.455 176.388 133.338 175.912C133.116 175.024 132.9 174.125 132.706 173.193L132.371 171.387C131.936 169.058 131.476 166.652 131.165 164.163C130.791 161.788 130.523 159.402 130.235 156.88C130.139 156.067 130.052 155.252 129.954 154.432L128.961 144.399L127.949 134.381C127.826 133.383 127.707 132.401 127.594 131.434C127.316 129.094 127.058 126.891 126.702 124.695C126.62 124.148 126.536 123.594 126.461 123.044C126.313 122.047 126.177 121.062 126.013 120.094L124.819 113.609L124.087 110.391L123.472 107.724C123.209 106.486 122.876 105.339 122.553 104.222L121.644 101.055C121.208 99.4012 120.698 97.9756 120.25 96.7146L120.22 96.6234L120.255 96.7298C120.72 97.968 121.244 99.3809 121.702 101.002L122.669 104.167C123.017 105.283 123.368 106.433 123.646 107.641L125.107 113.538L126.412 120.028C126.591 120.991 126.752 121.976 126.911 122.978C127 123.523 127.085 124.077 127.185 124.627L127.157 124.645Z" fill="white"/>
</g>
<g style="mix-blend-mode:screen" opacity="0.4">
<path d="M134.341 177.3C134.26 176.956 134.178 176.611 134.086 176.262C133.867 175.381 133.651 174.482 133.462 173.565C133.462 173.565 133.083 171.529 133.058 171.403C133.081 171.496 133.492 173.53 133.492 173.53C133.706 174.472 133.938 175.365 134.172 176.242C134.264 176.591 134.353 176.933 134.44 177.267C134.409 177.277 134.379 177.287 134.349 177.298L134.341 177.3Z" fill="#5B3939"/>
</g>
<path d="M120.696 77.8465C121.38 77.8287 122.9 83.1994 123.291 87.7904C123.641 91.88 122.661 99.5657 121.366 99.4672C120.547 99.361 121.25 91.8273 121.142 87.7832C121.022 83.4986 120.07 77.9125 120.696 77.8465Z" fill="#6DC82A"/>
<path d="M138.831 152.331C139.657 152.46 140.296 159.198 139.761 164.767C139.289 169.722 136.438 178.685 134.925 178.287C133.972 177.981 136.452 169.143 137.201 164.288C137.99 159.15 138.071 152.273 138.831 152.331Z" fill="#6DC82A"/>
<path d="M134.91 178.242C134.598 177.865 137.539 166.329 137.697 164.334L137.814 162.825C137.947 161.082 138.064 159.345 138.204 157.6C138.305 156.393 138.644 152.351 138.829 152.399C139.056 152.45 139.46 156.927 139.522 158.671C139.592 160.566 139.602 162.48 139.416 164.367C139.407 164.513 139.387 164.655 139.369 164.805C138.923 168.603 135.824 178.46 134.899 178.237L134.91 178.242Z" fill="white"/>
<path d="M113.676 87.1566C114.803 88.6631 117.411 91.5241 119.105 92.5873C119.244 92.6759 119.416 92.5341 119.355 92.3771C118.466 90.1235 116.648 87.2345 116.02 86.2875C113.765 82.92 109.371 77.3118 108.427 77.4082C108.07 78.4566 112.192 85.1867 113.678 87.1641L113.676 87.1566Z" fill="#6DC82A"/>
<path d="M141.967 178.955C141.77 181.487 140.86 186.615 139.701 189.039C139.608 189.239 139.308 189.196 139.262 188.983C138.646 185.785 138.631 181.186 138.673 179.652C138.815 174.19 139.773 164.653 140.911 164.078C142.072 165.007 142.227 175.632 141.967 178.955Z" fill="#6DC82A"/>
<path d="M139.439 188.958C139.034 188.756 139.336 181.28 139.38 179.677C139.507 174.575 140.263 166.694 140.913 164.086C141.407 166.97 141.518 175.625 141.26 178.905C141.09 181.09 139.932 189.123 139.439 188.958Z" fill="white"/>
<path d="M136.996 161.612C136.415 164.079 134.742 169.014 133.227 171.228C133.103 171.413 132.813 171.324 132.807 171.106C132.686 167.852 133.371 163.307 133.64 161.797C134.603 156.424 137.004 147.147 138.217 146.75C139.225 147.848 137.764 158.373 137.003 161.609L136.996 161.612Z" fill="#6DC82A"/>
<path d="M130.857 126.845C130.692 128.969 129.932 133.287 128.962 135.318C128.884 135.488 128.629 135.455 128.593 135.273C128.072 132.583 128.058 128.719 128.09 127.433C128.204 122.842 128.999 114.829 129.955 114.34C130.931 115.12 131.068 124.054 130.857 126.845Z" fill="#6DC82A"/>
<path d="M125.425 102.467C125.528 104.308 125.39 108.096 124.791 109.953C124.741 110.105 124.523 110.11 124.473 109.958C123.723 107.717 123.253 104.402 123.127 103.296C122.691 99.3528 122.438 92.384 123.205 91.8571C124.133 92.4166 125.291 100.054 125.433 102.465L125.425 102.467Z" fill="#6DC82A"/>
<path d="M119.472 87.3453C119.764 89.1482 120.005 92.8858 119.602 94.7775C119.57 94.932 119.35 94.9549 119.287 94.8156C118.312 92.6836 117.525 89.4753 117.29 88.3966C116.46 84.5603 115.511 77.7233 116.214 77.1331C117.182 77.5862 119.095 84.9878 119.474 87.3529L119.472 87.3453Z" fill="#6DC82A"/>
<path d="M119.405 94.7674C119.087 94.6966 118.035 89.4144 117.787 88.2977C117.016 84.7121 116.198 79.0728 116.209 77.1432C117.049 79.0752 118.585 85.0993 118.964 87.439C119.215 88.9938 119.774 94.813 119.4 94.7776L119.405 94.7674Z" fill="white"/>
<path d="M133.723 143.886C133.218 146.049 131.751 150.367 130.419 152.299C130.313 152.461 130.053 152.388 130.047 152.196C129.938 149.352 130.542 145.373 130.774 144.054C131.617 139.354 133.715 131.235 134.778 130.888C135.664 131.85 134.384 141.055 133.716 143.889L133.723 143.886Z" fill="#6DC82A"/>
<path d="M126.193 175.516C127.97 177.329 131.963 180.681 134.405 181.79C134.604 181.883 134.806 181.655 134.699 181.463C133.115 178.614 130.172 175.08 129.157 173.933C125.547 169.836 118.685 163.145 117.443 163.434C117.149 164.892 123.857 173.139 126.183 175.511L126.193 175.516Z" fill="#6DC82A"/>
<path d="M125.226 149.687C126.127 151.624 128.352 155.407 129.987 156.972C130.124 157.103 130.346 156.987 130.315 156.794C129.857 154.092 128.508 150.464 128.03 149.264C126.309 145 122.739 137.755 121.673 137.639C121.032 138.715 124.046 147.142 125.231 149.677L125.226 149.687Z" fill="#6DC82A"/>
<path d="M130.166 156.827C130.426 156.546 127.978 150.743 127.476 149.492C125.873 145.509 122.955 139.508 121.668 137.649C122.126 140.073 124.588 146.927 125.766 149.439C126.545 151.113 129.824 157.111 130.169 156.835L130.166 156.827Z" fill="white"/>
<path d="M123.984 131.941C124.783 133.65 126.743 136.99 128.183 138.375C128.304 138.486 128.498 138.387 128.468 138.22C128.066 135.837 126.874 132.629 126.448 131.581C124.927 127.816 121.778 121.427 120.836 121.329C120.27 122.278 122.926 129.71 123.971 131.954L123.984 131.941Z" fill="#6DC82A"/>
<path d="M128.342 138.246C128.571 138 126.41 132.877 125.966 131.776C124.546 128.264 121.974 122.967 120.844 121.326C121.248 123.463 123.423 129.51 124.458 131.723C125.146 133.199 128.037 138.491 128.342 138.246Z" fill="white"/>
<path d="M121.67 113.759C122.47 115.468 124.429 118.808 125.869 120.193C125.991 120.305 126.185 120.206 126.154 120.039C125.752 117.656 124.561 114.448 124.134 113.399C122.616 109.642 119.465 103.246 118.523 103.147C117.956 104.097 120.612 111.529 121.658 113.772L121.67 113.759Z" fill="#6DC82A"/>
<path d="M126.028 120.064C126.258 119.818 124.097 114.696 123.652 113.594C122.233 110.082 119.66 104.785 118.53 103.144C118.934 105.282 121.109 111.328 122.145 113.541C122.832 115.018 125.723 120.31 126.028 120.064Z" fill="white"/>
<path d="M116.169 96.5687C117.296 98.0752 119.904 100.936 121.598 101.999C121.737 102.088 121.909 101.946 121.848 101.789C120.961 99.5432 119.142 96.6466 118.513 95.6996C116.258 92.3321 111.864 86.7239 110.92 86.8203C110.563 87.8687 114.685 94.5988 116.172 96.5763L116.169 96.5687Z" fill="#6DC82A"/>
<path d="M127.523 91.9576C128.208 92.041 128.899 97.579 128.594 102.175C128.323 106.27 126.193 113.715 124.942 113.424C124.149 113.192 125.978 105.855 126.48 101.844C127.01 97.5946 126.907 91.9273 127.531 91.9551L127.523 91.9576Z" fill="#6DC82A"/>
<path d="M135.89 117.811C136.537 118.034 136.074 123.595 134.829 128.024C133.724 131.967 130.106 138.812 128.93 138.268C128.202 137.878 131.508 131.078 132.822 127.26C134.212 123.213 135.281 117.651 135.89 117.811Z" fill="#6DC82A"/>
<path d="M134.6 101.179C135.136 101.447 134.086 106.183 132.498 109.865C131.083 113.135 127.161 118.62 126.215 118.008C125.636 117.585 129.276 112.11 130.852 108.972C132.524 105.641 134.092 100.969 134.6 101.179Z" fill="#6DC82A"/>
<path d="M126.213 117.975C126.089 117.653 130.633 110.43 131.186 109.113L131.6 108.113C132.08 106.956 132.542 105.796 133.014 104.641C133.343 103.838 134.468 101.164 134.585 101.235C134.724 101.323 134.016 104.466 133.678 105.669C133.307 106.976 132.894 108.28 132.353 109.534C132.311 109.632 132.265 109.724 132.223 109.822C131.077 112.309 126.792 118.347 126.208 117.985L126.213 117.975Z" fill="white"/>
<path d="M112.146 106.759C111.647 107.23 114.328 112.12 117.265 115.664C119.878 118.819 125.97 123.614 126.822 122.637C127.328 121.986 121.546 117.112 118.787 114.15C115.868 111.013 112.628 106.362 112.144 106.752L112.146 106.759Z" fill="#6DC82A"/>
<path d="M117.697 123.342C117.107 123.692 118.664 129.05 120.759 133.147C122.629 136.795 127.526 142.801 128.568 142.039C129.2 141.514 124.618 135.496 122.575 132.007C120.403 128.308 118.259 123.061 117.697 123.342Z" fill="#6DC82A"/>
<path d="M128.573 142.003C128.698 141.623 122.937 133.668 122.207 132.189L121.656 131.073C121.022 129.781 120.403 128.485 119.769 127.193C119.325 126.295 117.836 123.304 117.715 123.395C117.558 123.507 118.604 127.059 119.09 128.409C119.616 129.88 120.185 131.354 120.902 132.744C120.956 132.853 121.017 132.959 121.07 133.068C122.564 135.846 127.932 142.454 128.573 142.003Z" fill="white"/>
<path d="M120.105 142.109C119.515 142.458 121.07 147.809 123.168 151.913C125.037 155.562 129.935 161.568 130.976 160.805C131.609 160.281 127.027 154.263 124.983 150.774C122.818 147.072 120.668 141.828 120.105 142.109Z" fill="#6DC82A"/>
<path d="M130.981 160.77C131.106 160.39 125.345 152.435 124.615 150.956L124.064 149.839C123.43 148.548 122.811 147.252 122.177 145.96C121.733 145.061 120.244 142.071 120.115 142.165C119.959 142.276 121.005 145.829 121.49 147.178C122.016 148.65 122.585 150.123 123.303 151.513C123.356 151.622 123.417 151.729 123.47 151.837C124.964 154.615 130.333 161.223 130.973 160.772L130.981 160.77Z" fill="white"/>
<path d="M115.16 173.566C114.738 174.265 119.42 178.999 123.953 182.103C127.992 184.865 136.543 188.356 137.197 186.963C137.563 186.046 129.335 182.363 125.2 179.87C120.823 177.229 115.588 172.958 115.153 173.569L115.16 173.566Z" fill="#6DC82A"/>
<path d="M114.4 148.529C113.858 149.074 117.092 154.462 120.548 158.323C123.627 161.761 130.686 166.883 131.603 165.748C132.142 164.993 125.425 159.765 122.196 156.555C118.776 153.155 114.926 148.066 114.4 148.529Z" fill="#6DC82A"/>
<path d="M131.595 165.7C131.622 165.252 123.068 158.257 121.85 156.856L120.931 155.796C119.873 154.57 118.827 153.332 117.764 152.117C117.024 151.266 114.548 148.446 114.432 148.577C114.294 148.742 116.456 152.309 117.366 153.644C118.356 155.095 119.4 156.528 120.58 157.839C120.673 157.943 120.765 158.039 120.858 158.143C123.281 160.728 131.024 166.381 131.588 165.702L131.595 165.7Z" fill="white"/>
<path d="M137.625 134.919C138.272 135.142 137.81 140.703 136.565 145.132C135.46 149.075 131.841 155.92 130.666 155.376C129.937 154.986 133.238 148.196 134.558 144.367C135.948 140.321 137.016 134.759 137.625 134.919Z" fill="#6DC82A"/>
<g style="mix-blend-mode:screen">
<path d="M122.031 93.5086C122.142 90.9206 122.242 88.4794 122.16 87.6792L122.031 86.4384C121.958 85.7446 121.752 83.8201 121.721 83.5516C121.966 84.7114 122.229 86.1269 122.349 87.5652L122.375 87.9197C122.472 89.4163 122.28 91.9385 122 94.1949C122.007 93.9644 122.022 93.7314 122.031 93.5086Z" fill="white"/>
</g>
<g style="mix-blend-mode:screen">
<path d="M115.839 88.0374C115.323 87.4247 114.875 86.8651 114.576 86.4752C113.983 85.6852 113.111 84.3635 112.219 82.9304C113.245 84.285 114.266 85.7004 115.077 86.9157C115.077 86.9157 115.695 87.8323 115.837 88.0298L115.839 88.0374Z" fill="white"/>
</g>
<g style="mix-blend-mode:screen">
<path d="M134.008 167.123C134.275 165.53 134.589 163.854 134.744 163.008L134.924 162.035C135.462 159.042 136.35 155.205 137.187 152.07C136.793 155.446 136.18 159.326 135.715 161.306C135.41 162.608 134.685 165.046 134.006 167.115L134.008 167.123Z" fill="white"/>
</g>
<g style="mix-blend-mode:screen">
<path d="M129.2 130.398C129.224 129.537 129.25 128.759 129.259 128.283L129.28 127.465C129.333 125.361 129.504 122.753 129.728 120.38C129.779 122.821 129.762 125.336 129.647 126.751C129.581 127.584 129.402 128.987 129.193 130.4L129.2 130.398Z" fill="white"/>
</g>
<g style="mix-blend-mode:screen">
<path d="M124.238 103.169C124.086 101.835 123.966 100.244 123.874 98.6869C124.09 100.211 124.252 101.627 124.302 102.531C124.326 102.954 124.342 103.556 124.344 104.24C124.333 104.108 124.233 103.179 124.233 103.179L124.238 103.169Z" fill="white"/>
</g>
<g style="mix-blend-mode:screen">
<path d="M131.366 147.658C131.55 146.624 131.725 145.662 131.835 145.11L131.992 144.272C132.401 141.998 133.041 139.156 133.684 136.652C133.342 139.301 132.893 142.086 132.533 143.601C132.318 144.517 131.86 146.115 131.371 147.647L131.366 147.658Z" fill="white"/>
</g>
<g style="mix-blend-mode:screen">
<path d="M131.605 178.681C129.953 177.266 128.065 175.549 127.131 174.595C125.711 173.144 123.171 170.133 121.079 167.455C123.423 169.703 126.169 172.526 128.187 174.807L128.845 175.541C129.422 176.184 130.554 177.453 131.612 178.678L131.605 178.681Z" fill="white"/>
</g>
<g style="mix-blend-mode:screen">
<path d="M128.03 152.457C127.333 151.203 126.669 149.948 126.313 149.188C125.714 147.902 124.808 145.544 123.992 143.232C125.04 145.382 126.126 147.772 126.908 149.732L127.218 150.482C127.401 150.927 127.703 151.654 128.023 152.459L128.03 152.457Z" fill="white"/>
</g>
<g style="mix-blend-mode:screen">
<path d="M125.922 133.252C125.544 132.551 125.219 131.908 125.014 131.47C124.597 130.579 124.011 129.102 123.439 127.52C124.165 129.059 124.873 130.647 125.419 132.002C125.419 132.002 125.838 133.027 125.929 133.25L125.922 133.252Z" fill="white"/>
</g>
<g style="mix-blend-mode:screen">
<path d="M118.333 97.4495C117.817 96.8368 117.368 96.2772 117.069 95.8873C116.477 95.0973 115.605 93.7756 114.713 92.3425C115.739 93.6971 116.76 95.1125 117.57 96.3278C117.57 96.3278 118.189 97.2444 118.331 97.4419L118.333 97.4495Z" fill="white"/>
</g>
<g style="mix-blend-mode:screen">
<path d="M126.48 107.63C126.977 105.09 127.438 102.697 127.48 101.89L127.542 100.644C127.579 99.9472 127.663 98.01 127.675 97.7441C127.743 98.9292 127.787 100.368 127.697 101.808L127.67 102.155C127.536 103.644 126.971 106.106 126.35 108.299C126.4 108.071 126.442 107.846 126.477 107.623L126.48 107.63Z" fill="white"/>
</g>
<g style="mix-blend-mode:screen">
<path d="M131.64 132.935C132.645 130.554 133.602 128.308 133.805 127.53L134.126 126.325C134.298 125.659 134.782 123.782 134.852 123.514C134.673 124.689 134.423 126.107 134.03 127.497L133.932 127.834C133.493 129.265 132.433 131.554 131.382 133.57C131.47 133.355 131.56 133.147 131.651 132.94L131.64 132.935Z" fill="white"/>
</g>
<g style="mix-blend-mode:screen">
<path d="M122.683 119.325C120.897 117.913 118.994 116.252 118.017 115.118L117.791 114.847C116.865 113.738 116.059 112.538 115.423 111.542C115.598 111.763 116.796 113.279 117.229 113.819L118.009 114.791C118.513 115.416 120.299 117.082 122.19 118.857C122.349 119.006 122.519 119.161 122.691 119.323L122.683 119.325Z" fill="white"/>
</g>
<g style="mix-blend-mode:screen">
<path d="M127.656 156.671C126.22 154.896 124.723 152.863 124.013 151.546L123.851 151.237C123.191 149.946 122.66 148.611 122.261 147.495C122.373 147.728 123.218 149.472 123.532 150.11L124.083 151.227C124.443 151.951 125.816 153.967 127.271 156.098C127.4 156.283 127.532 156.476 127.663 156.668L127.656 156.671Z" fill="white"/>
</g>
<g style="mix-blend-mode:screen">
<path d="M133.476 185.48C130.547 184.399 126.54 182.614 124.57 181.331L124.221 181.093C122.562 179.959 121.054 178.647 119.923 177.632C119.667 177.397 119.353 177.113 119.017 176.786C119.072 176.827 119.128 176.867 119.184 176.908C119.909 177.417 120.63 177.936 121.344 178.457C122.019 178.941 122.687 179.427 123.367 179.9L124.581 180.761C125.363 181.31 127.944 182.634 130.687 184.039C131.562 184.49 132.556 184.994 133.484 185.477L133.476 185.48Z" fill="white"/>
</g>
<g style="mix-blend-mode:screen">
<path d="M128.052 163.186C125.674 161.541 122.722 159.235 121.307 157.723L121.041 157.432C119.778 156.022 118.681 154.48 117.873 153.297C117.759 153.133 117.634 152.938 117.495 152.722C117.979 153.287 118.462 153.852 118.946 154.416C119.455 155.006 119.966 155.604 120.475 156.194L121.394 157.255C121.984 157.936 124.059 159.733 126.26 161.632C126.82 162.121 127.445 162.655 128.052 163.186Z" fill="white"/>
</g>
<g style="mix-blend-mode:screen">
<path d="M133.374 150.035C134.378 147.655 135.336 145.408 135.538 144.631L135.859 143.425C136.039 142.757 136.515 140.883 136.585 140.614C136.406 141.789 136.156 143.208 135.763 144.598L135.665 144.935C135.227 146.366 134.166 148.655 133.107 150.673C133.195 150.458 133.286 150.25 133.376 150.043L133.374 150.035Z" fill="white"/>
</g>
<path d="M115.596 91.1091C114.571 88.8758 112.369 82.2467 113.262 81.897C114.039 81.6032 117.014 86.9939 118.488 89.9893C120.971 95.0458 123.895 102.65 122.846 103.06C122.013 103.364 118.068 96.5075 115.594 91.1015L115.596 91.1091Z" fill="#6DC82A"/>
<path d="M121.506 100.088C120.063 97.6898 118.128 94.0715 116.568 90.6659C115.941 89.296 114.983 86.6347 114.334 84.4444C115.307 86.1206 116.494 88.3589 117.529 90.4707C119.194 93.8586 120.656 97.5251 121.508 100.095L121.506 100.088Z" fill="white"/>
<path d="M118.585 94.8056C117.996 92.4178 117.051 85.4946 117.995 85.3223C118.816 85.1828 120.738 91.027 121.631 94.2505C123.131 99.687 124.596 107.686 123.498 107.902C122.627 108.041 120.019 100.576 118.585 94.8056Z" fill="#6DC82A"/>
<path d="M122.731 104.729C121.76 102.106 120.524 98.1859 119.627 94.5497C119.265 93.0912 118.82 90.3007 118.587 88.0216C119.233 89.8498 119.991 92.2655 120.614 94.5318C121.62 98.1655 122.381 102.05 122.738 104.726L122.731 104.729Z" fill="white"/>
<path d="M116.805 104.102C115.475 102.038 112.339 95.7893 113.177 95.3232C113.911 94.9255 117.614 99.8273 119.504 102.582C122.686 107.236 126.669 114.333 125.686 114.89C124.909 115.311 120.024 109.09 116.803 104.094L116.805 104.102Z" fill="#6DC82A"/>
<path d="M123.932 112.141C122.164 109.978 119.728 106.672 117.698 103.524C116.879 102.261 115.555 99.7644 114.599 97.6855C115.799 99.2098 117.296 101.243 118.629 103.187C120.757 106.302 122.735 109.72 123.942 112.146L123.932 112.141Z" fill="white"/>
<path d="M125.129 111.216C125.099 108.76 125.76 101.806 126.719 101.857C127.553 101.907 128.089 108.038 128.228 111.37C128.456 117.005 128.06 125.128 126.933 125.083C126.054 125.022 125.213 117.152 125.137 111.214L125.129 111.216Z" fill="#6DC82A"/>
<path d="M126.903 121.824C126.556 119.051 126.244 114.949 126.195 111.206C126.171 109.702 126.375 106.888 126.665 104.612C126.874 106.544 127.061 109.066 127.155 111.408C127.305 115.176 127.162 119.127 126.901 121.816L126.903 121.824Z" fill="white"/>
<path d="M124.071 128.229C123.382 125.866 122.149 118.989 123.08 118.778C123.896 118.598 126.06 124.361 127.09 127.539C128.82 132.907 130.625 140.843 129.532 141.099C128.667 141.279 125.743 133.928 124.071 128.229Z" fill="#6DC82A"/>
<path d="M128.626 137.964C127.545 135.387 126.142 131.523 125.091 127.93C124.666 126.484 124.101 123.716 123.773 121.452C124.494 123.255 125.351 125.638 126.073 127.871C127.233 131.462 128.158 135.308 128.626 137.964Z" fill="white"/>
<path d="M123.983 135.912C123.301 133.546 122.116 126.661 123.05 126.459C123.868 126.286 126.002 132.06 127.009 135.245C128.708 140.623 130.466 148.567 129.371 148.815C128.502 148.987 125.624 141.622 123.99 135.909L123.983 135.912Z" fill="#6DC82A"/>
<path d="M128.482 145.683C127.415 143.1 126.036 139.228 125.007 135.628C124.59 134.179 124.048 131.404 123.73 129.145C124.444 130.951 125.285 133.338 125.992 135.577C127.129 139.175 128.029 143.022 128.484 145.69L128.482 145.683Z" fill="white"/>
<path d="M129.954 136.726C130.338 134.3 132.166 127.564 133.104 127.774C133.917 127.966 133.408 134.092 132.976 137.404C132.244 142.988 130.481 150.927 129.375 150.689C128.513 150.479 129.021 142.588 129.952 136.718L129.954 136.726Z" fill="#6DC82A"/>
<path d="M129.908 147.478C130.033 144.682 130.425 140.598 131.005 136.898C131.242 135.416 131.915 132.674 132.589 130.488C132.47 132.42 132.228 134.943 131.92 137.267C131.429 141.005 130.619 144.875 129.908 147.478Z" fill="white"/>
<path d="M135.935 144.785C137.127 142.637 141.16 136.954 141.967 137.478C142.66 137.939 140.089 143.513 138.538 146.473C135.93 151.46 131.544 158.301 130.59 157.691C129.852 157.194 133.04 149.969 135.928 144.787L135.935 144.785Z" fill="#6DC82A"/>
<path d="M132.2 154.854C133.275 152.281 135.05 148.578 136.868 145.309C137.6 144 139.173 141.657 140.553 139.844C139.774 141.616 138.686 143.898 137.597 145.977C135.852 149.315 133.766 152.666 132.2 154.854Z" fill="white"/>
<path d="M128.771 149.565C128.589 147.109 128.821 140.129 129.778 140.122C130.611 140.122 131.526 146.201 131.865 149.526C132.435 155.13 132.542 163.271 131.421 163.292C130.534 163.285 129.214 155.49 128.771 149.565Z" fill="#6DC82A"/>
<path d="M131.201 160.046C130.678 157.298 130.123 153.226 129.842 149.494C129.727 147.995 129.759 145.171 129.903 142.885C130.23 144.794 130.574 147.306 130.809 149.643C131.189 153.393 131.291 157.346 131.194 160.048L131.201 160.046Z" fill="white"/>
<path d="M130.617 153.821C130.748 151.37 131.876 144.479 132.831 144.591C133.657 144.694 133.787 150.843 133.694 154.185C133.542 159.82 132.601 167.898 131.482 167.774C130.608 167.653 130.294 159.749 130.617 153.821Z" fill="#6DC82A"/>
<path d="M131.674 164.525C131.514 161.732 131.479 157.63 131.683 153.887C131.763 152.39 132.156 149.589 132.6 147.346C132.678 149.288 132.698 151.815 132.633 154.16C132.53 157.928 132.12 161.858 131.682 164.523L131.674 164.525Z" fill="white"/>
<path d="M126.788 161.599C125.798 159.345 123.695 152.683 124.603 152.354C125.385 152.075 128.271 157.504 129.697 160.532C132.103 165.632 134.903 173.268 133.851 173.671C133.011 173.953 129.174 167.043 126.788 161.599Z" fill="#6DC82A"/>
<path d="M133.81 173.271C133.828 173.4 133.666 173.471 133.588 173.362C132.314 171.719 129.342 166.209 127.235 161.398C126.341 159.358 124.871 154.764 124.488 152.663C124.447 152.44 124.742 152.316 124.874 152.508C125.933 154.088 127.855 157.744 129.259 160.73C131.585 165.67 133.545 171.299 133.817 173.269L133.81 173.271Z" fill="white"/>
<path d="M132.551 170.668C131.144 168.25 129.264 164.596 127.762 161.163C127.158 159.785 126.245 157.109 125.626 154.908C126.572 156.602 127.729 158.851 128.729 160.983C130.335 164.399 131.747 168.09 132.551 170.668Z" fill="white"/>
<path d="M127.156 172.457C125.818 170.396 122.677 164.157 123.512 163.683C124.244 163.278 127.962 168.175 129.855 170.937C133.042 175.581 137.033 182.676 136.059 183.238C135.282 183.659 130.384 177.45 127.156 172.457Z" fill="#6DC82A"/>
<path d="M135.955 182.851C135.996 182.972 135.842 183.066 135.746 182.98C134.22 181.565 130.413 176.604 127.555 172.189C126.338 170.315 124.162 166.026 123.445 164.01C123.371 163.79 123.644 163.623 123.801 163.79C125.097 165.172 127.577 168.481 129.446 171.201C132.535 175.7 135.367 180.944 135.953 182.843L135.955 182.851Z" fill="white"/>
<path d="M134.295 180.483C132.52 178.324 130.083 175.017 128.046 171.872C127.227 170.609 125.896 168.115 124.932 166.038C126.14 167.56 127.637 169.593 128.967 171.53C131.103 174.642 133.08 178.06 134.293 180.476L134.295 180.483Z" fill="white"/>
<path d="M133.048 172.732C132.538 170.326 131.828 163.375 132.774 163.236C133.595 163.122 135.328 169.029 136.111 172.273C137.431 177.753 138.636 185.805 137.523 185.975C136.642 186.084 134.284 178.536 133.046 172.724L133.048 172.732Z" fill="#6DC82A"/>
<path d="M136.859 182.785C135.971 180.133 134.874 176.176 134.093 172.509C133.777 171.035 133.427 168.23 133.263 165.953C133.848 167.801 134.522 170.245 135.076 172.527C135.958 176.193 136.598 180.093 136.859 182.785Z" fill="white"/>
<path d="M90.1117 91.7064C90.4448 91.595 90.8114 91.7848 90.9157 92.1216L90.9284 92.1596C90.9284 92.1596 91.5108 93.9751 92.5407 97.153C93.0544 98.7381 93.6371 100.68 94.5258 102.833C94.9475 103.916 95.3996 105.066 95.8644 106.279C96.3293 107.492 96.8246 108.77 97.4362 110.069C98.025 111.376 98.6392 112.733 99.2686 114.136C99.5884 114.84 99.9107 115.551 100.246 116.275C100.601 116.984 100.969 117.706 101.339 118.435C102.08 119.894 102.836 121.398 103.619 122.935C104.416 124.459 105.29 125.991 106.15 127.553C107.837 130.706 109.778 133.866 111.664 137.112C113.631 140.322 115.631 143.581 117.631 146.84C119.641 150.103 121.658 153.365 123.635 156.58C125.559 159.839 127.511 163.004 129.225 166.189C131.038 169.316 132.558 172.474 134.062 175.434C134.783 176.933 135.395 178.434 136.034 179.868C136.674 181.301 137.288 182.683 137.753 184.073C138.739 186.818 139.707 189.307 140.268 191.662C140.882 193.974 141.523 196.015 141.736 197.658C142.117 199.803 142.396 201.34 142.544 202.161C141.466 202.26 140.393 202.348 139.315 202.447C139.179 201.589 138.941 200.148 138.621 198.186C138.266 196.294 137.843 194.628 137.3 192.427C136.823 190.222 135.913 187.781 135 185.105C134.581 183.75 133.994 182.4 133.395 180.987C132.791 179.584 132.212 178.106 131.539 176.624C130.111 173.69 128.672 170.573 126.928 167.448C125.287 164.281 123.395 161.095 121.537 157.832C119.61 154.591 117.654 151.309 115.702 148.018C113.747 144.718 111.793 141.419 109.871 138.168C108.025 134.866 106.129 131.666 104.475 128.46C103.638 126.865 102.781 125.31 102.002 123.763C101.244 122.201 100.498 120.677 99.78 119.185C99.4222 118.443 99.0595 117.712 98.7068 116.985C98.3844 116.248 98.0671 115.526 97.76 114.81C97.1456 113.377 96.549 111.997 95.9728 110.677C95.3739 109.366 94.8962 108.064 94.4489 106.829C93.9941 105.595 93.5597 104.423 93.1506 103.327C92.2845 101.141 91.7346 99.1714 91.2386 97.5634C90.254 94.3451 89.6968 92.5042 89.6968 92.5042C89.5951 92.175 89.7786 91.8179 90.1117 91.7064Z" fill="#5B3939"/>
<g style="mix-blend-mode:screen" opacity="0.7">
<path d="M141.493 198.415C141.338 197.2 140.944 195.795 140.493 194.172C140.345 193.63 140.19 193.065 140.037 192.483C139.586 190.556 138.847 188.522 138.056 186.362L137.54 184.947C137.093 183.61 136.509 182.293 135.89 180.896L135.854 180.789C135.621 180.293 135.397 179.776 135.174 179.26C134.763 178.308 134.339 177.343 133.88 176.373L132.946 174.515C131.739 172.114 130.496 169.633 129.073 167.169C127.772 164.766 126.386 162.434 124.91 159.963C124.434 159.168 123.957 158.373 123.483 157.56L117.484 147.835L111.507 138.102C110.934 137.119 110.366 136.152 109.801 135.192C108.442 132.893 107.162 130.728 105.97 128.5C105.668 127.951 105.364 127.394 105.055 126.847C104.502 125.849 103.952 124.859 103.437 123.874L100.061 117.207L98.5151 113.797L97.2411 110.971C96.6245 109.682 96.1393 108.408 95.6693 107.18L94.3104 103.699C93.5665 101.903 93.0451 100.27 92.5797 98.8292L92.5467 98.7305L92.5873 98.852C93.0199 100.295 93.5135 101.921 94.2195 103.704L95.5229 107.221C95.9828 108.469 96.4428 109.743 97.0316 111.024L99.7707 117.347L103.049 124.097C103.548 125.087 104.086 126.09 104.626 127.1C104.92 127.652 105.217 128.212 105.514 128.771C106.67 131.02 107.918 133.212 109.241 135.532C109.794 136.504 110.347 137.476 110.904 138.464L116.722 148.301L122.558 158.115C123.027 158.938 123.488 159.738 123.95 160.538C125.38 163.025 126.728 165.369 127.966 167.759C129.333 170.208 130.515 172.659 131.654 175.032L132.583 176.951C133.035 177.923 133.433 178.888 133.822 179.822C134.035 180.334 134.246 180.838 134.454 181.334L134.515 181.466C135.106 182.856 135.665 184.172 136.087 185.509L136.573 186.91C137.31 189.037 138.006 191.042 138.407 192.893L138.529 193.384C139.018 195.349 139.398 196.912 139.736 198.674L140.325 202.321L142.173 202.158L141.503 198.395L141.493 198.415Z" fill="white"/>
</g>
<g style="mix-blend-mode:screen" opacity="0.4">
<path d="M141.004 199.094C140.847 197.897 140.468 196.512 140.025 194.911C139.875 194.362 139.719 193.797 139.564 193.207C139.113 191.305 138.378 189.287 137.606 187.155L137.088 185.732C136.645 184.41 136.074 183.106 135.46 181.724L135.424 181.617C135.191 181.121 134.967 180.605 134.741 180.08C134.333 179.136 133.919 178.176 133.455 177.217C133.455 177.217 132.399 175.12 132.331 174.991C132.382 175.092 133.399 177.202 133.399 177.202C133.858 178.197 134.26 179.169 134.651 180.111C134.864 180.622 135.072 181.119 135.28 181.615L135.344 181.754C135.945 183.175 136.514 184.497 136.939 185.866L137.417 187.244C138.162 189.394 138.863 191.414 139.269 193.306L139.384 193.774C139.878 195.78 140.263 197.332 140.595 199.105L141.087 202.133L141.544 202.09L141.004 199.069L141.004 199.094Z" fill="#5B3939"/>
</g>
<path d="M139.302 202.46C139.284 202.255 139.985 202.012 140.887 201.913C141.781 201.816 142.528 201.912 142.546 202.118C142.565 202.323 141.863 202.566 140.962 202.665C140.068 202.761 139.32 202.665 139.302 202.46Z" fill="#D32833"/>
<path d="M79.1828 82.1442C78.5525 82.6001 80.8739 88.4797 83.6794 92.8879C86.1706 96.81 92.339 103.066 93.4379 102.099C94.1006 101.438 88.2882 95.1382 85.608 91.4061C82.7732 87.4639 79.7906 81.7718 79.1828 82.1442Z" fill="#6DC82A"/>
<path d="M114.015 161.768C113.36 162.452 117.41 168.969 121.719 173.618C125.547 177.76 134.273 183.887 135.368 182.481C136.015 181.546 127.708 175.288 123.704 171.425C119.457 167.338 114.663 161.188 114.023 161.766L114.015 161.768Z" fill="#6DC82A"/>
<path d="M91.9114 85.7147C91.9288 87.8545 91.5472 92.2228 90.7489 94.34C90.6811 94.5147 90.4261 94.5072 90.3802 94.3198C89.6318 91.6813 89.2847 87.8272 89.2061 86.5357C88.9255 81.9498 89.0336 73.8717 89.9491 73.3119C90.9911 74.0106 91.8899 82.909 91.919 85.7122L91.9114 85.7147Z" fill="#6DC82A"/>
<path d="M122.041 168.872C124.26 170.698 129.162 173.999 132.048 174.951C132.285 175.032 132.487 174.753 132.342 174.548C130.222 171.532 126.474 167.904 125.196 166.727C120.631 162.545 112.1 155.82 110.73 156.304C110.577 157.986 119.124 166.47 122.031 168.867L122.041 168.872Z" fill="#6DC82A"/>
<path d="M103.696 133.3C105.308 135.1 108.955 138.475 111.23 139.639C111.422 139.735 111.624 139.533 111.528 139.345C110.15 136.563 107.508 133.071 106.597 131.932C103.342 127.868 97.1175 121.191 95.921 121.414C95.573 122.79 101.592 130.937 103.698 133.307L103.696 133.3Z" fill="#6DC82A"/>
<path d="M91.8393 107.584C93.01 109.321 95.7423 112.63 97.5558 113.898C97.7076 113.999 97.9042 113.858 97.8457 113.683C96.994 111.138 95.1304 107.834 94.4815 106.75C92.1621 102.889 87.6121 96.4373 86.5515 96.4881C86.092 97.6303 90.2963 105.313 91.8318 107.586L91.8393 107.584Z" fill="#6DC82A"/>
<path d="M97.7094 113.728C97.9158 113.414 94.6665 108.183 93.9847 107.051C91.8199 103.451 88.083 98.0959 86.5591 96.4856" fill="white"/>
<path d="M86.8196 89.8686C87.7934 91.6967 90.155 95.2314 91.8124 96.6618C91.9515 96.7758 92.1634 96.6542 92.12 96.4744C91.5308 93.8839 90.0357 90.4479 89.5053 89.3161C87.6174 85.285 83.7812 78.4763 82.7356 78.4208C82.1698 79.4972 85.5339 87.4859 86.812 89.8711L86.8196 89.8686Z" fill="#6DC82A"/>
<path d="M112.816 150.639C114.756 152.236 119.048 155.125 121.575 155.96C121.783 156.026 121.964 155.788 121.837 155.611C119.978 152.972 116.708 149.792 115.582 148.767C111.588 145.111 104.123 139.23 102.924 139.648C102.786 141.122 110.27 148.543 112.816 150.639Z" fill="#6DC82A"/>
<path d="M141.337 173.979C140.98 176.835 139.684 182.599 138.241 185.279C138.123 185.504 137.782 185.441 137.748 185.19C137.217 181.541 137.443 176.33 137.57 174.597C138.014 168.426 139.593 157.676 140.917 157.081C142.183 158.195 141.803 170.241 141.337 173.979Z" fill="#6DC82A"/>
<path d="M124.466 150.034C124.982 152.404 125.574 157.342 125.175 159.875C125.146 160.087 124.858 160.133 124.761 159.946C123.318 157.193 122.039 152.992 121.652 151.585C120.272 146.556 118.511 137.574 119.401 136.736C120.723 137.265 123.79 146.932 124.466 150.034Z" fill="#6DC82A"/>
<path d="M113.395 133.179C113.849 135.265 114.374 139.626 114.028 141.862C113.998 142.049 113.751 142.09 113.662 141.925C112.386 139.497 111.257 135.795 110.916 134.549C109.701 130.115 108.143 122.189 108.929 121.445C110.094 121.908 112.8 130.446 113.395 133.179Z" fill="#6DC82A"/>
<path d="M113.791 141.857C113.414 141.788 111.838 135.693 111.486 134.392C110.35 130.244 109.03 123.709 108.922 121.447C110.023 123.655 112.22 130.598 112.807 133.308C113.2 135.111 114.225 141.872 113.791 141.857Z" fill="white"/>
<path d="M102.988 115.189C103.442 117.275 103.967 121.636 103.621 123.872C103.592 124.059 103.344 124.1 103.255 123.935C101.98 121.507 100.85 117.805 100.509 116.559C99.2944 112.125 97.7361 104.199 98.5223 103.455C99.6875 103.918 102.391 112.449 102.996 115.186L102.988 115.189Z" fill="#6DC82A"/>
<path d="M103.384 123.867C103.008 123.798 101.431 117.703 101.079 116.402C99.9438 112.254 98.6234 105.719 98.5148 103.457C99.6158 105.665 101.813 112.608 102.4 115.318C102.793 117.121 103.819 123.882 103.384 123.867Z" fill="white"/>
<path d="M96.1311 95.9091C96.1486 98.0489 95.767 102.417 94.9687 104.534C94.9009 104.709 94.6458 104.702 94.5999 104.514C93.8515 101.876 93.5045 98.0215 93.4258 96.7301C93.1453 92.1441 93.2534 84.066 94.1688 83.5062C95.2108 84.205 96.1097 93.1033 96.1387 95.9066L96.1311 95.9091Z" fill="#6DC82A"/>
<path d="M82.7271 99.5504C82.1677 100.092 85.3544 105.564 88.7826 109.494C91.8411 112.998 98.8709 118.256 99.8052 117.124C100.362 116.372 93.67 111.017 90.4655 107.731C87.0712 104.255 83.269 99.0818 82.7246 99.5428L82.7271 99.5504Z" fill="#6DC82A"/>
<path d="M92.9448 128.619C92.5145 129.27 96.7525 133.959 100.919 137.101C104.632 139.896 112.593 143.584 113.277 142.282C113.666 141.434 106.019 137.574 102.205 135.032C98.163 132.338 93.3805 128.06 92.9448 128.619Z" fill="#6DC82A"/>
<path d="M82.6864 112.734C82.3923 113.339 86.5873 116.893 90.547 119.116C94.0718 121.096 101.373 123.34 101.807 122.148C102.042 121.368 94.9988 118.935 91.4165 117.186C87.6217 115.331 82.9958 112.199 82.6864 112.734Z" fill="#6DC82A"/>
<path d="M106.76 102.336C107.535 102.415 108.473 108.664 108.26 113.888C108.071 118.53 105.868 127.039 104.438 126.741C103.534 126.503 105.399 118.141 105.848 113.572C106.327 108.741 106.048 102.321 106.76 102.336Z" fill="#6DC82A"/>
<path d="M113.158 121.102C113.926 121.006 116.205 126.908 117.135 132.054C117.961 136.634 117.665 145.409 116.203 145.442C115.274 145.407 115.267 136.835 114.717 132.272C114.13 127.451 112.464 121.242 113.158 121.102Z" fill="#6DC82A"/>
<path d="M116.165 145.404C115.791 145.141 115.521 134.022 115.158 132.183L114.888 130.796C114.571 129.195 114.239 127.6 113.922 126C113.703 124.89 112.995 121.166 113.169 121.158C113.383 121.145 114.882 125.07 115.378 126.627C115.917 128.314 116.409 130.033 116.723 131.778C116.751 131.912 116.772 132.049 116.792 132.185C117.351 135.715 117.054 145.369 116.163 145.397L116.165 145.404Z" fill="white"/>
<path d="M123.872 139.682C124.647 139.583 126.918 145.488 127.849 150.634C128.675 155.215 128.379 163.989 126.917 164.022C125.988 163.987 125.981 155.415 125.43 150.852C124.844 146.031 123.178 139.822 123.872 139.682Z" fill="#6DC82A"/>
<path d="M133.428 141.544C134.294 141.668 135.078 148.738 134.608 154.606C134.191 159.822 131.341 169.291 129.744 168.896C128.738 168.583 131.2 159.261 131.91 154.14C132.656 148.721 132.627 141.491 133.428 141.544Z" fill="#6DC82A"/>
<path d="M103.137 145.237C102.706 145.888 106.944 150.577 111.111 153.719C114.824 156.514 122.785 160.202 123.469 158.9C123.858 158.052 116.21 154.191 112.396 151.65C108.362 148.953 103.572 144.677 103.137 145.237Z" fill="#6DC82A"/>
<g style="mix-blend-mode:screen">
<path d="M88.7428 97.1738C86.8689 94.9204 85.1014 92.7835 84.6224 92.0062L83.8823 90.801C83.4716 90.1274 82.336 88.2436 82.1738 87.9854C82.7498 89.2033 83.4905 90.6617 84.3649 92.0417L84.5777 92.3759C85.5203 93.7837 87.4192 95.9358 89.2315 97.779C89.0618 97.5739 88.8922 97.3688 88.7352 97.1764L88.7428 97.1738Z" fill="white"/>
</g>
<g style="mix-blend-mode:screen">
<path d="M131.698 179.967C130.745 179.154 129.705 178.286 128.791 177.519C126.066 175.238 123.501 173.081 122.764 172.263L121.62 170.982C120.977 170.268 120.349 169.549 119.711 168.825C119.035 168.063 118.359 167.301 117.683 166.538C117.592 166.442 117.508 166.344 117.417 166.247C117.744 166.746 118.045 167.194 118.301 167.556C119.312 168.992 120.678 170.858 122.255 172.552L122.591 172.904C124.52 174.894 128.664 177.993 131.696 179.96L131.698 179.967Z" fill="white"/>
</g>
<g style="mix-blend-mode:screen">
<path d="M90.5706 87.9965C90.6141 87.095 90.635 86.277 90.6337 85.7199C90.6211 84.6007 90.5009 82.8078 90.3274 80.9061C90.3317 82.8306 90.3867 84.8058 90.4864 86.4619C90.4864 86.4619 90.5523 87.7154 90.5681 87.9889L90.5706 87.9965Z" fill="white"/>
</g>
<g style="mix-blend-mode:screen">
<path d="M128.521 171.781C127.184 170.53 125.75 169.236 125.026 168.583L124.193 167.831C121.655 165.504 118.217 162.651 115.308 160.398C117.986 163.168 121.207 166.254 122.983 167.712C124.155 168.672 126.487 170.383 128.518 171.773L128.521 171.781Z" fill="white"/>
</g>
<g style="mix-blend-mode:screen">
<path d="M107.622 135.373C107.012 134.606 106.455 133.922 106.113 133.504L105.528 132.788C104.039 130.929 102.087 128.694 100.251 126.706C101.885 128.947 103.63 131.193 104.696 132.39C105.327 133.092 106.45 134.236 107.612 135.368L107.622 135.373Z" fill="white"/>
</g>
<g style="mix-blend-mode:screen">
<path d="M93.397 107.409C92.6137 106.1 91.6355 104.585 90.6372 103.112C91.4917 104.634 92.3181 106.021 92.8882 106.869C93.1568 107.269 93.5595 107.819 94.0281 108.439C93.9521 108.313 93.3944 107.401 93.3944 107.401L93.397 107.409Z" fill="white"/>
</g>
<g style="mix-blend-mode:screen">
<path d="M88.3627 89.8505C87.7435 88.5288 86.9724 87.0045 86.1685 85.5081C86.8285 87.0273 87.4755 88.4073 87.932 89.2682C88.1375 89.6556 88.4518 90.1924 88.8118 90.7899C88.7737 90.7013 88.3627 89.8505 88.3627 89.8505Z" fill="white"/>
</g>
<g style="mix-blend-mode:screen">
<path d="M117.527 152.416C116.651 151.611 115.829 150.864 115.358 150.439L114.645 149.79C112.714 148.021 110.186 145.902 107.887 144.086C110.013 146.238 112.341 148.441 113.702 149.565C114.527 150.244 116.04 151.368 117.537 152.421L117.527 152.416Z" fill="white"/>
</g>
<g style="mix-blend-mode:screen">
<path d="M138.629 180.553C139.152 178.14 139.673 175.296 139.859 173.789C140.147 171.505 140.364 167.048 140.413 163.197C139.846 166.833 139.303 171.272 139.063 174.706L138.972 175.818C138.893 176.79 138.746 178.715 138.637 180.551L138.629 180.553Z" fill="white"/>
</g>
<g style="mix-blend-mode:screen">
<path d="M123.84 154.451C123.604 152.84 123.341 151.247 123.139 150.318C122.797 148.743 121.996 145.996 121.136 143.352C121.672 146.011 122.333 148.915 122.969 151.219L123.209 152.111C123.351 152.637 123.581 153.498 123.84 154.451Z" fill="white"/>
</g>
<g style="mix-blend-mode:screen">
<path d="M112.542 135.686C112.397 134.797 112.253 133.992 112.138 133.447C111.899 132.353 111.412 130.624 110.845 128.803C111.248 130.687 111.707 132.612 112.14 134.207C112.14 134.207 112.461 135.417 112.535 135.688L112.542 135.686Z" fill="white"/>
</g>
<g style="mix-blend-mode:screen">
<path d="M94.783 98.1933C94.8265 97.2918 94.8474 96.4738 94.8461 95.9167C94.8335 94.7974 94.7133 93.0046 94.5398 91.1029C94.5467 93.035 94.5991 95.0026 94.6988 96.6587C94.6988 96.6587 94.7647 97.9122 94.7805 98.1857L94.783 98.1933Z" fill="white"/>
</g>
<g style="mix-blend-mode:screen">
<path d="M94.4352 112.975C92.2413 111.023 90.1765 109.179 89.5916 108.488L88.6826 107.407C88.1685 106.802 86.7708 105.116 86.5732 104.878C87.3258 105.994 88.2657 107.319 89.3443 108.554L89.6126 108.853C90.7569 110.109 92.9606 111.939 95.0197 113.488C94.8173 113.311 94.625 113.139 94.4428 112.972L94.4352 112.975Z" fill="white"/>
</g>
<g style="mix-blend-mode:screen">
<path d="M107.161 139.328C104.62 137.873 102.216 136.498 101.497 135.936L100.381 135.068C99.7641 134.582 98.0388 133.225 97.7959 133.027C98.7576 133.964 99.9622 135.073 101.275 136.053L101.599 136.291C102.975 137.283 105.501 138.617 107.844 139.708C107.614 139.574 107.386 139.447 107.169 139.326L107.161 139.328Z" fill="white"/>
</g>
<g style="mix-blend-mode:screen">
<path d="M94.2124 119.604C92.6502 118.961 91.3661 118.42 90.8655 118.131C90.8655 118.131 89.5354 117.351 89.4014 117.278C89.8414 117.561 90.2992 117.847 90.7745 118.111L91.0729 118.273C91.8516 118.688 92.984 119.154 94.2124 119.604Z" fill="white"/>
</g>
<g style="mix-blend-mode:screen">
<path d="M105.895 120.906C106.539 118.401 107.108 115.601 107.213 113.901L107.232 113.506C107.299 111.87 107.207 110.237 107.096 108.898C107.091 109.212 107.051 111.404 107.027 112.19L106.995 113.603C106.972 114.514 106.506 117.247 106.017 120.139C105.975 120.389 105.933 120.64 105.888 120.908L105.895 120.906Z" fill="white"/>
</g>
<g style="mix-blend-mode:screen">
<path d="M127.066 158C127.143 155.415 127.094 152.551 126.827 150.874L126.763 150.482C126.474 148.864 126.026 147.299 125.63 146.013C125.691 146.296 126.125 148.449 126.281 149.241L126.552 150.629C126.725 151.525 126.868 154.29 127.021 157.213C127.039 157.468 127.05 157.727 127.063 157.993L127.066 158Z" fill="white"/>
</g>
<g style="mix-blend-mode:screen">
<path d="M131.193 164.145C132.204 161.028 133.286 156.915 133.523 154.58L133.565 154.127C133.739 151.982 133.664 149.845 133.577 148.227C133.566 147.994 133.548 147.738 133.527 147.45C133.471 148.288 133.425 149.131 133.379 149.974C133.33 150.861 133.282 151.747 133.223 152.628L133.123 154.216C133.06 155.234 132.42 158.278 131.74 161.504C131.571 162.33 131.381 163.246 131.191 164.138L131.193 164.145Z" fill="white"/>
</g>
<g style="mix-blend-mode:screen">
<path d="M117.353 155.946C114.812 154.49 112.407 153.116 111.691 152.561L110.576 151.693C109.958 151.207 108.233 149.85 107.99 149.652C108.952 150.589 110.154 151.69 111.462 152.68L111.776 152.913C113.152 153.906 115.685 155.237 118.021 156.331C117.791 156.197 117.563 156.07 117.346 155.948L117.353 155.946Z" fill="white"/>
</g>
<path d="M92.8968 90.5968C92.2821 87.8797 89.7222 80.382 88.6724 80.6912C87.7714 80.9674 88.7895 87.8576 89.5227 91.5825C90.7616 97.8497 93.3397 106.71 94.5713 106.365C95.5302 106.061 94.3738 97.1729 92.8918 90.6069L92.8968 90.5968Z" fill="#6DC82A"/>
<path d="M93.7399 102.749C93.3919 99.5965 92.6517 94.9955 91.7207 90.8553C91.3482 89.1891 90.3767 86.1354 89.4646 83.7121C89.7397 85.8924 90.2007 88.7285 90.7217 91.3417C91.5519 95.5325 92.746 99.8549 93.7501 102.754L93.7399 102.749Z" fill="white"/>
<path d="M92.7399 95.9882C91.6305 93.4283 87.726 86.5411 86.7548 87.0351C85.9174 87.4759 88.1975 94.062 89.612 97.5842C91.9916 103.512 96.1694 111.744 97.3096 111.176C98.1949 110.702 95.418 102.179 92.7424 95.9958L92.7399 95.9882Z" fill="#6DC82A"/>
<path d="M95.8273 107.778C94.9038 104.742 93.3206 100.364 91.6375 96.467C90.9623 94.9022 89.4458 92.0815 88.0897 89.866C88.7662 91.9626 89.7445 94.6593 90.74 97.1307C92.3298 101.101 94.3061 105.119 95.8298 107.786L95.8273 107.778Z" fill="white"/>
<path d="M100.731 103.138C100.515 100.355 99.0483 92.5759 97.9703 92.7256C97.0413 92.8675 97.0595 99.839 97.2574 103.625C97.5824 110.004 98.8732 119.142 100.138 118.972C101.128 118.81 101.261 109.853 100.739 103.135L100.731 103.138Z" fill="#6DC82A"/>
<path d="M99.8319 115.291C99.941 112.12 99.8648 107.466 99.5346 103.234C99.4045 101.538 98.8822 98.3675 98.3235 95.8429C98.2855 98.0434 98.3349 100.907 98.4772 103.571C98.6939 107.841 99.2645 112.287 99.842 115.296L99.8319 115.291Z" fill="white"/>
<path d="M98.1167 115.273C96.4576 113.032 91.0857 107.219 90.2514 107.921C89.5406 108.539 93.256 114.433 95.4323 117.54C99.0957 122.776 105.034 129.828 106.017 129.017C106.77 128.351 102.127 120.689 98.1091 115.276L98.1167 115.273Z" fill="#6DC82A"/>
<path d="M103.805 126.057C102.213 123.313 99.6766 119.406 97.1461 115.995C96.1329 114.628 94.0137 112.22 92.1938 110.379C93.3294 112.263 94.8905 114.664 96.4207 116.846C98.8731 120.35 101.714 123.809 103.798 126.06L103.805 126.057Z" fill="white"/>
<path d="M110.762 129.887C109.763 127.282 106.151 120.237 105.165 120.686C104.315 121.089 106.315 127.768 107.57 131.344C109.698 137.373 113.517 145.767 114.69 145.247C115.596 144.809 113.177 136.174 110.769 129.885L110.762 129.887Z" fill="#6DC82A"/>
<path d="M113.342 141.796C112.549 138.724 111.156 134.283 109.634 130.315C109.024 128.72 107.629 125.833 106.374 123.567C106.957 125.687 107.821 128.421 108.714 130.936C110.132 134.972 111.942 139.071 113.349 141.793L113.342 141.796Z" fill="white"/>
<path d="M116.126 136.759C115.112 134.159 111.457 127.137 110.474 127.593C109.623 127.996 111.661 134.663 112.942 138.238C115.107 144.255 118.977 152.623 120.14 152.099C121.046 151.661 118.572 143.036 116.126 136.759Z" fill="#6DC82A"/>
<path d="M118.769 148.655C117.954 145.591 116.535 141.15 114.993 137.197C114.376 135.605 112.96 132.733 111.69 130.472C112.288 132.586 113.168 135.316 114.068 137.828C115.516 141.854 117.339 145.941 118.769 148.655Z" fill="white"/>
<path d="M111.296 141.594C109.279 139.667 103.002 134.849 102.307 135.69C101.71 136.422 106.371 141.595 109.041 144.291C113.539 148.826 120.588 154.77 121.417 153.8C122.046 153.015 116.172 146.255 111.298 141.602L111.296 141.594Z" fill="#6DC82A"/>
<path d="M118.719 151.248C116.686 148.82 113.529 145.399 110.459 142.465C109.224 141.29 106.732 139.278 104.627 137.769C106.068 139.432 108.017 141.534 109.888 143.425C112.897 146.456 116.278 149.387 118.719 151.248Z" fill="white"/>
<path d="M111.44 152.967C108.887 151.853 101.346 149.494 100.974 150.522C100.665 151.411 106.814 154.667 110.24 156.274C116.019 158.977 124.668 162.131 125.11 160.936C125.431 159.983 117.592 155.655 111.432 152.969L111.44 152.967Z" fill="#6DC82A"/>
<path d="M121.725 159.475C118.982 157.893 114.845 155.772 110.96 154.073C109.403 153.395 106.373 152.365 103.876 151.671C105.798 152.735 108.346 154.036 110.755 155.172C114.621 156.987 118.804 158.569 121.723 159.468L121.725 159.475Z" fill="white"/>
<path d="M121.178 152.359C119.655 150.022 114.657 143.89 113.779 144.539C113.028 145.111 116.378 151.221 118.362 154.459C121.701 159.906 127.195 167.317 128.223 166.567C129.02 165.954 124.848 158.016 121.181 152.367L121.178 152.359Z" fill="#6DC82A"/>
<path d="M126.193 163.47C124.773 160.634 122.481 156.578 120.17 153.018C119.237 151.59 117.272 149.063 115.573 147.106C116.587 149.056 118.005 151.555 119.396 153.826C121.627 157.472 124.249 161.105 126.193 163.47Z" fill="white"/>
<path d="M122.45 157.467C120.645 155.343 114.895 149.909 114.112 150.662C113.441 151.325 117.548 156.954 119.926 159.908C123.932 164.886 130.336 171.52 131.256 170.646C131.961 169.937 126.811 162.596 122.443 157.469L122.45 157.467Z" fill="#6DC82A"/>
<path d="M128.842 167.838C127.071 165.212 124.275 161.485 121.525 158.25C120.419 156.956 118.148 154.7 116.208 152.976C117.467 154.776 119.187 157.073 120.866 159.146C123.545 162.473 126.615 165.737 128.85 167.836L128.842 167.838Z" fill="white"/>
<path d="M131.238 161.841C130.583 159.129 127.897 151.682 126.86 152.004C125.961 152.288 127.095 159.173 127.882 162.88C129.224 169.129 131.938 177.944 133.162 177.576C134.116 177.257 132.823 168.389 131.23 161.844L131.238 161.841Z" fill="#6DC82A"/>
<path d="M132.281 173.986C131.885 170.841 131.074 166.255 130.069 162.122C129.667 160.466 128.65 157.428 127.69 155.012C127.998 157.19 128.504 160.011 129.065 162.619C129.959 166.797 131.231 171.102 132.278 173.978L132.281 173.986Z" fill="white"/>
<path d="M138.37 171.88C138.154 169.097 136.702 161.313 135.624 161.463C134.693 161.597 134.703 168.571 134.893 172.36C135.211 178.741 136.484 187.877 137.751 187.715C138.743 187.56 138.893 178.598 138.37 171.88Z" fill="#6DC82A"/>
<path d="M137.445 184.033C137.557 180.87 137.488 176.213 137.163 171.972C137.033 170.275 136.521 167.11 135.959 164.578C135.921 166.778 135.963 169.645 136.096 172.304C136.312 176.573 136.865 181.017 137.445 184.033Z" fill="white"/>
<path d="M133.245 176.189C132.055 173.664 127.919 166.914 126.965 167.436C126.143 167.897 128.643 174.409 130.166 177.878C132.737 183.725 137.187 191.815 138.305 191.204C139.172 190.703 136.115 182.273 133.235 176.184L133.245 176.189Z" fill="#6DC82A"/>
<path d="M136.716 187.867C135.694 184.864 133.97 180.541 132.153 176.698C131.428 175.158 129.818 172.386 128.394 170.218C129.136 172.284 130.205 174.951 131.273 177.389C132.997 181.306 135.102 185.256 136.709 187.869L136.716 187.867Z" fill="white"/>
</g>
</g>
<defs>
<filter id="filter0_d_612_41092" x="73.0786" y="69.312" width="79.4683" height="145.39" filterUnits="userSpaceOnUse" color-interpolation-filters="sRGB">
<feFlood flood-opacity="0" result="BackgroundImageFix"/>
<feColorMatrix in="SourceAlpha" type="matrix" values="0 0 0 0 0 0 0 0 0 0 0 0 0 0 0 0 0 0 127 0" result="hardAlpha"/>
<feOffset dx="2" dy="4"/>
<feGaussianBlur stdDeviation="4"/>
<feComposite in2="hardAlpha" operator="out"/>
<feColorMatrix type="matrix" values="0 0 0 0 0 0 0 0 0 0.137376 0 0 0 0 0.195833 0 0 0 0.4 0"/>
<feBlend mode="normal" in2="BackgroundImageFix" result="effect1_dropShadow_612_41092"/>
<feBlend mode="normal" in="SourceGraphic" in2="effect1_dropShadow_612_41092" result="shape"/>
</filter>
<clipPath id="clip0_612_41092">
<rect width="144" height="144" fill="white" transform="translate(46.5 64.4863)"/>
</clipPath>
</defs>
</svg>
