<svg width="174" height="200" viewBox="0 0 174 200" fill="none" xmlns="http://www.w3.org/2000/svg">
<rect width="174" height="200" fill="white" fill-opacity="0.05"/>
<path d="M38 47.04L102.8 108.24C119.7 90.35 118.89 62.14 101 45.24C83.1 28.34 54.9 29.14 38 47.04Z" fill="#F1B501"/>
<path d="M43.5601 50.8101L96.3101 103.56C110.88 88.9901 110.88 65.3701 96.3101 50.8101C81.7401 36.2401 58.1201 36.2401 43.5601 50.8101Z" fill="#F9DA49"/>
<path d="M61.22 44.8799C69.5 42.6299 77.11 50.1799 74.92 58.4799L70 77.1499L56.3 63.5499C50.21 57.5099 52.94 47.1399 61.22 44.8799Z" fill="#F1B501"/>
<path d="M94.16 53.2701C99.77 58.8701 97.21 68.4301 89.56 70.4901L72.35 75.1101L76.95 57.8901C78.99 50.2401 88.56 47.6701 94.16 53.2701Z" fill="white"/>
<path d="M102.71 86.26C100.47 94.54 90.1101 97.3 84.0501 91.22L70.4301 77.54L89.0901 72.58C97.3801 70.38 104.95 77.98 102.71 86.26Z" fill="#F1B501"/>
<path d="M91.04 21V110.13C115.65 110.13 135.6 90.18 135.6 65.57C135.6 40.96 115.65 21 91.04 21Z" fill="white"/>
<path d="M91.04 28.26V102.87C111.64 102.87 128.34 86.17 128.34 65.57C128.34 44.97 111.64 28.26 91.04 28.26Z" fill="#F1B501"/>
<path d="M107.71 36.54C115.16 40.8 115.2 51.52 107.79 55.84L91.11 65.56L91.03 46.26C91 37.68 100.26 32.28 107.71 36.54Z" fill="#F9EA80"/>
<path d="M125.08 65.7701C125.08 73.7501 116.45 78.7401 109.54 74.7601L93.99 65.8001L109.53 56.8101C116.44 52.8201 125.07 57.8001 125.08 65.7701Z" fill="#D32833"/>
<path d="M107.79 95.1499C100.35 99.4199 91.07 94.0399 91.09 85.4599L91.13 66.1599L107.83 75.8499C115.25 80.1599 115.23 90.8799 107.79 95.1499Z" fill="#F9EA80"/>
<path d="M55.6001 98.3201C50.1301 98.3201 46.7101 92.4001 49.4501 87.6701L54.4601 78.9901C54.9701 78.1101 56.2301 78.1101 56.7401 78.9901L61.7501 87.6701C64.4801 92.4101 61.0701 98.3201 55.6001 98.3201Z" fill="#F1B501"/>
<path d="M72.6899 122.28C67.2199 122.28 63.7999 116.36 66.5399 111.63L71.5499 102.95C72.0599 102.07 73.3199 102.07 73.8299 102.95L78.8399 111.63C81.5699 116.37 78.1599 122.28 72.6899 122.28Z" fill="#F9EA80"/>
<path d="M39.7842 158.5H41.8592V174.15H48.9342V169.8H50.7842V176H39.7842V158.5ZM54.2244 164.475C54.9411 164.058 55.7494 163.758 56.6494 163.575C57.5494 163.392 58.4327 163.3 59.2994 163.3C60.1494 163.3 60.8411 163.433 61.3744 163.7C61.9244 163.967 62.3494 164.317 62.6494 164.75C62.9661 165.167 63.1744 165.65 63.2744 166.2C63.3911 166.733 63.4494 167.275 63.4494 167.825C63.4494 168.458 63.4327 169.133 63.3994 169.85C63.3661 170.567 63.3411 171.283 63.3244 172C63.3244 172.833 63.3744 173.625 63.4744 174.375H65.1494V176H61.8244L61.5994 174.125H61.4744C61.3744 174.275 61.2244 174.467 61.0244 174.7C60.8244 174.933 60.5577 175.167 60.2244 175.4C59.9077 175.617 59.5161 175.808 59.0494 175.975C58.5827 176.142 58.0327 176.225 57.3994 176.225C56.1661 176.225 55.1911 175.908 54.4744 175.275C53.7577 174.642 53.3994 173.775 53.3994 172.675C53.3994 171.825 53.5827 171.117 53.9494 170.55C54.3327 169.983 54.8744 169.55 55.5744 169.25C56.2744 168.95 57.1161 168.775 58.0994 168.725C59.0994 168.675 60.2161 168.742 61.4494 168.925C61.5327 168.158 61.5411 167.525 61.4744 167.025C61.4244 166.508 61.2911 166.1 61.0744 165.8C60.8744 165.5 60.5827 165.292 60.1994 165.175C59.8327 165.042 59.3744 164.975 58.8244 164.975C58.0744 164.975 57.3577 165.083 56.6744 165.3C55.9911 165.5 55.3827 165.708 54.8494 165.925L54.2244 164.475ZM57.8994 174.55C58.3661 174.55 58.7994 174.475 59.1994 174.325C59.5994 174.175 59.9494 173.983 60.2494 173.75C60.5494 173.517 60.7994 173.267 60.9994 173C61.1994 172.717 61.3494 172.45 61.4494 172.2V170.45C60.5827 170.3 59.7827 170.225 59.0494 170.225C58.3161 170.225 57.6827 170.308 57.1494 170.475C56.6161 170.625 56.1994 170.867 55.8994 171.2C55.5994 171.533 55.4494 171.967 55.4494 172.5C55.4494 173.05 55.6327 173.533 55.9994 173.95C56.3827 174.35 57.0161 174.55 57.8994 174.55ZM67.1646 176V174.325H70.5396V165.175H67.1646V163.5H71.8396L72.2396 165.125H72.3646C72.9313 164.608 73.5646 164.167 74.2646 163.8C74.9646 163.433 75.798 163.25 76.7646 163.25C77.3313 163.25 77.7813 163.358 78.1146 163.575C78.4646 163.792 78.7313 164.108 78.9146 164.525C79.1146 164.942 79.248 165.45 79.3146 166.05C79.3813 166.633 79.4146 167.3 79.4146 168.05L77.6646 168.075C77.6646 167.008 77.5563 166.225 77.3396 165.725C77.1396 165.225 76.7646 164.975 76.2146 164.975C75.698 164.975 75.2313 165.05 74.8146 165.2C74.398 165.35 74.0313 165.533 73.7146 165.75C73.4146 165.967 73.1563 166.183 72.9396 166.4C72.723 166.617 72.5646 166.8 72.4646 166.95V174.325H77.2646V176H67.1646ZM82.2049 164.475C82.9215 164.058 83.7299 163.758 84.6299 163.575C85.5299 163.392 86.4132 163.3 87.2799 163.3C88.1299 163.3 88.8215 163.433 89.3549 163.7C89.9049 163.967 90.3299 164.317 90.6299 164.75C90.9465 165.167 91.1549 165.65 91.2549 166.2C91.3716 166.733 91.4299 167.275 91.4299 167.825C91.4299 168.458 91.4132 169.133 91.3799 169.85C91.3466 170.567 91.3216 171.283 91.3049 172C91.3049 172.833 91.3549 173.625 91.4549 174.375H93.1299V176H89.8049L89.5799 174.125H89.4549C89.3549 174.275 89.2049 174.467 89.0049 174.7C88.8049 174.933 88.5382 175.167 88.2049 175.4C87.8882 175.617 87.4966 175.808 87.0299 175.975C86.5632 176.142 86.0132 176.225 85.3799 176.225C84.1465 176.225 83.1715 175.908 82.4549 175.275C81.7382 174.642 81.3799 173.775 81.3799 172.675C81.3799 171.825 81.5632 171.117 81.9299 170.55C82.3132 169.983 82.8549 169.55 83.5549 169.25C84.2549 168.95 85.0965 168.775 86.0799 168.725C87.0799 168.675 88.1965 168.742 89.4299 168.925C89.5132 168.158 89.5215 167.525 89.4549 167.025C89.4049 166.508 89.2715 166.1 89.0549 165.8C88.8549 165.5 88.5632 165.292 88.1799 165.175C87.8132 165.042 87.3549 164.975 86.8049 164.975C86.0549 164.975 85.3382 165.083 84.6549 165.3C83.9715 165.5 83.3632 165.708 82.8299 165.925L82.2049 164.475ZM85.8799 174.55C86.3466 174.55 86.7799 174.475 87.1799 174.325C87.5799 174.175 87.9299 173.983 88.2299 173.75C88.5299 173.517 88.7799 173.267 88.9799 173C89.1799 172.717 89.3299 172.45 89.4299 172.2V170.45C88.5632 170.3 87.7632 170.225 87.0299 170.225C86.2965 170.225 85.6632 170.308 85.1299 170.475C84.5965 170.625 84.1799 170.867 83.8799 171.2C83.5799 171.533 83.4299 171.967 83.4299 172.5C83.4299 173.05 83.6132 173.533 83.9799 173.95C84.3632 174.35 84.9965 174.55 85.8799 174.55ZM95.8201 167.875C95.8201 167.725 95.8118 167.533 95.7951 167.3C95.7951 167.05 95.7868 166.8 95.7701 166.55C95.7535 166.283 95.7285 166.025 95.6951 165.775C95.6785 165.525 95.6535 165.308 95.6201 165.125H93.9451V163.5H97.2951L97.5201 165.525H97.6451C97.8118 165.242 98.0285 164.967 98.2951 164.7C98.5785 164.417 98.9035 164.167 99.2701 163.95C99.6368 163.717 100.045 163.533 100.495 163.4C100.945 163.267 101.42 163.2 101.92 163.2C102.687 163.2 103.362 163.283 103.945 163.45C104.545 163.617 105.037 163.917 105.42 164.35C105.82 164.767 106.12 165.342 106.32 166.075C106.52 166.792 106.62 167.708 106.62 168.825V176H104.67V169.2C104.67 167.817 104.445 166.775 103.995 166.075C103.545 165.375 102.728 165.025 101.545 165.025C101.112 165.025 100.687 165.117 100.27 165.3C99.8701 165.467 99.5035 165.692 99.1701 165.975C98.8368 166.258 98.5451 166.592 98.2951 166.975C98.0451 167.342 97.8618 167.733 97.7451 168.15V176H95.8201V167.875ZM115.885 165.175H109.835V163.5H117.885V176.3C117.885 177.983 117.452 179.233 116.585 180.05C115.735 180.883 114.552 181.3 113.035 181.3C112.585 181.3 112.144 181.242 111.71 181.125C111.294 181.008 110.902 180.867 110.535 180.7C110.169 180.55 109.844 180.392 109.56 180.225C109.294 180.058 109.094 179.925 108.96 179.825L109.785 178.2C110.235 178.533 110.744 178.825 111.31 179.075C111.894 179.325 112.494 179.45 113.11 179.45C114.11 179.45 114.819 179.133 115.235 178.5C115.669 177.883 115.885 177.025 115.885 175.925V165.175ZM114.835 159.95C114.835 159.5 114.985 159.117 115.285 158.8C115.585 158.467 115.969 158.3 116.435 158.3C116.919 158.3 117.319 158.467 117.635 158.8C117.969 159.117 118.135 159.5 118.135 159.95C118.135 160.383 117.969 160.75 117.635 161.05C117.319 161.35 116.919 161.5 116.435 161.5C115.969 161.5 115.585 161.35 115.285 161.05C114.985 160.75 114.835 160.383 114.835 159.95ZM124.176 164.475C124.892 164.058 125.701 163.758 126.601 163.575C127.501 163.392 128.384 163.3 129.251 163.3C130.101 163.3 130.792 163.433 131.326 163.7C131.876 163.967 132.301 164.317 132.601 164.75C132.917 165.167 133.126 165.65 133.226 166.2C133.342 166.733 133.401 167.275 133.401 167.825C133.401 168.458 133.384 169.133 133.351 169.85C133.317 170.567 133.292 171.283 133.276 172C133.276 172.833 133.326 173.625 133.426 174.375H135.101V176H131.776L131.551 174.125H131.426C131.326 174.275 131.176 174.467 130.976 174.7C130.776 174.933 130.509 175.167 130.176 175.4C129.859 175.617 129.467 175.808 129.001 175.975C128.534 176.142 127.984 176.225 127.351 176.225C126.117 176.225 125.142 175.908 124.426 175.275C123.709 174.642 123.351 173.775 123.351 172.675C123.351 171.825 123.534 171.117 123.901 170.55C124.284 169.983 124.826 169.55 125.526 169.25C126.226 168.95 127.067 168.775 128.051 168.725C129.051 168.675 130.167 168.742 131.401 168.925C131.484 168.158 131.492 167.525 131.426 167.025C131.376 166.508 131.242 166.1 131.026 165.8C130.826 165.5 130.534 165.292 130.151 165.175C129.784 165.042 129.326 164.975 128.776 164.975C128.026 164.975 127.309 165.083 126.626 165.3C125.942 165.5 125.334 165.708 124.801 165.925L124.176 164.475ZM127.851 174.55C128.317 174.55 128.751 174.475 129.151 174.325C129.551 174.175 129.901 173.983 130.201 173.75C130.501 173.517 130.751 173.267 130.951 173C131.151 172.717 131.301 172.45 131.401 172.2V170.45C130.534 170.3 129.734 170.225 129.001 170.225C128.267 170.225 127.634 170.308 127.101 170.475C126.567 170.625 126.151 170.867 125.851 171.2C125.551 171.533 125.401 171.967 125.401 172.5C125.401 173.05 125.584 173.533 125.951 173.95C126.334 174.35 126.967 174.55 127.851 174.55Z" fill="white"/>
</svg>
