<svg width="174" height="200" viewBox="0 0 174 200" fill="none" xmlns="http://www.w3.org/2000/svg">
<rect width="174" height="200" fill="white" fill-opacity="0.05"/>
<g filter="url(#filter0_d_622_49916)">
<path d="M55.3928 63.2512C54.3747 63.4613 53.696 63.833 53.1142 63.93C52.7102 63.9946 52.2093 63.8168 51.8053 63.8976C51.3528 63.9784 51.3528 64.2532 50.9003 64.3501C50.5609 64.4148 50.1084 64.237 49.769 64.3178C49.3974 64.3986 49.3489 64.6572 48.9772 64.7541C48.8156 64.7865 48.3308 64.641 48.1692 64.6895C41.9798 66.0954 35.1439 67.97 29.1 68.3417C29.1 66.7095 31.3947 66.451 31.0554 64.6572C30.8938 63.8492 32.0088 63.4775 32.5421 62.8957C33.6572 62.3947 32.3805 61.215 33.5764 60.6171C34.9177 59.9222 34.8854 58.5486 35.7419 57.4497C37.2286 56.6417 36.4691 54.6054 38.279 53.9914C38.5538 53.8298 39.1355 53.6358 38.8285 53.2157C37.7942 51.6966 39.2971 51.3249 39.7981 50.5007C41.5434 49.725 39.4588 49.4826 40.4607 48.5453C42.0282 46.9778 42.4969 45.1193 43.612 43.3902C43.8544 43.0185 44.9371 42.663 45.1957 42.259C45.3088 42.065 44.9533 41.6125 45.0826 41.4186C45.3573 40.9984 46.2946 40.7237 46.5855 40.3197C46.8117 40.0127 46.1815 39.7703 46.4077 39.4794C46.5855 39.2531 47.1996 39.0269 47.3935 38.8168C49.7367 36.118 52.6133 34.0657 55.7322 32.6759C56.0069 32.5627 56.314 32.0941 56.5887 31.981C57.0735 31.7871 57.5099 31.9648 57.9947 31.8032C58.4148 31.6578 58.2855 31.3184 58.7057 31.2053C58.9481 31.1406 59.7561 31.3022 59.9985 31.2376C60.4187 31.1406 60.7096 30.7366 61.1298 30.6558C61.5338 30.575 62.0832 30.8174 62.4872 30.7689C63.1013 30.6881 63.0367 30.2841 63.6669 30.2518C64.2326 30.2195 64.5234 30.4296 65.0891 30.4296C65.6223 30.4296 66.0425 30.1872 66.592 30.2357C67.303 30.3003 67.7232 30.6397 68.4342 30.7851C72.4582 31.577 76.8538 33.29 79.5202 36.0049C75.8518 37.7179 74.2681 43.9396 71.9734 47.5757C71.2461 48.8847 70.3573 50.2906 69.8887 51.4703C69.7755 51.7774 68.8867 51.5673 68.6928 51.8259C68.4989 52.0844 68.6282 52.5854 68.4181 52.8278C68.1595 53.151 67.804 52.9248 67.5293 53.2318C67.1253 53.7005 67.3838 54.0075 66.9475 54.4438C66.6728 54.7186 66.3011 54.6862 66.0264 54.9771C65.8163 55.1711 65.9617 55.9306 65.7516 56.1407C64.9113 56.9325 63.9901 57.7082 63.0205 58.4354C62.665 58.7102 62.261 58.5971 61.9055 58.8556C61.6954 59.0011 61.5338 59.5182 61.3237 59.6636C61.0651 59.8414 60.8389 59.7444 60.5803 59.9384C60.451 60.0353 60.2571 60.3908 60.1278 60.4878C58.7057 61.409 56.7018 62.5563 55.3767 63.2674" fill="#5CA144"/>
<path d="M89.7658 29.8311C89.7658 29.8311 90.9294 35.762 81.217 36.6346C71.5047 37.5073 80.3767 35.8105 80.3767 35.8105C80.3767 35.8105 86.6954 34.954 88.473 30.9462C90.2507 26.9384 89.7497 29.815 89.7497 29.815L89.7658 29.8311Z" fill="#14761E"/>
<path d="M63.6023 39.2046C56.3624 42.469 51.7567 51.8258 47.8298 55.3326C43.5796 59.1303 35.6934 61.6837 35.6934 61.6837C35.6934 61.6837 36.5983 61.4251 40.7354 60.1161C51.4335 56.6901 52.3385 47.3818 62.875 40.8045C68.3696 37.3785 77.1769 36.9099 77.1769 36.9099C77.1769 36.9099 80.8777 36.4089 77.9365 36.3927C74.155 36.3766 67.0283 37.6694 63.6184 39.2208L63.6023 39.2046Z" fill="#14761E"/>
<path d="M66.3657 41.0791C64.8951 44.0526 61.8408 46.6221 61.8408 46.6221C61.8408 46.6221 62.8104 46.4282 64.4103 44.796C68.5958 40.5781 68.9029 35.9078 66.3495 41.0791H66.3657Z" fill="#14761E"/>
<path d="M56.2008 48.8361C55.8614 51.9873 53.9384 55.2679 53.9384 55.2679C53.9384 55.2679 54.7464 54.7831 55.6514 52.8115C58.0269 47.6725 56.7987 43.39 56.1846 48.8522L56.2008 48.8361Z" fill="#14761E"/>
<path d="M49.2519 51.0983C46.537 52.7305 42.7716 53.183 42.7716 53.183C42.7716 53.183 43.6443 53.5224 45.7774 53.0537C51.3043 51.8417 53.9707 48.2541 49.2519 51.0822V51.0983Z" fill="#14761E"/>
<path d="M46.9086 58.1121C45.1633 59.7927 44.0482 62.5077 44.0482 62.5077C44.0482 62.5077 43.9674 61.7805 44.7431 60.3099C46.7632 56.4475 49.9468 55.187 46.9086 58.1282V58.1121Z" fill="#14761E"/>
<path d="M68.3211 36.1499C65.3799 34.9217 61.5499 35.0187 61.5499 35.0187C61.5499 35.0187 62.3741 34.55 64.5719 34.6955C70.2765 35.0995 73.4601 38.2831 68.3372 36.1499H68.3211Z" fill="#14761E"/>
<path d="M57.3967 41.2893C54.3909 41.4994 51.1588 43.1962 51.1588 43.1962C51.1588 43.1962 51.6759 42.4529 53.599 41.661C58.6249 39.5925 62.6327 40.9338 57.3967 41.3055V41.2893Z" fill="#14761E"/>
<path d="M53.8427 115.499L59.2148 116.393C72.2447 118.562 84.5657 109.757 86.7344 96.7273C88.9032 83.6974 80.0985 71.3765 67.0686 69.2077L61.6965 68.3135C48.6666 66.1448 36.3456 74.9495 34.1769 87.9794C32.0081 101.009 40.8128 113.33 53.8427 115.499Z" fill="#B21F26"/>
<path d="M53.8427 115.499L59.2148 116.393C72.2447 118.562 84.5657 109.757 86.7344 96.7273C88.9032 83.6974 80.0985 71.3765 67.0686 69.2077L61.6965 68.3135C48.6666 66.1448 36.3456 74.9495 34.1769 87.9794C32.0081 101.009 40.8128 113.33 53.8427 115.499Z" fill="url(#paint0_linear_622_49916)"/>
<g opacity="0.5" filter="url(#filter1_f_622_49916)">
<path d="M75.073 78.264C75.539 75.4643 70.9422 72.3668 64.8058 71.3454C58.6695 70.324 53.3172 71.7656 52.8512 74.5653C52.3852 77.3649 56.982 80.4625 63.1183 81.4839C69.2547 82.5053 74.607 81.0637 75.073 78.264Z" fill="#811219"/>
<path d="M75.073 78.264C75.539 75.4643 70.9422 72.3668 64.8058 71.3454C58.6695 70.324 53.3172 71.7656 52.8512 74.5653C52.3852 77.3649 56.982 80.4625 63.1183 81.4839C69.2547 82.5053 74.607 81.0637 75.073 78.264Z" fill="url(#paint1_radial_622_49916)" fill-opacity="0.4"/>
</g>
<path d="M52.8395 111.102L58.2047 111.991C71.2299 114.156 83.5603 105.349 85.7257 92.3238C86.1136 89.9482 86.1459 87.605 85.855 85.3425C87.0186 88.8978 87.3903 92.7763 86.7277 96.7194C84.5622 109.745 72.2319 118.552 59.2066 116.387L53.8414 115.498C43.1756 113.72 35.354 105.155 34.045 94.9579C36.7438 103.135 43.7573 109.583 52.8395 111.086V111.102Z" fill="#811219"/>
<path opacity="0.25" d="M64.3134 69.1824C73.8318 70.7662 79.2778 74.3861 80.6515 80.0422C81.1039 81.9168 81.0555 85.2781 78.0981 85.1812C77.4032 85.165 76.1427 83.7429 75.0923 82.9026C74.3328 82.3046 72.2642 82.4339 72.4905 80.8825C73.9449 80.2684 74.8984 79.3796 75.0923 78.2807C75.5609 75.5011 70.9714 72.4145 64.8466 71.3964C58.7219 70.3783 53.389 71.8166 52.9203 74.5962C52.4517 77.3757 57.0412 80.4624 63.166 81.4805C63.1983 81.4805 63.2306 81.4805 63.2629 81.4805C65.0567 81.7714 68.1757 82.3854 66.6728 83.7591C65.6062 84.7287 64.4588 84.5348 62.3095 84.5024C60.1601 84.4701 56.1524 84.7933 53.6152 84.0823C45.729 81.9006 43.4827 79.0403 44.1937 74.7093C44.9048 70.3783 54.8111 67.5826 64.3295 69.1663L64.3134 69.1824Z" fill="white"/>
<path opacity="0.5" d="M57.0088 81.8198C58.1078 81.9653 61.2752 81.8521 61.2429 82.2723C61.2105 82.6925 60.7096 82.951 60.4187 82.9349C58.2047 82.8702 55.312 83.0642 53.2435 82.547C51.7891 82.1753 48.9448 81.5774 46.3107 78.8948C44.5169 77.101 45.0179 73.772 47.3126 72.6731C47.9914 72.3499 48.7832 71.4126 49.365 71.8812C49.866 72.2852 49.0095 73.1417 48.7994 73.8204C48.0399 76.3576 48.4115 77.8767 50.8679 79.3634C52.2254 80.123 54.9403 81.5936 57.025 81.836L57.0088 81.8198Z" fill="white"/>
<path opacity="0.5" d="M38.9093 84.2112C39.3294 84.3405 39.4102 84.6313 39.5234 84.8899C40.2183 86.5706 40.8485 88.2836 42.3999 89.4471C42.7069 89.6734 42.917 90.0774 42.5615 90.4168C42.1575 90.8046 41.6242 91.0308 41.0909 90.7723C39.9597 90.2067 38.9093 89.5603 38.5861 88.2028C38.3437 87.2008 38.0689 86.2151 38.1821 85.1646C38.2467 84.6314 38.5376 84.3889 38.9254 84.2273L38.9093 84.2112Z" fill="white"/>
<path opacity="0.2" d="M52.6456 110.245C56.217 110.698 59.4814 111.829 62.9397 111.684C68.2726 111.457 72.8783 109.631 76.7406 105.931C77.2254 105.462 77.8718 104.508 78.3567 104.929C78.9707 105.462 78.1466 106.27 77.7587 106.868C76.5144 108.775 74.6883 110.051 72.846 111.312C69.2261 113.817 65.1375 114.334 60.9358 113.865C58.4633 113.591 55.9907 112.944 53.8253 111.522C53.3889 111.231 52.9203 110.973 52.6294 110.261L52.6456 110.245Z" fill="white"/>
<path d="M120.083 75.4844H114.637C101.427 75.4844 90.7193 86.1925 90.7193 99.4017C90.7193 112.611 101.427 123.319 114.637 123.319H120.083C133.292 123.319 144 112.611 144 99.4017C144 86.1925 133.292 75.4844 120.083 75.4844Z" fill="#B21F26"/>
<path d="M120.083 75.4844H114.637C101.427 75.4844 90.7193 86.1925 90.7193 99.4017C90.7193 112.611 101.427 123.319 114.637 123.319H120.083C133.292 123.319 144 112.611 144 99.4017C144 86.1925 133.292 75.4844 120.083 75.4844Z" fill="url(#paint2_linear_622_49916)"/>
<g opacity="0.5" filter="url(#filter2_f_622_49916)">
<path d="M116.657 88.639C122.958 88.639 128.066 86.2513 128.066 83.3061C128.066 80.3608 122.958 77.9731 116.657 77.9731C110.356 77.9731 105.247 80.3608 105.247 83.3061C105.247 86.2513 110.356 88.639 116.657 88.639Z" fill="#811219"/>
<path d="M116.657 88.639C122.958 88.639 128.066 86.2513 128.066 83.3061C128.066 80.3608 122.958 77.9731 116.657 77.9731C110.356 77.9731 105.247 80.3608 105.247 83.3061C105.247 86.2513 110.356 88.639 116.657 88.639Z" fill="url(#paint3_radial_622_49916)" fill-opacity="0.4"/>
</g>
<path d="M121.779 119.133H116.333C103.13 119.133 92.4162 108.419 92.4162 95.2161C92.4162 92.8082 92.7717 90.4973 93.4343 88.3157C91.6889 91.6285 90.7032 95.3939 90.7032 99.4017C90.7032 112.605 101.417 123.319 114.62 123.319H120.066C130.878 123.319 139.992 116.144 142.966 106.302C138.974 113.93 130.991 119.133 121.779 119.133Z" fill="#811219"/>
<path opacity="0.25" d="M117.352 75.8884C107.704 75.8884 101.741 78.571 99.462 83.9201C98.7025 85.6978 98.2015 89.0268 101.127 89.4146C101.805 89.5116 103.292 88.3157 104.472 87.6693C105.328 87.2007 107.332 87.6693 107.381 86.1018C106.039 85.2614 105.247 84.2272 105.247 83.1121C105.247 80.284 110.273 78.0054 116.479 78.0054C122.684 78.0054 127.71 80.3002 127.71 83.1121C127.71 85.924 122.684 88.2188 116.479 88.2188C116.447 88.2188 116.414 88.2188 116.382 88.2188C114.572 88.2188 111.388 88.3157 112.649 89.8994C113.554 91.0307 114.717 91.0307 116.834 91.3539C118.951 91.6771 119.889 92.5336 122.491 92.2589C130.619 91.4024 134.821 88.2349 134.821 83.8393C134.821 79.4437 126.999 75.8884 117.335 75.8884H117.352Z" fill="white"/>
<path opacity="0.5" d="M133.253 84.7285C133.173 85.6173 132.817 86.5546 132.09 87.1526C130.845 88.203 129.31 88.704 127.71 88.9302C127.452 88.9625 127.064 89.0918 126.951 88.7363C126.822 88.3484 127.226 88.1707 127.5 88.0252C128.034 87.7182 128.615 87.4758 129.149 87.1687C130.344 86.49 131.007 85.4881 131.072 84.0821C131.104 83.5003 130.732 82.5792 131.75 82.5469C132.607 82.5146 132.946 83.2903 133.205 84.0175C133.269 84.2114 133.237 84.4215 133.269 84.7285H133.253Z" fill="white"/>
<path opacity="0.5" d="M103.728 80.2032C103.631 81.0436 103.13 81.7061 102.807 82.4495C102.355 83.4353 102.161 84.4049 102.937 85.2937C103.341 85.7624 102.969 85.924 102.743 86.1664C102.274 86.4734 101.725 86.5219 101.191 86.4573C100.593 86.3765 100.173 85.9725 100.286 85.3584C100.674 83.3383 101.741 81.6738 103.26 80.284C103.357 80.1871 103.583 79.9931 103.745 80.2194L103.728 80.2032Z" fill="white"/>
<path opacity="0.5" d="M98.0076 94.376C98.444 94.3114 98.6379 94.5376 98.848 94.7315C100.205 95.9436 101.531 97.2041 103.421 97.5758C103.809 97.6404 104.165 97.9151 103.987 98.3676C103.793 98.8847 103.421 99.3372 102.823 99.3211C101.563 99.3211 100.335 99.1918 99.4459 98.109C98.7833 97.3172 98.1046 96.5415 97.7491 95.5396C97.5713 95.0386 97.7491 94.6831 98.0076 94.376Z" fill="white"/>
<path opacity="0.2" d="M123.735 119.618C122.297 119.57 120.858 119.537 119.549 118.842C119.275 118.697 118.79 118.616 118.838 118.244C118.903 117.76 119.404 117.905 119.759 117.889C123.589 117.679 127.371 117.21 130.959 115.675C133.253 114.689 135.322 113.38 137.051 111.57C137.827 110.762 138.699 110.067 139.459 109.259C140.525 108.128 141.075 106.641 141.931 105.365C142.158 105.025 142.352 104.654 142.594 104.33C142.675 104.217 142.869 104.088 142.998 104.104C143.257 104.12 143.24 104.379 143.257 104.589C143.321 105.785 142.982 106.916 142.481 107.918C139.12 114.673 133.787 118.648 126.175 119.376C125.771 119.408 125.367 119.553 124.963 119.602C124.559 119.634 124.139 119.602 123.719 119.602L123.735 119.618Z" fill="white"/>
<path d="M113.473 78.8301C113.473 77.8928 113.344 77.0686 112.503 75.0486C111.631 73.6588 108.076 66.2735 106.783 64.2212C104.73 60.9406 103.179 57.45 101.611 53.9594C99.9469 50.2586 98.6864 46.4125 97.5228 42.534C96.3754 38.7363 95.2442 34.9386 94.7917 30.9632C95.0018 30.3168 95.3412 29.6219 96.1007 29.8966C97.1511 30.2845 98.3147 30.1229 99.3004 30.7046C99.3004 33.662 99.7529 36.5547 100.222 39.4797C100.836 43.3259 101.821 47.0427 102.985 50.7273C104.585 55.8016 106.767 60.6336 109.546 65.1746C111.356 68.1481 114.927 75.1132 115.17 75.4849C115.283 75.6304 117.804 79.4927 118.095 80.333C118.224 80.7209 118.499 81.0602 118.628 81.4481C119.162 83.0318 118.741 83.8237 117.109 84.2277C115.089 84.7448 114.33 84.6478 113.893 83.5974C113.602 82.9025 113.602 82.0783 113.538 81.3188C113.505 80.9794 113.505 79.0079 113.489 78.8301H113.473Z" fill="#5CA144"/>
<path d="M67.6585 72.7214C67.804 71.8002 68.0787 71.0084 69.2422 69.1499C70.3411 67.9218 75.0438 61.2152 76.6598 59.4053C79.2293 56.5126 81.314 53.3128 83.4472 50.1292C85.7096 46.7517 87.5681 43.1641 89.3619 39.528C90.6708 35.9566 91.2203 32.369 92.303 28.539C92.2061 27.8603 93.6282 27.1492 92.8202 27.3108C91.7213 27.5209 90.2184 26.7937 89.1518 27.1977C88.6831 30.1227 88.1175 33.274 87.1802 36.0859C85.9359 39.7704 84.3683 43.2772 82.6068 46.7194C80.1828 51.4705 77.2416 55.8661 73.7671 59.9062C71.5047 62.5404 66.8343 68.8267 66.5273 69.1499C66.3819 69.2792 63.2629 72.6567 62.8427 73.4648C62.6488 73.8203 62.3256 74.1112 62.1317 74.4667C61.3398 75.9534 61.6469 76.7938 63.1821 77.4564C65.089 78.2967 65.8647 78.329 66.4627 77.3594C66.8505 76.7291 66.9959 75.9211 67.1899 75.1777C67.2707 74.8545 67.61 72.9153 67.6424 72.7214H67.6585Z" fill="#5CA144"/>
<path d="M99.3005 30.7044C98.3147 30.1227 97.1511 30.2843 96.1007 29.8964C95.3412 29.6055 95.0018 30.3004 94.7917 30.963C94.4524 30.8175 94.42 30.5267 94.3554 30.1873C94.1615 29.153 93.208 28.8621 92.4485 29.5732C92.2546 29.7671 92.1091 29.9934 91.9314 30.2035C91.8182 29.2015 91.1718 28.442 90.687 27.6178C90.2668 26.9229 89.6689 27.3431 89.1679 27.1976C88.8124 26.2603 89.3619 25.4362 89.7174 24.7574C90.4608 23.3353 90.7032 21.5254 92.5454 20.8143C93.6767 20.378 94.6624 20.1356 95.8098 20.782C97.1188 21.5092 98.6702 21.6062 100.012 22.2849C100.706 22.6404 101.159 23.1575 100.658 23.8201C99.0257 25.921 99.3328 28.345 99.3166 30.7367L99.3005 30.7044ZM98.5086 23.7555C99.0419 23.6585 99.5752 23.5777 99.6883 23.0929C99.8014 22.6081 99.2843 22.5435 98.9611 22.398C97.4905 21.7031 95.7937 21.6708 94.3392 20.8789C93.8706 20.6204 93.2727 20.8789 92.8686 21.2829C92.5293 21.6223 92.4485 22.091 92.9979 22.2526C94.8402 22.802 96.7148 23.2707 98.4924 23.7555H98.5086Z" fill="#811219"/>
</g>
<path d="M55.9793 160.4C55.696 160.283 55.3793 160.2 55.0293 160.15C54.696 160.083 54.2876 160.05 53.8043 160.05C53.121 160.05 52.446 160.175 51.7793 160.425C51.1293 160.675 50.546 161.083 50.0293 161.65C49.5293 162.217 49.121 162.958 48.8043 163.875C48.5043 164.792 48.3543 165.917 48.3543 167.25C48.3543 168.45 48.4876 169.5 48.7543 170.4C49.0376 171.3 49.421 172.05 49.9043 172.65C50.4043 173.25 50.996 173.7 51.6793 174C52.3793 174.3 53.1543 174.45 54.0043 174.45C54.4376 174.45 54.8376 174.417 55.2043 174.35C55.5876 174.267 55.9376 174.158 56.2543 174.025V171.525H58.1043V174.9L58.1293 174.95C57.6293 175.333 56.996 175.658 56.2293 175.925C55.4626 176.175 54.5293 176.3 53.4293 176.3C52.3793 176.3 51.4043 176.125 50.5043 175.775C49.621 175.408 48.8543 174.858 48.2043 174.125C47.5543 173.392 47.046 172.458 46.6793 171.325C46.3293 170.175 46.1543 168.817 46.1543 167.25C46.1543 165.617 46.3543 164.233 46.7543 163.1C47.1543 161.95 47.696 161.017 48.3793 160.3C49.0626 159.567 49.8543 159.033 50.7543 158.7C51.671 158.367 52.646 158.2 53.6793 158.2C54.246 158.2 54.7376 158.225 55.1543 158.275C55.571 158.308 55.9376 158.367 56.2543 158.45C56.571 158.517 56.846 158.608 57.0793 158.725C57.3293 158.842 57.571 158.975 57.8043 159.125H57.8293V163.075H55.9793V160.4ZM71.7445 174.425C71.4445 174.692 71.0862 174.942 70.6695 175.175C70.2695 175.408 69.8279 175.608 69.3445 175.775C68.8612 175.942 68.3529 176.067 67.8195 176.15C67.3029 176.25 66.7779 176.3 66.2445 176.3C65.2445 176.3 64.3612 176.15 63.5945 175.85C62.8279 175.533 62.1862 175.092 61.6695 174.525C61.1529 173.942 60.7612 173.25 60.4945 172.45C60.2279 171.65 60.0945 170.75 60.0945 169.75C60.0945 168.7 60.2362 167.767 60.5195 166.95C60.8195 166.133 61.2445 165.45 61.7945 164.9C62.3445 164.35 63.0112 163.933 63.7945 163.65C64.5779 163.35 65.4529 163.2 66.4195 163.2C67.1195 163.2 67.8112 163.292 68.4945 163.475C69.1779 163.658 69.7779 164.008 70.2945 164.525C70.8279 165.025 71.2362 165.725 71.5195 166.625C71.8029 167.508 71.9029 168.658 71.8195 170.075H62.1445C62.1445 171.575 62.5445 172.7 63.3445 173.45C64.1612 174.183 65.2445 174.55 66.5945 174.55C67.0445 174.55 67.4862 174.5 67.9195 174.4C68.3695 174.283 68.7945 174.15 69.1945 174C69.5945 173.85 69.9445 173.683 70.2445 173.5C70.5612 173.317 70.8029 173.15 70.9695 173L71.7445 174.425ZM66.4695 164.85C65.9195 164.85 65.3945 164.908 64.8945 165.025C64.4112 165.142 63.9779 165.342 63.5945 165.625C63.2279 165.892 62.9195 166.25 62.6695 166.7C62.4362 167.133 62.2862 167.675 62.2195 168.325H69.9945C69.9112 167.225 69.5529 166.375 68.9195 165.775C68.3029 165.158 67.4862 164.85 66.4695 164.85ZM74.1598 176V174.325H77.5348V165.175H74.1598V163.5H78.8348L79.2348 165.125H79.3598C79.9264 164.608 80.5598 164.167 81.2598 163.8C81.9598 163.433 82.7931 163.25 83.7598 163.25C84.3264 163.25 84.7764 163.358 85.1098 163.575C85.4598 163.792 85.7264 164.108 85.9098 164.525C86.1098 164.942 86.2431 165.45 86.3098 166.05C86.3764 166.633 86.4098 167.3 86.4098 168.05L84.6598 168.075C84.6598 167.008 84.5514 166.225 84.3348 165.725C84.1348 165.225 83.7598 164.975 83.2098 164.975C82.6931 164.975 82.2264 165.05 81.8098 165.2C81.3931 165.35 81.0264 165.533 80.7098 165.75C80.4098 165.967 80.1514 166.183 79.9348 166.4C79.7181 166.617 79.5598 166.8 79.4598 166.95V174.325H84.2598V176H74.1598ZM99.725 174.425C99.425 174.692 99.0667 174.942 98.65 175.175C98.25 175.408 97.8083 175.608 97.325 175.775C96.8417 175.942 96.3333 176.067 95.8 176.15C95.2833 176.25 94.7583 176.3 94.225 176.3C93.225 176.3 92.3417 176.15 91.575 175.85C90.8083 175.533 90.1667 175.092 89.65 174.525C89.1333 173.942 88.7417 173.25 88.475 172.45C88.2083 171.65 88.075 170.75 88.075 169.75C88.075 168.7 88.2167 167.767 88.5 166.95C88.8 166.133 89.225 165.45 89.775 164.9C90.325 164.35 90.9917 163.933 91.775 163.65C92.5583 163.35 93.4333 163.2 94.4 163.2C95.1 163.2 95.7917 163.292 96.475 163.475C97.1583 163.658 97.7583 164.008 98.275 164.525C98.8083 165.025 99.2167 165.725 99.5 166.625C99.7833 167.508 99.8833 168.658 99.8 170.075H90.125C90.125 171.575 90.525 172.7 91.325 173.45C92.1417 174.183 93.225 174.55 94.575 174.55C95.025 174.55 95.4667 174.5 95.9 174.4C96.35 174.283 96.775 174.15 97.175 174C97.575 173.85 97.925 173.683 98.225 173.5C98.5417 173.317 98.7833 173.15 98.95 173L99.725 174.425ZM94.45 164.85C93.9 164.85 93.375 164.908 92.875 165.025C92.3917 165.142 91.9583 165.342 91.575 165.625C91.2083 165.892 90.9 166.25 90.65 166.7C90.4167 167.133 90.2667 167.675 90.2 168.325H97.975C97.8917 167.225 97.5333 166.375 96.9 165.775C96.2833 165.158 95.4667 164.85 94.45 164.85ZM108.89 165.175H102.84V163.5H110.89V176.3C110.89 177.983 110.457 179.233 109.59 180.05C108.74 180.883 107.557 181.3 106.04 181.3C105.59 181.3 105.149 181.242 104.715 181.125C104.299 181.008 103.907 180.867 103.54 180.7C103.174 180.55 102.849 180.392 102.565 180.225C102.299 180.058 102.099 179.925 101.965 179.825L102.79 178.2C103.24 178.533 103.749 178.825 104.315 179.075C104.899 179.325 105.499 179.45 106.115 179.45C107.115 179.45 107.824 179.133 108.24 178.5C108.674 177.883 108.89 177.025 108.89 175.925V165.175ZM107.84 159.95C107.84 159.5 107.99 159.117 108.29 158.8C108.59 158.467 108.974 158.3 109.44 158.3C109.924 158.3 110.324 158.467 110.64 158.8C110.974 159.117 111.14 159.5 111.14 159.95C111.14 160.383 110.974 160.75 110.64 161.05C110.324 161.35 109.924 161.5 109.44 161.5C108.974 161.5 108.59 161.35 108.29 161.05C107.99 160.75 107.84 160.383 107.84 159.95ZM117.18 164.475C117.897 164.058 118.705 163.758 119.605 163.575C120.505 163.392 121.389 163.3 122.255 163.3C123.105 163.3 123.797 163.433 124.33 163.7C124.88 163.967 125.305 164.317 125.605 164.75C125.922 165.167 126.13 165.65 126.23 166.2C126.347 166.733 126.405 167.275 126.405 167.825C126.405 168.458 126.389 169.133 126.355 169.85C126.322 170.567 126.297 171.283 126.28 172C126.28 172.833 126.33 173.625 126.43 174.375H128.105V176H124.78L124.555 174.125H124.43C124.33 174.275 124.18 174.467 123.98 174.7C123.78 174.933 123.514 175.167 123.18 175.4C122.864 175.617 122.472 175.808 122.005 175.975C121.539 176.142 120.989 176.225 120.355 176.225C119.122 176.225 118.147 175.908 117.43 175.275C116.714 174.642 116.355 173.775 116.355 172.675C116.355 171.825 116.539 171.117 116.905 170.55C117.289 169.983 117.83 169.55 118.53 169.25C119.23 168.95 120.072 168.775 121.055 168.725C122.055 168.675 123.172 168.742 124.405 168.925C124.489 168.158 124.497 167.525 124.43 167.025C124.38 166.508 124.247 166.1 124.03 165.8C123.83 165.5 123.539 165.292 123.155 165.175C122.789 165.042 122.33 164.975 121.78 164.975C121.03 164.975 120.314 165.083 119.63 165.3C118.947 165.5 118.339 165.708 117.805 165.925L117.18 164.475ZM120.855 174.55C121.322 174.55 121.755 174.475 122.155 174.325C122.555 174.175 122.905 173.983 123.205 173.75C123.505 173.517 123.755 173.267 123.955 173C124.155 172.717 124.305 172.45 124.405 172.2V170.45C123.539 170.3 122.739 170.225 122.005 170.225C121.272 170.225 120.639 170.308 120.105 170.475C119.572 170.625 119.155 170.867 118.855 171.2C118.555 171.533 118.405 171.967 118.405 172.5C118.405 173.05 118.589 173.533 118.955 173.95C119.339 174.35 119.972 174.55 120.855 174.55Z" fill="white"/>
<defs>
<filter id="filter0_d_622_49916" x="23.1" y="16.3857" width="130.9" height="118.933" filterUnits="userSpaceOnUse" color-interpolation-filters="sRGB">
<feFlood flood-opacity="0" result="BackgroundImageFix"/>
<feColorMatrix in="SourceAlpha" type="matrix" values="0 0 0 0 0 0 0 0 0 0 0 0 0 0 0 0 0 0 127 0" result="hardAlpha"/>
<feOffset dx="2" dy="4"/>
<feGaussianBlur stdDeviation="4"/>
<feComposite in2="hardAlpha" operator="out"/>
<feColorMatrix type="matrix" values="0 0 0 0 0 0 0 0 0 0.137376 0 0 0 0 0.195833 0 0 0 0.4 0"/>
<feBlend mode="normal" in2="BackgroundImageFix" result="effect1_dropShadow_622_49916"/>
<feBlend mode="normal" in="SourceGraphic" in2="effect1_dropShadow_622_49916" result="shape"/>
</filter>
<filter id="filter1_f_622_49916" x="48.8187" y="67.0171" width="30.2869" height="18.7952" filterUnits="userSpaceOnUse" color-interpolation-filters="sRGB">
<feFlood flood-opacity="0" result="BackgroundImageFix"/>
<feBlend mode="normal" in="SourceGraphic" in2="BackgroundImageFix" result="shape"/>
<feGaussianBlur stdDeviation="2" result="effect1_foregroundBlur_622_49916"/>
</filter>
<filter id="filter2_f_622_49916" x="101.247" y="73.9731" width="30.8184" height="18.6658" filterUnits="userSpaceOnUse" color-interpolation-filters="sRGB">
<feFlood flood-opacity="0" result="BackgroundImageFix"/>
<feBlend mode="normal" in="SourceGraphic" in2="BackgroundImageFix" result="shape"/>
<feGaussianBlur stdDeviation="2" result="effect1_foregroundBlur_622_49916"/>
</filter>
<linearGradient id="paint0_linear_622_49916" x1="51" y1="113.5" x2="74.3042" y2="66.9026" gradientUnits="userSpaceOnUse">
<stop stop-color="#4E0815"/>
<stop offset="0.598958" stop-color="#F02431"/>
<stop offset="1" stop-color="#FF6D5E"/>
</linearGradient>
<radialGradient id="paint1_radial_622_49916" cx="0" cy="0" r="1" gradientUnits="userSpaceOnUse" gradientTransform="translate(63.9621 76.4146) rotate(9.45) scale(11.2638 5.13899)">
<stop offset="0.526042"/>
<stop offset="1" stop-opacity="0"/>
</radialGradient>
<linearGradient id="paint2_linear_622_49916" x1="108" y1="123" x2="138.008" y2="66.7374" gradientUnits="userSpaceOnUse">
<stop stop-color="#4E0815"/>
<stop offset="0.598958" stop-color="#F02431"/>
<stop offset="1" stop-color="#FF6D5E"/>
</linearGradient>
<radialGradient id="paint3_radial_622_49916" cx="0" cy="0" r="1" gradientUnits="userSpaceOnUse" gradientTransform="translate(116.657 83.3061) rotate(90) scale(5.33291 11.4092)">
<stop offset="0.526042"/>
<stop offset="1" stop-opacity="0"/>
</radialGradient>
</defs>
</svg>
