<svg width="236" height="236" viewBox="0 0 236 236" fill="none" xmlns="http://www.w3.org/2000/svg">
<path d="M200.902 236L236 91.5313L118 5.15794e-06L-6.31493e-06 91.5314L35.0981 236L200.902 236Z" fill="white" fill-opacity="0.2"/>
<path d="M37.4565 233L198.543 233L232.626 92.711L118 3.79674L3.37386 92.711L37.4565 233Z" fill="#0E516A" fill-opacity="0.6" stroke="#00739F" stroke-width="6"/>
<path d="M177.553 147.663C177.679 147.495 177.797 147.333 177.916 147.158C178.007 147.025 178.091 146.892 178.175 146.751C178.301 146.541 178.427 146.324 178.546 146.106C178.609 145.994 178.664 145.882 178.72 145.763C178.86 145.482 178.986 145.201 179.098 144.907C179.119 144.851 179.147 144.802 179.168 144.753C179.175 144.732 179.182 144.718 179.189 144.696C179.469 143.96 179.685 143.196 179.818 142.403C179.846 142.249 179.86 142.095 179.881 141.94C179.909 141.723 179.944 141.505 179.958 141.281C179.972 141.071 179.979 140.86 179.986 140.65C179.986 140.524 180 140.404 180 140.278C180 140.229 180 140.18 180 140.131C180 139.92 179.986 139.717 179.972 139.507C179.958 139.317 179.951 139.135 179.93 138.953C179.909 138.777 179.888 138.602 179.86 138.427C179.825 138.209 179.79 137.992 179.741 137.774C179.713 137.634 179.678 137.494 179.643 137.347C179.58 137.101 179.518 136.856 179.441 136.61C179.406 136.498 179.371 136.386 179.336 136.274C179.245 136.007 179.147 135.748 179.035 135.495C178.993 135.404 178.958 135.313 178.923 135.222C178.797 134.948 178.664 134.681 178.525 134.415C178.49 134.345 178.455 134.268 178.413 134.198C178.231 133.875 178.035 133.552 177.818 133.251C177.769 133.174 177.707 133.104 177.651 133.033C177.49 132.809 177.322 132.592 177.147 132.374C177.021 132.227 176.888 132.087 176.756 131.939C176.637 131.813 176.525 131.68 176.399 131.561C176.252 131.413 176.098 131.273 175.952 131.14C175.826 131.028 175.707 130.915 175.574 130.81C175.42 130.684 175.266 130.558 175.105 130.438C174.959 130.326 174.805 130.214 174.651 130.109C174.504 130.004 174.357 129.905 174.203 129.807C173.994 129.674 173.777 129.555 173.56 129.436C173.448 129.372 173.343 129.309 173.225 129.253C172.532 128.903 171.798 128.615 171.043 128.405C170.91 128.37 170.77 128.334 170.637 128.306C170.47 128.264 170.309 128.215 170.141 128.18C168.722 122.051 166.26 116.321 162.946 111.194C162.946 111.194 162.946 111.194 162.946 111.187C163.114 110.941 163.268 110.689 163.414 110.43C163.442 110.38 163.47 110.324 163.498 110.268C163.652 109.995 163.792 109.714 163.918 109.427C163.96 109.335 163.995 109.244 164.037 109.153C164.163 108.859 164.275 108.564 164.379 108.262C164.4 108.206 164.421 108.157 164.435 108.101C164.554 107.722 164.659 107.344 164.75 106.951C164.75 106.944 164.75 106.937 164.75 106.93C164.75 106.902 164.757 106.874 164.764 106.853C164.834 106.523 164.89 106.186 164.932 105.85C164.946 105.738 164.96 105.625 164.967 105.513C164.995 105.254 165.009 104.987 165.016 104.721C165.016 104.594 165.03 104.475 165.03 104.349C165.03 104.328 165.03 104.307 165.03 104.293C165.03 104.188 165.016 104.089 165.016 103.991C165.009 103.69 165.002 103.395 164.974 103.101C164.96 102.953 164.932 102.813 164.918 102.666C164.883 102.413 164.855 102.161 164.806 101.908C164.771 101.719 164.715 101.537 164.673 101.347C164.624 101.151 164.582 100.948 164.519 100.758C164.456 100.541 164.379 100.33 164.302 100.12C164.247 99.9586 164.191 99.7973 164.128 99.643C164.037 99.4186 163.939 99.2082 163.834 98.9978C163.764 98.8505 163.701 98.7103 163.624 98.57C163.519 98.3666 163.393 98.1632 163.275 97.9669C163.191 97.8266 163.107 97.6793 163.016 97.5391C162.897 97.3567 162.771 97.1884 162.645 97.0131C162.533 96.8588 162.429 96.7115 162.31 96.5642C162.191 96.4169 162.065 96.2767 161.939 96.1364C161.799 95.9751 161.659 95.8208 161.513 95.6665C161.394 95.5473 161.268 95.4351 161.149 95.3158C160.981 95.1545 160.813 95.0002 160.639 94.853C160.513 94.7478 160.387 94.6566 160.261 94.5584C160.072 94.4111 159.89 94.2709 159.695 94.1306C159.555 94.0324 159.408 93.9482 159.261 93.8571C159.072 93.7378 158.884 93.6186 158.688 93.5064C158.506 93.4082 158.324 93.317 158.135 93.2259C157.968 93.1417 157.8 93.0576 157.625 92.9804C157.387 92.8752 157.149 92.7911 156.905 92.7069C156.772 92.6578 156.639 92.6017 156.499 92.5596C156.219 92.4684 155.926 92.3983 155.639 92.3212C155.541 92.3001 155.45 92.2651 155.352 92.244C155.338 92.244 155.317 92.244 155.303 92.237C155.052 92.1809 154.793 92.1458 154.534 92.1108C154.367 92.0827 154.206 92.0547 154.038 92.0336C153.884 92.0196 153.723 92.0126 153.562 92.0056C153.297 91.9845 153.024 91.9635 152.758 91.9635C152.744 91.9635 152.73 91.9635 152.709 91.9635C152.388 91.9635 152.073 91.9775 151.758 91.9985C151.591 92.0126 151.416 92.0336 151.248 92.0547C151.038 92.0827 150.828 92.1037 150.619 92.1388C150.444 92.1669 150.276 92.2089 150.101 92.244C149.919 92.2861 149.745 92.3282 149.563 92.3703C149.381 92.4193 149.206 92.4684 149.024 92.5245C148.871 92.5736 148.717 92.6297 148.563 92.6788C148.367 92.749 148.178 92.8191 147.99 92.8963C147.913 92.9243 147.843 92.9664 147.773 92.9944C146.99 93.3381 146.249 93.7589 145.556 94.2568C145.542 94.2709 145.521 94.2779 145.5 94.2919C144.508 93.6958 143.487 93.1347 142.459 92.6017C142.207 92.4684 141.948 92.3352 141.697 92.2089C141.249 91.9845 140.788 91.7671 140.333 91.5567C140.123 91.4585 139.907 91.3603 139.697 91.2692C139.186 91.0447 138.676 90.8203 138.166 90.6099C138.082 90.5748 137.991 90.5398 137.907 90.5047C135.39 89.4878 132.782 88.6602 130.09 88.036C130.034 87.7555 129.964 87.475 129.894 87.2014C129.873 87.1103 129.852 87.0191 129.824 86.9279C129.754 86.6755 129.663 86.43 129.579 86.1845C129.537 86.0793 129.502 85.9671 129.46 85.8619C129.369 85.6305 129.271 85.399 129.167 85.1746C129.118 85.0624 129.062 84.9502 129.006 84.838C128.894 84.6206 128.782 84.4031 128.663 84.1927C128.6 84.0805 128.53 83.9753 128.467 83.8631C128.341 83.6597 128.216 83.4563 128.076 83.26C127.999 83.1548 127.922 83.0566 127.845 82.9514C127.705 82.762 127.558 82.5727 127.405 82.3903C127.328 82.2992 127.244 82.208 127.16 82.1238C126.817 81.7381 126.447 81.3734 126.055 81.0297C125.999 80.9807 125.95 80.9316 125.894 80.8825C125.747 80.7632 125.594 80.651 125.44 80.5318C125.293 80.4196 125.146 80.3004 124.992 80.1952C124.845 80.09 124.692 79.9988 124.538 79.9006C124.37 79.7954 124.202 79.6902 124.034 79.592C123.88 79.5079 123.727 79.4237 123.573 79.3466C123.391 79.2554 123.209 79.1642 123.02 79.08C122.867 79.0099 122.706 78.9468 122.552 78.8837C122.356 78.8065 122.153 78.7294 121.951 78.6593C121.797 78.6031 121.636 78.5541 121.475 78.505C121.258 78.4418 121.035 78.3857 120.811 78.3366C120.657 78.3016 120.51 78.2595 120.356 78.2314C120.105 78.1823 119.853 78.1473 119.594 78.1122C119.461 78.0982 119.329 78.0701 119.196 78.0561C118.811 78.021 118.427 78 118.035 78C118.028 78 118.014 78 118.007 78C111.994 78 106.994 82.3202 105.91 88.036C100.338 89.3335 95.0865 91.4936 90.3248 94.3901C88.2761 92.8682 85.7449 91.9495 82.997 91.9495C76.1935 91.9495 70.6767 97.4829 70.6767 104.307C70.6767 106.958 71.5157 109.406 72.9352 111.418C69.6908 116.496 67.2715 122.156 65.873 128.201C60.2443 129.344 56 134.331 56 140.313C56 146.296 60.2373 151.282 65.873 152.425C67.2435 158.365 69.5999 163.934 72.7603 168.948C71.4458 170.912 70.6697 173.283 70.6697 175.829C70.6697 182.652 76.1865 188.186 82.99 188.186C85.5771 188.186 87.9754 187.386 89.9542 186.019C98.1141 191.075 107.721 194 118 194C118.818 194 119.636 193.972 120.447 193.937C120.664 193.93 120.881 193.916 121.105 193.902C121.797 193.86 122.489 193.811 123.174 193.74C123.3 193.726 123.433 193.719 123.559 193.705C124.342 193.621 125.125 193.523 125.894 193.404C126.111 193.369 126.328 193.334 126.544 193.299C127.153 193.2 127.761 193.088 128.369 192.969C128.565 192.927 128.768 192.892 128.964 192.85C129.705 192.696 130.439 192.52 131.173 192.338C131.39 192.282 131.6 192.226 131.817 192.163C132.369 192.015 132.914 191.861 133.46 191.693C133.705 191.615 133.949 191.545 134.187 191.468C134.879 191.244 135.571 191.012 136.25 190.767C136.459 190.69 136.662 190.606 136.865 190.528C137.375 190.332 137.886 190.136 138.389 189.925C138.655 189.813 138.928 189.701 139.193 189.589C139.732 189.357 140.263 189.112 140.795 188.866C141.074 188.733 141.354 188.6 141.634 188.459C142.137 188.214 142.634 187.955 143.123 187.695C143.396 187.548 143.668 187.4 143.941 187.246C144.368 187.008 144.794 186.762 145.221 186.51C145.451 186.377 145.675 186.243 145.906 186.103C145.92 186.117 145.941 186.124 145.955 186.138C146.074 186.215 146.2 186.285 146.318 186.363C146.5 186.475 146.682 186.58 146.871 186.685C147.004 186.755 147.13 186.825 147.269 186.896C147.486 187.001 147.703 187.099 147.927 187.197C148.032 187.239 148.129 187.288 148.234 187.33C148.549 187.457 148.878 187.562 149.206 187.66C149.318 187.695 149.437 187.723 149.556 187.751C149.801 187.814 150.045 187.877 150.297 187.926C150.416 187.948 150.542 187.976 150.661 187.997C150.968 188.046 151.276 188.088 151.591 188.116C151.647 188.116 151.702 188.13 151.758 188.137C152.08 188.165 152.402 188.179 152.73 188.179C152.772 188.179 152.821 188.179 152.863 188.179C152.905 188.179 152.947 188.179 152.989 188.179C153.15 188.179 153.311 188.151 153.472 188.144C153.688 188.13 153.912 188.123 154.122 188.095C154.318 188.074 154.513 188.039 154.702 188.004C154.919 187.969 155.129 187.941 155.338 187.891C155.527 187.849 155.716 187.793 155.905 187.744C156.108 187.688 156.31 187.639 156.513 187.576C156.702 187.513 156.884 187.443 157.066 187.372C157.261 187.302 157.45 187.232 157.639 187.148C157.821 187.071 157.995 186.98 158.17 186.889C158.352 186.797 158.534 186.713 158.709 186.615C158.884 186.517 159.044 186.412 159.212 186.306C159.38 186.201 159.555 186.096 159.716 185.984C159.876 185.872 160.03 185.752 160.184 185.633C160.345 185.514 160.506 185.395 160.653 185.261C160.799 185.135 160.939 185.002 161.079 184.869C161.226 184.728 161.38 184.595 161.52 184.448C161.652 184.315 161.778 184.167 161.904 184.027C162.037 183.873 162.177 183.726 162.31 183.564C162.429 183.417 162.533 183.263 162.645 183.108C162.771 182.94 162.89 182.779 163.009 182.603C163.114 182.449 163.205 182.281 163.303 182.119C163.407 181.937 163.519 181.762 163.617 181.579C163.708 181.411 163.785 181.236 163.862 181.06C163.953 180.871 164.044 180.689 164.121 180.492C164.198 180.31 164.254 180.128 164.323 179.938C164.393 179.742 164.463 179.553 164.526 179.356C164.582 179.16 164.631 178.963 164.68 178.767C164.729 178.571 164.778 178.374 164.82 178.171C164.862 177.968 164.883 177.757 164.911 177.554C164.939 177.35 164.974 177.154 164.988 176.944C165.009 176.733 165.009 176.523 165.023 176.312C165.023 176.144 165.051 175.983 165.051 175.815C165.051 175.758 165.051 175.709 165.051 175.653C165.051 175.618 165.051 175.583 165.051 175.555C165.051 175.492 165.037 175.429 165.037 175.366C165.023 175.071 165.009 174.784 164.974 174.496C164.96 174.391 164.953 174.286 164.939 174.173C164.89 173.823 164.834 173.479 164.757 173.135C164.729 173.009 164.694 172.89 164.659 172.771C164.603 172.56 164.547 172.35 164.484 172.14C164.428 171.957 164.365 171.782 164.302 171.607C164.254 171.48 164.205 171.354 164.156 171.228C163.883 170.533 163.547 169.881 163.156 169.257C163.142 169.229 163.121 169.201 163.107 169.173C163.107 169.173 163.107 169.173 163.107 169.166C166.344 164.102 168.75 158.457 170.141 152.425C170.141 152.425 170.141 152.425 170.141 152.418C170.19 152.411 170.239 152.39 170.281 152.383C170.428 152.355 170.567 152.313 170.714 152.278C170.945 152.222 171.176 152.159 171.407 152.081C171.532 152.039 171.658 151.997 171.784 151.955C172.022 151.871 172.253 151.78 172.483 151.689C172.602 151.64 172.728 151.584 172.847 151.527C173.071 151.422 173.287 151.317 173.497 151.198C173.623 151.135 173.742 151.065 173.868 150.994C174.064 150.882 174.259 150.756 174.448 150.63C174.581 150.546 174.707 150.461 174.833 150.37C175.001 150.251 175.168 150.118 175.329 149.985C175.462 149.879 175.602 149.781 175.728 149.669C175.882 149.536 176.028 149.388 176.182 149.248C176.427 149.017 176.658 148.778 176.881 148.526C177 148.392 177.126 148.259 177.238 148.112C177.35 147.972 177.455 147.824 177.567 147.677L177.553 147.663Z" fill="black"/>
</svg>
