<svg width="174" height="200" viewBox="0 0 174 200" fill="none" xmlns="http://www.w3.org/2000/svg">
<rect width="174" height="200" fill="white" fill-opacity="0.05"/>
<path d="M78.2285 66.8301C78.2285 66.8301 101.988 79.2701 100.178 98.8501C98.2885 119.26 93.3785 115.42 92.4885 119.47C92.4885 119.47 80.8785 118.39 77.1685 101.8C69.3885 87.7201 74.2585 72.2601 77.5485 67.7501L78.2185 66.8301H78.2285Z" fill="#4C6A16"/>
<path d="M78.2285 66.8301C78.2285 66.8301 101.988 79.2701 100.178 98.8501C98.2885 119.26 93.3785 115.42 92.4885 119.47C92.4885 119.47 80.8785 118.39 77.1685 101.8C69.3885 87.7201 74.2585 72.2601 77.5485 67.7501L78.2185 66.8301H78.2285Z" fill="url(#paint0_linear_622_49924)" fill-opacity="0.5" style="mix-blend-mode:multiply"/>
<path d="M75.3085 59.0901L78.2185 66.8201L79.9885 71.6901C79.9885 71.6901 72.8785 60.4801 73.2285 59.5001C73.5785 58.5201 75.3085 59.0901 75.3085 59.0901Z" fill="#A4B67E"/>
<path d="M91.7285 114.51C91.8985 111.62 87.1285 91.2902 79.9885 71.6902C77.9785 66.1702 77.5485 67.7502 77.5485 67.7502C77.5485 67.7502 84.2485 85.1202 87.7085 98.0002C91.1685 110.88 91.7285 114.51 91.7285 114.51Z" fill="#A4B67E"/>
<path d="M85.1685 85.52C85.1685 85.52 92.3985 87.27 96.8785 86.18C95.8085 86.98 89.0385 86.97 85.1685 85.52Z" fill="#A4B67E"/>
<path d="M83.3085 80.8301C83.3085 80.8301 89.9085 82.4401 94.0485 81.2701C93.0485 82.0901 86.8385 82.2001 83.3085 80.8301Z" fill="#A4B67E"/>
<path d="M81.9885 76.4401C81.9885 76.4401 86.9785 77.7001 90.2085 76.3301C89.3985 77.1901 84.6285 77.6101 81.9885 76.4401Z" fill="#A4B67E"/>
<path d="M80.5385 72.22C80.5385 72.22 83.5985 73.37 85.9485 72C85.2785 72.85 82.0685 73.33 80.5385 72.22Z" fill="#A4B67E"/>
<path d="M86.4685 90.49C86.4685 90.49 94.2385 92.36 99.0185 91.33C97.8885 92.12 90.6385 92 86.4685 90.49Z" fill="#A4B67E"/>
<path d="M88.0885 96.0601C88.0885 96.0601 95.2085 97.7901 99.6285 96.6801C98.5685 97.4901 91.8985 97.4901 88.0885 96.0601Z" fill="#A4B67E"/>
<path d="M89.4085 100.99C89.4085 100.99 95.5385 102.5 99.3985 101.27C98.4585 102.1 92.6685 102.3 89.4085 100.99Z" fill="#A4B67E"/>
<path d="M90.6385 105.95C90.6385 105.95 95.6485 107.21 98.8885 105.85C98.0785 106.71 93.2885 107.13 90.6385 105.95Z" fill="#A4B67E"/>
<path d="M91.5485 110.49C91.5485 110.49 95.0885 111.43 97.5085 109.88C96.8685 110.78 93.3885 111.48 91.5485 110.49Z" fill="#A4B67E"/>
<path d="M91.8785 113.81C91.8785 113.81 94.3685 114.73 96.2885 113.53C95.7385 114.26 93.1185 114.71 91.8785 113.81Z" fill="#A4B67E"/>
<path d="M83.9085 86.3C83.9085 86.3 78.8185 90.67 74.6485 91.46C75.8985 91.75 81.4185 89.08 83.9085 86.3Z" fill="#A4B67E"/>
<path d="M82.1685 81.3401C82.1685 81.3401 77.6485 85.2401 73.7985 85.7701C74.9785 86.1101 79.9985 83.8701 82.1685 81.3401Z" fill="#A4B67E"/>
<path d="M80.8485 77.0801C80.8485 77.0801 76.9685 80.4601 73.4685 80.7001C74.5785 81.1001 79.0285 79.3201 80.8485 77.0801Z" fill="#A4B67E"/>
<path d="M79.1885 72.6101C79.1885 72.6101 77.0385 74.9501 74.4485 74.8301C75.3785 75.2501 78.3385 74.2201 79.1885 72.6101Z" fill="#A4B67E"/>
<path d="M85.2585 91.1101C85.2585 91.1101 79.8785 95.7101 75.5385 96.6401C76.8185 96.9001 82.6085 94.0301 85.2585 91.1101Z" fill="#A4B67E"/>
<path d="M86.6585 96.54C86.6585 96.54 81.4185 101.03 77.1585 101.89C78.4285 102.16 84.0885 99.39 86.6585 96.54Z" fill="#A4B67E"/>
<path d="M87.7185 101.53C87.7185 101.53 82.9385 105.65 78.9285 106.3C80.1385 106.62 85.3985 104.18 87.7185 101.53Z" fill="#A4B67E"/>
<path d="M88.8685 106.51C88.8685 106.51 84.9685 109.9 81.4585 110.15C82.5685 110.55 87.0385 108.76 88.8685 106.51Z" fill="#A4B67E"/>
<path d="M90.1085 110.97C90.1085 110.97 87.3785 113.41 84.5185 113.13C85.4885 113.64 88.9185 112.7 90.1085 110.97Z" fill="#A4B67E"/>
<path d="M91.3085 114.09C91.3085 114.09 89.5085 116.04 87.2485 115.84C88.0685 116.24 90.6085 115.46 91.3085 114.09Z" fill="#A4B67E"/>
<path d="M75.0585 68.2002C75.0585 68.2002 105.189 51.3802 124.999 67.1302C144.809 82.8802 138.048 86.1202 141.788 89.9402C141.788 89.9402 132.439 101.68 111.969 93.9802C91.3285 92.4402 78.1085 76.3002 75.5785 69.5802L75.0585 68.2002Z" fill="#394E13"/>
<path d="M75.0585 68.2002C75.0585 68.2002 105.189 51.3802 124.999 67.1302C144.809 82.8802 138.048 86.1202 141.788 89.9402C141.788 89.9402 132.439 101.68 111.969 93.9802C91.3285 92.4402 78.1085 76.3002 75.5785 69.5802L75.0585 68.2002Z" fill="url(#paint1_linear_622_49924)" fill-opacity="0.5" style="mix-blend-mode:multiply"/>
<path d="M75.0585 68.2002C75.0585 68.2002 105.189 51.3802 124.999 67.1302C144.809 82.8802 138.048 86.1202 141.788 89.9402C141.788 89.9402 132.439 101.68 111.969 93.9802C91.3285 92.4402 78.1085 76.3002 75.5785 69.5802L75.0585 68.2002Z" fill="url(#paint2_linear_622_49924)" fill-opacity="0.5" style="mix-blend-mode:multiply"/>
<path d="M64.6885 65.8901L75.0685 68.2001L81.5585 69.7301C81.5585 69.7301 64.4785 69.4901 63.6585 68.4201C62.8385 67.3501 64.6885 65.8901 64.6885 65.8901Z" fill="#A4B67E"/>
<path d="M135.918 87.2602C132.928 85.0402 107.678 75.8502 81.5485 69.7302C74.1885 68.0102 75.5785 69.5802 75.5785 69.5802C75.5785 69.5802 98.9985 74.6002 115.308 79.9502C131.618 85.3002 135.918 87.2602 135.918 87.2602Z" fill="#A4B67E"/>
<path d="M100.079 73.89C100.079 73.89 107.059 67.34 109.039 61.74C109.149 63.46 104.359 70.73 100.079 73.89Z" fill="#A4B67E"/>
<path d="M93.7285 72.6001C93.7285 72.6001 100.118 66.6301 101.768 61.3501C101.948 63.0001 97.6885 69.7601 93.7285 72.6001Z" fill="#A4B67E"/>
<path d="M88.0585 70.92C88.0585 70.92 92.9285 66.44 93.7285 62C94.0885 63.47 91.1785 68.91 88.0585 70.92Z" fill="#A4B67E"/>
<path d="M82.4985 69.51C82.4985 69.51 85.8885 67.03 86.0685 63.53C86.5085 64.85 84.7685 68.64 82.4985 69.51Z" fill="#A4B67E"/>
<path d="M106.348 76.0001C106.348 76.0001 113.838 68.9501 116.098 63.0801C116.148 64.8601 110.908 72.5701 106.348 76.0001Z" fill="#A4B67E"/>
<path d="M113.488 78.1802C113.488 78.1802 120.359 71.7302 122.289 66.1902C122.409 67.8902 117.718 75.0802 113.488 78.1802Z" fill="#A4B67E"/>
<path d="M119.719 80.2302C119.719 80.2302 125.658 74.7002 127.058 69.6702C127.288 71.2702 123.429 77.6402 119.719 80.2302Z" fill="#A4B67E"/>
<path d="M125.929 82.4102C125.929 82.4102 130.819 77.9102 131.639 73.4502C131.999 74.9302 129.069 80.3802 125.929 82.4102Z" fill="#A4B67E"/>
<path d="M131.458 84.63C131.458 84.63 134.959 81.48 135.009 77.78C135.529 79.1 133.828 83.35 131.458 84.63Z" fill="#A4B67E"/>
<path d="M135.278 86.6102C135.278 86.6102 138.018 84.5802 138.088 81.6702C138.478 82.7802 137.128 85.9102 135.278 86.6102Z" fill="#A4B67E"/>
<path d="M100.028 75.8103C100.028 75.8103 101.148 84.3703 99.0585 89.4203C100.248 88.2803 101.278 80.4503 100.028 75.8103Z" fill="#A4B67E"/>
<path d="M93.4685 74.1802C93.4685 74.1802 94.4785 81.7902 92.3385 86.3202C93.5385 85.2902 94.6585 78.3002 93.4685 74.1802Z" fill="#A4B67E"/>
<path d="M87.9485 72.6003C87.9485 72.6003 88.8485 79.1503 86.6485 83.0903C87.8585 82.1803 89.0785 76.1403 87.9485 72.6003Z" fill="#A4B67E"/>
<path d="M81.9685 71.2402C81.9685 71.2402 82.9685 75.2002 81.0185 77.9202C82.1285 77.2102 83.0985 73.3002 81.9685 71.2402Z" fill="#A4B67E"/>
<path d="M106.159 77.7402C106.159 77.7402 107.328 86.7802 105.268 92.1002C106.448 90.9002 107.429 82.6502 106.159 77.7402Z" fill="#A4B67E"/>
<path d="M112.999 80.0603C112.999 80.0603 114.139 88.8703 112.069 94.0603C113.259 92.8903 114.259 84.8403 112.999 80.0603Z" fill="#A4B67E"/>
<path d="M119.109 82.4302C119.109 82.4302 120.168 90.4802 118.058 95.2502C119.258 94.1702 120.329 86.7902 119.109 82.4302Z" fill="#A4B67E"/>
<path d="M125.289 84.7002C125.289 84.7002 126.198 91.2902 123.988 95.2402C125.198 94.3302 126.419 88.2602 125.289 84.7002Z" fill="#A4B67E"/>
<path d="M130.958 86.5103C130.958 86.5103 131.658 91.1703 129.338 94.0503C130.578 93.3603 131.968 89.0103 130.958 86.5103Z" fill="#A4B67E"/>
<path d="M135.168 87.4102C135.168 87.4102 135.989 90.7202 134.189 93.0102C135.199 92.4102 136.148 89.1302 135.168 87.4102Z" fill="#A4B67E"/>
<path d="M72.6085 76.77C72.6085 76.77 82.2585 92.76 74.0985 103.77C65.9385 114.78 64.0585 111.18 62.0685 113.27C62.0685 113.27 55.5485 108.43 59.3385 97.21C59.7985 86.02 68.2885 78.57 71.8785 77.08L72.6185 76.77H72.6085Z" fill="#394E13"/>
<path d="M72.6085 76.77C72.6085 76.77 82.2585 92.76 74.0985 103.77C65.9385 114.78 64.0585 111.18 62.0685 113.27C62.0685 113.27 55.5485 108.43 59.3385 97.21C59.7985 86.02 68.2885 78.57 71.8785 77.08L72.6185 76.77H72.6085Z" fill="url(#paint3_linear_622_49924)" fill-opacity="0.5" style="mix-blend-mode:multiply"/>
<path d="M73.6685 71.1101L72.6085 76.7701L71.8985 80.3101C71.8985 80.3101 71.7185 71.0701 72.2785 70.6101C72.8385 70.1501 73.6685 71.1201 73.6685 71.1201V71.1101Z" fill="#A4B67E"/>
<path d="M63.4085 110.04C64.5585 108.38 69.0685 94.5502 71.8985 80.3102C72.6985 76.3002 71.8685 77.0802 71.8685 77.0802C71.8685 77.0802 69.5785 89.8402 66.9785 98.7602C64.3785 107.68 63.3985 110.04 63.3985 110.04H63.4085Z" fill="#A4B67E"/>
<path d="M69.9885 90.4102C69.9885 90.4102 73.6585 94.0702 76.7285 95.0402C75.7985 95.1302 71.7785 92.6702 69.9885 90.4102Z" fill="#A4B67E"/>
<path d="M70.5685 86.9399C70.5685 86.9399 73.9185 90.2899 76.7985 91.0899C75.9085 91.2199 72.1685 89.0399 70.5685 86.9399Z" fill="#A4B67E"/>
<path d="M71.3685 83.8501C71.3685 83.8501 73.8785 86.4001 76.2985 86.7501C75.5085 86.9701 72.5185 85.5001 71.3685 83.8501Z" fill="#A4B67E"/>
<path d="M72.0385 80.8101C72.0385 80.8101 73.4485 82.6001 75.3385 82.6301C74.6285 82.8901 72.5485 82.0201 72.0385 80.8101Z" fill="#A4B67E"/>
<path d="M68.9585 93.8401C68.9585 93.8401 72.9085 97.7601 76.1285 98.8801C75.1685 98.9401 70.8985 96.2501 68.9585 93.8401Z" fill="#A4B67E"/>
<path d="M67.9085 97.74C67.9085 97.74 71.5185 101.34 74.5485 102.28C73.6285 102.38 69.6585 99.97 67.9085 97.74Z" fill="#A4B67E"/>
<path d="M66.9185 101.15C66.9185 101.15 70.0185 104.26 72.7685 104.93C71.9085 105.08 68.3885 103.11 66.9185 101.15Z" fill="#A4B67E"/>
<path d="M65.8485 104.55C65.8485 104.55 68.3785 107.11 70.7985 107.47C70.0085 107.69 66.9985 106.21 65.8485 104.55Z" fill="#A4B67E"/>
<path d="M64.7485 107.58C64.7485 107.58 66.5185 109.42 68.5185 109.38C67.8185 109.68 65.4885 108.85 64.7485 107.58Z" fill="#A4B67E"/>
<path d="M63.7485 109.68C63.7485 109.68 64.8985 111.13 66.4785 111.11C65.8885 111.34 64.1685 110.67 63.7485 109.68Z" fill="#A4B67E"/>
<path d="M68.9485 90.4101C68.9485 90.4101 64.3385 91.1701 61.5685 90.1301C62.2085 90.7501 66.4585 91.1701 68.9485 90.4101Z" fill="#A4B67E"/>
<path d="M69.7085 86.8302C69.7085 86.8302 65.6085 87.5202 63.1185 86.4402C63.6985 87.0702 67.4985 87.5502 69.7085 86.8302Z" fill="#A4B67E"/>
<path d="M70.4685 83.8201C70.4685 83.8201 66.9385 84.4301 64.7685 83.3101C65.2785 83.9501 68.5785 84.5001 70.4685 83.8201Z" fill="#A4B67E"/>
<path d="M71.0885 80.5602C71.0885 80.5602 68.9685 81.1702 67.4585 80.1702C67.8685 80.7502 69.9885 81.2102 71.0885 80.5602Z" fill="#A4B67E"/>
<path d="M68.0085 93.7703C68.0085 93.7703 63.1385 94.5703 60.2285 93.5503C60.8985 94.1703 65.3785 94.5503 68.0085 93.7703Z" fill="#A4B67E"/>
<path d="M66.8885 97.5103C66.8885 97.5103 62.1485 98.2903 59.2985 97.2603C59.9585 97.8803 64.3285 98.2803 66.8885 97.5103Z" fill="#A4B67E"/>
<path d="M65.7085 100.86C65.7085 100.86 61.3785 101.58 58.7585 100.52C59.3685 101.15 63.3785 101.59 65.7085 100.86Z" fill="#A4B67E"/>
<path d="M64.5985 104.24C64.5985 104.24 61.0485 104.85 58.8685 103.73C59.3885 104.37 62.6885 104.92 64.5985 104.24Z" fill="#A4B67E"/>
<path d="M63.7185 107.34C63.7185 107.34 61.2085 107.8 59.6085 106.6C59.9985 107.26 62.3885 107.93 63.7185 107.34Z" fill="#A4B67E"/>
<path d="M63.3085 109.63C63.3085 109.63 61.5285 110.14 60.2585 109.2C60.6085 109.73 62.3985 110.19 63.3085 109.63Z" fill="#A4B67E"/>
<path d="M71.5885 66.0301C71.5885 66.0301 63.9285 37.9101 42.7185 35.2701C21.5085 32.6301 23.5485 38.6101 19.0385 38.6101C19.0385 38.6101 17.4785 51.1801 34.2185 58.9901C47.3385 70.5301 64.8885 68.9701 70.4485 66.5301L71.5885 66.0301Z" fill="#394E13"/>
<path d="M71.5885 66.0301C71.5885 66.0301 63.9285 37.9101 42.7185 35.2701C21.5085 32.6301 23.5485 38.6101 19.0385 38.6101C19.0385 38.6101 17.4785 51.1801 34.2185 58.9901C47.3385 70.5301 64.8885 68.9701 70.4485 66.5301L71.5885 66.0301Z" fill="url(#paint4_linear_622_49924)" fill-opacity="0.5" style="mix-blend-mode:multiply"/>
<path d="M79.1185 70.92L71.5885 66.03L66.8385 63.02C66.8385 63.02 77.0785 73.18 78.1985 73.04C79.3185 72.9 79.1185 70.92 79.1185 70.92Z" fill="#A4B67E"/>
<path d="M24.1285 40.5701C27.2385 41.0601 47.7085 50.8701 66.8385 63.0201C72.2285 66.4401 70.4585 66.5301 70.4585 66.5301C70.4585 66.5301 53.5885 55.3701 40.7285 48.6901C27.8685 42.0101 24.1285 40.5701 24.1285 40.5701Z" fill="#A4B67E"/>
<path d="M53.3685 54.29C53.3685 54.29 53.1985 46.21 55.3985 41.7C54.2985 42.65 52.7385 49.84 53.3685 54.29Z" fill="#A4B67E"/>
<path d="M57.9085 57.3601C57.9085 57.3601 57.7385 49.9701 59.9385 45.8601C58.8385 46.7301 57.2785 53.2901 57.9085 57.3601Z" fill="#A4B67E"/>
<path d="M62.2685 59.7901C62.2685 59.7901 62.0985 54.2101 64.2985 51.1001C63.1985 51.7501 61.6385 56.7201 62.2685 59.7901Z" fill="#A4B67E"/>
<path d="M66.4085 62.3099C66.4085 62.3099 65.8985 58.7899 67.9085 56.6199C66.8485 57.1399 65.5985 60.4299 66.4085 62.3099Z" fill="#A4B67E"/>
<path d="M48.3885 51.76C48.3885 51.76 48.2185 43.08 50.4185 38.24C49.3185 39.26 47.7585 46.98 48.3885 51.76Z" fill="#A4B67E"/>
<path d="M42.8585 48.7301C42.8585 48.7301 42.6885 40.7701 44.8885 36.3401C43.7885 37.2701 42.2285 44.3501 42.8585 48.7301Z" fill="#A4B67E"/>
<path d="M37.9385 46.19C37.9385 46.19 37.7685 39.34 39.9685 35.52C38.8685 36.32 37.3085 42.42 37.9385 46.19Z" fill="#A4B67E"/>
<path d="M32.9585 43.73C32.9585 43.73 32.7885 38.12 34.9885 34.99C33.8885 35.65 32.3285 40.64 32.9585 43.73Z" fill="#A4B67E"/>
<path d="M28.3485 41.71C28.3485 41.71 28.1785 37.74 30.3785 35.52C29.2785 35.99 27.7185 39.52 28.3485 41.71Z" fill="#A4B67E"/>
<path d="M24.8985 40.57C24.8985 40.57 24.5085 37.71 26.2185 35.95C25.3185 36.37 24.2285 39.03 24.8985 40.57Z" fill="#A4B67E"/>
<path d="M52.2485 55.4602C52.2485 55.4602 46.4285 59.8402 44.6085 64.0902C44.5985 62.7002 48.7085 57.4502 52.2485 55.4602Z" fill="#A4B67E"/>
<path d="M57.1085 58.4602C57.1085 58.4602 51.9185 62.3502 50.4485 66.3102C50.3585 64.9702 53.9185 60.1702 57.1085 58.4602Z" fill="#A4B67E"/>
<path d="M61.3185 60.8501C61.3185 60.8501 56.8285 64.1801 55.7585 67.8401C55.5885 66.5701 58.5185 62.2601 61.3185 60.8501Z" fill="#A4B67E"/>
<path d="M65.6685 63.6602C65.6685 63.6602 62.6885 65.4002 62.1985 68.1802C61.9785 67.0902 63.7485 64.1902 65.6685 63.6602Z" fill="#A4B67E"/>
<path d="M47.4585 52.9001C47.4585 52.9001 41.3185 57.5401 39.3185 61.9201C39.3385 60.5001 43.7385 55.0301 47.4585 52.9001Z" fill="#A4B67E"/>
<path d="M42.0185 50.1401C42.0185 50.1401 36.0285 54.6501 34.1185 58.9701C34.1185 57.5601 38.3885 52.2001 42.0185 50.1401Z" fill="#A4B67E"/>
<path d="M36.9685 47.8601C36.9685 47.8601 31.4885 51.9801 29.8585 56.0701C29.8085 54.7101 33.6185 49.7001 36.9685 47.8601Z" fill="#A4B67E"/>
<path d="M31.9485 45.4802C31.9485 45.4802 27.4385 48.8302 26.3585 52.4902C26.1885 51.2202 29.1385 46.9002 31.9485 45.4802Z" fill="#A4B67E"/>
<path d="M27.5085 43.1201C27.5085 43.1201 24.2885 45.4501 23.9185 48.5501C23.5985 47.4001 25.4085 43.9801 27.5085 43.1201Z" fill="#A4B67E"/>
<path d="M24.4785 41.1201C24.4785 41.1201 21.9885 42.5801 21.6785 45.0201C21.4485 44.0601 22.8585 41.5401 24.4785 41.1201Z" fill="#A4B67E"/>
<path d="M75.1485 70.4C75.1485 70.4 88.9985 47.44 77.2785 31.63C65.5585 15.82 62.8785 21 60.0085 18C60.0085 18 50.6485 24.95 56.0885 41.06C56.7385 57.13 68.9385 67.82 74.0885 69.97L75.1485 70.41V70.4Z" fill="#394E13"/>
<path d="M75.1485 70.4C75.1485 70.4 88.9985 47.44 77.2785 31.63C65.5585 15.82 62.8785 21 60.0085 18C60.0085 18 50.6485 24.95 56.0885 41.06C56.7385 57.13 68.9385 67.82 74.0885 69.97L75.1485 70.41V70.4Z" fill="url(#paint5_linear_622_49924)" fill-opacity="0.5" style="mix-blend-mode:multiply"/>
<path d="M76.6785 78.5201L75.1485 70.4001L74.1285 65.3201C74.1285 65.3201 73.8685 78.5901 74.6785 79.2501C75.4885 79.9101 76.6685 78.5201 76.6685 78.5201H76.6785Z" fill="#A4B67E"/>
<path d="M61.9385 22.6299C63.5785 25.0099 70.0685 44.8699 74.1285 65.3199C75.2785 71.0799 74.0885 69.9599 74.0885 69.9599C74.0885 69.9599 70.7985 51.6399 67.0685 38.8299C63.3385 26.0199 61.9285 22.6299 61.9285 22.6299H61.9385Z" fill="#A4B67E"/>
<path d="M71.3885 50.82C71.3885 50.82 76.6585 45.57 81.0585 44.18C79.7285 44.05 73.9485 47.58 71.3885 50.82Z" fill="#A4B67E"/>
<path d="M72.2285 55.7902C72.2285 55.7902 77.0385 50.9802 81.1785 49.8402C79.8985 49.6602 74.5385 52.7902 72.2285 55.7902Z" fill="#A4B67E"/>
<path d="M73.3785 60.2302C73.3785 60.2302 76.9885 56.5702 80.4585 56.0602C79.3185 55.7402 75.0285 57.8602 73.3785 60.2302Z" fill="#A4B67E"/>
<path d="M74.3285 64.5902C74.3285 64.5902 76.3485 62.0202 79.0685 61.9702C78.0485 61.6002 75.0685 62.8502 74.3285 64.5902Z" fill="#A4B67E"/>
<path d="M69.9085 45.9C69.9085 45.9 75.5785 40.27 80.1985 38.66C78.8185 38.57 72.6885 42.44 69.9085 45.9Z" fill="#A4B67E"/>
<path d="M68.4085 40.29C68.4085 40.29 73.5985 35.12 77.9485 33.77C76.6285 33.63 70.9285 37.09 68.4085 40.29Z" fill="#A4B67E"/>
<path d="M66.9785 35.4001C66.9785 35.4001 71.4285 30.9301 75.3785 29.9701C74.1485 29.7501 69.0985 32.5801 66.9785 35.4001Z" fill="#A4B67E"/>
<path d="M65.4485 30.5202C65.4485 30.5202 69.0785 26.8402 72.5585 26.3202C71.4185 26.0002 67.1085 28.1402 65.4485 30.5202Z" fill="#A4B67E"/>
<path d="M63.8685 26.1702C63.8685 26.1702 66.4085 23.5302 69.2785 23.5902C68.2685 23.1502 64.9185 24.3602 63.8685 26.1702Z" fill="#A4B67E"/>
<path d="M62.4285 23.1501C62.4285 23.1501 64.0785 21.0701 66.3385 21.1001C65.4885 20.7701 63.0185 21.7301 62.4285 23.1501Z" fill="#A4B67E"/>
<path d="M69.8985 50.81C69.8985 50.81 63.2785 49.72 59.2985 51.21C60.2185 50.32 66.3185 49.72 69.8985 50.81Z" fill="#A4B67E"/>
<path d="M70.9885 55.95C70.9885 55.95 65.0985 54.96 61.5285 56.51C62.3585 55.6 67.8185 54.92 70.9885 55.95Z" fill="#A4B67E"/>
<path d="M72.0685 60.2799C72.0685 60.2799 66.9985 59.4099 63.8885 61.0199C64.6285 60.0999 69.3485 59.3099 72.0685 60.2799Z" fill="#A4B67E"/>
<path d="M72.9685 64.9599C72.9685 64.9599 69.9185 64.0799 67.7585 65.5199C68.3385 64.6799 71.3985 64.0199 72.9685 64.9599Z" fill="#A4B67E"/>
<path d="M68.5585 45.9999C68.5585 45.9999 61.5685 44.8599 57.3785 46.3199C58.3385 45.4299 64.7785 44.8899 68.5585 45.9999Z" fill="#A4B67E"/>
<path d="M66.9385 40.63C66.9385 40.63 60.1285 39.51 56.0385 40.99C56.9785 40.1 63.2585 39.53 66.9385 40.63Z" fill="#A4B67E"/>
<path d="M65.2485 35.8201C65.2485 35.8201 59.0285 34.7901 55.2685 36.3001C56.1385 35.4001 61.8985 34.7601 65.2485 35.8201Z" fill="#A4B67E"/>
<path d="M63.6485 30.9599C63.6485 30.9599 58.5585 30.0799 55.4285 31.6899C56.1685 30.7699 60.9185 29.9899 63.6485 30.9599Z" fill="#A4B67E"/>
<path d="M62.3985 26.5C62.3985 26.5 58.7985 25.83 56.4985 27.56C57.0685 26.62 60.4885 25.65 62.3985 26.5Z" fill="#A4B67E"/>
<path d="M61.7985 23.21C61.7985 23.21 59.2485 22.48 57.4185 23.82C57.9185 23.05 60.4885 22.4 61.7985 23.21Z" fill="#A4B67E"/>
<path d="M61.1985 90.8499C52.3085 89.4499 48.4385 93.9899 45.1885 97.8499C41.9385 101.71 39.4985 113.03 48.3085 110.86C57.1185 108.69 61.1985 90.8399 61.1985 90.8399V90.8499Z" fill="white"/>
<path d="M61.1985 90.8499C52.3085 89.4499 48.4385 93.9899 45.1885 97.8499C41.9385 101.71 39.4985 113.03 48.3085 110.86C57.1185 108.69 61.1985 90.8399 61.1985 90.8399V90.8499Z" fill="url(#paint6_linear_622_49924)" fill-opacity="0.4"/>
<path d="M61.1985 90.8499C52.3085 89.4499 48.4385 93.9899 45.1885 97.8499C41.9385 101.71 39.4985 113.03 48.3085 110.86C57.1185 108.69 61.1985 90.8399 61.1985 90.8399V90.8499Z" fill="url(#paint7_linear_622_49924)" fill-opacity="0.6"/>
<path d="M61.1985 90.8499C61.1985 90.8499 49.9985 81.6499 46.1385 81.5099C42.2785 81.3699 32.8485 83.6799 29.1885 87.8099C27.7585 89.4299 25.9685 89.7899 25.6685 90.3199C25.4985 90.6099 25.7285 96.4699 38.6785 94.1199C51.6285 91.7699 61.1985 90.8499 61.1985 90.8499Z" fill="white"/>
<path d="M61.1985 90.8499C61.1985 90.8499 49.9985 81.6499 46.1385 81.5099C42.2785 81.3699 32.8485 83.6799 29.1885 87.8099C27.7585 89.4299 25.9685 89.7899 25.6685 90.3199C25.4985 90.6099 25.7285 96.4699 38.6785 94.1199C51.6285 91.7699 61.1985 90.8499 61.1985 90.8499Z" fill="url(#paint8_linear_622_49924)" fill-opacity="0.4"/>
<path d="M61.1985 90.8499C61.1985 90.8499 49.9985 81.6499 46.1385 81.5099C42.2785 81.3699 32.8485 83.6799 29.1885 87.8099C27.7585 89.4299 25.9685 89.7899 25.6685 90.3199C25.4985 90.6099 25.7285 96.4699 38.6785 94.1199C51.6285 91.7699 61.1985 90.8499 61.1985 90.8499Z" fill="url(#paint9_linear_622_49924)" fill-opacity="0.6"/>
<path d="M61.1985 90.8499C61.1985 90.8499 50.7385 63.8299 70.6685 60.0999C84.4985 57.5099 80.1785 79.7499 74.6585 81.6299C71.8885 79.9399 62.4685 81.0099 61.1885 90.8599L61.1985 90.8499Z" fill="white"/>
<path d="M61.1985 90.8499C61.1985 90.8499 50.7385 63.8299 70.6685 60.0999C84.4985 57.5099 80.1785 79.7499 74.6585 81.6299C71.8885 79.9399 62.4685 81.0099 61.1885 90.8599L61.1985 90.8499Z" fill="url(#paint10_linear_622_49924)" fill-opacity="0.4"/>
<path d="M61.1985 90.8499C61.1985 90.8499 50.7385 63.8299 70.6685 60.0999C84.4985 57.5099 80.1785 79.7499 74.6585 81.6299C71.8885 79.9399 62.4685 81.0099 61.1885 90.8599L61.1985 90.8499Z" fill="url(#paint11_linear_622_49924)" fill-opacity="0.6"/>
<path d="M61.1985 90.85C61.1985 90.85 54.8085 101.19 71.5585 100.44C75.4285 100.27 80.3885 94.96 80.7785 90.38C81.1985 85.46 76.8285 81.54 75.2885 81.31C71.7085 80.76 61.8085 79.64 61.1885 90.85H61.1985Z" fill="white"/>
<path d="M61.1985 90.85C61.1985 90.85 54.8085 101.19 71.5585 100.44C75.4285 100.27 80.3885 94.96 80.7785 90.38C81.1985 85.46 76.8285 81.54 75.2885 81.31C71.7085 80.76 61.8085 79.64 61.1885 90.85H61.1985Z" fill="url(#paint12_linear_622_49924)" fill-opacity="0.4"/>
<path d="M61.1985 90.85C61.1985 90.85 54.8085 101.19 71.5585 100.44C75.4285 100.27 80.3885 94.96 80.7785 90.38C81.1985 85.46 76.8285 81.54 75.2885 81.31C71.7085 80.76 61.8085 79.64 61.1885 90.85H61.1985Z" fill="url(#paint13_linear_622_49924)" fill-opacity="0.6"/>
<path d="M61.1985 90.85C61.1985 90.85 30.0085 77.09 42.5785 62.36C42.5785 62.36 53.6185 58.51 59.6385 69.2C58.1485 73.01 59.8885 86.14 61.1885 90.85H61.1985Z" fill="white"/>
<path d="M61.1985 90.85C61.1985 90.85 30.0085 77.09 42.5785 62.36C42.5785 62.36 53.6185 58.51 59.6385 69.2C58.1485 73.01 59.8885 86.14 61.1885 90.85H61.1985Z" fill="url(#paint14_linear_622_49924)" fill-opacity="0.6"/>
<path d="M25.4685 90.3508C25.4685 90.3508 25.5485 91.3808 28.9585 91.2908C32.3685 91.2008 57.8485 88.8308 60.9985 90.8708C60.9985 90.8708 49.8285 92.0008 46.3685 93.3208C40.9885 95.3708 24.8785 95.8908 25.4685 90.3508Z" fill="white"/>
<path d="M25.4685 90.3508C25.4685 90.3508 25.5485 91.3808 28.9585 91.2908C32.3685 91.2008 57.8485 88.8308 60.9985 90.8708C60.9985 90.8708 49.8285 92.0008 46.3685 93.3208C40.9885 95.3708 24.8785 95.8908 25.4685 90.3508Z" fill="url(#paint15_linear_622_49924)" fill-opacity="0.4"/>
<path d="M60.9884 90.9998C60.9884 90.9998 57.2799 92.6689 56.4334 95.4675C54.9318 100.435 50.5078 108.821 47.9985 111C47.9985 111 54.4683 109.291 57.9853 100.105C59.5574 95.9873 60.9985 90.9998 60.9985 90.9998H60.9884Z" fill="white"/>
<path d="M60.9884 90.9998C60.9884 90.9998 57.2799 92.6689 56.4334 95.4675C54.9318 100.435 50.5078 108.821 47.9985 111C47.9985 111 54.4683 109.291 57.9853 100.105C59.5574 95.9873 60.9985 90.9998 60.9985 90.9998H60.9884Z" fill="url(#paint16_linear_622_49924)" fill-opacity="0.4"/>
<path d="M60.9985 89.4995C60.9985 89.4995 61.6266 85.1381 60.9985 81.9995C58.724 69.3697 62.7923 66.3114 63.9986 62.9997C63.9986 62.9997 56.9985 66.4998 59.224 79.3573C59.849 84.1286 60.9985 89.4995 60.9985 89.4995Z" fill="white"/>
<path d="M60.9985 89.4995C60.9985 89.4995 61.6266 85.1381 60.9985 81.9995C58.724 69.3697 62.7923 66.3114 63.9986 62.9997C63.9986 62.9997 56.9985 66.4998 59.224 79.3573C59.849 84.1286 60.9985 89.4995 60.9985 89.4995Z" fill="url(#paint17_linear_622_49924)" fill-opacity="0.4"/>
<path d="M60.9985 90.4998C60.9985 90.4998 63.0032 85.6962 64.96 84.1336C69.8985 80.19 74.4033 81.7629 76.1993 81.6942C76.1993 81.6942 70.8862 79.1658 65.1874 82.4039C61.4985 84.4999 60.9985 90.4998 60.9985 90.4998Z" fill="white"/>
<path d="M60.9985 90.4998C60.9985 90.4998 63.0032 85.6962 64.96 84.1336C69.8985 80.19 74.4033 81.7629 76.1993 81.6942C76.1993 81.6942 70.8862 79.1658 65.1874 82.4039C61.4985 84.4999 60.9985 90.4998 60.9985 90.4998Z" fill="url(#paint18_linear_622_49924)" fill-opacity="0.4"/>
<path d="M42.4985 62.4995C42.4985 62.4995 39.9631 68.4611 43.3716 74.8614C49.7367 84.6936 59.9985 85.9995 60.9985 90.4995C60.9985 90.4995 53.5163 86.2011 49.7228 84.1993C43.2954 80.8075 34.9831 70.9827 42.4985 62.4995Z" fill="white"/>
<path d="M42.4985 62.4995C42.4985 62.4995 39.9631 68.4611 43.3716 74.8614C49.7367 84.6936 59.9985 85.9995 60.9985 90.4995C60.9985 90.4995 53.5163 86.2011 49.7228 84.1993C43.2954 80.8075 34.9831 70.9827 42.4985 62.4995Z" fill="url(#paint19_linear_622_49924)" fill-opacity="0.4"/>
<g opacity="0.4" filter="url(#filter0_f_622_49924)">
<circle cx="57.9985" cy="85.9998" r="5" fill="#FCB500"/>
</g>
<path d="M97.461 61.6845C104.46 56.0271 110.082 58.0238 114.826 59.7417C119.571 61.4595 127.344 70.043 118.629 72.5687C109.914 75.0944 97.456 61.6759 97.456 61.6759L97.461 61.6845Z" fill="white"/>
<path d="M97.461 61.6845C104.46 56.0271 110.082 58.0238 114.826 59.7417C119.571 61.4595 127.344 70.043 118.629 72.5687C109.914 75.0944 97.456 61.6759 97.456 61.6759L97.461 61.6845Z" fill="url(#paint20_linear_622_49924)" fill-opacity="0.4"/>
<path d="M97.461 61.6845C104.46 56.0271 110.082 58.0238 114.826 59.7417C119.571 61.4595 127.344 70.043 118.629 72.5687C109.914 75.0944 97.456 61.6759 97.456 61.6759L97.461 61.6845Z" fill="url(#paint21_linear_622_49924)" fill-opacity="0.6"/>
<path d="M97.461 61.6847C97.461 61.6847 102.561 48.1173 105.833 46.0661C109.106 44.0148 118.428 41.3003 123.663 43.047C125.711 43.735 127.441 43.1518 127.966 43.4607C128.258 43.6269 130.989 48.8168 118.599 53.2567C106.209 57.6965 97.461 61.6847 97.461 61.6847Z" fill="white"/>
<path d="M97.461 61.6847C97.461 61.6847 102.561 48.1173 105.833 46.0661C109.106 44.0148 118.428 41.3003 123.663 43.047C125.711 43.735 127.441 43.1518 127.966 43.4607C128.258 43.6269 130.989 48.8168 118.599 53.2567C106.209 57.6965 97.461 61.6847 97.461 61.6847Z" fill="url(#paint22_linear_622_49924)" fill-opacity="0.4"/>
<path d="M97.461 61.6847C97.461 61.6847 102.561 48.1173 105.833 46.0661C109.106 44.0148 118.428 41.3003 123.663 43.047C125.711 43.735 127.441 43.1518 127.966 43.4607C128.258 43.6269 130.989 48.8168 118.599 53.2567C106.209 57.6965 97.461 61.6847 97.461 61.6847Z" fill="url(#paint23_linear_622_49924)" fill-opacity="0.6"/>
<path d="M97.461 61.6846C97.461 61.6846 93.0097 33.0546 73.8848 39.7893C60.6126 44.4613 75.4739 61.5617 81.1943 60.4299C82.7482 57.5813 91.4412 53.7979 97.4747 61.6883L97.461 61.6846Z" fill="white"/>
<path d="M97.461 61.6846C97.461 61.6846 93.0097 33.0546 73.8848 39.7893C60.6126 44.4613 75.4739 61.5617 81.1943 60.4299C82.7482 57.5813 91.4412 53.7979 97.4747 61.6883L97.461 61.6846Z" fill="url(#paint24_linear_622_49924)" fill-opacity="0.4"/>
<path d="M97.461 61.6846C97.461 61.6846 93.0097 33.0546 73.8848 39.7893C60.6126 44.4613 75.4739 61.5617 81.1943 60.4299C82.7482 57.5813 91.4412 53.7979 97.4747 61.6883L97.461 61.6846Z" fill="url(#paint25_linear_622_49924)" fill-opacity="0.6"/>
<path d="M97.461 61.6846C97.461 61.6846 108.165 67.4443 93.284 75.1697C89.8475 76.9575 82.897 74.8389 80.2693 71.0675C77.4455 67.0167 79.2701 61.4369 80.4887 60.4677C83.3141 58.2014 91.3278 52.2814 97.4697 61.6796L97.461 61.6846Z" fill="white"/>
<path d="M97.461 61.6846C97.461 61.6846 108.165 67.4443 93.284 75.1697C89.8475 76.9575 82.897 74.8389 80.2693 71.0675C77.4455 67.0167 79.2701 61.4369 80.4887 60.4677C83.3141 58.2014 91.3278 52.2814 97.4697 61.6796L97.461 61.6846Z" fill="url(#paint26_linear_622_49924)" fill-opacity="0.4"/>
<path d="M97.461 61.6846C97.461 61.6846 108.165 67.4443 93.284 75.1697C89.8475 76.9575 82.897 74.8389 80.2693 71.0675C77.4455 67.0167 79.2701 61.4369 80.4887 60.4677C83.3141 58.2014 91.3278 52.2814 97.4697 61.6796L97.461 61.6846Z" fill="url(#paint27_linear_622_49924)" fill-opacity="0.6"/>
<path d="M97.461 61.6846C97.461 61.6846 117.592 34.1731 99.3414 27.7015C99.3414 27.7015 87.8555 29.8873 87.987 42.1551C91.1824 44.7097 96.2405 56.9506 97.4697 61.6796L97.461 61.6846Z" fill="white"/>
<path d="M97.461 61.6846C97.461 61.6846 117.592 34.1731 99.3414 27.7015C99.3414 27.7015 87.8555 29.8873 87.987 42.1551C91.1824 44.7097 96.2405 56.9506 97.4697 61.6796L97.461 61.6846Z" fill="url(#paint28_linear_622_49924)" fill-opacity="0.6"/>
<path d="M128.155 43.3875C128.155 43.3875 128.6 44.3195 125.602 45.9466C122.604 47.5736 99.3527 58.2612 97.6447 61.6029C97.6447 61.6029 107.883 56.9965 111.54 56.4096C117.224 55.495 131.436 47.8903 128.155 43.3875Z" fill="white"/>
<path d="M128.155 43.3875C128.155 43.3875 128.6 44.3195 125.602 45.9466C122.604 47.5736 99.3527 58.2612 97.6447 61.6029C97.6447 61.6029 107.883 56.9965 111.54 56.4096C117.224 55.495 131.436 47.8903 128.155 43.3875Z" fill="url(#paint29_linear_622_49924)" fill-opacity="0.4"/>
<path d="M97.7179 61.7093C97.7179 61.7093 101.764 61.3006 103.897 63.301C107.681 66.8522 115.705 71.9025 118.967 72.5349C118.967 72.5349 112.51 74.2896 104.871 68.0933C101.451 65.3131 97.7092 61.7144 97.7092 61.7144L97.7179 61.7093Z" fill="white"/>
<path d="M97.7179 61.7093C97.7179 61.7093 101.764 61.3006 103.897 63.301C107.681 66.8522 115.705 71.9025 118.967 72.5349C118.967 72.5349 112.51 74.2896 104.871 68.0933C101.451 65.3131 97.7092 61.7144 97.7092 61.7144L97.7179 61.7093Z" fill="url(#paint30_linear_622_49924)" fill-opacity="0.4"/>
<path d="M96.9591 60.4151C96.9591 60.4151 94.2344 56.9521 93.2091 53.9199C88.8639 41.845 83.8116 41.2306 81.111 38.9657C81.111 38.9657 88.9233 38.4968 93.4247 50.7444C95.2691 55.1891 96.9591 60.4151 96.9591 60.4151Z" fill="white"/>
<path d="M96.9591 60.4151C96.9591 60.4151 94.2344 56.9521 93.2091 53.9199C88.8639 41.845 83.8116 41.2306 81.111 38.9657C81.111 38.9657 88.9233 38.4968 93.4247 50.7444C95.2691 55.1891 96.9591 60.4151 96.9591 60.4151Z" fill="url(#paint31_linear_622_49924)" fill-opacity="0.4"/>
<path d="M97.4591 61.2813C97.4591 61.2813 93.3212 58.1236 90.8453 57.7488C84.5966 56.8028 81.4818 60.4174 79.8921 61.2558C79.8921 61.2558 83.2291 56.4097 89.7836 56.3645C94.0262 56.3353 97.4591 61.2813 97.4591 61.2813Z" fill="white"/>
<path d="M97.4591 61.2813C97.4591 61.2813 93.3212 58.1236 90.8453 57.7488C84.5966 56.8028 81.4818 60.4174 79.8921 61.2558C79.8921 61.2558 83.2291 56.4097 89.7836 56.3645C94.0262 56.3353 97.4591 61.2813 97.4591 61.2813Z" fill="url(#paint32_linear_622_49924)" fill-opacity="0.4"/>
<path d="M99.4806 27.7825C99.4806 27.7825 104.657 31.6776 104.905 38.9247C104.309 50.6223 96.0751 56.8841 97.4591 61.2812C97.4591 61.2812 101.79 53.8175 104.074 50.1871C107.944 44.0361 110.231 31.3715 99.4806 27.7825Z" fill="white"/>
<path d="M99.4806 27.7825C99.4806 27.7825 104.657 31.6776 104.905 38.9247C104.309 50.6223 96.0751 56.8841 97.4591 61.2812C97.4591 61.2812 101.79 53.8175 104.074 50.1871C107.944 44.0361 110.231 31.3715 99.4806 27.7825Z" fill="url(#paint33_linear_622_49924)" fill-opacity="0.4"/>
<g opacity="0.4" filter="url(#filter1_f_622_49924)">
<circle cx="5" cy="5" r="5" transform="matrix(-0.866025 0.5 0.5 0.866025 99.6374 49.0542)" fill="#FCB500"/>
</g>
<path d="M46.9543 158.5H56.8543V169.8C56.8543 171.9 56.3543 173.5 55.3543 174.6C54.3543 175.7 52.9126 176.25 51.0293 176.25C50.546 176.25 50.071 176.208 49.6043 176.125C49.1376 176.042 48.7043 175.933 48.3043 175.8C47.9043 175.65 47.5543 175.492 47.2543 175.325C46.971 175.158 46.7626 175 46.6293 174.85L47.5293 173.2C47.7126 173.317 47.9126 173.442 48.1293 173.575C48.3626 173.708 48.6126 173.842 48.8793 173.975C49.1626 174.092 49.471 174.192 49.8043 174.275C50.1543 174.358 50.546 174.4 50.9793 174.4C52.2293 174.4 53.171 174.008 53.8043 173.225C54.4543 172.442 54.7793 171.175 54.7793 169.425V160.35H46.9543V158.5ZM61.2195 164.475C61.9362 164.058 62.7445 163.758 63.6445 163.575C64.5445 163.392 65.4279 163.3 66.2945 163.3C67.1445 163.3 67.8362 163.433 68.3695 163.7C68.9195 163.967 69.3445 164.317 69.6445 164.75C69.9612 165.167 70.1695 165.65 70.2695 166.2C70.3862 166.733 70.4445 167.275 70.4445 167.825C70.4445 168.458 70.4279 169.133 70.3945 169.85C70.3612 170.567 70.3362 171.283 70.3195 172C70.3195 172.833 70.3695 173.625 70.4695 174.375H72.1445V176H68.8195L68.5945 174.125H68.4695C68.3695 174.275 68.2195 174.467 68.0195 174.7C67.8195 174.933 67.5529 175.167 67.2195 175.4C66.9029 175.617 66.5112 175.808 66.0445 175.975C65.5779 176.142 65.0279 176.225 64.3945 176.225C63.1612 176.225 62.1862 175.908 61.4695 175.275C60.7529 174.642 60.3945 173.775 60.3945 172.675C60.3945 171.825 60.5779 171.117 60.9445 170.55C61.3279 169.983 61.8695 169.55 62.5695 169.25C63.2695 168.95 64.1112 168.775 65.0945 168.725C66.0945 168.675 67.2112 168.742 68.4445 168.925C68.5279 168.158 68.5362 167.525 68.4695 167.025C68.4195 166.508 68.2862 166.1 68.0695 165.8C67.8695 165.5 67.5779 165.292 67.1945 165.175C66.8279 165.042 66.3695 164.975 65.8195 164.975C65.0695 164.975 64.3529 165.083 63.6695 165.3C62.9862 165.5 62.3779 165.708 61.8445 165.925L61.2195 164.475ZM64.8945 174.55C65.3612 174.55 65.7945 174.475 66.1945 174.325C66.5945 174.175 66.9445 173.983 67.2445 173.75C67.5445 173.517 67.7945 173.267 67.9945 173C68.1945 172.717 68.3445 172.45 68.4445 172.2V170.45C67.5779 170.3 66.7779 170.225 66.0445 170.225C65.3112 170.225 64.6779 170.308 64.1445 170.475C63.6112 170.625 63.1945 170.867 62.8945 171.2C62.5945 171.533 62.4445 171.967 62.4445 172.5C62.4445 173.05 62.6279 173.533 62.9945 173.95C63.3779 174.35 64.0112 174.55 64.8945 174.55ZM83.4598 172.625C83.4598 172.092 83.2514 171.683 82.8348 171.4C82.4181 171.1 81.9014 170.867 81.2848 170.7C80.6681 170.517 79.9931 170.35 79.2598 170.2C78.5431 170.05 77.8764 169.85 77.2598 169.6C76.6431 169.35 76.1264 169.017 75.7098 168.6C75.2931 168.167 75.0848 167.567 75.0848 166.8C75.0848 166.167 75.2181 165.625 75.4848 165.175C75.7681 164.725 76.1348 164.358 76.5848 164.075C77.0348 163.775 77.5598 163.558 78.1598 163.425C78.7598 163.275 79.3848 163.2 80.0348 163.2C81.2014 163.2 82.2014 163.35 83.0348 163.65C83.8848 163.933 84.5598 164.233 85.0598 164.55L84.2598 166.125C83.7098 165.825 83.1098 165.542 82.4598 165.275C81.8264 164.992 81.0264 164.85 80.0598 164.85C79.6931 164.85 79.3264 164.892 78.9598 164.975C78.6098 165.042 78.2848 165.15 77.9848 165.3C77.7014 165.45 77.4681 165.65 77.2848 165.9C77.1181 166.133 77.0348 166.425 77.0348 166.775C77.0348 167.208 77.2431 167.542 77.6598 167.775C78.0764 168.008 78.5931 168.208 79.2098 168.375C79.8264 168.525 80.4931 168.675 81.2098 168.825C81.9431 168.958 82.6181 169.158 83.2348 169.425C83.8514 169.692 84.3681 170.05 84.7848 170.5C85.2014 170.95 85.4098 171.558 85.4098 172.325C85.4098 173.475 84.9514 174.425 84.0348 175.175C83.1348 175.925 81.7764 176.3 79.9598 176.3C79.4098 176.3 78.8681 176.25 78.3348 176.15C77.8014 176.05 77.3014 175.917 76.8348 175.75C76.3681 175.583 75.9431 175.4 75.5598 175.2C75.1764 174.983 74.8598 174.767 74.6098 174.55L75.6098 172.925C75.8098 173.125 76.0764 173.333 76.4098 173.55C76.7431 173.75 77.1098 173.933 77.5098 174.1C77.9098 174.267 78.3348 174.4 78.7848 174.5C79.2514 174.6 79.7181 174.65 80.1848 174.65C80.6348 174.65 81.0514 174.617 81.4348 174.55C81.8348 174.467 82.1848 174.35 82.4848 174.2C82.7848 174.033 83.0181 173.825 83.1848 173.575C83.3681 173.308 83.4598 172.992 83.4598 172.625ZM93.05 176V167.675C93.05 167.325 93.0333 166.992 93 166.675C92.9833 166.342 92.925 166.05 92.825 165.8C92.7417 165.533 92.6083 165.325 92.425 165.175C92.2583 165.025 92.0333 164.95 91.75 164.95C91.1833 164.95 90.7 165.183 90.3 165.65C89.9167 166.117 89.625 166.7 89.425 167.4V176H87.525V163.5H88.825L89.2 165.025H89.3C89.4667 164.775 89.625 164.542 89.775 164.325C89.9417 164.092 90.125 163.892 90.325 163.725C90.5417 163.558 90.7917 163.433 91.075 163.35C91.3583 163.25 91.7167 163.2 92.15 163.2C92.4 163.2 92.6583 163.242 92.925 163.325C93.1917 163.392 93.4333 163.508 93.65 163.675C93.8833 163.825 94.0833 164.033 94.25 164.3C94.4167 164.567 94.525 164.892 94.575 165.275C94.9583 164.625 95.3833 164.117 95.85 163.75C96.3333 163.383 96.9917 163.2 97.825 163.2C98.375 163.2 98.8167 163.292 99.15 163.475C99.5 163.658 99.7667 163.925 99.95 164.275C100.15 164.608 100.283 165.017 100.35 165.5C100.433 165.967 100.475 166.492 100.475 167.075V176H98.575V167.5C98.575 167.15 98.5583 166.825 98.525 166.525C98.4917 166.208 98.425 165.933 98.325 165.7C98.2417 165.467 98.1167 165.283 97.95 165.15C97.8 165.017 97.5917 164.95 97.325 164.95C96.7417 164.95 96.25 165.183 95.85 165.65C95.45 166.117 95.15 166.783 94.95 167.65V176H93.05ZM103.115 176V174.325H107.465V165.175H103.115V163.5H109.465V174.325H113.715V176H103.115ZM106.79 159.95C106.79 159.5 106.94 159.117 107.24 158.8C107.54 158.467 107.924 158.3 108.39 158.3C108.874 158.3 109.274 158.467 109.59 158.8C109.924 159.117 110.09 159.5 110.09 159.95C110.09 160.383 109.924 160.75 109.59 161.05C109.274 161.35 108.874 161.5 108.39 161.5C107.924 161.5 107.54 161.35 107.24 161.05C106.94 160.75 106.79 160.383 106.79 159.95ZM121.03 176V167.675C121.03 167.325 121.014 166.992 120.98 166.675C120.964 166.342 120.905 166.05 120.805 165.8C120.722 165.533 120.589 165.325 120.405 165.175C120.239 165.025 120.014 164.95 119.73 164.95C119.164 164.95 118.68 165.183 118.28 165.65C117.897 166.117 117.605 166.7 117.405 167.4V176H115.505V163.5H116.805L117.18 165.025H117.28C117.447 164.775 117.605 164.542 117.755 164.325C117.922 164.092 118.105 163.892 118.305 163.725C118.522 163.558 118.772 163.433 119.055 163.35C119.339 163.25 119.697 163.2 120.13 163.2C120.38 163.2 120.639 163.242 120.905 163.325C121.172 163.392 121.414 163.508 121.63 163.675C121.864 163.825 122.064 164.033 122.23 164.3C122.397 164.567 122.505 164.892 122.555 165.275C122.939 164.625 123.364 164.117 123.83 163.75C124.314 163.383 124.972 163.2 125.805 163.2C126.355 163.2 126.797 163.292 127.13 163.475C127.48 163.658 127.747 163.925 127.93 164.275C128.13 164.608 128.264 165.017 128.33 165.5C128.414 165.967 128.455 166.492 128.455 167.075V176H126.555V167.5C126.555 167.15 126.539 166.825 126.505 166.525C126.472 166.208 126.405 165.933 126.305 165.7C126.222 165.467 126.097 165.283 125.93 165.15C125.78 165.017 125.572 164.95 125.305 164.95C124.722 164.95 124.23 165.183 123.83 165.65C123.43 166.117 123.13 166.783 122.93 167.65V176H121.03Z" fill="white"/>
<defs>
<filter id="filter0_f_622_49924" x="48.9985" y="76.9998" width="18" height="18" filterUnits="userSpaceOnUse" color-interpolation-filters="sRGB">
<feFlood flood-opacity="0" result="BackgroundImageFix"/>
<feBlend mode="normal" in="SourceGraphic" in2="BackgroundImageFix" result="shape"/>
<feGaussianBlur stdDeviation="2" result="effect1_foregroundBlur_622_49924"/>
</filter>
<filter id="filter1_f_622_49924" x="88.8064" y="46.8835" width="18.0017" height="18.0017" filterUnits="userSpaceOnUse" color-interpolation-filters="sRGB">
<feFlood flood-opacity="0" result="BackgroundImageFix"/>
<feBlend mode="normal" in="SourceGraphic" in2="BackgroundImageFix" result="shape"/>
<feGaussianBlur stdDeviation="2" result="effect1_foregroundBlur_622_49924"/>
</filter>
<linearGradient id="paint0_linear_622_49924" x1="93" y1="119" x2="81.5" y2="84" gradientUnits="userSpaceOnUse">
<stop stop-color="white" stop-opacity="0"/>
<stop offset="0.401042" stop-color="#788E21" stop-opacity="0.8"/>
<stop offset="1" stop-color="#2A4E06"/>
</linearGradient>
<linearGradient id="paint1_linear_622_49924" x1="124.881" y1="73.7404" x2="85.5566" y2="96.4276" gradientUnits="userSpaceOnUse">
<stop offset="0.078125" stop-color="white"/>
<stop offset="0.52" stop-color="#D9EE85"/>
<stop offset="1" stop-color="#618938"/>
</linearGradient>
<linearGradient id="paint2_linear_622_49924" x1="122" y1="82.0002" x2="106.565" y2="53.0861" gradientUnits="userSpaceOnUse">
<stop stop-color="white" stop-opacity="0"/>
<stop offset="0.401042" stop-color="#788E21" stop-opacity="0.5"/>
<stop offset="1" stop-color="#2A4E06"/>
</linearGradient>
<linearGradient id="paint3_linear_622_49924" x1="61" y1="113" x2="60.1988" y2="84.7783" gradientUnits="userSpaceOnUse">
<stop stop-color="white" stop-opacity="0"/>
<stop offset="0.401042" stop-color="#788E21" stop-opacity="0.56"/>
<stop offset="1" stop-color="#2A4E06"/>
</linearGradient>
<linearGradient id="paint4_linear_622_49924" x1="19" y1="42.5" x2="37.1635" y2="72.7925" gradientUnits="userSpaceOnUse">
<stop stop-color="white" stop-opacity="0"/>
<stop offset="0.401042" stop-color="#788E21" stop-opacity="0.56"/>
<stop offset="1" stop-color="#2A4E06"/>
</linearGradient>
<linearGradient id="paint5_linear_622_49924" x1="59.5" y1="20.5" x2="73.6151" y2="64.6231" gradientUnits="userSpaceOnUse">
<stop stop-color="white" stop-opacity="0"/>
<stop offset="0.401042" stop-color="#788E21" stop-opacity="0.5"/>
<stop offset="1" stop-color="#2A4E06"/>
</linearGradient>
<linearGradient id="paint6_linear_622_49924" x1="56.4985" y1="89.9995" x2="48.4985" y2="116.5" gradientUnits="userSpaceOnUse">
<stop stop-color="#FFD500"/>
<stop offset="1" stop-color="white" stop-opacity="0"/>
</linearGradient>
<linearGradient id="paint7_linear_622_49924" x1="55.9985" y1="92.9995" x2="42.1149" y2="109.86" gradientUnits="userSpaceOnUse">
<stop stop-color="#F5B400"/>
<stop offset="0.317708" stop-color="#FFE460"/>
<stop offset="1" stop-color="white" stop-opacity="0"/>
</linearGradient>
<linearGradient id="paint8_linear_622_49924" x1="52.9985" y1="83.5" x2="18.4985" y2="93.5" gradientUnits="userSpaceOnUse">
<stop stop-color="#FFD500"/>
<stop offset="1" stop-color="white" stop-opacity="0"/>
</linearGradient>
<linearGradient id="paint9_linear_622_49924" x1="51.4985" y1="85.5" x2="30.8138" y2="76.1437" gradientUnits="userSpaceOnUse">
<stop stop-color="#F5B400"/>
<stop offset="0.435673" stop-color="#FFE460"/>
<stop offset="1" stop-color="white" stop-opacity="0"/>
</linearGradient>
<linearGradient id="paint10_linear_622_49924" x1="65.4985" y1="82.9998" x2="78.7414" y2="62.9836" gradientUnits="userSpaceOnUse">
<stop stop-color="#FFD500"/>
<stop offset="1" stop-color="white" stop-opacity="0"/>
</linearGradient>
<linearGradient id="paint11_linear_622_49924" x1="62.4985" y1="86.4998" x2="86.3699" y2="60.9133" gradientUnits="userSpaceOnUse">
<stop stop-color="#F5B400"/>
<stop offset="0.317708" stop-color="#FFE460"/>
<stop offset="1" stop-color="white" stop-opacity="0"/>
</linearGradient>
<linearGradient id="paint12_linear_622_49924" x1="67.4985" y1="85.9998" x2="76.9985" y2="94.9998" gradientUnits="userSpaceOnUse">
<stop stop-color="#FFD500"/>
<stop offset="1" stop-color="white" stop-opacity="0"/>
</linearGradient>
<linearGradient id="paint13_linear_622_49924" x1="61.4985" y1="90.9998" x2="79.4176" y2="102.47" gradientUnits="userSpaceOnUse">
<stop stop-color="#F5B400"/>
<stop offset="0.321944" stop-color="#FFE460"/>
<stop offset="1" stop-color="white" stop-opacity="0"/>
</linearGradient>
<linearGradient id="paint14_linear_622_49924" x1="54.9985" y1="86" x2="51.9985" y2="54.5" gradientUnits="userSpaceOnUse">
<stop stop-color="#F5B400"/>
<stop offset="0.317708" stop-color="#FFE460"/>
<stop offset="1" stop-color="white" stop-opacity="0"/>
</linearGradient>
<linearGradient id="paint15_linear_622_49924" x1="53.0012" y1="90.7386" x2="30.4172" y2="109.022" gradientUnits="userSpaceOnUse">
<stop stop-color="#FFD500"/>
<stop offset="1" stop-color="white" stop-opacity="0"/>
</linearGradient>
<linearGradient id="paint16_linear_622_49924" x1="57.7787" y1="90.4246" x2="47.5792" y2="114.199" gradientUnits="userSpaceOnUse">
<stop stop-color="#FFD500"/>
<stop offset="1" stop-color="white" stop-opacity="0"/>
</linearGradient>
<linearGradient id="paint17_linear_622_49924" x1="64.2689" y1="88.7429" x2="63.052" y2="60.61" gradientUnits="userSpaceOnUse">
<stop stop-color="#FFD500"/>
<stop offset="1" stop-color="white" stop-opacity="0"/>
</linearGradient>
<linearGradient id="paint18_linear_622_49924" x1="62.8589" y1="86.5383" x2="75.5681" y2="80.2458" gradientUnits="userSpaceOnUse">
<stop stop-color="#FFD500"/>
<stop offset="1" stop-color="white" stop-opacity="0"/>
</linearGradient>
<linearGradient id="paint19_linear_622_49924" x1="56.5143" y1="84.9264" x2="29.7919" y2="72.8205" gradientUnits="userSpaceOnUse">
<stop stop-color="#FFD500"/>
<stop offset="1" stop-color="white" stop-opacity="0"/>
</linearGradient>
<linearGradient id="paint20_linear_622_49924" x1="101.106" y1="58.5981" x2="121.284" y2="77.5478" gradientUnits="userSpaceOnUse">
<stop stop-color="#FFD500"/>
<stop offset="1" stop-color="white" stop-opacity="0"/>
</linearGradient>
<linearGradient id="paint21_linear_622_49924" x1="103.039" y1="60.9462" x2="123.493" y2="68.6062" gradientUnits="userSpaceOnUse">
<stop stop-color="#F5B400"/>
<stop offset="0.317708" stop-color="#FFE460"/>
<stop offset="1" stop-color="white" stop-opacity="0"/>
</linearGradient>
<linearGradient id="paint22_linear_622_49924" x1="100.887" y1="51.2195" x2="135.765" y2="42.6298" gradientUnits="userSpaceOnUse">
<stop stop-color="#FFD500"/>
<stop offset="1" stop-color="white" stop-opacity="0"/>
</linearGradient>
<linearGradient id="paint23_linear_622_49924" x1="103.187" y1="52.2016" x2="116.422" y2="33.7564" gradientUnits="userSpaceOnUse">
<stop stop-color="#F5B400"/>
<stop offset="0.435673" stop-color="#FFE460"/>
<stop offset="1" stop-color="white" stop-opacity="0"/>
</linearGradient>
<linearGradient id="paint24_linear_622_49924" x1="89.812" y1="57.0362" x2="68.3353" y2="46.3231" gradientUnits="userSpaceOnUse">
<stop stop-color="#FFD500"/>
<stop offset="1" stop-color="white" stop-opacity="0"/>
</linearGradient>
<linearGradient id="paint25_linear_622_49924" x1="94.1601" y1="58.5673" x2="60.6936" y2="48.3444" gradientUnits="userSpaceOnUse">
<stop stop-color="#F5B400"/>
<stop offset="0.317708" stop-color="#FFE460"/>
<stop offset="1" stop-color="white" stop-opacity="0"/>
</linearGradient>
<linearGradient id="paint26_linear_622_49924" x1="89.58" y1="60.6341" x2="85.8527" y2="73.1784" gradientUnits="userSpaceOnUse">
<stop stop-color="#FFD500"/>
<stop offset="1" stop-color="white" stop-opacity="0"/>
</linearGradient>
<linearGradient id="paint27_linear_622_49924" x1="97.2761" y1="61.9643" x2="87.4927" y2="80.857" gradientUnits="userSpaceOnUse">
<stop stop-color="#F5B400"/>
<stop offset="0.321944" stop-color="#FFE460"/>
<stop offset="1" stop-color="white" stop-opacity="0"/>
</linearGradient>
<linearGradient id="paint28_linear_622_49924" x1="100.405" y1="54.3843" x2="87.2535" y2="25.6045" gradientUnits="userSpaceOnUse">
<stop stop-color="#F5B400"/>
<stop offset="0.317708" stop-color="#FFE460"/>
<stop offset="1" stop-color="white" stop-opacity="0"/>
</linearGradient>
<linearGradient id="paint29_linear_622_49924" x1="104.505" y1="57.4897" x2="133.205" y2="62.032" gradientUnits="userSpaceOnUse">
<stop stop-color="#FFD500"/>
<stop offset="1" stop-color="white" stop-opacity="0"/>
</linearGradient>
<linearGradient id="paint30_linear_622_49924" x1="100.21" y1="59.6063" x2="120.93" y2="75.0959" gradientUnits="userSpaceOnUse">
<stop stop-color="#FFD500"/>
<stop offset="1" stop-color="white" stop-opacity="0"/>
</linearGradient>
<linearGradient id="paint31_linear_622_49924" x1="93.7485" y1="61.3951" x2="80.7359" y2="36.4229" gradientUnits="userSpaceOnUse">
<stop stop-color="#FFD500"/>
<stop offset="1" stop-color="white" stop-opacity="0"/>
</linearGradient>
<linearGradient id="paint32_linear_622_49924" x1="93.8672" y1="58.7808" x2="79.7145" y2="59.6859" gradientUnits="userSpaceOnUse">
<stop stop-color="#FFD500"/>
<stop offset="1" stop-color="white" stop-opacity="0"/>
</linearGradient>
<linearGradient id="paint33_linear_622_49924" x1="98.5559" y1="54.2126" x2="115.645" y2="30.3675" gradientUnits="userSpaceOnUse">
<stop stop-color="#FFD500"/>
<stop offset="1" stop-color="white" stop-opacity="0"/>
</linearGradient>
</defs>
</svg>
