<svg width="724" height="102" viewBox="0 0 724 102" fill="none" xmlns="http://www.w3.org/2000/svg">
<rect width="724" height="102" fill="#D32833"/>
<path d="M65.362 57.807H65.703L71.593 39.3H74.166L66.881 61H63.874L56.434 39.3H59.255L65.362 57.807ZM75.7349 53.25C75.7349 50.7493 76.3859 48.7757 77.6879 47.329C78.9899 45.8617 80.8499 45.128 83.2679 45.128C84.5699 45.128 85.6859 45.345 86.6159 45.779C87.5666 46.1923 88.3519 46.7607 88.9719 47.484C89.5919 48.2073 90.0466 49.065 90.3359 50.057C90.6459 51.049 90.8009 52.1133 90.8009 53.25C90.8009 54.49 90.6356 55.6163 90.3049 56.629C89.9742 57.621 89.4886 58.4683 88.8479 59.171C88.2072 59.8737 87.4116 60.4213 86.4609 60.814C85.5309 61.186 84.4666 61.372 83.2679 61.372C81.9866 61.372 80.8706 61.1653 79.9199 60.752C78.9692 60.318 78.1839 59.7393 77.5639 59.016C76.9439 58.2927 76.4789 57.435 76.1689 56.443C75.8796 55.451 75.7349 54.3867 75.7349 53.25ZM78.3079 53.25C78.3079 53.9733 78.3906 54.6967 78.5559 55.42C78.7419 56.1433 79.0312 56.7943 79.4239 57.373C79.8166 57.9517 80.3229 58.4167 80.9429 58.768C81.5836 59.1193 82.3586 59.295 83.2679 59.295C84.9212 59.295 86.1612 58.7887 86.9879 57.776C87.8352 56.7427 88.2589 55.234 88.2589 53.25C88.2589 52.506 88.1659 51.7827 87.9799 51.08C87.8146 50.3567 87.5252 49.7057 87.1119 49.127C86.7192 48.5483 86.2026 48.0833 85.5619 47.732C84.9419 47.3807 84.1772 47.205 83.2679 47.205C81.6146 47.205 80.3746 47.7113 79.5479 48.724C78.7212 49.7367 78.3079 51.2453 78.3079 53.25ZM95.6248 39.3H100.771V55.792C100.771 57.0527 100.977 57.9413 101.391 58.458C101.825 58.9747 102.455 59.233 103.282 59.233C103.86 59.233 104.408 59.1297 104.925 58.923C105.462 58.7163 106.051 58.365 106.692 57.869L107.808 59.574C107.477 59.8633 107.115 60.1217 106.723 60.349C106.33 60.5763 105.927 60.7727 105.514 60.938C105.1 61.0827 104.687 61.1963 104.274 61.279C103.86 61.3617 103.478 61.403 103.127 61.403C102.362 61.403 101.68 61.2997 101.081 61.093C100.481 60.907 99.9751 60.597 99.5618 60.163C99.1691 59.729 98.8694 59.1607 98.6628 58.458C98.4561 57.7347 98.3528 56.846 98.3528 55.792V41.377H95.6248V39.3ZM110.865 45.5H114.554V42.431L116.972 41.749V45.5H125.249V47.577H116.972V54.893C116.972 56.4017 117.333 57.5177 118.057 58.241C118.801 58.9643 119.855 59.326 121.219 59.326C122.149 59.326 122.955 59.1503 123.637 58.799C124.339 58.4477 124.97 58.0653 125.528 57.652L126.334 59.481C125.61 60.0597 124.742 60.5247 123.73 60.876C122.738 61.2273 121.715 61.403 120.661 61.403C119.834 61.403 119.049 61.279 118.305 61.031C117.581 60.8037 116.941 60.442 116.383 59.946C115.825 59.45 115.38 58.8197 115.05 58.055C114.719 57.2697 114.554 56.3397 114.554 55.265V47.577H110.865V45.5ZM131.22 46.709C132.108 46.1923 133.111 45.8203 134.227 45.593C135.343 45.3657 136.438 45.252 137.513 45.252C138.567 45.252 139.424 45.4173 140.086 45.748C140.768 46.0787 141.295 46.5127 141.667 47.05C142.059 47.5667 142.318 48.166 142.442 48.848C142.586 49.5093 142.659 50.181 142.659 50.863C142.659 51.6483 142.638 52.4853 142.597 53.374C142.555 54.2627 142.524 55.1513 142.504 56.04C142.504 57.0733 142.566 58.055 142.69 58.985H144.767V61H140.644L140.365 58.675H140.21C140.086 58.861 139.9 59.0987 139.652 59.388C139.404 59.6773 139.073 59.9667 138.66 60.256C138.267 60.5247 137.781 60.7623 137.203 60.969C136.624 61.1757 135.942 61.279 135.157 61.279C133.627 61.279 132.418 60.8863 131.53 60.101C130.641 59.3157 130.197 58.241 130.197 56.877C130.197 55.823 130.424 54.9447 130.879 54.242C131.354 53.5393 132.026 53.002 132.894 52.63C133.762 52.258 134.805 52.041 136.025 51.979C137.265 51.917 138.649 51.9997 140.179 52.227C140.282 51.2763 140.292 50.491 140.21 49.871C140.148 49.2303 139.982 48.724 139.714 48.352C139.466 47.98 139.104 47.7217 138.629 47.577C138.174 47.4117 137.606 47.329 136.924 47.329C135.994 47.329 135.105 47.4633 134.258 47.732C133.41 47.98 132.656 48.2383 131.995 48.507L131.22 46.709ZM135.777 59.202C136.355 59.202 136.893 59.109 137.389 58.923C137.885 58.737 138.319 58.4993 138.691 58.21C139.063 57.9207 139.373 57.6107 139.621 57.28C139.869 56.9287 140.055 56.598 140.179 56.288V54.118C139.104 53.932 138.112 53.839 137.203 53.839C136.293 53.839 135.508 53.9423 134.847 54.149C134.185 54.335 133.669 54.6347 133.297 55.048C132.925 55.4613 132.739 55.9987 132.739 56.66C132.739 57.342 132.966 57.9413 133.421 58.458C133.896 58.954 134.681 59.202 135.777 59.202ZM147.885 61V58.923H152.07V47.577H147.885V45.5H153.682L154.178 47.515H154.333C155.036 46.8743 155.821 46.3267 156.689 45.872C157.557 45.4173 158.591 45.19 159.789 45.19C160.492 45.19 161.05 45.3243 161.463 45.593C161.897 45.8617 162.228 46.2543 162.455 46.771C162.703 47.2877 162.869 47.918 162.951 48.662C163.034 49.3853 163.075 50.212 163.075 51.142L160.905 51.173C160.905 49.8503 160.771 48.879 160.502 48.259C160.254 47.639 159.789 47.329 159.107 47.329C158.467 47.329 157.888 47.422 157.371 47.608C156.855 47.794 156.4 48.0213 156.007 48.29C155.635 48.5587 155.315 48.8273 155.046 49.096C154.778 49.3647 154.581 49.592 154.457 49.778V58.923H160.409V61H147.885ZM184.751 50.925C184.751 50.739 184.741 50.5013 184.72 50.212C184.72 49.902 184.71 49.592 184.689 49.282C184.669 48.9513 184.638 48.631 184.596 48.321C184.576 48.011 184.545 47.7423 184.503 47.515H182.426V45.5H186.549L186.859 47.67H187.014C187.572 46.9467 188.275 46.3473 189.122 45.872C189.99 45.376 191.044 45.128 192.284 45.128C194.496 45.128 196.159 45.7377 197.275 46.957C198.391 48.1763 198.949 50.1707 198.949 52.94C198.949 54.242 198.753 55.42 198.36 56.474C197.988 57.5073 197.451 58.3857 196.748 59.109C196.046 59.8323 195.198 60.3903 194.206 60.783C193.214 61.1757 192.119 61.372 190.92 61.372C190.486 61.372 190.094 61.3513 189.742 61.31C189.412 61.2893 189.102 61.248 188.812 61.186C188.544 61.1447 188.275 61.0827 188.006 61C187.738 60.9173 187.448 60.814 187.138 60.69V67.2H184.751V50.925ZM191.881 47.391C191.261 47.391 190.672 47.5047 190.114 47.732C189.577 47.9593 189.091 48.259 188.657 48.631C188.244 49.003 187.903 49.4163 187.634 49.871C187.366 50.3257 187.2 50.7803 187.138 51.235V58.303C187.593 58.613 188.099 58.861 188.657 59.047C189.236 59.2123 189.99 59.295 190.92 59.295C192.574 59.295 193.896 58.7577 194.888 57.683C195.88 56.5877 196.376 54.9963 196.376 52.909C196.376 51.1523 196.025 49.7987 195.322 48.848C194.64 47.8767 193.493 47.391 191.881 47.391ZM203.091 46.709C203.98 46.1923 204.982 45.8203 206.098 45.593C207.214 45.3657 208.309 45.252 209.384 45.252C210.438 45.252 211.296 45.4173 211.957 45.748C212.639 46.0787 213.166 46.5127 213.538 47.05C213.931 47.5667 214.189 48.166 214.313 48.848C214.458 49.5093 214.53 50.181 214.53 50.863C214.53 51.6483 214.509 52.4853 214.468 53.374C214.427 54.2627 214.396 55.1513 214.375 56.04C214.375 57.0733 214.437 58.055 214.561 58.985H216.638V61H212.515L212.236 58.675H212.081C211.957 58.861 211.771 59.0987 211.523 59.388C211.275 59.6773 210.944 59.9667 210.531 60.256C210.138 60.5247 209.653 60.7623 209.074 60.969C208.495 61.1757 207.813 61.279 207.028 61.279C205.499 61.279 204.29 60.8863 203.401 60.101C202.512 59.3157 202.068 58.241 202.068 56.877C202.068 55.823 202.295 54.9447 202.75 54.242C203.225 53.5393 203.897 53.002 204.765 52.63C205.633 52.258 206.677 52.041 207.896 51.979C209.136 51.917 210.521 51.9997 212.05 52.227C212.153 51.2763 212.164 50.491 212.081 49.871C212.019 49.2303 211.854 48.724 211.585 48.352C211.337 47.98 210.975 47.7217 210.5 47.577C210.045 47.4117 209.477 47.329 208.795 47.329C207.865 47.329 206.976 47.4633 206.129 47.732C205.282 47.98 204.527 48.2383 203.866 48.507L203.091 46.709ZM207.648 59.202C208.227 59.202 208.764 59.109 209.26 58.923C209.756 58.737 210.19 58.4993 210.562 58.21C210.934 57.9207 211.244 57.6107 211.492 57.28C211.74 56.9287 211.926 56.598 212.05 56.288V54.118C210.975 53.932 209.983 53.839 209.074 53.839C208.165 53.839 207.379 53.9423 206.718 54.149C206.057 54.335 205.54 54.6347 205.168 55.048C204.796 55.4613 204.61 55.9987 204.61 56.66C204.61 57.342 204.837 57.9413 205.292 58.458C205.767 58.954 206.553 59.202 207.648 59.202ZM219.757 61V58.923H223.942V47.577H219.757V45.5H225.554L226.05 47.515H226.205C226.908 46.8743 227.693 46.3267 228.561 45.872C229.429 45.4173 230.462 45.19 231.661 45.19C232.364 45.19 232.922 45.3243 233.335 45.593C233.769 45.8617 234.1 46.2543 234.327 46.771C234.575 47.2877 234.74 47.918 234.823 48.662C234.906 49.3853 234.947 50.212 234.947 51.142L232.777 51.173C232.777 49.8503 232.643 48.879 232.374 48.259C232.126 47.639 231.661 47.329 230.979 47.329C230.338 47.329 229.76 47.422 229.243 47.608C228.726 47.794 228.272 48.0213 227.879 48.29C227.507 48.5587 227.187 48.8273 226.918 49.096C226.649 49.3647 226.453 49.592 226.329 49.778V58.923H232.281V61H219.757ZM239.027 46.709C239.916 46.1923 240.918 45.8203 242.034 45.593C243.15 45.3657 244.245 45.252 245.32 45.252C246.374 45.252 247.232 45.4173 247.893 45.748C248.575 46.0787 249.102 46.5127 249.474 47.05C249.867 47.5667 250.125 48.166 250.249 48.848C250.394 49.5093 250.466 50.181 250.466 50.863C250.466 51.6483 250.445 52.4853 250.404 53.374C250.363 54.2627 250.332 55.1513 250.311 56.04C250.311 57.0733 250.373 58.055 250.497 58.985H252.574V61H248.451L248.172 58.675H248.017C247.893 58.861 247.707 59.0987 247.459 59.388C247.211 59.6773 246.88 59.9667 246.467 60.256C246.074 60.5247 245.589 60.7623 245.01 60.969C244.431 61.1757 243.749 61.279 242.964 61.279C241.435 61.279 240.226 60.8863 239.337 60.101C238.448 59.3157 238.004 58.241 238.004 56.877C238.004 55.823 238.231 54.9447 238.686 54.242C239.161 53.5393 239.833 53.002 240.701 52.63C241.569 52.258 242.613 52.041 243.832 51.979C245.072 51.917 246.457 51.9997 247.986 52.227C248.089 51.2763 248.1 50.491 248.017 49.871C247.955 49.2303 247.79 48.724 247.521 48.352C247.273 47.98 246.911 47.7217 246.436 47.577C245.981 47.4117 245.413 47.329 244.731 47.329C243.801 47.329 242.912 47.4633 242.065 47.732C241.218 47.98 240.463 48.2383 239.802 48.507L239.027 46.709ZM243.584 59.202C244.163 59.202 244.7 59.109 245.196 58.923C245.692 58.737 246.126 58.4993 246.498 58.21C246.87 57.9207 247.18 57.6107 247.428 57.28C247.676 56.9287 247.862 56.598 247.986 56.288V54.118C246.911 53.932 245.919 53.839 245.01 53.839C244.101 53.839 243.315 53.9423 242.654 54.149C241.993 54.335 241.476 54.6347 241.104 55.048C240.732 55.4613 240.546 55.9987 240.546 56.66C240.546 57.342 240.773 57.9413 241.228 58.458C241.703 58.954 242.489 59.202 243.584 59.202ZM273.382 53.25C273.382 50.7493 274.033 48.7757 275.335 47.329C276.637 45.8617 278.497 45.128 280.915 45.128C282.217 45.128 283.333 45.345 284.263 45.779C285.213 46.1923 285.999 46.7607 286.619 47.484C287.239 48.2073 287.693 49.065 287.983 50.057C288.293 51.049 288.448 52.1133 288.448 53.25C288.448 54.49 288.282 55.6163 287.952 56.629C287.621 57.621 287.135 58.4683 286.495 59.171C285.854 59.8737 285.058 60.4213 284.108 60.814C283.178 61.186 282.113 61.372 280.915 61.372C279.633 61.372 278.517 61.1653 277.567 60.752C276.616 60.318 275.831 59.7393 275.211 59.016C274.591 58.2927 274.126 57.435 273.816 56.443C273.526 55.451 273.382 54.3867 273.382 53.25ZM275.955 53.25C275.955 53.9733 276.037 54.6967 276.203 55.42C276.389 56.1433 276.678 56.7943 277.071 57.373C277.463 57.9517 277.97 58.4167 278.59 58.768C279.23 59.1193 280.005 59.295 280.915 59.295C282.568 59.295 283.808 58.7887 284.635 57.776C285.482 56.7427 285.906 55.234 285.906 53.25C285.906 52.506 285.813 51.7827 285.627 51.08C285.461 50.3567 285.172 49.7057 284.759 49.127C284.366 48.5483 283.849 48.0833 283.209 47.732C282.589 47.3807 281.824 47.205 280.915 47.205C279.261 47.205 278.021 47.7113 277.195 48.724C276.368 49.7367 275.955 51.2453 275.955 53.25ZM323.515 67.2H321.097V59.264H320.973C320.498 59.946 319.888 60.473 319.144 60.845C318.4 61.1963 317.439 61.372 316.261 61.372C313.905 61.372 312.169 60.721 311.053 59.419C309.958 58.0963 309.41 56.0503 309.41 53.281C309.41 50.6357 310.113 48.6413 311.518 47.298C312.924 45.934 315.011 45.252 317.78 45.252C319 45.252 320.136 45.3553 321.19 45.562C322.244 45.7687 323.019 45.9857 323.515 46.213V67.2ZM316.633 59.295C319.093 59.295 320.581 58.0033 321.097 55.42V47.949C320.643 47.7217 320.095 47.5667 319.454 47.484C318.834 47.3807 318.121 47.329 317.315 47.329C315.662 47.329 314.36 47.8043 313.409 48.755C312.459 49.7057 311.983 51.204 311.983 53.25C311.983 54.1387 312.056 54.955 312.2 55.699C312.366 56.4223 312.634 57.0527 313.006 57.59C313.378 58.1273 313.854 58.551 314.432 58.861C315.032 59.1503 315.765 59.295 316.633 59.295ZM336.771 45.5H341.173V56.071C341.173 57.0837 341.235 58.055 341.359 58.985H343.436V61H339.313L339.22 58.365H339.096C338.559 59.2537 337.846 59.977 336.957 60.535C336.069 61.093 334.994 61.372 333.733 61.372C332.783 61.372 331.966 61.2583 331.284 61.031C330.623 60.8243 330.075 60.4523 329.641 59.915C329.207 59.3777 328.887 58.6647 328.68 57.776C328.474 56.8667 328.37 55.7403 328.37 54.397V47.577H326.293V45.5H330.788V53.901C330.788 54.7483 330.819 55.513 330.881 56.195C330.964 56.8563 331.119 57.4247 331.346 57.9C331.574 58.3547 331.904 58.706 332.338 58.954C332.793 59.1813 333.392 59.295 334.136 59.295C335.211 59.295 336.141 58.9437 336.926 58.241C337.732 57.5383 338.342 56.66 338.755 55.606V47.577H336.771V45.5ZM346.834 46.709C347.723 46.1923 348.725 45.8203 349.841 45.593C350.957 45.3657 352.053 45.252 353.127 45.252C354.181 45.252 355.039 45.4173 355.7 45.748C356.382 46.0787 356.909 46.5127 357.281 47.05C357.674 47.5667 357.932 48.166 358.056 48.848C358.201 49.5093 358.273 50.181 358.273 50.863C358.273 51.6483 358.253 52.4853 358.211 53.374C358.17 54.2627 358.139 55.1513 358.118 56.04C358.118 57.0733 358.18 58.055 358.304 58.985H360.381V61H356.258L355.979 58.675H355.824C355.7 58.861 355.514 59.0987 355.266 59.388C355.018 59.6773 354.688 59.9667 354.274 60.256C353.882 60.5247 353.396 60.7623 352.817 60.969C352.239 61.1757 351.557 61.279 350.771 61.279C349.242 61.279 348.033 60.8863 347.144 60.101C346.256 59.3157 345.811 58.241 345.811 56.877C345.811 55.823 346.039 54.9447 346.493 54.242C346.969 53.5393 347.64 53.002 348.508 52.63C349.376 52.258 350.42 52.041 351.639 51.979C352.879 51.917 354.264 51.9997 355.793 52.227C355.897 51.2763 355.907 50.491 355.824 49.871C355.762 49.2303 355.597 48.724 355.328 48.352C355.08 47.98 354.719 47.7217 354.243 47.577C353.789 47.4117 353.22 47.329 352.538 47.329C351.608 47.329 350.72 47.4633 349.872 47.732C349.025 47.98 348.271 48.2383 347.609 48.507L346.834 46.709ZM351.391 59.202C351.97 59.202 352.507 59.109 353.003 58.923C353.499 58.737 353.933 58.4993 354.305 58.21C354.677 57.9207 354.987 57.6107 355.235 57.28C355.483 56.9287 355.669 56.598 355.793 56.288V54.118C354.719 53.932 353.727 53.839 352.817 53.839C351.908 53.839 351.123 53.9423 350.461 54.149C349.8 54.335 349.283 54.6347 348.911 55.048C348.539 55.4613 348.353 55.9987 348.353 56.66C348.353 57.342 348.581 57.9413 349.035 58.458C349.511 58.954 350.296 59.202 351.391 59.202ZM372.273 39.3H377.295V55.699C377.295 55.885 377.305 56.1227 377.326 56.412C377.347 56.6807 377.367 56.97 377.388 57.28C377.429 57.59 377.471 57.9 377.512 58.21C377.553 58.4993 377.595 58.7577 377.636 58.985H379.713V61H375.59L375.28 58.613H375.156C374.701 59.3983 374.019 60.0597 373.11 60.597C372.221 61.1137 371.188 61.372 370.01 61.372C367.675 61.372 365.949 60.721 364.833 59.419C363.738 58.0963 363.19 56.0503 363.19 53.281C363.19 51.979 363.376 50.832 363.748 49.84C364.12 48.8273 364.647 47.9903 365.329 47.329C366.032 46.647 366.869 46.1303 367.84 45.779C368.811 45.4277 369.896 45.252 371.095 45.252C371.529 45.252 371.911 45.2623 372.242 45.283C372.593 45.3037 372.914 45.3347 373.203 45.376C373.492 45.4173 373.761 45.4793 374.009 45.562C374.278 45.624 374.567 45.6963 374.877 45.779V41.377H372.273V39.3ZM370.413 59.295C371.674 59.295 372.666 58.9747 373.389 58.334C374.112 57.6727 374.608 56.691 374.877 55.389V48.197C374.422 47.887 373.906 47.6597 373.327 47.515C372.769 47.3703 372.025 47.298 371.095 47.298C369.442 47.298 368.14 47.7837 367.189 48.755C366.238 49.7057 365.763 51.2143 365.763 53.281C365.763 54.1283 365.835 54.924 365.98 55.668C366.145 56.3913 366.404 57.0217 366.755 57.559C367.127 58.0963 367.613 58.52 368.212 58.83C368.811 59.14 369.545 59.295 370.413 59.295ZM381.468 61V58.923H385.653V47.577H381.468V45.5H387.265L387.761 47.515H387.916C388.619 46.8743 389.404 46.3267 390.272 45.872C391.14 45.4173 392.173 45.19 393.372 45.19C394.075 45.19 394.633 45.3243 395.046 45.593C395.48 45.8617 395.811 46.2543 396.038 46.771C396.286 47.2877 396.451 47.918 396.534 48.662C396.617 49.3853 396.658 50.212 396.658 51.142L394.488 51.173C394.488 49.8503 394.354 48.879 394.085 48.259C393.837 47.639 393.372 47.329 392.69 47.329C392.049 47.329 391.471 47.422 390.954 47.608C390.437 47.794 389.983 48.0213 389.59 48.29C389.218 48.5587 388.898 48.8273 388.629 49.096C388.36 49.3647 388.164 49.592 388.04 49.778V58.923H393.992V61H381.468ZM399.157 53.25C399.157 50.7493 399.808 48.7757 401.11 47.329C402.412 45.8617 404.272 45.128 406.69 45.128C407.992 45.128 409.108 45.345 410.038 45.779C410.989 46.1923 411.774 46.7607 412.394 47.484C413.014 48.2073 413.469 49.065 413.758 50.057C414.068 51.049 414.223 52.1133 414.223 53.25C414.223 54.49 414.058 55.6163 413.727 56.629C413.396 57.621 412.911 58.4683 412.27 59.171C411.629 59.8737 410.834 60.4213 409.883 60.814C408.953 61.186 407.889 61.372 406.69 61.372C405.409 61.372 404.293 61.1653 403.342 60.752C402.391 60.318 401.606 59.7393 400.986 59.016C400.366 58.2927 399.901 57.435 399.591 56.443C399.302 55.451 399.157 54.3867 399.157 53.25ZM401.73 53.25C401.73 53.9733 401.813 54.6967 401.978 55.42C402.164 56.1433 402.453 56.7943 402.846 57.373C403.239 57.9517 403.745 58.4167 404.365 58.768C405.006 59.1193 405.781 59.295 406.69 59.295C408.343 59.295 409.583 58.7887 410.41 57.776C411.257 56.7427 411.681 55.234 411.681 53.25C411.681 52.506 411.588 51.7827 411.402 51.08C411.237 50.3567 410.947 49.7057 410.534 49.127C410.141 48.5483 409.625 48.0833 408.984 47.732C408.364 47.3807 407.599 47.205 406.69 47.205C405.037 47.205 403.797 47.7113 402.97 48.724C402.143 49.7367 401.73 51.2453 401.73 53.25ZM444.145 39.3H449.167V55.699C449.167 55.885 449.177 56.1227 449.198 56.412C449.218 56.6807 449.239 56.97 449.26 57.28C449.301 57.59 449.342 57.9 449.384 58.21C449.425 58.4993 449.466 58.7577 449.508 58.985H451.585V61H447.462L447.152 58.613H447.028C446.573 59.3983 445.891 60.0597 444.982 60.597C444.093 61.1137 443.06 61.372 441.882 61.372C439.546 61.372 437.821 60.721 436.705 59.419C435.609 58.0963 435.062 56.0503 435.062 53.281C435.062 51.979 435.248 50.832 435.62 49.84C435.992 48.8273 436.519 47.9903 437.201 47.329C437.903 46.647 438.74 46.1303 439.712 45.779C440.683 45.4277 441.768 45.252 442.967 45.252C443.401 45.252 443.783 45.2623 444.114 45.283C444.465 45.3037 444.785 45.3347 445.075 45.376C445.364 45.4173 445.633 45.4793 445.881 45.562C446.149 45.624 446.439 45.6963 446.749 45.779V41.377H444.145V39.3ZM442.285 59.295C443.545 59.295 444.537 58.9747 445.261 58.334C445.984 57.6727 446.48 56.691 446.749 55.389V48.197C446.294 47.887 445.777 47.6597 445.199 47.515C444.641 47.3703 443.897 47.298 442.967 47.298C441.313 47.298 440.011 47.7837 439.061 48.755C438.11 49.7057 437.635 51.2143 437.635 53.281C437.635 54.1283 437.707 54.924 437.852 55.668C438.017 56.3913 438.275 57.0217 438.627 57.559C438.999 58.0963 439.484 58.52 440.084 58.83C440.683 59.14 441.417 59.295 442.285 59.295ZM467.693 59.047C467.321 59.3777 466.876 59.6877 466.36 59.977C465.864 60.2663 465.316 60.5143 464.717 60.721C464.117 60.9277 463.487 61.0827 462.826 61.186C462.185 61.31 461.534 61.372 460.873 61.372C459.633 61.372 458.537 61.186 457.587 60.814C456.636 60.4213 455.84 59.8737 455.2 59.171C454.559 58.4477 454.073 57.59 453.743 56.598C453.412 55.606 453.247 54.49 453.247 53.25C453.247 51.948 453.422 50.7907 453.774 49.778C454.146 48.7653 454.673 47.918 455.355 47.236C456.037 46.554 456.863 46.0373 457.835 45.686C458.806 45.314 459.891 45.128 461.09 45.128C461.958 45.128 462.815 45.2417 463.663 45.469C464.51 45.6963 465.254 46.1303 465.895 46.771C466.556 47.391 467.062 48.259 467.414 49.375C467.765 50.4703 467.889 51.8963 467.786 53.653H455.789C455.789 55.513 456.285 56.908 457.277 57.838C458.289 58.7473 459.633 59.202 461.307 59.202C461.865 59.202 462.412 59.14 462.95 59.016C463.508 58.8713 464.035 58.706 464.531 58.52C465.027 58.334 465.461 58.1273 465.833 57.9C466.225 57.6727 466.525 57.466 466.732 57.28L467.693 59.047ZM461.152 47.174C460.47 47.174 459.819 47.2463 459.199 47.391C458.599 47.5357 458.062 47.7837 457.587 48.135C457.132 48.4657 456.75 48.91 456.44 49.468C456.15 50.0053 455.964 50.677 455.882 51.483H465.523C465.419 50.119 464.975 49.065 464.19 48.321C463.425 47.5563 462.412 47.174 461.152 47.174ZM503.628 59.047C503.256 59.3777 502.812 59.6877 502.295 59.977C501.799 60.2663 501.252 60.5143 500.652 60.721C500.053 60.9277 499.423 61.0827 498.761 61.186C498.121 61.31 497.47 61.372 496.808 61.372C495.568 61.372 494.473 61.186 493.522 60.814C492.572 60.4213 491.776 59.8737 491.135 59.171C490.495 58.4477 490.009 57.59 489.678 56.598C489.348 55.606 489.182 54.49 489.182 53.25C489.182 51.948 489.358 50.7907 489.709 49.778C490.081 48.7653 490.608 47.918 491.29 47.236C491.972 46.554 492.799 46.0373 493.77 45.686C494.742 45.314 495.827 45.128 497.025 45.128C497.893 45.128 498.751 45.2417 499.598 45.469C500.446 45.6963 501.19 46.1303 501.83 46.771C502.492 47.391 502.998 48.259 503.349 49.375C503.701 50.4703 503.825 51.8963 503.721 53.653H491.724C491.724 55.513 492.22 56.908 493.212 57.838C494.225 58.7473 495.568 59.202 497.242 59.202C497.8 59.202 498.348 59.14 498.885 59.016C499.443 58.8713 499.97 58.706 500.466 58.52C500.962 58.334 501.396 58.1273 501.768 57.9C502.161 57.6727 502.461 57.466 502.667 57.28L503.628 59.047ZM497.087 47.174C496.405 47.174 495.754 47.2463 495.134 47.391C494.535 47.5357 493.998 47.7837 493.522 48.135C493.068 48.4657 492.685 48.91 492.375 49.468C492.086 50.0053 491.9 50.677 491.817 51.483H501.458C501.355 50.119 500.911 49.065 500.125 48.321C499.361 47.5563 498.348 47.174 497.087 47.174ZM514.559 57.993H514.9L519.767 45.5H522.464L515.923 61H513.195L506.53 45.5H509.382L514.559 57.993ZM526.42 61V58.923H531.814V47.577H526.42V45.5H534.294V58.923H539.564V61H526.42ZM530.977 41.098C530.977 40.54 531.163 40.0647 531.535 39.672C531.907 39.2587 532.382 39.052 532.961 39.052C533.56 39.052 534.056 39.2587 534.449 39.672C534.862 40.0647 535.069 40.54 535.069 41.098C535.069 41.6353 534.862 42.09 534.449 42.462C534.056 42.834 533.56 43.02 532.961 43.02C532.382 43.02 531.907 42.834 531.535 42.462C531.163 42.09 530.977 41.6353 530.977 41.098ZM551.952 39.3H556.974V55.699C556.974 55.885 556.984 56.1227 557.005 56.412C557.026 56.6807 557.046 56.97 557.067 57.28C557.108 57.59 557.15 57.9 557.191 58.21C557.232 58.4993 557.274 58.7577 557.315 58.985H559.392V61H555.269L554.959 58.613H554.835C554.38 59.3983 553.698 60.0597 552.789 60.597C551.9 61.1137 550.867 61.372 549.689 61.372C547.354 61.372 545.628 60.721 544.512 59.419C543.417 58.0963 542.869 56.0503 542.869 53.281C542.869 51.979 543.055 50.832 543.427 49.84C543.799 48.8273 544.326 47.9903 545.008 47.329C545.711 46.647 546.548 46.1303 547.519 45.779C548.49 45.4277 549.575 45.252 550.774 45.252C551.208 45.252 551.59 45.2623 551.921 45.283C552.272 45.3037 552.593 45.3347 552.882 45.376C553.171 45.4173 553.44 45.4793 553.688 45.562C553.957 45.624 554.246 45.6963 554.556 45.779V41.377H551.952V39.3ZM550.092 59.295C551.353 59.295 552.345 58.9747 553.068 58.334C553.791 57.6727 554.287 56.691 554.556 55.389V48.197C554.101 47.887 553.585 47.6597 553.006 47.515C552.448 47.3703 551.704 47.298 550.774 47.298C549.121 47.298 547.819 47.7837 546.868 48.755C545.917 49.7057 545.442 51.2143 545.442 53.281C545.442 54.1283 545.514 54.924 545.659 55.668C545.824 56.3913 546.083 57.0217 546.434 57.559C546.806 58.0963 547.292 58.52 547.891 58.83C548.49 59.14 549.224 59.295 550.092 59.295ZM575.5 59.047C575.128 59.3777 574.684 59.6877 574.167 59.977C573.671 60.2663 573.123 60.5143 572.524 60.721C571.925 60.9277 571.294 61.0827 570.633 61.186C569.992 61.31 569.341 61.372 568.68 61.372C567.44 61.372 566.345 61.186 565.394 60.814C564.443 60.4213 563.648 59.8737 563.007 59.171C562.366 58.4477 561.881 57.59 561.55 56.598C561.219 55.606 561.054 54.49 561.054 53.25C561.054 51.948 561.23 50.7907 561.581 49.778C561.953 48.7653 562.48 47.918 563.162 47.236C563.844 46.554 564.671 46.0373 565.642 45.686C566.613 45.314 567.698 45.128 568.897 45.128C569.765 45.128 570.623 45.2417 571.47 45.469C572.317 45.6963 573.061 46.1303 573.702 46.771C574.363 47.391 574.87 48.259 575.221 49.375C575.572 50.4703 575.696 51.8963 575.593 53.653H563.596C563.596 55.513 564.092 56.908 565.084 57.838C566.097 58.7473 567.44 59.202 569.114 59.202C569.672 59.202 570.22 59.14 570.757 59.016C571.315 58.8713 571.842 58.706 572.338 58.52C572.834 58.334 573.268 58.1273 573.64 57.9C574.033 57.6727 574.332 57.466 574.539 57.28L575.5 59.047ZM568.959 47.174C568.277 47.174 567.626 47.2463 567.006 47.391C566.407 47.5357 565.869 47.7837 565.394 48.135C564.939 48.4657 564.557 48.91 564.247 49.468C563.958 50.0053 563.772 50.677 563.689 51.483H573.33C573.227 50.119 572.782 49.065 571.997 48.321C571.232 47.5563 570.22 47.174 568.959 47.174ZM568.029 38.308H569.176L573.361 43.95H570.943L568.432 40.571L565.766 43.95H563.596L568.029 38.308ZM579.952 50.925C579.952 50.739 579.942 50.5013 579.921 50.212C579.921 49.902 579.911 49.592 579.89 49.282C579.869 48.9513 579.838 48.631 579.797 48.321C579.776 48.011 579.745 47.7423 579.704 47.515H577.627V45.5H581.781L582.06 48.011H582.215C582.422 47.6597 582.69 47.3187 583.021 46.988C583.372 46.6367 583.775 46.3267 584.23 46.058C584.685 45.7687 585.191 45.5413 585.749 45.376C586.307 45.2107 586.896 45.128 587.516 45.128C588.467 45.128 589.304 45.2313 590.027 45.438C590.771 45.6447 591.381 46.0167 591.856 46.554C592.352 47.0707 592.724 47.7837 592.972 48.693C593.22 49.5817 593.344 50.7183 593.344 52.103V61H590.926V52.568C590.926 50.8527 590.647 49.561 590.089 48.693C589.531 47.825 588.518 47.391 587.051 47.391C586.514 47.391 585.987 47.5047 585.47 47.732C584.974 47.9387 584.519 48.2177 584.106 48.569C583.693 48.9203 583.331 49.3337 583.021 49.809C582.711 50.2637 582.484 50.7493 582.339 51.266V61H579.952V50.925ZM608.646 47.887C608.17 47.7217 607.654 47.5873 607.096 47.484C606.558 47.36 606.021 47.298 605.484 47.298C603.458 47.298 601.95 47.7733 600.958 48.724C599.966 49.6747 599.47 51.1833 599.47 53.25C599.47 54.1593 599.614 54.9757 599.904 55.699C600.193 56.4017 600.606 57.001 601.144 57.497C601.681 57.993 602.322 58.3753 603.066 58.644C603.83 58.9127 604.667 59.047 605.577 59.047C606.548 59.047 607.488 58.8817 608.398 58.551C609.328 58.2203 610.103 57.7863 610.723 57.249L611.808 59.047C611.518 59.295 611.157 59.5533 610.723 59.822C610.289 60.0907 609.782 60.349 609.204 60.597C608.646 60.8243 608.015 61.0103 607.313 61.155C606.631 61.2997 605.887 61.372 605.081 61.372C603.737 61.372 602.549 61.186 601.516 60.814C600.503 60.4213 599.656 59.8737 598.974 59.171C598.292 58.4477 597.775 57.59 597.424 56.598C597.072 55.5853 596.897 54.4693 596.897 53.25C596.897 51.948 597.072 50.7907 597.424 49.778C597.796 48.7653 598.323 47.918 599.005 47.236C599.687 46.554 600.513 46.0373 601.485 45.686C602.456 45.314 603.541 45.128 604.74 45.128C606.269 45.128 607.509 45.2623 608.46 45.531C609.431 45.7997 610.247 46.0993 610.909 46.43L610.878 46.523V50.832H608.646V47.887ZM616.26 61V58.923H621.654V47.577H616.26V45.5H624.134V58.923H629.404V61H616.26ZM620.817 41.098C620.817 40.54 621.003 40.0647 621.375 39.672C621.747 39.2587 622.222 39.052 622.801 39.052C623.4 39.052 623.896 39.2587 624.289 39.672C624.702 40.0647 624.909 40.54 624.909 41.098C624.909 41.6353 624.702 42.09 624.289 42.462C623.896 42.834 623.4 43.02 622.801 43.02C622.222 43.02 621.747 42.834 621.375 42.462C621.003 42.09 620.817 41.6353 620.817 41.098ZM634.32 46.709C635.209 46.1923 636.211 45.8203 637.327 45.593C638.443 45.3657 639.539 45.252 640.613 45.252C641.667 45.252 642.525 45.4173 643.186 45.748C643.868 46.0787 644.395 46.5127 644.767 47.05C645.16 47.5667 645.418 48.166 645.542 48.848C645.687 49.5093 645.759 50.181 645.759 50.863C645.759 51.6483 645.739 52.4853 645.697 53.374C645.656 54.2627 645.625 55.1513 645.604 56.04C645.604 57.0733 645.666 58.055 645.79 58.985H647.867V61H643.744L643.465 58.675H643.31C643.186 58.861 643 59.0987 642.752 59.388C642.504 59.6773 642.174 59.9667 641.76 60.256C641.368 60.5247 640.882 60.7623 640.303 60.969C639.725 61.1757 639.043 61.279 638.257 61.279C636.728 61.279 635.519 60.8863 634.63 60.101C633.742 59.3157 633.297 58.241 633.297 56.877C633.297 55.823 633.525 54.9447 633.979 54.242C634.455 53.5393 635.126 53.002 635.994 52.63C636.862 52.258 637.906 52.041 639.125 51.979C640.365 51.917 641.75 51.9997 643.279 52.227C643.383 51.2763 643.393 50.491 643.31 49.871C643.248 49.2303 643.083 48.724 642.814 48.352C642.566 47.98 642.205 47.7217 641.729 47.577C641.275 47.4117 640.706 47.329 640.024 47.329C639.094 47.329 638.206 47.4633 637.358 47.732C636.511 47.98 635.757 48.2383 635.095 48.507L634.32 46.709ZM638.877 59.202C639.456 59.202 639.993 59.109 640.489 58.923C640.985 58.737 641.419 58.4993 641.791 58.21C642.163 57.9207 642.473 57.6107 642.721 57.28C642.969 56.9287 643.155 56.598 643.279 56.288V54.118C642.205 53.932 641.213 53.839 640.303 53.839C639.394 53.839 638.609 53.9423 637.947 54.149C637.286 54.335 636.769 54.6347 636.397 55.048C636.025 55.4613 635.839 55.9987 635.839 56.66C635.839 57.342 636.067 57.9413 636.521 58.458C636.997 58.954 637.782 59.202 638.877 59.202ZM662.518 56.815C662.518 56.1537 662.26 55.6473 661.743 55.296C661.227 54.924 660.586 54.6347 659.821 54.428C659.057 54.2007 658.22 53.994 657.31 53.808C656.422 53.622 655.595 53.374 654.83 53.064C654.066 52.754 653.425 52.3407 652.908 51.824C652.392 51.2867 652.133 50.5427 652.133 49.592C652.133 48.8067 652.299 48.135 652.629 47.577C652.981 47.019 653.435 46.5643 653.993 46.213C654.551 45.841 655.202 45.5723 655.946 45.407C656.69 45.221 657.465 45.128 658.271 45.128C659.718 45.128 660.958 45.314 661.991 45.686C663.045 46.0373 663.882 46.4093 664.502 46.802L663.51 48.755C662.828 48.383 662.084 48.0317 661.278 47.701C660.493 47.3497 659.501 47.174 658.302 47.174C657.848 47.174 657.393 47.2257 656.938 47.329C656.504 47.4117 656.101 47.546 655.729 47.732C655.378 47.918 655.089 48.166 654.861 48.476C654.655 48.7653 654.551 49.127 654.551 49.561C654.551 50.0983 654.81 50.5117 655.326 50.801C655.843 51.0903 656.484 51.3383 657.248 51.545C658.013 51.731 658.84 51.917 659.728 52.103C660.638 52.2683 661.475 52.5163 662.239 52.847C663.004 53.1777 663.645 53.622 664.161 54.18C664.678 54.738 664.936 55.4923 664.936 56.443C664.936 57.869 664.368 59.047 663.231 59.977C662.115 60.907 660.431 61.372 658.178 61.372C657.496 61.372 656.825 61.31 656.163 61.186C655.502 61.062 654.882 60.8967 654.303 60.69C653.725 60.4833 653.198 60.256 652.722 60.008C652.247 59.7393 651.854 59.4707 651.544 59.202L652.784 57.187C653.032 57.435 653.363 57.6933 653.776 57.962C654.19 58.21 654.644 58.4373 655.14 58.644C655.636 58.8507 656.163 59.016 656.721 59.14C657.3 59.264 657.879 59.326 658.457 59.326C659.015 59.326 659.532 59.2847 660.007 59.202C660.503 59.0987 660.937 58.954 661.309 58.768C661.681 58.5613 661.971 58.303 662.177 57.993C662.405 57.6623 662.518 57.2697 662.518 56.815Z" fill="white"/>
<path d="M692 68L724 16V102H518.5L692 68Z" fill="#A11B24"/>
</svg>
