<svg width="174" height="200" viewBox="0 0 174 200" fill="none" xmlns="http://www.w3.org/2000/svg">
<rect width="174" height="200" fill="white" fill-opacity="0.05"/>
<g clip-path="url(#clip0_622_49908)">
<g filter="url(#filter0_d_622_49908)">
<path d="M23 95.2366V107.656L78.6165 126L151.99 46.9127V38.6282L79.2173 114.362L23 95.2366Z" fill="#3A1B0F"/>
<path d="M151.99 38.6289L97.351 21.6687L23 95.2373L79.2173 114.363L151.99 38.6289Z" fill="#542D1E"/>
<path d="M97.8956 19C99.2787 19.1956 119.843 25.9992 119.843 25.9992L106.432 39.2153L84.442 32.3139L97.8956 19Z" fill="#7A4A35"/>
<path d="M84.4282 35.7642V32.3135L106.432 39.2149L106.837 43.2524L84.4282 35.7642Z" fill="#3A1B0F"/>
<path d="M119.843 25.9988L120.821 29.4495L106.837 43.2523L106.432 39.2149L119.843 25.9988Z" fill="#4C2416"/>
<path d="M125.823 28.1367C127.206 28.3323 147.77 35.1359 147.77 35.1359L134.359 48.352L112.369 41.4506L125.823 28.1367Z" fill="#7A4A35"/>
<path d="M112.355 44.9012V41.4504L134.359 48.3519L134.764 52.4033L112.355 44.9012Z" fill="#3A1B0F"/>
<path d="M147.77 35.1357L148.748 38.6004L134.764 52.4033L134.359 48.3518L147.77 35.1357Z" fill="#4C2416"/>
<path d="M80.9356 36.3516C82.3187 36.5471 102.883 43.3508 102.883 43.3508L89.4716 56.5669L67.4821 49.6654L80.9356 36.3516Z" fill="#7A4A35"/>
<path d="M67.468 53.1157V49.665L89.4715 56.5665L89.8767 60.6179L67.468 53.1157Z" fill="#3A1B0F"/>
<path d="M102.883 43.3647L103.861 46.8155L89.8767 60.6183L89.4716 56.5669L102.883 43.3647Z" fill="#4C2416"/>
<path d="M108.863 45.5022C110.246 45.6978 130.81 52.5014 130.81 52.5014L117.398 65.7175L95.4089 58.8161L108.863 45.5022Z" fill="#7A4A35"/>
<path d="M95.395 62.2666V58.8159L117.399 65.7173L117.804 69.7548L95.395 62.2666Z" fill="#3A1B0F"/>
<path d="M130.81 52.5012L131.788 55.9519L117.804 69.7548L117.399 65.7173L130.81 52.5012Z" fill="#4C2416"/>
<path d="M61.8658 55.1418C63.2489 55.3374 83.8135 62.1411 83.8135 62.1411L70.4018 75.3571L48.4122 68.4557L61.8658 55.1418Z" fill="#7A4A35"/>
<path d="M48.4122 71.9063V68.4556L70.4018 75.357L70.8069 79.4084L48.4122 71.9063Z" fill="#331D10"/>
<path d="M83.8134 62.1409L84.8053 65.5916L70.8069 79.4084L70.4017 75.357L83.8134 62.1409Z" fill="#4C2416"/>
<path d="M89.7929 64.2786C91.176 64.4742 111.741 71.2778 111.741 71.2778L98.3289 84.4939L76.3394 77.5924L89.7929 64.2786Z" fill="#7A4A35"/>
<path d="M76.3254 81.0428V77.592L98.329 84.4935L98.7341 88.5449L76.3254 81.0428Z" fill="#3A1B0F"/>
<path d="M111.741 71.2915L112.719 74.7422L98.7341 88.5451L98.329 84.4936L111.741 71.2915Z" fill="#4C2416"/>
<path d="M59 57.5002L23 95.2371L79.2173 114.363L102 91.0002L71 63.5002L59 57.5002Z" fill="#D32833"/>
<path d="M59 57.5002L23 95.2371L79.2173 114.363L102 91.0002L71 63.5002L59 57.5002Z" fill="url(#paint0_linear_622_49908)"/>
<path d="M79.2173 114.363L78.6166 126.001L108.5 94.1054L101 91.5002L79.2173 114.363Z" fill="#811219"/>
<path d="M78.6165 126.001L79.2173 114.363L23 95.2375V107.657L78.6165 126.001Z" fill="#600C14"/>
<path d="M53 60.5002L57.5 56.5002L72.5 61.5002L105.5 87.0002L110.67 94.8135L100.909 92.0002L69 65.5002L53 60.5002Z" fill="#ECDAD8"/>
<path d="M101 92.0002L105.5 87.0002L112.5 90.0002V89.5002L114 90.5002L110.5 95.0002L101 92.0002Z" fill="#B2A4A3"/>
</g>
</g>
<path d="M34.9939 160.4C34.7106 160.283 34.3939 160.2 34.0439 160.15C33.7106 160.083 33.3023 160.05 32.8189 160.05C32.1356 160.05 31.4606 160.175 30.7939 160.425C30.1439 160.675 29.5606 161.083 29.0439 161.65C28.5439 162.217 28.1356 162.958 27.8189 163.875C27.5189 164.792 27.3689 165.917 27.3689 167.25C27.3689 168.45 27.5023 169.5 27.7689 170.4C28.0523 171.3 28.4356 172.05 28.9189 172.65C29.4189 173.25 30.0106 173.7 30.6939 174C31.3939 174.3 32.1689 174.45 33.0189 174.45C33.4523 174.45 33.8523 174.417 34.2189 174.35C34.6023 174.267 34.9523 174.158 35.2689 174.025V171.525H37.1189V174.9L37.1439 174.95C36.6439 175.333 36.0106 175.658 35.2439 175.925C34.4773 176.175 33.5439 176.3 32.4439 176.3C31.3939 176.3 30.4189 176.125 29.5189 175.775C28.6356 175.408 27.8689 174.858 27.2189 174.125C26.5689 173.392 26.0606 172.458 25.6939 171.325C25.3439 170.175 25.1689 168.817 25.1689 167.25C25.1689 165.617 25.3689 164.233 25.7689 163.1C26.1689 161.95 26.7106 161.017 27.3939 160.3C28.0773 159.567 28.8689 159.033 29.7689 158.7C30.6856 158.367 31.6606 158.2 32.6939 158.2C33.2606 158.2 33.7523 158.225 34.1689 158.275C34.5856 158.308 34.9523 158.367 35.2689 158.45C35.5856 158.517 35.8606 158.608 36.0939 158.725C36.3439 158.842 36.5856 158.975 36.8189 159.125H36.8439V163.075H34.9939V160.4ZM37.6342 158.5H41.5342V165.05H41.6592C42.1758 164.467 42.7758 164.017 43.4592 163.7C44.1425 163.367 44.9925 163.2 46.0092 163.2C46.8092 163.2 47.5008 163.283 48.0842 163.45C48.6842 163.617 49.1675 163.908 49.5342 164.325C49.9175 164.742 50.2008 165.317 50.3842 166.05C50.5675 166.767 50.6592 167.683 50.6592 168.8V176H48.7092V169.175C48.7092 168.458 48.6675 167.833 48.5842 167.3C48.5008 166.767 48.3342 166.325 48.0842 165.975C47.8508 165.608 47.5258 165.333 47.1092 165.15C46.6925 164.967 46.1592 164.875 45.5092 164.875C45.0592 164.875 44.6175 164.958 44.1842 165.125C43.7508 165.275 43.3508 165.492 42.9842 165.775C42.6342 166.042 42.3258 166.375 42.0592 166.775C41.8092 167.158 41.6342 167.583 41.5342 168.05V176H39.6092V160.175H37.6342V158.5ZM52.9494 169.75C52.9494 167.733 53.4744 166.142 54.5244 164.975C55.5744 163.792 57.0744 163.2 59.0244 163.2C60.0744 163.2 60.9744 163.375 61.7244 163.725C62.4911 164.058 63.1244 164.517 63.6244 165.1C64.1244 165.683 64.4911 166.375 64.7244 167.175C64.9744 167.975 65.0994 168.833 65.0994 169.75C65.0994 170.75 64.9661 171.658 64.6994 172.475C64.4327 173.275 64.0411 173.958 63.5244 174.525C63.0077 175.092 62.3661 175.533 61.5994 175.85C60.8494 176.15 59.9911 176.3 59.0244 176.3C57.9911 176.3 57.0911 176.133 56.3244 175.8C55.5577 175.45 54.9244 174.983 54.4244 174.4C53.9244 173.817 53.5494 173.125 53.2994 172.325C53.0661 171.525 52.9494 170.667 52.9494 169.75ZM55.0244 169.75C55.0244 170.333 55.0911 170.917 55.2244 171.5C55.3744 172.083 55.6077 172.608 55.9244 173.075C56.2411 173.542 56.6494 173.917 57.1494 174.2C57.6661 174.483 58.2911 174.625 59.0244 174.625C60.3577 174.625 61.3577 174.217 62.0244 173.4C62.7077 172.567 63.0494 171.35 63.0494 169.75C63.0494 169.15 62.9744 168.567 62.8244 168C62.6911 167.417 62.4577 166.892 62.1244 166.425C61.8077 165.958 61.3911 165.583 60.8744 165.3C60.3744 165.017 59.7577 164.875 59.0244 164.875C57.6911 164.875 56.6911 165.283 56.0244 166.1C55.3577 166.917 55.0244 168.133 55.0244 169.75ZM76.4896 165.425C76.1063 165.292 75.6896 165.183 75.2396 165.1C74.8063 165 74.373 164.95 73.9396 164.95C72.3063 164.95 71.0896 165.333 70.2896 166.1C69.4896 166.867 69.0896 168.083 69.0896 169.75C69.0896 170.483 69.2063 171.142 69.4396 171.725C69.673 172.292 70.0063 172.775 70.4396 173.175C70.873 173.575 71.3896 173.883 71.9896 174.1C72.6063 174.317 73.2813 174.425 74.0146 174.425C74.798 174.425 75.5563 174.292 76.2896 174.025C77.0396 173.758 77.6646 173.408 78.1646 172.975L79.0396 174.425C78.8063 174.625 78.5146 174.833 78.1646 175.05C77.8146 175.267 77.4063 175.475 76.9396 175.675C76.4896 175.858 75.9813 176.008 75.4146 176.125C74.8646 176.242 74.2646 176.3 73.6146 176.3C72.5313 176.3 71.573 176.15 70.7396 175.85C69.923 175.533 69.2396 175.092 68.6896 174.525C68.1396 173.942 67.723 173.25 67.4396 172.45C67.1563 171.633 67.0146 170.733 67.0146 169.75C67.0146 168.7 67.1563 167.767 67.4396 166.95C67.7396 166.133 68.1646 165.45 68.7146 164.9C69.2646 164.35 69.9313 163.933 70.7146 163.65C71.498 163.35 72.373 163.2 73.3396 163.2C74.573 163.2 75.573 163.308 76.3396 163.525C77.123 163.742 77.7813 163.983 78.3146 164.25L78.2896 164.325V167.8H76.4896V165.425ZM80.9299 169.75C80.9299 167.733 81.4549 166.142 82.5049 164.975C83.5549 163.792 85.0549 163.2 87.0049 163.2C88.0549 163.2 88.9549 163.375 89.7049 163.725C90.4716 164.058 91.1049 164.517 91.6049 165.1C92.1049 165.683 92.4715 166.375 92.7049 167.175C92.9549 167.975 93.0799 168.833 93.0799 169.75C93.0799 170.75 92.9466 171.658 92.6799 172.475C92.4132 173.275 92.0216 173.958 91.5049 174.525C90.9882 175.092 90.3466 175.533 89.5799 175.85C88.8299 176.15 87.9715 176.3 87.0049 176.3C85.9715 176.3 85.0715 176.133 84.3049 175.8C83.5382 175.45 82.9049 174.983 82.4049 174.4C81.9049 173.817 81.5299 173.125 81.2799 172.325C81.0465 171.525 80.9299 170.667 80.9299 169.75ZM83.0049 169.75C83.0049 170.333 83.0715 170.917 83.2049 171.5C83.3549 172.083 83.5882 172.608 83.9049 173.075C84.2215 173.542 84.6299 173.917 85.1299 174.2C85.6465 174.483 86.2715 174.625 87.0049 174.625C88.3382 174.625 89.3382 174.217 90.0049 173.4C90.6882 172.567 91.0299 171.35 91.0299 169.75C91.0299 169.15 90.9549 168.567 90.8049 168C90.6716 167.417 90.4382 166.892 90.1049 166.425C89.7882 165.958 89.3716 165.583 88.8549 165.3C88.3549 165.017 87.7382 164.875 87.0049 164.875C85.6715 164.875 84.6715 165.283 84.0049 166.1C83.3382 166.917 83.0049 168.133 83.0049 169.75ZM96.4701 158.5H100.62V171.8C100.62 172.817 100.787 173.533 101.12 173.95C101.47 174.367 101.978 174.575 102.645 174.575C103.112 174.575 103.553 174.492 103.97 174.325C104.403 174.158 104.878 173.875 105.395 173.475L106.295 174.85C106.028 175.083 105.737 175.292 105.42 175.475C105.103 175.658 104.778 175.817 104.445 175.95C104.112 176.067 103.778 176.158 103.445 176.225C103.112 176.292 102.803 176.325 102.52 176.325C101.903 176.325 101.353 176.242 100.87 176.075C100.387 175.925 99.9785 175.675 99.6451 175.325C99.3285 174.975 99.0868 174.517 98.9201 173.95C98.7535 173.367 98.6701 172.65 98.6701 171.8V160.175H96.4701V158.5ZM110.185 164.475C110.902 164.058 111.71 163.758 112.61 163.575C113.51 163.392 114.394 163.3 115.26 163.3C116.11 163.3 116.802 163.433 117.335 163.7C117.885 163.967 118.31 164.317 118.61 164.75C118.927 165.167 119.135 165.65 119.235 166.2C119.352 166.733 119.41 167.275 119.41 167.825C119.41 168.458 119.394 169.133 119.36 169.85C119.327 170.567 119.302 171.283 119.285 172C119.285 172.833 119.335 173.625 119.435 174.375H121.11V176H117.785L117.56 174.125H117.435C117.335 174.275 117.185 174.467 116.985 174.7C116.785 174.933 116.519 175.167 116.185 175.4C115.869 175.617 115.477 175.808 115.01 175.975C114.544 176.142 113.994 176.225 113.36 176.225C112.127 176.225 111.152 175.908 110.435 175.275C109.719 174.642 109.36 173.775 109.36 172.675C109.36 171.825 109.544 171.117 109.91 170.55C110.294 169.983 110.835 169.55 111.535 169.25C112.235 168.95 113.077 168.775 114.06 168.725C115.06 168.675 116.177 168.742 117.41 168.925C117.494 168.158 117.502 167.525 117.435 167.025C117.385 166.508 117.252 166.1 117.035 165.8C116.835 165.5 116.544 165.292 116.16 165.175C115.794 165.042 115.335 164.975 114.785 164.975C114.035 164.975 113.319 165.083 112.635 165.3C111.952 165.5 111.344 165.708 110.81 165.925L110.185 164.475ZM113.86 174.55C114.327 174.55 114.76 174.475 115.16 174.325C115.56 174.175 115.91 173.983 116.21 173.75C116.51 173.517 116.76 173.267 116.96 173C117.16 172.717 117.31 172.45 117.41 172.2V170.45C116.544 170.3 115.744 170.225 115.01 170.225C114.277 170.225 113.644 170.308 113.11 170.475C112.577 170.625 112.16 170.867 111.86 171.2C111.56 171.533 111.41 171.967 111.41 172.5C111.41 173.05 111.594 173.533 111.96 173.95C112.344 174.35 112.977 174.55 113.86 174.55ZM122.251 163.5H125.226V161.025L127.176 160.475V163.5H133.851V165.175H127.176V171.075C127.176 172.292 127.467 173.192 128.051 173.775C128.651 174.358 129.501 174.65 130.601 174.65C131.351 174.65 132.001 174.508 132.551 174.225C133.117 173.942 133.626 173.633 134.076 173.3L134.726 174.775C134.142 175.242 133.442 175.617 132.626 175.9C131.826 176.183 131.001 176.325 130.151 176.325C129.484 176.325 128.851 176.225 128.251 176.025C127.667 175.842 127.151 175.55 126.701 175.15C126.251 174.75 125.892 174.242 125.626 173.625C125.359 172.992 125.226 172.242 125.226 171.375V165.175H122.251V163.5ZM148.691 174.425C148.391 174.692 148.032 174.942 147.616 175.175C147.216 175.408 146.774 175.608 146.291 175.775C145.807 175.942 145.299 176.067 144.766 176.15C144.249 176.25 143.724 176.3 143.191 176.3C142.191 176.3 141.307 176.15 140.541 175.85C139.774 175.533 139.132 175.092 138.616 174.525C138.099 173.942 137.707 173.25 137.441 172.45C137.174 171.65 137.041 170.75 137.041 169.75C137.041 168.7 137.182 167.767 137.466 166.95C137.766 166.133 138.191 165.45 138.741 164.9C139.291 164.35 139.957 163.933 140.741 163.65C141.524 163.35 142.399 163.2 143.366 163.2C144.066 163.2 144.757 163.292 145.441 163.475C146.124 163.658 146.724 164.008 147.241 164.525C147.774 165.025 148.182 165.725 148.466 166.625C148.749 167.508 148.849 168.658 148.766 170.075H139.091C139.091 171.575 139.491 172.7 140.291 173.45C141.107 174.183 142.191 174.55 143.541 174.55C143.991 174.55 144.432 174.5 144.866 174.4C145.316 174.283 145.741 174.15 146.141 174C146.541 173.85 146.891 173.683 147.191 173.5C147.507 173.317 147.749 173.15 147.916 173L148.691 174.425ZM143.416 164.85C142.866 164.85 142.341 164.908 141.841 165.025C141.357 165.142 140.924 165.342 140.541 165.625C140.174 165.892 139.866 166.25 139.616 166.7C139.382 167.133 139.232 167.675 139.166 168.325H146.941C146.857 167.225 146.499 166.375 145.866 165.775C145.249 165.158 144.432 164.85 143.416 164.85Z" fill="white"/>
<defs>
<filter id="filter0_d_622_49908" x="17" y="15" width="144.99" height="123.001" filterUnits="userSpaceOnUse" color-interpolation-filters="sRGB">
<feFlood flood-opacity="0" result="BackgroundImageFix"/>
<feColorMatrix in="SourceAlpha" type="matrix" values="0 0 0 0 0 0 0 0 0 0 0 0 0 0 0 0 0 0 127 0" result="hardAlpha"/>
<feOffset dx="2" dy="4"/>
<feGaussianBlur stdDeviation="4"/>
<feComposite in2="hardAlpha" operator="out"/>
<feColorMatrix type="matrix" values="0 0 0 0 0 0 0 0 0 0.137376 0 0 0 0 0.195833 0 0 0 0.4 0"/>
<feBlend mode="normal" in2="BackgroundImageFix" result="effect1_dropShadow_622_49908"/>
<feBlend mode="normal" in="SourceGraphic" in2="effect1_dropShadow_622_49908" result="shape"/>
</filter>
<linearGradient id="paint0_linear_622_49908" x1="48.6223" y1="113.983" x2="79.6781" y2="41.3564" gradientUnits="userSpaceOnUse">
<stop stop-color="#6F081B"/>
<stop offset="0.598958" stop-color="#FB404B"/>
<stop offset="1" stop-color="#FF978C"/>
</linearGradient>
<clipPath id="clip0_622_49908">
<rect width="144" height="144" fill="white" transform="translate(15)"/>
</clipPath>
</defs>
</svg>
