<svg width="236" height="236" viewBox="0 0 236 236" fill="none" xmlns="http://www.w3.org/2000/svg">
<path d="M200.902 236L236 91.5313L118 1.04032e-05L-1.06972e-06 91.5314L35.0981 236L200.902 236Z" fill="#0E516A" fill-opacity="0.6"/>
<path d="M103 146.82C103 146.82 123.53 145.78 127.6 162.15C131.67 178.52 129.59 181.26 129.59 181.26C129.59 181.26 130.06 172.6 127.11 170.77C124.16 168.94 120.79 168.85 119.16 163.52C117.53 158.19 117.22 155.86 113.12 154.79C109.91 153.95 107.47 146.37 103.01 146.82H103Z" fill="#7A9C69"/>
<path d="M103 146.82C103 146.82 123.53 145.78 127.6 162.15C131.67 178.52 129.59 181.26 129.59 181.26C129.59 181.26 130.06 172.6 127.11 170.77C124.16 168.94 120.79 168.85 119.16 163.52C117.53 158.19 117.22 155.86 113.12 154.79C109.91 153.95 107.47 146.37 103.01 146.82H103Z" fill="url(#paint0_linear_144_6882)" fill-opacity="0.8" style="mix-blend-mode:multiply"/>
<path d="M124.05 121.64C124.05 121.64 134.22 149.46 128.84 179.37C123.46 209.28 130.41 184.45 130.41 184.45C130.41 184.45 137.45 148.97 126.81 120.42C125.6 117.16 126.13 123.55 124.05 121.64Z" fill="#7A9C69"/>
<path d="M124.05 121.64C124.05 121.64 134.22 149.46 128.84 179.37C123.46 209.28 130.41 184.45 130.41 184.45C130.41 184.45 137.45 148.97 126.81 120.42C125.6 117.16 126.13 123.55 124.05 121.64Z" fill="url(#paint1_linear_144_6882)" fill-opacity="0.8" style="mix-blend-mode:multiply"/>
<path d="M149.71 126C149.71 126 139.02 131.75 135.24 140.72C128.14 157.57 130.8 166.03 130.8 166.03C130.8 166.03 131.28 156.7 133.83 154.68C136.38 152.66 140.68 150.63 142.52 144.85C144.36 139.07 145.77 133.41 149.7 126H149.71Z" fill="#7A9C69"/>
<path d="M149.71 126C149.71 126 139.02 131.75 135.24 140.72C128.14 157.57 130.8 166.03 130.8 166.03C130.8 166.03 131.28 156.7 133.83 154.68C136.38 152.66 140.68 150.63 142.52 144.85C144.36 139.07 145.77 133.41 149.7 126H149.71Z" fill="url(#paint2_linear_144_6882)" fill-opacity="0.8" style="mix-blend-mode:multiply"/>
<path d="M112.58 106.12C112.58 106.12 122.74 96.4198 115.69 85.3898C111.62 79.0198 107.54 76.7398 106.9 77.0198C105.8 77.5098 100.2 92.9498 106.46 100.54C107.79 102.15 112.58 106.12 112.58 106.12Z" fill="#EDECEB"/>
<path d="M112.58 106.12C112.58 106.12 122.74 96.4198 115.69 85.3898C111.62 79.0198 107.54 76.7398 106.9 77.0198C105.8 77.5098 100.2 92.9498 106.46 100.54C107.79 102.15 112.58 106.12 112.58 106.12Z" fill="url(#paint3_linear_144_6882)" fill-opacity="0.4"/>
<path d="M88.66 127.49C92.51 125.35 101.79 125.09 105.23 124.17C109.52 123.02 117.14 112.22 117.14 112.22C117.14 112.22 106.92 105.79 93.52 114.76C87.4 118.86 84.52 129.79 88.66 127.49Z" fill="#EDECEB"/>
<path d="M88.66 127.49C92.51 125.35 101.79 125.09 105.23 124.17C109.52 123.02 117.14 112.22 117.14 112.22C117.14 112.22 106.92 105.79 93.52 114.76C87.4 118.86 84.52 129.79 88.66 127.49Z" fill="url(#paint4_linear_144_6882)" fill-opacity="0.4"/>
<path d="M146.53 117.32C141.67 116.63 132.06 121.04 128.16 121.47C123.31 122.01 110.79 112.8 110.79 112.8C110.79 112.8 122.06 101.54 136.01 105.21C144.02 107.31 151.76 118.06 146.52 117.32H146.53Z" fill="#EDECEB"/>
<path d="M146.53 117.32C141.67 116.63 132.06 121.04 128.16 121.47C123.31 122.01 110.79 112.8 110.79 112.8C110.79 112.8 122.06 101.54 136.01 105.21C144.02 107.31 151.76 118.06 146.52 117.32H146.53Z" fill="url(#paint5_linear_144_6882)" fill-opacity="0.4"/>
<path d="M137.77 89.4402C135.17 93.9902 134.93 100.67 132.93 104.19C128.75 111.54 115.43 112.1 115.43 112.1C115.43 112.1 108.42 96.7502 120.76 87.1902C127.84 81.7002 142.48 81.2002 137.77 89.4502V89.4402Z" fill="white"/>
<path d="M137.77 89.4402C135.17 93.9902 134.93 100.67 132.93 104.19C128.75 111.54 115.43 112.1 115.43 112.1C115.43 112.1 108.42 96.7502 120.76 87.1902C127.84 81.7002 142.48 81.2002 137.77 89.4502V89.4402Z" fill="url(#paint6_linear_144_6882)" fill-opacity="0.3"/>
<path d="M117.09 112.27C116.32 112.42 115.54 112.34 114.81 112.07C108.76 109.82 97.13 117.14 108.16 131.18C113.31 137.73 116.67 140.37 118.66 140.37C123.84 140.37 131.23 120.68 122.78 112.4C120.48 110.14 118.68 111.97 117.09 112.28V112.27Z" fill="white"/>
<path d="M117.09 112.27C116.32 112.42 115.54 112.34 114.81 112.07C108.76 109.82 97.13 117.14 108.16 131.18C113.31 137.73 116.67 140.37 118.66 140.37C123.84 140.37 131.23 120.68 122.78 112.4C120.48 110.14 118.68 111.97 117.09 112.28V112.27Z" fill="url(#paint7_linear_144_6882)" fill-opacity="0.3"/>
<path d="M115.43 112.09C115.43 112.09 115.08 95.1703 99.9 94.4403C91.13 94.0203 86.18 96.4903 86 97.3403C85.7 98.8003 95.75 116.76 106.84 111.76C112.88 109.04 115.42 112.09 115.42 112.09H115.43Z" fill="white"/>
<path d="M115.43 112.09C115.43 112.09 115.08 95.1703 99.9 94.4403C91.13 94.0203 86.18 96.4903 86 97.3403C85.7 98.8003 95.75 116.76 106.84 111.76C112.88 109.04 115.42 112.09 115.42 112.09H115.43Z" fill="url(#paint8_linear_144_6882)" fill-opacity="0.3"/>
<path d="M115.062 110.105C109.559 105.34 106.553 102.052 103.774 98.9919C102.11 97.1531 97.4796 93.7977 99.1708 95.6499C102.634 99.475 106.526 103.649 113.371 109.568C116.525 112.293 118.23 112.843 115.076 110.105H115.062Z" fill="#B9D68A"/>
<path d="M99.305 94.4822C97.4528 95.0191 97.6273 96.4955 99.4795 95.9452C101.332 95.4083 101.157 93.9319 99.305 94.4822Z" fill="#7A4A35"/>
<path d="M116.324 110.575C113.572 105.622 112.27 102.361 111.076 99.3272C110.351 97.5019 107.868 93.8646 108.593 95.7034C110.083 99.4883 111.787 103.636 115.21 109.796C116.78 112.642 117.907 113.42 116.324 110.575Z" fill="#B9D68A"/>
<path d="M109.049 95.3144C107.694 94.7642 107.318 95.8916 108.673 96.4419C110.029 96.9922 110.405 95.8647 109.049 95.3144Z" fill="#7A4A35"/>
<path d="M112.351 108.736C109.358 107.823 107.465 107.676 105.707 107.541C104.647 107.461 102.379 106.36 103.452 106.441C105.64 106.602 108.056 106.83 111.787 107.971C113.505 108.494 114.082 109.259 112.364 108.722L112.351 108.736Z" fill="#B9D68A"/>
<path d="M103.922 106.696C103.331 105.623 102.446 106.428 103.036 107.502C103.627 108.576 104.513 107.77 103.922 106.696Z" fill="#7A4A35"/>
<path d="M116.096 111.851C114.284 111.3 113.103 111.287 112.015 111.287C111.358 111.287 110.016 110.549 110.673 110.549C112.029 110.549 113.532 110.589 115.787 111.287C116.82 111.609 117.143 112.173 116.096 111.851Z" fill="#B9D68A"/>
<path d="M110.687 110.575C110.217 109.233 109.264 109.823 109.734 111.166C110.203 112.508 111.156 111.917 110.687 110.575Z" fill="#7A4A35"/>
<path d="M116.391 110.415C116.445 107.019 116.82 104.952 117.169 103.033C117.384 101.879 117.102 99.2211 116.887 100.389C116.445 102.778 116.002 105.435 115.935 109.65C115.908 111.596 116.351 112.361 116.377 110.401L116.391 110.415Z" fill="#B9D68A"/>
<path d="M116.659 99.8646C115.465 100.764 115.867 101.717 117.075 100.818C118.283 99.9183 117.867 98.9653 116.659 99.8646Z" fill="#7A4A35"/>
<g opacity="0.4" filter="url(#filter0_f_144_6882)">
<rect x="115.294" y="93" width="24.0339" height="19.4131" transform="rotate(57.0701 115.294 93)" fill="#5F7E2D"/>
</g>
<defs>
<filter id="filter0_f_144_6882" x="89" y="83" width="49.3593" height="50.7256" filterUnits="userSpaceOnUse" color-interpolation-filters="sRGB">
<feFlood flood-opacity="0" result="BackgroundImageFix"/>
<feBlend mode="normal" in="SourceGraphic" in2="BackgroundImageFix" result="shape"/>
<feGaussianBlur stdDeviation="5" result="effect1_foregroundBlur_144_6882"/>
</filter>
<linearGradient id="paint0_linear_144_6882" x1="115.04" y1="146.72" x2="130.54" y2="173.22" gradientUnits="userSpaceOnUse">
<stop offset="0.078125" stop-color="#B4D902"/>
<stop offset="0.52" stop-color="#A0C704"/>
<stop offset="1" stop-color="#52990B"/>
</linearGradient>
<linearGradient id="paint1_linear_144_6882" x1="133" y1="208.5" x2="140.065" y2="207.399" gradientUnits="userSpaceOnUse">
<stop offset="0.078125" stop-color="#B4D902"/>
<stop offset="0.52" stop-color="#A0C704"/>
<stop offset="1" stop-color="#52990B"/>
</linearGradient>
<linearGradient id="paint2_linear_144_6882" x1="143.54" y1="130.72" x2="127.372" y2="134.411" gradientUnits="userSpaceOnUse">
<stop offset="0.078125" stop-color="#B4D902"/>
<stop offset="0.52" stop-color="#A0C704"/>
<stop offset="1" stop-color="#52990B"/>
</linearGradient>
<linearGradient id="paint3_linear_144_6882" x1="111" y1="100" x2="109" y2="80" gradientUnits="userSpaceOnUse">
<stop stop-color="#8ABC38"/>
<stop offset="1" stop-color="white" stop-opacity="0"/>
</linearGradient>
<linearGradient id="paint4_linear_144_6882" x1="103.5" y1="115.5" x2="90.1981" y2="129.166" gradientUnits="userSpaceOnUse">
<stop stop-color="#8ABC38"/>
<stop offset="1" stop-color="white" stop-opacity="0"/>
</linearGradient>
<linearGradient id="paint5_linear_144_6882" x1="122.5" y1="111" x2="148" y2="115.5" gradientUnits="userSpaceOnUse">
<stop stop-color="#8ABC38"/>
<stop offset="1" stop-color="white" stop-opacity="0"/>
</linearGradient>
<linearGradient id="paint6_linear_144_6882" x1="117" y1="109.5" x2="135.5" y2="85.0005" gradientUnits="userSpaceOnUse">
<stop stop-color="#9EFF00"/>
<stop offset="1" stop-color="white" stop-opacity="0"/>
</linearGradient>
<linearGradient id="paint7_linear_144_6882" x1="115.104" y1="111.287" x2="115.104" y2="140.37" gradientUnits="userSpaceOnUse">
<stop stop-color="#A4FF11"/>
<stop offset="0.947917" stop-color="white" stop-opacity="0"/>
</linearGradient>
<linearGradient id="paint8_linear_144_6882" x1="111" y1="108" x2="86" y2="97.5005" gradientUnits="userSpaceOnUse">
<stop stop-color="#9EFF00"/>
<stop offset="1" stop-color="white" stop-opacity="0"/>
</linearGradient>
</defs>
</svg>
