<svg width="236" height="236" viewBox="0 0 236 236" fill="none" xmlns="http://www.w3.org/2000/svg">
<path d="M200.902 236L236 91.5313L118 1.04032e-05L-1.06972e-06 91.5314L35.0981 236L200.902 236Z" fill="#0E516A" fill-opacity="0.6"/>
<g clip-path="url(#clip0_144_6880)">
<path d="M162.57 141.37C162.57 124.6 155.14 110.23 144.58 104.2C143.2 103.41 142.18 102.13 141.75 100.61C140.4 95.8104 137.2 92.4404 133.48 92.4404C129.76 92.4404 126.56 95.8104 125.21 100.61C124.78 102.13 123.75 103.41 122.38 104.2C111.82 110.23 104.39 124.6 104.39 141.37C104.39 158.14 111.85 172.57 122.44 178.58C123.8 179.35 124.82 180.61 125.26 182.11C126.65 186.81 129.8 190.09 133.47 190.09C137.14 190.09 140.3 186.81 141.68 182.11C142.12 180.61 143.14 179.35 144.5 178.58C155.09 172.57 162.55 158.18 162.55 141.37H162.57Z" fill="#B4D902"/>
<path d="M147.17 88.55C142.07 88.7 137.81 87.01 134.39 83.48L132.17 81L132.17 92.65C133.11 93.27 133.98 93.22 134.79 92.65L134.79 86.6C138.36 89.04 142.14 90.43 146.09 90.93L147.17 88.55Z" fill="#6DC82A"/>
<path d="M145.17 88.7699C147.05 85.6399 152.74 86.3899 155.42 90.1199L159.38 95.6299C160.3 96.9099 159.5 98.2599 157.93 98.0499L151.2 97.1699C146.64 96.5699 143.3 91.9099 145.17 88.7699Z" fill="#6DC82A"/>
<path d="M159.36 97.67C159.06 98.07 158.25 98.12 158.11 98.07L151.88 97.26C150.77 97.25 149.93 96.95 148.97 96.52C146.44 95.39 144.49 92.92 144.64 90.71C148.65 95.16 153.74 97.05 159.36 97.67Z" fill="white"/>
<path d="M104.39 190.09C121.726 190.09 135.78 176.036 135.78 158.7C135.78 141.363 121.726 127.31 104.39 127.31C87.0538 127.31 73 141.363 73 158.7C73 176.036 87.0538 190.09 104.39 190.09Z" fill="#6DC82A"/>
<path d="M104.39 183.88C118.297 183.88 129.57 172.606 129.57 158.7C129.57 144.793 118.297 133.52 104.39 133.52C90.4835 133.52 79.21 144.793 79.21 158.7C79.21 172.606 90.4835 183.88 104.39 183.88Z" fill="white"/>
<path d="M103.75 137.07C108.75 137.07 111.88 142.49 109.38 146.82L105.21 154.04C104.56 155.17 102.94 155.17 102.29 154.04L98.12 146.82C95.62 142.49 98.75 137.07 103.75 137.07Z" fill="#B4D902"/>
<path d="M122.08 147.04C124.81 151.23 121.99 156.81 116.99 157.08L108.67 157.53C107.37 157.6 106.48 156.24 107.07 155.08L110.84 147.65C113.1 143.19 119.35 142.85 122.08 147.04Z" fill="#B4D902"/>
<path d="M123.73 168.8C121.38 173.22 115.13 173.43 112.48 169.19L108.07 162.12C107.38 161.02 108.14 159.58 109.44 159.54L117.77 159.25C122.77 159.08 126.08 164.38 123.73 168.8Z" fill="#B4D902"/>
<path d="M106.31 180.3C101.33 180.75 97.73 175.63 99.84 171.09L103.35 163.53C103.9 162.35 105.51 162.21 106.26 163.27L111.05 170.09C113.93 174.18 111.29 179.86 106.31 180.3Z" fill="#B4D902"/>
<path d="M86.88 171.57C84.06 167.44 86.78 161.8 91.77 161.43L100.08 160.81C101.38 160.71 102.29 162.06 101.73 163.23L98.11 170.74C95.94 175.25 89.7 175.71 86.88 171.58V171.57Z" fill="#D32833"/>
<path d="M84.8 150.81C86.72 146.19 92.93 145.39 95.96 149.36L101.02 155.98C101.81 157.01 101.18 158.51 99.9 158.68L91.64 159.75C86.68 160.39 82.88 155.42 84.81 150.81H84.8Z" fill="#B4D902"/>
<path d="M104.52 161.03C105.735 161.03 106.72 160.045 106.72 158.83C106.72 157.615 105.735 156.63 104.52 156.63C103.305 156.63 102.32 157.615 102.32 158.83C102.32 160.045 103.305 161.03 104.52 161.03Z" fill="#D32833"/>
</g>
<defs>
<clipPath id="clip0_144_6880">
<rect width="89.57" height="109.09" fill="white" transform="translate(73 81)"/>
</clipPath>
</defs>
</svg>
