<svg width="46" height="44" viewBox="0 0 46 44" fill="none" xmlns="http://www.w3.org/2000/svg">
<rect width="46" height="44" fill="white" fill-opacity="0.2"/>
<path d="M18.6557 28.129C19.2357 28.4383 19.8833 28.6993 20.5987 28.912C21.3333 29.1053 22.068 29.202 22.8027 29.202C23.4407 29.202 24.04 29.144 24.6007 29.028C25.1613 28.8927 25.6447 28.6897 26.0507 28.419C26.476 28.129 26.8047 27.7713 27.0367 27.346C27.288 26.9207 27.4137 26.418 27.4137 25.838C27.4137 25.0453 27.143 24.3977 26.6017 23.895C26.0797 23.3923 25.4223 22.9477 24.6297 22.561C23.837 22.1743 22.9767 21.7973 22.0487 21.43C21.1207 21.0627 20.2603 20.6277 19.4677 20.125C18.675 19.6223 18.008 19.0133 17.4667 18.298C16.9447 17.5633 16.6837 16.6353 16.6837 15.514C16.6837 14.7213 16.8383 14.006 17.1477 13.368C17.4763 12.73 17.9307 12.1887 18.5107 11.744C19.0907 11.2993 19.7867 10.961 20.5987 10.729C21.43 10.4777 22.3483 10.352 23.3537 10.352C24.5137 10.352 25.5673 10.439 26.5147 10.613C27.462 10.7677 28.216 10.9803 28.7767 11.251L28.8347 11.222V11.28H28.8637L28.8347 11.367V16.007H26.6887V12.904C26.2053 12.788 25.6737 12.6913 25.0937 12.614C24.5137 12.5367 23.895 12.498 23.2377 12.498C22.5997 12.498 22.0197 12.5753 21.4977 12.73C20.995 12.8847 20.56 13.0973 20.1927 13.368C19.8447 13.6193 19.574 13.919 19.3807 14.267C19.1873 14.615 19.0907 14.9823 19.0907 15.369C19.0907 16.123 19.3517 16.7513 19.8737 17.254C20.415 17.7567 21.082 18.211 21.8747 18.617C22.6673 19.0037 23.5277 19.3903 24.4557 19.777C25.3837 20.1637 26.244 20.618 27.0367 21.14C27.8293 21.6427 28.4867 22.2517 29.0087 22.967C29.55 23.6823 29.8207 24.5717 29.8207 25.635C29.8207 26.505 29.6563 27.288 29.3277 27.984C29.0183 28.68 28.564 29.2793 27.9647 29.782C27.3847 30.2847 26.6597 30.6713 25.7897 30.942C24.939 31.2127 23.9723 31.348 22.8897 31.348C22.155 31.348 21.459 31.29 20.8017 31.174C20.1443 31.058 19.5353 30.913 18.9747 30.739C18.4333 30.565 17.9403 30.3813 17.4957 30.188C17.0703 29.9947 16.732 29.8303 16.4807 29.695L16.5097 29.608V24.91H18.6557V28.129Z" fill="#032B3D"/>
</svg>
