<svg width="174" height="200" viewBox="0 0 174 200" fill="none" xmlns="http://www.w3.org/2000/svg">
<rect width="174" height="200" fill="white" fill-opacity="0.05"/>
<path d="M82.898 129.305C82.4245 129.451 81.1209 129.803 79.3735 129.583C77.6113 129.361 76.4358 128.696 76.0132 128.438L84.9453 57.5757L91.8301 58.4435L82.8989 129.298L82.898 129.305Z" fill="white"/>
<path d="M85.5063 71.6612C87.1909 72.0178 89.325 71.9982 90.1921 71.3783L90.2326 71.0567L91.8217 58.4501L84.9369 57.5823L76.0057 128.437C76.5729 128.812 77.2699 129.12 78.1359 129.351C80.5798 109.962 83.054 91.0562 85.4979 71.6677L85.5063 71.6612Z" fill="#CECECE"/>
<path d="M87.3717 69.1388C102.354 71.0274 116.033 60.3962 117.924 45.3935C119.815 30.3908 109.203 16.6977 94.22 14.8092C79.2374 12.9206 65.5585 23.5518 63.6674 38.5545C61.7764 53.5572 72.3891 67.2503 87.3717 69.1388Z" fill="#052E41"/>
<path d="M87.6796 66.6959C101.315 68.4146 113.764 58.7395 115.485 45.0859C117.206 31.4323 107.547 18.9706 93.912 17.2519C80.2767 15.5332 67.828 25.2083 66.107 38.8619C64.3859 52.5155 74.0443 64.9772 87.6796 66.6959Z" fill="#117FA8"/>
<path d="M109.799 25.8777C109.606 25.6555 109.411 25.4489 109.217 25.2344C117.044 34.9348 115.865 49.1746 106.391 57.4302C96.9173 65.6858 82.0035 64.8664 73.5675 55.1685C65.318 45.684 66.1122 31.4195 75.1935 22.8928C74.9725 23.0786 74.7447 23.2557 74.5227 23.4493C64.1072 32.528 63.0144 48.3457 72.0857 58.7727C81.1491 69.1987 96.9459 70.2876 107.362 61.2011C117.779 52.1146 118.871 36.3047 109.799 25.8777Z" fill="#0E516A"/>
<path opacity="0.2" d="M91.8611 20.1633C91.3452 21.4276 91.1158 22.766 90.3548 23.6272C89.5135 24.5846 88.2015 25.665 87.0495 25.7172C84.6548 25.818 82.2263 25.3448 79.8387 24.9679C79.0276 24.8428 78.202 24.3514 79.1182 23.2819C81.5983 20.3965 87.7065 18.8193 91.8545 20.1549L91.8611 20.1633Z" fill="white"/>
<path d="M120.426 39.389C120.225 36.7126 118.216 34.416 115.445 33.649C108.775 31.798 101.089 30.1228 92.5103 29.0338C83.6243 27.9137 75.5131 27.6281 68.4068 27.7958C65.7517 27.8562 63.3676 29.3179 62.3669 31.5997C61.6554 33.2116 60.9921 35.2245 60.6504 37.5742C60.2625 40.2902 60.4062 42.7011 60.7371 44.6494C61.1394 47.0549 62.9723 49.0634 65.4631 49.8255C72.3566 51.9478 80.5984 53.9058 89.9922 55.0291C98.4517 56.0423 106.142 56.1761 112.802 55.8762C115.595 55.7496 118.016 54.057 118.859 51.5806C119.435 49.8985 119.942 47.9192 120.24 45.6779C120.55 43.3394 120.56 41.2137 120.419 39.3806L120.426 39.389Z" fill="#0E516A"/>
<path d="M118.637 39.9268C118.43 37.5726 116.516 35.5388 113.907 34.8375C107.618 33.1522 100.371 31.618 92.2847 30.5987C83.916 29.5438 76.2761 29.2249 69.5913 29.3213C67.0915 29.3554 64.863 30.6188 63.9365 32.6206C63.2767 34.0429 62.668 35.7976 62.368 37.8706C62.0208 40.2558 62.1795 42.3789 62.5065 44.0886C62.9054 46.2109 64.6505 47.9829 66.9959 48.682C73.4961 50.6034 81.2688 52.3902 90.1172 53.4512C98.0873 54.4092 105.319 54.5836 111.584 54.3799C114.214 54.2924 116.476 52.8237 117.254 50.648C117.78 49.1778 118.247 47.444 118.511 45.4751C118.785 43.4221 118.773 41.5504 118.635 39.9421L118.637 39.9268Z" fill="#117FA8"/>
<path opacity="0.2" d="M80.29 35.008C83.4767 37.148 83.8869 38.6897 81.6333 41.0131C77.6771 45.1007 72.6802 46.993 66.9907 46.5707C66.0848 46.5031 64.8853 45.4439 64.4791 44.5468C62.6309 40.457 63.681 36.4299 65.3385 32.5646C65.5929 31.9603 66.8536 31.3044 67.4953 31.4396C71.2873 32.2203 75.0391 33.1976 78.7813 34.1892C79.4935 34.3799 80.1166 34.9085 80.3043 35.0176L80.29 35.008Z" fill="white"/>
<path opacity="0.2" d="M114.047 35.3908C99.2356 33.7411 84.4319 32.0924 69.2696 30.3985C75.945 27.7944 106.01 31.7081 114.047 35.3908Z" fill="white"/>
<path d="M33.0391 158.675C33.6724 158.525 34.3557 158.425 35.0891 158.375C35.8224 158.325 36.5474 158.3 37.2641 158.3C38.0307 158.3 38.8057 158.375 39.5891 158.525C40.3891 158.675 41.1141 158.95 41.7641 159.35C42.4141 159.75 42.9391 160.3 43.3391 161C43.7557 161.7 43.9641 162.592 43.9641 163.675C43.9641 164.742 43.7724 165.642 43.3891 166.375C43.0057 167.108 42.4974 167.708 41.8641 168.175C41.2307 168.625 40.5057 168.95 39.6891 169.15C38.8724 169.35 38.0307 169.45 37.1641 169.45C37.0807 169.45 36.9391 169.45 36.7391 169.45C36.5557 169.45 36.3557 169.45 36.1391 169.45C35.9391 169.433 35.7391 169.417 35.5391 169.4C35.3391 169.383 35.1974 169.367 35.1141 169.35V176H33.0391V158.675ZM37.3141 160.1C36.8807 160.1 36.4641 160.108 36.0641 160.125C35.6641 160.142 35.3474 160.183 35.1141 160.25V167.5C35.1974 167.533 35.3307 167.558 35.5141 167.575C35.6974 167.575 35.8891 167.583 36.0891 167.6C36.2891 167.6 36.4807 167.6 36.6641 167.6C36.8474 167.6 36.9807 167.6 37.0641 167.6C37.6307 167.6 38.1891 167.55 38.7391 167.45C39.3057 167.333 39.8141 167.133 40.2641 166.85C40.7141 166.567 41.0724 166.167 41.3391 165.65C41.6224 165.133 41.7641 164.475 41.7641 163.675C41.7641 162.992 41.6307 162.425 41.3641 161.975C41.1141 161.508 40.7724 161.142 40.3391 160.875C39.9224 160.592 39.4474 160.392 38.9141 160.275C38.3807 160.158 37.8474 160.1 37.3141 160.1ZM47.1543 176V174.325H51.5043V165.175H47.1543V163.5H53.5043V174.325H57.7543V176H47.1543ZM50.8293 159.95C50.8293 159.5 50.9793 159.117 51.2793 158.8C51.5793 158.467 51.9626 158.3 52.4293 158.3C52.9126 158.3 53.3126 158.467 53.6293 158.8C53.9626 159.117 54.1293 159.5 54.1293 159.95C54.1293 160.383 53.9626 160.75 53.6293 161.05C53.3126 161.35 52.9126 161.5 52.4293 161.5C51.9626 161.5 51.5793 161.35 51.2793 161.05C50.9793 160.75 50.8293 160.383 50.8293 159.95ZM60.1695 176V174.325H63.5445V165.175H60.1695V163.5H64.8445L65.2445 165.125H65.3695C65.9362 164.608 66.5695 164.167 67.2695 163.8C67.9695 163.433 68.8029 163.25 69.7695 163.25C70.3362 163.25 70.7862 163.358 71.1195 163.575C71.4695 163.792 71.7362 164.108 71.9195 164.525C72.1195 164.942 72.2529 165.45 72.3195 166.05C72.3862 166.633 72.4195 167.3 72.4195 168.05L70.6695 168.075C70.6695 167.008 70.5612 166.225 70.3445 165.725C70.1445 165.225 69.7695 164.975 69.2195 164.975C68.7029 164.975 68.2362 165.05 67.8195 165.2C67.4029 165.35 67.0362 165.533 66.7195 165.75C66.4195 165.967 66.1612 166.183 65.9445 166.4C65.7279 166.617 65.5695 166.8 65.4695 166.95V174.325H70.2695V176H60.1695ZM81.5848 163.5H85.1348V172.025C85.1348 172.842 85.1848 173.625 85.2848 174.375H86.9598V176H83.6348L83.5598 173.875H83.4598C83.0264 174.592 82.4514 175.175 81.7348 175.625C81.0181 176.075 80.1514 176.3 79.1348 176.3C78.3681 176.3 77.7098 176.208 77.1598 176.025C76.6264 175.858 76.1848 175.558 75.8348 175.125C75.4848 174.692 75.2264 174.117 75.0598 173.4C74.8931 172.667 74.8098 171.758 74.8098 170.675V165.175H73.1348V163.5H76.7598V170.275C76.7598 170.958 76.7848 171.575 76.8348 172.125C76.9014 172.658 77.0264 173.117 77.2098 173.5C77.3931 173.867 77.6598 174.15 78.0098 174.35C78.3764 174.533 78.8598 174.625 79.4598 174.625C80.3264 174.625 81.0764 174.342 81.7098 173.775C82.3598 173.208 82.8514 172.5 83.1848 171.65V165.175H81.5848V163.5ZM89.475 158.5H93.625V171.8C93.625 172.817 93.7917 173.533 94.125 173.95C94.475 174.367 94.9833 174.575 95.65 174.575C96.1167 174.575 96.5583 174.492 96.975 174.325C97.4083 174.158 97.8833 173.875 98.4 173.475L99.3 174.85C99.0333 175.083 98.7417 175.292 98.425 175.475C98.1083 175.658 97.7833 175.817 97.45 175.95C97.1167 176.067 96.7833 176.158 96.45 176.225C96.1167 176.292 95.8083 176.325 95.525 176.325C94.9083 176.325 94.3583 176.242 93.875 176.075C93.3917 175.925 92.9833 175.675 92.65 175.325C92.3333 174.975 92.0917 174.517 91.925 173.95C91.7583 173.367 91.675 172.65 91.675 171.8V160.175H89.475V158.5ZM103.115 176V174.325H107.465V165.175H103.115V163.5H109.465V174.325H113.715V176H103.115ZM106.79 159.95C106.79 159.5 106.94 159.117 107.24 158.8C107.54 158.467 107.924 158.3 108.39 158.3C108.874 158.3 109.274 158.467 109.59 158.8C109.924 159.117 110.09 159.5 110.09 159.95C110.09 160.383 109.924 160.75 109.59 161.05C109.274 161.35 108.874 161.5 108.39 161.5C107.924 161.5 107.54 161.35 107.24 161.05C106.94 160.75 106.79 160.383 106.79 159.95ZM115.255 163.5H118.23V161.025L120.18 160.475V163.5H126.855V165.175H120.18V171.075C120.18 172.292 120.472 173.192 121.055 173.775C121.655 174.358 122.505 174.65 123.605 174.65C124.355 174.65 125.005 174.508 125.555 174.225C126.122 173.942 126.63 173.633 127.08 173.3L127.73 174.775C127.147 175.242 126.447 175.617 125.63 175.9C124.83 176.183 124.005 176.325 123.155 176.325C122.489 176.325 121.855 176.225 121.255 176.025C120.672 175.842 120.155 175.55 119.705 175.15C119.255 174.75 118.897 174.242 118.63 173.625C118.364 172.992 118.23 172.242 118.23 171.375V165.175H115.255V163.5ZM129.896 169.75C129.896 167.733 130.421 166.142 131.471 164.975C132.521 163.792 134.021 163.2 135.971 163.2C137.021 163.2 137.921 163.375 138.671 163.725C139.437 164.058 140.071 164.517 140.571 165.1C141.071 165.683 141.437 166.375 141.671 167.175C141.921 167.975 142.046 168.833 142.046 169.75C142.046 170.75 141.912 171.658 141.646 172.475C141.379 173.275 140.987 173.958 140.471 174.525C139.954 175.092 139.312 175.533 138.546 175.85C137.796 176.15 136.937 176.3 135.971 176.3C134.937 176.3 134.037 176.133 133.271 175.8C132.504 175.45 131.871 174.983 131.371 174.4C130.871 173.817 130.496 173.125 130.246 172.325C130.012 171.525 129.896 170.667 129.896 169.75ZM131.971 169.75C131.971 170.333 132.037 170.917 132.171 171.5C132.321 172.083 132.554 172.608 132.871 173.075C133.187 173.542 133.596 173.917 134.096 174.2C134.612 174.483 135.237 174.625 135.971 174.625C137.304 174.625 138.304 174.217 138.971 173.4C139.654 172.567 139.996 171.35 139.996 169.75C139.996 169.15 139.921 168.567 139.771 168C139.637 167.417 139.404 166.892 139.071 166.425C138.754 165.958 138.337 165.583 137.821 165.3C137.321 165.017 136.704 164.875 135.971 164.875C134.637 164.875 133.637 165.283 132.971 166.1C132.304 166.917 131.971 168.133 131.971 169.75Z" fill="white"/>
</svg>
