<svg width="174" height="200" viewBox="0 0 174 200" fill="none" xmlns="http://www.w3.org/2000/svg">
<rect width="174" height="200" fill="white" fill-opacity="0.05"/>
<g clip-path="url(#clip0_622_49911)">
<path d="M76.3392 56.2395C76.3392 56.2395 79.2554 22.212 48.3145 21C48.3145 21 37.8144 54.6511 76.3392 56.2395Z" fill="#6DC82A"/>
<path d="M73.2672 42.3751V123C95.5053 123 113.534 104.949 113.534 82.683C113.534 60.4173 95.5053 42.366 73.2672 42.366V42.3751Z" fill="#FE8821"/>
<path d="M73.2671 123V42.3752C51.029 42.3752 33 60.4266 33 82.6923C33 104.958 51.029 123.009 73.2671 123.009V123Z" fill="#FE9923"/>
<path d="M59.1356 65.7977C60.8931 65.7977 62.3177 64.3712 62.3177 62.6116C62.3177 60.852 60.8931 59.4255 59.1356 59.4255C57.3782 59.4255 55.9535 60.852 55.9535 62.6116C55.9535 64.3712 57.3782 65.7977 59.1356 65.7977Z" fill="white"/>
<path d="M50.1945 84.4827C51.9519 84.4827 53.3766 83.0563 53.3766 81.2967C53.3766 79.537 51.9519 78.1106 50.1945 78.1106C48.437 78.1106 47.0123 79.537 47.0123 81.2967C47.0123 83.0563 48.437 84.4827 50.1945 84.4827Z" fill="white"/>
<path d="M59.7591 102.965C61.5166 102.965 62.9413 101.539 62.9413 99.7793C62.9413 98.0197 61.5166 96.5933 59.7591 96.5933C58.0017 96.5933 56.577 98.0197 56.577 99.7793C56.577 101.539 58.0017 102.965 59.7591 102.965Z" fill="white"/>
<path d="M81.0345 62.6116C82.7919 62.6116 84.2166 61.1852 84.2166 59.4256C84.2166 57.6659 82.7919 56.2395 81.0345 56.2395C79.277 56.2395 77.8524 57.6659 77.8524 59.4256C77.8524 61.1852 79.277 62.6116 81.0345 62.6116Z" fill="#D32833"/>
<path d="M92.9559 94.6837C94.7134 94.6837 96.138 93.2572 96.138 91.4976C96.138 89.738 94.7134 88.3115 92.9559 88.3115C91.1985 88.3115 89.7738 89.738 89.7738 91.4976C89.7738 93.2572 91.1985 94.6837 92.9559 94.6837Z" fill="#FE9923"/>
<path d="M96.5782 74.9153C98.3357 74.9153 99.7604 73.4889 99.7604 71.7293C99.7604 69.9697 98.3357 68.5432 96.5782 68.5432C94.8208 68.5432 93.3961 69.9697 93.3961 71.7293C93.3961 73.4889 94.8208 74.9153 96.5782 74.9153Z" fill="#D32833"/>
<path d="M79.7323 110.908C81.4897 110.908 82.9144 109.481 82.9144 107.722C82.9144 105.962 81.4897 104.536 79.7323 104.536C77.9749 104.536 76.5502 105.962 76.5502 107.722C76.5502 109.481 77.9749 110.908 79.7323 110.908Z" fill="#FE9923"/>
<path d="M99.7604 82.6921V123.009C121.989 123 140 104.949 140 82.6921H99.7604Z" fill="#FE9923"/>
<path d="M131.655 87.3105H105.015L123.768 106.51C123.768 106.51 132.645 99.5957 131.664 87.3105H131.655Z" fill="white"/>
<path d="M101.815 117.353L102.64 90.6895L121.219 110.045C121.219 110.045 114.039 118.721 101.815 117.353Z" fill="#FEDB41"/>
<path d="M99.7604 82.6921V123.009C77.5314 123 59.5208 104.949 59.5208 82.6921H99.7604Z" fill="#FEA832"/>
<path d="M67.8749 87.3105H94.5149L75.7615 106.51C75.7615 106.51 66.8845 99.5957 67.8658 87.3105H67.8749Z" fill="#FEDB41"/>
<path d="M97.7154 117.353L96.89 90.6895L78.3109 110.045C78.3109 110.045 85.4913 118.721 97.7154 117.353Z" fill="#D32833"/>
<path d="M94.5608 31.7701C90.8834 31.9537 80.9061 33.4411 77.3021 44.1103C76.8161 45.5427 75.5047 46.516 73.9916 46.516C71.6073 46.516 69.9108 44.1654 70.6994 41.9067C72.6619 36.2599 78.1733 27.1241 93.5795 24.6542C94.5241 24.5073 95.4961 24.7369 96.2481 25.3245C97.4403 26.2427 98.7425 27.8862 97.3119 30.1724C96.7158 31.1273 95.6887 31.7242 94.5699 31.7793L94.5608 31.7701Z" fill="white"/>
</g>
<path d="M24.5439 158.5H37.5439V163.075H35.6939V160.35H32.0689V174.15H34.8189V176H27.2439V174.15H29.9939V160.35H26.3939V163.075H24.5439V158.5ZM40.2342 164.475C40.9508 164.058 41.7592 163.758 42.6592 163.575C43.5592 163.392 44.4425 163.3 45.3092 163.3C46.1592 163.3 46.8508 163.433 47.3842 163.7C47.9342 163.967 48.3592 164.317 48.6592 164.75C48.9758 165.167 49.1842 165.65 49.2842 166.2C49.4008 166.733 49.4592 167.275 49.4592 167.825C49.4592 168.458 49.4425 169.133 49.4092 169.85C49.3758 170.567 49.3508 171.283 49.3342 172C49.3342 172.833 49.3842 173.625 49.4842 174.375H51.1592V176H47.8342L47.6092 174.125H47.4842C47.3842 174.275 47.2342 174.467 47.0342 174.7C46.8342 174.933 46.5675 175.167 46.2342 175.4C45.9175 175.617 45.5258 175.808 45.0592 175.975C44.5925 176.142 44.0425 176.225 43.4092 176.225C42.1758 176.225 41.2008 175.908 40.4842 175.275C39.7675 174.642 39.4092 173.775 39.4092 172.675C39.4092 171.825 39.5925 171.117 39.9592 170.55C40.3425 169.983 40.8842 169.55 41.5842 169.25C42.2842 168.95 43.1258 168.775 44.1092 168.725C45.1092 168.675 46.2258 168.742 47.4592 168.925C47.5425 168.158 47.5508 167.525 47.4842 167.025C47.4342 166.508 47.3008 166.1 47.0842 165.8C46.8842 165.5 46.5925 165.292 46.2092 165.175C45.8425 165.042 45.3842 164.975 44.8342 164.975C44.0842 164.975 43.3675 165.083 42.6842 165.3C42.0008 165.5 41.3925 165.708 40.8592 165.925L40.2342 164.475ZM43.9092 174.55C44.3758 174.55 44.8092 174.475 45.2092 174.325C45.6092 174.175 45.9592 173.983 46.2592 173.75C46.5592 173.517 46.8092 173.267 47.0092 173C47.2092 172.717 47.3592 172.45 47.4592 172.2V170.45C46.5925 170.3 45.7925 170.225 45.0592 170.225C44.3258 170.225 43.6925 170.308 43.1592 170.475C42.6258 170.625 42.2092 170.867 41.9092 171.2C41.6092 171.533 41.4592 171.967 41.4592 172.5C41.4592 173.05 41.6425 173.533 42.0092 173.95C42.3925 174.35 43.0258 174.55 43.9092 174.55ZM53.8494 167.875C53.8494 167.725 53.8411 167.533 53.8244 167.3C53.8244 167.05 53.8161 166.8 53.7994 166.55C53.7827 166.283 53.7577 166.025 53.7244 165.775C53.7077 165.525 53.6827 165.308 53.6494 165.125H51.9744V163.5H55.3244L55.5494 165.525H55.6744C55.8411 165.242 56.0577 164.967 56.3244 164.7C56.6077 164.417 56.9327 164.167 57.2994 163.95C57.6661 163.717 58.0744 163.533 58.5244 163.4C58.9744 163.267 59.4494 163.2 59.9494 163.2C60.7161 163.2 61.3911 163.283 61.9744 163.45C62.5744 163.617 63.0661 163.917 63.4494 164.35C63.8494 164.767 64.1494 165.342 64.3494 166.075C64.5494 166.792 64.6494 167.708 64.6494 168.825V176H62.6994V169.2C62.6994 167.817 62.4744 166.775 62.0244 166.075C61.5744 165.375 60.7577 165.025 59.5744 165.025C59.1411 165.025 58.7161 165.117 58.2994 165.3C57.8994 165.467 57.5327 165.692 57.1994 165.975C56.8661 166.258 56.5744 166.592 56.3244 166.975C56.0744 167.342 55.8911 167.733 55.7744 168.15V176H53.8494V167.875ZM78.6146 176.625C78.6146 177.408 78.4646 178.092 78.1646 178.675C77.8646 179.275 77.448 179.767 76.9146 180.15C76.398 180.533 75.7896 180.817 75.0896 181C74.3896 181.2 73.6313 181.3 72.8146 181.3C71.8313 181.3 70.973 181.2 70.2396 181C69.5063 180.8 68.873 180.542 68.3396 180.225L69.2896 178.45C69.4396 178.583 69.6313 178.708 69.8646 178.825C70.1146 178.958 70.398 179.075 70.7146 179.175C71.0313 179.292 71.3646 179.383 71.7146 179.45C72.0813 179.517 72.4396 179.55 72.7896 179.55C73.523 179.55 74.1313 179.483 74.6146 179.35C75.1146 179.217 75.5146 179.008 75.8146 178.725C76.1146 178.442 76.3313 178.075 76.4646 177.625C76.598 177.175 76.6646 176.625 76.6646 175.975V174.575H76.5646C76.1813 175.125 75.6896 175.55 75.0896 175.85C74.4896 176.15 73.7146 176.3 72.7646 176.3C70.8646 176.3 69.4646 175.775 68.5646 174.725C67.6813 173.658 67.2396 172.008 67.2396 169.775C67.2396 167.642 67.8063 166.033 68.9396 164.95C70.073 163.85 71.7563 163.3 73.9896 163.3C75.023 163.3 75.898 163.375 76.6146 163.525C77.348 163.658 78.0146 163.833 78.6146 164.05V176.625ZM73.0396 174.625C74.0563 174.625 74.8563 174.367 75.4396 173.85C76.023 173.317 76.4313 172.508 76.6646 171.425V165.5C75.9313 165.15 74.9063 164.975 73.5896 164.975C72.2563 164.975 71.2063 165.367 70.4396 166.15C69.673 166.933 69.2896 168.133 69.2896 169.75C69.2896 170.467 69.3563 171.125 69.4896 171.725C69.623 172.308 69.8313 172.817 70.1146 173.25C70.4146 173.683 70.798 174.025 71.2646 174.275C71.748 174.508 72.3396 174.625 73.0396 174.625ZM92.7299 174.425C92.4299 174.692 92.0716 174.942 91.6549 175.175C91.2549 175.408 90.8132 175.608 90.3299 175.775C89.8465 175.942 89.3382 176.067 88.8049 176.15C88.2882 176.25 87.7632 176.3 87.2299 176.3C86.2299 176.3 85.3465 176.15 84.5799 175.85C83.8132 175.533 83.1715 175.092 82.6549 174.525C82.1382 173.942 81.7465 173.25 81.4799 172.45C81.2132 171.65 81.0799 170.75 81.0799 169.75C81.0799 168.7 81.2215 167.767 81.5049 166.95C81.8049 166.133 82.2299 165.45 82.7799 164.9C83.3299 164.35 83.9965 163.933 84.7799 163.65C85.5632 163.35 86.4382 163.2 87.4049 163.2C88.1049 163.2 88.7965 163.292 89.4799 163.475C90.1632 163.658 90.7632 164.008 91.2799 164.525C91.8132 165.025 92.2216 165.725 92.5049 166.625C92.7882 167.508 92.8882 168.658 92.8049 170.075H83.1299C83.1299 171.575 83.5299 172.7 84.3299 173.45C85.1465 174.183 86.2299 174.55 87.5799 174.55C88.0299 174.55 88.4716 174.5 88.9049 174.4C89.3549 174.283 89.7799 174.15 90.1799 174C90.5799 173.85 90.9299 173.683 91.2299 173.5C91.5466 173.317 91.7882 173.15 91.9549 173L92.7299 174.425ZM87.4549 164.85C86.9049 164.85 86.3799 164.908 85.8799 165.025C85.3965 165.142 84.9632 165.342 84.5799 165.625C84.2132 165.892 83.9049 166.25 83.6549 166.7C83.4215 167.133 83.2715 167.675 83.2049 168.325H90.9799C90.8966 167.225 90.5382 166.375 89.9049 165.775C89.2882 165.158 88.4715 164.85 87.4549 164.85ZM95.1451 176V174.325H98.5201V165.175H95.1451V163.5H99.8201L100.22 165.125H100.345C100.912 164.608 101.545 164.167 102.245 163.8C102.945 163.433 103.778 163.25 104.745 163.25C105.312 163.25 105.762 163.358 106.095 163.575C106.445 163.792 106.712 164.108 106.895 164.525C107.095 164.942 107.228 165.45 107.295 166.05C107.362 166.633 107.395 167.3 107.395 168.05L105.645 168.075C105.645 167.008 105.537 166.225 105.32 165.725C105.12 165.225 104.745 164.975 104.195 164.975C103.678 164.975 103.212 165.05 102.795 165.2C102.378 165.35 102.012 165.533 101.695 165.75C101.395 165.967 101.137 166.183 100.92 166.4C100.703 166.617 100.545 166.8 100.445 166.95V174.325H105.245V176H95.1451ZM110.11 176V174.325H114.46V165.175H110.11V163.5H116.46V174.325H120.71V176H110.11ZM113.785 159.95C113.785 159.5 113.935 159.117 114.235 158.8C114.535 158.467 114.919 158.3 115.385 158.3C115.869 158.3 116.269 158.467 116.585 158.8C116.919 159.117 117.085 159.5 117.085 159.95C117.085 160.383 116.919 160.75 116.585 161.05C116.269 161.35 115.869 161.5 115.385 161.5C114.919 161.5 114.535 161.35 114.235 161.05C113.935 160.75 113.785 160.383 113.785 159.95ZM123.801 167.875C123.801 167.725 123.792 167.533 123.776 167.3C123.776 167.05 123.767 166.8 123.751 166.55C123.734 166.283 123.709 166.025 123.676 165.775C123.659 165.525 123.634 165.308 123.601 165.125H121.926V163.5H125.276L125.501 165.525H125.626C125.792 165.242 126.009 164.967 126.276 164.7C126.559 164.417 126.884 164.167 127.251 163.95C127.617 163.717 128.026 163.533 128.476 163.4C128.926 163.267 129.401 163.2 129.901 163.2C130.667 163.2 131.342 163.283 131.926 163.45C132.526 163.617 133.017 163.917 133.401 164.35C133.801 164.767 134.101 165.342 134.301 166.075C134.501 166.792 134.601 167.708 134.601 168.825V176H132.651V169.2C132.651 167.817 132.426 166.775 131.976 166.075C131.526 165.375 130.709 165.025 129.526 165.025C129.092 165.025 128.667 165.117 128.251 165.3C127.851 165.467 127.484 165.692 127.151 165.975C126.817 166.258 126.526 166.592 126.276 166.975C126.026 167.342 125.842 167.733 125.726 168.15V176H123.801V167.875ZM138.166 164.475C138.882 164.058 139.691 163.758 140.591 163.575C141.491 163.392 142.374 163.3 143.241 163.3C144.091 163.3 144.782 163.433 145.316 163.7C145.866 163.967 146.291 164.317 146.591 164.75C146.907 165.167 147.116 165.65 147.216 166.2C147.332 166.733 147.391 167.275 147.391 167.825C147.391 168.458 147.374 169.133 147.341 169.85C147.307 170.567 147.282 171.283 147.266 172C147.266 172.833 147.316 173.625 147.416 174.375H149.091V176H145.766L145.541 174.125H145.416C145.316 174.275 145.166 174.467 144.966 174.7C144.766 174.933 144.499 175.167 144.166 175.4C143.849 175.617 143.457 175.808 142.991 175.975C142.524 176.142 141.974 176.225 141.341 176.225C140.107 176.225 139.132 175.908 138.416 175.275C137.699 174.642 137.341 173.775 137.341 172.675C137.341 171.825 137.524 171.117 137.891 170.55C138.274 169.983 138.816 169.55 139.516 169.25C140.216 168.95 141.057 168.775 142.041 168.725C143.041 168.675 144.157 168.742 145.391 168.925C145.474 168.158 145.482 167.525 145.416 167.025C145.366 166.508 145.232 166.1 145.016 165.8C144.816 165.5 144.524 165.292 144.141 165.175C143.774 165.042 143.316 164.975 142.766 164.975C142.016 164.975 141.299 165.083 140.616 165.3C139.932 165.5 139.324 165.708 138.791 165.925L138.166 164.475ZM141.841 174.55C142.307 174.55 142.741 174.475 143.141 174.325C143.541 174.175 143.891 173.983 144.191 173.75C144.491 173.517 144.741 173.267 144.941 173C145.141 172.717 145.291 172.45 145.391 172.2V170.45C144.524 170.3 143.724 170.225 142.991 170.225C142.257 170.225 141.624 170.308 141.091 170.475C140.557 170.625 140.141 170.867 139.841 171.2C139.541 171.533 139.391 171.967 139.391 172.5C139.391 173.05 139.574 173.533 139.941 173.95C140.324 174.35 140.957 174.55 141.841 174.55Z" fill="white"/>
<defs>
<clipPath id="clip0_622_49911">
<rect width="107" height="102" fill="white" transform="translate(33 21)"/>
</clipPath>
</defs>
</svg>
