<svg width="340" height="230" viewBox="0 0 340 230" fill="none" xmlns="http://www.w3.org/2000/svg">
<g filter="url(#filter0_d_399_25332)">
<rect x="-0.000488281" y="30" width="156" height="184" fill="white"/>
<path d="M36.1509 197.95C35.7009 197.95 35.3092 197.767 34.9759 197.4C34.6426 197.017 34.3676 196.575 34.1509 196.075C33.9342 195.558 33.7592 195.117 33.6259 194.75C33.3259 193.867 33.0176 192.908 32.7009 191.875C32.3842 190.825 32.0592 189.767 31.7259 188.7C31.4092 187.633 31.0842 186.625 30.7509 185.675C30.4176 184.708 30.0926 183.883 29.7759 183.2V182.925C29.7759 182.658 29.8342 182.483 29.9509 182.4C30.0676 182.3 30.3176 182.25 30.7009 182.25C31.1342 182.25 31.4509 182.317 31.6509 182.45C31.8676 182.583 32.0509 182.883 32.2009 183.35L33.8009 188.475C34.2676 189.975 34.6426 191.158 34.9259 192.025C35.2092 192.892 35.4426 193.533 35.6259 193.95C35.8092 194.367 35.9842 194.633 36.1509 194.75C36.3342 194.867 36.5426 194.925 36.7759 194.925C37.0759 194.925 37.4509 194.625 37.9009 194.025C38.3509 193.408 38.8259 192.55 39.3259 191.45C39.8259 190.35 40.3176 189.058 40.8009 187.575C41.3009 186.075 41.7426 184.45 42.1259 182.7C42.1759 182.467 42.2926 182.267 42.4759 182.1C42.6759 181.933 42.8842 181.85 43.1009 181.85C43.3509 181.85 43.5176 181.942 43.6009 182.125C43.7009 182.308 43.7509 182.525 43.7509 182.775C43.7509 183.025 43.7509 183.25 43.7509 183.45C43.7509 183.983 43.6342 184.692 43.4009 185.575C43.1676 186.442 42.8426 187.408 42.4259 188.475C42.0259 189.542 41.5676 190.633 41.0509 191.75C40.5342 192.867 39.9926 193.925 39.4259 194.925C39.1926 195.325 38.9176 195.758 38.6009 196.225C38.3009 196.692 37.9509 197.1 37.5509 197.45C37.1509 197.783 36.6842 197.95 36.1509 197.95ZM46.7589 198.825C46.5256 198.825 46.3422 198.675 46.2089 198.375C46.0922 198.075 46.0089 197.692 45.9589 197.225C45.9256 196.758 45.9089 196.275 45.9089 195.775C45.9089 195.542 45.9089 195.308 45.9089 195.075C45.9256 194.825 45.9339 194.592 45.9339 194.375C45.9339 194.308 45.9589 194.092 46.0089 193.725C46.0589 193.342 46.1172 192.9 46.1839 192.4C46.2506 191.9 46.3172 191.408 46.3839 190.925C46.4672 190.425 46.5339 190.033 46.5839 189.75C46.6339 189.533 46.6922 189.25 46.7589 188.9C46.8256 188.533 46.9422 188.208 47.1089 187.925C47.2922 187.625 47.5506 187.475 47.8839 187.475C48.2672 187.475 48.5339 187.55 48.6839 187.7C48.8506 187.833 48.9339 188.05 48.9339 188.35C48.9339 188.433 48.9256 188.517 48.9089 188.6C48.9089 188.683 48.9006 188.775 48.8839 188.875C48.8006 189.408 48.6922 190.075 48.5589 190.875C48.4422 191.658 48.3339 192.483 48.2339 193.35C48.1506 194.2 48.1256 195.008 48.1589 195.775C48.1756 195.958 48.1922 196.175 48.2089 196.425C48.2422 196.658 48.2589 196.892 48.2589 197.125C48.2589 197.558 48.1672 197.95 47.9839 198.3C47.8006 198.65 47.3922 198.825 46.7589 198.825ZM46.4589 184.975C46.2256 184.975 46.1089 184.808 46.1089 184.475C46.1089 184.275 46.1922 184.067 46.3589 183.85C46.5256 183.633 46.7172 183.433 46.9339 183.25C47.1672 183.05 47.3589 182.892 47.5089 182.775C47.6256 182.675 47.7422 182.583 47.8589 182.5C47.9756 182.4 48.0756 182.317 48.1589 182.25C48.2422 182.183 48.3922 182.075 48.6089 181.925C48.8256 181.775 49.0422 181.625 49.2589 181.475C49.4756 181.325 49.6089 181.242 49.6589 181.225C49.7422 181.192 49.8006 181.175 49.8339 181.175C49.8839 181.175 49.9422 181.175 50.0089 181.175C50.2256 181.175 50.4422 181.258 50.6589 181.425C50.8922 181.575 51.0089 181.717 51.0089 181.85C51.0089 181.917 50.9589 182 50.8589 182.1L50.7089 182.275C50.6756 182.325 50.6256 182.375 50.5589 182.425C50.5089 182.458 50.4672 182.492 50.4339 182.525C50.3672 182.592 50.1922 182.7 49.9089 182.85C49.6256 182.983 49.3506 183.142 49.0839 183.325L48.3089 183.825C48.0256 184.025 47.8589 184.15 47.8089 184.2C47.6922 184.3 47.4922 184.458 47.2089 184.675C46.9256 184.875 46.6756 184.975 46.4589 184.975ZM56.0519 199.7C55.6352 199.7 55.3269 199.567 55.1269 199.3C54.9269 199.033 54.7935 198.7 54.7269 198.3C54.6769 197.9 54.6519 197.508 54.6519 197.125C54.6519 196.942 54.6519 196.767 54.6519 196.6C54.6685 196.433 54.6769 196.292 54.6769 196.175C54.6769 194.975 54.7019 193.767 54.7519 192.55C54.8019 191.317 54.8269 189.975 54.8269 188.525C54.2102 188.525 53.7019 188.55 53.3019 188.6C52.9019 188.65 52.5019 188.675 52.1019 188.675C51.8352 188.675 51.6519 188.625 51.5519 188.525C51.4519 188.425 51.4019 188.258 51.4019 188.025C51.4019 187.758 51.4352 187.567 51.5019 187.45C51.5852 187.317 51.6852 187.233 51.8019 187.2L54.2519 186.7C54.6185 186.617 54.8769 186.45 55.0269 186.2C55.1935 185.95 55.3102 185.708 55.3769 185.475C55.4102 185.342 55.4269 185.217 55.4269 185.1C55.4435 184.967 55.4602 184.825 55.4769 184.675C55.4769 184.542 55.4769 184.417 55.4769 184.3C55.4935 184.167 55.5019 184.042 55.5019 183.925C55.5352 183.392 55.6185 183 55.7519 182.75C55.9019 182.5 56.1852 182.375 56.6019 182.375C56.9852 182.375 57.2102 182.525 57.2769 182.825C57.3602 183.125 57.4019 183.408 57.4019 183.675C57.4019 183.858 57.3852 184.142 57.3519 184.525C57.3352 184.892 57.3185 185.258 57.3019 185.625C57.2852 185.992 57.2685 186.258 57.2519 186.425H61.2519C61.4019 186.425 61.5519 186.525 61.7019 186.725C61.8519 186.925 61.9269 187.183 61.9269 187.5C61.9269 187.6 61.8852 187.733 61.8019 187.9C61.7185 188.05 61.6185 188.125 61.5019 188.125C61.3352 188.125 61.0185 188.133 60.5519 188.15C60.1019 188.15 59.6102 188.158 59.0769 188.175C58.5602 188.192 58.1019 188.208 57.7019 188.225C57.3019 188.242 57.0769 188.267 57.0269 188.3C56.9435 189.3 56.8769 190.267 56.8269 191.2C56.7935 192.117 56.7769 193.008 56.7769 193.875C56.7769 194.442 56.7852 194.992 56.8019 195.525C56.8352 196.042 56.8602 196.558 56.8769 197.075C56.8769 197.158 56.8852 197.283 56.9019 197.45C56.9185 197.617 56.9269 197.8 56.9269 198C56.9269 198.383 56.8685 198.767 56.7519 199.15C56.6519 199.517 56.4185 199.7 56.0519 199.7ZM66.3107 182.85C65.7607 182.85 65.319 182.725 64.9857 182.475C64.669 182.208 64.5107 181.867 64.5107 181.45C64.5107 181.067 64.694 180.775 65.0607 180.575C65.4273 180.358 65.894 180.25 66.4607 180.25C67.0273 180.25 67.469 180.383 67.7857 180.65C68.1023 180.9 68.2607 181.25 68.2607 181.7C68.2607 182.067 68.0773 182.35 67.7107 182.55C67.3607 182.75 66.894 182.85 66.3107 182.85ZM65.0107 198.825C64.7773 198.825 64.594 198.675 64.4607 198.375C64.344 198.075 64.2607 197.692 64.2107 197.225C64.1773 196.758 64.1607 196.275 64.1607 195.775C64.1607 195.542 64.1607 195.308 64.1607 195.075C64.1773 194.825 64.1857 194.592 64.1857 194.375C64.1857 194.308 64.2107 194.092 64.2607 193.725C64.3107 193.342 64.369 192.9 64.4357 192.4C64.5023 191.9 64.569 191.408 64.6357 190.925C64.719 190.425 64.7857 190.033 64.8357 189.75C64.8857 189.533 64.944 189.25 65.0107 188.9C65.0773 188.533 65.194 188.208 65.3607 187.925C65.544 187.625 65.8023 187.475 66.1357 187.475C66.519 187.475 66.7857 187.55 66.9357 187.7C67.1023 187.833 67.1857 188.05 67.1857 188.35C67.1857 188.433 67.1773 188.517 67.1607 188.6C67.1607 188.683 67.1523 188.775 67.1357 188.875C67.0523 189.408 66.944 190.075 66.8107 190.875C66.694 191.658 66.5857 192.483 66.4857 193.35C66.4023 194.2 66.3773 195.008 66.4107 195.775C66.4273 195.958 66.444 196.175 66.4607 196.425C66.494 196.658 66.5107 196.892 66.5107 197.125C66.5107 197.558 66.419 197.95 66.2357 198.3C66.0523 198.65 65.644 198.825 65.0107 198.825ZM71.1036 198.95C70.837 198.95 70.6203 198.875 70.4536 198.725C70.287 198.558 70.2036 198.358 70.2036 198.125C70.2036 197.542 70.2203 196.967 70.2536 196.4C70.3036 195.833 70.3286 195.258 70.3286 194.675V192.9C70.3286 192.417 70.3203 191.933 70.3036 191.45C70.287 190.95 70.2536 190.4 70.2036 189.8C70.1536 189.333 70.0536 188.85 69.9036 188.35C69.7536 187.833 69.6786 187.392 69.6786 187.025C69.6786 186.308 69.8953 185.95 70.3286 185.95C70.8286 185.95 71.2036 186.442 71.4536 187.425C71.7203 188.392 71.9703 189.783 72.2036 191.6C72.237 191.817 72.2786 191.975 72.3286 192.075C72.3786 192.158 72.4286 192.2 72.4786 192.2C72.5786 192.2 72.6703 192.142 72.7536 192.025C72.8536 191.892 72.9286 191.783 72.9786 191.7C73.112 191.45 73.262 191.158 73.4286 190.825C73.612 190.492 73.7703 190.208 73.9036 189.975C74.037 189.742 74.1786 189.517 74.3286 189.3C74.4953 189.067 74.662 188.85 74.8286 188.65C75.162 188.233 75.5203 187.908 75.9036 187.675C76.287 187.425 76.7036 187.3 77.1536 187.3C77.5536 187.3 77.862 187.408 78.0786 187.625C78.2953 187.842 78.487 188.125 78.6536 188.475C78.7536 188.675 78.837 188.875 78.9036 189.075C78.987 189.258 79.062 189.442 79.1286 189.625C79.212 189.808 79.3203 190.108 79.4536 190.525C79.587 190.925 79.7536 191.258 79.9536 191.525L80.7036 190.45C81.0036 190.017 81.2953 189.592 81.5786 189.175C81.8786 188.742 82.212 188.342 82.5786 187.975C82.9286 187.608 83.2953 187.317 83.6786 187.1C84.062 186.867 84.462 186.75 84.8786 186.75C85.4453 186.75 85.9203 186.983 86.3036 187.45C86.687 187.917 86.9786 188.492 87.1786 189.175C87.3786 189.858 87.487 190.525 87.5036 191.175L87.6536 196.95C87.6703 197.217 87.612 197.533 87.4786 197.9C87.3453 198.25 87.087 198.425 86.7036 198.425C86.487 198.425 86.3036 198.342 86.1536 198.175C86.0036 197.992 85.9286 197.808 85.9286 197.625V192.65C85.9286 192.317 85.9036 191.933 85.8536 191.5C85.8036 191.05 85.7203 190.617 85.6036 190.2C85.5036 189.783 85.362 189.442 85.1786 189.175C84.9953 188.892 84.762 188.75 84.4786 188.75C84.0286 188.75 83.6203 188.967 83.2536 189.4C82.887 189.817 82.5453 190.383 82.2286 191.1C81.9286 191.8 81.6203 192.575 81.3036 193.425C80.987 194.508 80.712 195.233 80.4786 195.6C80.262 195.967 80.0286 196.15 79.7786 196.15C79.562 196.15 79.387 196.1 79.2536 196C79.1203 195.9 79.0036 195.767 78.9036 195.6C78.787 195.4 78.6953 195.167 78.6286 194.9C78.562 194.617 78.5036 194.367 78.4536 194.15L77.9786 191.95C77.912 191.65 77.837 191.283 77.7536 190.85C77.687 190.417 77.5703 190.042 77.4036 189.725C77.2536 189.392 77.0203 189.225 76.7036 189.225C76.487 189.225 76.2536 189.358 76.0036 189.625C75.7703 189.875 75.5286 190.192 75.2786 190.575C75.0453 190.958 74.8286 191.35 74.6286 191.75C74.4286 192.15 74.262 192.508 74.1286 192.825C73.9953 193.142 73.912 193.342 73.8786 193.425C73.8453 193.525 73.7453 193.783 73.5786 194.2C73.412 194.617 73.2203 195.092 73.0036 195.625C72.787 196.142 72.587 196.625 72.4036 197.075C72.237 197.508 72.1286 197.792 72.0786 197.925C71.912 198.308 71.762 198.575 71.6286 198.725C71.4953 198.875 71.3203 198.95 71.1036 198.95ZM94.3044 199.45C93.5544 199.45 92.8544 199.283 92.2044 198.95C91.5711 198.617 91.0377 198.167 90.6044 197.6C90.1711 197.033 89.8877 196.4 89.7544 195.7V194.375C89.7544 193.425 89.9294 192.467 90.2794 191.5C90.6294 190.533 91.1127 189.642 91.7294 188.825C92.3627 188.008 93.1044 187.358 93.9544 186.875C94.8211 186.375 95.7544 186.125 96.7544 186.125C97.3877 186.125 97.9961 186.233 98.5794 186.45C99.1794 186.667 99.7127 186.917 100.179 187.2C100.279 186.5 100.404 186.017 100.554 185.75C100.704 185.483 100.963 185.35 101.329 185.35C101.613 185.35 101.813 185.442 101.929 185.625C102.046 185.792 102.104 186.092 102.104 186.525C102.104 187.525 102.079 188.508 102.029 189.475C101.996 190.425 101.979 191.4 101.979 192.4C101.979 193.2 102.021 194.025 102.104 194.875C102.204 195.725 102.254 196.542 102.254 197.325C102.254 197.575 102.254 197.825 102.254 198.075C102.271 198.325 102.229 198.533 102.129 198.7C102.046 198.85 101.863 198.925 101.579 198.925C101.179 198.925 100.879 198.742 100.679 198.375C100.496 197.992 100.371 197.533 100.304 197C100.238 196.467 100.171 195.967 100.104 195.5C99.9377 195.95 99.6544 196.392 99.2544 196.825C98.8711 197.258 98.4794 197.633 98.0794 197.95C97.6961 198.25 97.3961 198.467 97.1794 198.6C96.9794 198.717 96.9794 198.7 97.1794 198.55C96.8127 198.817 96.3544 199.033 95.8044 199.2C95.2711 199.367 94.7711 199.45 94.3044 199.45ZM94.0544 197.875C94.8044 197.875 95.5044 197.658 96.1544 197.225C96.8044 196.792 97.3711 196.233 97.8544 195.55C98.3544 194.867 98.7377 194.15 99.0044 193.4C99.2877 192.65 99.4294 191.958 99.4294 191.325C99.4294 191.008 99.3877 190.65 99.3044 190.25C99.2377 189.833 99.1044 189.433 98.9044 189.05C98.7044 188.667 98.4294 188.35 98.0794 188.1C97.7461 187.85 97.3044 187.725 96.7544 187.725C96.0377 187.725 95.3544 187.958 94.7044 188.425C94.0544 188.875 93.4711 189.458 92.9544 190.175C92.4544 190.875 92.0627 191.6 91.7794 192.35C91.4961 193.1 91.3544 193.775 91.3544 194.375C91.3544 194.825 91.4294 195.325 91.5794 195.875C91.7461 196.425 92.0211 196.9 92.4044 197.3C92.8044 197.683 93.3544 197.875 94.0544 197.875ZM118.729 198.95C118.379 198.95 117.921 198.9 117.354 198.8C116.788 198.7 116.213 198.55 115.629 198.35C115.063 198.15 114.588 197.9 114.204 197.6C113.821 197.283 113.629 196.908 113.629 196.475C113.629 196.325 113.704 196.183 113.854 196.05C114.021 195.9 114.221 195.825 114.454 195.825C114.588 195.825 114.779 195.875 115.029 195.975L115.854 196.4C116.154 196.567 116.504 196.733 116.904 196.9C117.304 197.05 117.738 197.125 118.204 197.125C118.771 197.125 119.379 197.058 120.029 196.925C120.696 196.792 121.329 196.583 121.929 196.3C122.529 196 123.021 195.617 123.404 195.15C123.788 194.683 123.979 194.117 123.979 193.45C123.979 192.75 123.771 192.167 123.354 191.7C122.954 191.217 122.438 190.842 121.804 190.575C121.171 190.292 120.513 190.083 119.829 189.95C119.146 189.8 118.538 189.708 118.004 189.675C117.871 189.558 117.804 189.342 117.804 189.025C117.804 188.858 117.871 188.717 118.004 188.6C118.138 188.483 118.379 188.375 118.729 188.275C118.913 188.225 119.096 188.183 119.279 188.15C119.463 188.117 119.638 188.083 119.804 188.05C119.988 188.017 120.163 187.983 120.329 187.95C120.513 187.917 120.679 187.867 120.829 187.8C121.213 187.65 121.613 187.433 122.029 187.15C122.463 186.85 122.829 186.508 123.129 186.125C123.429 185.742 123.579 185.342 123.579 184.925C123.579 184.308 123.413 183.808 123.079 183.425C122.763 183.042 122.363 182.767 121.879 182.6C121.396 182.417 120.929 182.325 120.479 182.325C119.863 182.325 119.321 182.433 118.854 182.65C118.388 182.867 117.979 183.092 117.629 183.325C117.463 183.442 117.304 183.558 117.154 183.675C117.004 183.775 116.846 183.867 116.679 183.95C116.413 184.1 116.154 184.175 115.904 184.175C115.638 184.175 115.438 184.117 115.304 184C115.171 183.883 115.104 183.767 115.104 183.65C115.104 183.25 115.246 182.892 115.529 182.575C115.829 182.242 116.213 181.958 116.679 181.725C117.146 181.475 117.638 181.275 118.154 181.125C118.671 180.958 119.163 180.833 119.629 180.75C120.096 180.667 120.471 180.625 120.754 180.625C121.588 180.625 122.346 180.8 123.029 181.15C123.729 181.483 124.288 181.95 124.704 182.55C125.121 183.133 125.329 183.8 125.329 184.55C125.329 185.317 125.163 185.992 124.829 186.575C124.496 187.158 124.038 187.767 123.454 188.4V189.125C124.271 189.775 124.896 190.425 125.329 191.075C125.779 191.708 126.004 192.458 126.004 193.325C126.004 194.192 125.788 194.975 125.354 195.675C124.921 196.358 124.346 196.95 123.629 197.45C122.929 197.933 122.146 198.308 121.279 198.575C120.429 198.825 119.579 198.95 118.729 198.95Z" fill="#032B3D"/>
<rect x="6.99951" y="36" width="142.63" height="134" fill="black"/>
<path opacity="0.1" d="M149.63 170V36L24.8283 170H149.63Z" fill="white"/>
<path opacity="0.15" d="M149.63 36H78.3145L6.99951 154.686V170H24.8283L149.63 36Z" fill="white"/>
<path opacity="0.3" d="M149.63 170V97.2571L60.4858 170H149.63Z" fill="black"/>
<path opacity="0.1" d="M6.99951 36.0001V154.686L78.3145 36.0001H6.99951Z" fill="white"/>
</g>
<path d="M83.1294 33.0283L91.8521 37.5189L82.0164 51.5759L80.2251 51.7784L78.4469 50.863L77.571 49.2873L83.1294 33.0283Z" fill="#A9A9A9"/>
<path d="M90.9237 39.3223L84.1834 35.8523L82.0164 51.5758L90.9237 39.3223Z" fill="#878787"/>
<path d="M101.369 41.2935L88.0326 34.4277L74.6961 27.562L74.1926 28.54L74.0793 37.8474L82.9977 44.2078L92.5698 47.3665L100.866 42.2715L101.369 41.2935Z" fill="#AB1E27"/>
<path d="M99.7835 33.354L92.152 26.4258L81.293 23.8349L74.6961 27.5619L74.9293 36.1963L83.9131 42.4296L93.4197 45.7153L101.369 41.2934L99.7835 33.354Z" fill="#D32833"/>
<path opacity="0.8" d="M100.335 35.2209L94.793 30.0349L86.7754 28.2403L81.8089 31.2237L81.8259 37.8547L88.385 42.4823L95.3856 44.8353L101.369 41.2934L100.335 35.2209Z" fill="#A11B24"/>
<path d="M89.2376 8.05444L108.798 18.1242L92.8409 36.8401L85.3389 35.2905L83.2755 31.9157L89.2376 8.05444Z" fill="#D32833"/>
<path d="M108.798 18.1242L89.2376 8.05444L86.8964 16.9718L85.3389 35.2905L88.2219 37.337L92.8409 36.8401L108.798 18.1242Z" fill="#A11B24"/>
<path d="M92.8409 36.8402L102.467 25.55L91.6548 30.6689L88.2219 37.3371L92.8409 36.8402Z" fill="#811219"/>
<path d="M107.764 12.0517L102.222 6.86568L94.2042 5.07108L89.2376 8.0545L89.2546 14.6855L95.8137 19.3131L102.814 21.6661L108.798 18.1242L107.764 12.0517Z" fill="#D32833"/>
<g filter="url(#filter1_d_399_25332)">
<path d="M172 128H336V224H209.609L186.797 211L172 185V128Z" fill="#FFCDD0"/>
<path opacity="0.5" d="M211.458 203L212.075 224H209.609L188.03 200.5L172 185L194.812 199.5L211.458 203Z" fill="#F3A4A9"/>
<path d="M209.609 224L186.797 211L172 185L189.879 198.5L208.375 201L209.609 224Z" fill="#F3A4A9"/>
</g>
<g filter="url(#filter2_d_399_25332)">
<path d="M172 20H336V116H187.413L182.481 111.5L173.233 78.5L172 61.5V20Z" fill="#D4F3FF"/>
<path d="M191.729 116H188.646L182.481 111.523L173.233 78.907L172 61L183.714 82.7442L206.526 109.605L199.127 107.686L192.962 110.884L191.729 116Z" fill="#B2DDEE"/>
<path d="M188.986 116H187.098L182.481 111.5L173.258 78.907L172 61L182.695 84.0233L202.827 107.047L196.535 105.128L190.244 108.326L188.986 116Z" fill="#91C9DF"/>
</g>
<defs>
<filter id="filter0_d_399_25332" x="-0.000488281" y="30" width="162.296" height="192.395" filterUnits="userSpaceOnUse" color-interpolation-filters="sRGB">
<feFlood flood-opacity="0" result="BackgroundImageFix"/>
<feColorMatrix in="SourceAlpha" type="matrix" values="0 0 0 0 0 0 0 0 0 0 0 0 0 0 0 0 0 0 127 0" result="hardAlpha"/>
<feOffset dx="6.29605" dy="8.39474"/>
<feComposite in2="hardAlpha" operator="out"/>
<feColorMatrix type="matrix" values="0 0 0 0 0.366667 0 0 0 0 0.199655 0 0 0 0 0.113056 0 0 0 0.3 0"/>
<feBlend mode="normal" in2="BackgroundImageFix" result="effect1_dropShadow_399_25332"/>
<feBlend mode="normal" in="SourceGraphic" in2="effect1_dropShadow_399_25332" result="shape"/>
</filter>
<filter id="filter1_d_399_25332" x="172" y="128" width="168" height="102" filterUnits="userSpaceOnUse" color-interpolation-filters="sRGB">
<feFlood flood-opacity="0" result="BackgroundImageFix"/>
<feColorMatrix in="SourceAlpha" type="matrix" values="0 0 0 0 0 0 0 0 0 0 0 0 0 0 0 0 0 0 127 0" result="hardAlpha"/>
<feOffset dx="4" dy="6"/>
<feComposite in2="hardAlpha" operator="out"/>
<feColorMatrix type="matrix" values="0 0 0 0 0.366667 0 0 0 0 0.199655 0 0 0 0 0.113056 0 0 0 0.3 0"/>
<feBlend mode="normal" in2="BackgroundImageFix" result="effect1_dropShadow_399_25332"/>
<feBlend mode="normal" in="SourceGraphic" in2="effect1_dropShadow_399_25332" result="shape"/>
</filter>
<filter id="filter2_d_399_25332" x="172" y="20" width="168" height="102" filterUnits="userSpaceOnUse" color-interpolation-filters="sRGB">
<feFlood flood-opacity="0" result="BackgroundImageFix"/>
<feColorMatrix in="SourceAlpha" type="matrix" values="0 0 0 0 0 0 0 0 0 0 0 0 0 0 0 0 0 0 127 0" result="hardAlpha"/>
<feOffset dx="4" dy="6"/>
<feComposite in2="hardAlpha" operator="out"/>
<feColorMatrix type="matrix" values="0 0 0 0 0.366667 0 0 0 0 0.199655 0 0 0 0 0.113056 0 0 0 0.3 0"/>
<feBlend mode="normal" in2="BackgroundImageFix" result="effect1_dropShadow_399_25332"/>
<feBlend mode="normal" in="SourceGraphic" in2="effect1_dropShadow_399_25332" result="shape"/>
</filter>
</defs>
</svg>
