<svg width="46" height="44" viewBox="0 0 46 44" fill="none" xmlns="http://www.w3.org/2000/svg">
<rect width="46" height="44" fill="white" fill-opacity="0.2"/>
<path d="M16.6257 10.7C17.3603 10.6033 18.124 10.5453 18.9167 10.526C19.7287 10.4873 20.415 10.468 20.9757 10.468C22.735 10.468 24.2043 10.7193 25.3837 11.222C26.5823 11.7247 27.5393 12.4303 28.2547 13.339C28.9893 14.2283 29.5113 15.3013 29.8207 16.558C30.1493 17.8147 30.3137 19.197 30.3137 20.705C30.3137 22.0777 30.1687 23.402 29.8787 24.678C29.5887 25.9347 29.086 27.056 28.3707 28.042C27.6553 29.0087 26.6887 29.7917 25.4707 30.391C24.272 30.971 22.764 31.261 20.9467 31.261C20.6953 31.261 20.3667 31.2513 19.9607 31.232C19.5547 31.232 19.139 31.2127 18.7137 31.174C18.2883 31.1547 17.8823 31.1353 17.4957 31.116C17.109 31.0967 16.819 31.0677 16.6257 31.029V10.7ZM21.0917 12.614C20.821 12.614 20.473 12.6237 20.0477 12.643C19.6417 12.6623 19.3033 12.701 19.0327 12.759V28.999C19.1293 29.0183 19.2647 29.0377 19.4387 29.057C19.632 29.057 19.8253 29.0667 20.0187 29.086C20.212 29.086 20.3957 29.0957 20.5697 29.115C20.763 29.115 20.9177 29.115 21.0337 29.115C22.445 29.115 23.5857 28.883 24.4557 28.419C25.345 27.955 26.0313 27.3363 26.5147 26.563C26.998 25.7703 27.3267 24.8713 27.5007 23.866C27.6747 22.8413 27.7617 21.7877 27.7617 20.705C27.7617 19.7577 27.6843 18.8103 27.5297 17.863C27.375 16.8963 27.056 16.0263 26.5727 15.253C26.1087 14.4797 25.432 13.8513 24.5427 13.368C23.6727 12.8653 22.5223 12.614 21.0917 12.614Z" fill="#032B3D"/>
</svg>
