<svg width="237" height="236" viewBox="0 0 237 236" fill="none" xmlns="http://www.w3.org/2000/svg">
<path d="M201.402 236L236.5 91.5313L118.5 5.15794e-06L0.499994 91.5314L35.5981 236L201.402 236Z" fill="#0080AF"/>
<g filter="url(#filter0_d_612_41091)">
<path d="M86.893 127.251C85.8749 127.461 85.1961 127.833 84.6144 127.93C84.2104 127.995 83.7094 127.817 83.3054 127.898C82.8529 127.978 82.8529 128.253 82.4004 128.35C82.061 128.415 81.6085 128.237 81.2692 128.318C80.8975 128.399 80.849 128.657 80.4773 128.754C80.3157 128.786 79.8309 128.641 79.6693 128.689C73.4799 130.095 66.6441 131.97 60.6001 132.342C60.6001 130.71 62.8949 130.451 62.5555 128.657C62.3939 127.849 63.509 127.477 64.0423 126.896C65.1573 126.395 63.8806 125.215 65.0765 124.617C66.4178 123.922 66.3855 122.549 67.242 121.45C68.7287 120.642 67.9692 118.605 69.7792 117.991C70.0539 117.83 70.6357 117.636 70.3286 117.216C69.2944 115.697 70.7973 115.325 71.2982 114.501C73.0436 113.725 70.9589 113.483 71.9608 112.545C73.5284 110.978 73.997 109.119 75.1121 107.39C75.3545 107.018 76.4372 106.663 76.6958 106.259C76.8089 106.065 76.4534 105.613 76.5827 105.419C76.8574 104.998 77.7947 104.724 78.0856 104.32C78.3118 104.013 77.6816 103.77 77.9078 103.479C78.0856 103.253 78.6997 103.027 78.8936 102.817C81.2369 100.118 84.1134 98.0657 87.2323 96.6759C87.5071 96.5627 87.8141 96.0941 88.0888 95.981C88.5736 95.7871 89.01 95.9648 89.4948 95.8032C89.915 95.6578 89.7857 95.3184 90.2058 95.2053C90.4482 95.1406 91.2563 95.3022 91.4987 95.2376C91.9188 95.1406 92.2097 94.7366 92.6299 94.6558C93.0339 94.575 93.5833 94.8174 93.9874 94.7689C94.6015 94.6881 94.5368 94.2841 95.1671 94.2518C95.7327 94.2195 96.0236 94.4296 96.5892 94.4296C97.1225 94.4296 97.5426 94.1872 98.0921 94.2357C98.8031 94.3003 99.2233 94.6397 99.9344 94.7851C103.958 95.577 108.354 97.29 111.02 100.005C107.352 101.718 105.768 107.94 103.473 111.576C102.746 112.885 101.857 114.291 101.389 115.47C101.276 115.777 100.387 115.567 100.193 115.826C99.999 116.084 100.128 116.585 99.9182 116.828C99.6596 117.151 99.3041 116.925 99.0294 117.232C98.6254 117.7 98.8839 118.008 98.4476 118.444C98.1729 118.719 97.8012 118.686 97.5265 118.977C97.3164 119.171 97.4618 119.931 97.2517 120.141C96.4114 120.933 95.4903 121.708 94.5206 122.435C94.1651 122.71 93.7611 122.597 93.4056 122.856C93.1955 123.001 93.0339 123.518 92.8238 123.664C92.5652 123.841 92.339 123.744 92.0804 123.938C91.9512 124.035 91.7572 124.391 91.6279 124.488C90.2058 125.409 88.202 126.556 86.8768 127.267" fill="#5CA144"/>
<path d="M121.266 93.8311C121.266 93.8311 122.43 99.762 112.717 100.635C103.005 101.507 111.877 99.8105 111.877 99.8105C111.877 99.8105 118.196 98.954 119.973 94.9462C121.751 90.9384 121.25 93.815 121.25 93.815L121.266 93.8311Z" fill="#14761E"/>
<path d="M95.1023 103.205C87.8624 106.469 83.2567 115.826 79.3298 119.333C75.0796 123.13 67.1934 125.684 67.1934 125.684C67.1934 125.684 68.0983 125.425 72.2354 124.116C82.9335 120.69 83.8385 111.382 94.375 104.805C99.8696 101.379 108.677 100.91 108.677 100.91C108.677 100.91 112.378 100.409 109.436 100.393C105.655 100.377 98.5283 101.669 95.1184 103.221L95.1023 103.205Z" fill="#14761E"/>
<path d="M97.8657 105.079C96.3951 108.053 93.3408 110.622 93.3408 110.622C93.3408 110.622 94.3104 110.428 95.9103 108.796C100.096 104.578 100.403 99.9078 97.8496 105.079H97.8657Z" fill="#14761E"/>
<path d="M87.7009 112.836C87.3616 115.987 85.4385 119.268 85.4385 119.268C85.4385 119.268 86.2465 118.783 87.1515 116.812C89.527 111.673 88.2989 107.39 87.6848 112.852L87.7009 112.836Z" fill="#14761E"/>
<path d="M80.7518 115.098C78.0368 116.731 74.2715 117.183 74.2715 117.183C74.2715 117.183 75.1441 117.522 77.2773 117.054C82.8041 115.842 85.4706 112.254 80.7518 115.082V115.098Z" fill="#14761E"/>
<path d="M78.4087 122.112C76.6634 123.793 75.5483 126.508 75.5483 126.508C75.5483 126.508 75.4675 125.78 76.2432 124.31C78.2632 120.448 81.4468 119.187 78.4087 122.128V122.112Z" fill="#14761E"/>
<path d="M99.821 100.15C96.8798 98.9217 93.0498 99.0187 93.0498 99.0187C93.0498 99.0187 93.874 98.55 96.0718 98.6955C101.776 99.0995 104.96 102.283 99.8371 100.15H99.821Z" fill="#14761E"/>
<path d="M88.8966 105.289C85.8908 105.499 82.6587 107.196 82.6587 107.196C82.6587 107.196 83.1758 106.453 85.0989 105.661C90.1248 103.592 94.1325 104.934 88.8966 105.305V105.289Z" fill="#14761E"/>
<path d="M85.3428 179.499L90.7149 180.393C103.745 182.562 116.066 173.757 118.235 160.727C120.403 147.697 111.599 135.376 98.5687 133.208L93.1966 132.314C80.1667 130.145 67.8457 138.949 65.6769 151.979C63.5082 165.009 72.3129 177.33 85.3428 179.499Z" fill="#B21F26"/>
<path d="M85.3428 179.499L90.7149 180.393C103.745 182.562 116.066 173.757 118.235 160.727C120.403 147.697 111.599 135.376 98.5687 133.208L93.1966 132.314C80.1667 130.145 67.8457 138.949 65.6769 151.979C63.5082 165.009 72.3129 177.33 85.3428 179.499Z" fill="url(#paint0_linear_612_41091)"/>
<g opacity="0.5" filter="url(#filter1_f_612_41091)">
<path d="M106.573 142.264C107.039 139.464 102.442 136.367 96.3057 135.345C90.1693 134.324 84.8171 135.766 84.3511 138.565C83.8851 141.365 88.4818 144.463 94.6182 145.484C100.755 146.505 106.107 145.064 106.573 142.264Z" fill="#811219"/>
<path d="M106.573 142.264C107.039 139.464 102.442 136.367 96.3057 135.345C90.1693 134.324 84.8171 135.766 84.3511 138.565C83.8851 141.365 88.4818 144.463 94.6182 145.484C100.755 146.505 106.107 145.064 106.573 142.264Z" fill="url(#paint1_radial_612_41091)" fill-opacity="0.4"/>
</g>
<path d="M84.3394 175.102L89.7046 175.991C102.73 178.156 115.06 169.349 117.226 156.324C117.614 153.948 117.646 151.605 117.355 149.343C118.519 152.898 118.89 156.776 118.228 160.719C116.062 173.745 103.732 182.552 90.7066 180.387L85.3413 179.498C74.6755 177.72 66.8539 169.155 65.5449 158.958C68.2437 167.135 75.2573 173.583 84.3394 175.086V175.102Z" fill="#811219"/>
<path opacity="0.25" d="M95.8134 133.182C105.332 134.766 110.778 138.386 112.151 144.042C112.604 145.917 112.555 149.278 109.598 149.181C108.903 149.165 107.643 147.743 106.592 146.903C105.833 146.305 103.764 146.434 103.99 144.883C105.445 144.268 106.398 143.38 106.592 142.281C107.061 139.501 102.471 136.415 96.3466 135.396C90.2219 134.378 84.889 135.817 84.4203 138.596C83.9517 141.376 88.5412 144.462 94.666 145.48C94.6983 145.48 94.7306 145.48 94.7629 145.48C96.5567 145.771 99.6757 146.385 98.1728 147.759C97.1062 148.729 95.9588 148.535 93.8095 148.502C91.6601 148.47 87.6524 148.793 85.1152 148.082C77.229 145.901 74.9827 143.04 75.6937 138.709C76.4048 134.378 86.3111 131.583 95.8295 133.166L95.8134 133.182Z" fill="white"/>
<path opacity="0.5" d="M88.5088 145.82C89.6078 145.965 92.7752 145.852 92.7429 146.272C92.7105 146.692 92.2096 146.951 91.9187 146.935C89.7047 146.87 86.812 147.064 84.7435 146.547C83.2891 146.175 80.4448 145.577 77.8107 142.895C76.0169 141.101 76.5179 137.772 78.8126 136.673C79.4914 136.35 80.2832 135.413 80.865 135.881C81.366 136.285 80.5095 137.142 80.2994 137.82C79.5399 140.358 79.9115 141.877 82.3679 143.363C83.7254 144.123 86.4403 145.594 88.525 145.836L88.5088 145.82Z" fill="white"/>
<path opacity="0.5" d="M70.4092 148.211C70.8294 148.34 70.9102 148.631 71.0233 148.89C71.7182 150.571 72.3484 152.284 73.8998 153.447C74.2069 153.673 74.417 154.077 74.0614 154.417C73.6574 154.805 73.1241 155.031 72.5909 154.772C71.4596 154.207 70.4092 153.56 70.086 152.203C69.8436 151.201 69.5689 150.215 69.682 149.165C69.7466 148.631 70.0375 148.389 70.4254 148.227L70.4092 148.211Z" fill="white"/>
<path opacity="0.2" d="M84.1456 174.245C87.717 174.698 90.9814 175.829 94.4397 175.684C99.7726 175.457 104.378 173.631 108.241 169.931C108.725 169.462 109.372 168.508 109.857 168.929C110.471 169.462 109.647 170.27 109.259 170.868C108.014 172.775 106.188 174.051 104.346 175.312C100.726 177.817 96.6375 178.334 92.4358 177.865C89.9633 177.591 87.4907 176.944 85.3253 175.522C84.8889 175.231 84.4203 174.973 84.1294 174.261L84.1456 174.245Z" fill="white"/>
<path d="M151.583 139.484L146.137 139.484C132.927 139.484 122.219 150.193 122.219 163.402C122.219 176.611 132.927 187.319 146.137 187.319H151.583C164.792 187.319 175.5 176.611 175.5 163.402C175.5 150.193 164.792 139.484 151.583 139.484Z" fill="#B21F26"/>
<path d="M151.583 139.484L146.137 139.484C132.927 139.484 122.219 150.193 122.219 163.402C122.219 176.611 132.927 187.319 146.137 187.319H151.583C164.792 187.319 175.5 176.611 175.5 163.402C175.5 150.193 164.792 139.484 151.583 139.484Z" fill="url(#paint2_linear_612_41091)"/>
<g opacity="0.5" filter="url(#filter2_f_612_41091)">
<path d="M148.157 152.639C154.458 152.639 159.566 150.251 159.566 147.306C159.566 144.361 154.458 141.973 148.157 141.973C141.856 141.973 136.748 144.361 136.748 147.306C136.748 150.251 141.856 152.639 148.157 152.639Z" fill="#811219"/>
<path d="M148.157 152.639C154.458 152.639 159.566 150.251 159.566 147.306C159.566 144.361 154.458 141.973 148.157 141.973C141.856 141.973 136.748 144.361 136.748 147.306C136.748 150.251 141.856 152.639 148.157 152.639Z" fill="url(#paint3_radial_612_41091)" fill-opacity="0.4"/>
</g>
<path d="M153.279 183.133H147.833C134.63 183.133 123.916 172.419 123.916 159.216C123.916 156.808 124.272 154.497 124.934 152.316C123.189 155.629 122.203 159.394 122.203 163.402C122.203 176.605 132.917 187.319 146.12 187.319H151.566C162.378 187.319 171.492 180.144 174.466 170.302C170.474 177.93 162.491 183.133 153.279 183.133Z" fill="#811219"/>
<path opacity="0.25" d="M148.852 139.888C139.204 139.888 133.241 142.571 130.962 147.92C130.203 149.698 129.702 153.027 132.627 153.415C133.305 153.512 134.792 152.316 135.972 151.669C136.828 151.201 138.832 151.669 138.881 150.102C137.539 149.261 136.748 148.227 136.748 147.112C136.748 144.284 141.773 142.005 147.979 142.005C154.185 142.005 159.21 144.3 159.21 147.112C159.21 149.924 154.185 152.219 147.979 152.219C147.947 152.219 147.914 152.219 147.882 152.219C146.072 152.219 142.888 152.316 144.149 153.899C145.054 155.031 146.217 155.031 148.334 155.354C150.451 155.677 151.389 156.534 153.991 156.259C162.119 155.402 166.321 152.235 166.321 147.839C166.321 143.444 158.499 139.888 148.835 139.888H148.852Z" fill="white"/>
<path opacity="0.5" d="M164.753 148.729C164.672 149.617 164.317 150.555 163.59 151.153C162.345 152.203 160.81 152.704 159.21 152.93C158.952 152.963 158.564 153.092 158.451 152.736C158.321 152.348 158.725 152.171 159 152.025C159.533 151.718 160.115 151.476 160.648 151.169C161.844 150.49 162.507 149.488 162.572 148.082C162.604 147.5 162.232 146.579 163.25 146.547C164.107 146.515 164.446 147.29 164.705 148.017C164.769 148.211 164.737 148.421 164.769 148.729H164.753Z" fill="white"/>
<path opacity="0.5" d="M135.228 144.203C135.131 145.044 134.63 145.706 134.307 146.45C133.855 147.435 133.661 148.405 134.436 149.294C134.84 149.762 134.469 149.924 134.242 150.166C133.774 150.473 133.224 150.522 132.691 150.457C132.093 150.376 131.673 149.972 131.786 149.358C132.174 147.338 133.24 145.674 134.76 144.284C134.856 144.187 135.083 143.993 135.244 144.219L135.228 144.203Z" fill="white"/>
<path opacity="0.5" d="M129.508 158.376C129.944 158.311 130.138 158.538 130.348 158.732C131.705 159.944 133.031 161.204 134.921 161.576C135.309 161.64 135.665 161.915 135.487 162.368C135.293 162.885 134.921 163.337 134.323 163.321C133.063 163.321 131.835 163.192 130.946 162.109C130.283 161.317 129.605 160.541 129.249 159.54C129.071 159.039 129.249 158.683 129.508 158.376Z" fill="white"/>
<path opacity="0.2" d="M155.235 183.618C153.797 183.57 152.358 183.537 151.049 182.842C150.775 182.697 150.29 182.616 150.338 182.244C150.403 181.76 150.904 181.905 151.259 181.889C155.089 181.679 158.871 181.21 162.459 179.675C164.753 178.689 166.822 177.38 168.551 175.57C169.327 174.762 170.199 174.067 170.959 173.259C172.026 172.128 172.575 170.641 173.431 169.365C173.658 169.025 173.852 168.654 174.094 168.33C174.175 168.217 174.369 168.088 174.498 168.104C174.757 168.12 174.74 168.379 174.757 168.589C174.821 169.785 174.482 170.916 173.981 171.918C170.62 178.673 165.287 182.648 157.675 183.376C157.271 183.408 156.867 183.553 156.463 183.602C156.059 183.634 155.639 183.602 155.219 183.602L155.235 183.618Z" fill="white"/>
<path d="M144.973 142.83C144.973 141.893 144.844 141.069 144.003 139.049C143.131 137.659 139.575 130.274 138.282 128.221C136.23 124.941 134.679 121.45 133.111 117.959C131.447 114.259 130.186 110.412 129.023 106.534C127.875 102.736 126.744 98.9386 126.292 94.9632C126.502 94.3168 126.841 93.6219 127.6 93.8966C128.651 94.2845 129.814 94.1229 130.8 94.7046C130.8 97.662 131.253 100.555 131.721 103.48C132.335 107.326 133.321 111.043 134.485 114.727C136.085 119.802 138.266 124.634 141.046 129.175C142.856 132.148 146.427 139.113 146.67 139.485C146.783 139.63 149.304 143.493 149.595 144.333C149.724 144.721 149.999 145.06 150.128 145.448C150.661 147.032 150.241 147.824 148.609 148.228C146.589 148.745 145.829 148.648 145.393 147.597C145.102 146.903 145.102 146.078 145.037 145.319C145.005 144.979 145.005 143.008 144.989 142.83H144.973Z" fill="#5CA144"/>
<path d="M99.1584 136.721C99.3038 135.8 99.5786 135.008 100.742 133.15C101.841 131.922 106.544 125.215 108.16 123.405C110.729 120.513 112.814 117.313 114.947 114.129C117.209 110.752 119.068 107.164 120.862 103.528C122.171 99.9566 122.72 96.369 123.803 92.539C123.706 91.8603 125.128 91.1492 124.32 91.3108C123.221 91.5209 121.718 90.7937 120.652 91.1977C120.183 94.1227 119.617 97.274 118.68 100.086C117.436 103.77 115.868 107.277 114.107 110.719C111.683 115.471 108.741 119.866 105.267 123.906C103.005 126.54 98.3342 132.827 98.0272 133.15C97.8817 133.279 94.7628 136.657 94.3426 137.465C94.1487 137.82 93.8255 138.111 93.6316 138.467C92.8397 139.953 93.1468 140.794 94.682 141.456C96.5889 142.297 97.3646 142.329 97.9625 141.359C98.3504 140.729 98.4958 139.921 98.6897 139.178C98.7705 138.855 99.1099 136.915 99.1422 136.721H99.1584Z" fill="#5CA144"/>
<path d="M130.8 94.7044C129.815 94.1227 128.651 94.2843 127.601 93.8964C126.841 93.6055 126.502 94.3004 126.292 94.963C125.952 94.8175 125.92 94.5267 125.855 94.1873C125.661 93.153 124.708 92.8621 123.948 93.5732C123.754 93.7671 123.609 93.9934 123.431 94.2035C123.318 93.2015 122.672 92.442 122.187 91.6178C121.767 90.9229 121.169 91.3431 120.668 91.1976C120.312 90.2603 120.862 89.4362 121.217 88.7574C121.961 87.3353 122.203 85.5254 124.045 84.8143C125.177 84.378 126.162 84.1356 127.31 84.782C128.619 85.5092 130.17 85.6062 131.511 86.2849C132.206 86.6404 132.659 87.1575 132.158 87.8201C130.526 89.921 130.833 92.345 130.817 94.7367L130.8 94.7044ZM130.008 87.7555C130.542 87.6585 131.075 87.5777 131.188 87.0929C131.301 86.6081 130.784 86.5435 130.461 86.398C128.99 85.7031 127.294 85.6708 125.839 84.8789C125.37 84.6204 124.773 84.8789 124.369 85.2829C124.029 85.6223 123.948 86.091 124.498 86.2526C126.34 86.802 128.215 87.2707 129.992 87.7555H130.008Z" fill="#811219"/>
</g>
<defs>
<filter id="filter0_d_612_41091" x="54.6001" y="80.3857" width="130.9" height="118.933" filterUnits="userSpaceOnUse" color-interpolation-filters="sRGB">
<feFlood flood-opacity="0" result="BackgroundImageFix"/>
<feColorMatrix in="SourceAlpha" type="matrix" values="0 0 0 0 0 0 0 0 0 0 0 0 0 0 0 0 0 0 127 0" result="hardAlpha"/>
<feOffset dx="2" dy="4"/>
<feGaussianBlur stdDeviation="4"/>
<feComposite in2="hardAlpha" operator="out"/>
<feColorMatrix type="matrix" values="0 0 0 0 0 0 0 0 0 0.137376 0 0 0 0 0.195833 0 0 0 0.4 0"/>
<feBlend mode="normal" in2="BackgroundImageFix" result="effect1_dropShadow_612_41091"/>
<feBlend mode="normal" in="SourceGraphic" in2="effect1_dropShadow_612_41091" result="shape"/>
</filter>
<filter id="filter1_f_612_41091" x="80.3184" y="131.017" width="30.2871" height="18.7952" filterUnits="userSpaceOnUse" color-interpolation-filters="sRGB">
<feFlood flood-opacity="0" result="BackgroundImageFix"/>
<feBlend mode="normal" in="SourceGraphic" in2="BackgroundImageFix" result="shape"/>
<feGaussianBlur stdDeviation="2" result="effect1_foregroundBlur_612_41091"/>
</filter>
<filter id="filter2_f_612_41091" x="132.748" y="137.973" width="30.8184" height="18.6658" filterUnits="userSpaceOnUse" color-interpolation-filters="sRGB">
<feFlood flood-opacity="0" result="BackgroundImageFix"/>
<feBlend mode="normal" in="SourceGraphic" in2="BackgroundImageFix" result="shape"/>
<feGaussianBlur stdDeviation="2" result="effect1_foregroundBlur_612_41091"/>
</filter>
<linearGradient id="paint0_linear_612_41091" x1="82.5001" y1="177.5" x2="105.804" y2="130.903" gradientUnits="userSpaceOnUse">
<stop stop-color="#4E0815"/>
<stop offset="0.598958" stop-color="#F02431"/>
<stop offset="1" stop-color="#FF6D5E"/>
</linearGradient>
<radialGradient id="paint1_radial_612_41091" cx="0" cy="0" r="1" gradientUnits="userSpaceOnUse" gradientTransform="translate(95.462 140.415) rotate(9.45) scale(11.2638 5.13899)">
<stop offset="0.526042"/>
<stop offset="1" stop-opacity="0"/>
</radialGradient>
<linearGradient id="paint2_linear_612_41091" x1="139.5" y1="187" x2="169.508" y2="130.737" gradientUnits="userSpaceOnUse">
<stop stop-color="#4E0815"/>
<stop offset="0.598958" stop-color="#F02431"/>
<stop offset="1" stop-color="#FF6D5E"/>
</linearGradient>
<radialGradient id="paint3_radial_612_41091" cx="0" cy="0" r="1" gradientUnits="userSpaceOnUse" gradientTransform="translate(148.157 147.306) rotate(90) scale(5.33291 11.4092)">
<stop offset="0.526042"/>
<stop offset="1" stop-opacity="0"/>
</radialGradient>
</defs>
</svg>
