<svg width="174" height="200" viewBox="0 0 174 200" fill="none" xmlns="http://www.w3.org/2000/svg">
<rect width="174" height="200" fill="white" fill-opacity="0.05"/>
<g clip-path="url(#clip0_622_49923)">
<path d="M91.3225 117.403C91.6774 117.708 92.1102 118.878 93.5731 118.083C93.4346 118.642 93.0537 119.427 92.7507 119.776C92.4824 120.134 92.1361 120.492 91.7033 120.553C91.2705 120.614 90.6733 118.537 90.63 117.726C90.6646 117.298 91.0108 117.132 91.3138 117.394L91.3225 117.403ZM88.5265 110.413C88.8814 110.684 89.3229 111.853 90.7858 111.007C90.6473 111.565 90.2664 112.35 90.0067 112.752C89.7384 113.11 89.3835 113.467 88.9593 113.528C88.5785 113.642 87.8773 111.556 87.8946 110.753C87.8773 110.326 88.2149 110.151 88.5265 110.413ZM85.4968 103.52C85.8518 103.781 86.3278 104.959 87.7128 104.061C87.6263 104.628 87.2887 105.404 87.029 105.815C86.7606 106.172 86.4577 106.53 86.0249 106.635C85.644 106.748 84.9429 104.663 84.8563 103.851C84.839 103.467 85.1852 103.266 85.4968 103.52ZM82.2681 96.6957C82.623 96.9662 83.1597 98.0919 84.4841 97.1844C84.4408 97.7516 84.1119 98.5369 83.8522 98.947C83.6271 99.3572 83.3328 99.6626 82.9433 99.7847C82.5624 99.8895 81.7574 97.8912 81.6708 97.0796C81.6189 96.6521 81.9565 96.4426 82.2681 96.6957ZM78.8489 89.9504C79.2038 90.2209 79.827 91.3553 81.0735 90.4042C81.0303 90.9626 80.7446 91.8003 80.5195 92.2105C80.3118 92.577 80.0002 92.926 79.6106 93.0482C79.2298 93.1529 78.4334 91.1546 78.3036 90.3431C78.2343 89.9591 78.5373 89.7497 78.8489 89.9591V89.9504ZM75.2739 83.3447C75.6375 83.5629 76.252 84.6973 77.4985 83.7374C77.4553 84.3046 77.2215 85.0987 76.9965 85.5088C76.7887 85.9189 76.5204 86.2331 76.1309 86.3989C75.75 86.5036 74.9103 84.5053 74.7199 83.7374C74.6506 83.3534 74.9623 83.0917 75.2652 83.3534L75.2739 83.3447ZM71.5084 76.7739C71.9153 77.0357 72.4953 78.1614 73.6985 77.1666C73.6985 77.7425 73.4561 78.5279 73.2916 78.9467C73.0666 79.3569 72.8155 79.671 72.426 79.8281C72.0798 79.9939 71.1362 78.0305 71.015 77.2103C70.9025 76.8263 71.1968 76.6081 71.5084 76.7827V76.7739ZM67.5439 70.369C67.9508 70.6308 68.5827 71.7215 69.7339 70.7093C69.7426 71.2329 69.5435 72.0706 69.3704 72.4894C69.2059 72.9083 68.9895 73.2224 68.6 73.3795C68.2624 73.5453 67.2236 71.6255 67.0505 70.814C66.9813 70.4301 67.2323 70.2032 67.5439 70.3777V70.369ZM63.3889 64.0949C63.7958 64.3567 64.471 65.3951 65.527 64.3828C65.5876 64.9151 65.4318 65.7092 65.2673 66.1717C65.1462 66.5382 64.9384 66.9047 64.5402 67.0618C64.2026 67.1839 63.1119 65.2991 62.8955 64.5225C62.8263 64.1385 63.086 63.9204 63.3976 64.0949H63.3889ZM59.0262 57.9953C59.3898 58.2047 60.1602 59.217 61.173 58.196C61.2336 58.7109 61.1297 59.5137 60.9652 59.9238C60.8354 60.3426 60.6709 60.7091 60.2814 60.8749C59.9871 61.0407 58.8012 59.2082 58.5761 58.4316C58.4636 58.0477 58.6713 57.7684 59.0349 57.9866L59.0262 57.9953ZM54.4211 52.0179C54.828 52.2361 55.607 53.2396 56.5246 52.175C56.6285 52.6986 56.5765 53.5014 56.4467 53.9202C56.3168 54.3391 56.161 54.6707 55.8148 54.8714C55.5291 54.9935 54.2826 53.2483 53.9624 52.463C53.8498 52.1139 54.1008 51.8521 54.4211 52.0179ZM49.5737 46.311C49.9718 46.4856 50.8028 47.4018 51.6771 46.311C51.781 46.8433 51.7723 47.6461 51.6944 48.065C51.6165 48.4402 51.4521 48.8067 51.1577 48.9812C50.8115 49.1907 49.4871 47.4803 49.1495 46.7473C48.9937 46.3547 49.2447 46.1365 49.565 46.3023L49.5737 46.311ZM44.4579 40.7787C44.8734 40.9445 45.7476 41.8607 46.5267 40.735C46.6825 41.2237 46.7604 42.0352 46.6825 42.4541C46.6046 42.8729 46.4401 43.2394 46.1545 43.414C45.9034 43.5798 44.4665 41.9654 44.0943 41.2673C43.8865 40.9183 44.0943 40.6565 44.4579 40.7787ZM39.0477 35.6041C39.4632 35.7175 40.4327 36.5465 41.1252 35.4121C41.281 35.9444 41.3676 36.7123 41.333 37.1835C41.2551 37.5587 41.1858 37.9339 40.8915 38.1521C40.5885 38.3179 39.1603 36.6948 38.7275 36.0927C38.5197 35.7437 38.6842 35.4819 39.0477 35.6041ZM33.2827 30.7785C33.7501 30.8483 34.6677 31.686 35.3256 30.5342C35.5247 31.0229 35.6632 31.7908 35.6285 32.2183C35.6459 32.6023 35.5766 32.9688 35.2736 33.1957C35.0313 33.4138 33.4905 31.878 33.0144 31.2759C32.7547 30.9792 32.9192 30.7087 33.2914 30.7785H33.2827ZM27.1974 26.4416C27.6129 26.5202 28.643 27.2532 29.1537 26.0577C29.3961 26.5551 29.5865 27.2706 29.6038 27.6982C29.6644 28.0821 29.5865 28.4661 29.3441 28.6755C29.1451 28.8937 27.4484 27.5411 26.9724 26.939C26.7127 26.6423 26.8339 26.3544 27.1974 26.4329V26.4416ZM20.7053 22.6981C21.1208 22.7767 22.2028 23.3788 22.575 22.1746C22.9213 22.6283 23.1896 23.3526 23.2588 23.7365C23.3281 24.1205 23.3021 24.4957 23.0944 24.7226C22.8953 24.9931 22.3846 24.1467 21.8219 23.5795C21.5536 23.2828 20.3331 22.6632 20.7139 22.6894L20.7053 22.6981Z" fill="url(#paint0_linear_622_49923)"/>
<path d="M92.6122 119.619C93.0018 120.745 93.599 122.202 93.599 122.202C92.3872 124.681 85.921 132.927 77.6803 131.862C72.6078 131.155 69.154 129.489 66.1849 121.024C61.1124 106.487 56.1177 87.5421 52.4648 77.4722C43.6269 53.135 33.7242 35.2552 19 21.4854C55.9446 40.0458 84.4581 97.0449 92.6122 119.619Z" fill="#6DC82A"/>
<path opacity="0.8" d="M25.6566 25.7698C38.4678 37.3057 47.124 53.6236 57.1132 73.0654C60.9046 80.4564 71.6989 111.705 74.8238 121.225C74.8238 121.225 74.8584 121.469 74.9709 121.906C74.2784 121.81 73.5946 121.993 72.9021 121.94C69.7512 112.193 59.0435 81.0323 55.2868 73.6937C45.159 54.0511 36.4509 35.8397 23.4579 24.2776C24.1764 24.7575 24.8862 25.2811 25.6566 25.7698Z" fill="white"/>
<path style="mix-blend-mode:multiply" d="M91.5562 120.021C91.8418 120.667 92.0755 121.295 92.3179 121.879C92.1102 122.141 88.8901 126.984 84.6832 127.438C76.2087 128.284 74.8238 121.216 74.8238 121.216C71.6989 111.705 60.9046 80.4478 57.1132 73.0568C47.046 53.4317 38.3379 37.0179 25.3017 25.447C59.4936 47.6027 85.0381 101.914 91.5562 120.021Z" fill="url(#paint1_linear_622_49923)"/>
<path d="M71.9326 117.56C71.8374 118.258 72.175 120.143 72.5558 120.073C73.0319 120.012 73.3782 119.75 73.7244 119.453C74.0707 119.139 74.5468 118.467 74.7718 118.005C73.2224 118.651 72.9281 117.586 72.6597 117.289C72.4 117.08 72.0105 117.193 71.9412 117.569L71.9326 117.56Z" fill="url(#paint2_linear_622_49923)"/>
<path d="M70.184 111.268C70.0802 112.019 70.461 113.851 70.8419 113.781C71.318 113.72 71.6642 113.458 71.9759 113.153C72.3221 112.848 72.7982 112.167 72.98 111.661C71.4651 112.359 71.1708 111.286 70.8592 111.033C70.5995 110.771 70.2533 110.937 70.184 111.268Z" fill="url(#paint3_linear_622_49923)"/>
<path d="M68.2624 105.064C68.2104 105.771 68.6 107.647 69.0241 107.586C69.4483 107.516 69.8032 107.219 70.1148 106.905C70.4178 106.547 70.8852 105.91 71.0583 105.413C69.5521 106.111 69.2578 105.038 68.9462 104.785C68.6779 104.523 68.3403 104.689 68.2624 105.064Z" fill="url(#paint4_linear_622_49923)"/>
<path d="M66.2714 98.851C66.2195 99.6015 66.6436 101.443 67.0764 101.373C67.5093 101.259 67.8036 100.998 68.1152 100.692C68.4182 100.334 68.8423 99.6975 69.0241 99.1913C67.5612 99.8894 67.2063 98.8685 66.9033 98.5631C66.6436 98.3536 66.2974 98.5194 66.2801 98.851H66.2714Z" fill="url(#paint5_linear_622_49923)"/>
<path d="M64.168 92.7253C64.116 93.4322 64.5921 95.2734 64.973 95.2036C65.4058 95.0901 65.7607 94.8371 66.0117 94.5229C66.3147 94.1652 66.6956 93.4758 66.8687 93.022C65.4491 93.7288 65.1115 92.6992 64.7912 92.4461C64.5315 92.1843 64.1939 92.3501 64.168 92.7341V92.7253Z" fill="url(#paint6_linear_622_49923)"/>
<path d="M61.9347 86.5995C61.926 87.3064 62.454 89.1389 62.8349 89.0778C63.2158 88.9643 63.5188 88.7025 63.8217 88.3884C64.0901 88.0219 64.5142 87.3413 64.6008 86.8264C63.2764 87.5856 62.8782 86.5646 62.5666 86.3029C62.2982 86.1022 61.9606 86.2592 61.9347 86.5995Z" fill="url(#paint7_linear_622_49923)"/>
<path d="M59.5369 80.5873C59.5716 81.2941 60.1082 83.0917 60.4891 83.0218C60.87 82.9171 61.1729 82.5943 61.4326 82.2889C61.6923 81.9311 62.0645 81.2504 62.1511 80.7269C60.87 81.5384 60.4285 80.5087 60.1169 80.2469C59.8572 80.0375 59.5629 80.2033 59.5369 80.5873Z" fill="url(#paint8_linear_622_49923)"/>
<path d="M56.9487 74.6185C56.992 75.3428 57.6153 77.1316 57.9528 77.0182C58.3857 76.9048 58.6367 76.643 58.905 76.2852C59.1647 75.9274 59.4504 75.2293 59.5889 74.7232C58.3078 75.526 57.8576 74.5487 57.546 74.2869C57.269 74.0862 56.9314 74.2869 56.9574 74.6185H56.9487Z" fill="url(#paint9_linear_622_49923)"/>
<path d="M54.222 68.7284C54.2653 69.4526 54.9405 71.1979 55.2781 71.0844C55.6589 70.971 55.9619 70.7092 56.1783 70.3427C56.386 69.9762 56.6804 69.2781 56.7583 68.772C55.5637 69.6272 55.0703 68.6498 54.7673 68.3881C54.4903 68.1874 54.196 68.3881 54.222 68.7284Z" fill="url(#paint10_linear_622_49923)"/>
<path d="M51.3481 62.9342C51.3914 63.6497 52.1185 65.3601 52.4561 65.2466C52.837 65.1332 53.088 64.8627 53.3131 64.5049C53.5208 64.1384 53.8152 63.4403 53.8498 62.9342C52.6639 63.7893 52.2138 62.812 51.8502 62.5939C51.5819 62.3932 51.2789 62.5939 51.3568 62.9342H51.3481Z" fill="url(#paint11_linear_622_49923)"/>
<path d="M48.2752 57.2187C48.3618 57.8819 49.1322 59.601 49.4697 59.4788C49.816 59.3654 50.067 59.0599 50.2834 58.7284C50.4912 58.3619 50.7335 57.6289 50.7682 57.1489C49.6169 58.0128 49.0802 57.0791 48.7686 56.8173C48.4916 56.6515 48.1973 56.8173 48.2665 57.21L48.2752 57.2187Z" fill="url(#paint12_linear_622_49923)"/>
<path d="M45.0638 51.5729C45.1936 52.2884 46.0159 53.9638 46.3102 53.798C46.6911 53.6846 46.9075 53.3617 47.072 53.0476C47.2797 52.6811 47.4788 51.9394 47.4615 51.4682C46.4055 52.3844 45.8688 51.3983 45.5052 51.1802C45.2282 51.0231 44.9772 51.2413 45.0551 51.5729H45.0638Z" fill="url(#paint13_linear_622_49923)"/>
<path d="M41.6446 46.0668C41.7917 46.7474 42.7006 48.4228 43.0036 48.2483C43.3412 48.1261 43.5489 47.812 43.7134 47.4455C43.8865 47.079 44.025 46.3809 44.051 45.9097C43.0036 46.7823 42.4583 45.8922 42.0947 45.6741C41.8264 45.517 41.584 45.7352 41.6446 46.0668Z" fill="url(#paint14_linear_622_49923)"/>
<path d="M38.0263 40.6913C38.2167 41.3632 39.1862 42.9514 39.4719 42.8379C39.8095 42.7158 39.9739 42.4016 40.0951 42.0264C40.2682 41.6599 40.4067 40.9095 40.3894 40.4383C39.4372 41.4069 38.788 40.5081 38.4245 40.2986C38.1561 40.1328 37.9138 40.3597 38.0176 40.7L38.0263 40.6913Z" fill="url(#paint15_linear_622_49923)"/>
<path d="M34.1223 35.5255C34.356 36.2061 35.4207 37.7506 35.6718 37.5761C36.0094 37.4191 36.1825 37.0875 36.2864 36.7646C36.4162 36.3457 36.5114 35.6477 36.4508 35.1677C35.5333 36.145 34.8927 35.2986 34.5292 35.1241C34.2175 34.9583 34.0011 35.1852 34.1223 35.5255Z" fill="url(#paint16_linear_622_49923)"/>
<path d="M29.9068 30.6651C30.2357 31.2585 31.3524 32.7594 31.6121 32.5936C31.9064 32.4191 32.0708 32.1049 32.1487 31.7297C32.2613 31.3632 32.2613 30.6477 32.1661 30.1677C31.3957 31.1538 30.6512 30.3859 30.279 30.2114C29.9587 30.0979 29.8029 30.3684 29.9154 30.6651H29.9068Z" fill="url(#paint17_linear_622_49923)"/>
<path d="M25.3882 26.1624C25.873 26.6772 27.2407 27.8727 27.5004 27.6458C27.7427 27.4277 27.8206 27.0612 27.7947 26.7296C27.8293 26.302 27.6908 25.6214 27.483 25.1851C26.9377 26.3282 26.0375 25.6999 25.6652 25.6737C25.3363 25.6475 25.1718 25.9181 25.3882 26.1711V26.1624Z" fill="url(#paint18_linear_622_49923)"/>
<path d="M72.7636 121.696C72.7636 121.696 74.8065 121.373 74.9017 121.469C74.9017 121.469 75.8019 128.031 84.6832 127.438C88.9334 127.124 92.1102 122.141 92.3179 121.879L93.5558 122.255C93.4519 122.525 93.2874 122.804 93.123 123.031C91.21 126.112 85.1853 132.831 77.6803 131.871C76.6156 131.696 75.6375 131.53 74.6766 131.225C71.2574 128.363 72.5472 122.865 72.7636 121.705V121.696Z" fill="#B4D902"/>
<path d="M116.711 125.213C116.78 125.597 116.616 126.539 117.88 126.626C117.577 126.932 116.988 127.272 116.651 127.394C116.313 127.508 115.984 127.577 115.655 127.455C115.335 127.298 115.776 125.719 116.157 125.169C116.313 124.899 116.633 124.925 116.711 125.213ZM117.767 119.549C117.888 119.89 117.724 120.823 118.988 120.867C118.685 121.173 118.139 121.565 117.758 121.679C117.421 121.801 117.092 121.862 116.772 121.748C116.495 121.635 116.893 120.047 117.213 119.497C117.378 119.227 117.707 119.253 117.767 119.541V119.549ZM118.65 113.825C118.823 114.131 118.65 115.108 119.879 115.099C119.628 115.422 119.074 115.806 118.737 115.972C118.399 116.094 118.061 116.164 117.733 116.094C117.464 115.98 117.81 114.34 118.139 113.79C118.243 113.52 118.581 113.537 118.65 113.825ZM119.386 108.057C119.507 108.397 119.386 109.34 120.615 109.331C120.364 109.645 119.81 110.029 119.472 110.204C119.178 110.37 118.841 110.439 118.52 110.37C118.252 110.256 118.598 108.616 118.875 108.075C118.988 107.795 119.273 107.769 119.386 108.066V108.057ZM119.992 102.315C120.113 102.603 119.992 103.598 121.23 103.493C120.961 103.86 120.468 104.244 120.122 104.41C119.827 104.584 119.498 104.698 119.169 104.619C118.892 104.514 119.195 102.874 119.42 102.272C119.585 102.001 119.862 102.019 119.983 102.315H119.992ZM120.407 96.5212C120.528 96.8092 120.459 97.7952 121.645 97.6992C121.429 98.0657 120.927 98.4497 120.58 98.6591C120.286 98.8336 120 98.9122 119.672 98.8336C119.395 98.7638 119.663 97.1233 119.888 96.5212C120 96.2507 120.286 96.2158 120.407 96.5212ZM120.676 90.7096C120.797 91.0499 120.728 91.9923 121.913 91.8876C121.654 92.2454 121.204 92.6381 120.901 92.8649C120.606 93.0307 120.321 93.1529 120 93.0831C119.715 93.0133 119.931 91.3728 120.165 90.7794C120.269 90.5002 120.563 90.474 120.676 90.7183V90.7096ZM120.762 84.9329C120.883 85.2296 120.866 86.2244 122 86.0237C121.784 86.3902 121.325 86.8265 121.031 87.0446C120.788 87.2191 120.485 87.3849 120.165 87.3151C119.888 87.2453 120.061 85.5612 120.234 85.0027C120.355 84.6798 120.641 84.6537 120.762 84.9416V84.9329ZM120.658 79.1475C120.78 79.4354 120.805 80.4302 121.948 80.1859C121.74 80.5524 121.316 81.041 121.031 81.2156C120.788 81.4337 120.485 81.5559 120.165 81.5297C119.888 81.4599 119.957 79.8107 120.148 79.1998C120.26 78.9293 120.546 78.8508 120.658 79.1475ZM120.373 73.3446C120.494 73.6326 120.572 74.6361 121.662 74.3917C121.446 74.7582 121.082 75.2382 120.788 75.4127C120.528 75.6308 120.286 75.8054 119.966 75.7356C119.723 75.7181 119.715 74.0601 119.888 73.458C119.957 73.1264 120.2 73.0915 120.364 73.3446H120.373ZM119.853 67.5679C120.018 67.8646 120.096 68.8157 121.143 68.5627C121.022 68.9292 120.606 69.4266 120.364 69.6447C120.156 69.8629 119.914 69.9938 119.594 69.9676C119.308 69.9501 119.239 68.2834 119.377 67.6813C119.446 67.3934 119.68 67.3236 119.853 67.5679ZM119.083 61.8261C119.256 62.1228 119.42 63.0827 120.433 62.7336C120.303 63.1525 119.949 63.6499 119.732 63.868C119.481 64.0949 119.239 64.2607 118.953 64.2345C118.719 64.2171 118.564 62.594 118.659 61.9395C118.676 61.6516 118.918 61.5818 119.083 61.8261ZM118.035 56.1629C118.261 56.4159 118.468 57.3758 119.429 56.9744C119.317 57.3932 119.04 57.8994 118.789 58.1611C118.581 58.388 118.338 58.5538 118.053 58.58C117.81 58.5625 117.559 56.8871 117.603 56.3112C117.629 55.9796 117.871 55.9098 118.035 56.1541V56.1629ZM116.694 50.5258C116.919 50.7788 117.179 51.7474 118.105 51.2849C117.975 51.7038 117.715 52.2099 117.499 52.4717C117.334 52.7422 117.092 52.9167 116.815 52.9429C116.573 52.9255 116.313 51.2937 116.278 50.6741C116.296 50.3949 116.538 50.3163 116.702 50.517L116.694 50.5258ZM114.98 44.9934C115.24 45.2465 115.499 46.1627 116.382 45.6653C116.304 46.0842 116.079 46.6339 115.871 46.8957C115.716 47.1749 115.517 47.3495 115.283 47.3756C114.989 47.4542 114.634 45.8137 114.59 45.1941C114.564 44.9149 114.755 44.7753 114.98 44.9934ZM112.824 39.6268C113.084 39.8799 113.396 40.8049 114.235 40.2028C114.201 40.6303 114.028 41.1801 113.863 41.4942C113.751 41.7298 113.552 41.948 113.309 42.0265C113.032 42.0527 112.53 40.5082 112.478 39.8799C112.4 39.5919 112.608 39.461 112.824 39.6268ZM110.184 34.5046C110.401 34.714 110.86 35.5954 111.604 34.9845C111.621 35.3685 111.483 35.9793 111.37 36.2498C111.266 36.5203 111.102 36.7559 110.86 36.8258C110.626 36.9043 110.626 36.1451 110.539 35.5343C110.461 35.2376 109.959 34.3475 110.193 34.5133L110.184 34.5046Z" fill="url(#paint19_radial_622_49923)"/>
<path d="M116.616 127.246C116.408 128.136 116.192 129.305 116.192 129.305C114.417 130.413 106.843 133.031 101.926 128.834C98.9572 126.295 97.3991 123.773 99.0092 117.063C101.71 105.553 106.306 91.1896 108.098 83.2139C112.409 63.7633 113.387 48.0563 109.561 33.0474C125.748 60.4736 120.667 109.2 116.607 127.246H116.616Z" fill="#6DC82A"/>
<path opacity="0.8" d="M112.089 38.5711C115.594 51.381 114.486 65.5261 112.911 82.2802C112.322 88.6416 106.367 113.319 104.471 120.771C104.471 120.771 104.419 120.998 104.298 121.277C103.9 120.92 103.389 120.797 102.948 120.422C104.904 112.839 110.894 88.2053 111.439 81.8963C113.024 64.9938 114.919 49.5922 111.284 36.6775C111.526 37.3058 111.812 37.9515 112.089 38.5798V38.5711Z" fill="white"/>
<path style="mix-blend-mode:multiply" d="M115.776 127.037C115.69 127.551 115.603 128.075 115.482 128.581C115.24 128.66 111.214 130.405 108.254 128.913C102.446 125.937 104.463 120.78 104.463 120.78C106.358 113.328 112.314 88.6503 112.902 82.2889C114.486 65.3864 115.646 51.1192 111.959 38.1958C124.917 66.8175 119.014 112.638 115.768 127.045L115.776 127.037Z" fill="url(#paint20_linear_622_49923)"/>
<path d="M104.168 117.237C103.761 117.639 103.199 118.974 103.519 119.096C103.839 119.253 104.168 119.227 104.506 119.218C104.887 119.148 105.458 118.913 105.804 118.694C104.515 118.459 104.8 117.673 104.731 117.333C104.662 117.098 104.333 117.019 104.177 117.246L104.168 117.237Z" fill="url(#paint21_linear_622_49923)"/>
<path d="M105.588 112.42C105.233 112.857 104.714 114.2 104.973 114.366C105.294 114.48 105.631 114.462 105.96 114.392C106.289 114.323 106.912 114.087 107.224 113.86C105.969 113.686 106.211 112.848 106.142 112.551C106.064 112.316 105.744 112.237 105.579 112.42H105.588Z" fill="url(#paint22_linear_622_49923)"/>
<path d="M106.921 107.638C106.557 108.04 106.081 109.419 106.358 109.541C106.67 109.707 106.999 109.68 107.336 109.567C107.665 109.497 108.254 109.253 108.548 109.043C107.293 108.851 107.544 108.022 107.466 107.734C107.388 107.49 107.111 107.42 106.912 107.647L106.921 107.638Z" fill="url(#paint23_linear_622_49923)"/>
<path d="M108.202 102.796C107.838 103.249 107.371 104.576 107.639 104.698C107.96 104.864 108.297 104.794 108.626 104.724C108.955 104.654 109.492 104.41 109.795 104.148C108.583 104.008 108.782 103.171 108.713 102.883C108.635 102.586 108.358 102.569 108.202 102.796Z" fill="url(#paint24_linear_622_49923)"/>
<path d="M109.345 97.9524C109.033 98.4062 108.609 99.7413 108.877 99.8635C109.146 99.9856 109.483 99.9595 109.821 99.8809C110.158 99.7675 110.695 99.5144 110.989 99.2614C109.777 99.1218 109.933 98.3277 109.855 97.9961C109.777 97.7605 109.5 97.7343 109.336 97.9612L109.345 97.9524Z" fill="url(#paint25_linear_622_49923)"/>
<path d="M110.444 93.0483C110.132 93.5021 109.708 94.8983 109.977 95.003C110.254 95.1164 110.591 95.0466 110.92 94.9855C111.258 94.8634 111.751 94.5667 112.045 94.3136C110.877 94.2264 111.033 93.4323 110.955 93.1356C110.877 92.8476 110.6 92.8302 110.444 93.0483Z" fill="url(#paint26_linear_622_49923)"/>
<path d="M111.362 88.1442C111.093 88.6416 110.704 90.0378 110.989 90.1076C111.258 90.2123 111.595 90.1512 111.881 90.0727C112.227 89.9505 112.712 89.6102 112.972 89.3484C111.803 89.3135 111.993 88.4758 111.881 88.1791C111.803 87.9348 111.526 87.9086 111.362 88.1442Z" fill="url(#paint27_linear_622_49923)"/>
<path d="M112.141 83.2227C111.916 83.7288 111.578 85.1249 111.812 85.186C112.141 85.3082 112.426 85.2297 112.712 85.1075C113.05 84.9941 113.543 84.6537 113.803 84.3832C112.625 84.3919 112.773 83.5542 112.66 83.2576C112.582 83.022 112.305 82.9958 112.141 83.2227Z" fill="url(#paint28_linear_622_49923)"/>
<path d="M112.824 78.2924C112.565 78.7462 112.262 80.1947 112.539 80.2646C112.824 80.3344 113.153 80.2645 113.396 80.1424C113.69 80.0202 114.192 79.6799 114.443 79.3658C113.309 79.4268 113.422 78.5804 113.301 78.2837C113.223 78.0481 112.946 78.0219 112.824 78.3012V78.2924Z" fill="url(#paint29_linear_622_49923)"/>
<path d="M113.37 73.3185C113.093 73.8159 112.859 75.2208 113.136 75.2906C113.413 75.3604 113.707 75.2906 113.993 75.1597C114.279 75.0462 114.729 74.6536 114.945 74.3743C113.855 74.4442 113.958 73.5977 113.846 73.301C113.716 73.048 113.474 73.0829 113.37 73.3185Z" fill="url(#paint30_linear_622_49923)"/>
<path d="M113.725 68.3185C113.5 68.8246 113.292 70.2732 113.578 70.343C113.855 70.4128 114.14 70.2906 114.391 70.1685C114.686 69.994 115.136 69.6536 115.335 69.3308C114.244 69.4355 114.305 68.5978 114.192 68.3011C114.114 68.0655 113.82 68.0917 113.716 68.3185H113.725Z" fill="url(#paint31_linear_622_49923)"/>
<path d="M113.984 63.3533C113.759 63.8594 113.604 65.273 113.889 65.3341C114.166 65.4039 114.409 65.2817 114.651 65.1596C114.945 64.9938 115.343 64.6011 115.56 64.3219C114.512 64.444 114.573 63.5889 114.409 63.3009C114.331 63.1002 114.045 63.0828 113.984 63.3533Z" fill="url(#paint32_linear_622_49923)"/>
<path d="M114.062 58.3446C113.881 58.8944 113.733 60.308 114.002 60.3778C114.287 60.3952 114.53 60.3167 114.781 60.1422C115.075 59.9764 115.473 59.5837 115.646 59.2609C114.642 59.4179 114.66 58.5715 114.486 58.3272C114.409 58.0916 114.114 58.109 114.062 58.3446Z" fill="url(#paint33_linear_622_49923)"/>
<path d="M113.898 53.3967C113.768 53.9115 113.716 55.3252 113.941 55.3863C114.227 55.4037 114.512 55.2815 114.72 55.1157C114.963 54.9412 115.369 54.5398 115.534 54.2257C114.53 54.3915 114.495 53.5887 114.331 53.3356C114.253 53.1 113.967 53.1262 113.907 53.4054L113.898 53.3967Z" fill="url(#paint34_linear_622_49923)"/>
<path d="M113.552 48.4491C113.422 48.964 113.465 50.3863 113.69 50.4038C113.967 50.4212 114.218 50.3078 114.417 50.1245C114.677 49.9064 115.032 49.505 115.144 49.1908C114.183 49.4526 114.097 48.5887 113.984 48.3531C113.803 48.1437 113.621 48.1786 113.552 48.4579V48.4491Z" fill="url(#paint35_linear_622_49923)"/>
<path d="M112.816 43.5101C112.781 44.0336 112.868 45.456 113.145 45.4734C113.387 45.4909 113.629 45.3251 113.829 45.1419C114.028 44.9237 114.339 44.4699 114.504 44.1558C113.586 44.4699 113.413 43.6497 113.24 43.4054C113.075 43.1959 112.876 43.2832 112.807 43.5101H112.816Z" fill="url(#paint36_linear_622_49923)"/>
<path d="M111.751 38.6933C111.855 39.2256 112.27 40.6218 112.461 40.552C112.747 40.5258 112.954 40.2989 113.101 40.072C113.266 39.8015 113.448 39.2954 113.508 38.9202C112.669 39.4699 112.348 38.6933 112.132 38.4926C111.916 38.3268 111.708 38.4577 111.742 38.6933H111.751Z" fill="url(#paint37_linear_622_49923)"/>
<path d="M102.956 120.239C102.956 120.239 104.376 120.902 104.411 121.007C104.411 121.007 102.29 125.588 108.254 128.913C111.154 130.553 115.231 128.66 115.482 128.581L116.183 129.305C115.984 129.428 115.742 129.559 115.542 129.637C113.015 130.824 106.358 132.621 101.918 128.834C101.303 128.319 100.775 127.761 100.256 127.202C99.2688 123.913 102.35 120.911 102.956 120.248V120.239Z" fill="#B4D902"/>
<path d="M94.1271 134C82.9433 134 81.9738 124.454 81.9738 123.825C83.5925 89.9592 84.3715 46.8958 71.7162 12C98.8187 37.332 104.064 86.3902 108.747 124.113C108.479 125.85 103.623 134.026 94.1271 134Z" fill="url(#paint38_linear_622_49923)"/>
<path style="mix-blend-mode:multiply" d="M85.315 123.834C85.9296 107.246 85.9902 88.6676 84.4148 69.8803C82.9 51.6165 79.8443 33.152 74.339 16.2146C97.425 41.2062 102.653 86.4163 105.302 123.764C105.302 123.764 101.935 129.401 95.0186 129.471C90.5088 129.523 87.4445 128.345 85.3237 123.834H85.315Z" fill="url(#paint39_linear_622_49923)"/>
<path opacity="0.8" d="M108.747 124.113L105.294 123.764C102.645 86.4164 97.4164 41.2064 74.3303 16.2147C79.8443 33.1521 82.8913 51.6254 84.4061 69.8804C85.9816 88.6678 85.921 107.246 85.3064 123.834H81.9651C83.5838 89.9592 84.3629 46.8958 71.7075 12C98.8101 37.332 104.056 86.3902 108.739 124.113H108.747Z" fill="white"/>
<path d="M106.427 120.536C106.185 121.278 106.133 123.354 106.549 123.389C107.016 123.424 107.406 123.258 107.804 122.953C108.193 122.7 108.843 122.124 109.12 121.618C107.449 121.976 107.388 120.78 107.137 120.387C106.921 120.091 106.54 120.161 106.427 120.527V120.536Z" fill="url(#paint40_radial_622_49923)"/>
<path d="M105.891 113.38C105.657 114.122 105.64 116.207 106.064 116.234C106.531 116.269 106.921 116.059 107.267 115.806C107.665 115.544 108.271 114.925 108.54 114.427C106.912 114.837 106.817 113.59 106.601 113.249C106.393 112.944 105.96 113.005 105.891 113.38Z" fill="url(#paint41_radial_622_49923)"/>
<path d="M105.233 106.234C104.991 107.019 105.077 109.07 105.449 109.096C105.917 109.131 106.306 108.913 106.653 108.659C107.051 108.354 107.613 107.743 107.873 107.281C106.246 107.673 106.15 106.487 105.934 106.094C105.674 105.797 105.294 105.867 105.224 106.234H105.233Z" fill="url(#paint42_radial_622_49923)"/>
<path d="M104.419 99.1043C104.229 99.8984 104.315 101.94 104.731 101.975C105.146 102.01 105.545 101.801 105.891 101.548C106.237 101.233 106.808 100.614 107.033 100.108C105.493 100.518 105.345 99.3225 105.094 98.9734C104.921 98.668 104.54 98.7378 104.419 99.113V99.1043Z" fill="url(#paint43_radial_622_49923)"/>
<path d="M103.519 92.036C103.32 92.7778 103.458 94.872 103.831 94.9069C104.255 94.8895 104.644 94.6713 104.947 94.4183C105.345 94.1129 105.865 93.4497 106.081 92.9872C104.592 93.441 104.445 92.2455 104.186 91.8964C103.978 91.5474 103.597 91.6696 103.519 92.0448V92.036Z" fill="url(#paint44_radial_622_49923)"/>
<path d="M102.428 84.9331C102.273 85.7272 102.411 87.7778 102.827 87.804C103.251 87.7865 103.597 87.5771 103.909 87.263C104.255 86.9575 104.774 86.338 104.991 85.8319C103.502 86.3467 103.355 85.1512 103.043 84.7847C102.835 84.4881 102.498 84.5579 102.428 84.9331Z" fill="url(#paint45_radial_622_49923)"/>
<path d="M101.139 77.9259C101.035 78.6764 101.225 80.727 101.649 80.7619C102.073 80.7445 102.368 80.4827 102.714 80.2296C103.017 79.9242 103.484 79.2349 103.718 78.7375C102.264 79.2436 102.073 78.0481 101.77 77.7427C101.554 77.4373 101.216 77.5594 101.139 77.9259Z" fill="url(#paint46_radial_622_49923)"/>
<path d="M99.7189 70.9014C99.6151 71.6955 99.8921 73.7548 100.264 73.7374C100.688 73.7199 100.983 73.4582 101.294 73.1527C101.597 72.8473 102.065 72.1667 102.247 71.6606C100.844 72.219 100.593 71.0672 100.342 70.7182C100.074 70.404 99.7362 70.5262 99.7103 70.9014H99.7189Z" fill="url(#paint47_radial_622_49923)"/>
<path d="M98.0569 63.9555C98.005 64.7059 98.3685 66.774 98.6975 66.7479C99.1216 66.7304 99.4333 66.4686 99.7276 66.1632C100.031 65.8054 100.455 65.1248 100.585 64.6623C99.2255 65.2208 98.9312 64.0689 98.6802 63.7199C98.4205 63.4581 98.0829 63.5803 98.0569 63.9555Z" fill="url(#paint48_radial_622_49923)"/>
<path d="M96.1353 57.0879C96.1353 57.8471 96.6027 59.8716 96.9316 59.8454C97.3125 59.7756 97.6068 59.5138 97.8751 59.2084C98.1781 58.903 98.559 58.1612 98.6888 57.7075C97.3731 58.3183 97.0355 57.1577 96.7325 56.8087C96.5161 56.5469 96.1699 56.7214 96.1439 57.0966L96.1353 57.0879Z" fill="url(#paint49_radial_622_49923)"/>
<path d="M94.0491 50.2554C94.0405 51.0582 94.5512 53.039 94.8888 52.9779C95.2696 52.9605 95.5726 52.6899 95.8236 52.3758C96.04 52.0093 96.4209 51.285 96.5075 50.8138C95.235 51.477 94.8974 50.3164 94.5945 50.011C94.3261 49.758 94.0405 49.8714 94.0578 50.2554H94.0491Z" fill="url(#paint50_radial_622_49923)"/>
<path d="M91.6081 43.5799C91.6081 44.3391 92.214 46.285 92.5949 46.2588C92.9238 46.189 93.2355 45.8749 93.4432 45.5607C93.6596 45.1942 93.9885 44.5049 94.0232 43.99C92.8459 44.7143 92.4045 43.5799 92.1015 43.2745C91.8418 43.0214 91.5908 43.1872 91.6081 43.5712V43.5799Z" fill="url(#paint51_radial_622_49923)"/>
<path d="M88.8294 37.0354C88.8727 37.7946 89.5825 39.6969 89.9115 39.627C90.2923 39.5572 90.5001 39.2955 90.7165 38.929C90.9329 38.5625 91.1753 37.8207 91.2532 37.3059C90.1192 38.0738 89.6258 36.9918 89.3228 36.6863C89.0631 36.4333 88.7688 36.6427 88.8294 37.0267V37.0354Z" fill="url(#paint52_radial_622_49923)"/>
<path d="M85.6699 30.6392C85.8084 31.4071 86.5702 33.3181 86.8991 33.196C87.2367 33.0738 87.4877 32.812 87.6522 32.4455C87.8167 32.079 88.0071 31.3373 88.0504 30.8137C87.0116 31.6427 86.4663 30.5607 86.1114 30.2989C85.7998 30.0895 85.5488 30.2989 85.6613 30.6479L85.6699 30.6392Z" fill="url(#paint53_radial_622_49923)"/>
<path d="M82.017 24.6007C82.2508 25.2813 83.1943 27.1051 83.4799 26.9742C83.8262 26.852 83.982 26.5379 84.1551 26.1714C84.2763 25.8049 84.4667 25.0544 84.4148 24.5309C83.454 25.4122 82.7788 24.4087 82.4152 24.1993C82.0863 24.0335 81.8959 24.1993 82.0084 24.6007H82.017Z" fill="url(#paint54_radial_622_49923)"/>
<path d="M77.8101 18.8414C78.0871 19.5657 79.2903 21.2236 79.524 21.1015C79.8616 20.9357 80.0348 20.6128 80.104 20.2376C80.2252 19.8711 80.2771 19.1119 80.1733 18.632C79.3076 19.6093 78.5719 18.6582 78.217 18.44C77.9053 18.2742 77.6889 18.5011 77.8101 18.8414Z" fill="url(#paint55_radial_622_49923)"/>
<path d="M73.1098 13.6144C73.482 14.3038 74.7805 15.8745 75.0228 15.6912C75.3258 15.4818 75.447 15.1589 75.473 14.7837C75.5422 14.4085 75.5076 13.6406 75.3518 13.1607C74.6679 14.1991 73.8369 13.3352 73.4734 13.1607C73.1531 13.0036 72.9453 13.2654 73.1098 13.6144Z" fill="url(#paint56_radial_622_49923)"/>
<path d="M73.1271 15.2723C73.0665 14.8883 73.2483 14.9058 73.4561 15.2984C73.8716 16.1362 74.642 18.5097 74.4429 18.5882C74.2524 18.7191 73.9841 18.5533 73.7158 18.3002C73.4561 18.0385 72.98 17.4451 72.7376 16.9477C73.5773 17.1048 73.1964 15.7522 73.1358 15.2723H73.1271Z" fill="url(#paint57_radial_622_49923)"/>
<path d="M74.4689 24.81C74.7632 25.2986 75.3345 25.9094 75.6461 26.1625C75.9577 26.3807 76.2694 26.5465 76.5723 26.4243C76.806 26.3458 76.1309 23.9286 75.7673 23.0909C75.5682 22.6982 75.3345 22.6808 75.3085 23.056C75.2739 23.5272 75.5855 24.9321 74.4689 24.8012V24.81Z" fill="url(#paint58_radial_622_49923)"/>
<path d="M76.0703 32.7332C76.4078 33.2306 76.9792 33.7978 77.3341 34.0596C77.7063 34.2778 78.0698 34.4436 78.3988 34.3301C78.6844 34.208 78.1045 31.7995 77.6976 30.9618C77.5418 30.5692 77.2042 30.5517 77.1782 30.9706C77.109 31.4418 77.386 32.8292 76.0703 32.7332Z" fill="url(#paint59_radial_622_49923)"/>
<path d="M77.4812 40.6652C77.8188 41.1626 78.4853 41.7386 78.8402 42.0003C79.2471 42.2621 79.6106 42.4367 79.9915 42.3145C80.3377 42.201 79.8011 39.749 79.4375 38.92C79.2384 38.475 78.9095 38.5012 78.8316 38.8764C78.7017 39.3825 78.9268 40.7787 77.4812 40.674V40.6652Z" fill="url(#paint60_radial_622_49923)"/>
<path d="M78.7883 48.6323C79.1259 49.121 79.801 49.7405 80.1992 50.0023C80.5628 50.2205 80.9263 50.395 81.3072 50.2728C81.6881 50.1594 81.2466 47.7074 80.8831 46.8784C80.684 46.4857 80.355 46.4595 80.2252 46.8784C80.0953 47.3409 80.2858 48.7719 78.7796 48.6236L78.7883 48.6323Z" fill="url(#paint61_radial_622_49923)"/>
<path d="M79.9136 56.5731C80.2512 57.0705 80.8571 57.7249 81.2639 58.0042C81.6708 58.266 82.0776 58.4405 82.4671 58.327C82.8134 58.2136 82.4671 55.7703 82.1036 54.8977C81.9391 54.505 81.5669 54.4788 81.4457 54.8977C81.3159 55.3514 81.4457 56.7912 79.9136 56.5818V56.5731Z" fill="url(#paint62_radial_622_49923)"/>
<path d="M80.8398 64.6011C81.1341 65.0985 81.8006 65.718 82.1988 66.0322C82.5537 66.3027 82.9692 66.4685 83.402 66.3638C83.7829 66.294 83.4366 63.807 83.125 62.978C82.9605 62.5417 82.5883 62.5156 82.4758 62.9344C82.294 63.3969 82.3806 64.8193 80.8484 64.6098L80.8398 64.6011Z" fill="url(#paint63_radial_622_49923)"/>
<path d="M81.541 72.6205C81.8785 73.1615 82.5018 73.7811 82.8913 74.0865C83.2982 74.357 83.705 74.5228 84.1378 74.4704C84.5187 74.4006 84.2763 71.9137 83.956 71.0411C83.8002 70.6048 83.3847 70.5698 83.2549 70.9887C83.0731 71.4512 83.1164 72.8735 81.541 72.6205Z" fill="url(#paint64_radial_622_49923)"/>
<path d="M82.043 80.6659C82.3806 81.1633 83.0039 81.8265 83.4021 82.1319C83.8002 82.4548 84.2157 82.6206 84.6399 82.5595C85.0208 82.4897 84.8217 80.0115 84.5447 79.1388C84.3889 78.7025 84.0253 78.624 83.8522 79.0429C83.6358 79.5053 83.6704 80.9277 82.043 80.6659Z" fill="url(#paint65_radial_622_49923)"/>
<path d="M82.3633 88.694C82.7009 89.2437 83.3155 89.8982 83.7137 90.221C84.0686 90.5265 84.51 90.7446 84.9428 90.6923C85.3237 90.6225 85.2198 88.153 84.9082 87.228C84.7957 86.7917 84.4235 86.7655 84.2157 87.132C83.9906 87.5945 83.982 89.0692 82.3633 88.7027V88.694Z" fill="url(#paint66_radial_622_49923)"/>
<path d="M82.4931 96.7568C82.7874 97.3066 83.3933 98.0047 83.8002 98.3275C84.1984 98.6417 84.6139 98.8511 85.038 98.7987C85.4189 98.7289 85.3583 96.2594 85.1419 95.3432C84.9861 94.9069 84.6225 94.8284 84.3975 95.2385C84.1724 95.701 84.1205 97.1233 82.5018 96.7568H82.4931Z" fill="url(#paint67_radial_622_49923)"/>
<path d="M82.3893 104.802C82.6749 105.343 83.2895 106.05 83.6877 106.373C84.0426 106.731 84.4494 106.94 84.8736 106.923C85.2977 106.87 85.2891 104.349 85.0727 103.485C84.9602 103.048 84.5447 102.97 84.3283 103.336C84.1032 103.799 83.9993 105.212 82.3806 104.802H82.3893Z" fill="url(#paint68_radial_622_49923)"/>
<path d="M82.0603 112.787C82.346 113.38 82.9 114.131 83.2981 114.488C83.653 114.802 84.0599 115.021 84.484 115.003C84.9082 115.003 84.9948 112.49 84.7783 111.565C84.6658 111.129 84.2936 111.05 84.0859 111.417C83.8089 111.87 83.6704 113.293 82.0603 112.787Z" fill="url(#paint69_radial_622_49923)"/>
<path d="M81.4803 120.85C81.7227 121.391 82.2681 122.185 82.6749 122.508C83.0211 122.866 83.3934 123.119 83.8521 123.11C84.2763 123.092 84.4061 120.64 84.2417 119.681C84.1291 119.244 83.7569 119.166 83.5492 119.532C83.2808 119.942 83.0904 121.391 81.4803 120.85Z" fill="url(#paint70_radial_622_49923)"/>
<path d="M85.315 123.834C87.4358 128.345 90.5001 129.523 95.01 129.471C101.926 129.401 105.294 123.808 105.294 123.808L108.747 124.105C108.479 125.841 103.623 134.017 94.127 133.991C82.9432 133.991 81.9738 124.445 81.9738 123.817H85.315V123.834Z" fill="#B4D902"/>
</g>
<path d="M57.5793 162.5C57.5793 162.917 57.5126 163.342 57.3793 163.775C57.246 164.208 57.046 164.617 56.7793 165C56.5126 165.367 56.171 165.692 55.7543 165.975C55.3376 166.258 54.846 166.475 54.2793 166.625V166.725C54.7793 166.808 55.2543 166.95 55.7043 167.15C56.171 167.35 56.5793 167.625 56.9293 167.975C57.2793 168.325 57.5626 168.75 57.7793 169.25C57.996 169.75 58.1043 170.342 58.1043 171.025C58.1043 171.925 57.9126 172.708 57.5293 173.375C57.1626 174.025 56.671 174.558 56.0543 174.975C55.4543 175.392 54.7626 175.7 53.9793 175.9C53.196 176.1 52.396 176.2 51.5793 176.2C51.296 176.2 50.9626 176.2 50.5793 176.2C50.196 176.2 49.796 176.183 49.3793 176.15C48.9626 176.133 48.546 176.1 48.1293 176.05C47.7126 176.017 47.346 175.958 47.0293 175.875V158.65C47.646 158.55 48.3626 158.467 49.1793 158.4C49.996 158.333 50.8876 158.3 51.8543 158.3C52.5043 158.3 53.1626 158.358 53.8293 158.475C54.5126 158.575 55.1293 158.783 55.6793 159.1C56.2293 159.4 56.6793 159.825 57.0293 160.375C57.396 160.925 57.5793 161.633 57.5793 162.5ZM51.7793 174.4C52.3126 174.4 52.8293 174.333 53.3293 174.2C53.8293 174.067 54.271 173.867 54.6543 173.6C55.0376 173.333 55.3376 173 55.5543 172.6C55.7876 172.2 55.9043 171.725 55.9043 171.175C55.9043 170.492 55.7626 169.942 55.4793 169.525C55.2126 169.108 54.8543 168.783 54.4043 168.55C53.971 168.317 53.4793 168.158 52.9293 168.075C52.3793 167.992 51.8293 167.95 51.2793 167.95H49.1043V174.225C49.221 174.258 49.3876 174.283 49.6043 174.3C49.821 174.317 50.0543 174.333 50.3043 174.35C50.5543 174.367 50.8126 174.383 51.0793 174.4C51.346 174.4 51.5793 174.4 51.7793 174.4ZM50.4043 166.2C50.6876 166.2 51.0293 166.192 51.4293 166.175C51.8293 166.158 52.1626 166.133 52.4293 166.1C52.8293 165.967 53.2043 165.808 53.5543 165.625C53.9043 165.425 54.2126 165.192 54.4793 164.925C54.7626 164.658 54.9793 164.358 55.1293 164.025C55.296 163.692 55.3793 163.325 55.3793 162.925C55.3793 162.375 55.271 161.917 55.0543 161.55C54.8543 161.183 54.5793 160.892 54.2293 160.675C53.8793 160.458 53.4793 160.308 53.0293 160.225C52.5793 160.142 52.121 160.1 51.6543 160.1C51.1043 160.1 50.596 160.117 50.1293 160.15C49.6793 160.167 49.3376 160.2 49.1043 160.25V166.2H50.4043ZM61.2195 164.475C61.9362 164.058 62.7445 163.758 63.6445 163.575C64.5445 163.392 65.4279 163.3 66.2945 163.3C67.1445 163.3 67.8362 163.433 68.3695 163.7C68.9195 163.967 69.3445 164.317 69.6445 164.75C69.9612 165.167 70.1695 165.65 70.2695 166.2C70.3862 166.733 70.4445 167.275 70.4445 167.825C70.4445 168.458 70.4279 169.133 70.3945 169.85C70.3612 170.567 70.3362 171.283 70.3195 172C70.3195 172.833 70.3695 173.625 70.4695 174.375H72.1445V176H68.8195L68.5945 174.125H68.4695C68.3695 174.275 68.2195 174.467 68.0195 174.7C67.8195 174.933 67.5529 175.167 67.2195 175.4C66.9029 175.617 66.5112 175.808 66.0445 175.975C65.5779 176.142 65.0279 176.225 64.3945 176.225C63.1612 176.225 62.1862 175.908 61.4695 175.275C60.7529 174.642 60.3945 173.775 60.3945 172.675C60.3945 171.825 60.5779 171.117 60.9445 170.55C61.3279 169.983 61.8695 169.55 62.5695 169.25C63.2695 168.95 64.1112 168.775 65.0945 168.725C66.0945 168.675 67.2112 168.742 68.4445 168.925C68.5279 168.158 68.5362 167.525 68.4695 167.025C68.4195 166.508 68.2862 166.1 68.0695 165.8C67.8695 165.5 67.5779 165.292 67.1945 165.175C66.8279 165.042 66.3695 164.975 65.8195 164.975C65.0695 164.975 64.3529 165.083 63.6695 165.3C62.9862 165.5 62.3779 165.708 61.8445 165.925L61.2195 164.475ZM64.8945 174.55C65.3612 174.55 65.7945 174.475 66.1945 174.325C66.5945 174.175 66.9445 173.983 67.2445 173.75C67.5445 173.517 67.7945 173.267 67.9945 173C68.1945 172.717 68.3445 172.45 68.4445 172.2V170.45C67.5779 170.3 66.7779 170.225 66.0445 170.225C65.3112 170.225 64.6779 170.308 64.1445 170.475C63.6112 170.625 63.1945 170.867 62.8945 171.2C62.5945 171.533 62.4445 171.967 62.4445 172.5C62.4445 173.05 62.6279 173.533 62.9945 173.95C63.3779 174.35 64.0112 174.55 64.8945 174.55ZM72.5598 158.5H76.5598V164.925H76.6848C77.1181 164.375 77.6764 163.95 78.3598 163.65C79.0431 163.35 79.7848 163.2 80.5848 163.2C84.2514 163.2 86.0848 165.317 86.0848 169.55C86.0848 171.7 85.4931 173.35 84.3098 174.5C83.1264 175.633 81.4431 176.2 79.2598 176.2C78.2264 176.2 77.2931 176.1 76.4598 175.9C75.6264 175.7 75.0181 175.467 74.6348 175.2V160.175H72.5598V158.5ZM80.3348 164.875C79.3348 164.875 78.5264 165.158 77.9098 165.725C77.2931 166.292 76.8431 167.092 76.5598 168.125V173.875C76.9431 174.075 77.4014 174.233 77.9348 174.35C78.4681 174.467 79.0264 174.525 79.6098 174.525C80.2764 174.525 80.8764 174.433 81.4098 174.25C81.9598 174.05 82.4264 173.75 82.8098 173.35C83.1931 172.933 83.4848 172.408 83.6848 171.775C83.9014 171.142 84.0098 170.392 84.0098 169.525C84.0098 168.892 83.9431 168.292 83.8098 167.725C83.6764 167.158 83.4598 166.667 83.1598 166.25C82.8764 165.817 82.5014 165.483 82.0348 165.25C81.5681 165 81.0014 164.875 80.3348 164.875ZM87.925 169.75C87.925 167.733 88.45 166.142 89.5 164.975C90.55 163.792 92.05 163.2 94 163.2C95.05 163.2 95.95 163.375 96.7 163.725C97.4667 164.058 98.1 164.517 98.6 165.1C99.1 165.683 99.4667 166.375 99.7 167.175C99.95 167.975 100.075 168.833 100.075 169.75C100.075 170.75 99.9417 171.658 99.675 172.475C99.4083 173.275 99.0167 173.958 98.5 174.525C97.9833 175.092 97.3417 175.533 96.575 175.85C95.825 176.15 94.9667 176.3 94 176.3C92.9667 176.3 92.0667 176.133 91.3 175.8C90.5333 175.45 89.9 174.983 89.4 174.4C88.9 173.817 88.525 173.125 88.275 172.325C88.0417 171.525 87.925 170.667 87.925 169.75ZM90 169.75C90 170.333 90.0667 170.917 90.2 171.5C90.35 172.083 90.5833 172.608 90.9 173.075C91.2167 173.542 91.625 173.917 92.125 174.2C92.6417 174.483 93.2667 174.625 94 174.625C95.3333 174.625 96.3333 174.217 97 173.4C97.6833 172.567 98.025 171.35 98.025 169.75C98.025 169.15 97.95 168.567 97.8 168C97.6667 167.417 97.4333 166.892 97.1 166.425C96.7833 165.958 96.3667 165.583 95.85 165.3C95.35 165.017 94.7333 164.875 94 164.875C92.6667 164.875 91.6667 165.283 91 166.1C90.3333 166.917 90 168.133 90 169.75ZM111.44 172.625C111.44 172.092 111.232 171.683 110.815 171.4C110.399 171.1 109.882 170.867 109.265 170.7C108.649 170.517 107.974 170.35 107.24 170.2C106.524 170.05 105.857 169.85 105.24 169.6C104.624 169.35 104.107 169.017 103.69 168.6C103.274 168.167 103.065 167.567 103.065 166.8C103.065 166.167 103.199 165.625 103.465 165.175C103.749 164.725 104.115 164.358 104.565 164.075C105.015 163.775 105.54 163.558 106.14 163.425C106.74 163.275 107.365 163.2 108.015 163.2C109.182 163.2 110.182 163.35 111.015 163.65C111.865 163.933 112.54 164.233 113.04 164.55L112.24 166.125C111.69 165.825 111.09 165.542 110.44 165.275C109.807 164.992 109.007 164.85 108.04 164.85C107.674 164.85 107.307 164.892 106.94 164.975C106.59 165.042 106.265 165.15 105.965 165.3C105.682 165.45 105.449 165.65 105.265 165.9C105.099 166.133 105.015 166.425 105.015 166.775C105.015 167.208 105.224 167.542 105.64 167.775C106.057 168.008 106.574 168.208 107.19 168.375C107.807 168.525 108.474 168.675 109.19 168.825C109.924 168.958 110.599 169.158 111.215 169.425C111.832 169.692 112.349 170.05 112.765 170.5C113.182 170.95 113.39 171.558 113.39 172.325C113.39 173.475 112.932 174.425 112.015 175.175C111.115 175.925 109.757 176.3 107.94 176.3C107.39 176.3 106.849 176.25 106.315 176.15C105.782 176.05 105.282 175.917 104.815 175.75C104.349 175.583 103.924 175.4 103.54 175.2C103.157 174.983 102.84 174.767 102.59 174.55L103.59 172.925C103.79 173.125 104.057 173.333 104.39 173.55C104.724 173.75 105.09 173.933 105.49 174.1C105.89 174.267 106.315 174.4 106.765 174.5C107.232 174.6 107.699 174.65 108.165 174.65C108.615 174.65 109.032 174.617 109.415 174.55C109.815 174.467 110.165 174.35 110.465 174.2C110.765 174.033 110.999 173.825 111.165 173.575C111.349 173.308 111.44 172.992 111.44 172.625ZM117.18 164.475C117.897 164.058 118.705 163.758 119.605 163.575C120.505 163.392 121.389 163.3 122.255 163.3C123.105 163.3 123.797 163.433 124.33 163.7C124.88 163.967 125.305 164.317 125.605 164.75C125.922 165.167 126.13 165.65 126.23 166.2C126.347 166.733 126.405 167.275 126.405 167.825C126.405 168.458 126.389 169.133 126.355 169.85C126.322 170.567 126.297 171.283 126.28 172C126.28 172.833 126.33 173.625 126.43 174.375H128.105V176H124.78L124.555 174.125H124.43C124.33 174.275 124.18 174.467 123.98 174.7C123.78 174.933 123.514 175.167 123.18 175.4C122.864 175.617 122.472 175.808 122.005 175.975C121.539 176.142 120.989 176.225 120.355 176.225C119.122 176.225 118.147 175.908 117.43 175.275C116.714 174.642 116.355 173.775 116.355 172.675C116.355 171.825 116.539 171.117 116.905 170.55C117.289 169.983 117.83 169.55 118.53 169.25C119.23 168.95 120.072 168.775 121.055 168.725C122.055 168.675 123.172 168.742 124.405 168.925C124.489 168.158 124.497 167.525 124.43 167.025C124.38 166.508 124.247 166.1 124.03 165.8C123.83 165.5 123.539 165.292 123.155 165.175C122.789 165.042 122.33 164.975 121.78 164.975C121.03 164.975 120.314 165.083 119.63 165.3C118.947 165.5 118.339 165.708 117.805 165.925L117.18 164.475ZM120.855 174.55C121.322 174.55 121.755 174.475 122.155 174.325C122.555 174.175 122.905 173.983 123.205 173.75C123.505 173.517 123.755 173.267 123.955 173C124.155 172.717 124.305 172.45 124.405 172.2V170.45C123.539 170.3 122.739 170.225 122.005 170.225C121.272 170.225 120.639 170.308 120.105 170.475C119.572 170.625 119.155 170.867 118.855 171.2C118.555 171.533 118.405 171.967 118.405 172.5C118.405 173.05 118.589 173.533 118.955 173.95C119.339 174.35 119.972 174.55 120.855 174.55Z" fill="white"/>
<defs>
<linearGradient id="paint0_linear_622_49923" x1="66.0843" y1="63.0979" x2="52.366" y2="74.8775" gradientUnits="userSpaceOnUse">
<stop stop-color="#B4D902"/>
<stop offset="0.43" stop-color="#8DCF17"/>
<stop offset="0.78" stop-color="#75CA25"/>
<stop offset="1" stop-color="#6DC82A"/>
</linearGradient>
<linearGradient id="paint1_linear_622_49923" x1="53.7226" y1="77.4757" x2="64.6218" y2="71.4622" gradientUnits="userSpaceOnUse">
<stop stop-color="#B4D902"/>
<stop offset="0.3" stop-color="#8CB507"/>
<stop offset="0.59" stop-color="#6C990B"/>
<stop offset="0.83" stop-color="#59880E"/>
<stop offset="1" stop-color="#52820F"/>
</linearGradient>
<linearGradient id="paint2_linear_622_49923" x1="74.7149" y1="118.789" x2="71.8569" y2="118.585" gradientUnits="userSpaceOnUse">
<stop stop-color="#B4D902"/>
<stop offset="0.43" stop-color="#8DCF17"/>
<stop offset="0.78" stop-color="#75CA25"/>
<stop offset="1" stop-color="#6DC82A"/>
</linearGradient>
<linearGradient id="paint3_linear_622_49923" x1="72.9073" y1="112.507" x2="70.1011" y2="112.307" gradientUnits="userSpaceOnUse">
<stop stop-color="#B4D902"/>
<stop offset="0.43" stop-color="#8DCF17"/>
<stop offset="0.78" stop-color="#75CA25"/>
<stop offset="1" stop-color="#6DC82A"/>
</linearGradient>
<linearGradient id="paint4_linear_622_49923" x1="71.0004" y1="106.28" x2="68.1942" y2="106.079" gradientUnits="userSpaceOnUse">
<stop stop-color="#B4D902"/>
<stop offset="0.43" stop-color="#8DCF17"/>
<stop offset="0.78" stop-color="#75CA25"/>
<stop offset="1" stop-color="#6DC82A"/>
</linearGradient>
<linearGradient id="paint5_linear_622_49923" x1="68.9528" y1="100.077" x2="66.1984" y2="99.8803" gradientUnits="userSpaceOnUse">
<stop stop-color="#B4D902"/>
<stop offset="0.43" stop-color="#8DCF17"/>
<stop offset="0.78" stop-color="#75CA25"/>
<stop offset="1" stop-color="#6DC82A"/>
</linearGradient>
<linearGradient id="paint6_linear_622_49923" x1="66.8066" y1="93.9197" x2="64.0953" y2="93.726" gradientUnits="userSpaceOnUse">
<stop stop-color="#B4D902"/>
<stop offset="0.43" stop-color="#8DCF17"/>
<stop offset="0.78" stop-color="#75CA25"/>
<stop offset="1" stop-color="#6DC82A"/>
</linearGradient>
<linearGradient id="paint7_linear_622_49923" x1="64.5191" y1="87.7956" x2="61.8597" y2="87.6056" gradientUnits="userSpaceOnUse">
<stop stop-color="#B4D902"/>
<stop offset="0.43" stop-color="#8DCF17"/>
<stop offset="0.78" stop-color="#75CA25"/>
<stop offset="1" stop-color="#6DC82A"/>
</linearGradient>
<linearGradient id="paint8_linear_622_49923" x1="62.0792" y1="81.7393" x2="59.4716" y2="81.553" gradientUnits="userSpaceOnUse">
<stop stop-color="#B4D902"/>
<stop offset="0.43" stop-color="#8DCF17"/>
<stop offset="0.78" stop-color="#75CA25"/>
<stop offset="1" stop-color="#6DC82A"/>
</linearGradient>
<linearGradient id="paint9_linear_622_49923" x1="59.5043" y1="75.7519" x2="56.8794" y2="75.5643" gradientUnits="userSpaceOnUse">
<stop stop-color="#B4D902"/>
<stop offset="0.43" stop-color="#8DCF17"/>
<stop offset="0.78" stop-color="#75CA25"/>
<stop offset="1" stop-color="#6DC82A"/>
</linearGradient>
<linearGradient id="paint10_linear_622_49923" x1="56.6813" y1="69.834" x2="54.1514" y2="69.6532" gradientUnits="userSpaceOnUse">
<stop stop-color="#B4D902"/>
<stop offset="0.43" stop-color="#8DCF17"/>
<stop offset="0.78" stop-color="#75CA25"/>
<stop offset="1" stop-color="#6DC82A"/>
</linearGradient>
<linearGradient id="paint11_linear_622_49923" x1="53.7565" y1="64.0049" x2="51.2612" y2="63.8266" gradientUnits="userSpaceOnUse">
<stop stop-color="#B4D902"/>
<stop offset="0.43" stop-color="#8DCF17"/>
<stop offset="0.78" stop-color="#75CA25"/>
<stop offset="1" stop-color="#6DC82A"/>
</linearGradient>
<linearGradient id="paint12_linear_622_49923" x1="50.6967" y1="58.2449" x2="48.1927" y2="58.066" gradientUnits="userSpaceOnUse">
<stop stop-color="#B4D902"/>
<stop offset="0.43" stop-color="#8DCF17"/>
<stop offset="0.78" stop-color="#75CA25"/>
<stop offset="1" stop-color="#6DC82A"/>
</linearGradient>
<linearGradient id="paint13_linear_622_49923" x1="47.395" y1="52.5896" x2="44.9773" y2="52.4169" gradientUnits="userSpaceOnUse">
<stop stop-color="#B4D902"/>
<stop offset="0.43" stop-color="#8DCF17"/>
<stop offset="0.78" stop-color="#75CA25"/>
<stop offset="1" stop-color="#6DC82A"/>
</linearGradient>
<linearGradient id="paint14_linear_622_49923" x1="43.9631" y1="47.0562" x2="41.5627" y2="46.8847" gradientUnits="userSpaceOnUse">
<stop stop-color="#B4D902"/>
<stop offset="0.43" stop-color="#8DCF17"/>
<stop offset="0.78" stop-color="#75CA25"/>
<stop offset="1" stop-color="#6DC82A"/>
</linearGradient>
<linearGradient id="paint15_linear_622_49923" x1="40.3227" y1="41.6475" x2="37.931" y2="41.4766" gradientUnits="userSpaceOnUse">
<stop stop-color="#B4D902"/>
<stop offset="0.43" stop-color="#8DCF17"/>
<stop offset="0.78" stop-color="#75CA25"/>
<stop offset="1" stop-color="#6DC82A"/>
</linearGradient>
<linearGradient id="paint16_linear_622_49923" x1="36.4096" y1="36.4116" x2="34.0265" y2="36.2413" gradientUnits="userSpaceOnUse">
<stop stop-color="#B4D902"/>
<stop offset="0.43" stop-color="#8DCF17"/>
<stop offset="0.78" stop-color="#75CA25"/>
<stop offset="1" stop-color="#6DC82A"/>
</linearGradient>
<linearGradient id="paint17_linear_622_49923" x1="32.2102" y1="31.4174" x2="29.8098" y2="31.2459" gradientUnits="userSpaceOnUse">
<stop stop-color="#B4D902"/>
<stop offset="0.43" stop-color="#8DCF17"/>
<stop offset="0.78" stop-color="#75CA25"/>
<stop offset="1" stop-color="#6DC82A"/>
</linearGradient>
<linearGradient id="paint18_linear_622_49923" x1="27.8257" y1="26.4622" x2="25.2613" y2="26.2789" gradientUnits="userSpaceOnUse">
<stop stop-color="#B4D902"/>
<stop offset="0.43" stop-color="#8DCF17"/>
<stop offset="0.78" stop-color="#75CA25"/>
<stop offset="1" stop-color="#6DC82A"/>
</linearGradient>
<radialGradient id="paint19_radial_622_49923" cx="0" cy="0" r="1" gradientUnits="userSpaceOnUse" gradientTransform="translate(113.552 81.1244) rotate(-142.898) scale(33.1892 33.2629)">
<stop stop-color="#B4D902"/>
<stop offset="0.43" stop-color="#8DCF17"/>
<stop offset="0.78" stop-color="#75CA25"/>
<stop offset="1" stop-color="#6DC82A"/>
</radialGradient>
<linearGradient id="paint20_linear_622_49923" x1="120.53" y1="84.5227" x2="106.922" y2="83.5504" gradientUnits="userSpaceOnUse">
<stop stop-color="#B4D902"/>
<stop offset="1" stop-color="#52820F"/>
</linearGradient>
<linearGradient id="paint21_linear_622_49923" x1="105.435" y1="117.776" x2="103.089" y2="118.788" gradientUnits="userSpaceOnUse">
<stop stop-color="#B4D902"/>
<stop offset="0.43" stop-color="#8DCF17"/>
<stop offset="0.78" stop-color="#75CA25"/>
<stop offset="1" stop-color="#6DC82A"/>
</linearGradient>
<linearGradient id="paint22_linear_622_49923" x1="106.877" y1="112.962" x2="104.531" y2="113.974" gradientUnits="userSpaceOnUse">
<stop stop-color="#B4D902"/>
<stop offset="0.43" stop-color="#8DCF17"/>
<stop offset="0.78" stop-color="#75CA25"/>
<stop offset="1" stop-color="#6DC82A"/>
</linearGradient>
<linearGradient id="paint23_linear_622_49923" x1="108.209" y1="108.152" x2="105.909" y2="109.145" gradientUnits="userSpaceOnUse">
<stop stop-color="#B4D902"/>
<stop offset="0.43" stop-color="#8DCF17"/>
<stop offset="0.78" stop-color="#75CA25"/>
<stop offset="1" stop-color="#6DC82A"/>
</linearGradient>
<linearGradient id="paint24_linear_622_49923" x1="109.472" y1="103.303" x2="107.184" y2="104.294" gradientUnits="userSpaceOnUse">
<stop stop-color="#B4D902"/>
<stop offset="0.43" stop-color="#8DCF17"/>
<stop offset="0.78" stop-color="#75CA25"/>
<stop offset="1" stop-color="#6DC82A"/>
</linearGradient>
<linearGradient id="paint25_linear_622_49923" x1="110.676" y1="98.4319" x2="108.411" y2="99.4071" gradientUnits="userSpaceOnUse">
<stop stop-color="#B4D902"/>
<stop offset="0.43" stop-color="#8DCF17"/>
<stop offset="0.78" stop-color="#75CA25"/>
<stop offset="1" stop-color="#6DC82A"/>
</linearGradient>
<linearGradient id="paint26_linear_622_49923" x1="111.754" y1="93.5426" x2="109.489" y2="94.5178" gradientUnits="userSpaceOnUse">
<stop stop-color="#B4D902"/>
<stop offset="0.43" stop-color="#8DCF17"/>
<stop offset="0.78" stop-color="#75CA25"/>
<stop offset="1" stop-color="#6DC82A"/>
</linearGradient>
<linearGradient id="paint27_linear_622_49923" x1="112.699" y1="88.63" x2="110.485" y2="89.5789" gradientUnits="userSpaceOnUse">
<stop stop-color="#B4D902"/>
<stop offset="0.43" stop-color="#8DCF17"/>
<stop offset="0.78" stop-color="#75CA25"/>
<stop offset="1" stop-color="#6DC82A"/>
</linearGradient>
<linearGradient id="paint28_linear_622_49923" x1="113.532" y1="83.6782" x2="111.301" y2="84.6359" gradientUnits="userSpaceOnUse">
<stop stop-color="#B4D902"/>
<stop offset="0.43" stop-color="#8DCF17"/>
<stop offset="0.78" stop-color="#75CA25"/>
<stop offset="1" stop-color="#6DC82A"/>
</linearGradient>
<linearGradient id="paint29_linear_622_49923" x1="114.195" y1="78.7088" x2="111.994" y2="79.6559" gradientUnits="userSpaceOnUse">
<stop stop-color="#B4D902"/>
<stop offset="0.43" stop-color="#8DCF17"/>
<stop offset="0.78" stop-color="#75CA25"/>
<stop offset="1" stop-color="#6DC82A"/>
</linearGradient>
<linearGradient id="paint30_linear_622_49923" x1="114.706" y1="73.7563" x2="112.586" y2="74.6665" gradientUnits="userSpaceOnUse">
<stop stop-color="#B4D902"/>
<stop offset="0.43" stop-color="#8DCF17"/>
<stop offset="0.78" stop-color="#75CA25"/>
<stop offset="1" stop-color="#6DC82A"/>
</linearGradient>
<linearGradient id="paint31_linear_622_49923" x1="115.117" y1="68.7508" x2="113.009" y2="69.6592" gradientUnits="userSpaceOnUse">
<stop stop-color="#B4D902"/>
<stop offset="0.43" stop-color="#8DCF17"/>
<stop offset="0.78" stop-color="#75CA25"/>
<stop offset="1" stop-color="#6DC82A"/>
</linearGradient>
<linearGradient id="paint32_linear_622_49923" x1="115.356" y1="63.7589" x2="113.319" y2="64.6443" gradientUnits="userSpaceOnUse">
<stop stop-color="#B4D902"/>
<stop offset="0.43" stop-color="#8DCF17"/>
<stop offset="0.78" stop-color="#75CA25"/>
<stop offset="1" stop-color="#6DC82A"/>
</linearGradient>
<linearGradient id="paint33_linear_622_49923" x1="115.465" y1="58.7682" x2="113.421" y2="59.6485" gradientUnits="userSpaceOnUse">
<stop stop-color="#B4D902"/>
<stop offset="0.43" stop-color="#8DCF17"/>
<stop offset="0.78" stop-color="#75CA25"/>
<stop offset="1" stop-color="#6DC82A"/>
</linearGradient>
<linearGradient id="paint34_linear_622_49923" x1="115.368" y1="53.7651" x2="113.353" y2="54.6349" gradientUnits="userSpaceOnUse">
<stop stop-color="#B4D902"/>
<stop offset="0.43" stop-color="#8DCF17"/>
<stop offset="0.78" stop-color="#75CA25"/>
<stop offset="1" stop-color="#6DC82A"/>
</linearGradient>
<linearGradient id="paint35_linear_622_49923" x1="115.01" y1="48.7961" x2="113.101" y2="49.6253" gradientUnits="userSpaceOnUse">
<stop stop-color="#B4D902"/>
<stop offset="0.43" stop-color="#8DCF17"/>
<stop offset="0.78" stop-color="#75CA25"/>
<stop offset="1" stop-color="#6DC82A"/>
</linearGradient>
<linearGradient id="paint36_linear_622_49923" x1="114.408" y1="43.8517" x2="112.514" y2="44.6601" gradientUnits="userSpaceOnUse">
<stop stop-color="#B4D902"/>
<stop offset="0.43" stop-color="#8DCF17"/>
<stop offset="0.78" stop-color="#75CA25"/>
<stop offset="1" stop-color="#6DC82A"/>
</linearGradient>
<linearGradient id="paint37_linear_622_49923" x1="113.548" y1="38.9219" x2="111.789" y2="39.6792" gradientUnits="userSpaceOnUse">
<stop stop-color="#B4D902"/>
<stop offset="0.43" stop-color="#8DCF17"/>
<stop offset="0.78" stop-color="#75CA25"/>
<stop offset="1" stop-color="#6DC82A"/>
</linearGradient>
<linearGradient id="paint38_linear_622_49923" x1="76.9021" y1="1.61134" x2="96.455" y2="127.09" gradientUnits="userSpaceOnUse">
<stop stop-color="#CDDD71"/>
<stop offset="0.12" stop-color="#B8CD60"/>
<stop offset="0.4" stop-color="#8CAD3D"/>
<stop offset="0.65" stop-color="#6C9524"/>
<stop offset="0.86" stop-color="#598714"/>
<stop offset="1" stop-color="#52820F"/>
</linearGradient>
<linearGradient id="paint39_linear_622_49923" x1="79.3411" y1="72.5044" x2="100.558" y2="74.0169" gradientUnits="userSpaceOnUse">
<stop offset="0.36" stop-color="#B4D902"/>
<stop offset="0.52" stop-color="#A0C704"/>
<stop offset="0.84" stop-color="#6C990B"/>
<stop offset="1" stop-color="#52820F"/>
</linearGradient>
<radialGradient id="paint40_radial_622_49923" cx="0" cy="0" r="1" gradientUnits="userSpaceOnUse" gradientTransform="translate(107.664 121.888) rotate(-175.151) scale(1.50626 1.51826)">
<stop stop-color="#B4D902"/>
<stop offset="0.43" stop-color="#8DCF17"/>
<stop offset="0.78" stop-color="#75CA25"/>
<stop offset="1" stop-color="#6DC82A"/>
</radialGradient>
<radialGradient id="paint41_radial_622_49923" cx="0" cy="0" r="1" gradientUnits="userSpaceOnUse" gradientTransform="translate(107.114 114.74) rotate(-175.151) scale(1.48895 1.50081)">
<stop stop-color="#B4D902"/>
<stop offset="0.43" stop-color="#8DCF17"/>
<stop offset="0.78" stop-color="#75CA25"/>
<stop offset="1" stop-color="#6DC82A"/>
</radialGradient>
<radialGradient id="paint42_radial_622_49923" cx="0" cy="0" r="1" gradientUnits="userSpaceOnUse" gradientTransform="translate(106.461 107.582) rotate(-175.151) scale(1.48895 1.50081)">
<stop stop-color="#B4D902"/>
<stop offset="0.43" stop-color="#8DCF17"/>
<stop offset="0.78" stop-color="#75CA25"/>
<stop offset="1" stop-color="#6DC82A"/>
</radialGradient>
<radialGradient id="paint43_radial_622_49923" cx="0" cy="0" r="1" gradientUnits="userSpaceOnUse" gradientTransform="translate(105.64 100.455) rotate(-175.151) scale(1.47163 1.48336)">
<stop stop-color="#B4D902"/>
<stop offset="0.43" stop-color="#8DCF17"/>
<stop offset="0.78" stop-color="#75CA25"/>
<stop offset="1" stop-color="#6DC82A"/>
</radialGradient>
<radialGradient id="paint44_radial_622_49923" cx="0" cy="0" r="1" gradientUnits="userSpaceOnUse" gradientTransform="translate(104.711 93.3702) rotate(-175.151) scale(1.47164 1.48336)">
<stop stop-color="#B4D902"/>
<stop offset="0.43" stop-color="#8DCF17"/>
<stop offset="0.78" stop-color="#75CA25"/>
<stop offset="1" stop-color="#6DC82A"/>
</radialGradient>
<radialGradient id="paint45_radial_622_49923" cx="0" cy="0" r="1" gradientUnits="userSpaceOnUse" gradientTransform="translate(103.626 86.2815) rotate(-175.151) scale(1.45432 1.46591)">
<stop stop-color="#B4D902"/>
<stop offset="0.43" stop-color="#8DCF17"/>
<stop offset="0.78" stop-color="#75CA25"/>
<stop offset="1" stop-color="#6DC82A"/>
</radialGradient>
<radialGradient id="paint46_radial_622_49923" cx="0" cy="0" r="1" gradientUnits="userSpaceOnUse" gradientTransform="translate(102.356 79.2293) rotate(-175.151) scale(1.45432 1.46591)">
<stop stop-color="#B4D902"/>
<stop offset="0.43" stop-color="#8DCF17"/>
<stop offset="0.78" stop-color="#75CA25"/>
<stop offset="1" stop-color="#6DC82A"/>
</radialGradient>
<radialGradient id="paint47_radial_622_49923" cx="0" cy="0" r="1" gradientUnits="userSpaceOnUse" gradientTransform="translate(100.909 72.2062) rotate(-175.151) scale(1.43701 1.44845)">
<stop stop-color="#B4D902"/>
<stop offset="0.43" stop-color="#8DCF17"/>
<stop offset="0.78" stop-color="#75CA25"/>
<stop offset="1" stop-color="#6DC82A"/>
</radialGradient>
<radialGradient id="paint48_radial_622_49923" cx="0" cy="0" r="1" gradientUnits="userSpaceOnUse" gradientTransform="translate(99.242 65.2256) rotate(-175.151) scale(1.42835 1.43973)">
<stop stop-color="#B4D902"/>
<stop offset="0.43" stop-color="#8DCF17"/>
<stop offset="0.78" stop-color="#75CA25"/>
<stop offset="1" stop-color="#6DC82A"/>
</radialGradient>
<radialGradient id="paint49_radial_622_49923" cx="0" cy="0" r="1" gradientUnits="userSpaceOnUse" gradientTransform="translate(97.3339 58.3208) rotate(-175.151) scale(1.42835 1.43973)">
<stop stop-color="#B4D902"/>
<stop offset="0.43" stop-color="#8DCF17"/>
<stop offset="0.78" stop-color="#75CA25"/>
<stop offset="1" stop-color="#6DC82A"/>
</radialGradient>
<radialGradient id="paint50_radial_622_49923" cx="0" cy="0" r="1" gradientUnits="userSpaceOnUse" gradientTransform="translate(95.1943 51.484) rotate(-175.151) scale(1.38507 1.3961)">
<stop stop-color="#B4D902"/>
<stop offset="0.43" stop-color="#8DCF17"/>
<stop offset="0.78" stop-color="#75CA25"/>
<stop offset="1" stop-color="#6DC82A"/>
</radialGradient>
<radialGradient id="paint51_radial_622_49923" cx="0" cy="0" r="1" gradientUnits="userSpaceOnUse" gradientTransform="translate(92.724 44.7593) rotate(-175.151) scale(1.36776 1.37865)">
<stop stop-color="#B4D902"/>
<stop offset="0.43" stop-color="#8DCF17"/>
<stop offset="0.78" stop-color="#75CA25"/>
<stop offset="1" stop-color="#6DC82A"/>
</radialGradient>
<radialGradient id="paint52_radial_622_49923" cx="0" cy="0" r="1" gradientUnits="userSpaceOnUse" gradientTransform="translate(89.9488 38.1489) rotate(-175.151) scale(1.3591 1.36992)">
<stop stop-color="#B4D902"/>
<stop offset="0.43" stop-color="#8DCF17"/>
<stop offset="0.78" stop-color="#75CA25"/>
<stop offset="1" stop-color="#6DC82A"/>
</radialGradient>
<radialGradient id="paint53_radial_622_49923" cx="0" cy="0" r="1" gradientUnits="userSpaceOnUse" gradientTransform="translate(86.7485 31.7389) rotate(-175.151) scale(1.33313 1.34375)">
<stop stop-color="#B4D902"/>
<stop offset="0.43" stop-color="#8DCF17"/>
<stop offset="0.78" stop-color="#75CA25"/>
<stop offset="1" stop-color="#6DC82A"/>
</radialGradient>
<radialGradient id="paint54_radial_622_49923" cx="0" cy="0" r="1" gradientUnits="userSpaceOnUse" gradientTransform="translate(83.1182 25.5899) rotate(-175.151) scale(1.2985 1.30884)">
<stop stop-color="#B4D902"/>
<stop offset="0.43" stop-color="#8DCF17"/>
<stop offset="0.78" stop-color="#75CA25"/>
<stop offset="1" stop-color="#6DC82A"/>
</radialGradient>
<radialGradient id="paint55_radial_622_49923" cx="0" cy="0" r="1" gradientUnits="userSpaceOnUse" gradientTransform="translate(78.9485 19.7631) rotate(-175.151) scale(1.27253 1.28267)">
<stop stop-color="#B4D902"/>
<stop offset="0.43" stop-color="#8DCF17"/>
<stop offset="0.78" stop-color="#75CA25"/>
<stop offset="1" stop-color="#6DC82A"/>
</radialGradient>
<radialGradient id="paint56_radial_622_49923" cx="0" cy="0" r="1" gradientUnits="userSpaceOnUse" gradientTransform="translate(74.2393 14.3634) rotate(-175.151) scale(1.27253 1.28267)">
<stop stop-color="#B4D902"/>
<stop offset="0.43" stop-color="#8DCF17"/>
<stop offset="0.78" stop-color="#75CA25"/>
<stop offset="1" stop-color="#6DC82A"/>
</radialGradient>
<radialGradient id="paint57_radial_622_49923" cx="0" cy="0" r="1" gradientUnits="userSpaceOnUse" gradientTransform="translate(73.678 16.8201) rotate(-175.151) scale(1.40238 1.41355)">
<stop stop-color="#B4D902"/>
<stop offset="0.43" stop-color="#8DCF17"/>
<stop offset="0.78" stop-color="#75CA25"/>
<stop offset="1" stop-color="#6DC82A"/>
</radialGradient>
<radialGradient id="paint58_radial_622_49923" cx="0" cy="0" r="1" gradientUnits="userSpaceOnUse" gradientTransform="translate(75.6249 24.6126) rotate(-175.151) scale(1.48895 1.50081)">
<stop stop-color="#B4D902"/>
<stop offset="0.43" stop-color="#8DCF17"/>
<stop offset="0.78" stop-color="#75CA25"/>
<stop offset="1" stop-color="#6DC82A"/>
</radialGradient>
<radialGradient id="paint59_radial_622_49923" cx="0" cy="0" r="1" gradientUnits="userSpaceOnUse" gradientTransform="translate(77.3482 32.4824) rotate(-175.151) scale(1.54955 1.56189)">
<stop stop-color="#B4D902"/>
<stop offset="0.43" stop-color="#8DCF17"/>
<stop offset="0.78" stop-color="#75CA25"/>
<stop offset="1" stop-color="#6DC82A"/>
</radialGradient>
<radialGradient id="paint60_radial_622_49923" cx="0" cy="0" r="1" gradientUnits="userSpaceOnUse" gradientTransform="translate(78.865 40.431) rotate(-175.151) scale(1.6188 1.63169)">
<stop stop-color="#B4D902"/>
<stop offset="0.43" stop-color="#8DCF17"/>
<stop offset="0.78" stop-color="#75CA25"/>
<stop offset="1" stop-color="#6DC82A"/>
</radialGradient>
<radialGradient id="paint61_radial_622_49923" cx="0" cy="0" r="1" gradientUnits="userSpaceOnUse" gradientTransform="translate(80.1892 48.3985) rotate(-175.151) scale(1.6188 1.63169)">
<stop stop-color="#B4D902"/>
<stop offset="0.43" stop-color="#8DCF17"/>
<stop offset="0.78" stop-color="#75CA25"/>
<stop offset="1" stop-color="#6DC82A"/>
</radialGradient>
<radialGradient id="paint62_radial_622_49923" cx="0" cy="0" r="1" gradientUnits="userSpaceOnUse" gradientTransform="translate(81.3265 56.42) rotate(-175.151) scale(1.63611 1.64914)">
<stop stop-color="#B4D902"/>
<stop offset="0.43" stop-color="#8DCF17"/>
<stop offset="0.78" stop-color="#75CA25"/>
<stop offset="1" stop-color="#6DC82A"/>
</radialGradient>
<radialGradient id="paint63_radial_622_49923" cx="0" cy="0" r="1" gradientUnits="userSpaceOnUse" gradientTransform="translate(82.2711 64.4602) rotate(-175.151) scale(1.64477 1.65787)">
<stop stop-color="#B4D902"/>
<stop offset="0.43" stop-color="#8DCF17"/>
<stop offset="0.78" stop-color="#75CA25"/>
<stop offset="1" stop-color="#6DC82A"/>
</radialGradient>
<radialGradient id="paint64_radial_622_49923" cx="0" cy="0" r="1" gradientUnits="userSpaceOnUse" gradientTransform="translate(82.9878 72.5249) rotate(-175.151) scale(1.66208 1.67532)">
<stop stop-color="#B4D902"/>
<stop offset="0.43" stop-color="#8DCF17"/>
<stop offset="0.78" stop-color="#75CA25"/>
<stop offset="1" stop-color="#6DC82A"/>
</radialGradient>
<radialGradient id="paint65_radial_622_49923" cx="0" cy="0" r="1" gradientUnits="userSpaceOnUse" gradientTransform="translate(83.5032 80.6075) rotate(-175.151) scale(1.67074 1.68405)">
<stop stop-color="#B4D902"/>
<stop offset="0.43" stop-color="#8DCF17"/>
<stop offset="0.78" stop-color="#75CA25"/>
<stop offset="1" stop-color="#6DC82A"/>
</radialGradient>
<radialGradient id="paint66_radial_622_49923" cx="0" cy="0" r="1" gradientUnits="userSpaceOnUse" gradientTransform="translate(83.8252 88.7175) rotate(-175.151) scale(1.6794 1.69277)">
<stop stop-color="#B4D902"/>
<stop offset="0.43" stop-color="#8DCF17"/>
<stop offset="0.78" stop-color="#75CA25"/>
<stop offset="1" stop-color="#6DC82A"/>
</radialGradient>
<radialGradient id="paint67_radial_622_49923" cx="0" cy="0" r="1" gradientUnits="userSpaceOnUse" gradientTransform="translate(83.9395 96.8185) rotate(-175.151) scale(1.6794 1.69277)">
<stop stop-color="#B4D902"/>
<stop offset="0.43" stop-color="#8DCF17"/>
<stop offset="0.78" stop-color="#75CA25"/>
<stop offset="1" stop-color="#6DC82A"/>
</radialGradient>
<radialGradient id="paint68_radial_622_49923" cx="0" cy="0" r="1" gradientUnits="userSpaceOnUse" gradientTransform="translate(83.8259 104.944) rotate(-175.151) scale(1.6794 1.69277)">
<stop stop-color="#B4D902"/>
<stop offset="0.43" stop-color="#8DCF17"/>
<stop offset="0.78" stop-color="#75CA25"/>
<stop offset="1" stop-color="#6DC82A"/>
</radialGradient>
<radialGradient id="paint69_radial_622_49923" cx="0" cy="0" r="1" gradientUnits="userSpaceOnUse" gradientTransform="translate(83.4815 113.024) rotate(-175.151) scale(1.6794 1.69277)">
<stop stop-color="#B4D902"/>
<stop offset="0.43" stop-color="#8DCF17"/>
<stop offset="0.78" stop-color="#75CA25"/>
<stop offset="1" stop-color="#6DC82A"/>
</radialGradient>
<radialGradient id="paint70_radial_622_49923" cx="0" cy="0" r="1" gradientUnits="userSpaceOnUse" gradientTransform="translate(82.8913 121.135) rotate(-175.151) scale(1.67074 1.68405)">
<stop stop-color="#B4D902"/>
<stop offset="0.43" stop-color="#8DCF17"/>
<stop offset="0.78" stop-color="#75CA25"/>
<stop offset="1" stop-color="#6DC82A"/>
</radialGradient>
<clipPath id="clip0_622_49923">
<rect width="103" height="122" fill="white" transform="translate(19 12)"/>
</clipPath>
</defs>
</svg>
