<svg width="174" height="200" viewBox="0 0 174 200" fill="none" xmlns="http://www.w3.org/2000/svg">
<rect width="174" height="200" fill="white" fill-opacity="0.05"/>
<g filter="url(#filter0_d_622_49922)">
<path d="M72 82.8203C72 82.8203 92.53 81.7803 96.6 98.1503C100.67 114.52 98.59 117.26 98.59 117.26C98.59 117.26 99.06 108.6 96.11 106.77C93.16 104.94 89.79 104.85 88.16 99.5203C86.53 94.1903 86.22 91.8603 82.12 90.7903C78.91 89.9503 76.47 82.3703 72.01 82.8203H72Z" fill="#7A9C69"/>
<path d="M72 82.8203C72 82.8203 92.53 81.7803 96.6 98.1503C100.67 114.52 98.59 117.26 98.59 117.26C98.59 117.26 99.06 108.6 96.11 106.77C93.16 104.94 89.79 104.85 88.16 99.5203C86.53 94.1903 86.22 91.8603 82.12 90.7903C78.91 89.9503 76.47 82.3703 72.01 82.8203H72Z" fill="url(#paint0_linear_622_49922)" fill-opacity="0.8" style="mix-blend-mode:multiply"/>
<path d="M93.05 57.6401C93.05 57.6401 103.22 85.4602 97.84 115.37C92.46 145.28 99.41 120.45 99.41 120.45C99.41 120.45 106.45 84.9701 95.81 56.4201C94.6 53.1601 95.13 59.5501 93.05 57.6401Z" fill="#7A9C69"/>
<path d="M93.05 57.6401C93.05 57.6401 103.22 85.4602 97.84 115.37C92.46 145.28 99.41 120.45 99.41 120.45C99.41 120.45 106.45 84.9701 95.81 56.4201C94.6 53.1601 95.13 59.5501 93.05 57.6401Z" fill="url(#paint1_linear_622_49922)" fill-opacity="0.8" style="mix-blend-mode:multiply"/>
<path d="M118.71 62.0002C118.71 62.0002 108.02 67.7502 104.24 76.7202C97.14 93.5702 99.8 102.03 99.8 102.03C99.8 102.03 100.28 92.7002 102.83 90.6802C105.38 88.6602 109.68 86.6302 111.52 80.8502C113.36 75.0702 114.77 69.4102 118.7 62.0002H118.71Z" fill="#7A9C69"/>
<path d="M118.71 62.0002C118.71 62.0002 108.02 67.7502 104.24 76.7202C97.14 93.5702 99.8 102.03 99.8 102.03C99.8 102.03 100.28 92.7002 102.83 90.6802C105.38 88.6602 109.68 86.6302 111.52 80.8502C113.36 75.0702 114.77 69.4102 118.7 62.0002H118.71Z" fill="url(#paint2_linear_622_49922)" fill-opacity="0.8" style="mix-blend-mode:multiply"/>
</g>
<g filter="url(#filter1_d_622_49922)">
<path d="M81.58 42.12C81.58 42.12 91.74 32.42 84.69 21.39C80.62 15.02 76.54 12.74 75.9 13.02C74.8 13.51 69.2 28.95 75.46 36.54C76.79 38.15 81.58 42.12 81.58 42.12Z" fill="#EDECEB"/>
<path d="M81.58 42.12C81.58 42.12 91.74 32.42 84.69 21.39C80.62 15.02 76.54 12.74 75.9 13.02C74.8 13.51 69.2 28.95 75.46 36.54C76.79 38.15 81.58 42.12 81.58 42.12Z" fill="url(#paint3_linear_622_49922)" fill-opacity="0.4"/>
<path d="M57.66 63.49C61.51 61.35 70.79 61.09 74.23 60.17C78.52 59.02 86.14 48.22 86.14 48.22C86.14 48.22 75.92 41.79 62.52 50.76C56.4 54.86 53.52 65.79 57.66 63.49Z" fill="#EDECEB"/>
<path d="M57.66 63.49C61.51 61.35 70.79 61.09 74.23 60.17C78.52 59.02 86.14 48.22 86.14 48.22C86.14 48.22 75.92 41.79 62.52 50.76C56.4 54.86 53.52 65.79 57.66 63.49Z" fill="url(#paint4_linear_622_49922)" fill-opacity="0.4"/>
<path d="M115.53 53.32C110.67 52.63 101.06 57.04 97.16 57.47C92.31 58.01 79.79 48.8 79.79 48.8C79.79 48.8 91.06 37.54 105.01 41.21C113.02 43.31 120.76 54.06 115.52 53.32H115.53Z" fill="#EDECEB"/>
<path d="M115.53 53.32C110.67 52.63 101.06 57.04 97.16 57.47C92.31 58.01 79.79 48.8 79.79 48.8C79.79 48.8 91.06 37.54 105.01 41.21C113.02 43.31 120.76 54.06 115.52 53.32H115.53Z" fill="url(#paint5_linear_622_49922)" fill-opacity="0.4"/>
<path d="M106.77 25.44C104.17 29.99 103.93 36.67 101.93 40.19C97.75 47.54 84.43 48.1 84.43 48.1C84.43 48.1 77.42 32.75 89.76 23.19C96.84 17.7 111.48 17.2 106.77 25.45V25.44Z" fill="white"/>
<path d="M106.77 25.44C104.17 29.99 103.93 36.67 101.93 40.19C97.75 47.54 84.43 48.1 84.43 48.1C84.43 48.1 77.42 32.75 89.76 23.19C96.84 17.7 111.48 17.2 106.77 25.45V25.44Z" fill="url(#paint6_linear_622_49922)" fill-opacity="0.3"/>
<path d="M86.09 48.2701C85.32 48.4201 84.54 48.3401 83.81 48.0701C77.76 45.8201 66.13 53.1401 77.16 67.1801C82.31 73.7301 85.67 76.3701 87.66 76.3701C92.84 76.3701 100.23 56.6801 91.78 48.4001C89.48 46.1401 87.68 47.9701 86.09 48.2801V48.2701Z" fill="white"/>
<path d="M86.09 48.2701C85.32 48.4201 84.54 48.3401 83.81 48.0701C77.76 45.8201 66.13 53.1401 77.16 67.1801C82.31 73.7301 85.67 76.3701 87.66 76.3701C92.84 76.3701 100.23 56.6801 91.78 48.4001C89.48 46.1401 87.68 47.9701 86.09 48.2801V48.2701Z" fill="url(#paint7_linear_622_49922)" fill-opacity="0.3"/>
<path d="M84.43 48.09C84.43 48.09 84.08 31.17 68.9 30.44C60.13 30.02 55.18 32.49 55 33.34C54.7 34.8 64.75 52.76 75.84 47.76C81.88 45.04 84.42 48.09 84.42 48.09H84.43Z" fill="white"/>
<path d="M84.43 48.09C84.43 48.09 84.08 31.17 68.9 30.44C60.13 30.02 55.18 32.49 55 33.34C54.7 34.8 64.75 52.76 75.84 47.76C81.88 45.04 84.42 48.09 84.42 48.09H84.43Z" fill="url(#paint8_linear_622_49922)" fill-opacity="0.3"/>
<path d="M84.0621 46.105C78.5592 41.3403 75.5527 38.052 72.7744 34.9919C71.1101 33.1531 66.4796 29.7977 68.1708 31.6499C71.6336 35.475 75.5259 39.6492 82.3709 45.5682C85.525 48.2928 87.2296 48.8431 84.0755 46.105H84.0621Z" fill="#B9D68A"/>
<path d="M68.305 30.4825C66.4528 31.0193 66.6273 32.4957 68.4795 31.9454C70.3317 31.4085 70.1572 29.9322 68.305 30.4825Z" fill="#7A4A35"/>
<path d="M85.3238 46.5746C82.5723 41.622 81.2704 38.3605 80.0759 35.3272C79.3511 33.5019 76.8681 29.8646 77.5929 31.7034C79.0827 35.4883 80.7872 39.6356 84.2098 45.7962C85.7801 48.6416 86.9075 49.42 85.3238 46.5746Z" fill="#B9D68A"/>
<path d="M78.0492 31.3144C76.6936 30.7642 76.3178 31.8916 77.6734 32.4419C79.029 32.9922 79.4048 31.8647 78.0492 31.3144Z" fill="#7A4A35"/>
<path d="M81.3509 44.7363C78.3578 43.8237 76.4654 43.676 74.7071 43.5418C73.6468 43.4613 71.3786 42.3607 72.4523 42.4412C74.64 42.6023 77.0559 42.8305 80.7872 43.9713C82.5052 44.4947 83.0823 45.2598 81.3643 44.7229L81.3509 44.7363Z" fill="#B9D68A"/>
<path d="M72.922 42.6965C72.3315 41.6228 71.4457 42.4281 72.0362 43.5018C72.6268 44.5755 73.5126 43.7702 72.922 42.6965Z" fill="#7A4A35"/>
<path d="M85.0956 47.8502C83.2837 47.3 82.1025 47.2865 81.0154 47.2865C80.3577 47.2865 79.0156 46.5483 79.6732 46.5483C81.0288 46.5483 82.532 46.5886 84.7869 47.2865C85.8204 47.6087 86.1425 48.1724 85.0956 47.8502Z" fill="#B9D68A"/>
<path d="M79.6866 46.5748C79.2169 45.2326 78.2639 45.8232 78.7337 47.1653C79.2035 48.5075 80.1564 47.9169 79.6866 46.5748Z" fill="#7A4A35"/>
<path d="M85.3908 46.4143C85.4445 43.0186 85.8203 40.9517 86.1693 39.0324C86.3841 37.8781 86.1022 35.2206 85.8874 36.3883C85.4445 38.7774 85.0016 41.4349 84.9345 45.6493C84.9077 47.5955 85.3506 48.3605 85.3774 46.4009L85.3908 46.4143Z" fill="#B9D68A"/>
<path d="M85.6593 35.8648C84.4648 36.7641 84.8674 37.717 86.0754 36.8178C87.2833 35.9185 86.8672 34.9656 85.6593 35.8648Z" fill="#7A4A35"/>
</g>
<g opacity="0.4" filter="url(#filter2_f_622_49922)">
<rect x="84.2941" y="29" width="24.0339" height="19.4131" transform="rotate(57.0701 84.2941 29)" fill="#5F7E2D"/>
</g>
<path d="M53.7744 158.5H55.8494V174.15H62.9244V169.8H64.7744V176H53.7744V158.5ZM68.1396 176V174.325H72.4896V165.175H68.1396V163.5H74.4896V174.325H78.7396V176H68.1396ZM72.9146 158H75.6396L72.6646 161.725H71.2896L72.9146 158ZM81.1549 176V174.325H84.5299V165.175H81.1549V163.5H85.8299L86.2299 165.125H86.3549C86.9216 164.608 87.5549 164.167 88.2549 163.8C88.9549 163.433 89.7882 163.25 90.7549 163.25C91.3216 163.25 91.7715 163.358 92.1049 163.575C92.4549 163.792 92.7216 164.108 92.9049 164.525C93.1049 164.942 93.2382 165.45 93.3049 166.05C93.3716 166.633 93.4049 167.3 93.4049 168.05L91.6549 168.075C91.6549 167.008 91.5466 166.225 91.3299 165.725C91.1299 165.225 90.7549 164.975 90.2049 164.975C89.6882 164.975 89.2215 165.05 88.8049 165.2C88.3882 165.35 88.0215 165.533 87.7049 165.75C87.4049 165.967 87.1465 166.183 86.9299 166.4C86.7132 166.617 86.5549 166.8 86.4549 166.95V174.325H91.2549V176H81.1549ZM96.1201 176V174.325H100.47V165.175H96.1201V163.5H102.47V174.325H106.72V176H96.1201ZM99.7951 159.95C99.7951 159.5 99.9451 159.117 100.245 158.8C100.545 158.467 100.928 158.3 101.395 158.3C101.878 158.3 102.278 158.467 102.595 158.8C102.928 159.117 103.095 159.5 103.095 159.95C103.095 160.383 102.928 160.75 102.595 161.05C102.278 161.35 101.878 161.5 101.395 161.5C100.928 161.5 100.545 161.35 100.245 161.05C99.9451 160.75 99.7951 160.383 99.7951 159.95ZM108.91 169.75C108.91 167.733 109.435 166.142 110.485 164.975C111.535 163.792 113.035 163.2 114.985 163.2C116.035 163.2 116.935 163.375 117.685 163.725C118.452 164.058 119.085 164.517 119.585 165.1C120.085 165.683 120.452 166.375 120.685 167.175C120.935 167.975 121.06 168.833 121.06 169.75C121.06 170.75 120.927 171.658 120.66 172.475C120.394 173.275 120.002 173.958 119.485 174.525C118.969 175.092 118.327 175.533 117.56 175.85C116.81 176.15 115.952 176.3 114.985 176.3C113.952 176.3 113.052 176.133 112.285 175.8C111.519 175.45 110.885 174.983 110.385 174.4C109.885 173.817 109.51 173.125 109.26 172.325C109.027 171.525 108.91 170.667 108.91 169.75ZM110.985 169.75C110.985 170.333 111.052 170.917 111.185 171.5C111.335 172.083 111.569 172.608 111.885 173.075C112.202 173.542 112.61 173.917 113.11 174.2C113.627 174.483 114.252 174.625 114.985 174.625C116.319 174.625 117.319 174.217 117.985 173.4C118.669 172.567 119.01 171.35 119.01 169.75C119.01 169.15 118.935 168.567 118.785 168C118.652 167.417 118.419 166.892 118.085 166.425C117.769 165.958 117.352 165.583 116.835 165.3C116.335 165.017 115.719 164.875 114.985 164.875C113.652 164.875 112.652 165.283 111.985 166.1C111.319 166.917 110.985 168.133 110.985 169.75Z" fill="white"/>
<defs>
<filter id="filter0_d_622_49922" x="66" y="51.4768" width="62.71" height="90.6448" filterUnits="userSpaceOnUse" color-interpolation-filters="sRGB">
<feFlood flood-opacity="0" result="BackgroundImageFix"/>
<feColorMatrix in="SourceAlpha" type="matrix" values="0 0 0 0 0 0 0 0 0 0 0 0 0 0 0 0 0 0 127 0" result="hardAlpha"/>
<feOffset dx="2" dy="4"/>
<feGaussianBlur stdDeviation="4"/>
<feComposite in2="hardAlpha" operator="out"/>
<feColorMatrix type="matrix" values="0 0 0 0 0 0 0 0 0 0.137376 0 0 0 0 0.195833 0 0 0 0.4 0"/>
<feBlend mode="normal" in2="BackgroundImageFix" result="effect1_dropShadow_622_49922"/>
<feBlend mode="normal" in="SourceGraphic" in2="effect1_dropShadow_622_49922" result="shape"/>
</filter>
<filter id="filter1_d_622_49922" x="48.9935" y="8.99731" width="78.2371" height="79.3728" filterUnits="userSpaceOnUse" color-interpolation-filters="sRGB">
<feFlood flood-opacity="0" result="BackgroundImageFix"/>
<feColorMatrix in="SourceAlpha" type="matrix" values="0 0 0 0 0 0 0 0 0 0 0 0 0 0 0 0 0 0 127 0" result="hardAlpha"/>
<feOffset dx="2" dy="4"/>
<feGaussianBlur stdDeviation="4"/>
<feComposite in2="hardAlpha" operator="out"/>
<feColorMatrix type="matrix" values="0 0 0 0 0 0 0 0 0 0.137376 0 0 0 0 0.195833 0 0 0 0.4 0"/>
<feBlend mode="normal" in2="BackgroundImageFix" result="effect1_dropShadow_622_49922"/>
<feBlend mode="normal" in="SourceGraphic" in2="effect1_dropShadow_622_49922" result="shape"/>
</filter>
<filter id="filter2_f_622_49922" x="58" y="19" width="49.3593" height="50.7258" filterUnits="userSpaceOnUse" color-interpolation-filters="sRGB">
<feFlood flood-opacity="0" result="BackgroundImageFix"/>
<feBlend mode="normal" in="SourceGraphic" in2="BackgroundImageFix" result="shape"/>
<feGaussianBlur stdDeviation="5" result="effect1_foregroundBlur_622_49922"/>
</filter>
<linearGradient id="paint0_linear_622_49922" x1="84.04" y1="82.7205" x2="99.54" y2="109.22" gradientUnits="userSpaceOnUse">
<stop offset="0.078125" stop-color="#B4D902"/>
<stop offset="0.52" stop-color="#A0C704"/>
<stop offset="1" stop-color="#52990B"/>
</linearGradient>
<linearGradient id="paint1_linear_622_49922" x1="102" y1="144.5" x2="109.065" y2="143.399" gradientUnits="userSpaceOnUse">
<stop offset="0.078125" stop-color="#B4D902"/>
<stop offset="0.52" stop-color="#A0C704"/>
<stop offset="1" stop-color="#52990B"/>
</linearGradient>
<linearGradient id="paint2_linear_622_49922" x1="112.54" y1="66.7205" x2="96.3716" y2="70.4117" gradientUnits="userSpaceOnUse">
<stop offset="0.078125" stop-color="#B4D902"/>
<stop offset="0.52" stop-color="#A0C704"/>
<stop offset="1" stop-color="#52990B"/>
</linearGradient>
<linearGradient id="paint3_linear_622_49922" x1="80" y1="36.0002" x2="78" y2="16.0002" gradientUnits="userSpaceOnUse">
<stop stop-color="#8ABC38"/>
<stop offset="1" stop-color="white" stop-opacity="0"/>
</linearGradient>
<linearGradient id="paint4_linear_622_49922" x1="72.5" y1="51.5002" x2="59.1981" y2="65.1664" gradientUnits="userSpaceOnUse">
<stop stop-color="#8ABC38"/>
<stop offset="1" stop-color="white" stop-opacity="0"/>
</linearGradient>
<linearGradient id="paint5_linear_622_49922" x1="91.5" y1="47" x2="117" y2="51.5" gradientUnits="userSpaceOnUse">
<stop stop-color="#8ABC38"/>
<stop offset="1" stop-color="white" stop-opacity="0"/>
</linearGradient>
<linearGradient id="paint6_linear_622_49922" x1="86" y1="45.5002" x2="104.5" y2="21.0002" gradientUnits="userSpaceOnUse">
<stop stop-color="#9EFF00"/>
<stop offset="1" stop-color="white" stop-opacity="0"/>
</linearGradient>
<linearGradient id="paint7_linear_622_49922" x1="84.104" y1="47.2871" x2="84.104" y2="76.3701" gradientUnits="userSpaceOnUse">
<stop stop-color="#A4FF11"/>
<stop offset="0.947917" stop-color="white" stop-opacity="0"/>
</linearGradient>
<linearGradient id="paint8_linear_622_49922" x1="80" y1="44.0002" x2="55" y2="33.5002" gradientUnits="userSpaceOnUse">
<stop stop-color="#9EFF00"/>
<stop offset="1" stop-color="white" stop-opacity="0"/>
</linearGradient>
</defs>
</svg>
