<svg width="236" height="236" viewBox="0 0 236 236" fill="none" xmlns="http://www.w3.org/2000/svg">
<path d="M200.902 236L236 91.5313L118 1.04032e-05L-1.06972e-06 91.5314L35.0981 236L200.902 236Z" fill="#0E516A" fill-opacity="0.6"/>
<path d="M86.3928 127.251C85.3747 127.462 84.696 127.833 84.1142 127.93C83.7102 127.995 83.2093 127.817 82.8053 127.898C82.3528 127.979 82.3528 128.253 81.9003 128.35C81.5609 128.415 81.1084 128.237 80.769 128.318C80.3974 128.399 80.3489 128.657 79.9772 128.754C79.8156 128.787 79.3308 128.641 79.1692 128.69C72.9798 130.096 66.1439 131.97 60.1 132.342C60.1 130.71 62.3947 130.451 62.0554 128.657C61.8938 127.849 63.0088 127.478 63.5421 126.896C64.6572 126.395 63.3805 125.215 64.5764 124.617C65.9177 123.922 65.8854 122.549 66.7419 121.45C68.2286 120.642 67.4691 118.606 69.279 117.992C69.5538 117.83 70.1355 117.636 69.8285 117.216C68.7942 115.697 70.2971 115.325 70.7981 114.501C72.5434 113.725 70.4588 113.483 71.4607 112.546C73.0282 110.978 73.4969 109.12 74.612 107.39C74.8544 107.019 75.9371 106.663 76.1957 106.259C76.3088 106.065 75.9533 105.613 76.0826 105.419C76.3573 104.999 77.2946 104.724 77.5855 104.32C77.8117 104.013 77.1815 103.771 77.4077 103.48C77.5855 103.253 78.1996 103.027 78.3935 102.817C80.7367 100.118 83.6133 98.0659 86.7322 96.6761C87.0069 96.563 87.314 96.0943 87.5887 95.9812C88.0735 95.7873 88.5099 95.9651 88.9947 95.8035C89.4148 95.658 89.2855 95.3186 89.7057 95.2055C89.9481 95.1409 90.7561 95.3025 90.9985 95.2378C91.4187 95.1409 91.7096 94.7369 92.1298 94.6561C92.5338 94.5753 93.0832 94.8177 93.4872 94.7692C94.1013 94.6884 94.0367 94.2844 94.6669 94.2521C95.2326 94.2197 95.5234 94.4298 96.0891 94.4298C96.6223 94.4298 97.0425 94.1874 97.592 94.2359C98.303 94.3005 98.7232 94.6399 99.4342 94.7854C103.458 95.5772 107.854 97.2902 110.52 100.005C106.852 101.718 105.268 107.94 102.973 111.576C102.246 112.885 101.357 114.291 100.889 115.471C100.776 115.778 99.8867 115.568 99.6928 115.826C99.4989 116.085 99.6282 116.586 99.4181 116.828C99.1595 117.151 98.804 116.925 98.5293 117.232C98.1253 117.701 98.3838 118.008 97.9475 118.444C97.6728 118.719 97.3011 118.686 97.0264 118.977C96.8163 119.171 96.9617 119.931 96.7516 120.141C95.9113 120.933 94.9901 121.708 94.0205 122.436C93.665 122.71 93.261 122.597 92.9055 122.856C92.6954 123.001 92.5338 123.518 92.3237 123.664C92.0651 123.842 91.8389 123.745 91.5803 123.939C91.451 124.036 91.2571 124.391 91.1278 124.488C89.7057 125.409 87.7018 126.557 86.3767 127.268" fill="#5CA144"/>
<path d="M120.766 93.8319C120.766 93.8319 121.929 99.7627 112.217 100.635C102.505 101.508 111.377 99.8112 111.377 99.8112C111.377 99.8112 117.695 98.9547 119.473 94.9469C121.251 90.9392 120.75 93.8157 120.75 93.8157L120.766 93.8319Z" fill="#14761E"/>
<path d="M94.6023 103.205C87.3624 106.469 82.7567 115.826 78.8298 119.333C74.5796 123.13 66.6934 125.684 66.6934 125.684C66.6934 125.684 67.5983 125.425 71.7354 124.116C82.4335 120.69 83.3385 111.382 93.875 104.805C99.3696 101.379 108.177 100.91 108.177 100.91C108.177 100.91 111.878 100.409 108.936 100.393C105.155 100.377 98.0283 101.669 94.6184 103.221L94.6023 103.205Z" fill="#14761E"/>
<path d="M97.3657 105.08C95.8951 108.053 92.8408 110.623 92.8408 110.623C92.8408 110.623 93.8104 110.429 95.4103 108.797C99.5958 104.579 99.9028 99.9085 97.3495 105.08H97.3657Z" fill="#14761E"/>
<path d="M87.2008 112.837C86.8614 115.988 84.9384 119.269 84.9384 119.269C84.9384 119.269 85.7464 118.784 86.6514 116.812C89.0269 111.673 87.7987 107.391 87.1846 112.853L87.2008 112.837Z" fill="#14761E"/>
<path d="M80.2519 115.098C77.537 116.731 73.7716 117.183 73.7716 117.183C73.7716 117.183 74.6443 117.522 76.7774 117.054C82.3043 115.842 84.9707 112.254 80.2519 115.082V115.098Z" fill="#14761E"/>
<path d="M77.9086 122.112C76.1633 123.793 75.0482 126.508 75.0482 126.508C75.0482 126.508 74.9674 125.781 75.7431 124.31C77.7632 120.448 80.9468 119.187 77.9086 122.128V122.112Z" fill="#14761E"/>
<path d="M99.3211 100.15C96.3799 98.9222 92.5499 99.0192 92.5499 99.0192C92.5499 99.0192 93.3741 98.5505 95.5719 98.696C101.277 99.1 104.46 102.284 99.3373 100.15H99.3211Z" fill="#14761E"/>
<path d="M88.3967 105.29C85.3909 105.5 82.1588 107.197 82.1588 107.197C82.1588 107.197 82.6759 106.454 84.599 105.662C89.6249 103.593 93.6327 104.935 88.3967 105.306V105.29Z" fill="#14761E"/>
<path d="M84.8426 179.499L90.2148 180.393C103.245 182.562 115.566 173.757 117.734 160.728C119.903 147.698 111.098 135.377 98.0686 133.208L92.6965 132.314C79.6666 130.145 67.3456 138.95 65.1768 151.98C63.0081 165.01 71.8127 177.33 84.8426 179.499Z" fill="#B21F26"/>
<path d="M84.8426 179.499L90.2148 180.393C103.245 182.562 115.566 173.757 117.734 160.728C119.903 147.698 111.098 135.377 98.0686 133.208L92.6965 132.314C79.6666 130.145 67.3456 138.95 65.1768 151.98C63.0081 165.01 71.8127 177.33 84.8426 179.499Z" fill="url(#paint0_linear_144_6883)"/>
<g opacity="0.5" filter="url(#filter0_f_144_6883)">
<path d="M106.073 142.264C106.539 139.465 101.942 136.367 95.8058 135.346C89.6695 134.324 84.3172 135.766 83.8512 138.566C83.3852 141.365 87.982 144.463 94.1183 145.484C100.255 146.505 105.607 145.064 106.073 142.264Z" fill="#811219"/>
<path d="M106.073 142.264C106.539 139.465 101.942 136.367 95.8058 135.346C89.6695 134.324 84.3172 135.766 83.8512 138.566C83.3852 141.365 87.982 144.463 94.1183 145.484C100.255 146.505 105.607 145.064 106.073 142.264Z" fill="url(#paint1_radial_144_6883)" fill-opacity="0.4"/>
</g>
<path d="M83.8395 175.102L89.2047 175.991C102.23 178.157 114.56 169.349 116.726 156.324C117.114 153.948 117.146 151.605 116.855 149.343C118.019 152.898 118.39 156.777 117.728 160.72C115.562 173.745 103.232 182.552 90.2066 180.387L84.8414 179.498C74.1756 177.72 66.354 169.155 65.045 158.958C67.7438 167.135 74.7573 173.583 83.8395 175.086V175.102Z" fill="#811219"/>
<path opacity="0.25" d="M95.3134 133.183C104.832 134.767 110.278 138.387 111.651 144.043C112.104 145.917 112.055 149.279 109.098 149.182C108.403 149.166 107.143 147.743 106.092 146.903C105.333 146.305 103.264 146.434 103.49 144.883C104.945 144.269 105.898 143.38 106.092 142.281C106.561 139.502 101.971 136.415 95.8466 135.397C89.7219 134.379 84.389 135.817 83.9203 138.597C83.4517 141.376 88.0412 144.463 94.166 145.481C94.1983 145.481 94.2306 145.481 94.2629 145.481C96.0567 145.772 99.1757 146.386 97.6728 147.76C96.6062 148.729 95.4588 148.535 93.3095 148.503C91.1601 148.471 87.1524 148.794 84.6152 148.083C76.729 145.901 74.4827 143.041 75.1937 138.71C75.9048 134.379 85.8111 131.583 95.3295 133.167L95.3134 133.183Z" fill="white"/>
<path opacity="0.5" d="M88.0088 145.819C89.1078 145.965 92.2752 145.852 92.2429 146.272C92.2105 146.692 91.7096 146.951 91.4187 146.934C89.2047 146.87 86.312 147.064 84.2435 146.547C82.7891 146.175 79.9448 145.577 77.3107 142.894C75.5169 141.101 76.0179 137.771 78.3126 136.673C78.9914 136.349 79.7832 135.412 80.365 135.881C80.866 136.285 80.0095 137.141 79.7994 137.82C79.0399 140.357 79.4115 141.876 81.8679 143.363C83.2254 144.122 85.9403 145.593 88.025 145.835L88.0088 145.819Z" fill="white"/>
<path opacity="0.5" d="M69.9093 148.211C70.3294 148.34 70.4102 148.631 70.5234 148.89C71.2183 150.57 71.8485 152.283 73.3999 153.447C73.7069 153.673 73.917 154.077 73.5615 154.417C73.1575 154.804 72.6242 155.031 72.0909 154.772C70.9597 154.206 69.9093 153.56 69.5861 152.203C69.3437 151.201 69.0689 150.215 69.1821 149.164C69.2467 148.631 69.5376 148.389 69.9254 148.227L69.9093 148.211Z" fill="white"/>
<path opacity="0.2" d="M83.6456 174.245C87.217 174.698 90.4814 175.829 93.9397 175.684C99.2726 175.457 103.878 173.631 107.741 169.931C108.225 169.462 108.872 168.508 109.357 168.929C109.971 169.462 109.147 170.27 108.759 170.868C107.514 172.775 105.688 174.051 103.846 175.312C100.226 177.817 96.1375 178.334 91.9358 177.865C89.4633 177.591 86.9907 176.944 84.8253 175.522C84.3889 175.231 83.9203 174.973 83.6294 174.261L83.6456 174.245Z" fill="white"/>
<path d="M151.083 139.484L145.637 139.484C132.427 139.484 121.719 150.193 121.719 163.402C121.719 176.611 132.427 187.319 145.637 187.319H151.083C164.292 187.319 175 176.611 175 163.402C175 150.193 164.292 139.484 151.083 139.484Z" fill="#B21F26"/>
<path d="M151.083 139.484L145.637 139.484C132.427 139.484 121.719 150.193 121.719 163.402C121.719 176.611 132.427 187.319 145.637 187.319H151.083C164.292 187.319 175 176.611 175 163.402C175 150.193 164.292 139.484 151.083 139.484Z" fill="url(#paint2_linear_144_6883)"/>
<g opacity="0.5" filter="url(#filter1_f_144_6883)">
<path d="M147.657 152.638C153.958 152.638 159.066 150.251 159.066 147.306C159.066 144.36 153.958 141.973 147.657 141.973C141.356 141.973 136.247 144.36 136.247 147.306C136.247 150.251 141.356 152.638 147.657 152.638Z" fill="#811219"/>
<path d="M147.657 152.638C153.958 152.638 159.066 150.251 159.066 147.306C159.066 144.36 153.958 141.973 147.657 141.973C141.356 141.973 136.247 144.36 136.247 147.306C136.247 150.251 141.356 152.638 147.657 152.638Z" fill="url(#paint3_radial_144_6883)" fill-opacity="0.4"/>
</g>
<path d="M152.78 183.133H147.333C134.13 183.133 123.416 172.419 123.416 159.216C123.416 156.808 123.772 154.497 124.434 152.315C122.689 155.628 121.703 159.394 121.703 163.401C121.703 176.604 132.417 187.319 145.62 187.319H151.067C161.878 187.319 170.992 180.144 173.966 170.302C169.974 177.93 161.991 183.133 152.78 183.133Z" fill="#811219"/>
<path opacity="0.25" d="M148.352 139.889C138.704 139.889 132.741 142.571 130.462 147.92C129.703 149.698 129.202 153.027 132.127 153.415C132.805 153.512 134.292 152.316 135.472 151.67C136.328 151.201 138.332 151.67 138.381 150.102C137.039 149.262 136.248 148.227 136.248 147.112C136.248 144.284 141.273 142.006 147.479 142.006C153.685 142.006 158.71 144.3 158.71 147.112C158.71 149.924 153.685 152.219 147.479 152.219C147.447 152.219 147.414 152.219 147.382 152.219C145.572 152.219 142.388 152.316 143.649 153.9C144.554 155.031 145.717 155.031 147.834 155.354C149.951 155.677 150.889 156.534 153.491 156.259C161.619 155.403 165.821 152.235 165.821 147.84C165.821 143.444 157.999 139.889 148.335 139.889H148.352Z" fill="white"/>
<path opacity="0.5" d="M164.253 148.729C164.173 149.617 163.817 150.555 163.09 151.153C161.845 152.203 160.31 152.704 158.71 152.93C158.452 152.963 158.064 153.092 157.951 152.736C157.822 152.348 158.226 152.171 158.5 152.025C159.034 151.718 159.615 151.476 160.149 151.169C161.344 150.49 162.007 149.488 162.072 148.082C162.104 147.5 161.732 146.579 162.75 146.547C163.607 146.515 163.946 147.29 164.205 148.017C164.269 148.211 164.237 148.421 164.269 148.729H164.253Z" fill="white"/>
<path opacity="0.5" d="M134.728 144.203C134.631 145.043 134.13 145.705 133.807 146.449C133.355 147.435 133.161 148.404 133.937 149.293C134.341 149.762 133.969 149.923 133.743 150.166C133.274 150.473 132.725 150.521 132.191 150.457C131.593 150.376 131.173 149.972 131.286 149.358C131.674 147.338 132.741 145.673 134.26 144.283C134.357 144.186 134.583 143.992 134.745 144.219L134.728 144.203Z" fill="white"/>
<path opacity="0.5" d="M129.008 158.376C129.444 158.311 129.638 158.537 129.848 158.731C131.205 159.943 132.531 161.204 134.421 161.575C134.809 161.64 135.165 161.915 134.987 162.367C134.793 162.884 134.421 163.337 133.823 163.321C132.563 163.321 131.335 163.191 130.446 162.109C129.783 161.317 129.105 160.541 128.749 159.539C128.571 159.038 128.749 158.683 129.008 158.376Z" fill="white"/>
<path opacity="0.2" d="M154.735 183.618C153.297 183.569 151.858 183.537 150.549 182.842C150.275 182.697 149.79 182.616 149.838 182.244C149.903 181.759 150.404 181.905 150.759 181.889C154.589 181.679 158.371 181.21 161.959 179.675C164.253 178.689 166.322 177.38 168.051 175.57C168.827 174.762 169.699 174.067 170.459 173.259C171.526 172.128 172.075 170.641 172.931 169.364C173.158 169.025 173.352 168.653 173.594 168.33C173.675 168.217 173.869 168.088 173.998 168.104C174.257 168.12 174.24 168.379 174.257 168.589C174.321 169.785 173.982 170.916 173.481 171.918C170.12 178.673 164.787 182.648 157.175 183.375C156.771 183.408 156.367 183.553 155.963 183.602C155.559 183.634 155.139 183.602 154.719 183.602L154.735 183.618Z" fill="white"/>
<path d="M144.473 142.83C144.473 141.893 144.344 141.069 143.503 139.049C142.631 137.659 139.076 130.274 137.783 128.221C135.73 124.941 134.179 121.45 132.611 117.959C130.947 114.259 129.686 110.412 128.523 106.534C127.375 102.736 126.244 98.9386 125.792 94.9632C126.002 94.3168 126.341 93.6219 127.101 93.8966C128.151 94.2845 129.315 94.1229 130.3 94.7046C130.3 97.662 130.753 100.555 131.222 103.48C131.836 107.326 132.821 111.043 133.985 114.727C135.585 119.802 137.767 124.634 140.546 129.175C142.356 132.148 145.928 139.113 146.17 139.485C146.283 139.63 148.804 143.493 149.095 144.333C149.224 144.721 149.499 145.06 149.628 145.448C150.162 147.032 149.741 147.824 148.109 148.228C146.089 148.745 145.33 148.648 144.893 147.597C144.602 146.903 144.602 146.078 144.538 145.319C144.505 144.979 144.505 143.008 144.489 142.83H144.473Z" fill="#5CA144"/>
<path d="M98.6585 136.721C98.804 135.8 99.0787 135.008 100.242 133.15C101.341 131.922 106.044 125.215 107.66 123.405C110.229 120.513 112.314 117.313 114.447 114.129C116.71 110.752 118.568 107.164 120.362 103.528C121.671 99.9566 122.22 96.369 123.303 92.539C123.206 91.8603 124.628 91.1492 123.82 91.3108C122.721 91.5209 121.218 90.7937 120.152 91.1977C119.683 94.1227 119.118 97.274 118.18 100.086C116.936 103.77 115.368 107.277 113.607 110.719C111.183 115.471 108.242 119.866 104.767 123.906C102.505 126.54 97.8343 132.827 97.5273 133.15C97.3819 133.279 94.2629 136.657 93.8427 137.465C93.6488 137.82 93.3256 138.111 93.1317 138.467C92.3398 139.953 92.6469 140.794 94.1821 141.456C96.089 142.297 96.8647 142.329 97.4627 141.359C97.8505 140.729 97.9959 139.921 98.1899 139.178C98.2707 138.855 98.61 136.915 98.6424 136.721H98.6585Z" fill="#5CA144"/>
<path d="M130.3 94.7044C129.315 94.1227 128.151 94.2843 127.101 93.8964C126.341 93.6055 126.002 94.3004 125.792 94.963C125.452 94.8175 125.42 94.5267 125.355 94.1873C125.161 93.153 124.208 92.8621 123.448 93.5732C123.255 93.7671 123.109 93.9934 122.931 94.2035C122.818 93.2015 122.172 92.442 121.687 91.6178C121.267 90.9229 120.669 91.3431 120.168 91.1976C119.812 90.2603 120.362 89.4362 120.717 88.7574C121.461 87.3353 121.703 85.5254 123.545 84.8143C124.677 84.378 125.662 84.1356 126.81 84.782C128.119 85.5092 129.67 85.6062 131.012 86.2849C131.706 86.6404 132.159 87.1575 131.658 87.8201C130.026 89.921 130.333 92.345 130.317 94.7367L130.3 94.7044ZM129.509 87.7555C130.042 87.6585 130.575 87.5777 130.688 87.0929C130.801 86.6081 130.284 86.5435 129.961 86.398C128.491 85.7031 126.794 85.6708 125.339 84.8789C124.871 84.6204 124.273 84.8789 123.869 85.2829C123.529 85.6223 123.448 86.091 123.998 86.2526C125.84 86.802 127.715 87.2707 129.492 87.7555H129.509Z" fill="#811219"/>
<defs>
<filter id="filter0_f_144_6883" x="79.8187" y="131.018" width="30.2869" height="18.7949" filterUnits="userSpaceOnUse" color-interpolation-filters="sRGB">
<feFlood flood-opacity="0" result="BackgroundImageFix"/>
<feBlend mode="normal" in="SourceGraphic" in2="BackgroundImageFix" result="shape"/>
<feGaussianBlur stdDeviation="2" result="effect1_foregroundBlur_144_6883"/>
</filter>
<filter id="filter1_f_144_6883" x="132.247" y="137.973" width="30.8184" height="18.666" filterUnits="userSpaceOnUse" color-interpolation-filters="sRGB">
<feFlood flood-opacity="0" result="BackgroundImageFix"/>
<feBlend mode="normal" in="SourceGraphic" in2="BackgroundImageFix" result="shape"/>
<feGaussianBlur stdDeviation="2" result="effect1_foregroundBlur_144_6883"/>
</filter>
<linearGradient id="paint0_linear_144_6883" x1="81.9999" y1="177.5" x2="105.304" y2="130.903" gradientUnits="userSpaceOnUse">
<stop stop-color="#4E0815"/>
<stop offset="0.598958" stop-color="#F02431"/>
<stop offset="1" stop-color="#FF6D5E"/>
</linearGradient>
<radialGradient id="paint1_radial_144_6883" cx="0" cy="0" r="1" gradientUnits="userSpaceOnUse" gradientTransform="translate(94.9621 140.415) rotate(9.45) scale(11.2638 5.13899)">
<stop offset="0.526042"/>
<stop offset="1" stop-opacity="0"/>
</radialGradient>
<linearGradient id="paint2_linear_144_6883" x1="139" y1="187" x2="169.008" y2="130.737" gradientUnits="userSpaceOnUse">
<stop stop-color="#4E0815"/>
<stop offset="0.598958" stop-color="#F02431"/>
<stop offset="1" stop-color="#FF6D5E"/>
</linearGradient>
<radialGradient id="paint3_radial_144_6883" cx="0" cy="0" r="1" gradientUnits="userSpaceOnUse" gradientTransform="translate(147.657 147.306) rotate(90) scale(5.33291 11.4092)">
<stop offset="0.526042"/>
<stop offset="1" stop-opacity="0"/>
</radialGradient>
</defs>
</svg>
