<svg width="174" height="200" viewBox="0 0 174 200" fill="none" xmlns="http://www.w3.org/2000/svg">
<rect width="174" height="200" fill="white" fill-opacity="0.05"/>
<path d="M124.552 66.5783C118.165 62.2136 58.552 53.2286 50.8953 52.0838C36.0257 46.6253 20.4131 50.5607 24.0969 68.8373C26.7592 82.0643 46.4582 76.6161 45.9422 89.7716C45.2612 107.149 51.9066 121.439 85.9489 119.803C104.905 118.893 128.721 137.242 135.016 114.764C141.238 92.5621 166.489 95.2095 124.563 66.5783H124.552Z" fill="#BE5C1F"/>
<path d="M124.975 64.5337C118.516 60.1486 58.3043 50.9592 50.5651 49.7939C35.5303 44.2843 19.7836 48.1788 23.5706 66.4861C26.3052 79.7335 46.1692 74.3466 45.6945 87.5021C45.0548 104.9 51.8137 119.22 86.1759 117.687C105.318 116.828 129.412 135.279 135.697 112.801C141.981 90.3233 167.407 93.3285 124.986 64.5337H124.975Z" fill="#ED8F3A"/>
<path d="M126.007 61.0479C119.548 56.6627 59.3363 47.4733 51.597 46.308C36.5623 40.7985 20.8155 44.693 24.6026 63.0002C27.3371 76.2477 47.2011 70.8608 46.7265 84.0162C46.0867 101.414 52.8456 115.734 87.2078 114.201C106.35 113.343 130.444 131.793 136.729 109.315C142.941 87.1032 168.439 89.8427 126.018 61.0479H126.007Z" fill="#ED8F3A"/>
<g opacity="0.3">
<path d="M146.542 82.6982C147.13 89.7206 137.183 94.0648 133.654 106.699C127.534 128.584 104.069 110.624 85.4329 111.462C60.3578 112.587 50.3794 105.023 47.2114 94.0342C49.6364 106.249 59.1814 114.958 85.9799 113.762C104.616 112.934 128.081 130.894 134.2 108.999C138.101 95.0359 149.823 91.2027 146.542 82.688V82.6982Z" fill="#FFF2B0"/>
<path d="M24.8708 63.0212C24.9224 63.3177 24.9637 63.6141 25.0256 63.9208C27.3784 75.2976 42.7124 72.5582 45.9629 80.5721C44.9206 70.1356 28.4515 73.6417 24.8708 63.0315V63.0212Z" fill="#FFF2B0"/>
</g>
<path d="M134.953 59.251C120.193 63.741 104.173 66.171 90.133 71.931C90.433 82.521 90.453 94.481 90.413 105.171C90.273 109.671 84.363 102.921 82.683 101.951C76.503 96.651 69.983 91.821 63.913 86.391C62.383 81.371 63.673 75.741 63.253 70.521C63.703 68.701 62.753 68.021 61.143 67.521C30.723 57.951 35.803 63.721 35.733 32.241C36.803 26.741 44.613 26.921 48.613 23.921C53.543 21.991 56.293 16.371 61.923 18.601C67.563 21.831 98.913 27.121 89.063 33.181C82.933 36.951 77.743 43.091 69.893 42.641C71.113 51.251 73.133 46.981 79.553 45.891C88.643 43.641 99.103 38.871 108.213 42.541C115.103 48.241 133.883 49.771 134.953 59.271V59.251Z" fill="#F8A44A"/>
<path d="M92.523 42.301C90.513 42.981 88.153 44.121 86.253 44.761C83.993 45.531 81.663 46.141 79.393 46.871C76.983 47.641 74.843 48.211 72.423 48.931C71.633 49.161 69.983 52.681 69.823 51.821C69.543 50.341 70.293 44.241 69.893 42.631C69.033 38.571 73.223 37.751 76.143 35.871C78.153 34.591 85.123 33.041 86.993 31.511C88.113 30.591 92.083 28.031 92.543 28.421C92.573 32.381 92.493 38.341 92.523 42.291V42.301Z" fill="#D36B00"/>
<path d="M35.713 54.291C38.533 59.731 41.193 60.011 43.903 60.931C49.623 62.891 55.373 64.741 61.143 66.531C62.753 67.031 63.703 67.711 63.263 69.531C54.903 67.031 46.653 64.181 38.403 61.351C36.143 60.291 35.573 56.361 35.723 54.291H35.713Z" fill="#D36B00"/>
<path d="M89.733 109.881C87.673 108.941 86.103 107.401 84.393 105.961C82.983 104.771 81.413 103.551 79.983 102.401C77.893 100.711 75.813 98.881 73.683 97.211C72.073 95.951 70.433 94.611 68.903 93.331C67.143 91.871 64.933 90.631 63.793 88.361C63.373 87.531 63.453 87.021 63.913 86.391C65.433 87.811 66.983 89.191 68.723 90.351C70.193 91.321 71.233 92.761 72.583 93.851C75.943 96.571 79.523 99.001 82.683 101.961C84.453 103.621 85.283 104.231 87.303 105.541C88.823 106.531 90.413 106.981 90.413 105.181C90.423 95.961 90.453 86.731 90.413 77.511C90.413 75.771 89.043 73.661 89.533 72.061C89.713 71.491 92.023 71.591 92.653 71.541C94.023 71.441 95.793 68.321 97.093 67.941C107.403 64.891 117.233 62.251 127.563 59.271C130.043 58.551 134.213 57.751 134.953 59.271C134.943 70.121 134.983 80.971 134.883 91.811C134.863 94.141 133.203 96.201 130.653 97.031C117.723 101.261 104.793 105.511 91.863 109.751C91.823 109.761 91.803 109.841 91.773 109.891H89.733V109.881Z" fill="#D36B00"/>
<path d="M69.903 47.241C68.623 51.121 66.893 42.081 62.283 40.171C55.973 37.541 49.583 36.681 44.503 35.221C41.593 34.381 38.023 34.401 35.733 32.241C35.613 30.581 36.293 29.211 38.503 28.001C44.723 24.611 50.893 21.141 57.083 17.701C58.513 16.911 60.023 16.831 61.583 17.251C70.693 19.731 79.803 22.201 88.913 24.691C91.473 25.391 92.783 27.251 92.583 29.691C92.603 31.671 92.353 29.731 89.903 30.621C86.613 31.811 83.193 33.921 78.563 35.721C72.273 37.551 69.753 38.421 69.893 47.241H69.903Z" fill="#F7992F"/>
<path d="M69.443 43.3311C67.453 44.5811 70.693 39.5011 57.063 36.7111C50.873 35.4411 45.433 33.9711 39.393 32.1111C38.993 31.9911 38.003 31.4111 38.293 30.5511C38.533 29.8211 39.263 30.2211 39.763 30.4111C45.533 32.6011 50.423 34.5211 58.203 35.9111C64.283 37.0911 70.143 38.2911 69.443 43.3311Z" fill="#FBC78D"/>
<path d="M134.563 59.011C130.123 57.581 98.853 68.811 95.143 70.951C90.173 73.811 93.053 87.261 90.403 89.461C87.353 92.001 94.873 69.531 65.803 57.411C62.523 56.041 62.223 52.281 65.163 50.211C72.583 48.061 102.253 38.411 105.293 40.271C112.433 44.651 133.473 51.061 134.563 59.001V59.011ZM97.713 66.031C99.063 66.921 100.203 66.611 101.173 66.321C110.843 63.461 120.483 60.531 130.123 57.581C137.063 52.921 100.093 65.661 97.713 66.031Z" fill="#F7992F"/>
<path d="M90.643 82.1811C90.573 82.5511 90.043 82.5811 89.933 82.2211C89.193 79.6411 89.853 75.0811 88.403 71.4911C87.373 68.9511 82.493 65.4711 79.673 63.4311C74.403 60.4211 69.383 58.2211 65.423 55.3011C63.633 53.9811 64.133 51.1511 65.633 51.1311C66.613 51.1211 65.413 53.1711 67.583 54.8811C72.443 58.7111 76.253 59.7511 81.643 62.9411C90.273 68.2711 93.153 69.0011 90.643 82.1811Z" fill="#FBC78D"/>
<path d="M97.593 66.0212C104.583 63.8912 111.203 61.8712 117.823 59.8612C121.553 58.7312 125.283 57.6112 129.013 56.4912C129.233 56.4312 129.443 56.3312 129.663 56.3312C130.213 56.3212 130.983 56.0812 131.163 56.7412C131.393 57.6012 130.423 57.4412 130.013 57.5712C120.373 60.5212 110.723 63.4512 101.063 66.3112C100.083 66.6012 98.953 66.9112 97.603 66.0212H97.593Z" fill="#FBC78D"/>
<path d="M41.9891 160.4C41.7057 160.283 41.3891 160.2 41.0391 160.15C40.7057 160.083 40.2974 160.05 39.8141 160.05C39.1307 160.05 38.4557 160.175 37.7891 160.425C37.1391 160.675 36.5557 161.083 36.0391 161.65C35.5391 162.217 35.1307 162.958 34.8141 163.875C34.5141 164.792 34.3641 165.917 34.3641 167.25C34.3641 168.45 34.4974 169.5 34.7641 170.4C35.0474 171.3 35.4307 172.05 35.9141 172.65C36.4141 173.25 37.0057 173.7 37.6891 174C38.3891 174.3 39.1641 174.45 40.0141 174.45C40.4474 174.45 40.8474 174.417 41.2141 174.35C41.5974 174.267 41.9474 174.158 42.2641 174.025V171.525H44.1141V174.9L44.1391 174.95C43.6391 175.333 43.0057 175.658 42.2391 175.925C41.4724 176.175 40.5391 176.3 39.4391 176.3C38.3891 176.3 37.4141 176.125 36.5141 175.775C35.6307 175.408 34.8641 174.858 34.2141 174.125C33.5641 173.392 33.0557 172.458 32.6891 171.325C32.3391 170.175 32.1641 168.817 32.1641 167.25C32.1641 165.617 32.3641 164.233 32.7641 163.1C33.1641 161.95 33.7057 161.017 34.3891 160.3C35.0724 159.567 35.8641 159.033 36.7641 158.7C37.6807 158.367 38.6557 158.2 39.6891 158.2C40.2557 158.2 40.7474 158.225 41.1641 158.275C41.5807 158.308 41.9474 158.367 42.2641 158.45C42.5807 158.517 42.8557 158.608 43.0891 158.725C43.3391 158.842 43.5807 158.975 43.8141 159.125H43.8391V163.075H41.9891V160.4ZM47.2293 164.475C47.946 164.058 48.7543 163.758 49.6543 163.575C50.5543 163.392 51.4376 163.3 52.3043 163.3C53.1543 163.3 53.846 163.433 54.3793 163.7C54.9293 163.967 55.3543 164.317 55.6543 164.75C55.971 165.167 56.1793 165.65 56.2793 166.2C56.396 166.733 56.4543 167.275 56.4543 167.825C56.4543 168.458 56.4376 169.133 56.4043 169.85C56.371 170.567 56.346 171.283 56.3293 172C56.3293 172.833 56.3793 173.625 56.4793 174.375H58.1543V176H54.8293L54.6043 174.125H54.4793C54.3793 174.275 54.2293 174.467 54.0293 174.7C53.8293 174.933 53.5626 175.167 53.2293 175.4C52.9126 175.617 52.521 175.808 52.0543 175.975C51.5876 176.142 51.0376 176.225 50.4043 176.225C49.171 176.225 48.196 175.908 47.4793 175.275C46.7626 174.642 46.4043 173.775 46.4043 172.675C46.4043 171.825 46.5876 171.117 46.9543 170.55C47.3376 169.983 47.8793 169.55 48.5793 169.25C49.2793 168.95 50.121 168.775 51.1043 168.725C52.1043 168.675 53.221 168.742 54.4543 168.925C54.5376 168.158 54.546 167.525 54.4793 167.025C54.4293 166.508 54.296 166.1 54.0793 165.8C53.8793 165.5 53.5876 165.292 53.2043 165.175C52.8376 165.042 52.3793 164.975 51.8293 164.975C51.0793 164.975 50.3626 165.083 49.6793 165.3C48.996 165.5 48.3876 165.708 47.8543 165.925L47.2293 164.475ZM50.9043 174.55C51.371 174.55 51.8043 174.475 52.2043 174.325C52.6043 174.175 52.9543 173.983 53.2543 173.75C53.5543 173.517 53.8043 173.267 54.0043 173C54.2043 172.717 54.3543 172.45 54.4543 172.2V170.45C53.5876 170.3 52.7876 170.225 52.0543 170.225C51.321 170.225 50.6876 170.308 50.1543 170.475C49.621 170.625 49.2043 170.867 48.9043 171.2C48.6043 171.533 48.4543 171.967 48.4543 172.5C48.4543 173.05 48.6376 173.533 49.0043 173.95C49.3876 174.35 50.021 174.55 50.9043 174.55ZM60.1695 176V174.325H63.5445V165.175H60.1695V163.5H64.8445L65.2445 165.125H65.3695C65.9362 164.608 66.5695 164.167 67.2695 163.8C67.9695 163.433 68.8029 163.25 69.7695 163.25C70.3362 163.25 70.7862 163.358 71.1195 163.575C71.4695 163.792 71.7362 164.108 71.9195 164.525C72.1195 164.942 72.2529 165.45 72.3195 166.05C72.3862 166.633 72.4195 167.3 72.4195 168.05L70.6695 168.075C70.6695 167.008 70.5612 166.225 70.3445 165.725C70.1445 165.225 69.7695 164.975 69.2195 164.975C68.7029 164.975 68.2362 165.05 67.8195 165.2C67.4029 165.35 67.0362 165.533 66.7195 165.75C66.4195 165.967 66.1612 166.183 65.9445 166.4C65.7279 166.617 65.5695 166.8 65.4695 166.95V174.325H70.2695V176H60.1695ZM75.2098 164.475C75.9264 164.058 76.7348 163.758 77.6348 163.575C78.5348 163.392 79.4181 163.3 80.2848 163.3C81.1348 163.3 81.8264 163.433 82.3598 163.7C82.9098 163.967 83.3348 164.317 83.6348 164.75C83.9514 165.167 84.1598 165.65 84.2598 166.2C84.3764 166.733 84.4348 167.275 84.4348 167.825C84.4348 168.458 84.4181 169.133 84.3848 169.85C84.3514 170.567 84.3264 171.283 84.3098 172C84.3098 172.833 84.3598 173.625 84.4598 174.375H86.1348V176H82.8098L82.5848 174.125H82.4598C82.3598 174.275 82.2098 174.467 82.0098 174.7C81.8098 174.933 81.5431 175.167 81.2098 175.4C80.8931 175.617 80.5014 175.808 80.0348 175.975C79.5681 176.142 79.0181 176.225 78.3848 176.225C77.1514 176.225 76.1764 175.908 75.4598 175.275C74.7431 174.642 74.3848 173.775 74.3848 172.675C74.3848 171.825 74.5681 171.117 74.9348 170.55C75.3181 169.983 75.8598 169.55 76.5598 169.25C77.2598 168.95 78.1014 168.775 79.0848 168.725C80.0848 168.675 81.2014 168.742 82.4348 168.925C82.5181 168.158 82.5264 167.525 82.4598 167.025C82.4098 166.508 82.2764 166.1 82.0598 165.8C81.8598 165.5 81.5681 165.292 81.1848 165.175C80.8181 165.042 80.3598 164.975 79.8098 164.975C79.0598 164.975 78.3431 165.083 77.6598 165.3C76.9764 165.5 76.3681 165.708 75.8348 165.925L75.2098 164.475ZM78.8848 174.55C79.3514 174.55 79.7848 174.475 80.1848 174.325C80.5848 174.175 80.9348 173.983 81.2348 173.75C81.5348 173.517 81.7848 173.267 81.9848 173C82.1848 172.717 82.3348 172.45 82.4348 172.2V170.45C81.5681 170.3 80.7681 170.225 80.0348 170.225C79.3014 170.225 78.6681 170.308 78.1348 170.475C77.6014 170.625 77.1848 170.867 76.8848 171.2C76.5848 171.533 76.4348 171.967 76.4348 172.5C76.4348 173.05 76.6181 173.533 76.9848 173.95C77.3681 174.35 78.0014 174.55 78.8848 174.55ZM93.05 176V167.675C93.05 167.325 93.0333 166.992 93 166.675C92.9833 166.342 92.925 166.05 92.825 165.8C92.7417 165.533 92.6083 165.325 92.425 165.175C92.2583 165.025 92.0333 164.95 91.75 164.95C91.1833 164.95 90.7 165.183 90.3 165.65C89.9167 166.117 89.625 166.7 89.425 167.4V176H87.525V163.5H88.825L89.2 165.025H89.3C89.4667 164.775 89.625 164.542 89.775 164.325C89.9417 164.092 90.125 163.892 90.325 163.725C90.5417 163.558 90.7917 163.433 91.075 163.35C91.3583 163.25 91.7167 163.2 92.15 163.2C92.4 163.2 92.6583 163.242 92.925 163.325C93.1917 163.392 93.4333 163.508 93.65 163.675C93.8833 163.825 94.0833 164.033 94.25 164.3C94.4167 164.567 94.525 164.892 94.575 165.275C94.9583 164.625 95.3833 164.117 95.85 163.75C96.3333 163.383 96.9917 163.2 97.825 163.2C98.375 163.2 98.8167 163.292 99.15 163.475C99.5 163.658 99.7667 163.925 99.95 164.275C100.15 164.608 100.283 165.017 100.35 165.5C100.433 165.967 100.475 166.492 100.475 167.075V176H98.575V167.5C98.575 167.15 98.5583 166.825 98.525 166.525C98.4917 166.208 98.425 165.933 98.325 165.7C98.2417 165.467 98.1167 165.283 97.95 165.15C97.8 165.017 97.5917 164.95 97.325 164.95C96.7417 164.95 96.25 165.183 95.85 165.65C95.45 166.117 95.15 166.783 94.95 167.65V176H93.05ZM113.715 174.425C113.415 174.692 113.057 174.942 112.64 175.175C112.24 175.408 111.799 175.608 111.315 175.775C110.832 175.942 110.324 176.067 109.79 176.15C109.274 176.25 108.749 176.3 108.215 176.3C107.215 176.3 106.332 176.15 105.565 175.85C104.799 175.533 104.157 175.092 103.64 174.525C103.124 173.942 102.732 173.25 102.465 172.45C102.199 171.65 102.065 170.75 102.065 169.75C102.065 168.7 102.207 167.767 102.49 166.95C102.79 166.133 103.215 165.45 103.765 164.9C104.315 164.35 104.982 163.933 105.765 163.65C106.549 163.35 107.424 163.2 108.39 163.2C109.09 163.2 109.782 163.292 110.465 163.475C111.149 163.658 111.749 164.008 112.265 164.525C112.799 165.025 113.207 165.725 113.49 166.625C113.774 167.508 113.874 168.658 113.79 170.075H104.115C104.115 171.575 104.515 172.7 105.315 173.45C106.132 174.183 107.215 174.55 108.565 174.55C109.015 174.55 109.457 174.5 109.89 174.4C110.34 174.283 110.765 174.15 111.165 174C111.565 173.85 111.915 173.683 112.215 173.5C112.532 173.317 112.774 173.15 112.94 173L113.715 174.425ZM108.44 164.85C107.89 164.85 107.365 164.908 106.865 165.025C106.382 165.142 105.949 165.342 105.565 165.625C105.199 165.892 104.89 166.25 104.64 166.7C104.407 167.133 104.257 167.675 104.19 168.325H111.965C111.882 167.225 111.524 166.375 110.89 165.775C110.274 165.158 109.457 164.85 108.44 164.85ZM117.455 158.5H121.605V171.8C121.605 172.817 121.772 173.533 122.105 173.95C122.455 174.367 122.964 174.575 123.63 174.575C124.097 174.575 124.539 174.492 124.955 174.325C125.389 174.158 125.864 173.875 126.38 173.475L127.28 174.85C127.014 175.083 126.722 175.292 126.405 175.475C126.089 175.658 125.764 175.817 125.43 175.95C125.097 176.067 124.764 176.158 124.43 176.225C124.097 176.292 123.789 176.325 123.505 176.325C122.889 176.325 122.339 176.242 121.855 176.075C121.372 175.925 120.964 175.675 120.63 175.325C120.314 174.975 120.072 174.517 119.905 173.95C119.739 173.367 119.655 172.65 119.655 171.8V160.175H117.455V158.5ZM129.896 169.75C129.896 167.733 130.421 166.142 131.471 164.975C132.521 163.792 134.021 163.2 135.971 163.2C137.021 163.2 137.921 163.375 138.671 163.725C139.437 164.058 140.071 164.517 140.571 165.1C141.071 165.683 141.437 166.375 141.671 167.175C141.921 167.975 142.046 168.833 142.046 169.75C142.046 170.75 141.912 171.658 141.646 172.475C141.379 173.275 140.987 173.958 140.471 174.525C139.954 175.092 139.312 175.533 138.546 175.85C137.796 176.15 136.937 176.3 135.971 176.3C134.937 176.3 134.037 176.133 133.271 175.8C132.504 175.45 131.871 174.983 131.371 174.4C130.871 173.817 130.496 173.125 130.246 172.325C130.012 171.525 129.896 170.667 129.896 169.75ZM131.971 169.75C131.971 170.333 132.037 170.917 132.171 171.5C132.321 172.083 132.554 172.608 132.871 173.075C133.187 173.542 133.596 173.917 134.096 174.2C134.612 174.483 135.237 174.625 135.971 174.625C137.304 174.625 138.304 174.217 138.971 173.4C139.654 172.567 139.996 171.35 139.996 169.75C139.996 169.15 139.921 168.567 139.771 168C139.637 167.417 139.404 166.892 139.071 166.425C138.754 165.958 138.337 165.583 137.821 165.3C137.321 165.017 136.704 164.875 135.971 164.875C134.637 164.875 133.637 165.283 132.971 166.1C132.304 166.917 131.971 168.133 131.971 169.75Z" fill="white"/>
</svg>
