<svg width="237" height="237" viewBox="0 0 237 237" fill="none" xmlns="http://www.w3.org/2000/svg">
<path d="M201.402 236.486L236.5 92.0177L118.5 0.486333L0.499994 92.0177L35.5981 236.486L201.402 236.486Z" fill="white" fill-opacity="0.3"/>
<g filter="url(#filter0_d_612_41089)">
<path d="M86.893 127.738C85.8749 127.948 85.1961 128.319 84.6144 128.416C84.2104 128.481 83.7094 128.303 83.3054 128.384C82.8529 128.465 82.8529 128.739 82.4004 128.836C82.061 128.901 81.6085 128.723 81.2692 128.804C80.8975 128.885 80.849 129.144 80.4773 129.24C80.3157 129.273 79.8309 129.127 79.6693 129.176C73.4799 130.582 66.6441 132.456 60.6001 132.828C60.6001 131.196 62.8949 130.937 62.5555 129.144C62.3939 128.335 63.509 127.964 64.0423 127.382C65.1573 126.881 63.8806 125.701 65.0765 125.103C66.4178 124.409 66.3855 123.035 67.242 121.936C68.7287 121.128 67.9692 119.092 69.7792 118.478C70.0539 118.316 70.6357 118.122 70.3286 117.702C69.2944 116.183 70.7973 115.811 71.2982 114.987C73.0436 114.211 70.9589 113.969 71.9608 113.032C73.5284 111.464 73.997 109.606 75.1121 107.877C75.3545 107.505 76.4372 107.149 76.6958 106.745C76.8089 106.551 76.4534 106.099 76.5827 105.905C76.8574 105.485 77.7947 105.21 78.0856 104.806C78.3118 104.499 77.6816 104.257 77.9078 103.966C78.0856 103.739 78.6997 103.513 78.8936 103.303C81.2369 100.604 84.1134 98.552 87.2323 97.1622C87.5071 97.0491 87.8141 96.5804 88.0888 96.4673C88.5736 96.2734 89.01 96.4511 89.4948 96.2895C89.915 96.1441 89.7857 95.8047 90.2058 95.6916C90.4482 95.627 91.2563 95.7886 91.4987 95.7239C91.9188 95.627 92.2097 95.223 92.6299 95.1422C93.0339 95.0614 93.5833 95.3038 93.9874 95.2553C94.6015 95.1745 94.5368 94.7705 95.1671 94.7381C95.7327 94.7058 96.0236 94.9159 96.5892 94.9159C97.1225 94.9159 97.5426 94.6735 98.0921 94.722C98.8031 94.7866 99.2233 95.126 99.9344 95.2714C103.958 96.0633 108.354 97.7763 111.02 100.491C107.352 102.204 105.768 108.426 103.473 112.062C102.746 113.371 101.857 114.777 101.389 115.957C101.276 116.264 100.387 116.054 100.193 116.312C99.999 116.571 100.128 117.072 99.9182 117.314C99.6596 117.637 99.3041 117.411 99.0294 117.718C98.6254 118.187 98.8839 118.494 98.4476 118.93C98.1729 119.205 97.8012 119.173 97.5265 119.463C97.3164 119.657 97.4618 120.417 97.2517 120.627C96.4114 121.419 95.4903 122.195 94.5206 122.922C94.1651 123.197 93.7611 123.083 93.4056 123.342C93.1955 123.487 93.0339 124.005 92.8238 124.15C92.5652 124.328 92.339 124.231 92.0804 124.425C91.9512 124.522 91.7572 124.877 91.6279 124.974C90.2058 125.895 88.202 127.043 86.8768 127.754" fill="#5CA144"/>
<path d="M121.266 94.3175C121.266 94.3175 122.43 100.248 112.717 101.121C103.005 101.994 111.877 100.297 111.877 100.297C111.877 100.297 118.196 99.4403 119.973 95.4325C121.751 91.4248 121.25 94.3013 121.25 94.3013L121.266 94.3175Z" fill="#14761E"/>
<path d="M95.1023 103.691C87.8624 106.955 83.2567 116.312 79.3298 119.819C75.0796 123.617 67.1934 126.17 67.1934 126.17C67.1934 126.17 68.0983 125.911 72.2354 124.602C82.9335 121.176 83.8385 111.868 94.375 105.291C99.8696 101.865 108.677 101.396 108.677 101.396C108.677 101.396 112.378 100.895 109.436 100.879C105.655 100.863 98.5283 102.156 95.1184 103.707L95.1023 103.691Z" fill="#14761E"/>
<path d="M97.8657 105.565C96.3951 108.539 93.3408 111.108 93.3408 111.108C93.3408 111.108 94.3104 110.914 95.9103 109.282C100.096 105.064 100.403 100.394 97.8496 105.565H97.8657Z" fill="#14761E"/>
<path d="M87.7009 113.322C87.3616 116.474 85.4385 119.754 85.4385 119.754C85.4385 119.754 86.2465 119.269 87.1515 117.298C89.527 112.159 88.2989 107.876 87.6848 113.339L87.7009 113.322Z" fill="#14761E"/>
<path d="M80.7518 115.585C78.0368 117.217 74.2715 117.669 74.2715 117.669C74.2715 117.669 75.1441 118.009 77.2773 117.54C82.8041 116.328 85.4706 112.74 80.7518 115.568V115.585Z" fill="#14761E"/>
<path d="M78.4087 122.598C76.6634 124.279 75.5483 126.994 75.5483 126.994C75.5483 126.994 75.4675 126.267 76.2432 124.796C78.2632 120.934 81.4468 119.673 78.4087 122.615V122.598Z" fill="#14761E"/>
<path d="M99.821 100.636C96.8798 99.408 93.0498 99.505 93.0498 99.505C93.0498 99.505 93.874 99.0364 96.0718 99.1818C101.776 99.5858 104.96 102.769 99.8371 100.636H99.821Z" fill="#14761E"/>
<path d="M88.8966 105.776C85.8908 105.986 82.6587 107.683 82.6587 107.683C82.6587 107.683 83.1758 106.939 85.0989 106.147C90.1248 104.079 94.1325 105.42 88.8966 105.792V105.776Z" fill="#14761E"/>
<path d="M85.3428 179.985L90.7149 180.879C103.745 183.048 116.066 174.244 118.235 161.214C120.403 148.184 111.599 135.863 98.5687 133.694L93.1966 132.8C80.1667 130.631 67.8457 139.436 65.6769 152.466C63.5082 165.496 72.3129 177.817 85.3428 179.985Z" fill="#B21F26"/>
<path d="M85.3428 179.985L90.7149 180.879C103.745 183.048 116.066 174.244 118.235 161.214C120.403 148.184 111.599 135.863 98.5687 133.694L93.1966 132.8C80.1667 130.631 67.8457 139.436 65.6769 152.466C63.5082 165.496 72.3129 177.817 85.3428 179.985Z" fill="url(#paint0_linear_612_41089)"/>
<g opacity="0.5" filter="url(#filter1_f_612_41089)">
<path d="M106.573 142.75C107.039 139.951 102.442 136.853 96.3057 135.832C90.1693 134.81 84.8171 136.252 84.3511 139.052C83.8851 141.851 88.4818 144.949 94.6182 145.97C100.755 146.992 106.107 145.55 106.573 142.75Z" fill="#811219"/>
<path d="M106.573 142.75C107.039 139.951 102.442 136.853 96.3057 135.832C90.1693 134.81 84.8171 136.252 84.3511 139.052C83.8851 141.851 88.4818 144.949 94.6182 145.97C100.755 146.992 106.107 145.55 106.573 142.75Z" fill="url(#paint1_radial_612_41089)" fill-opacity="0.4"/>
</g>
<path d="M84.3394 175.588L89.7046 176.477C102.73 178.643 115.06 169.835 117.226 156.81C117.614 154.435 117.646 152.091 117.355 149.829C118.519 153.384 118.89 157.263 118.228 161.206C116.062 174.231 103.732 183.038 90.7066 180.873L85.3413 179.984C74.6755 178.206 66.8539 169.641 65.5449 159.444C68.2437 167.621 75.2573 174.069 84.3394 175.572V175.588Z" fill="#811219"/>
<path opacity="0.25" d="M95.8134 133.669C105.332 135.252 110.778 138.872 112.151 144.529C112.604 146.403 112.555 149.764 109.598 149.668C108.903 149.651 107.643 148.229 106.592 147.389C105.833 146.791 103.764 146.92 103.99 145.369C105.445 144.755 106.398 143.866 106.592 142.767C107.061 139.987 102.471 136.901 96.3466 135.883C90.2219 134.865 84.889 136.303 84.4203 139.082C83.9517 141.862 88.5412 144.949 94.666 145.967C94.6983 145.967 94.7306 145.967 94.7629 145.967C96.5567 146.258 99.6757 146.872 98.1728 148.245C97.1062 149.215 95.9588 149.021 93.8095 148.989C91.6601 148.956 87.6524 149.28 85.1152 148.569C77.229 146.387 74.9827 143.527 75.6937 139.196C76.4048 134.865 86.3111 132.069 95.8295 133.653L95.8134 133.669Z" fill="white"/>
<path opacity="0.5" d="M88.5088 146.306C89.6078 146.452 92.7752 146.338 92.7429 146.759C92.7105 147.179 92.2096 147.437 91.9187 147.421C89.7047 147.357 86.812 147.55 84.7435 147.033C83.2891 146.662 80.4448 146.064 77.8107 143.381C76.0169 141.587 76.5179 138.258 78.8126 137.159C79.4914 136.836 80.2832 135.899 80.865 136.368C81.366 136.772 80.5095 137.628 80.2994 138.307C79.5399 140.844 79.9115 142.363 82.3679 143.85C83.7254 144.609 86.4403 146.08 88.525 146.322L88.5088 146.306Z" fill="white"/>
<path opacity="0.5" d="M70.4092 148.698C70.8294 148.827 70.9102 149.118 71.0233 149.376C71.7182 151.057 72.3484 152.77 73.8998 153.933C74.2069 154.16 74.417 154.564 74.0614 154.903C73.6574 155.291 73.1241 155.517 72.5909 155.259C71.4596 154.693 70.4092 154.047 70.086 152.689C69.8436 151.687 69.5689 150.701 69.682 149.651C69.7466 149.118 70.0375 148.875 70.4254 148.714L70.4092 148.698Z" fill="white"/>
<path opacity="0.2" d="M84.1456 174.732C87.717 175.184 90.9814 176.315 94.4397 176.17C99.7726 175.944 104.378 174.118 108.241 170.417C108.725 169.948 109.372 168.995 109.857 169.415C110.471 169.948 109.647 170.756 109.259 171.354C108.014 173.261 106.188 174.538 104.346 175.798C100.726 178.303 96.6375 178.82 92.4358 178.352C89.9633 178.077 87.4907 177.43 85.3253 176.008C84.8889 175.717 84.4203 175.459 84.1294 174.748L84.1456 174.732Z" fill="white"/>
<path d="M151.583 139.971L146.137 139.971C132.927 139.971 122.219 150.679 122.219 163.888C122.219 177.097 132.927 187.805 146.137 187.805H151.583C164.792 187.805 175.5 177.097 175.5 163.888C175.5 150.679 164.792 139.971 151.583 139.971Z" fill="#B21F26"/>
<path d="M151.583 139.971L146.137 139.971C132.927 139.971 122.219 150.679 122.219 163.888C122.219 177.097 132.927 187.805 146.137 187.805H151.583C164.792 187.805 175.5 177.097 175.5 163.888C175.5 150.679 164.792 139.971 151.583 139.971Z" fill="url(#paint2_linear_612_41089)"/>
<g opacity="0.5" filter="url(#filter2_f_612_41089)">
<path d="M148.157 153.125C154.458 153.125 159.566 150.738 159.566 147.792C159.566 144.847 154.458 142.459 148.157 142.459C141.856 142.459 136.748 144.847 136.748 147.792C136.748 150.738 141.856 153.125 148.157 153.125Z" fill="#811219"/>
<path d="M148.157 153.125C154.458 153.125 159.566 150.738 159.566 147.792C159.566 144.847 154.458 142.459 148.157 142.459C141.856 142.459 136.748 144.847 136.748 147.792C136.748 150.738 141.856 153.125 148.157 153.125Z" fill="url(#paint3_radial_612_41089)" fill-opacity="0.4"/>
</g>
<path d="M153.279 183.62H147.833C134.63 183.62 123.916 172.905 123.916 159.702C123.916 157.295 124.272 154.984 124.934 152.802C123.189 156.115 122.203 159.88 122.203 163.888C122.203 177.091 132.917 187.805 146.12 187.805H151.566C162.378 187.805 171.492 180.63 174.466 170.788C170.474 178.416 162.491 183.62 153.279 183.62Z" fill="#811219"/>
<path opacity="0.25" d="M148.852 140.375C139.204 140.375 133.241 143.057 130.962 148.406C130.203 150.184 129.702 153.513 132.627 153.901C133.305 153.998 134.792 152.802 135.972 152.156C136.828 151.687 138.832 152.156 138.881 150.588C137.539 149.748 136.748 148.713 136.748 147.598C136.748 144.77 141.773 142.492 147.979 142.492C154.185 142.492 159.21 144.787 159.21 147.598C159.21 150.41 154.185 152.705 147.979 152.705C147.947 152.705 147.914 152.705 147.882 152.705C146.072 152.705 142.888 152.802 144.149 154.386C145.054 155.517 146.217 155.517 148.334 155.84C150.451 156.163 151.389 157.02 153.991 156.745C162.119 155.889 166.321 152.721 166.321 148.326C166.321 143.93 158.499 140.375 148.835 140.375H148.852Z" fill="white"/>
<path opacity="0.5" d="M164.753 149.215C164.672 150.104 164.317 151.041 163.59 151.639C162.345 152.689 160.81 153.19 159.21 153.417C158.952 153.449 158.564 153.578 158.451 153.223C158.321 152.835 158.725 152.657 159 152.512C159.533 152.205 160.115 151.962 160.648 151.655C161.844 150.976 162.507 149.974 162.572 148.568C162.604 147.987 162.232 147.066 163.25 147.033C164.107 147.001 164.446 147.777 164.705 148.504C164.769 148.698 164.737 148.908 164.769 149.215H164.753Z" fill="white"/>
<path opacity="0.5" d="M135.228 144.69C135.131 145.53 134.63 146.192 134.307 146.936C133.855 147.922 133.661 148.891 134.436 149.78C134.84 150.249 134.469 150.41 134.242 150.653C133.774 150.96 133.224 151.008 132.691 150.944C132.093 150.863 131.673 150.459 131.786 149.845C132.174 147.825 133.24 146.16 134.76 144.77C134.856 144.673 135.083 144.479 135.244 144.706L135.228 144.69Z" fill="white"/>
<path opacity="0.5" d="M129.508 158.862C129.944 158.798 130.138 159.024 130.348 159.218C131.705 160.43 133.031 161.69 134.921 162.062C135.309 162.127 135.665 162.401 135.487 162.854C135.293 163.371 134.921 163.824 134.323 163.807C133.063 163.807 131.835 163.678 130.946 162.595C130.283 161.804 129.605 161.028 129.249 160.026C129.071 159.525 129.249 159.169 129.508 158.862Z" fill="white"/>
<path opacity="0.2" d="M155.235 184.104C153.797 184.056 152.358 184.024 151.049 183.329C150.775 183.183 150.29 183.102 150.338 182.731C150.403 182.246 150.904 182.391 151.259 182.375C155.089 182.165 158.871 181.697 162.459 180.161C164.753 179.176 166.822 177.867 168.551 176.057C169.327 175.249 170.199 174.554 170.959 173.746C172.026 172.614 172.575 171.128 173.431 169.851C173.658 169.512 173.852 169.14 174.094 168.817C174.175 168.704 174.369 168.574 174.498 168.59C174.757 168.607 174.74 168.865 174.757 169.075C174.821 170.271 174.482 171.402 173.981 172.404C170.62 179.159 165.287 183.135 157.675 183.862C157.271 183.894 156.867 184.04 156.463 184.088C156.059 184.121 155.639 184.088 155.219 184.088L155.235 184.104Z" fill="white"/>
<path d="M144.973 143.316C144.973 142.379 144.844 141.555 144.003 139.535C143.131 138.145 139.575 130.76 138.282 128.707C136.23 125.427 134.679 121.936 133.111 118.446C131.447 114.745 130.186 110.899 129.023 107.02C127.875 103.223 126.744 99.425 126.292 95.4495C126.502 94.8031 126.841 94.1082 127.6 94.3829C128.651 94.7708 129.814 94.6092 130.8 95.191C130.8 98.1483 131.253 101.041 131.721 103.966C132.335 107.812 133.321 111.529 134.485 115.214C136.085 120.288 138.266 125.12 141.046 129.661C142.856 132.634 146.427 139.6 146.67 139.971C146.783 140.117 149.304 143.979 149.595 144.819C149.724 145.207 149.999 145.547 150.128 145.934C150.661 147.518 150.241 148.31 148.609 148.714C146.589 149.231 145.829 149.134 145.393 148.084C145.102 147.389 145.102 146.565 145.037 145.805C145.005 145.466 145.005 143.494 144.989 143.316H144.973Z" fill="#5CA144"/>
<path d="M99.1584 137.208C99.3038 136.287 99.5786 135.495 100.742 133.636C101.841 132.408 106.544 125.702 108.16 123.892C110.729 120.999 112.814 117.799 114.947 114.616C117.209 111.238 119.068 107.65 120.862 104.014C122.171 100.443 122.72 96.8553 123.803 93.0253C123.706 92.3466 125.128 91.6356 124.32 91.7972C123.221 92.0072 121.718 91.28 120.652 91.684C120.183 94.6091 119.617 97.7603 118.68 100.572C117.436 104.257 115.868 107.764 114.107 111.206C111.683 115.957 108.741 120.352 105.267 124.393C103.005 127.027 98.3342 133.313 98.0272 133.636C97.8817 133.766 94.7628 137.143 94.3426 137.951C94.1487 138.307 93.8255 138.597 93.6316 138.953C92.8397 140.44 93.1468 141.28 94.682 141.943C96.5889 142.783 97.3646 142.815 97.9625 141.846C98.3504 141.215 98.4958 140.407 98.6897 139.664C98.7705 139.341 99.1099 137.402 99.1422 137.208H99.1584Z" fill="#5CA144"/>
<path d="M130.8 95.1908C129.815 94.609 128.651 94.7706 127.601 94.3827C126.841 94.0919 126.502 94.7867 126.292 95.4493C125.952 95.3039 125.92 95.013 125.855 94.6736C125.661 93.6394 124.708 93.3485 123.948 94.0595C123.754 94.2535 123.609 94.4797 123.431 94.6898C123.318 93.6878 122.672 92.9283 122.187 92.1041C121.767 91.4092 121.169 91.8294 120.668 91.684C120.312 90.7467 120.862 89.9225 121.217 89.2437C121.961 87.8216 122.203 86.0117 124.045 85.3006C125.177 84.8643 126.162 84.6219 127.31 85.2683C128.619 85.9955 130.17 86.0925 131.511 86.7712C132.206 87.1267 132.659 87.6439 132.158 88.3064C130.526 90.4073 130.833 92.8313 130.817 95.2231L130.8 95.1908ZM130.008 88.2418C130.542 88.1448 131.075 88.064 131.188 87.5792C131.301 87.0944 130.784 87.0298 130.461 86.8843C128.99 86.1894 127.294 86.1571 125.839 85.3653C125.37 85.1067 124.773 85.3653 124.369 85.7693C124.029 86.1086 123.948 86.5773 124.498 86.7389C126.34 87.2883 128.215 87.757 129.992 88.2418H130.008Z" fill="#811219"/>
</g>
<defs>
<filter id="filter0_d_612_41089" x="54.6001" y="80.8721" width="130.9" height="118.933" filterUnits="userSpaceOnUse" color-interpolation-filters="sRGB">
<feFlood flood-opacity="0" result="BackgroundImageFix"/>
<feColorMatrix in="SourceAlpha" type="matrix" values="0 0 0 0 0 0 0 0 0 0 0 0 0 0 0 0 0 0 127 0" result="hardAlpha"/>
<feOffset dx="2" dy="4"/>
<feGaussianBlur stdDeviation="4"/>
<feComposite in2="hardAlpha" operator="out"/>
<feColorMatrix type="matrix" values="0 0 0 0 0 0 0 0 0 0.137376 0 0 0 0 0.195833 0 0 0 0.4 0"/>
<feBlend mode="normal" in2="BackgroundImageFix" result="effect1_dropShadow_612_41089"/>
<feBlend mode="normal" in="SourceGraphic" in2="effect1_dropShadow_612_41089" result="shape"/>
</filter>
<filter id="filter1_f_612_41089" x="80.3184" y="131.503" width="30.2871" height="18.7952" filterUnits="userSpaceOnUse" color-interpolation-filters="sRGB">
<feFlood flood-opacity="0" result="BackgroundImageFix"/>
<feBlend mode="normal" in="SourceGraphic" in2="BackgroundImageFix" result="shape"/>
<feGaussianBlur stdDeviation="2" result="effect1_foregroundBlur_612_41089"/>
</filter>
<filter id="filter2_f_612_41089" x="132.748" y="138.459" width="30.8184" height="18.6658" filterUnits="userSpaceOnUse" color-interpolation-filters="sRGB">
<feFlood flood-opacity="0" result="BackgroundImageFix"/>
<feBlend mode="normal" in="SourceGraphic" in2="BackgroundImageFix" result="shape"/>
<feGaussianBlur stdDeviation="2" result="effect1_foregroundBlur_612_41089"/>
</filter>
<linearGradient id="paint0_linear_612_41089" x1="82.5001" y1="177.986" x2="105.804" y2="131.389" gradientUnits="userSpaceOnUse">
<stop stop-color="#4E0815"/>
<stop offset="0.598958" stop-color="#F02431"/>
<stop offset="1" stop-color="#FF6D5E"/>
</linearGradient>
<radialGradient id="paint1_radial_612_41089" cx="0" cy="0" r="1" gradientUnits="userSpaceOnUse" gradientTransform="translate(95.462 140.901) rotate(9.45) scale(11.2638 5.13899)">
<stop offset="0.526042"/>
<stop offset="1" stop-opacity="0"/>
</radialGradient>
<linearGradient id="paint2_linear_612_41089" x1="139.5" y1="187.486" x2="169.508" y2="131.224" gradientUnits="userSpaceOnUse">
<stop stop-color="#4E0815"/>
<stop offset="0.598958" stop-color="#F02431"/>
<stop offset="1" stop-color="#FF6D5E"/>
</linearGradient>
<radialGradient id="paint3_radial_612_41089" cx="0" cy="0" r="1" gradientUnits="userSpaceOnUse" gradientTransform="translate(148.157 147.792) rotate(90) scale(5.33291 11.4092)">
<stop offset="0.526042"/>
<stop offset="1" stop-opacity="0"/>
</radialGradient>
</defs>
</svg>
