<svg width="236" height="236" viewBox="0 0 236 236" fill="none" xmlns="http://www.w3.org/2000/svg">
<path d="M200.902 236L236 91.5313L118 5.15794e-06L-6.31493e-06 91.5314L35.0981 236L200.902 236Z" fill="white" fill-opacity="0.2"/>
<path d="M175.967 87.0181C176.087 83.1436 173.312 79.704 167.562 77.5827L166.138 77.0541C157.84 73.9826 145.556 74.4711 134.557 77.75C134.537 77.75 134.517 77.7634 134.497 77.7701C133.12 78.185 131.769 78.6333 130.445 79.1352C127.783 80.139 125.241 81.31 122.905 82.6417C122.899 82.6417 122.892 82.6484 122.885 82.6551C122.453 82.9027 122.033 83.1502 121.614 83.4112C121.614 83.4112 121.608 83.4112 121.601 83.4112L111.267 89.8018L87.5641 104.457V106.545L87.99 106.698C87.7371 107.013 87.5774 107.394 87.5774 107.816L87.5774 115.739C87.5774 116.375 87.2447 116.957 86.699 117.271L79.8784 121.233C79.3327 121.547 79 122.136 79 122.765L79 131.705L84.7227 135.031L86.1534 153.454C86.1534 153.494 86.1534 154.123 86.1534 154.123L87.5841 154.952L89.0147 154.123V153.454L90.1992 138.203L94.9571 140.967L112.618 151.225L143.367 169.079L144.791 187.501C144.791 187.541 144.791 188.17 144.791 188.17L146.222 189L147.653 188.17V187.501L149.083 169.072L146.229 170.732L167.569 158.339C168.66 157.703 169.332 156.538 169.332 155.274L169.332 134.523C169.332 134.523 169.332 134.509 169.332 134.503C169.332 133.231 168.773 131.913 167.702 130.682C167.769 130.755 167.842 130.829 167.902 130.902L168.853 130.347C169.945 129.718 170.617 128.547 170.617 127.282L170.617 106.511C170.617 106.558 170.617 106.605 170.61 106.652C170.61 106.672 170.61 106.685 170.61 106.698C170.65 104.504 169.958 102.255 168.56 100.074C173.478 96.4199 175.973 92.4651 175.993 88.8984H176V86.7705C176 86.8508 175.993 86.9311 175.987 87.0114L175.967 87.0181ZM175.94 87.4798C175.933 87.5869 175.914 87.6872 175.9 87.7943C175.914 87.6872 175.927 87.5869 175.94 87.4798ZM175.834 88.2627C175.814 88.3698 175.787 88.4769 175.767 88.5839C175.794 88.4769 175.814 88.3698 175.834 88.2627ZM175.647 89.0524C175.621 89.1594 175.581 89.2665 175.548 89.3736C175.581 89.2665 175.614 89.1594 175.647 89.0524ZM175.388 89.8554C175.348 89.9624 175.308 90.0695 175.261 90.1699C175.301 90.0628 175.348 89.9557 175.388 89.8554ZM174.636 91.4748C174.576 91.5751 174.516 91.6822 174.456 91.7826C174.516 91.6755 174.576 91.5751 174.636 91.4748ZM165.047 128.5C165.253 128.627 165.466 128.754 165.653 128.888C165.46 128.754 165.253 128.627 165.047 128.5ZM166.558 129.577C166.431 129.477 166.298 129.377 166.165 129.27C166.298 129.37 166.431 129.47 166.558 129.577ZM168.714 112.386C168.78 112.286 168.84 112.192 168.906 112.092C168.84 112.192 168.78 112.293 168.714 112.386ZM147.094 160.259C146.941 160.346 146.808 160.466 146.688 160.594C146.808 160.466 146.941 160.353 147.094 160.259L153.914 156.304L147.094 160.266V160.259ZM166.997 129.972C167.11 130.079 167.23 130.186 167.336 130.3C167.23 130.193 167.11 130.079 166.997 129.972ZM170.543 107.481C170.543 107.414 170.557 107.348 170.563 107.281C170.563 107.348 170.55 107.414 170.543 107.481ZM169.785 110.439C169.811 110.379 169.838 110.325 169.858 110.265C169.831 110.325 169.805 110.379 169.785 110.439ZM170.437 108.251C170.45 108.177 170.464 108.104 170.477 108.023C170.464 108.097 170.45 108.171 170.437 108.251ZM167.549 98.6951C167.549 98.6951 167.576 98.6751 167.589 98.6684C167.576 98.6751 167.562 98.6884 167.549 98.6951ZM168.194 98.2468C168.341 98.1397 168.474 98.0327 168.62 97.9323C168.481 98.0393 168.341 98.1464 168.194 98.2468ZM169.246 97.4572C169.372 97.3568 169.492 97.2564 169.612 97.156C169.485 97.2564 169.372 97.3568 169.246 97.4572ZM171.116 95.8511C171.222 95.7508 171.315 95.6571 171.415 95.5567C171.315 95.6571 171.216 95.7508 171.116 95.8511ZM171.934 95.0414C172.027 94.9411 172.121 94.8474 172.207 94.747C172.114 94.8474 172.027 94.9411 171.934 95.0414ZM172.926 93.9306C172.846 94.031 172.759 94.1314 172.673 94.2251C172.759 94.1247 172.839 94.0243 172.926 93.9306Z" fill="black"/>
<path d="M76.8162 151.043C76.6969 150.977 76.5379 150.983 76.3656 151.09L60.6361 160.333C60.4704 160.426 60.3247 160.592 60.212 160.771C60.212 160.771 60.212 160.778 60.2054 160.784C60.159 160.864 60.1193 160.944 60.0928 161.03C60.0795 161.056 60.0663 161.083 60.0596 161.11C60.0331 161.203 60.0199 161.289 60.0133 161.375C60.0133 161.395 60 161.422 60 161.442V164.131C60 164.224 60.0199 164.297 60.0464 164.363C60.0795 164.443 60.1259 164.509 60.1921 164.549L60.2982 164.609V167.358L60.8216 167.664L61.6366 175.738V176.402L63.0611 177.225L64.4856 176.402V175.738L65.0555 170.114L94.9509 187.425L95.7725 195.513C95.7725 195.552 95.7725 196.177 95.7725 196.177L97.1971 197L98.6216 196.177V195.513L99.4366 187.431L108.103 182.425L108.673 188.056V188.72L110.097 189.543L111.522 188.72V188.056L112.337 179.981L112.874 179.669V176.953L113.357 176.668C113.622 176.515 113.848 176.196 113.947 175.871C113.98 175.765 114 175.658 114 175.552V172.863C114 172.657 113.927 172.511 113.814 172.444L76.8294 151.036L76.8162 151.043Z" fill="black"/>
</svg>
