<svg width="190" height="44" viewBox="0 0 190 44" fill="none" xmlns="http://www.w3.org/2000/svg">
<rect width="190" height="44" fill="white" fill-opacity="0.2"/>
<path d="M36.7188 33.3438C37.9453 33.3438 38.8633 33.0391 39.4727 32.4297C40.0898 31.8281 40.3984 30.9219 40.3984 29.7109V15.4023C40.3984 14.1914 40.0898 13.2852 39.4727 12.6836C38.8633 12.0742 37.9453 11.7695 36.7188 11.7695H26.5352C26.0742 11.7695 25.6367 11.8125 25.2227 11.8984C24.8164 11.9844 24.4258 12.1289 24.0508 12.332C23.6836 12.5352 23.3398 12.8047 23.0195 13.1406L16.1172 20.3125C15.8594 20.5703 15.6484 20.8242 15.4844 21.0742C15.3203 21.3242 15.1992 21.5703 15.1211 21.8125C15.043 22.0469 15.0039 22.2891 15.0039 22.5391C15.0039 22.8984 15.0938 23.2617 15.2734 23.6289C15.4531 23.9883 15.7344 24.3672 16.1172 24.7656L23.0312 31.9023C23.3516 32.2383 23.6953 32.5117 24.0625 32.7227C24.4375 32.9336 24.8281 33.0859 25.2344 33.1797C25.6484 33.2812 26.0859 33.332 26.5469 33.332L36.7188 33.3438ZM36.6953 31.457H26.5117C26.0664 31.457 25.6875 31.3945 25.375 31.2695C25.0625 31.1445 24.7539 30.9258 24.4492 30.6133L17.582 23.5234C17.3867 23.3203 17.25 23.1445 17.1719 22.9961C17.1016 22.8398 17.0664 22.6875 17.0664 22.5391C17.0664 22.25 17.2383 21.918 17.582 21.543L24.4375 14.4297C24.7422 14.1172 25.0508 13.9102 25.3633 13.8086C25.6836 13.707 26.0625 13.6562 26.5 13.6562H36.6953C37.2812 13.6562 37.7305 13.8125 38.043 14.125C38.3555 14.4297 38.5117 14.8867 38.5117 15.4961V29.6172C38.5117 30.2266 38.3555 30.6875 38.043 31C37.7305 31.3047 37.2812 31.457 36.6953 31.457ZM25.8555 27.5078C26.1289 27.5078 26.3555 27.4102 26.5352 27.2148L29.8516 23.8867L33.1914 27.2148C33.3789 27.4102 33.6016 27.5078 33.8594 27.5078C34.1172 27.5078 34.3359 27.4141 34.5156 27.2266C34.7031 27.0391 34.7969 26.8164 34.7969 26.5586C34.7969 26.3008 34.7031 26.0781 34.5156 25.8906L31.1875 22.5625L34.5273 19.2109C34.7148 19.0234 34.8086 18.8047 34.8086 18.5547C34.8086 18.2969 34.7148 18.0781 34.5273 17.8984C34.3477 17.7109 34.1289 17.6172 33.8711 17.6172C33.6289 17.6172 33.4141 17.7148 33.2266 17.9102L29.8516 21.25L26.5117 17.9219C26.3398 17.7344 26.1211 17.6406 25.8555 17.6406C25.5977 17.6406 25.375 17.7305 25.1875 17.9102C25.0078 18.0898 24.918 18.3086 24.918 18.5664C24.918 18.8242 25.0117 19.043 25.1992 19.2227L28.5273 22.5625L25.1992 25.9023C25.0117 26.082 24.918 26.3008 24.918 26.5586C24.918 26.8164 25.0078 27.0391 25.1875 27.2266C25.375 27.4141 25.5977 27.5078 25.8555 27.5078Z" fill="#032B3D"/>
<path d="M62 12.5C62.6333 12.4167 63.2917 12.3667 63.975 12.35C64.675 12.3167 65.2667 12.3 65.75 12.3C67.2667 12.3 68.5333 12.5167 69.55 12.95C70.5833 13.3833 71.4083 13.9917 72.025 14.775C72.6583 15.5417 73.1083 16.4667 73.375 17.55C73.6583 18.6333 73.8 19.825 73.8 21.125C73.8 22.3083 73.675 23.45 73.425 24.55C73.175 25.6333 72.7417 26.6 72.125 27.45C71.5083 28.2833 70.675 28.9583 69.625 29.475C68.5917 29.975 67.2917 30.225 65.725 30.225C65.5083 30.225 65.225 30.2167 64.875 30.2C64.525 30.2 64.1667 30.1833 63.8 30.15C63.4333 30.1333 63.0833 30.1167 62.75 30.1C62.4167 30.0833 62.1667 30.0583 62 30.025V12.5ZM65.85 14.15C65.6167 14.15 65.3167 14.1583 64.95 14.175C64.6 14.1917 64.3083 14.225 64.075 14.275V28.275C64.1583 28.2917 64.275 28.3083 64.425 28.325C64.5917 28.325 64.7583 28.3333 64.925 28.35C65.0917 28.35 65.25 28.3583 65.4 28.375C65.5667 28.375 65.7 28.375 65.8 28.375C67.0167 28.375 68 28.175 68.75 27.775C69.5167 27.375 70.1083 26.8417 70.525 26.175C70.9417 25.4917 71.225 24.7167 71.375 23.85C71.525 22.9667 71.6 22.0583 71.6 21.125C71.6 20.3083 71.5333 19.4917 71.4 18.675C71.2667 17.8417 70.9917 17.0917 70.575 16.425C70.175 15.7583 69.5917 15.2167 68.825 14.8C68.075 14.3667 67.0833 14.15 65.85 14.15ZM87.2152 28.425C86.9152 28.6917 86.5569 28.9417 86.1402 29.175C85.7402 29.4083 85.2986 29.6083 84.8152 29.775C84.3319 29.9417 83.8236 30.0667 83.2902 30.15C82.7736 30.25 82.2486 30.3 81.7152 30.3C80.7152 30.3 79.8319 30.15 79.0652 29.85C78.2986 29.5333 77.6569 29.0917 77.1402 28.525C76.6236 27.9417 76.2319 27.25 75.9652 26.45C75.6986 25.65 75.5652 24.75 75.5652 23.75C75.5652 22.7 75.7069 21.7667 75.9902 20.95C76.2902 20.1333 76.7152 19.45 77.2652 18.9C77.8152 18.35 78.4819 17.9333 79.2652 17.65C80.0486 17.35 80.9236 17.2 81.8902 17.2C82.5902 17.2 83.2819 17.2917 83.9652 17.475C84.6486 17.6583 85.2486 18.0083 85.7652 18.525C86.2986 19.025 86.7069 19.725 86.9902 20.625C87.2736 21.5083 87.3736 22.6583 87.2902 24.075H77.6152C77.6152 25.575 78.0152 26.7 78.8152 27.45C79.6319 28.1833 80.7152 28.55 82.0652 28.55C82.5152 28.55 82.9569 28.5 83.3902 28.4C83.8402 28.2833 84.2652 28.15 84.6652 28C85.0652 27.85 85.4152 27.6833 85.7152 27.5C86.0319 27.3167 86.2736 27.15 86.4402 27L87.2152 28.425ZM81.9402 18.85C81.3902 18.85 80.8652 18.9083 80.3652 19.025C79.8819 19.1417 79.4486 19.3417 79.0652 19.625C78.6986 19.8917 78.3902 20.25 78.1402 20.7C77.9069 21.1333 77.7569 21.675 77.6902 22.325H85.4652C85.3819 21.225 85.0236 20.375 84.3902 19.775C83.7736 19.1583 82.9569 18.85 81.9402 18.85ZM98.9305 26.625C98.9305 26.0917 98.7221 25.6833 98.3055 25.4C97.8888 25.1 97.3721 24.8667 96.7555 24.7C96.1388 24.5167 95.4638 24.35 94.7305 24.2C94.0138 24.05 93.3471 23.85 92.7305 23.6C92.1138 23.35 91.5971 23.0167 91.1805 22.6C90.7638 22.1667 90.5555 21.5667 90.5555 20.8C90.5555 20.1667 90.6888 19.625 90.9555 19.175C91.2388 18.725 91.6055 18.3583 92.0555 18.075C92.5055 17.775 93.0305 17.5583 93.6305 17.425C94.2305 17.275 94.8555 17.2 95.5055 17.2C96.6721 17.2 97.6721 17.35 98.5055 17.65C99.3555 17.9333 100.03 18.2333 100.53 18.55L99.7305 20.125C99.1805 19.825 98.5805 19.5417 97.9305 19.275C97.2971 18.9917 96.4971 18.85 95.5305 18.85C95.1638 18.85 94.7971 18.8917 94.4305 18.975C94.0805 19.0417 93.7555 19.15 93.4555 19.3C93.1721 19.45 92.9388 19.65 92.7555 19.9C92.5888 20.1333 92.5055 20.425 92.5055 20.775C92.5055 21.2083 92.7138 21.5417 93.1305 21.775C93.5471 22.0083 94.0638 22.2083 94.6805 22.375C95.2971 22.525 95.9638 22.675 96.6805 22.825C97.4138 22.9583 98.0888 23.1583 98.7055 23.425C99.3221 23.6917 99.8388 24.05 100.255 24.5C100.672 24.95 100.88 25.5583 100.88 26.325C100.88 27.475 100.422 28.425 99.5055 29.175C98.6055 29.925 97.2471 30.3 95.4305 30.3C94.8805 30.3 94.3388 30.25 93.8055 30.15C93.2721 30.05 92.7721 29.9167 92.3055 29.75C91.8388 29.5833 91.4138 29.4 91.0305 29.2C90.6471 28.9833 90.3305 28.7667 90.0805 28.55L91.0805 26.925C91.2805 27.125 91.5471 27.3333 91.8805 27.55C92.2138 27.75 92.5805 27.9333 92.9805 28.1C93.3805 28.2667 93.8055 28.4 94.2555 28.5C94.7221 28.6 95.1888 28.65 95.6555 28.65C96.1055 28.65 96.5221 28.6167 96.9055 28.55C97.3055 28.4667 97.6555 28.35 97.9555 28.2C98.2555 28.0333 98.4888 27.825 98.6555 27.575C98.8388 27.3083 98.9305 26.9917 98.9305 26.625ZM104.171 30V28.325H107.146V19.175H104.171V17.5H107.146V16.8C107.146 15.2333 107.554 14.1 108.371 13.4C109.187 12.7 110.354 12.35 111.871 12.35C112.421 12.35 112.912 12.3833 113.346 12.45C113.779 12.5167 114.246 12.65 114.746 12.85L114.296 14.475C113.862 14.2917 113.446 14.175 113.046 14.125C112.646 14.0583 112.279 14.025 111.946 14.025C110.846 14.025 110.096 14.3 109.696 14.85C109.296 15.3833 109.096 16.2667 109.096 17.5H114.271V19.175H109.096V28.325H114.271V30H104.171ZM118.661 18.475C119.378 18.0583 120.186 17.7583 121.086 17.575C121.986 17.3917 122.869 17.3 123.736 17.3C124.586 17.3 125.278 17.4333 125.811 17.7C126.361 17.9667 126.786 18.3167 127.086 18.75C127.403 19.1667 127.611 19.65 127.711 20.2C127.828 20.7333 127.886 21.275 127.886 21.825C127.886 22.4583 127.869 23.1333 127.836 23.85C127.803 24.5667 127.778 25.2833 127.761 26C127.761 26.8333 127.811 27.625 127.911 28.375H129.586V30H126.261L126.036 28.125H125.911C125.811 28.275 125.661 28.4667 125.461 28.7C125.261 28.9333 124.994 29.1667 124.661 29.4C124.344 29.6167 123.953 29.8083 123.486 29.975C123.019 30.1417 122.469 30.225 121.836 30.225C120.603 30.225 119.628 29.9083 118.911 29.275C118.194 28.6417 117.836 27.775 117.836 26.675C117.836 25.825 118.019 25.1167 118.386 24.55C118.769 23.9833 119.311 23.55 120.011 23.25C120.711 22.95 121.553 22.775 122.536 22.725C123.536 22.675 124.653 22.7417 125.886 22.925C125.969 22.1583 125.978 21.525 125.911 21.025C125.861 20.5083 125.728 20.1 125.511 19.8C125.311 19.5 125.019 19.2917 124.636 19.175C124.269 19.0417 123.811 18.975 123.261 18.975C122.511 18.975 121.794 19.0833 121.111 19.3C120.428 19.5 119.819 19.7083 119.286 19.925L118.661 18.475ZM122.336 28.55C122.803 28.55 123.236 28.475 123.636 28.325C124.036 28.175 124.386 27.9833 124.686 27.75C124.986 27.5167 125.236 27.2667 125.436 27C125.636 26.7167 125.786 26.45 125.886 26.2V24.45C125.019 24.3 124.219 24.225 123.486 24.225C122.753 24.225 122.119 24.3083 121.586 24.475C121.053 24.625 120.636 24.8667 120.336 25.2C120.036 25.5333 119.886 25.9667 119.886 26.5C119.886 27.05 120.069 27.5333 120.436 27.95C120.819 28.35 121.453 28.55 122.336 28.55ZM132.051 28.325L140.526 19.175H132.051V17.5H142.851V19.175L134.301 28.325H142.851V30H132.051V28.325ZM157.166 28.425C156.866 28.6917 156.508 28.9417 156.091 29.175C155.691 29.4083 155.25 29.6083 154.766 29.775C154.283 29.9417 153.775 30.0667 153.241 30.15C152.725 30.25 152.2 30.3 151.666 30.3C150.666 30.3 149.783 30.15 149.016 29.85C148.25 29.5333 147.608 29.0917 147.091 28.525C146.575 27.9417 146.183 27.25 145.916 26.45C145.65 25.65 145.516 24.75 145.516 23.75C145.516 22.7 145.658 21.7667 145.941 20.95C146.241 20.1333 146.666 19.45 147.216 18.9C147.766 18.35 148.433 17.9333 149.216 17.65C150 17.35 150.875 17.2 151.841 17.2C152.541 17.2 153.233 17.2917 153.916 17.475C154.6 17.6583 155.2 18.0083 155.716 18.525C156.25 19.025 156.658 19.725 156.941 20.625C157.225 21.5083 157.325 22.6583 157.241 24.075H147.566C147.566 25.575 147.966 26.7 148.766 27.45C149.583 28.1833 150.666 28.55 152.016 28.55C152.466 28.55 152.908 28.5 153.341 28.4C153.791 28.2833 154.216 28.15 154.616 28C155.016 27.85 155.366 27.6833 155.666 27.5C155.983 27.3167 156.225 27.15 156.391 27L157.166 28.425ZM151.891 18.85C151.341 18.85 150.816 18.9083 150.316 19.025C149.833 19.1417 149.4 19.3417 149.016 19.625C148.65 19.8917 148.341 20.25 148.091 20.7C147.858 21.1333 147.708 21.675 147.641 22.325H155.416C155.333 21.225 154.975 20.375 154.341 19.775C153.725 19.1583 152.908 18.85 151.891 18.85ZM159.582 30V28.325H162.957V19.175H159.582V17.5H164.257L164.657 19.125H164.782C165.348 18.6083 165.982 18.1667 166.682 17.8C167.382 17.4333 168.215 17.25 169.182 17.25C169.748 17.25 170.198 17.3583 170.532 17.575C170.882 17.7917 171.148 18.1083 171.332 18.525C171.532 18.9417 171.665 19.45 171.732 20.05C171.798 20.6333 171.832 21.3 171.832 22.05L170.082 22.075C170.082 21.0083 169.973 20.225 169.757 19.725C169.557 19.225 169.182 18.975 168.632 18.975C168.115 18.975 167.648 19.05 167.232 19.2C166.815 19.35 166.448 19.5333 166.132 19.75C165.832 19.9667 165.573 20.1833 165.357 20.4C165.14 20.6167 164.982 20.8 164.882 20.95V28.325H169.682V30H159.582Z" fill="#032B3D"/>
<path opacity="0.25" d="M182.837 35.3023L190 22V44H144L182.837 35.3023Z" fill="white"/>
</svg>
