<svg width="237" height="237" viewBox="0 0 237 237" fill="none" xmlns="http://www.w3.org/2000/svg">
<path d="M201.402 236.486L236.5 92.0177L118.5 0.486339L0.499999 92.0177L35.5981 236.486L201.402 236.486Z" fill="white" fill-opacity="0.3"/>
<path d="M201.402 236.486L236.5 92.0177L118.5 0.486339L0.499999 92.0177L35.5981 236.486L201.402 236.486Z" fill="#D32833"/>
<g clip-path="url(#clip0_612_41100)">
<g filter="url(#filter0_d_612_41100)">
<path d="M54.5 159.723L54.5 172.143L110.117 190.486L183.49 111.399V103.115L110.717 178.849L54.5 159.723Z" fill="#3A1B0F"/>
<path d="M183.49 103.115L128.851 86.155L54.5 159.724L110.717 178.849L183.49 103.115Z" fill="#542D1E"/>
<path d="M129.396 83.4863C130.779 83.6819 151.343 90.4855 151.343 90.4855L137.932 103.702L115.942 96.8002L129.396 83.4863Z" fill="#7A4A35"/>
<path d="M115.928 100.251V96.7998L137.932 103.701L138.337 107.739L115.928 100.251Z" fill="#3A1B0F"/>
<path d="M151.343 90.4851L152.321 93.9358L138.337 107.739L137.932 103.701L151.343 90.4851Z" fill="#4C2416"/>
<path d="M157.323 92.623C158.706 92.8186 179.27 99.6223 179.27 99.6223L165.859 112.838L143.869 105.937L157.323 92.623Z" fill="#7A4A35"/>
<path d="M143.855 109.387V105.937L165.859 112.838L166.264 116.89L143.855 109.387Z" fill="#3A1B0F"/>
<path d="M179.27 99.6221L180.248 103.087L166.264 116.89L165.859 112.838L179.27 99.6221Z" fill="#4C2416"/>
<path d="M112.436 100.838C113.819 101.033 134.383 107.837 134.383 107.837L120.971 121.053L98.9819 114.152L112.436 100.838Z" fill="#7A4A35"/>
<path d="M98.968 117.602V114.151L120.972 121.053L121.377 125.104L98.968 117.602Z" fill="#3A1B0F"/>
<path d="M134.383 107.851L135.361 111.302L121.377 125.105L120.971 121.053L134.383 107.851Z" fill="#4C2416"/>
<path d="M140.363 109.989C141.746 110.184 162.31 116.988 162.31 116.988L148.898 130.204L126.909 123.302L140.363 109.989Z" fill="#7A4A35"/>
<path d="M126.895 126.753V123.302L148.899 130.204L149.304 134.241L126.895 126.753Z" fill="#3A1B0F"/>
<path d="M162.31 116.988L163.288 120.438L149.304 134.241L148.898 130.204L162.31 116.988Z" fill="#4C2416"/>
<path d="M93.3659 119.628C94.749 119.824 115.314 126.627 115.314 126.627L101.902 139.843L79.9124 132.942L93.3659 119.628Z" fill="#7A4A35"/>
<path d="M79.9124 136.393V132.942L101.902 139.843L102.307 143.895L79.9124 136.393Z" fill="#331D10"/>
<path d="M115.314 126.627L116.305 130.078L102.307 143.895L101.902 139.843L115.314 126.627Z" fill="#4C2416"/>
<path d="M121.293 128.765C122.676 128.96 143.241 135.764 143.241 135.764L129.829 148.98L107.839 142.079L121.293 128.765Z" fill="#7A4A35"/>
<path d="M107.825 145.529V142.078L129.829 148.98L130.234 153.031L107.825 145.529Z" fill="#3A1B0F"/>
<path d="M143.241 135.778L144.218 139.229L130.234 153.031L129.829 148.98L143.241 135.778Z" fill="#4C2416"/>
<path d="M90.5 121.987L54.5 159.723L110.717 178.849L133.5 155.487L102.5 127.987L90.5 121.987Z" fill="#D32833"/>
<path d="M90.5 121.987L54.5 159.723L110.717 178.849L133.5 155.487L102.5 127.987L90.5 121.987Z" fill="url(#paint0_linear_612_41100)"/>
<path d="M110.717 178.85L110.117 190.487L140 158.592L132.5 155.987L110.717 178.85Z" fill="#811219"/>
<path d="M110.117 190.487L110.717 178.849L54.5 159.724L54.5 172.144L110.117 190.487Z" fill="#600C14"/>
<path d="M84.5 124.987L89 120.987L104 125.987L137 151.487L142.17 159.3L132.409 156.487L100.5 129.987L84.5 124.987Z" fill="#ECDAD8"/>
<path d="M132.5 156.487L137 151.487L144 154.487V153.987L145.5 154.987L142 159.487L132.5 156.487Z" fill="#B2A4A3"/>
</g>
</g>
<defs>
<filter id="filter0_d_612_41100" x="48.5" y="79.4863" width="144.99" height="123.001" filterUnits="userSpaceOnUse" color-interpolation-filters="sRGB">
<feFlood flood-opacity="0" result="BackgroundImageFix"/>
<feColorMatrix in="SourceAlpha" type="matrix" values="0 0 0 0 0 0 0 0 0 0 0 0 0 0 0 0 0 0 127 0" result="hardAlpha"/>
<feOffset dx="2" dy="4"/>
<feGaussianBlur stdDeviation="4"/>
<feComposite in2="hardAlpha" operator="out"/>
<feColorMatrix type="matrix" values="0 0 0 0 0 0 0 0 0 0.137376 0 0 0 0 0.195833 0 0 0 0.4 0"/>
<feBlend mode="normal" in2="BackgroundImageFix" result="effect1_dropShadow_612_41100"/>
<feBlend mode="normal" in="SourceGraphic" in2="effect1_dropShadow_612_41100" result="shape"/>
</filter>
<linearGradient id="paint0_linear_612_41100" x1="80.1223" y1="178.469" x2="111.178" y2="105.843" gradientUnits="userSpaceOnUse">
<stop stop-color="#6F081B"/>
<stop offset="0.598958" stop-color="#FB404B"/>
<stop offset="1" stop-color="#FF978C"/>
</linearGradient>
<clipPath id="clip0_612_41100">
<rect width="144" height="144" fill="white" transform="translate(46.5 64.4863)"/>
</clipPath>
</defs>
</svg>
