<svg width="236" height="236" viewBox="0 0 236 236" fill="none" xmlns="http://www.w3.org/2000/svg">
<path d="M236 35.0981L91.5313 0L0 118L91.5313 236L236 200.902V35.0981Z" fill="white" fill-opacity="0.2"/>
<path d="M233 198.543V37.4565L92.711 3.37386L3.79674 118L92.711 232.626L233 198.543Z" fill="#0E516A" fill-opacity="0.6" stroke="#00739F" stroke-width="6"/>
<g clip-path="url(#clip0_340_23541)">
<g clip-path="url(#clip1_340_23541)">
<g filter="url(#filter0_d_340_23541)">
<path d="M189.519 159.505C189.519 159.547 189.519 160.213 189.519 160.213L191.044 161.091V160.383L189.519 159.505Z" fill="white"/>
<path d="M191.044 160.383L191.044 141.756L194.096 140L192.57 159.505L191.044 160.383Z" fill="#568C9B"/>
<path d="M191.044 160.383L191.044 141.756L188 140L189.519 159.505L191.044 160.383Z" fill="#053448"/>
<path d="M192.57 159.505V160.213L191.044 161.091V160.383L192.57 159.505Z" fill="#DDDDDD"/>
<path d="M105.548 137.748L107.074 138.626V137.918L105.548 137.04" fill="#F5F5F5"/>
<path d="M107.074 137.918L107.074 119.291L110.118 117.535L108.6 137.04L107.074 137.918Z" fill="#568C9B"/>
<path d="M107.074 137.918L107.074 119.291L104.022 117.535L105.548 137.04L107.074 137.918Z" fill="#053448"/>
<path d="M108.6 137.04V137.748L107.074 138.626V137.918L108.6 137.04Z" fill="#DDDDDD"/>
<path d="M168.081 173.075C168.081 173.117 168.081 173.783 168.081 173.783L169.607 174.661V173.953L168.081 173.075Z" fill="white"/>
<path d="M169.607 173.953L169.607 155.326L172.658 153.57L171.133 173.075L169.607 173.953Z" fill="#568C9B"/>
<path d="M169.607 173.953L169.607 155.326L166.563 153.57L168.081 173.075L169.607 173.953Z" fill="#053448"/>
<path d="M171.133 173.075V173.783L169.607 174.661V173.953L171.133 173.075Z" fill="#DDDDDD"/>
<path d="M195.615 87.3567L195.615 109.34C195.615 110.679 194.898 111.918 193.735 112.584L192.72 113.172C191.897 112.166 190.74 111.21 189.264 110.36C185.971 108.469 184.289 106.04 184.289 103.745C184.289 101.84 185.446 100.02 187.802 98.6602C192.982 95.6714 195.551 91.6911 195.594 87.5054C195.601 87.4558 195.601 87.4063 195.601 87.3567H195.615Z" fill="#053448"/>
<path d="M189.271 110.36C185.985 108.469 184.297 106.04 184.297 103.745C184.297 101.84 185.453 100.02 187.809 98.6601C199.362 92.0026 197.914 80.3734 184.573 72.689L182.969 71.7682C169.628 64.0768 149.446 63.2481 137.893 69.8985L108.011 87.1229C107.429 87.4557 107.074 88.079 107.074 88.7447L107.074 97.1303C107.074 97.8031 106.719 98.4193 106.137 98.7522L98.8634 102.945C98.2815 103.278 97.9266 103.901 97.9266 104.567L97.9266 114.029L169.614 155.333L169.614 145.871C169.614 145.198 169.969 144.582 170.551 144.249L177.825 140.064C178.407 139.731 178.761 139.108 178.761 138.442L178.761 130.056C178.761 129.383 179.116 128.767 179.698 128.434L190.733 122.074C193.089 120.715 194.246 118.894 194.246 116.996C194.246 114.695 192.557 112.265 189.271 110.374V110.36Z" fill="white"/>
<path d="M188.334 111.982C184.58 109.822 182.423 106.819 182.423 103.738C182.423 101.068 184.006 98.6882 186.88 97.0309C191.301 94.4813 193.742 91.0534 193.742 87.3706C193.742 82.7599 190.059 77.9935 183.644 74.2965L182.04 73.3758C175.306 69.4946 166.35 67.2637 157.479 67.2637C150.206 67.2637 143.592 68.7722 138.837 71.506L109.891 88.1921C109.309 88.525 108.954 89.1483 108.954 89.814L108.954 98.1995C108.954 98.8724 108.6 99.4885 108.018 99.8214L100.744 104.014C100.162 104.347 99.8073 104.97 99.8073 105.636L99.8073 115.098L167.741 154.242L167.741 144.78C167.741 144.108 168.096 143.491 168.677 143.159L175.951 138.966C176.533 138.633 176.888 138.01 176.888 137.344L176.888 128.958C176.888 128.293 177.243 127.669 177.825 127.336L189.796 120.438C190.974 119.765 192.372 118.611 192.372 116.982C192.372 115.353 190.861 113.441 188.334 111.982Z" fill="#00576B"/>
<path d="M182.416 103.745L182.416 113.158C182.416 116.203 184.538 119.185 188.235 121.338L184.006 123.774L124.24 89.3395L138.837 80.9256C143.585 78.1918 150.206 76.6833 157.479 76.6833C166.35 76.6833 175.305 78.9072 182.04 82.7883L183.637 83.709C187.802 86.1099 190.818 88.9642 192.415 91.9246C191.272 93.8298 189.399 95.572 186.88 97.0239C184.006 98.6812 182.423 101.061 182.423 103.731L182.416 103.745Z" fill="#063E51"/>
<path d="M99.8 112.62L99.8 115.105L167.734 154.25L167.734 151.764L99.8 112.62Z" fill="#DDDDDD"/>
<path d="M172.268 141.091L168.67 143.159C168.095 143.499 167.734 144.115 167.734 144.788L167.734 151.771L99.8071 112.62L111.346 105.976L172.268 141.084V141.091Z" fill="#D32833"/>
<path d="M184.006 123.774L177.825 127.337C177.456 127.556 177.172 127.882 177.016 128.272L111.339 90.4304L118.797 86.2093L183.998 123.774H184.006Z" fill="#10617A"/>
<path d="M177.016 128.279C176.93 128.491 176.881 128.725 176.881 128.966L176.881 137.351C176.881 138.017 176.526 138.633 175.944 138.973L172.268 141.084L111.346 105.976L111.346 90.4304L177.016 128.279Z" fill="#053448"/>
<path d="M172.268 141.083C172.268 141.083 172.254 141.076 172.247 141.076L172.268 141.09L169.224 142.84L168.67 143.159C168.67 143.159 168.649 143.173 168.642 143.18C168.351 143.357 168.117 143.605 167.961 143.895C167.812 144.164 167.734 144.469 167.734 144.787V150.269L101.106 111.876V109.602L111.346 103.71L174.234 139.957L172.268 141.09V141.083Z" fill="#053448"/>
<path d="M103.327 110.884L101.106 109.602L101.106 111.876L103.327 113.157L103.327 110.884Z" fill="#E1E1E1"/>
<path d="M103.327 110.884L101.106 109.602L101.106 111.876L103.327 113.157L103.327 110.884Z" stroke="#D32833" stroke-width="0.05" stroke-miterlimit="10"/>
<path d="M105.853 112.336L103.632 111.054L103.632 113.327L105.853 114.609L105.853 112.336Z" fill="#E1E1E1"/>
<path d="M105.853 112.336L103.632 111.054L103.632 113.327L105.853 114.609L105.853 112.336Z" stroke="#D32833" stroke-width="0.05" stroke-miterlimit="10"/>
<path d="M108.38 113.795L106.158 112.513L106.158 114.786L108.38 116.068L108.38 113.795Z" fill="#E1E1E1"/>
<path d="M108.38 113.795L106.158 112.513L106.158 114.786L108.38 116.068L108.38 113.795Z" stroke="#D32833" stroke-width="0.05" stroke-miterlimit="10"/>
<path d="M110.906 115.254L108.685 113.972L108.685 116.246L110.906 117.527L110.906 115.254Z" fill="#E1E1E1"/>
<path d="M110.906 115.254L108.685 113.972L108.685 116.246L110.906 117.527L110.906 115.254Z" stroke="#D32833" stroke-width="0.05" stroke-miterlimit="10"/>
<path d="M113.439 116.705L111.211 115.424L111.211 117.697L113.439 118.979L113.439 116.705Z" fill="#E1E1E1"/>
<path d="M113.439 116.705L111.211 115.424L111.211 117.697L113.439 118.979L113.439 116.705Z" stroke="#D32833" stroke-width="0.05" stroke-miterlimit="10"/>
<path d="M115.966 118.165L113.737 116.883L113.737 119.156L115.966 120.438L115.966 118.165Z" fill="#E1E1E1"/>
<path d="M115.966 118.165L113.737 116.883L113.737 119.156L115.966 120.438L115.966 118.165Z" stroke="#D32833" stroke-width="0.05" stroke-miterlimit="10"/>
<path d="M118.492 119.617L116.264 118.342L116.264 120.615L118.492 121.89L118.492 119.617Z" fill="#E1E1E1"/>
<path d="M118.492 119.617L116.264 118.342L116.264 120.615L118.492 121.89L118.492 119.617Z" stroke="#D32833" stroke-width="0.05" stroke-miterlimit="10"/>
<path d="M121.018 121.075L118.79 119.794L118.79 122.067L121.018 123.349L121.018 121.075Z" fill="#E1E1E1"/>
<path d="M121.018 121.075L118.79 119.794L118.79 122.067L121.018 123.349L121.018 121.075Z" stroke="#D32833" stroke-width="0.05" stroke-miterlimit="10"/>
<path d="M123.545 122.534L121.323 121.252L121.323 123.526L123.545 124.808L123.545 122.534Z" fill="#E1E1E1"/>
<path d="M123.545 122.534L121.323 121.252L121.323 123.526L123.545 124.808L123.545 122.534Z" stroke="#D32833" stroke-width="0.05" stroke-miterlimit="10"/>
<path d="M126.071 123.986L123.85 122.704L123.85 124.978L126.071 126.26L126.071 123.986Z" fill="#E1E1E1"/>
<path d="M126.071 123.986L123.85 122.704L123.85 124.978L126.071 126.26L126.071 123.986Z" stroke="#D32833" stroke-width="0.05" stroke-miterlimit="10"/>
<path d="M128.597 125.445L126.376 124.163L126.376 126.437L128.597 127.719V125.445Z" fill="#E1E1E1"/>
<path d="M128.597 125.445L126.376 124.163L126.376 126.437L128.597 127.719V125.445Z" stroke="#D32833" stroke-width="0.05" stroke-miterlimit="10"/>
<path d="M131.124 126.897L128.902 125.622V127.896L131.124 129.171V126.897Z" fill="#E1E1E1"/>
<path d="M131.124 126.897L128.902 125.622V127.896L131.124 129.171V126.897Z" stroke="#D32833" stroke-width="0.05" stroke-miterlimit="10"/>
<path d="M133.657 128.356L131.429 127.074V129.348L133.657 130.63V128.356Z" fill="#E1E1E1"/>
<path d="M133.657 128.356L131.429 127.074V129.348L133.657 130.63V128.356Z" stroke="#D32833" stroke-width="0.05" stroke-miterlimit="10"/>
<path d="M136.183 129.815L133.955 128.533V130.807L136.183 132.089V129.815Z" fill="#E1E1E1"/>
<path d="M136.183 129.815L133.955 128.533V130.807L136.183 132.089V129.815Z" stroke="#D32833" stroke-width="0.05" stroke-miterlimit="10"/>
<path d="M138.709 131.267L136.481 129.985V132.259L138.709 133.541V131.267Z" fill="#E1E1E1"/>
<path d="M138.709 131.267L136.481 129.985V132.259L138.709 133.541V131.267Z" stroke="#D32833" stroke-width="0.05" stroke-miterlimit="10"/>
<path d="M141.236 132.726L139.008 131.444V133.717L141.236 134.999V132.726Z" fill="#E1E1E1"/>
<path d="M141.236 132.726L139.008 131.444V133.717L141.236 134.999V132.726Z" stroke="#D32833" stroke-width="0.05" stroke-miterlimit="10"/>
<path d="M143.762 134.185L141.541 132.903V135.177L143.762 136.459V134.185Z" fill="#E1E1E1"/>
<path d="M143.762 134.185L141.541 132.903V135.177L143.762 136.459V134.185Z" stroke="#D32833" stroke-width="0.05" stroke-miterlimit="10"/>
<path d="M146.288 135.637L144.067 134.355V136.628L146.288 137.91V135.637Z" fill="#E1E1E1"/>
<path d="M146.288 135.637L144.067 134.355V136.628L146.288 137.91V135.637Z" stroke="#D32833" stroke-width="0.05" stroke-miterlimit="10"/>
<path d="M148.815 137.096L146.594 135.814V138.088L148.815 139.369V137.096Z" fill="#E1E1E1"/>
<path d="M148.815 137.096L146.594 135.814V138.088L148.815 139.369V137.096Z" stroke="#D32833" stroke-width="0.05" stroke-miterlimit="10"/>
<path d="M151.341 138.548L149.12 137.273V139.546L151.341 140.821V138.548Z" fill="#E1E1E1"/>
<path d="M151.341 138.548L149.12 137.273V139.546L151.341 140.821V138.548Z" stroke="#D32833" stroke-width="0.05" stroke-miterlimit="10"/>
<path d="M153.874 140.007L151.646 138.725V140.998L153.874 142.28V140.007Z" fill="#E1E1E1"/>
<path d="M153.874 140.007L151.646 138.725V140.998L153.874 142.28V140.007Z" stroke="#D32833" stroke-width="0.05" stroke-miterlimit="10"/>
<path d="M156.401 141.466L154.172 140.184V142.457L156.401 143.739V141.466Z" fill="#E1E1E1"/>
<path d="M156.401 141.466L154.172 140.184V142.457L156.401 143.739V141.466Z" stroke="#D32833" stroke-width="0.05" stroke-miterlimit="10"/>
<path d="M158.927 142.918L156.699 141.636V143.909L158.927 145.191V142.918Z" fill="#E1E1E1"/>
<path d="M158.927 142.918L156.699 141.636V143.909L158.927 145.191V142.918Z" stroke="#D32833" stroke-width="0.05" stroke-miterlimit="10"/>
<path d="M161.453 144.376L159.225 143.094V145.368L161.453 146.65V144.376Z" fill="#E1E1E1"/>
<path d="M161.453 144.376L159.225 143.094V145.368L161.453 146.65V144.376Z" stroke="#D32833" stroke-width="0.05" stroke-miterlimit="10"/>
<path d="M163.98 145.829L161.758 144.554V146.827L163.98 148.102V145.829Z" fill="#E1E1E1"/>
<path d="M163.98 145.829L161.758 144.554V146.827L163.98 148.102V145.829Z" stroke="#D32833" stroke-width="0.05" stroke-miterlimit="10"/>
<path d="M166.506 147.288L164.285 146.006V148.279L166.506 149.561V147.288Z" fill="#E1E1E1"/>
<path d="M166.506 147.288L164.285 146.006V148.279L166.506 149.561V147.288Z" stroke="#D32833" stroke-width="0.05" stroke-miterlimit="10"/>
<path d="M167.734 147.996V150.269L166.811 149.738V147.464L167.734 147.996Z" fill="#E1E1E1"/>
<path d="M167.734 147.996V150.269L166.811 149.738V147.464L167.734 147.996Z" stroke="#D32833" stroke-width="0.05" stroke-miterlimit="10"/>
<path d="M111.346 103.71L101.106 109.602L103.327 110.884L113.567 104.992L111.346 103.71Z" fill="#F5F5F5"/>
<path d="M111.346 103.71L101.106 109.602L103.327 110.884L113.567 104.992L111.346 103.71Z" stroke="#D32833" stroke-width="0.05" stroke-miterlimit="10"/>
<path d="M113.872 105.169L103.632 111.054L105.853 112.336L116.093 106.45L113.872 105.169Z" fill="#F5F5F5"/>
<path d="M113.872 105.169L103.632 111.054L105.853 112.336L116.093 106.45L113.872 105.169Z" stroke="#D32833" stroke-width="0.05" stroke-miterlimit="10"/>
<path d="M116.399 106.621L106.158 112.513L108.38 113.795L118.627 107.902L116.399 106.621Z" fill="#F5F5F5"/>
<path d="M116.399 106.621L106.158 112.513L108.38 113.795L118.627 107.902L116.399 106.621Z" stroke="#D32833" stroke-width="0.05" stroke-miterlimit="10"/>
<path d="M118.925 108.08L108.685 113.972L110.906 115.254L121.153 109.362L118.925 108.08Z" fill="#F5F5F5"/>
<path d="M118.925 108.08L108.685 113.972L110.906 115.254L121.153 109.362L118.925 108.08Z" stroke="#D32833" stroke-width="0.05" stroke-miterlimit="10"/>
<path d="M121.451 109.539L111.211 115.424L113.439 116.706L123.679 110.821L121.451 109.539Z" fill="#F5F5F5"/>
<path d="M121.451 109.539L111.211 115.424L113.439 116.706L123.679 110.821L121.451 109.539Z" stroke="#D32833" stroke-width="0.05" stroke-miterlimit="10"/>
<path d="M123.985 110.991L113.737 116.883L115.966 118.165L126.206 112.273L123.985 110.991Z" fill="#F5F5F5"/>
<path d="M123.985 110.991L113.737 116.883L115.966 118.165L126.206 112.273L123.985 110.991Z" stroke="#D32833" stroke-width="0.05" stroke-miterlimit="10"/>
<path d="M126.511 112.449L116.264 118.342L118.492 119.617L128.732 113.731L126.511 112.449Z" fill="#F5F5F5"/>
<path d="M126.511 112.449L116.264 118.342L118.492 119.617L128.732 113.731L126.511 112.449Z" stroke="#D32833" stroke-width="0.05" stroke-miterlimit="10"/>
<path d="M129.037 113.908L118.79 119.794L121.018 121.076L131.258 115.183L129.037 113.908Z" fill="#F5F5F5"/>
<path d="M129.037 113.908L118.79 119.794L121.018 121.076L131.258 115.183L129.037 113.908Z" stroke="#D32833" stroke-width="0.05" stroke-miterlimit="10"/>
<path d="M131.563 115.36L121.323 121.253L123.545 122.535L133.785 116.642L131.563 115.36Z" fill="#F5F5F5"/>
<path d="M131.563 115.36L121.323 121.253L123.545 122.535L133.785 116.642L131.563 115.36Z" stroke="#D32833" stroke-width="0.05" stroke-miterlimit="10"/>
<path d="M134.09 116.819L123.85 122.705L126.071 123.987L136.311 118.101L134.09 116.819Z" fill="#F5F5F5"/>
<path d="M134.09 116.819L123.85 122.705L126.071 123.987L136.311 118.101L134.09 116.819Z" stroke="#D32833" stroke-width="0.05" stroke-miterlimit="10"/>
<path d="M136.616 118.271L126.376 124.163L128.597 125.445L138.844 119.553L136.616 118.271Z" fill="#F5F5F5"/>
<path d="M136.616 118.271L126.376 124.163L128.597 125.445L138.844 119.553L136.616 118.271Z" stroke="#D32833" stroke-width="0.05" stroke-miterlimit="10"/>
<path d="M139.142 119.73L128.902 125.623L131.124 126.898L141.371 121.012L139.142 119.73Z" fill="#F5F5F5"/>
<path d="M139.142 119.73L128.902 125.623L131.124 126.898L141.371 121.012L139.142 119.73Z" stroke="#D32833" stroke-width="0.05" stroke-miterlimit="10"/>
<path d="M141.669 121.189L131.429 127.074L133.657 128.356L143.897 122.471L141.669 121.189Z" fill="#F5F5F5"/>
<path d="M141.669 121.189L131.429 127.074L133.657 128.356L143.897 122.471L141.669 121.189Z" stroke="#D32833" stroke-width="0.05" stroke-miterlimit="10"/>
<path d="M144.202 122.641L133.955 128.534L136.183 129.815L146.423 123.923L144.202 122.641Z" fill="#F5F5F5"/>
<path d="M144.202 122.641L133.955 128.534L136.183 129.815L146.423 123.923L144.202 122.641Z" stroke="#D32833" stroke-width="0.05" stroke-miterlimit="10"/>
<path d="M146.728 124.1L136.481 129.985L138.709 131.267L148.95 125.382L146.728 124.1Z" fill="#F5F5F5"/>
<path d="M146.728 124.1L136.481 129.985L138.709 131.267L148.95 125.382L146.728 124.1Z" stroke="#D32833" stroke-width="0.05" stroke-miterlimit="10"/>
<path d="M149.255 125.559L139.008 131.445L141.236 132.726L151.476 126.841L149.255 125.559Z" fill="#F5F5F5"/>
<path d="M149.255 125.559L139.008 131.445L141.236 132.726L151.476 126.841L149.255 125.559Z" stroke="#D32833" stroke-width="0.05" stroke-miterlimit="10"/>
<path d="M151.781 127.011L141.541 132.904L143.762 134.186L154.002 128.293L151.781 127.011Z" fill="#F5F5F5"/>
<path d="M151.781 127.011L141.541 132.904L143.762 134.186L154.002 128.293L151.781 127.011Z" stroke="#D32833" stroke-width="0.05" stroke-miterlimit="10"/>
<path d="M154.307 128.47L144.067 134.355L146.288 135.637L156.528 129.752L154.307 128.47Z" fill="#F5F5F5"/>
<path d="M154.307 128.47L144.067 134.355L146.288 135.637L156.528 129.752L154.307 128.47Z" stroke="#D32833" stroke-width="0.05" stroke-miterlimit="10"/>
<path d="M156.834 129.929L146.594 135.814L148.815 137.096L159.062 131.211L156.834 129.929Z" fill="#F5F5F5"/>
<path d="M156.834 129.929L146.594 135.814L148.815 137.096L159.062 131.211L156.834 129.929Z" stroke="#D32833" stroke-width="0.05" stroke-miterlimit="10"/>
<path d="M159.36 131.381L149.12 137.273L151.341 138.548L161.588 132.663L159.36 131.381Z" fill="#F5F5F5"/>
<path d="M159.36 131.381L149.12 137.273L151.341 138.548L161.588 132.663L159.36 131.381Z" stroke="#D32833" stroke-width="0.05" stroke-miterlimit="10"/>
<path d="M161.886 132.839L151.646 138.725L153.874 140.007L164.114 134.121L161.886 132.839Z" fill="#F5F5F5"/>
<path d="M161.886 132.839L151.646 138.725L153.874 140.007L164.114 134.121L161.886 132.839Z" stroke="#D32833" stroke-width="0.05" stroke-miterlimit="10"/>
<path d="M164.42 134.299L154.172 140.184L156.401 141.466L166.641 135.574L164.42 134.299Z" fill="#F5F5F5"/>
<path d="M164.42 134.299L154.172 140.184L156.401 141.466L166.641 135.574L164.42 134.299Z" stroke="#D32833" stroke-width="0.05" stroke-miterlimit="10"/>
<path d="M166.946 135.751L156.699 141.636L158.927 142.918L169.167 137.033L166.946 135.751Z" fill="#F5F5F5"/>
<path d="M166.946 135.751L156.699 141.636L158.927 142.918L169.167 137.033L166.946 135.751Z" stroke="#D32833" stroke-width="0.05" stroke-miterlimit="10"/>
<path d="M169.472 137.21L159.225 143.095L161.453 144.377L171.693 138.491L169.472 137.21Z" fill="#F5F5F5"/>
<path d="M169.472 137.21L159.225 143.095L161.453 144.377L171.693 138.491L169.472 137.21Z" stroke="#D32833" stroke-width="0.05" stroke-miterlimit="10"/>
<path d="M171.999 138.661L161.758 144.554L163.98 145.829L174.22 139.943L171.999 138.661Z" fill="#F5F5F5"/>
<path d="M171.999 138.661L161.758 144.554L163.98 145.829L174.22 139.943L171.999 138.661Z" stroke="#D32833" stroke-width="0.05" stroke-miterlimit="10"/>
<path d="M167.961 143.895C167.812 144.165 167.734 144.469 167.734 144.788V146.587L166.506 147.288L164.285 146.006L167.968 143.895H167.961Z" fill="#F5F5F5"/>
<path d="M167.961 143.895C167.592 144.441 167.769 145.956 167.734 146.587L166.506 147.288L164.285 146.006L167.968 143.895H167.961Z" stroke="#D32833" stroke-width="0.05" stroke-miterlimit="10"/>
<path d="M167.734 146.934V147.996L166.811 147.465L167.734 146.934Z" fill="#F5F5F5"/>
<path d="M167.734 146.934V147.996L166.811 147.465L167.734 146.934Z" stroke="#D32833" stroke-width="0.05" stroke-miterlimit="10"/>
<path d="M108.862 108.052L107.422 107.223V107.896L108.862 108.724V108.052Z" fill="#568C9B"/>
<path d="M108.862 108.052L107.422 107.223V107.896L108.862 108.724V108.052Z" stroke="#D32833" stroke-width="0.05" stroke-miterlimit="10"/>
<path d="M108.862 108.051L114.454 104.829V105.502L108.862 108.724V108.051Z" fill="#2B6F81"/>
<path d="M108.862 108.051L114.454 104.829V105.502L108.862 108.724V108.051Z" stroke="#D32833" stroke-width="0.05" stroke-miterlimit="10"/>
<path d="M113.021 104L107.422 107.223L108.862 108.051L114.454 104.829L113.021 104Z" fill="#053448" stroke="#D32833" stroke-width="0.1" stroke-miterlimit="10"/>
<path d="M111.388 109.511L109.948 108.682V109.355L111.388 110.183V109.511Z" fill="#568C9B"/>
<path d="M111.388 109.511L109.948 108.682V109.355L111.388 110.183V109.511Z" stroke="#D32833" stroke-width="0.05" stroke-miterlimit="10"/>
<path d="M111.388 109.51L116.987 106.288V106.961L111.388 110.183V109.51Z" fill="#2B6F81"/>
<path d="M111.388 109.51L116.987 106.288V106.961L111.388 110.183V109.51Z" stroke="#D32833" stroke-width="0.05" stroke-miterlimit="10"/>
<path d="M115.547 105.459L109.948 108.682L111.388 109.51L116.987 106.288L115.547 105.459Z" fill="#053448" stroke="#D32833" stroke-width="0.1" stroke-miterlimit="10"/>
<path d="M116.441 112.421L115 111.593V112.265L116.441 113.094V112.421Z" fill="#568C9B"/>
<path d="M116.441 112.421L115 111.593V112.265L116.441 113.094V112.421Z" stroke="#D32833" stroke-width="0.05" stroke-miterlimit="10"/>
<path d="M116.441 112.421L122.033 109.192V109.872L116.441 113.094V112.421Z" fill="#2B6F81"/>
<path d="M116.441 112.421L122.033 109.192V109.872L116.441 113.094V112.421Z" stroke="#D32833" stroke-width="0.05" stroke-miterlimit="10"/>
<path d="M120.6 108.363L115 111.593L116.441 112.421L122.033 109.192L120.6 108.363Z" fill="#053448" stroke="#D32833" stroke-width="0.1" stroke-miterlimit="10"/>
<path d="M118.967 113.88L117.527 113.044V113.724L118.967 114.553V113.88Z" fill="#568C9B"/>
<path d="M118.967 113.88L117.527 113.044V113.724L118.967 114.553V113.88Z" stroke="#D32833" stroke-width="0.05" stroke-miterlimit="10"/>
<path d="M118.967 113.88L124.566 110.65V111.323L118.967 114.553V113.88Z" fill="#2B6F81"/>
<path d="M118.967 113.88L124.566 110.65V111.323L118.967 114.553V113.88Z" stroke="#D32833" stroke-width="0.05" stroke-miterlimit="10"/>
<path d="M123.126 109.822L117.527 113.044L118.967 113.873L124.566 110.651L123.126 109.822Z" fill="#053448" stroke="#D32833" stroke-width="0.1" stroke-miterlimit="10"/>
<path d="M121.501 115.332L120.06 114.503V115.176L121.501 116.005V115.332Z" fill="#568C9B"/>
<path d="M121.501 115.332L120.06 114.503V115.176L121.501 116.005V115.332Z" stroke="#D32833" stroke-width="0.05" stroke-miterlimit="10"/>
<path d="M121.501 115.332L127.093 112.109V112.782L121.501 116.005V115.332Z" fill="#2B6F81"/>
<path d="M121.501 115.332L127.093 112.109V112.782L121.501 116.005V115.332Z" stroke="#D32833" stroke-width="0.05" stroke-miterlimit="10"/>
<path d="M125.652 111.281L120.06 114.504L121.501 115.332L127.093 112.11L125.652 111.281Z" fill="#053448" stroke="#D32833" stroke-width="0.1" stroke-miterlimit="10"/>
<path d="M126.553 118.25L125.113 117.421V118.094L126.553 118.923V118.25Z" fill="#568C9B"/>
<path d="M126.553 118.25L125.113 117.421V118.094L126.553 118.923V118.25Z" stroke="#D32833" stroke-width="0.05" stroke-miterlimit="10"/>
<path d="M126.553 118.25L132.145 115.02V115.7L126.553 118.923V118.25Z" fill="#2B6F81"/>
<path d="M126.553 118.25L132.145 115.02V115.7L126.553 118.923V118.25Z" stroke="#D32833" stroke-width="0.05" stroke-miterlimit="10"/>
<path d="M130.705 114.192L125.113 117.421L126.553 118.25L132.145 115.021L130.705 114.192Z" fill="#053448" stroke="#D32833" stroke-width="0.1" stroke-miterlimit="10"/>
<path d="M129.08 119.702L127.639 118.873V119.553L129.08 120.382V119.702Z" fill="#568C9B"/>
<path d="M129.08 119.702L127.639 118.873V119.553L129.08 120.382V119.702Z" stroke="#D32833" stroke-width="0.05" stroke-miterlimit="10"/>
<path d="M129.08 119.702L134.679 116.479V117.152L129.08 120.382L129.08 119.702Z" fill="#2B6F81"/>
<path d="M129.08 119.702L134.679 116.479V117.152L129.08 120.382L129.08 119.702Z" stroke="#D32833" stroke-width="0.05" stroke-miterlimit="10"/>
<path d="M133.238 115.651L127.639 118.873L129.08 119.702L134.679 116.479L133.238 115.651Z" fill="#053448" stroke="#D32833" stroke-width="0.1" stroke-miterlimit="10"/>
<path d="M134.132 122.613L132.692 121.784V122.457L134.132 123.285V122.613Z" fill="#568C9B"/>
<path d="M134.132 122.613L132.692 121.784V122.457L134.132 123.285V122.613Z" stroke="#D32833" stroke-width="0.05" stroke-miterlimit="10"/>
<path d="M134.132 122.612L139.724 119.39V120.063L134.132 123.285L134.132 122.612Z" fill="#2B6F81"/>
<path d="M134.132 122.612L139.724 119.39V120.063L134.132 123.285L134.132 122.612Z" stroke="#D32833" stroke-width="0.05" stroke-miterlimit="10"/>
<path d="M138.284 118.562L132.692 121.784L134.132 122.613L139.724 119.39L138.284 118.562Z" fill="#053448" stroke="#D32833" stroke-width="0.1" stroke-miterlimit="10"/>
<path d="M136.659 124.071L135.218 123.243V123.916L136.659 124.744V124.071Z" fill="#568C9B"/>
<path d="M136.659 124.071L135.218 123.243V123.916L136.659 124.744V124.071Z" stroke="#D32833" stroke-width="0.05" stroke-miterlimit="10"/>
<path d="M136.659 124.071L142.258 120.849V121.522L136.659 124.744L136.659 124.071Z" fill="#2B6F81"/>
<path d="M136.659 124.071L142.258 120.849V121.522L136.659 124.744L136.659 124.071Z" stroke="#D32833" stroke-width="0.05" stroke-miterlimit="10"/>
<path d="M140.817 120.02L135.218 123.243L136.659 124.071L142.258 120.849L140.817 120.02Z" fill="#053448" stroke="#D32833" stroke-width="0.1" stroke-miterlimit="10"/>
<path d="M139.192 125.53L137.751 124.702V125.374L139.192 126.203V125.53Z" fill="#568C9B"/>
<path d="M139.192 125.53L137.751 124.702V125.374L139.192 126.203V125.53Z" stroke="#D32833" stroke-width="0.05" stroke-miterlimit="10"/>
<path d="M139.192 125.53L144.784 122.301V122.981L139.192 126.203L139.192 125.53Z" fill="#2B6F81"/>
<path d="M139.192 125.53L144.784 122.301V122.981L139.192 126.203L139.192 125.53Z" stroke="#D32833" stroke-width="0.05" stroke-miterlimit="10"/>
<path d="M143.343 121.472L137.751 124.702L139.192 125.53L144.784 122.301L143.343 121.472Z" fill="#053448" stroke="#D32833" stroke-width="0.1" stroke-miterlimit="10"/>
<path d="M144.238 128.442L142.797 127.613V128.286L144.238 129.114V128.442Z" fill="#568C9B"/>
<path d="M144.238 128.442L142.797 127.613V128.286L144.238 129.114V128.442Z" stroke="#D32833" stroke-width="0.05" stroke-miterlimit="10"/>
<path d="M144.238 128.441L149.837 125.219V125.892L144.238 129.114L144.238 128.441Z" fill="#2B6F81"/>
<path d="M144.238 128.441L149.837 125.219V125.892L144.238 129.114L144.238 128.441Z" stroke="#D32833" stroke-width="0.05" stroke-miterlimit="10"/>
<path d="M148.396 124.39L142.797 127.613L144.238 128.442L149.837 125.219L148.396 124.39Z" fill="#053448" stroke="#D32833" stroke-width="0.1" stroke-miterlimit="10"/>
<path d="M146.771 129.9L145.33 129.072V129.745L146.771 130.573V129.9Z" fill="#568C9B"/>
<path d="M146.771 129.9L145.33 129.072V129.745L146.771 130.573V129.9Z" stroke="#D32833" stroke-width="0.05" stroke-miterlimit="10"/>
<path d="M146.771 129.9L152.363 126.678V127.351L146.771 130.573L146.771 129.9Z" fill="#2B6F81"/>
<path d="M146.771 129.9L152.363 126.678V127.351L146.771 130.573L146.771 129.9Z" stroke="#D32833" stroke-width="0.05" stroke-miterlimit="10"/>
<path d="M150.922 125.849L145.33 129.072L146.771 129.9L152.363 126.678L150.922 125.849Z" fill="#053448" stroke="#D32833" stroke-width="0.1" stroke-miterlimit="10"/>
<path d="M151.816 132.811L150.376 131.982V132.655L151.816 133.484V132.811Z" fill="#568C9B"/>
<path d="M151.816 132.811L150.376 131.982V132.655L151.816 133.484V132.811Z" stroke="#D32833" stroke-width="0.05" stroke-miterlimit="10"/>
<path d="M151.816 132.811L157.416 129.582V130.262L151.816 133.484L151.816 132.811Z" fill="#2B6F81"/>
<path d="M151.816 132.811L157.416 129.582V130.262L151.816 133.484L151.816 132.811Z" stroke="#D32833" stroke-width="0.05" stroke-miterlimit="10"/>
<path d="M155.975 128.753L150.376 131.983L151.816 132.811L157.416 129.582L155.975 128.753Z" fill="#053448" stroke="#D32833" stroke-width="0.1" stroke-miterlimit="10"/>
<path d="M154.35 134.263L152.909 133.434V134.114L154.35 134.943V134.263Z" fill="#568C9B"/>
<path d="M154.35 134.263L152.909 133.434V134.114L154.35 134.943V134.263Z" stroke="#D32833" stroke-width="0.05" stroke-miterlimit="10"/>
<path d="M154.35 134.263L159.942 131.04V131.713L154.35 134.943L154.35 134.263Z" fill="#2B6F81"/>
<path d="M154.35 134.263L159.942 131.04V131.713L154.35 134.943L154.35 134.263Z" stroke="#D32833" stroke-width="0.05" stroke-miterlimit="10"/>
<path d="M158.501 130.212L152.909 133.434L154.35 134.263L159.942 131.041L158.501 130.212Z" fill="#053448" stroke="#D32833" stroke-width="0.1" stroke-miterlimit="10"/>
<path d="M156.876 135.722L155.436 134.894V135.567L156.876 136.395V135.722Z" fill="#568C9B"/>
<path d="M156.876 135.722L155.436 134.894V135.567L156.876 136.395V135.722Z" stroke="#D32833" stroke-width="0.05" stroke-miterlimit="10"/>
<path d="M156.876 135.722L162.475 132.5V133.173L156.876 136.395L156.876 135.722Z" fill="#2B6F81"/>
<path d="M156.876 135.722L162.475 132.5V133.173L156.876 136.395L156.876 135.722Z" stroke="#D32833" stroke-width="0.05" stroke-miterlimit="10"/>
<path d="M161.035 131.671L155.436 134.894L156.876 135.722L162.475 132.5L161.035 131.671Z" fill="#053448" stroke="#D32833" stroke-width="0.1" stroke-miterlimit="10"/>
<path d="M161.929 138.633L160.488 137.804V138.484L161.929 139.313V138.633Z" fill="#568C9B"/>
<path d="M161.929 138.633L160.488 137.804V138.484L161.929 139.313V138.633Z" stroke="#D32833" stroke-width="0.05" stroke-miterlimit="10"/>
<path d="M161.929 138.633L167.521 135.41V136.083L161.929 139.313L161.929 138.633Z" fill="#2B6F81"/>
<path d="M161.929 138.633L167.521 135.41V136.083L161.929 139.313L161.929 138.633Z" stroke="#D32833" stroke-width="0.05" stroke-miterlimit="10"/>
<path d="M166.08 134.582L160.488 137.804L161.929 138.633L167.521 135.411L166.08 134.582Z" fill="#053448" stroke="#D32833" stroke-width="0.1" stroke-miterlimit="10"/>
<path d="M164.455 140.092L163.015 139.263V139.936L164.455 140.765V140.092Z" fill="#568C9B"/>
<path d="M164.455 140.092L163.015 139.263V139.936L164.455 140.765V140.092Z" stroke="#D32833" stroke-width="0.05" stroke-miterlimit="10"/>
<path d="M164.455 140.092L170.054 136.869V137.542L164.455 140.765L164.455 140.092Z" fill="#2B6F81"/>
<path d="M164.455 140.092L170.054 136.869V137.542L164.455 140.765L164.455 140.092Z" stroke="#D32833" stroke-width="0.05" stroke-miterlimit="10"/>
<path d="M168.614 136.041L163.015 139.263L164.455 140.092L170.054 136.869L168.614 136.041Z" fill="#053448" stroke="#D32833" stroke-width="0.1" stroke-miterlimit="10"/>
<path d="M169.224 142.84L168.67 143.159C168.67 143.159 168.649 143.173 168.642 143.18L168.067 142.847V142.174L169.224 142.84Z" fill="#568C9B"/>
<path d="M169.224 142.84L168.67 143.159C168.67 143.159 168.649 143.173 168.642 143.18L168.067 142.847V142.174L169.224 142.84Z" stroke="#D32833" stroke-width="0.05" stroke-miterlimit="10"/>
<path d="M172.268 141.084C172.268 141.084 172.254 141.076 172.247 141.076L172.268 141.091L169.224 142.84L168.067 142.174L173.666 138.945L174.83 139.617L172.275 141.084H172.268Z" fill="#053448" stroke="#D32833" stroke-width="0.1" stroke-miterlimit="10"/>
<path d="M167.734 151.764C167.705 149.144 167.677 147.592 167.67 144.873C167.62 144.073 168.138 143.308 168.848 142.975C170.168 142.21 173.538 140.255 174.816 139.511L175.809 138.938C176.491 138.591 176.852 137.868 176.789 137.111C176.803 135.021 176.803 131.19 176.817 129.072C176.767 128.279 177.278 127.507 177.988 127.181L179.989 126.041L183.998 123.781L180.032 126.119L178.045 127.273C177.356 127.606 176.888 128.3 176.938 129.072C176.938 131.211 176.966 135.014 176.966 137.111C177.058 138.619 176.036 139.044 174.908 139.674C173.638 140.397 170.224 142.352 168.912 143.095C168.216 143.421 167.755 144.101 167.79 144.873C167.79 147.592 167.755 149.144 167.734 151.764Z" fill="#2B6F81"/>
<path d="M194.246 116.982L194.246 138.966C194.246 140.304 193.529 141.544 192.365 142.21L169.607 155.326L169.607 145.864C169.607 145.191 169.969 144.575 170.544 144.242L177.818 140.049C178.399 139.709 178.754 139.093 178.754 138.428L178.754 130.042C178.754 129.376 179.116 128.76 179.691 128.42L190.726 122.067C193.082 120.707 194.239 118.887 194.239 116.989L194.246 116.982Z" fill="#053448"/>
<path d="M193.756 96.04C193.373 97.8035 191.783 99.7158 189.001 101.416L174.908 110.07V112.28L189.001 103.632C191.783 101.933 193.373 100.02 193.756 98.2568C193.813 97.9735 193.848 97.6973 193.848 97.4281V95.2468C193.848 95.5159 193.82 95.785 193.756 96.0542V96.04Z" fill="#DDDDDD"/>
<path d="M201.349 66.4706V68.7228H201.342C201.321 73.1281 197.716 78.0858 190.605 82.4485C187.987 84.0562 186.425 85.841 185.929 87.5195C185.73 86.9104 185.709 86.273 185.851 85.6143C186.234 83.8508 187.823 81.9386 190.605 80.2388C197.737 75.8548 201.349 70.883 201.349 66.4706Z" fill="white"/>
<path d="M189.796 90.8272C186.681 89.6869 185.382 87.7534 185.844 85.6145C186.227 83.851 187.816 81.9388 190.598 80.2319C204.202 71.8889 204.997 61.3573 192.372 56.7325L190.854 56.173C178.229 51.5411 156.961 54.5582 143.358 62.9013L107.06 85.1754L174.908 110.063L189.009 101.415C191.783 99.7156 193.38 97.8033 193.763 96.0398C194.224 93.9009 192.919 91.9674 189.81 90.8272H189.796Z" fill="#053448"/>
<path d="M143.358 62.9086L132.337 69.6723L150.447 101.097L174.042 109.751L146.139 61.3292C145.181 61.8321 144.252 62.3562 143.358 62.9086ZM161.638 55.7554C158.615 56.4424 155.634 57.3206 152.789 58.3829L180.571 106.593L188.228 101.89L161.638 55.7554Z" fill="#DDDDDD"/>
<path d="M107.06 85.1826L107.06 87.3923L174.908 112.28V110.07L107.06 85.1826Z" fill="white"/>
</g>
<g filter="url(#filter1_d_340_23541)">
<path d="M117.974 182.268L117.974 168.167L121.018 166.411L119.5 181.39L117.974 182.268Z" fill="#568C9B"/>
<path d="M117.974 182.268L117.974 168.167L121.018 166.411L119.5 181.39L117.974 182.268Z" stroke="#4C0003" stroke-width="0.05" stroke-miterlimit="10"/>
<path d="M117.974 182.268L117.974 168.167L114.922 166.411L116.448 181.39L117.974 182.268Z" fill="#053448"/>
<path d="M116.448 181.39C116.448 181.432 116.448 182.098 116.448 182.098L117.974 182.976V182.268L116.448 181.39Z" fill="#D268CC"/>
<path d="M116.448 181.39C116.448 181.432 116.448 182.098 116.448 182.098L117.974 182.976V182.268L116.448 181.39Z" stroke="#4C0003" stroke-width="0.05" stroke-miterlimit="10"/>
<path d="M116.448 181.39C116.448 181.432 116.448 182.098 116.448 182.098L117.974 182.976V182.268L116.448 181.39Z" fill="white"/>
<path d="M119.5 181.39V182.098L117.974 182.976V182.268L119.5 181.39Z" fill="#DDDDDD"/>
<path d="M81.4133 161.177L81.4133 147.076L84.4648 145.319L82.939 160.298L81.4133 161.177Z" fill="#568C9B"/>
<path d="M81.4133 161.177L81.4133 147.076L84.4648 145.319L82.939 160.298L81.4133 161.177Z" stroke="#4C0003" stroke-width="0.05" stroke-miterlimit="10"/>
<path d="M81.4134 161.177L81.4134 147.076L78.369 145.319L79.8876 160.299L81.4134 161.177Z" fill="#053448"/>
<path d="M79.8876 160.298C79.8876 160.341 79.8876 161.007 79.8876 161.007L81.4133 161.885V161.176L79.8876 160.298Z" fill="#D268CC"/>
<path d="M79.8876 160.298C79.8876 160.341 79.8876 161.007 79.8876 161.007L81.4133 161.885V161.176L79.8876 160.298Z" stroke="#4C0003" stroke-width="0.05" stroke-miterlimit="10"/>
<path d="M79.8876 160.298C79.8876 160.341 79.8876 161.007 79.8876 161.007L81.4133 161.885V161.176L79.8876 160.298Z" fill="white"/>
<path d="M82.939 160.298V161.007L81.4133 161.885V161.176L82.939 160.298Z" fill="#DDDDDD"/>
<path d="M131.791 174.307L131.791 160.213L134.835 158.457L133.316 173.429L131.791 174.307Z" fill="#568C9B"/>
<path d="M131.791 174.307L131.791 160.213L134.835 158.457L133.316 173.429L131.791 174.307Z" stroke="#4C0003" stroke-width="0.05" stroke-miterlimit="10"/>
<path d="M131.79 174.307L131.79 160.214L128.739 158.457L130.265 173.429L131.79 174.307Z" fill="#053448"/>
<path d="M130.265 173.429C130.265 173.472 130.265 174.137 130.265 174.137L131.79 175.016V174.307L130.265 173.429Z" fill="#D268CC"/>
<path d="M130.265 173.429C130.265 173.472 130.265 174.137 130.265 174.137L131.79 175.016V174.307L130.265 173.429Z" stroke="#4C0003" stroke-width="0.05" stroke-miterlimit="10"/>
<path d="M130.265 173.429C130.265 173.472 130.265 174.137 130.265 174.137L131.79 175.016V174.307L130.265 173.429Z" fill="white"/>
<path d="M133.316 173.429V174.144L131.791 175.023V174.307L133.316 173.429Z" fill="#DDDDDD"/>
<path d="M95.23 153.223L95.23 139.122L98.2814 137.365L96.7557 152.338L95.23 153.223Z" fill="#568C9B"/>
<path d="M95.23 153.223L95.23 139.122L98.2814 137.365L96.7557 152.338L95.23 153.223Z" stroke="#4C0003" stroke-width="0.05" stroke-miterlimit="10"/>
<path d="M95.23 153.223L95.23 139.122L92.1857 137.365L93.7043 152.338L95.23 153.223Z" fill="#053448"/>
<path d="M93.7043 152.338C93.7043 152.38 93.7043 153.046 93.7043 153.046L95.2301 153.924V153.216L93.7043 152.338Z" fill="#D268CC"/>
<path d="M93.7043 152.338C93.7043 152.38 93.7043 153.046 93.7043 153.046L95.2301 153.924V153.216L93.7043 152.338Z" stroke="#4C0003" stroke-width="0.05" stroke-miterlimit="10"/>
<path d="M93.7043 152.338C93.7043 152.38 93.7043 153.046 93.7043 153.046L95.2301 153.924V153.216L93.7043 152.338Z" fill="#053448"/>
<path d="M96.7557 152.338V153.053L95.23 153.931V153.223L96.7557 152.338Z" fill="#D268CC"/>
<path d="M96.7557 152.338V153.053L95.23 153.931V153.223L96.7557 152.338Z" stroke="#4C0003" stroke-width="0.05" stroke-miterlimit="10"/>
<path d="M134.764 160.957L117.974 170.617L78.4542 147.826L95.2442 138.166L134.764 160.957Z" fill="#053448"/>
<path d="M134.764 160.957L117.974 170.617V174.151L134.764 164.484V160.957Z" fill="#063E51"/>
<path d="M78.4542 147.827L78.4542 151.361L117.974 174.152L117.974 170.618L78.4542 147.827Z" fill="#063E51"/>
<path d="M135.771 156.793L96.1595 133.959C96.0318 133.888 95.8615 133.895 95.677 134.009L78.8231 143.86C78.447 144.08 78.1348 144.611 78.1348 145.05L78.1348 147.918C78.1348 148.138 78.2128 148.294 78.3335 148.365L117.945 171.198C118.073 171.269 118.243 171.262 118.428 171.149L135.275 161.29C135.651 161.07 135.963 160.539 135.963 160.1L135.963 157.232C135.963 157.012 135.885 156.856 135.764 156.786L135.771 156.793Z" fill="#D268CC"/>
<path d="M135.771 156.793L96.1595 133.959C96.0318 133.888 95.8615 133.895 95.677 134.009L78.8231 143.86C78.447 144.08 78.1348 144.611 78.1348 145.05L78.1348 147.918C78.1348 148.138 78.2128 148.294 78.3335 148.365L117.945 171.198C118.073 171.269 118.243 171.262 118.428 171.149L135.275 161.29C135.651 161.07 135.963 160.539 135.963 160.1L135.963 157.232C135.963 157.012 135.885 156.856 135.764 156.786L135.771 156.793Z" stroke="#4C0003" stroke-width="0.05" stroke-miterlimit="10"/>
<path d="M135.771 156.793L96.1595 133.959C96.0318 133.888 95.8615 133.895 95.677 134.009L78.8231 143.86C78.447 144.08 78.1348 144.611 78.1348 145.05L78.1348 147.918C78.1348 148.138 78.2128 148.294 78.3335 148.365L117.945 171.198C118.073 171.269 118.243 171.262 118.428 171.149L135.275 161.29C135.651 161.07 135.963 160.539 135.963 160.1L135.963 157.232C135.963 157.012 135.885 156.856 135.764 156.786L135.771 156.793Z" fill="#053448"/>
<path d="M78.2058 148.407C78.0852 148.336 78 148.18 78 147.961L78 145.092C78 144.859 78.0923 144.597 78.2342 144.37L117.846 167.204C117.704 167.43 117.619 167.692 117.619 167.926L117.619 170.794C117.619 171.014 117.697 171.17 117.818 171.241" fill="#DDDDDD"/>
<path d="M117.754 170.752L117.754 167.884C117.754 167.445 118.059 166.913 118.442 166.694L135.289 156.835C135.481 156.729 135.651 156.715 135.771 156.786C135.899 156.856 135.97 157.012 135.97 157.232V160.1C135.97 160.539 135.665 161.07 135.282 161.29L118.435 171.149C118.243 171.255 118.073 171.269 117.952 171.198C117.825 171.127 117.754 170.972 117.754 170.752Z" fill="#E1E1E1" stroke="#D32833" stroke-width="0.05" stroke-miterlimit="10"/>
</g>
</g>
</g>
<defs>
<filter id="filter0_d_340_23541" x="91.9266" y="50" width="119.422" height="136.661" filterUnits="userSpaceOnUse" color-interpolation-filters="sRGB">
<feFlood flood-opacity="0" result="BackgroundImageFix"/>
<feColorMatrix in="SourceAlpha" type="matrix" values="0 0 0 0 0 0 0 0 0 0 0 0 0 0 0 0 0 0 127 0" result="hardAlpha"/>
<feOffset dx="2" dy="4"/>
<feGaussianBlur stdDeviation="4"/>
<feComposite in2="hardAlpha" operator="out"/>
<feColorMatrix type="matrix" values="0 0 0 0 0 0 0 0 0 0.137376 0 0 0 0 0.195833 0 0 0 0.4 0"/>
<feBlend mode="normal" in2="BackgroundImageFix" result="effect1_dropShadow_340_23541"/>
<feBlend mode="normal" in="SourceGraphic" in2="effect1_dropShadow_340_23541" result="shape"/>
</filter>
<filter id="filter1_d_340_23541" x="72" y="129.888" width="73.9951" height="65.1315" filterUnits="userSpaceOnUse" color-interpolation-filters="sRGB">
<feFlood flood-opacity="0" result="BackgroundImageFix"/>
<feColorMatrix in="SourceAlpha" type="matrix" values="0 0 0 0 0 0 0 0 0 0 0 0 0 0 0 0 0 0 127 0" result="hardAlpha"/>
<feOffset dx="2" dy="4"/>
<feGaussianBlur stdDeviation="4"/>
<feComposite in2="hardAlpha" operator="out"/>
<feColorMatrix type="matrix" values="0 0 0 0 0 0 0 0 0 0.137376 0 0 0 0 0.195833 0 0 0 0.4 0"/>
<feBlend mode="normal" in2="BackgroundImageFix" result="effect1_dropShadow_340_23541"/>
<feBlend mode="normal" in="SourceGraphic" in2="effect1_dropShadow_340_23541" result="shape"/>
</filter>
<clipPath id="clip0_340_23541">
<rect width="144" height="144" fill="white" transform="translate(68 46)"/>
</clipPath>
<clipPath id="clip1_340_23541">
<rect width="144" height="144" fill="white" transform="translate(68 46)"/>
</clipPath>
</defs>
</svg>
