<svg width="236" height="236" viewBox="0 0 236 236" fill="none" xmlns="http://www.w3.org/2000/svg">
<path d="M200.902 236L236 91.5313L118 1.04032e-05L-1.06972e-06 91.5314L35.0981 236L200.902 236Z" fill="#0E516A" fill-opacity="0.6"/>
<g clip-path="url(#clip0_111_8235)">
<path d="M157.483 92.2272C158.267 90.4475 158.208 88.6179 156.967 87.0461C155.742 85.491 154.084 84.6427 152.051 85.1666C150.484 85.5658 148.926 86.0648 147.434 86.6968C141.852 89.0919 136.011 90.1315 129.961 90.1315C121.945 90.1398 113.938 90.1814 105.922 90.1148C100.681 90.0733 95.5148 89.5244 90.607 87.4702C88.7739 86.7051 86.8907 86.0398 85.0159 85.3662C82.3912 84.4265 79.9581 85.3163 78.6333 87.6865C77.7584 89.2666 77.8334 90.855 78.5916 92.4601C80.3081 96.086 82.0246 99.7119 83.7077 103.354C83.9161 103.812 84.016 104.369 83.991 104.868C83.5661 112.253 82.9495 119.638 82.7078 127.031C82.2829 140.454 82.9078 153.843 84.2993 167.199C84.3493 167.698 84.2577 168.255 84.066 168.721C82.5162 172.53 80.908 176.314 79.3665 180.123C78.0667 183.333 80.6997 187.058 84.166 186.817C86.2741 186.668 88.3656 186.227 90.4737 185.911C95.1066 185.212 99.7144 184.106 104.364 183.915C112.721 183.557 121.121 183.482 129.478 183.815C134.594 184.015 139.669 185.162 144.76 185.927C146.685 186.219 148.593 186.643 150.509 187.009H152.901C156.825 185.287 157.758 183.058 156.225 179C154.95 175.615 153.675 172.239 152.426 168.854C152.276 168.438 152.201 167.956 152.226 167.515C152.759 160.371 153.5 153.228 153.825 146.076C154.45 132.32 153.792 118.598 152.259 104.918C152.201 104.394 152.292 103.787 152.501 103.313C154.134 99.6121 155.85 95.9529 157.475 92.2438L157.483 92.2272ZM95.4399 110.44C94.165 111.87 92.7651 113.184 91.3903 114.523C91.2236 114.69 90.907 114.69 90.4237 114.848C90.0571 114.582 89.4321 114.332 89.2072 113.883C88.9822 113.434 88.9405 112.577 89.2238 112.253C90.4404 110.856 91.7652 109.55 93.1318 108.303C93.74 107.754 94.5233 107.912 95.1232 108.477C95.7148 109.035 95.9898 109.825 95.4399 110.44ZM97.0564 102.032C95.8398 103.421 94.5149 104.735 93.1484 105.974C92.5402 106.531 91.7569 106.348 91.1653 105.775C90.5737 105.209 90.3404 104.402 90.8737 103.804C92.1485 102.373 93.5567 101.059 94.9316 99.7285C95.0982 99.5622 95.4149 99.5539 95.8815 99.3959C96.2564 99.687 96.8897 99.9364 97.1063 100.394C97.323 100.851 97.348 101.7 97.0647 102.024L97.0564 102.032ZM103.922 117.284C102.664 118.69 101.298 119.987 99.9394 121.301C99.7477 121.484 99.3978 121.501 98.9062 121.667C98.5312 121.368 97.9063 121.102 97.6979 120.652C97.4896 120.195 97.4646 119.347 97.7563 119.014C98.9478 117.642 100.248 116.353 101.598 115.139C102.231 114.565 103.039 114.706 103.664 115.313C104.247 115.887 104.464 116.677 103.922 117.284ZM105.272 107.571C104.247 108.66 103.189 109.708 102.114 110.748C101.306 111.529 100.314 111.554 99.6394 110.872C98.9228 110.149 98.9228 109.251 99.7311 108.402C100.781 107.296 101.873 106.232 102.972 105.167C103.514 104.644 104.222 104.386 104.872 104.802C105.355 105.101 105.664 105.675 106.089 106.165C105.755 106.756 105.589 107.238 105.272 107.579V107.571ZM135.461 166.95C134.186 168.38 132.786 169.694 131.411 171.033C131.244 171.199 130.928 171.199 130.445 171.357C130.078 171.091 129.453 170.842 129.228 170.393C129.003 169.943 128.961 169.087 129.245 168.763C130.461 167.365 131.786 166.06 133.153 164.812C133.761 164.263 134.544 164.421 135.144 164.987C135.736 165.544 136.011 166.334 135.461 166.95ZM137.077 158.542C135.861 159.931 134.536 161.245 133.169 162.484C132.561 163.041 131.778 162.858 131.186 162.284C130.595 161.719 130.361 160.912 130.894 160.313C132.169 158.883 133.578 157.569 134.952 156.238C135.119 156.072 135.436 156.063 135.902 155.905C136.277 156.197 136.911 156.446 137.127 156.903C137.344 157.361 137.369 158.209 137.086 158.533L137.077 158.542ZM143.943 173.794C142.685 175.199 141.318 176.497 139.96 177.811C139.769 177.994 139.419 178.01 138.927 178.177C138.552 177.877 137.927 177.611 137.719 177.162C137.51 176.705 137.485 175.856 137.777 175.524C138.969 174.152 140.269 172.862 141.618 171.648C142.252 171.074 143.06 171.216 143.685 171.823C144.268 172.397 144.485 173.187 143.943 173.794ZM145.293 164.08C144.268 165.17 143.21 166.218 142.135 167.257C141.327 168.039 140.335 168.064 139.66 167.382C138.944 166.658 138.944 165.76 139.752 164.912C140.802 163.806 141.893 162.741 142.993 161.677C143.535 161.153 144.243 160.895 144.893 161.311C145.376 161.61 145.685 162.184 146.11 162.675C145.776 163.265 145.61 163.748 145.293 164.089V164.08Z" fill="white"/>
<path d="M118.004 160.43C129.679 160.43 139.144 150.983 139.144 139.331C139.144 127.679 129.679 118.232 118.004 118.232C106.329 118.232 96.8647 127.679 96.8647 139.331C96.8647 150.983 106.329 160.43 118.004 160.43Z" fill="#AF3030"/>
<path d="M118.004 157.011C127.788 157.011 135.719 149.096 135.719 139.331C135.719 129.566 127.788 121.65 118.004 121.65C108.221 121.65 100.289 129.566 100.289 139.331C100.289 149.096 108.221 157.011 118.004 157.011Z" fill="white"/>
<path d="M117.779 142.425C115.046 142.258 112.98 139.506 113.121 136.287C115.871 136.47 118.254 139.589 117.779 142.425Z" fill="#AF3030"/>
<path d="M118.196 142.417C117.787 139.514 119.871 136.778 122.837 136.246C122.962 139.672 120.854 142.3 118.196 142.417Z" fill="#AF3030"/>
<path d="M113.155 140.878C116.296 141.61 118.287 144.271 117.787 147.057C115.229 146.982 113.03 144.421 113.155 140.878Z" fill="#AF3030"/>
<path d="M118.212 147.066C117.671 144.321 119.671 141.635 122.829 140.87C123.27 143.789 120.879 146.999 118.212 147.066Z" fill="#AF3030"/>
<path d="M117.779 137.751C115.238 137.826 112.955 134.824 113.13 131.622C115.338 132.013 118.462 134.358 117.779 137.751Z" fill="#AF3030"/>
<path d="M122.845 131.605C122.937 134.799 121.037 137.643 118.221 137.76C117.613 135.082 119.896 132.055 122.845 131.605Z" fill="#AF3030"/>
<path d="M117.796 151.723C114.854 151.49 113.088 148.745 113.13 145.535C116.071 146.001 118.179 148.77 117.796 151.723Z" fill="#AF3030"/>
<path d="M122.87 145.511C122.929 148.912 120.862 151.632 118.196 151.706C117.721 148.879 119.712 146.218 122.87 145.511Z" fill="#AF3030"/>
<path d="M117.996 134.658C115.579 132.52 116.279 128.944 117.996 126.932C119.687 128.844 120.429 132.479 117.996 134.658Z" fill="#AF3030"/>
</g>
<defs>
<clipPath id="clip0_111_8235">
<rect width="80" height="102" fill="white" transform="translate(78 85)"/>
</clipPath>
</defs>
</svg>
