<svg width="236" height="236" viewBox="0 0 236 236" fill="none" xmlns="http://www.w3.org/2000/svg">
<path d="M200.902 236L236 91.5313L118 1.04032e-05L-1.06972e-06 91.5314L35.0981 236L200.902 236Z" fill="#0E516A" fill-opacity="0.6"/>
<g clip-path="url(#clip0_111_8232)">
<path d="M170.678 103.487C170.465 101.148 169.888 98.8893 169.089 96.6836C168.139 94.0617 166.914 91.5814 165.165 89.3846C163.86 87.7371 162.341 86.3463 160.326 85.6111C160.255 85.5846 160.175 85.558 160.104 85.5403C159.376 85.1948 158.586 85.0088 157.76 85.0088C156.934 85.0088 156.18 85.1859 155.46 85.5226C155.372 85.5491 155.292 85.5757 155.203 85.6023C153.676 86.1338 152.424 87.0993 151.323 88.2508C149.405 90.2616 148.082 92.6355 147.008 95.1689C145.996 97.5429 145.294 100.005 144.93 102.557C144.566 105.108 144.637 107.641 145.543 110.095C146.973 113.974 149.645 116.632 153.587 117.969C155.203 118.519 156.872 118.705 158.586 118.598C160.841 118.465 162.927 117.81 164.836 116.605C166.399 115.613 167.677 114.329 168.672 112.779C169.577 111.361 170.208 109.829 170.501 108.172C170.616 107.517 170.661 106.862 170.741 106.197C170.767 106.002 170.785 105.807 170.803 105.613V104.895C170.758 104.434 170.723 103.965 170.678 103.504V103.487Z" fill="#D32833"/>
<path d="M130.485 103.487C130.272 101.148 129.695 98.8893 128.896 96.6836C127.946 94.0617 126.72 91.5814 124.971 89.3846C123.666 87.7371 122.148 86.3463 120.133 85.6111C120.061 85.5846 119.982 85.558 119.911 85.5403C119.183 85.1948 118.392 85.0088 117.567 85.0088C116.741 85.0088 115.986 85.1859 115.267 85.5226C115.178 85.5491 115.098 85.5757 115.01 85.6023C113.482 86.1338 112.231 87.0993 111.13 88.2508C109.212 90.2616 107.889 92.6355 106.815 95.1689C105.802 97.5429 105.101 100.005 104.737 102.557C104.373 105.108 104.444 107.641 105.35 110.095C106.779 113.974 109.452 116.632 113.394 117.969C115.01 118.519 116.679 118.705 118.392 118.598C120.647 118.465 122.734 117.81 124.643 116.605C126.205 115.613 127.484 114.329 128.478 112.779C129.384 111.361 130.014 109.829 130.307 108.172C130.423 107.517 130.467 106.862 130.547 106.197C130.574 106.002 130.592 105.807 130.609 105.613V104.895C130.565 104.434 130.529 103.965 130.485 103.504V103.487Z" fill="white"/>
<path d="M90.5046 103.487C90.2915 101.148 89.7144 98.8893 88.9153 96.6836C87.9653 94.0617 86.7401 91.5814 84.991 89.3846C83.6858 87.7371 82.1676 86.3463 80.1521 85.6111C80.0811 85.5846 80.0012 85.558 79.9302 85.5403C79.2021 85.1948 78.4119 85.0088 77.5862 85.0088C76.7605 85.0088 76.0058 85.1859 75.2867 85.5226C75.1979 85.5491 75.118 85.5757 75.0292 85.6023C73.5021 86.1338 72.2502 87.0993 71.1492 88.2508C69.2314 90.2616 67.9085 92.6355 66.8342 95.1689C65.8221 97.5429 65.1206 100.005 64.7566 102.557C64.3926 105.108 64.4636 107.641 65.3693 110.095C66.7987 113.974 69.4712 116.632 73.4133 117.969C75.0292 118.519 76.6984 118.705 78.4119 118.598C80.6671 118.465 82.7536 117.81 84.6625 116.605C86.2251 115.613 87.5036 114.329 88.498 112.779C89.4036 111.361 90.034 109.829 90.327 108.172C90.4424 107.517 90.4868 106.862 90.5667 106.197C90.5934 106.002 90.6111 105.807 90.6289 105.613V104.895C90.5845 104.434 90.549 103.965 90.5046 103.504V103.487Z" fill="white"/>
<path d="M137.33 106.1L97.6696 106.1L58 106.1L58 120.866L66.6211 120.866L68.6987 133.728L87.8765 133.728L89.963 120.866L97.6696 120.866L106.291 120.866L108.368 133.728L127.546 133.728L129.624 120.866L137.33 120.866L145.952 120.866L148.038 133.728L167.207 133.728L169.293 120.866L177 120.866L177 106.1L137.33 106.1Z" fill="#AF3030"/>
<path d="M151.909 107.915L140.083 107.915L134.72 107.915L100.28 107.915L95.0593 107.915L83.8101 107.915L60.6103 107.915L60.6103 119.342L68.095 119.342L69.9062 129.298L86.5536 129.298L88.3649 119.342L95.0593 119.342L100.28 119.342L107.765 119.342L109.576 129.298L126.223 129.298L128.034 119.342L134.72 119.342L140.083 119.342H147.567L149.379 129.298L166.026 129.298L167.837 119.342L174.523 119.342V107.915L151.909 107.915Z" fill="white"/>
<path d="M170.678 156.759C170.465 154.421 169.888 152.162 169.089 149.956C168.139 147.334 166.914 144.854 165.165 142.657C163.86 141.01 162.341 139.619 160.326 138.884C160.255 138.857 160.175 138.83 160.104 138.813C159.376 138.467 158.586 138.281 157.76 138.281C156.934 138.281 156.18 138.458 155.46 138.795C155.372 138.822 155.292 138.848 155.203 138.875C153.676 139.406 152.424 140.372 151.323 141.523C149.405 143.534 148.082 145.908 147.008 148.441C145.996 150.815 145.294 153.278 144.93 155.829C144.566 158.38 144.637 160.913 145.543 163.367C146.973 167.247 149.645 169.904 153.587 171.242C155.203 171.791 156.872 171.977 158.586 171.871C160.841 171.738 162.927 171.082 164.836 169.878C166.399 168.886 167.677 167.601 168.672 166.051C169.577 164.634 170.208 163.101 170.501 161.445C170.616 160.789 170.661 160.134 170.741 159.47C170.767 159.275 170.785 159.08 170.803 158.885V158.167C170.758 157.707 170.723 157.237 170.678 156.777V156.759Z" fill="white"/>
<path d="M130.485 156.759C130.272 154.421 129.695 152.162 128.896 149.956C127.946 147.334 126.72 144.854 124.971 142.657C123.666 141.01 122.148 139.619 120.133 138.884C120.061 138.857 119.982 138.83 119.911 138.813C119.183 138.467 118.392 138.281 117.567 138.281C116.741 138.281 115.986 138.458 115.267 138.795C115.178 138.822 115.098 138.848 115.01 138.875C113.482 139.406 112.231 140.372 111.13 141.523C109.212 143.534 107.889 145.908 106.815 148.441C105.802 150.815 105.101 153.278 104.737 155.829C104.373 158.38 104.444 160.913 105.35 163.367C106.779 167.247 109.452 169.904 113.394 171.242C115.01 171.791 116.679 171.977 118.392 171.871C120.647 171.738 122.734 171.082 124.643 169.878C126.205 168.886 127.484 167.601 128.478 166.051C129.384 164.634 130.014 163.101 130.307 161.445C130.423 160.789 130.467 160.134 130.547 159.47C130.574 159.275 130.592 159.08 130.609 158.885V158.167C130.565 157.707 130.529 157.237 130.485 156.777V156.759Z" fill="white"/>
<path d="M90.5046 156.759C90.2915 154.421 89.7144 152.162 88.9153 149.956C87.9653 147.334 86.7401 144.854 84.991 142.657C83.6858 141.01 82.1676 139.619 80.1521 138.884C80.0811 138.857 80.0012 138.83 79.9302 138.813C79.2021 138.467 78.4119 138.281 77.5862 138.281C76.7605 138.281 76.0058 138.458 75.2867 138.795C75.1979 138.822 75.118 138.848 75.0292 138.875C73.5021 139.406 72.2502 140.372 71.1492 141.523C69.2314 143.534 67.9085 145.908 66.8342 148.441C65.8221 150.815 65.1206 153.278 64.7566 155.829C64.3926 158.38 64.4636 160.913 65.3693 163.367C66.7987 167.247 69.4712 169.904 73.4133 171.242C75.0292 171.791 76.6984 171.977 78.4119 171.871C80.6671 171.738 82.7536 171.082 84.6625 169.878C86.2251 168.886 87.5036 167.601 88.498 166.051C89.4036 164.634 90.034 163.101 90.327 161.445C90.4424 160.789 90.4868 160.134 90.5667 159.47C90.5934 159.275 90.6111 159.08 90.6289 158.885V158.167C90.5845 157.707 90.549 157.237 90.5046 156.777V156.759Z" fill="white"/>
<path d="M137.33 159.372L97.6696 159.372L58 159.372L58 174.138H66.6211L68.6987 187L87.8765 187L89.963 174.138H97.6696L106.291 174.138L108.368 187L127.546 187L129.624 174.138L137.33 174.138H145.952L148.038 187L167.207 187L169.293 174.138H177L177 159.372L137.33 159.372Z" fill="#AF3030"/>
<path d="M151.909 161.187L140.083 161.187L134.72 161.187L100.28 161.187H95.0593L83.8101 161.187L60.6103 161.188L60.6103 172.614H68.095L69.9062 182.571L86.5536 182.571L88.3649 172.614H95.0593H100.28L107.765 172.614L109.576 182.571L126.223 182.571L128.034 172.614H134.72L140.083 172.614H147.567L149.379 182.571L166.026 182.571L167.837 172.614L174.523 172.614V161.187L151.909 161.187Z" fill="white"/>
</g>
<defs>
<clipPath id="clip0_111_8232">
<rect width="119" height="102" fill="white" transform="translate(58 85)"/>
</clipPath>
</defs>
</svg>
