<svg width="237" height="237" viewBox="0 0 237 237" fill="none" xmlns="http://www.w3.org/2000/svg">
<path d="M201.402 236.486L236.5 92.0177L118.5 0.486333L0.499994 92.0177L35.5981 236.486L201.402 236.486Z" fill="white" fill-opacity="0.3"/>
<g filter="url(#filter0_d_612_41094)">
<path d="M163.07 141.856C163.07 125.086 155.64 110.716 145.08 104.686C143.7 103.896 142.68 102.616 142.25 101.096C140.9 96.2963 137.7 92.9263 133.98 92.9263C130.26 92.9263 127.06 96.2963 125.71 101.096C125.28 102.616 124.25 103.896 122.88 104.686C112.32 110.716 104.89 125.086 104.89 141.856C104.89 158.626 112.35 173.056 122.94 179.066C124.3 179.836 125.32 181.096 125.76 182.596C127.15 187.296 130.3 190.576 133.97 190.576C137.64 190.576 140.8 187.296 142.18 182.596C142.62 181.096 143.64 179.836 145 179.066C155.59 173.056 163.05 158.666 163.05 141.856H163.07Z" fill="#B4D902"/>
<path d="M147.67 89.0363C142.57 89.1863 138.31 87.4963 134.89 83.9663L132.67 81.4863L132.67 93.1363C133.61 93.7563 134.48 93.7063 135.29 93.1363L135.29 87.0863C138.86 89.5263 142.64 90.9163 146.59 91.4163L147.67 89.0363Z" fill="#6DC82A"/>
<path d="M145.67 89.2564C147.55 86.1264 153.24 86.8764 155.92 90.6064L159.88 96.1164C160.8 97.3964 160 98.7464 158.43 98.5364L151.7 97.6564C147.14 97.0564 143.8 92.3964 145.67 89.2564Z" fill="#6DC82A"/>
<path d="M159.86 98.1563C159.56 98.5563 158.75 98.6063 158.61 98.5563L152.38 97.7463C151.27 97.7363 150.43 97.4363 149.47 97.0063C146.94 95.8763 144.99 93.4063 145.14 91.1963C149.15 95.6463 154.24 97.5363 159.86 98.1563Z" fill="white"/>
</g>
<g filter="url(#filter1_d_612_41094)">
<path d="M104.89 190.576C122.226 190.576 136.28 176.523 136.28 159.186C136.28 141.85 122.226 127.796 104.89 127.796C87.5538 127.796 73.5 141.85 73.5 159.186C73.5 176.523 87.5538 190.576 104.89 190.576Z" fill="#6DC82A"/>
<path d="M104.89 184.366C118.796 184.366 130.07 173.093 130.07 159.186C130.07 145.28 118.796 134.006 104.89 134.006C90.9834 134.006 79.71 145.28 79.71 159.186C79.71 173.093 90.9834 184.366 104.89 184.366Z" fill="white"/>
</g>
<path d="M104.25 137.556C109.25 137.556 112.38 142.976 109.88 147.306L105.71 154.526C105.06 155.656 103.44 155.656 102.79 154.526L98.6199 147.306C96.1199 142.976 99.2499 137.556 104.25 137.556Z" fill="#B4D902"/>
<path d="M122.58 147.526C125.31 151.716 122.49 157.296 117.49 157.566L109.17 158.016C107.87 158.086 106.98 156.726 107.57 155.566L111.34 148.136C113.6 143.676 119.85 143.336 122.58 147.526Z" fill="#B4D902"/>
<path d="M124.23 169.286C121.88 173.706 115.63 173.916 112.98 169.676L108.57 162.606C107.88 161.506 108.64 160.066 109.94 160.026L118.27 159.736C123.27 159.566 126.58 164.866 124.23 169.286Z" fill="#B4D902"/>
<path d="M106.81 180.786C101.83 181.236 98.2296 176.116 100.34 171.576L103.85 164.016C104.4 162.836 106.01 162.696 106.76 163.756L111.55 170.576C114.43 174.666 111.79 180.346 106.81 180.786Z" fill="#B4D902"/>
<path d="M87.3799 172.057C84.5599 167.927 87.2799 162.287 92.2699 161.917L100.58 161.297C101.88 161.197 102.79 162.547 102.23 163.717L98.6099 171.227C96.4399 175.737 90.1999 176.197 87.3799 172.067V172.057Z" fill="#D32833"/>
<path d="M85.2998 151.296C87.2198 146.676 93.4298 145.876 96.4598 149.846L101.52 156.466C102.31 157.496 101.68 158.996 100.4 159.166L92.1398 160.236C87.1798 160.876 83.3798 155.906 85.3098 151.296H85.2998Z" fill="#B4D902"/>
<path d="M105.02 161.516C106.235 161.516 107.22 160.531 107.22 159.316C107.22 158.101 106.235 157.116 105.02 157.116C103.805 157.116 102.82 158.101 102.82 159.316C102.82 160.531 103.805 161.516 105.02 161.516Z" fill="#D32833"/>
<defs>
<filter id="filter0_d_612_41094" x="98.8901" y="77.4863" width="74.1802" height="125.09" filterUnits="userSpaceOnUse" color-interpolation-filters="sRGB">
<feFlood flood-opacity="0" result="BackgroundImageFix"/>
<feColorMatrix in="SourceAlpha" type="matrix" values="0 0 0 0 0 0 0 0 0 0 0 0 0 0 0 0 0 0 127 0" result="hardAlpha"/>
<feOffset dx="2" dy="4"/>
<feGaussianBlur stdDeviation="4"/>
<feComposite in2="hardAlpha" operator="out"/>
<feColorMatrix type="matrix" values="0 0 0 0 0 0 0 0 0 0.137376 0 0 0 0 0.195833 0 0 0 0.4 0"/>
<feBlend mode="normal" in2="BackgroundImageFix" result="effect1_dropShadow_612_41094"/>
<feBlend mode="normal" in="SourceGraphic" in2="effect1_dropShadow_612_41094" result="shape"/>
</filter>
<filter id="filter1_d_612_41094" x="67.5" y="123.796" width="78.7798" height="78.78" filterUnits="userSpaceOnUse" color-interpolation-filters="sRGB">
<feFlood flood-opacity="0" result="BackgroundImageFix"/>
<feColorMatrix in="SourceAlpha" type="matrix" values="0 0 0 0 0 0 0 0 0 0 0 0 0 0 0 0 0 0 127 0" result="hardAlpha"/>
<feOffset dx="2" dy="4"/>
<feGaussianBlur stdDeviation="4"/>
<feComposite in2="hardAlpha" operator="out"/>
<feColorMatrix type="matrix" values="0 0 0 0 0 0 0 0 0 0.137376 0 0 0 0 0.195833 0 0 0 0.4 0"/>
<feBlend mode="normal" in2="BackgroundImageFix" result="effect1_dropShadow_612_41094"/>
<feBlend mode="normal" in="SourceGraphic" in2="effect1_dropShadow_612_41094" result="shape"/>
</filter>
</defs>
</svg>
