<svg width="236" height="236" viewBox="0 0 236 236" fill="none" xmlns="http://www.w3.org/2000/svg">
<path d="M200.902 236L236 91.5313L118 1.04032e-05L-1.06972e-06 91.5314L35.0981 236L200.902 236Z" fill="#0E516A" fill-opacity="0.6"/>
<g clip-path="url(#clip0_219_36245)">
<path d="M83.6689 116.372C81.912 117.37 80.1472 118.368 78.3904 119.357C78.217 119.452 78.0674 119.571 78.0674 119.801C78.1067 119.872 78.1304 119.967 78.1934 120.006C80.6515 121.558 82.4871 123.72 84.0943 126.111C85.347 127.971 86.7414 129.682 88.648 130.925C90.2946 132.009 92.0751 132.595 93.9423 131.906C96.3137 131.028 98.3384 131.724 100.355 132.849C102.821 134.218 104.625 136.269 106.217 138.541C107.651 140.592 109.029 142.682 111.259 144.028C112.906 145.018 114.536 145.635 116.467 144.923C118.082 144.329 119.697 144.487 121.28 145.113C124.353 146.316 126.614 148.509 128.465 151.154C130.009 153.363 131.491 155.611 133.831 157.084C135.351 158.034 136.911 158.707 138.786 158.074C140.519 157.488 142.26 157.456 144.001 158.232C145.467 158.889 146.034 160.338 145.278 161.843C145.278 161.89 145.278 161.93 145.301 161.969H145.632C151.194 158.707 156.757 155.445 162.319 152.191C162.319 151.138 162.319 150.093 162.319 149.04C162.138 148.977 161.941 148.945 161.783 148.85C159.9 147.749 157.923 147.599 155.843 148.185C153.716 148.787 151.88 148.153 150.147 146.871C148.043 145.319 146.649 143.189 145.167 141.107C143.568 138.858 141.638 136.982 139.188 135.683C137.935 135.018 136.58 134.63 135.186 134.654C134.232 134.67 133.263 135.01 132.326 135.303C131.585 135.533 130.916 135.398 130.246 135.168C127.701 134.298 125.842 132.556 124.313 130.41C122.974 128.534 121.721 126.586 119.996 125.034C118.342 123.546 116.522 122.342 114.332 121.796C112.984 121.463 111.645 121.63 110.369 122.089C109.132 122.532 107.989 122.303 106.871 121.796C104.775 120.83 103.136 119.31 101.813 117.433C100.403 115.438 99.0632 113.387 97.1961 111.772C96.5973 111.25 95.967 110.759 95.3289 110.284C94.8798 109.951 94.4465 109.912 93.9108 110.244C92.4218 111.178 90.8855 112.041 89.3728 112.936C89.2153 113.031 88.9947 113.063 88.971 113.308C89.0341 113.395 89.0813 113.506 89.168 113.562C91.6103 114.979 93.3356 117.093 94.9034 119.389C96.29 121.416 97.7475 123.387 99.9377 124.654C101.498 125.557 103.05 126.19 104.909 125.525C106.886 124.82 108.848 125.058 110.7 126.016C113.441 127.441 115.529 129.587 117.254 132.136C118.625 134.171 120.051 136.174 122.186 137.512C123.817 138.541 125.487 139.333 127.496 138.549C128.733 138.066 130.12 137.987 131.309 138.343C133.988 139.143 136.21 140.758 138.061 142.896C139.857 144.978 141.086 147.512 143.19 149.333C145.199 151.083 147.271 152.5 150.218 151.589C152.14 150.996 154.125 151.154 155.937 152.247C156.394 152.524 156.441 152.65 155.945 152.927C154.653 153.656 153.369 154.408 152.108 155.184C151.557 155.524 151.116 155.516 150.517 155.184C149.587 154.677 148.587 154.321 147.476 154.305C146.278 154.281 145.16 154.63 144.025 154.891C143.032 155.113 142.024 155.057 141.142 154.606C138.699 153.355 136.793 151.502 135.28 149.198C133.823 146.981 132.231 144.867 130.002 143.347C127.741 141.803 125.409 140.6 122.564 141.558C120.752 142.168 119.074 141.898 117.467 140.901C115.655 139.776 114.229 138.288 113.008 136.554C111.369 134.218 109.77 131.851 107.336 130.196C104.901 128.549 102.404 127.52 99.4178 128.597C97.8421 129.167 96.3216 128.692 94.9507 127.845C93.3041 126.831 91.9175 125.525 90.7673 123.941C89.2546 121.859 87.9547 119.587 85.8669 117.972C85.15 117.417 84.4173 116.895 83.6846 116.356L83.6689 116.372Z" fill="#D32833"/>
<path d="M83.6689 116.372C84.3937 116.911 85.1342 117.433 85.8512 117.988C87.9311 119.603 89.231 121.875 90.7515 123.957C91.9018 125.541 93.2884 126.847 94.9349 127.861C96.3058 128.708 97.8263 129.183 99.402 128.613C102.396 127.536 104.885 128.565 107.32 130.212C109.754 131.859 111.353 134.226 112.992 136.57C114.205 138.304 115.639 139.8 117.451 140.917C119.059 141.914 120.745 142.184 122.549 141.574C125.401 140.624 127.733 141.819 129.986 143.363C132.215 144.891 133.807 147.005 135.264 149.214C136.777 151.518 138.684 153.371 141.126 154.622C142.008 155.073 143.017 155.129 144.009 154.907C145.152 154.654 146.263 154.305 147.46 154.321C148.571 154.337 149.571 154.693 150.501 155.2C151.1 155.525 151.533 155.532 152.093 155.2C153.361 154.424 154.637 153.672 155.929 152.943C156.426 152.666 156.378 152.54 155.921 152.263C154.109 151.17 152.124 151.012 150.202 151.605C147.255 152.508 145.191 151.091 143.174 149.349C141.071 147.52 139.842 144.986 138.045 142.912C136.202 140.774 133.972 139.159 131.294 138.359C130.104 138.003 128.717 138.082 127.481 138.565C125.479 139.341 123.809 138.557 122.17 137.528C120.043 136.182 118.609 134.187 117.239 132.152C115.513 129.603 113.426 127.457 110.684 126.032C108.832 125.066 106.871 124.836 104.893 125.541C103.034 126.198 101.482 125.573 99.922 124.67C97.7318 123.395 96.2743 121.432 94.8877 119.405C93.3278 117.117 91.5945 114.995 89.1522 113.578C89.0656 113.53 89.0183 113.411 88.9553 113.324C87.6396 113.886 86.4893 114.741 85.2288 115.414C84.6852 115.707 84.1731 116.056 83.6531 116.38L83.6689 116.372Z" fill="white"/>
<path d="M145.278 161.851C146.034 160.346 145.467 158.889 144.001 158.24C142.26 157.456 140.519 157.496 138.786 158.082C136.911 158.715 135.351 158.05 133.831 157.092C131.491 155.619 130.009 153.371 128.465 151.162C126.622 148.517 124.353 146.324 121.28 145.121C119.697 144.503 118.082 144.337 116.467 144.931C114.536 145.636 112.906 145.026 111.259 144.036C109.029 142.698 107.651 140.6 106.217 138.549C104.625 136.277 102.821 134.226 100.355 132.857C98.3384 131.732 96.3137 131.036 93.9423 131.914C92.0751 132.603 90.2946 132.009 88.648 130.933C86.7414 129.682 85.3391 127.972 84.0943 126.119C82.4871 123.728 80.6593 121.566 78.1934 120.014C78.1304 119.975 78.1067 119.88 78.0673 119.809C78.0437 119.809 77.9964 119.809 77.9886 119.809C77.4843 120.363 77.6498 122.706 78.2722 123.086C80.683 124.551 82.0144 126.942 83.5901 129.151C84.3937 130.276 85.3391 131.36 86.4184 132.295C87.9547 133.625 89.6958 134.63 91.5472 135.351C92.5242 135.731 93.7059 135.747 94.8168 135.351C96.5106 134.757 98.2281 134.606 99.8747 135.525C101.687 136.538 103.16 137.932 104.373 139.618C105.744 141.518 107.02 143.498 108.762 145.105C110.44 146.649 112.323 147.844 114.552 148.422C115.836 148.755 117.12 148.581 118.334 148.185C120.311 147.536 121.911 148.288 123.502 149.285C125.645 150.631 127.016 152.682 128.371 154.717C129.426 156.308 130.656 157.828 132.105 158.929C134.075 160.418 136.233 161.93 138.975 161.629C139.668 161.558 140.385 161.494 141.047 161.273C142.576 160.758 143.946 161.09 145.286 161.843L145.278 161.851Z" fill="white"/>
<path d="M61.9797 133.395C60.2228 134.392 58.4581 135.39 56.7012 136.38C56.5279 136.475 56.3782 136.593 56.3782 136.823C56.4176 136.894 56.4412 136.989 56.5042 137.029C58.9623 138.581 60.7979 140.742 62.4051 143.133C63.6578 144.994 65.0523 146.704 66.9588 147.947C68.6054 149.032 70.3859 149.618 72.2531 148.929C74.6245 148.05 76.6492 148.747 78.6661 149.871C81.132 151.241 82.9362 153.291 84.5276 155.564C85.9615 157.614 87.3402 159.705 89.5698 161.051C91.2164 162.04 92.8472 162.658 94.7774 161.945C96.3925 161.352 98.0075 161.51 99.5911 162.135C102.664 163.339 104.925 165.532 106.776 168.176C108.32 170.385 109.801 172.634 112.141 174.107C113.662 175.057 115.222 175.73 117.097 175.096C118.83 174.51 120.571 174.479 122.312 175.255C123.778 175.912 124.345 177.361 123.589 178.865C123.589 178.913 123.589 178.952 123.612 178.992H123.943C129.505 175.73 135.067 172.468 140.63 169.214C140.63 168.161 140.63 167.115 140.63 166.062C140.448 165.999 140.251 165.967 140.094 165.872C138.211 164.772 136.233 164.621 134.154 165.207C132.026 165.809 130.191 165.176 128.457 163.893C126.354 162.341 124.959 160.211 123.478 158.129C121.879 155.881 119.949 154.004 117.499 152.706C116.246 152.041 114.891 151.653 113.496 151.676C112.543 151.692 111.574 152.033 110.637 152.326C109.896 152.555 109.226 152.421 108.557 152.191C106.012 151.32 104.153 149.578 102.624 147.433C101.285 145.556 100.032 143.608 98.3069 142.057C96.6524 140.568 94.8325 139.365 92.6423 138.818C91.2951 138.486 89.9558 138.652 88.6795 139.111C87.4426 139.555 86.3003 139.325 85.1815 138.818C83.0859 137.852 81.4472 136.332 80.1236 134.456C78.7134 132.461 77.3741 130.41 75.5069 128.795C74.9081 128.272 74.2778 127.781 73.6397 127.306C73.1906 126.974 72.7573 126.934 72.2216 127.267C70.7326 128.201 69.1963 129.064 67.6836 129.959C67.5261 130.054 67.3055 130.085 67.2818 130.331C67.3449 130.418 67.3921 130.529 67.4788 130.584C69.9211 132.001 71.6465 134.115 73.2143 136.411C74.6009 138.438 76.0584 140.41 78.2485 141.676C79.8085 142.579 81.3605 143.212 83.2198 142.547C85.1973 141.843 87.159 142.08 89.0104 143.038C91.7521 144.463 93.8399 146.609 95.5652 149.159C96.9361 151.193 98.362 153.196 100.497 154.535C102.128 155.564 103.798 156.356 105.807 155.572C107.044 155.089 108.431 155.01 109.62 155.366C112.299 156.166 114.521 157.781 116.372 159.918C118.168 162.001 119.397 164.534 121.501 166.355C123.51 168.105 125.582 169.522 128.528 168.612C130.451 168.018 132.436 168.176 134.248 169.269C134.705 169.546 134.752 169.673 134.256 169.95C132.964 170.678 131.68 171.43 130.419 172.206C129.868 172.547 129.426 172.539 128.828 172.206C127.898 171.7 126.898 171.343 125.787 171.328C124.589 171.304 123.47 171.652 122.336 171.913C121.343 172.135 120.335 172.08 119.452 171.628C117.01 170.377 115.104 168.525 113.591 166.221C112.133 164.004 110.542 161.89 108.312 160.37C106.051 158.826 103.719 157.622 100.875 158.58C99.0632 159.19 97.3851 158.921 95.7779 157.923C93.9659 156.799 92.5399 155.31 91.3188 153.577C89.6801 151.241 88.0808 148.874 85.6463 147.219C83.2119 145.572 80.7145 144.543 77.7286 145.619C76.1529 146.189 74.6324 145.714 73.2615 144.867C71.615 143.854 70.2284 142.547 69.0781 140.964C67.5655 138.882 66.2655 136.609 64.1778 134.994C63.4608 134.44 62.7281 133.917 61.9955 133.379L61.9797 133.395Z" fill="#D32833"/>
<path d="M61.9797 133.395C62.7045 133.933 63.4451 134.456 64.162 135.01C66.2419 136.625 67.5418 138.898 69.0623 140.98C70.2126 142.563 71.5992 143.87 73.2458 144.883C74.6166 145.73 76.1371 146.205 77.7128 145.635C80.7066 144.559 83.1962 145.588 85.6306 147.235C88.065 148.882 89.6643 151.249 91.303 153.592C92.5163 155.326 93.9501 156.823 95.7622 157.939C97.3694 158.937 99.0553 159.206 100.859 158.596C103.711 157.646 106.043 158.842 108.297 160.386C110.526 161.914 112.118 164.028 113.575 166.237C115.088 168.541 116.994 170.393 119.437 171.644C120.319 172.096 121.328 172.151 122.32 171.929C123.463 171.676 124.573 171.328 125.771 171.344C126.882 171.359 127.882 171.716 128.812 172.222C129.411 172.547 129.844 172.555 130.403 172.222C131.672 171.446 132.948 170.694 134.24 169.966C134.737 169.689 134.689 169.562 134.232 169.285C132.42 168.192 130.435 168.034 128.513 168.628C125.566 169.53 123.502 168.113 121.485 166.371C119.382 164.542 118.153 162.009 116.356 159.934C114.513 157.797 112.283 156.182 109.604 155.382C108.415 155.026 107.028 155.105 105.791 155.588C103.79 156.364 102.12 155.58 100.481 154.551C98.3542 153.205 96.9203 151.209 95.5495 149.175C93.8241 146.625 91.7363 144.479 88.9946 143.054C87.1432 142.088 85.1815 141.859 83.204 142.563C81.3447 143.221 79.7927 142.595 78.2328 141.692C76.0426 140.418 74.5851 138.454 73.1985 136.427C71.6386 134.139 69.9053 132.017 67.463 130.6C67.3764 130.553 67.3291 130.434 67.2661 130.347C65.9504 130.909 64.8001 131.764 63.5396 132.437C62.996 132.73 62.4839 133.078 61.9639 133.403L61.9797 133.395Z" fill="white"/>
<path d="M123.596 178.873C124.353 177.369 123.786 175.912 122.32 175.263C120.579 174.479 118.838 174.518 117.105 175.104C115.23 175.738 113.67 175.073 112.149 174.115C109.809 172.642 108.328 170.393 106.784 168.184C104.94 165.54 102.672 163.347 99.5989 162.143C98.0154 161.526 96.4003 161.359 94.7853 161.953C92.855 162.658 91.2242 162.048 89.5776 161.059C87.3481 159.721 85.9693 157.622 84.5355 155.572C82.944 153.299 81.1399 151.249 78.674 149.879C76.6571 148.755 74.6324 148.058 72.261 148.937C70.3938 149.626 68.6133 149.032 66.9667 147.955C65.0601 146.704 63.6578 144.994 62.413 143.141C60.8058 140.75 58.978 138.589 56.5121 137.037C56.4491 136.997 56.4254 136.902 56.386 136.831C56.3624 136.831 56.3151 136.831 56.3073 136.831C55.803 137.385 55.9685 139.729 56.5909 140.109C59.0017 141.574 60.3331 143.965 61.9088 146.174C62.7124 147.298 63.6578 148.383 64.7371 149.317C66.2734 150.647 68.0145 151.653 69.8659 152.373C70.8429 152.753 72.0246 152.769 73.1355 152.373C74.8293 151.779 76.5468 151.629 78.1934 152.547C80.0054 153.561 81.4787 154.954 82.6919 156.641C84.0628 158.541 85.3391 160.52 87.0802 162.127C88.7583 163.671 90.6412 164.867 92.8708 165.445C94.155 165.777 95.4392 165.603 96.6524 165.207C98.6299 164.558 100.229 165.31 101.821 166.308C103.964 167.654 105.334 169.705 106.689 171.739C107.745 173.331 108.974 174.851 110.424 175.951C112.393 177.44 114.552 178.952 117.294 178.651C117.987 178.58 118.704 178.517 119.366 178.295C120.894 177.78 122.265 178.113 123.604 178.865L123.596 178.873Z" fill="white"/>
<path d="M105.35 99.3499C103.593 100.347 101.829 101.345 100.072 102.335C99.8983 102.43 99.7486 102.549 99.7486 102.778C99.788 102.849 99.8117 102.944 99.8747 102.984C102.333 104.536 104.168 106.697 105.776 109.088C107.028 110.949 108.423 112.659 110.329 113.902C111.976 114.987 113.756 115.573 115.624 114.884C117.995 114.005 120.02 114.702 122.037 115.826C124.502 117.196 126.307 119.247 127.898 121.519C129.332 123.57 130.711 125.66 132.94 127.006C134.587 127.995 136.218 128.613 138.148 127.9C139.763 127.307 141.378 127.465 142.962 128.09C146.034 129.294 148.295 131.487 150.147 134.131C151.691 136.34 153.172 138.589 155.512 140.062C157.032 141.012 158.592 141.685 160.467 141.051C162.201 140.465 163.942 140.434 165.683 141.21C167.148 141.867 167.715 143.316 166.959 144.82C166.959 144.868 166.959 144.907 166.983 144.947H167.314C172.876 141.685 178.438 138.423 184 135.169C184 134.116 184 133.071 184 132.018C183.819 131.954 183.622 131.922 183.464 131.827C181.581 130.727 179.604 130.577 177.524 131.162C175.397 131.764 173.561 131.131 171.828 129.848C169.724 128.296 168.33 126.166 166.849 124.084C165.249 121.836 163.319 119.959 160.869 118.661C159.616 117.996 158.261 117.608 156.867 117.631C155.914 117.647 154.945 117.988 154.007 118.281C153.266 118.51 152.597 118.376 151.927 118.146C149.382 117.275 147.523 115.533 145.995 113.388C144.655 111.511 143.403 109.563 141.677 108.012C140.023 106.523 138.203 105.32 136.013 104.773C134.666 104.441 133.326 104.607 132.05 105.066C130.813 105.51 129.671 105.28 128.552 104.773C126.456 103.807 124.818 102.287 123.494 100.411C122.084 98.4156 120.745 96.365 118.877 94.7498C118.279 94.2272 117.648 93.7363 117.01 93.2613C116.561 92.9288 116.128 92.8892 115.592 93.2217C114.103 94.156 112.567 95.019 111.054 95.9137C110.897 96.0087 110.676 96.0403 110.652 96.2858C110.715 96.3729 110.763 96.4837 110.849 96.5391C113.292 97.9564 115.017 100.07 116.585 102.366C117.971 104.393 119.429 106.365 121.619 107.632C123.179 108.534 124.731 109.168 126.59 108.502C128.568 107.798 130.529 108.035 132.381 108.993C135.123 110.419 137.21 112.564 138.936 115.114C140.307 117.148 141.733 119.152 143.868 120.49C145.498 121.519 147.169 122.311 149.178 121.527C150.414 121.044 151.801 120.965 152.991 121.321C155.669 122.121 157.891 123.736 159.742 125.874C161.539 127.956 162.768 130.489 164.871 132.31C166.88 134.06 168.952 135.477 171.899 134.567C173.821 133.973 175.806 134.131 177.619 135.224C178.075 135.501 178.123 135.628 177.626 135.905C176.334 136.633 175.05 137.386 173.79 138.161C173.238 138.502 172.797 138.494 172.198 138.161C171.269 137.655 170.268 137.298 169.157 137.283C167.96 137.259 166.841 137.607 165.706 137.869C164.714 138.09 163.705 138.035 162.823 137.584C160.381 136.333 158.474 134.48 156.961 132.176C155.504 129.959 153.912 127.845 151.683 126.325C149.422 124.781 147.09 123.577 144.246 124.535C142.434 125.145 140.756 124.876 139.148 123.878C137.336 122.754 135.91 121.266 134.689 119.532C133.051 117.196 131.451 114.829 129.017 113.174C126.582 111.527 124.085 110.498 121.099 111.574C119.523 112.145 118.003 111.67 116.632 110.822C114.985 109.809 113.599 108.502 112.449 106.919C110.936 104.837 109.636 102.564 107.548 100.949C106.831 100.395 106.099 99.8724 105.366 99.334L105.35 99.3499Z" fill="#D32833"/>
<path d="M105.35 99.35C106.075 99.8884 106.816 100.411 107.532 100.965C109.612 102.58 110.912 104.853 112.433 106.935C113.583 108.518 114.97 109.825 116.616 110.838C117.987 111.685 119.508 112.161 121.083 111.59C124.077 110.514 126.567 111.543 129.001 113.19C131.435 114.837 133.035 117.204 134.673 119.548C135.887 121.282 137.321 122.778 139.133 123.894C140.74 124.892 142.426 125.161 144.23 124.551C147.082 123.601 149.414 124.797 151.667 126.341C153.897 127.869 155.488 129.983 156.946 132.192C158.458 134.496 160.365 136.349 162.807 137.599C163.69 138.051 164.698 138.106 165.691 137.885C166.833 137.631 167.944 137.283 169.141 137.299C170.252 137.314 171.253 137.671 172.182 138.177C172.781 138.502 173.215 138.51 173.774 138.177C175.042 137.402 176.319 136.649 177.611 135.921C178.107 135.644 178.06 135.517 177.603 135.24C175.791 134.147 173.805 133.989 171.883 134.583C168.937 135.486 166.872 134.068 164.856 132.326C162.752 130.497 161.523 127.964 159.727 125.889C157.883 123.752 155.654 122.137 152.975 121.337C151.785 120.981 150.399 121.06 149.162 121.543C147.161 122.319 145.491 121.535 143.852 120.506C141.725 119.16 140.291 117.164 138.92 115.13C137.195 112.58 135.107 110.435 132.365 109.009C130.514 108.043 128.552 107.814 126.575 108.518C124.715 109.176 123.163 108.55 121.603 107.648C119.413 106.373 117.956 104.409 116.569 102.382C115.009 100.094 113.276 97.9724 110.834 96.5551C110.747 96.5076 110.7 96.3889 110.637 96.3018C109.321 96.8639 108.171 97.719 106.91 98.392C106.366 98.6849 105.854 99.0333 105.334 99.3579L105.35 99.35Z" fill="white"/>
<path d="M166.967 144.828C167.723 143.324 167.156 141.867 165.691 141.218C163.95 140.434 162.208 140.473 160.475 141.059C158.6 141.693 157.04 141.028 155.52 140.07C153.18 138.597 151.699 136.348 150.155 134.139C148.311 131.495 146.042 129.302 142.969 128.098C141.386 127.481 139.771 127.315 138.156 127.908C136.226 128.613 134.595 128.003 132.948 127.014C130.719 125.676 129.34 123.578 127.906 121.527C126.315 119.255 124.51 117.204 122.044 115.834C120.028 114.71 118.003 114.013 115.631 114.892C113.764 115.581 111.984 114.987 110.337 113.91C108.431 112.659 107.028 110.949 105.783 109.096C104.176 106.705 102.349 104.544 99.8826 102.992C99.8195 102.952 99.7959 102.857 99.7565 102.786C99.7329 102.786 99.6856 102.786 99.6777 102.786C99.1735 103.34 99.339 105.684 99.9614 106.064C102.372 107.529 103.704 109.92 105.279 112.129C106.083 113.253 107.028 114.338 108.108 115.272C109.644 116.602 111.385 117.608 113.236 118.328C114.213 118.708 115.395 118.724 116.506 118.328C118.2 117.734 119.917 117.584 121.564 118.502C123.376 119.516 124.849 120.909 126.062 122.596C127.433 124.496 128.71 126.475 130.451 128.083C132.129 129.626 134.012 130.822 136.241 131.4C137.525 131.733 138.81 131.558 140.023 131.162C142 130.513 143.6 131.265 145.191 132.263C147.334 133.609 148.705 135.66 150.06 137.694C151.116 139.286 152.345 140.806 153.794 141.907C155.764 143.395 157.923 144.907 160.664 144.606C161.358 144.535 162.074 144.472 162.736 144.25C164.265 143.736 165.636 144.068 166.975 144.82L166.967 144.828Z" fill="white"/>
</g>
<defs>
<clipPath id="clip0_219_36245">
<rect width="128" height="86" fill="white" transform="translate(56 93)"/>
</clipPath>
</defs>
</svg>
