<svg width="174" height="200" viewBox="0 0 174 200" fill="none" xmlns="http://www.w3.org/2000/svg">
<rect width="174" height="200" fill="white" fill-opacity="0.05"/>
<path d="M79.528 68.2913C79.528 68.2913 79.819 72.4288 75.2877 72.0151C75.1422 71.9037 74.685 71.5058 74.5603 70.8375C74.4355 70.2009 74.7057 69.7076 74.7889 69.5644C76.8259 69.8985 78.6134 70.551 79.5072 68.2913H79.528Z" fill="#234A04"/>
<path d="M70.775 114.594C70.775 114.594 71.1961 120.107 76.0766 119.54C76.1757 119.471 76.8446 118.991 76.9932 118.029C77.1666 117.033 76.6712 116.312 76.5968 116.209C74.392 116.655 71.7411 117.651 70.775 114.577V114.594Z" fill="#234A04"/>
<path d="M64.3199 34.6524C68.0353 28.1974 64.3199 22.7307 64.3199 22.7307C64.3199 22.7307 68.1229 21.7925 73.6897 18.4023C79.7069 14.737 87.8757 18.4023 91.3409 24.2444C91.3409 24.2444 85.5364 29.1106 90.3526 39.4687C93.1798 45.5359 85.5114 60.8477 70.9376 54.5053C56.3638 48.1629 64.3199 34.6524 64.3199 34.6524Z" fill="#B21F26"/>
<path d="M89.6021 32.751C85.2112 25.5454 90.3151 19.3656 90.3151 19.3656C90.3151 19.3656 86.2995 18.1022 80.5576 13.974C74.3402 9.508 65.3958 13.1608 61.3427 19.5283C61.3427 19.5283 67.2597 25.3203 61.4928 36.6791C58.1152 43.3342 65.3833 60.9604 81.3457 54.668C97.308 48.3756 89.6021 32.751 89.6021 32.751Z" fill="#A0101E"/>
<path d="M89.6021 32.751C85.2112 25.5454 90.3151 19.3656 90.3151 19.3656C90.3151 19.3656 86.2995 18.1022 80.5576 13.974C74.3402 9.508 65.3958 13.1608 61.3427 19.5283C61.3427 19.5283 67.2597 25.3203 61.4928 36.6791C58.1152 43.3342 65.3833 60.9604 81.3457 54.668C97.308 48.3756 89.6021 32.751 89.6021 32.751Z" fill="url(#paint0_linear_622_49920)"/>
<path d="M80.5576 55.3307C73.9274 57.6075 57.1644 54.9179 58.9158 37.9673C60.3044 24.4443 52.0355 24.6194 52.0355 24.6194C51.5976 23.1433 57.7274 19.8157 64.4701 20.4912C77.4802 21.8048 71.0127 28.7977 78.0556 33.739C84.0353 37.9298 84.8234 53.8671 80.5576 55.3307Z" fill="#B21F26"/>
<path d="M80.5576 55.3307C73.9274 57.6075 57.1644 54.9179 58.9158 37.9673C60.3044 24.4443 52.0355 24.6194 52.0355 24.6194C51.5976 23.1433 57.7274 19.8157 64.4701 20.4912C77.4802 21.8048 71.0127 28.7977 78.0556 33.739C84.0353 37.9298 84.8234 53.8671 80.5576 55.3307Z" fill="url(#paint1_linear_622_49920)"/>
<path d="M71.8258 55.3307C78.4559 57.6075 95.2189 54.9179 93.4675 37.9673C92.0665 24.4443 100.348 24.6194 100.348 24.6194C100.786 23.1433 94.656 19.8157 87.9132 20.4912C74.9032 21.8048 81.3707 28.7977 74.3277 33.739C68.3481 37.9298 67.56 53.8671 71.8258 55.3307Z" fill="#B21F26"/>
<path d="M71.8258 55.3307C78.4559 57.6075 95.2189 54.9179 93.4675 37.9673C92.0665 24.4443 100.348 24.6194 100.348 24.6194C100.786 23.1433 94.656 19.8157 87.9132 20.4912C74.9032 21.8048 81.3707 28.7977 74.3277 33.739C68.3481 37.9298 67.56 53.8671 71.8258 55.3307Z" fill="url(#paint2_linear_622_49920)"/>
<path d="M64.5076 34.6526C68.223 28.1976 64.5076 22.7434 64.5076 22.7434C64.5076 22.7434 68.3106 21.8052 73.8774 18.415C79.8946 14.7497 88.0634 18.415 91.5286 24.2571C91.5286 24.2571 86.2245 28.7355 90.5403 39.4688C93.0297 45.6737 85.7116 60.8354 71.1253 54.5055C56.539 48.1631 64.5076 34.6651 64.5076 34.6651V34.6526Z" fill="#B21F26"/>
<path d="M64.5076 34.6526C68.223 28.1976 64.5076 22.7434 64.5076 22.7434C64.5076 22.7434 68.3106 21.8052 73.8774 18.415C79.8946 14.7497 88.0634 18.415 91.5286 24.2571C91.5286 24.2571 86.2245 28.7355 90.5403 39.4688C93.0297 45.6737 85.7116 60.8354 71.1253 54.5055C56.539 48.1631 64.5076 34.6651 64.5076 34.6651V34.6526Z" fill="url(#paint3_linear_622_49920)"/>
<path opacity="0.5" d="M91.5286 24.2447C90.2526 22.0931 88.3386 20.2541 86.1369 18.9531C88.3136 20.3792 90.19 22.2307 91.3534 24.2447C91.3534 24.2447 84.4481 28.1853 88.4136 38.8936C90.753 45.211 85.0986 59.2468 67.7977 52.6793C68.7484 53.3298 69.8367 53.9427 71.1127 54.4932C85.699 60.8356 93.0172 45.6738 90.5278 39.4565C86.2119 28.7107 91.516 24.2447 91.516 24.2447H91.5286Z" fill="#610012"/>
<path opacity="0.15" d="M65.6961 35.5781C69.8118 28.5477 66.6718 23.4688 66.6718 23.4688C66.6718 23.4688 69.7242 22.9559 75.1409 19.5532C80.5576 16.1506 87.8758 19.5532 91.5036 24.2694L91.5286 24.2444C88.0634 18.4023 79.8946 14.737 73.8774 18.4023C68.3106 21.7925 64.5076 22.7307 64.5076 22.7307C64.5076 22.7307 68.223 28.1849 64.5076 34.6524C64.5076 34.6524 57.89 45.8861 67.7852 52.6789C60.2043 45.7986 65.6961 35.5907 65.6961 35.5907V35.5781Z" fill="white"/>
<path d="M109.838 88.7296C110.326 88.0916 110.826 87.7413 111.101 87.3786C111.289 87.1284 111.339 86.703 111.527 86.4403C111.739 86.1526 111.927 86.2527 112.152 85.965C112.315 85.7523 112.352 85.377 112.515 85.1643C112.703 84.9392 112.903 84.9892 113.09 84.764C113.178 84.664 113.241 84.2762 113.316 84.1761C116.418 80.3606 120.083 76.2199 122.41 72.1292C121.272 71.5663 120.309 73.08 119.17 72.2293C118.67 71.8415 118.019 72.492 117.431 72.6546C116.706 73.2676 116.318 71.9666 115.48 72.5921C114.529 73.2926 113.578 72.7923 112.528 73.0174C111.452 73.7805 110.288 72.5546 109.238 73.6054C109.037 73.743 108.7 74.0808 108.499 73.7305C107.786 72.4795 107.023 73.4052 106.273 73.4803C105.134 74.431 105.672 72.8923 104.684 73.2676C103.045 73.8306 101.594 73.5178 100.005 73.7055C99.6676 73.743 99.0421 74.381 98.6668 74.4185C98.4917 74.431 98.2915 74.0307 98.1164 74.0432C97.7286 74.0808 97.2157 74.6437 96.8404 74.7187C96.5527 74.7688 96.5902 74.2434 96.315 74.3059C96.1023 74.356 95.727 74.7062 95.5144 74.7688C92.8248 75.4818 90.3979 76.7828 88.3713 78.4842C88.1962 78.6343 87.7584 78.6843 87.5957 78.8469C87.2955 79.1096 87.2705 79.4849 86.9828 79.7727C86.7451 80.0103 86.5449 79.8102 86.3197 80.0604C86.1821 80.2105 86.032 80.8235 85.8944 80.9736C85.6818 81.2363 85.3065 81.2988 85.1063 81.5615C84.9187 81.8117 84.8936 82.2871 84.7185 82.5498C84.4433 82.9501 84.1806 82.775 83.9554 83.1878C83.7428 83.5756 83.7803 83.8508 83.5926 84.2511C83.4175 84.6264 83.1048 84.8266 82.9421 85.2394C82.742 85.7523 82.8421 86.1651 82.6919 86.7155C81.8663 89.8054 81.5536 93.4583 82.5293 96.2479C84.9937 94.2839 89.8725 95.3097 93.2001 94.9469C94.3635 94.8969 95.652 94.7593 96.6277 94.8218C96.8779 94.8468 97.0406 94.1588 97.2907 94.1088C97.5409 94.0587 97.8537 94.3214 98.0914 94.2714C98.4041 94.1963 98.3666 93.8711 98.6793 93.796C99.1547 93.6709 99.2673 93.9587 99.7301 93.796C100.018 93.7085 100.118 93.4332 100.418 93.3332C100.631 93.2581 101.106 93.6209 101.319 93.5458C102.157 93.2331 103.008 92.8578 103.858 92.4325C104.171 92.2824 104.234 91.9571 104.534 91.7945C104.709 91.7069 105.122 91.7695 105.297 91.6694C105.522 91.5443 105.522 91.3692 105.735 91.2315C105.847 91.169 106.16 91.169 106.273 91.0939C107.411 90.4184 108.9 89.4051 109.838 88.7296Z" fill="#6C9740"/>
<path d="M109.838 88.7296C110.326 88.0916 110.826 87.7413 111.101 87.3786C111.289 87.1284 111.339 86.703 111.527 86.4403C111.739 86.1526 111.927 86.2527 112.152 85.965C112.315 85.7523 112.352 85.377 112.515 85.1643C112.703 84.9392 112.903 84.9892 113.09 84.764C113.178 84.664 113.241 84.2762 113.316 84.1761C116.418 80.3606 120.083 76.2199 122.41 72.1292C121.272 71.5663 120.309 73.08 119.17 72.2293C118.67 71.8415 118.019 72.492 117.431 72.6546C116.706 73.2676 116.318 71.9666 115.48 72.5921C114.529 73.2926 113.578 72.7923 112.528 73.0174C111.452 73.7805 110.288 72.5546 109.238 73.6054C109.037 73.743 108.7 74.0808 108.499 73.7305C107.786 72.4795 107.023 73.4052 106.273 73.4803C105.134 74.431 105.672 72.8923 104.684 73.2676C103.045 73.8306 101.594 73.5178 100.005 73.7055C99.6676 73.743 99.0421 74.381 98.6668 74.4185C98.4917 74.431 98.2915 74.0307 98.1164 74.0432C97.7286 74.0808 97.2157 74.6437 96.8404 74.7187C96.5527 74.7688 96.5902 74.2434 96.315 74.3059C96.1023 74.356 95.727 74.7062 95.5144 74.7688C92.8248 75.4818 90.3979 76.7828 88.3713 78.4842C88.1962 78.6343 87.7584 78.6843 87.5957 78.8469C87.2955 79.1096 87.2705 79.4849 86.9828 79.7727C86.7451 80.0103 86.5449 79.8102 86.3197 80.0604C86.1821 80.2105 86.032 80.8235 85.8944 80.9736C85.6818 81.2363 85.3065 81.2988 85.1063 81.5615C84.9187 81.8117 84.8936 82.2871 84.7185 82.5498C84.4433 82.9501 84.1806 82.775 83.9554 83.1878C83.7428 83.5756 83.7803 83.8508 83.5926 84.2511C83.4175 84.6264 83.1048 84.8266 82.9421 85.2394C82.742 85.7523 82.8421 86.1651 82.6919 86.7155C81.8663 89.8054 81.5536 93.4583 82.5293 96.2479C84.9937 94.2839 89.8725 95.3097 93.2001 94.9469C94.3635 94.8969 95.652 94.7593 96.6277 94.8218C96.8779 94.8468 97.0406 94.1588 97.2907 94.1088C97.5409 94.0587 97.8537 94.3214 98.0914 94.2714C98.4041 94.1963 98.3666 93.8711 98.6793 93.796C99.1547 93.6709 99.2673 93.9587 99.7301 93.796C100.018 93.7085 100.118 93.4332 100.418 93.3332C100.631 93.2581 101.106 93.6209 101.319 93.5458C102.157 93.2331 103.008 92.8578 103.858 92.4325C104.171 92.2824 104.234 91.9571 104.534 91.7945C104.709 91.7069 105.122 91.7695 105.297 91.6694C105.522 91.5443 105.522 91.3692 105.735 91.2315C105.847 91.169 106.16 91.169 106.273 91.0939C107.411 90.4184 108.9 89.4051 109.838 88.7296Z" fill="url(#paint4_linear_622_49920)" style="mix-blend-mode:multiply"/>
<path d="M74.6983 101.277C74.6983 101.277 78.4387 104.129 82.3792 97.649C86.3198 91.169 82.0915 96.7859 82.0915 96.7859C82.0915 96.7859 79.3143 100.902 75.9117 100.776C72.5091 100.651 74.6858 101.277 74.6858 101.277H74.6983Z" fill="#234A04"/>
<path d="M90.2228 86.215C94.989 82.2744 103.108 82.2744 106.898 80.7357C111.001 79.0719 115.492 74.4434 115.492 74.4434C115.492 74.4434 115.005 74.9938 112.665 77.4207C106.598 83.713 99.7802 81.1486 91.5739 86.2525C87.2956 88.9171 83.943 94.8967 83.943 94.8967C83.943 94.8967 82.3167 97.3111 83.33 95.247C84.6185 92.6074 87.9711 88.0664 90.2228 86.215Z" fill="#234A04"/>
<path d="M90.5856 88.7925C93.1751 88.7925 96.0023 87.5415 96.0023 87.5415C96.0023 87.5415 95.5269 88.1545 93.8506 88.7174C89.4597 90.1936 86.0946 88.7925 90.5856 88.7925Z" fill="#234A04"/>
<path d="M99.4925 84.3513C101.807 85.1895 104.759 84.9768 104.759 84.9768C104.759 84.9768 104.146 85.3771 102.445 85.3271C98.0413 85.227 95.4769 82.8877 99.4925 84.3388V84.3513Z" fill="#234A04"/>
<path d="M103.458 80.2727C105.522 78.9342 107.148 76.4573 107.148 76.4573C107.148 76.4573 107.086 77.1828 106.035 78.5089C103.295 81.949 99.8803 82.587 103.471 80.2602L103.458 80.2727Z" fill="#234A04"/>
<path d="M109.162 81.0487C110.939 80.3982 113.216 80.5609 113.216 80.5609C113.216 80.5609 112.74 80.2606 111.439 80.2857C108.049 80.3607 106.073 82.1621 109.162 81.0487Z" fill="#234A04"/>
<path d="M86.4824 88.4666C86.6325 85.9897 88.0085 83.3376 88.0085 83.3376C88.0085 83.3376 87.3956 83.7505 86.7451 85.3392C85.0688 89.4549 86.2071 92.77 86.4698 88.4666H86.4824Z" fill="#234A04"/>
<path d="M93.813 82.5998C94.9889 80.5733 97.2782 78.897 97.2782 78.897C97.2782 78.897 96.5777 78.997 95.3642 80.0729C92.1993 82.8751 91.7614 86.1276 93.813 82.5998Z" fill="#234A04"/>
<path d="M73.0768 56.0942C73.0768 56.0942 72.1636 83.7156 72.3137 92.9853C72.639 112.876 77.9431 127.337 78.7937 130.289C79.5818 133.004 81.8211 130.815 81.8211 130.815C81.8211 130.815 75.4036 109.711 75.2034 92.4849C74.9532 70.9933 78.1307 56.2318 78.1307 56.2318C78.1307 56.2318 84.6358 55.0184 85.7992 53.8675C86.0869 53.5798 81.8586 56.3069 80.2198 52.3038C80.1072 52.0286 78.556 54.2803 75.1784 54.0176C71.8008 53.7549 70.5623 51.8159 70.4623 52.0536C68.7484 55.7064 65.3208 53.0919 65.3083 53.4046C65.2958 54.493 73.0768 56.0942 73.0768 56.0942Z" fill="#336900"/>
<path d="M68.273 85.8047C68.273 85.8047 68.6942 89.9457 73.5747 89.528C73.6738 89.4735 74.3427 89.1284 74.4913 88.4019C74.6647 87.6573 74.1692 87.1124 74.0949 87.0397C71.89 87.3667 69.2392 88.1113 68.273 85.8229V85.8047Z" fill="#234A04"/>
<path d="M61.0195 158.675C61.6529 158.558 62.3779 158.467 63.1945 158.4C64.0279 158.333 64.7862 158.3 65.4695 158.3C66.2362 158.3 66.9612 158.383 67.6445 158.55C68.3445 158.717 68.9529 158.992 69.4695 159.375C70.0029 159.758 70.4279 160.258 70.7445 160.875C71.0612 161.492 71.2195 162.242 71.2195 163.125C71.2195 163.808 71.1029 164.417 70.8695 164.95C70.6529 165.467 70.3779 165.917 70.0445 166.3C69.7279 166.667 69.3945 166.967 69.0445 167.2C68.6945 167.433 68.3945 167.6 68.1445 167.7L72.7695 176H70.3445L66.2195 168.3H63.0945V176H61.0195V158.675ZM65.5195 160.1C65.3029 160.1 65.0779 160.1 64.8445 160.1C64.6112 160.1 64.3862 160.108 64.1695 160.125C63.9529 160.142 63.7445 160.158 63.5445 160.175C63.3612 160.192 63.2112 160.217 63.0945 160.25V166.7H65.0445C66.1945 166.7 67.1445 166.417 67.8945 165.85C68.6445 165.283 69.0195 164.4 69.0195 163.2C69.0195 162.3 68.7112 161.558 68.0945 160.975C67.4779 160.392 66.6195 160.1 65.5195 160.1ZM73.9348 169.75C73.9348 167.733 74.4598 166.142 75.5098 164.975C76.5598 163.792 78.0598 163.2 80.0098 163.2C81.0598 163.2 81.9598 163.375 82.7098 163.725C83.4764 164.058 84.1098 164.517 84.6098 165.1C85.1098 165.683 85.4764 166.375 85.7098 167.175C85.9598 167.975 86.0848 168.833 86.0848 169.75C86.0848 170.75 85.9514 171.658 85.6848 172.475C85.4181 173.275 85.0264 173.958 84.5098 174.525C83.9931 175.092 83.3514 175.533 82.5848 175.85C81.8348 176.15 80.9764 176.3 80.0098 176.3C78.9764 176.3 78.0764 176.133 77.3098 175.8C76.5431 175.45 75.9098 174.983 75.4098 174.4C74.9098 173.817 74.5348 173.125 74.2848 172.325C74.0514 171.525 73.9348 170.667 73.9348 169.75ZM76.0098 169.75C76.0098 170.333 76.0764 170.917 76.2098 171.5C76.3598 172.083 76.5931 172.608 76.9098 173.075C77.2264 173.542 77.6348 173.917 78.1348 174.2C78.6514 174.483 79.2764 174.625 80.0098 174.625C81.3431 174.625 82.3431 174.217 83.0098 173.4C83.6931 172.567 84.0348 171.35 84.0348 169.75C84.0348 169.15 83.9598 168.567 83.8098 168C83.6764 167.417 83.4431 166.892 83.1098 166.425C82.7931 165.958 82.3764 165.583 81.8598 165.3C81.3598 165.017 80.7431 164.875 80.0098 164.875C78.6764 164.875 77.6764 165.283 77.0098 166.1C76.3431 166.917 76.0098 168.133 76.0098 169.75ZM97.45 172.625C97.45 172.092 97.2417 171.683 96.825 171.4C96.4083 171.1 95.8917 170.867 95.275 170.7C94.6583 170.517 93.9833 170.35 93.25 170.2C92.5333 170.05 91.8667 169.85 91.25 169.6C90.6333 169.35 90.1167 169.017 89.7 168.6C89.2833 168.167 89.075 167.567 89.075 166.8C89.075 166.167 89.2083 165.625 89.475 165.175C89.7583 164.725 90.125 164.358 90.575 164.075C91.025 163.775 91.55 163.558 92.15 163.425C92.75 163.275 93.375 163.2 94.025 163.2C95.1917 163.2 96.1917 163.35 97.025 163.65C97.875 163.933 98.55 164.233 99.05 164.55L98.25 166.125C97.7 165.825 97.1 165.542 96.45 165.275C95.8167 164.992 95.0167 164.85 94.05 164.85C93.6833 164.85 93.3167 164.892 92.95 164.975C92.6 165.042 92.275 165.15 91.975 165.3C91.6917 165.45 91.4583 165.65 91.275 165.9C91.1083 166.133 91.025 166.425 91.025 166.775C91.025 167.208 91.2333 167.542 91.65 167.775C92.0667 168.008 92.5833 168.208 93.2 168.375C93.8167 168.525 94.4833 168.675 95.2 168.825C95.9333 168.958 96.6083 169.158 97.225 169.425C97.8417 169.692 98.3583 170.05 98.775 170.5C99.1917 170.95 99.4 171.558 99.4 172.325C99.4 173.475 98.9417 174.425 98.025 175.175C97.125 175.925 95.7667 176.3 93.95 176.3C93.4 176.3 92.8583 176.25 92.325 176.15C91.7917 176.05 91.2917 175.917 90.825 175.75C90.3583 175.583 89.9333 175.4 89.55 175.2C89.1667 174.983 88.85 174.767 88.6 174.55L89.6 172.925C89.8 173.125 90.0667 173.333 90.4 173.55C90.7333 173.75 91.1 173.933 91.5 174.1C91.9 174.267 92.325 174.4 92.775 174.5C93.2417 174.6 93.7083 174.65 94.175 174.65C94.625 174.65 95.0417 174.617 95.425 174.55C95.825 174.467 96.175 174.35 96.475 174.2C96.775 174.033 97.0083 173.825 97.175 173.575C97.3583 173.308 97.45 172.992 97.45 172.625ZM103.19 164.475C103.907 164.058 104.715 163.758 105.615 163.575C106.515 163.392 107.399 163.3 108.265 163.3C109.115 163.3 109.807 163.433 110.34 163.7C110.89 163.967 111.315 164.317 111.615 164.75C111.932 165.167 112.14 165.65 112.24 166.2C112.357 166.733 112.415 167.275 112.415 167.825C112.415 168.458 112.399 169.133 112.365 169.85C112.332 170.567 112.307 171.283 112.29 172C112.29 172.833 112.34 173.625 112.44 174.375H114.115V176H110.79L110.565 174.125H110.44C110.34 174.275 110.19 174.467 109.99 174.7C109.79 174.933 109.524 175.167 109.19 175.4C108.874 175.617 108.482 175.808 108.015 175.975C107.549 176.142 106.999 176.225 106.365 176.225C105.132 176.225 104.157 175.908 103.44 175.275C102.724 174.642 102.365 173.775 102.365 172.675C102.365 171.825 102.549 171.117 102.915 170.55C103.299 169.983 103.84 169.55 104.54 169.25C105.24 168.95 106.082 168.775 107.065 168.725C108.065 168.675 109.182 168.742 110.415 168.925C110.499 168.158 110.507 167.525 110.44 167.025C110.39 166.508 110.257 166.1 110.04 165.8C109.84 165.5 109.549 165.292 109.165 165.175C108.799 165.042 108.34 164.975 107.79 164.975C107.04 164.975 106.324 165.083 105.64 165.3C104.957 165.5 104.349 165.708 103.815 165.925L103.19 164.475ZM106.865 174.55C107.332 174.55 107.765 174.475 108.165 174.325C108.565 174.175 108.915 173.983 109.215 173.75C109.515 173.517 109.765 173.267 109.965 173C110.165 172.717 110.315 172.45 110.415 172.2V170.45C109.549 170.3 108.749 170.225 108.015 170.225C107.282 170.225 106.649 170.308 106.115 170.475C105.582 170.625 105.165 170.867 104.865 171.2C104.565 171.533 104.415 171.967 104.415 172.5C104.415 173.05 104.599 173.533 104.965 173.95C105.349 174.35 105.982 174.55 106.865 174.55Z" fill="white"/>
<defs>
<linearGradient id="paint0_linear_622_49920" x1="86.4121" y1="40.1444" x2="106.169" y2="-12.7118" gradientUnits="userSpaceOnUse">
<stop stop-color="#78071B"/>
<stop offset="0.598958" stop-color="#E74952"/>
<stop offset="1" stop-color="#FF897C"/>
</linearGradient>
<linearGradient id="paint1_linear_622_49920" x1="68.8985" y1="35.7659" x2="71.3447" y2="8.84016" gradientUnits="userSpaceOnUse">
<stop stop-color="#78071B"/>
<stop offset="0.598958" stop-color="#E74952"/>
<stop offset="1" stop-color="#FF897C"/>
</linearGradient>
<linearGradient id="paint2_linear_622_49920" x1="88.914" y1="49.5266" x2="121.375" y2="36.1698" gradientUnits="userSpaceOnUse">
<stop stop-color="#78071B"/>
<stop offset="0.598958" stop-color="#E74952"/>
<stop offset="1" stop-color="#FF897C"/>
</linearGradient>
<linearGradient id="paint3_linear_622_49920" x1="83.2847" y1="51.403" x2="93.2274" y2="11.2459" gradientUnits="userSpaceOnUse">
<stop stop-color="#6B0215"/>
<stop offset="0.668811" stop-color="#E74952"/>
<stop offset="1" stop-color="#FF897C"/>
</linearGradient>
<linearGradient id="paint4_linear_622_49920" x1="92.5534" y1="75.1876" x2="80.6914" y2="92.3892" gradientUnits="userSpaceOnUse">
<stop offset="0.215287" stop-color="#B4D902"/>
<stop offset="0.52" stop-color="#A0C704"/>
<stop offset="1" stop-color="#6C990B"/>
</linearGradient>
</defs>
</svg>
