<svg width="236" height="236" viewBox="0 0 236 236" fill="none" xmlns="http://www.w3.org/2000/svg">
<path d="M200.902 236L236 91.5313L118 5.15794e-06L-6.31493e-06 91.5314L35.0981 236L200.902 236Z" fill="white" fill-opacity="0.6"/>
<path d="M200.902 236L236 91.5313L118 5.15794e-06L-6.31493e-06 91.5314L35.0981 236L200.902 236Z" fill="#0E516A"/>
<g clip-path="url(#clip0_589_23913)">
<g clip-path="url(#clip1_589_23913)">
<g filter="url(#filter0_d_589_23913)">
<path d="M167.519 177.505C167.519 177.547 167.519 178.213 167.519 178.213L169.044 179.091V178.383L167.519 177.505Z" fill="white"/>
<path d="M169.044 178.383L169.044 159.756L172.096 158L170.57 177.505L169.044 178.383Z" fill="#568C9B"/>
<path d="M169.044 178.383L169.044 159.756L166 158L167.519 177.505L169.044 178.383Z" fill="#053448"/>
<path d="M170.57 177.505V178.213L169.044 179.091V178.383L170.57 177.505Z" fill="#DDDDDD"/>
<path d="M83.5482 155.748L85.0739 156.626L85.0739 155.918L83.5482 155.04" fill="#F5F5F5"/>
<path d="M85.074 155.918L85.074 137.291L88.1183 135.535L86.5997 155.04L85.074 155.918Z" fill="#568C9B"/>
<path d="M85.0739 155.918L85.0739 137.291L82.0225 135.535L83.5482 155.04L85.0739 155.918Z" fill="#053448"/>
<path d="M86.5997 155.04V155.748L85.074 156.626L85.074 155.918L86.5997 155.04Z" fill="#DDDDDD"/>
<path d="M146.081 191.075C146.081 191.117 146.081 191.783 146.081 191.783L147.607 192.661V191.953L146.081 191.075Z" fill="white"/>
<path d="M147.607 191.953L147.607 173.326L150.658 171.57L149.133 191.075L147.607 191.953Z" fill="#568C9B"/>
<path d="M147.607 191.953L147.607 173.326L144.563 171.57L146.081 191.075L147.607 191.953Z" fill="#053448"/>
<path d="M149.133 191.075V191.783L147.607 192.661V191.953L149.133 191.075Z" fill="#DDDDDD"/>
<path d="M173.615 105.357L173.615 127.34C173.615 128.679 172.898 129.918 171.735 130.584L170.72 131.172C169.897 130.166 168.74 129.21 167.264 128.36C163.971 126.469 162.289 124.04 162.289 121.745C162.289 119.84 163.446 118.02 165.802 116.66C170.982 113.671 173.551 109.691 173.594 105.505C173.601 105.456 173.601 105.406 173.601 105.357H173.615Z" fill="#053448"/>
<path d="M167.271 128.36C163.985 126.469 162.297 124.04 162.297 121.745C162.297 119.84 163.453 118.02 165.809 116.66C177.362 110.003 175.914 98.3734 162.573 90.689L160.969 89.7683C147.628 82.0768 127.446 81.2482 115.893 87.8986L86.0106 105.123C85.4287 105.456 85.0739 106.079 85.0739 106.745L85.0739 115.13C85.0739 115.803 84.719 116.419 84.1371 116.752L76.8634 120.945C76.2815 121.278 75.9266 121.901 75.9266 122.567L75.9266 132.029L147.614 173.333L147.614 163.871C147.614 163.199 147.969 162.582 148.551 162.249L155.825 158.064C156.407 157.731 156.761 157.108 156.761 156.442L156.761 148.056C156.761 147.384 157.116 146.767 157.698 146.434L168.733 140.075C171.089 138.715 172.246 136.895 172.246 134.996C172.246 132.695 170.557 130.265 167.271 128.374V128.36Z" fill="white"/>
<path d="M166.334 129.982C162.58 127.822 160.423 124.819 160.423 121.738C160.423 119.068 162.006 116.688 164.88 115.031C169.301 112.481 171.742 109.053 171.742 105.371C171.742 100.76 168.059 95.9935 161.644 92.2965L160.04 91.3758C153.306 87.4946 144.35 85.2637 135.479 85.2637C128.206 85.2637 121.592 86.7722 116.837 89.506L87.8912 106.192C87.3093 106.525 86.9545 107.148 86.9545 107.814L86.9545 116.2C86.9545 116.872 86.5996 117.489 86.0177 117.821L78.744 122.014C78.1621 122.347 77.8073 122.97 77.8073 123.636L77.8073 133.098L145.741 172.242L145.741 162.78C145.741 162.108 146.096 161.491 146.677 161.159L153.951 156.966C154.533 156.633 154.888 156.01 154.888 155.344L154.888 146.958C154.888 146.293 155.243 145.669 155.825 145.336L167.796 138.438C168.974 137.765 170.372 136.611 170.372 134.982C170.372 133.353 168.861 131.441 166.334 129.982Z" fill="#00576B"/>
<path d="M160.416 121.745L160.416 131.158C160.416 134.203 162.538 137.185 166.235 139.338L162.006 141.774L102.24 107.34L116.837 98.9257C121.585 96.1919 128.206 94.6833 135.479 94.6833C144.35 94.6833 153.305 96.9072 160.04 100.788L161.637 101.709C165.802 104.11 168.818 106.964 170.415 109.925C169.272 111.83 167.399 113.572 164.88 115.024C162.006 116.681 160.423 119.061 160.423 121.731L160.416 121.745Z" fill="#063E51"/>
<path d="M77.8 130.62L77.8 133.106L145.734 172.25V169.764L77.8 130.62Z" fill="#DDDDDD"/>
<path d="M150.268 159.091L146.67 161.159C146.095 161.499 145.734 162.115 145.734 162.788L145.734 169.771L77.8071 130.62L89.3458 123.977L150.268 159.084V159.091Z" fill="#D32833"/>
<path d="M162.006 141.774L155.825 145.337C155.456 145.556 155.172 145.882 155.016 146.272L89.3387 108.431L96.797 104.209L161.998 141.774H162.006Z" fill="#10617A"/>
<path d="M155.016 146.279C154.93 146.491 154.881 146.725 154.881 146.966L154.881 155.351C154.881 156.017 154.526 156.633 153.944 156.973L150.268 159.084L89.3458 123.976L89.3458 108.43L155.016 146.279Z" fill="#053448"/>
<path d="M150.268 159.083C150.268 159.083 150.254 159.076 150.247 159.076L150.268 159.091L147.224 160.84L146.67 161.159C146.67 161.159 146.649 161.173 146.642 161.18C146.351 161.357 146.117 161.605 145.961 161.895C145.812 162.164 145.734 162.469 145.734 162.788L145.734 168.269L79.1058 129.876L79.1058 127.602L89.3459 121.71L152.234 157.957L150.268 159.091V159.083Z" fill="#053448"/>
<path d="M81.327 128.884L79.1058 127.602L79.1058 129.876L81.327 131.158L81.327 128.884Z" fill="#E1E1E1"/>
<path d="M81.327 128.884L79.1058 127.602L79.1058 129.876L81.327 131.158L81.327 128.884Z" stroke="#D32833" stroke-width="0.05" stroke-miterlimit="10"/>
<path d="M83.8534 130.336L81.6322 129.054L81.6322 131.328L83.8534 132.61L83.8534 130.336Z" fill="#E1E1E1"/>
<path d="M83.8534 130.336L81.6322 129.054L81.6322 131.328L83.8534 132.61L83.8534 130.336Z" stroke="#D32833" stroke-width="0.05" stroke-miterlimit="10"/>
<path d="M86.3796 131.795L84.1584 130.513L84.1584 132.786L86.3796 134.068L86.3796 131.795Z" fill="#E1E1E1"/>
<path d="M86.3796 131.795L84.1584 130.513L84.1584 132.786L86.3796 134.068L86.3796 131.795Z" stroke="#D32833" stroke-width="0.05" stroke-miterlimit="10"/>
<path d="M88.906 133.254L86.6848 131.972L86.6848 134.246L88.906 135.528L88.906 133.254Z" fill="#E1E1E1"/>
<path d="M88.906 133.254L86.6848 131.972L86.6848 134.246L88.906 135.528L88.906 133.254Z" stroke="#D32833" stroke-width="0.05" stroke-miterlimit="10"/>
<path d="M91.4393 134.706L89.2111 133.424L89.2111 135.697L91.4393 136.979L91.4393 134.706Z" fill="#E1E1E1"/>
<path d="M91.4393 134.706L89.2111 133.424L89.2111 135.697L91.4393 136.979L91.4393 134.706Z" stroke="#D32833" stroke-width="0.05" stroke-miterlimit="10"/>
<path d="M93.9657 136.165L91.7374 134.883L91.7374 137.157L93.9657 138.438L93.9657 136.165Z" fill="#E1E1E1"/>
<path d="M93.9657 136.165L91.7374 134.883L91.7374 137.157L93.9657 138.438L93.9657 136.165Z" stroke="#D32833" stroke-width="0.05" stroke-miterlimit="10"/>
<path d="M96.4919 137.617L94.2637 136.342L94.2637 138.615L96.4919 139.89L96.4919 137.617Z" fill="#E1E1E1"/>
<path d="M96.4919 137.617L94.2637 136.342L94.2637 138.615L96.4919 139.89L96.4919 137.617Z" stroke="#D32833" stroke-width="0.05" stroke-miterlimit="10"/>
<path d="M99.0182 139.076L96.7899 137.794L96.7899 140.067L99.0182 141.349L99.0182 139.076Z" fill="#E1E1E1"/>
<path d="M99.0182 139.076L96.7899 137.794L96.7899 140.067L99.0182 141.349L99.0182 139.076Z" stroke="#D32833" stroke-width="0.05" stroke-miterlimit="10"/>
<path d="M101.545 140.535L99.3234 139.253L99.3234 141.526L101.545 142.808L101.545 140.535Z" fill="#E1E1E1"/>
<path d="M101.545 140.535L99.3234 139.253L99.3234 141.526L101.545 142.808L101.545 140.535Z" stroke="#D32833" stroke-width="0.05" stroke-miterlimit="10"/>
<path d="M104.071 141.987L101.85 140.705L101.85 142.978L104.071 144.26L104.071 141.987Z" fill="#E1E1E1"/>
<path d="M104.071 141.987L101.85 140.705L101.85 142.978L104.071 144.26L104.071 141.987Z" stroke="#D32833" stroke-width="0.05" stroke-miterlimit="10"/>
<path d="M106.597 143.445L104.376 142.163L104.376 144.437L106.597 145.719L106.597 143.445Z" fill="#E1E1E1"/>
<path d="M106.597 143.445L104.376 142.163L104.376 144.437L106.597 145.719L106.597 143.445Z" stroke="#D32833" stroke-width="0.05" stroke-miterlimit="10"/>
<path d="M109.124 144.897L106.902 143.623L106.902 145.896L109.124 147.171L109.124 144.897Z" fill="#E1E1E1"/>
<path d="M109.124 144.897L106.902 143.623L106.902 145.896L109.124 147.171L109.124 144.897Z" stroke="#D32833" stroke-width="0.05" stroke-miterlimit="10"/>
<path d="M111.657 146.357L109.429 145.075L109.429 147.348L111.657 148.63L111.657 146.357Z" fill="#E1E1E1"/>
<path d="M111.657 146.357L109.429 145.075L109.429 147.348L111.657 148.63L111.657 146.357Z" stroke="#D32833" stroke-width="0.05" stroke-miterlimit="10"/>
<path d="M114.183 147.815L111.955 146.533L111.955 148.807L114.183 150.089L114.183 147.815Z" fill="#E1E1E1"/>
<path d="M114.183 147.815L111.955 146.533L111.955 148.807L114.183 150.089L114.183 147.815Z" stroke="#D32833" stroke-width="0.05" stroke-miterlimit="10"/>
<path d="M116.709 149.267L114.481 147.985L114.481 150.259L116.709 151.541L116.709 149.267Z" fill="#E1E1E1"/>
<path d="M116.709 149.267L114.481 147.985L114.481 150.259L116.709 151.541L116.709 149.267Z" stroke="#D32833" stroke-width="0.05" stroke-miterlimit="10"/>
<path d="M119.236 150.726L117.008 149.444L117.008 151.718L119.236 152.999L119.236 150.726Z" fill="#E1E1E1"/>
<path d="M119.236 150.726L117.008 149.444L117.008 151.718L119.236 152.999L119.236 150.726Z" stroke="#D32833" stroke-width="0.05" stroke-miterlimit="10"/>
<path d="M121.762 152.185L119.541 150.904L119.541 153.177L121.762 154.459L121.762 152.185Z" fill="#E1E1E1"/>
<path d="M121.762 152.185L119.541 150.904L119.541 153.177L121.762 154.459L121.762 152.185Z" stroke="#D32833" stroke-width="0.05" stroke-miterlimit="10"/>
<path d="M124.288 153.637L122.067 152.355L122.067 154.628L124.288 155.91L124.288 153.637Z" fill="#E1E1E1"/>
<path d="M124.288 153.637L122.067 152.355L122.067 154.628L124.288 155.91L124.288 153.637Z" stroke="#D32833" stroke-width="0.05" stroke-miterlimit="10"/>
<path d="M126.815 155.096L124.594 153.814L124.594 156.088L126.815 157.37L126.815 155.096Z" fill="#E1E1E1"/>
<path d="M126.815 155.096L124.594 153.814L124.594 156.088L126.815 157.37L126.815 155.096Z" stroke="#D32833" stroke-width="0.05" stroke-miterlimit="10"/>
<path d="M129.341 156.548L127.12 155.273L127.12 157.547L129.341 158.821L129.341 156.548Z" fill="#E1E1E1"/>
<path d="M129.341 156.548L127.12 155.273L127.12 157.547L129.341 158.821L129.341 156.548Z" stroke="#D32833" stroke-width="0.05" stroke-miterlimit="10"/>
<path d="M131.874 158.007L129.646 156.725V158.999L131.874 160.28L131.874 158.007Z" fill="#E1E1E1"/>
<path d="M131.874 158.007L129.646 156.725V158.999L131.874 160.28L131.874 158.007Z" stroke="#D32833" stroke-width="0.05" stroke-miterlimit="10"/>
<path d="M134.401 159.466L132.172 158.184V160.457L134.401 161.739L134.401 159.466Z" fill="#E1E1E1"/>
<path d="M134.401 159.466L132.172 158.184V160.457L134.401 161.739L134.401 159.466Z" stroke="#D32833" stroke-width="0.05" stroke-miterlimit="10"/>
<path d="M136.927 160.918L134.699 159.636V161.909L136.927 163.191L136.927 160.918Z" fill="#E1E1E1"/>
<path d="M136.927 160.918L134.699 159.636V161.909L136.927 163.191L136.927 160.918Z" stroke="#D32833" stroke-width="0.05" stroke-miterlimit="10"/>
<path d="M139.453 162.377L137.225 161.095V163.368L139.453 164.65L139.453 162.377Z" fill="#E1E1E1"/>
<path d="M139.453 162.377L137.225 161.095V163.368L139.453 164.65L139.453 162.377Z" stroke="#D32833" stroke-width="0.05" stroke-miterlimit="10"/>
<path d="M141.98 163.829L139.759 162.554V164.827L141.98 166.102L141.98 163.829Z" fill="#E1E1E1"/>
<path d="M141.98 163.829L139.759 162.554V164.827L141.98 166.102L141.98 163.829Z" stroke="#D32833" stroke-width="0.05" stroke-miterlimit="10"/>
<path d="M144.506 165.288L142.285 164.006V166.279L144.506 167.561L144.506 165.288Z" fill="#E1E1E1"/>
<path d="M144.506 165.288L142.285 164.006V166.279L144.506 167.561L144.506 165.288Z" stroke="#D32833" stroke-width="0.05" stroke-miterlimit="10"/>
<path d="M145.734 165.996L145.734 168.269L144.811 167.738V165.465L145.734 165.996Z" fill="#E1E1E1"/>
<path d="M145.734 165.996L145.734 168.269L144.811 167.738V165.465L145.734 165.996Z" stroke="#D32833" stroke-width="0.05" stroke-miterlimit="10"/>
<path d="M89.3459 121.71L79.1058 127.602L81.327 128.884L91.5671 122.992L89.3459 121.71Z" fill="#F5F5F5"/>
<path d="M89.3459 121.71L79.1058 127.602L81.327 128.884L91.5671 122.992L89.3459 121.71Z" stroke="#D32833" stroke-width="0.05" stroke-miterlimit="10"/>
<path d="M91.8723 123.169L81.6322 129.054L83.8534 130.336L94.0934 124.451L91.8723 123.169Z" fill="#F5F5F5"/>
<path d="M91.8723 123.169L81.6322 129.054L83.8534 130.336L94.0934 124.451L91.8723 123.169Z" stroke="#D32833" stroke-width="0.05" stroke-miterlimit="10"/>
<path d="M94.3985 124.621L84.1584 130.513L86.3796 131.795L96.6268 125.903L94.3985 124.621Z" fill="#F5F5F5"/>
<path d="M94.3985 124.621L84.1584 130.513L86.3796 131.795L96.6268 125.903L94.3985 124.621Z" stroke="#D32833" stroke-width="0.05" stroke-miterlimit="10"/>
<path d="M96.9249 126.08L86.6848 131.972L88.906 133.254L99.1531 127.362L96.9249 126.08Z" fill="#F5F5F5"/>
<path d="M96.9249 126.08L86.6848 131.972L88.906 133.254L99.1531 127.362L96.9249 126.08Z" stroke="#D32833" stroke-width="0.05" stroke-miterlimit="10"/>
<path d="M99.4511 127.539L89.2111 133.424L91.4393 134.706L101.679 128.821L99.4511 127.539Z" fill="#F5F5F5"/>
<path d="M99.4511 127.539L89.2111 133.424L91.4393 134.706L101.679 128.821L99.4511 127.539Z" stroke="#D32833" stroke-width="0.05" stroke-miterlimit="10"/>
<path d="M101.985 128.991L91.7374 134.883L93.9657 136.165L104.206 130.273L101.985 128.991Z" fill="#F5F5F5"/>
<path d="M101.985 128.991L91.7374 134.883L93.9657 136.165L104.206 130.273L101.985 128.991Z" stroke="#D32833" stroke-width="0.05" stroke-miterlimit="10"/>
<path d="M104.511 130.449L94.2637 136.342L96.4919 137.617L106.732 131.731L104.511 130.449Z" fill="#F5F5F5"/>
<path d="M104.511 130.449L94.2637 136.342L96.4919 137.617L106.732 131.731L104.511 130.449Z" stroke="#D32833" stroke-width="0.05" stroke-miterlimit="10"/>
<path d="M107.037 131.908L96.7899 137.794L99.0182 139.076L109.258 133.183L107.037 131.908Z" fill="#F5F5F5"/>
<path d="M107.037 131.908L96.7899 137.794L99.0182 139.076L109.258 133.183L107.037 131.908Z" stroke="#D32833" stroke-width="0.05" stroke-miterlimit="10"/>
<path d="M109.563 133.36L99.3234 139.253L101.545 140.535L111.785 134.642L109.563 133.36Z" fill="#F5F5F5"/>
<path d="M109.563 133.36L99.3234 139.253L101.545 140.535L111.785 134.642L109.563 133.36Z" stroke="#D32833" stroke-width="0.05" stroke-miterlimit="10"/>
<path d="M112.09 134.82L101.85 140.705L104.071 141.987L114.311 136.101L112.09 134.82Z" fill="#F5F5F5"/>
<path d="M112.09 134.82L101.85 140.705L104.071 141.987L114.311 136.101L112.09 134.82Z" stroke="#D32833" stroke-width="0.05" stroke-miterlimit="10"/>
<path d="M114.616 136.271L104.376 142.164L106.597 143.445L116.844 137.553L114.616 136.271Z" fill="#F5F5F5"/>
<path d="M114.616 136.271L104.376 142.164L106.597 143.445L116.844 137.553L114.616 136.271Z" stroke="#D32833" stroke-width="0.05" stroke-miterlimit="10"/>
<path d="M117.142 137.73L106.902 143.623L109.124 144.898L119.371 139.012L117.142 137.73Z" fill="#F5F5F5"/>
<path d="M117.142 137.73L106.902 143.623L109.124 144.898L119.371 139.012L117.142 137.73Z" stroke="#D32833" stroke-width="0.05" stroke-miterlimit="10"/>
<path d="M119.669 139.189L109.429 145.075L111.657 146.357L121.897 140.471L119.669 139.189Z" fill="#F5F5F5"/>
<path d="M119.669 139.189L109.429 145.075L111.657 146.357L121.897 140.471L119.669 139.189Z" stroke="#D32833" stroke-width="0.05" stroke-miterlimit="10"/>
<path d="M122.202 140.641L111.955 146.534L114.183 147.816L124.423 141.923L122.202 140.641Z" fill="#F5F5F5"/>
<path d="M122.202 140.641L111.955 146.534L114.183 147.816L124.423 141.923L122.202 140.641Z" stroke="#D32833" stroke-width="0.05" stroke-miterlimit="10"/>
<path d="M124.728 142.1L114.481 147.985L116.709 149.267L126.95 143.382L124.728 142.1Z" fill="#F5F5F5"/>
<path d="M124.728 142.1L114.481 147.985L116.709 149.267L126.95 143.382L124.728 142.1Z" stroke="#D32833" stroke-width="0.05" stroke-miterlimit="10"/>
<path d="M127.255 143.559L117.008 149.445L119.236 150.727L129.476 144.841L127.255 143.559Z" fill="#F5F5F5"/>
<path d="M127.255 143.559L117.008 149.445L119.236 150.727L129.476 144.841L127.255 143.559Z" stroke="#D32833" stroke-width="0.05" stroke-miterlimit="10"/>
<path d="M129.781 145.011L119.541 150.904L121.762 152.186L132.002 146.293L129.781 145.011Z" fill="#F5F5F5"/>
<path d="M129.781 145.011L119.541 150.904L121.762 152.186L132.002 146.293L129.781 145.011Z" stroke="#D32833" stroke-width="0.05" stroke-miterlimit="10"/>
<path d="M132.307 146.47L122.067 152.355L124.288 153.637L134.528 147.752L132.307 146.47Z" fill="#F5F5F5"/>
<path d="M132.307 146.47L122.067 152.355L124.288 153.637L134.528 147.752L132.307 146.47Z" stroke="#D32833" stroke-width="0.05" stroke-miterlimit="10"/>
<path d="M134.834 147.929L124.594 153.814L126.815 155.096L137.062 149.211L134.834 147.929Z" fill="#F5F5F5"/>
<path d="M134.834 147.929L124.594 153.814L126.815 155.096L137.062 149.211L134.834 147.929Z" stroke="#D32833" stroke-width="0.05" stroke-miterlimit="10"/>
<path d="M137.36 149.381L127.12 155.273L129.341 156.548L139.588 150.663L137.36 149.381Z" fill="#F5F5F5"/>
<path d="M137.36 149.381L127.12 155.273L129.341 156.548L139.588 150.663L137.36 149.381Z" stroke="#D32833" stroke-width="0.05" stroke-miterlimit="10"/>
<path d="M139.886 150.84L129.646 156.725L131.874 158.007L142.114 152.122L139.886 150.84Z" fill="#F5F5F5"/>
<path d="M139.886 150.84L129.646 156.725L131.874 158.007L142.114 152.122L139.886 150.84Z" stroke="#D32833" stroke-width="0.05" stroke-miterlimit="10"/>
<path d="M142.42 152.299L132.172 158.184L134.401 159.466L144.641 153.574L142.42 152.299Z" fill="#F5F5F5"/>
<path d="M142.42 152.299L132.172 158.184L134.401 159.466L144.641 153.574L142.42 152.299Z" stroke="#D32833" stroke-width="0.05" stroke-miterlimit="10"/>
<path d="M144.946 153.751L134.699 159.636L136.927 160.918L147.167 155.033L144.946 153.751Z" fill="#F5F5F5"/>
<path d="M144.946 153.751L134.699 159.636L136.927 160.918L147.167 155.033L144.946 153.751Z" stroke="#D32833" stroke-width="0.05" stroke-miterlimit="10"/>
<path d="M147.472 155.21L137.225 161.095L139.453 162.377L149.693 156.492L147.472 155.21Z" fill="#F5F5F5"/>
<path d="M147.472 155.21L137.225 161.095L139.453 162.377L149.693 156.492L147.472 155.21Z" stroke="#D32833" stroke-width="0.05" stroke-miterlimit="10"/>
<path d="M149.999 156.662L139.759 162.554L141.98 163.829L152.22 157.944L149.999 156.662Z" fill="#F5F5F5"/>
<path d="M149.999 156.662L139.759 162.554L141.98 163.829L152.22 157.944L149.999 156.662Z" stroke="#D32833" stroke-width="0.05" stroke-miterlimit="10"/>
<path d="M145.961 161.896C145.812 162.165 145.734 162.469 145.734 162.788L145.734 164.587L144.506 165.288L142.285 164.006L145.968 161.896H145.961Z" fill="#F5F5F5"/>
<path d="M145.961 161.896C145.592 162.441 145.769 163.956 145.734 164.587L144.506 165.288L142.285 164.006L145.968 161.896H145.961Z" stroke="#D32833" stroke-width="0.05" stroke-miterlimit="10"/>
<path d="M145.734 164.934V165.996L144.811 165.465L145.734 164.934Z" fill="#F5F5F5"/>
<path d="M145.734 164.934V165.996L144.811 165.465L145.734 164.934Z" stroke="#D32833" stroke-width="0.05" stroke-miterlimit="10"/>
<path d="M86.8622 126.052L85.4216 125.223V125.896L86.8622 126.725L86.8622 126.052Z" fill="#568C9B"/>
<path d="M86.8622 126.052L85.4216 125.223V125.896L86.8622 126.725L86.8622 126.052Z" stroke="#D32833" stroke-width="0.05" stroke-miterlimit="10"/>
<path d="M86.8622 126.052L92.4541 122.829V123.502L86.8622 126.724L86.8622 126.052Z" fill="#2B6F81"/>
<path d="M86.8622 126.052L92.4541 122.829V123.502L86.8622 126.724L86.8622 126.052Z" stroke="#D32833" stroke-width="0.05" stroke-miterlimit="10"/>
<path d="M91.0207 122L85.4216 125.223L86.8622 126.052L92.4541 122.829L91.0207 122Z" fill="#053448" stroke="#D32833" stroke-width="0.1" stroke-miterlimit="10"/>
<path d="M89.3884 127.511L87.9479 126.682V127.355L89.3884 128.184L89.3884 127.511Z" fill="#568C9B"/>
<path d="M89.3884 127.511L87.9479 126.682V127.355L89.3884 128.184L89.3884 127.511Z" stroke="#D32833" stroke-width="0.05" stroke-miterlimit="10"/>
<path d="M89.3884 127.511L94.9875 124.288V124.961L89.3884 128.183L89.3884 127.511Z" fill="#2B6F81"/>
<path d="M89.3884 127.511L94.9875 124.288V124.961L89.3884 128.183L89.3884 127.511Z" stroke="#D32833" stroke-width="0.05" stroke-miterlimit="10"/>
<path d="M93.5469 123.459L87.9479 126.682L89.3884 127.511L94.9875 124.288L93.5469 123.459Z" fill="#053448" stroke="#D32833" stroke-width="0.1" stroke-miterlimit="10"/>
<path d="M94.441 130.421L93.0005 129.593V130.265L94.441 131.094L94.441 130.421Z" fill="#568C9B"/>
<path d="M94.441 130.421L93.0005 129.593V130.265L94.441 131.094L94.441 130.421Z" stroke="#D32833" stroke-width="0.05" stroke-miterlimit="10"/>
<path d="M94.441 130.421L100.033 127.192V127.872L94.441 131.094L94.441 130.421Z" fill="#2B6F81"/>
<path d="M94.441 130.421L100.033 127.192V127.872L94.441 131.094L94.441 130.421Z" stroke="#D32833" stroke-width="0.05" stroke-miterlimit="10"/>
<path d="M98.5995 126.363L93.0005 129.593L94.441 130.421L100.033 127.192L98.5995 126.363Z" fill="#053448" stroke="#D32833" stroke-width="0.1" stroke-miterlimit="10"/>
<path d="M96.9673 131.88L95.5267 131.044V131.724L96.9673 132.553L96.9673 131.88Z" fill="#568C9B"/>
<path d="M96.9673 131.88L95.5267 131.044V131.724L96.9673 132.553L96.9673 131.88Z" stroke="#D32833" stroke-width="0.05" stroke-miterlimit="10"/>
<path d="M96.9673 131.88L102.566 128.65V129.323L96.9673 132.553L96.9673 131.88Z" fill="#2B6F81"/>
<path d="M96.9673 131.88L102.566 128.65V129.323L96.9673 132.553L96.9673 131.88Z" stroke="#D32833" stroke-width="0.05" stroke-miterlimit="10"/>
<path d="M101.126 127.822L95.5267 131.045L96.9673 131.873L102.566 128.651L101.126 127.822Z" fill="#053448" stroke="#D32833" stroke-width="0.1" stroke-miterlimit="10"/>
<path d="M99.5007 133.332L98.0602 132.503V133.176L99.5007 134.005L99.5007 133.332Z" fill="#568C9B"/>
<path d="M99.5007 133.332L98.0602 132.503V133.176L99.5007 134.005L99.5007 133.332Z" stroke="#D32833" stroke-width="0.05" stroke-miterlimit="10"/>
<path d="M99.5007 133.332L105.093 130.11V130.782L99.5007 134.005L99.5007 133.332Z" fill="#2B6F81"/>
<path d="M99.5007 133.332L105.093 130.11V130.782L99.5007 134.005L99.5007 133.332Z" stroke="#D32833" stroke-width="0.05" stroke-miterlimit="10"/>
<path d="M103.652 129.281L98.0602 132.504L99.5007 133.332L105.093 130.11L103.652 129.281Z" fill="#053448" stroke="#D32833" stroke-width="0.1" stroke-miterlimit="10"/>
<path d="M104.553 136.25L103.113 135.421V136.094L104.553 136.923L104.553 136.25Z" fill="#568C9B"/>
<path d="M104.553 136.25L103.113 135.421V136.094L104.553 136.923L104.553 136.25Z" stroke="#D32833" stroke-width="0.05" stroke-miterlimit="10"/>
<path d="M104.553 136.25L110.145 133.021V133.7L104.553 136.923L104.553 136.25Z" fill="#2B6F81"/>
<path d="M104.553 136.25L110.145 133.021V133.7L104.553 136.923L104.553 136.25Z" stroke="#D32833" stroke-width="0.05" stroke-miterlimit="10"/>
<path d="M108.705 132.192L103.113 135.422L104.553 136.25L110.145 133.021L108.705 132.192Z" fill="#053448" stroke="#D32833" stroke-width="0.1" stroke-miterlimit="10"/>
<path d="M107.08 137.702L105.639 136.874V137.553L107.08 138.382L107.08 137.702Z" fill="#568C9B"/>
<path d="M107.08 137.702L105.639 136.874V137.553L107.08 138.382L107.08 137.702Z" stroke="#D32833" stroke-width="0.05" stroke-miterlimit="10"/>
<path d="M107.08 137.702L112.679 134.479V135.152L107.08 138.382L107.08 137.702Z" fill="#2B6F81"/>
<path d="M107.08 137.702L112.679 134.479V135.152L107.08 138.382L107.08 137.702Z" stroke="#D32833" stroke-width="0.05" stroke-miterlimit="10"/>
<path d="M111.238 133.651L105.639 136.873L107.08 137.702L112.679 134.48L111.238 133.651Z" fill="#053448" stroke="#D32833" stroke-width="0.1" stroke-miterlimit="10"/>
<path d="M112.132 140.613L110.692 139.784V140.457L112.132 141.285L112.132 140.613Z" fill="#568C9B"/>
<path d="M112.132 140.613L110.692 139.784V140.457L112.132 141.285L112.132 140.613Z" stroke="#D32833" stroke-width="0.05" stroke-miterlimit="10"/>
<path d="M112.132 140.612L117.724 137.39V138.063L112.132 141.285L112.132 140.612Z" fill="#2B6F81"/>
<path d="M112.132 140.612L117.724 137.39V138.063L112.132 141.285L112.132 140.612Z" stroke="#D32833" stroke-width="0.05" stroke-miterlimit="10"/>
<path d="M116.284 136.562L110.692 139.784L112.132 140.613L117.724 137.39L116.284 136.562Z" fill="#053448" stroke="#D32833" stroke-width="0.1" stroke-miterlimit="10"/>
<path d="M114.659 142.072L113.218 141.243V141.916L114.659 142.744L114.659 142.072Z" fill="#568C9B"/>
<path d="M114.659 142.072L113.218 141.243V141.916L114.659 142.744L114.659 142.072Z" stroke="#D32833" stroke-width="0.05" stroke-miterlimit="10"/>
<path d="M114.659 142.071L120.258 138.849V139.522L114.659 142.744L114.659 142.071Z" fill="#2B6F81"/>
<path d="M114.659 142.071L120.258 138.849V139.522L114.659 142.744L114.659 142.071Z" stroke="#D32833" stroke-width="0.05" stroke-miterlimit="10"/>
<path d="M118.817 138.02L113.218 141.243L114.659 142.071L120.258 138.849L118.817 138.02Z" fill="#053448" stroke="#D32833" stroke-width="0.1" stroke-miterlimit="10"/>
<path d="M117.192 143.53L115.751 142.701V143.374L117.192 144.203L117.192 143.53Z" fill="#568C9B"/>
<path d="M117.192 143.53L115.751 142.701V143.374L117.192 144.203L117.192 143.53Z" stroke="#D32833" stroke-width="0.05" stroke-miterlimit="10"/>
<path d="M117.192 143.53L122.784 140.301V140.98L117.192 144.203L117.192 143.53Z" fill="#2B6F81"/>
<path d="M117.192 143.53L122.784 140.301V140.98L117.192 144.203L117.192 143.53Z" stroke="#D32833" stroke-width="0.05" stroke-miterlimit="10"/>
<path d="M121.343 139.472L115.751 142.702L117.192 143.53L122.784 140.301L121.343 139.472Z" fill="#053448" stroke="#D32833" stroke-width="0.1" stroke-miterlimit="10"/>
<path d="M122.238 146.442L120.797 145.613V146.286L122.238 147.115L122.238 146.442Z" fill="#568C9B"/>
<path d="M122.238 146.442L120.797 145.613V146.286L122.238 147.115L122.238 146.442Z" stroke="#D32833" stroke-width="0.05" stroke-miterlimit="10"/>
<path d="M122.238 146.442L127.837 143.219V143.892L122.238 147.115L122.238 146.442Z" fill="#2B6F81"/>
<path d="M122.238 146.442L127.837 143.219V143.892L122.238 147.115L122.238 146.442Z" stroke="#D32833" stroke-width="0.05" stroke-miterlimit="10"/>
<path d="M126.396 142.391L120.797 145.613L122.238 146.442L127.837 143.219L126.396 142.391Z" fill="#053448" stroke="#D32833" stroke-width="0.1" stroke-miterlimit="10"/>
<path d="M124.771 147.901L123.33 147.072V147.745L124.771 148.573L124.771 147.901Z" fill="#568C9B"/>
<path d="M124.771 147.901L123.33 147.072V147.745L124.771 148.573L124.771 147.901Z" stroke="#D32833" stroke-width="0.05" stroke-miterlimit="10"/>
<path d="M124.771 147.9L130.363 144.678V145.351L124.771 148.573L124.771 147.9Z" fill="#2B6F81"/>
<path d="M124.771 147.9L130.363 144.678V145.351L124.771 148.573L124.771 147.9Z" stroke="#D32833" stroke-width="0.05" stroke-miterlimit="10"/>
<path d="M128.922 143.85L123.33 147.072L124.771 147.901L130.363 144.678L128.922 143.85Z" fill="#053448" stroke="#D32833" stroke-width="0.1" stroke-miterlimit="10"/>
<path d="M129.816 150.811L128.376 149.983V150.655L129.816 151.484V150.811Z" fill="#568C9B"/>
<path d="M129.816 150.811L128.376 149.983V150.655L129.816 151.484V150.811Z" stroke="#D32833" stroke-width="0.05" stroke-miterlimit="10"/>
<path d="M129.816 150.811L135.415 147.582V148.262L129.816 151.484V150.811Z" fill="#2B6F81"/>
<path d="M129.816 150.811L135.415 147.582V148.262L129.816 151.484V150.811Z" stroke="#D32833" stroke-width="0.05" stroke-miterlimit="10"/>
<path d="M133.975 146.753L128.376 149.983L129.816 150.811L135.415 147.582L133.975 146.753Z" fill="#053448" stroke="#D32833" stroke-width="0.1" stroke-miterlimit="10"/>
<path d="M132.35 152.263L130.909 151.434V152.114L132.35 152.943V152.263Z" fill="#568C9B"/>
<path d="M132.35 152.263L130.909 151.434V152.114L132.35 152.943V152.263Z" stroke="#D32833" stroke-width="0.05" stroke-miterlimit="10"/>
<path d="M132.35 152.263L137.942 149.04V149.713L132.35 152.943V152.263Z" fill="#2B6F81"/>
<path d="M132.35 152.263L137.942 149.04V149.713L132.35 152.943V152.263Z" stroke="#D32833" stroke-width="0.05" stroke-miterlimit="10"/>
<path d="M136.501 148.212L130.909 151.434L132.35 152.263L137.942 149.041L136.501 148.212Z" fill="#053448" stroke="#D32833" stroke-width="0.1" stroke-miterlimit="10"/>
<path d="M134.876 153.723L133.436 152.894V153.567L134.876 154.396V153.723Z" fill="#568C9B"/>
<path d="M134.876 153.723L133.436 152.894V153.567L134.876 154.396V153.723Z" stroke="#D32833" stroke-width="0.05" stroke-miterlimit="10"/>
<path d="M134.876 153.722L140.475 150.5V151.173L134.876 154.395V153.722Z" fill="#2B6F81"/>
<path d="M134.876 153.722L140.475 150.5V151.173L134.876 154.395V153.722Z" stroke="#D32833" stroke-width="0.05" stroke-miterlimit="10"/>
<path d="M139.035 149.671L133.436 152.894L134.876 153.723L140.475 150.5L139.035 149.671Z" fill="#053448" stroke="#D32833" stroke-width="0.1" stroke-miterlimit="10"/>
<path d="M139.929 156.633L138.488 155.804V156.484L139.929 157.313V156.633Z" fill="#568C9B"/>
<path d="M139.929 156.633L138.488 155.804V156.484L139.929 157.313V156.633Z" stroke="#D32833" stroke-width="0.05" stroke-miterlimit="10"/>
<path d="M139.929 156.633L145.521 153.41V154.083L139.929 157.313V156.633Z" fill="#2B6F81"/>
<path d="M139.929 156.633L145.521 153.41V154.083L139.929 157.313V156.633Z" stroke="#D32833" stroke-width="0.05" stroke-miterlimit="10"/>
<path d="M144.08 152.582L138.488 155.805L139.929 156.633L145.521 153.411L144.08 152.582Z" fill="#053448" stroke="#D32833" stroke-width="0.1" stroke-miterlimit="10"/>
<path d="M142.455 158.092L141.015 157.263V157.936L142.455 158.765V158.092Z" fill="#568C9B"/>
<path d="M142.455 158.092L141.015 157.263V157.936L142.455 158.765V158.092Z" stroke="#D32833" stroke-width="0.05" stroke-miterlimit="10"/>
<path d="M142.455 158.092L148.054 154.869V155.542L142.455 158.765V158.092Z" fill="#2B6F81"/>
<path d="M142.455 158.092L148.054 154.869V155.542L142.455 158.765V158.092Z" stroke="#D32833" stroke-width="0.05" stroke-miterlimit="10"/>
<path d="M146.614 154.041L141.015 157.263L142.455 158.092L148.054 154.869L146.614 154.041Z" fill="#053448" stroke="#D32833" stroke-width="0.1" stroke-miterlimit="10"/>
<path d="M147.224 160.84L146.67 161.159C146.67 161.159 146.649 161.173 146.642 161.18L146.067 160.847V160.174L147.224 160.84Z" fill="#568C9B"/>
<path d="M147.224 160.84L146.67 161.159C146.67 161.159 146.649 161.173 146.642 161.18L146.067 160.847V160.174L147.224 160.84Z" stroke="#D32833" stroke-width="0.05" stroke-miterlimit="10"/>
<path d="M150.268 159.084C150.268 159.084 150.254 159.077 150.247 159.077L150.268 159.091L147.224 160.84L146.067 160.174L151.666 156.945L152.83 157.618L150.275 159.084H150.268Z" fill="#053448" stroke="#D32833" stroke-width="0.1" stroke-miterlimit="10"/>
<path d="M145.734 169.764C145.705 167.144 145.677 165.592 145.67 162.873C145.62 162.073 146.138 161.308 146.848 160.975C148.168 160.21 151.538 158.255 152.816 157.511L153.809 156.938C154.491 156.591 154.852 155.868 154.789 155.111C154.803 153.021 154.803 149.19 154.817 147.072C154.767 146.279 155.278 145.507 155.988 145.181L157.989 144.041L161.999 141.781L158.032 144.119L156.045 145.273C155.356 145.606 154.888 146.3 154.938 147.072C154.938 149.211 154.966 153.014 154.966 155.111C155.058 156.619 154.036 157.044 152.908 157.674C151.638 158.397 148.224 160.352 146.912 161.095C146.216 161.421 145.755 162.101 145.79 162.873C145.79 165.592 145.755 167.144 145.734 169.764Z" fill="#2B6F81"/>
<path d="M172.246 134.982L172.246 156.966C172.246 158.304 171.529 159.544 170.365 160.21L147.607 173.326L147.607 163.864C147.607 163.191 147.969 162.575 148.544 162.242L155.818 158.05C156.399 157.71 156.754 157.093 156.754 156.428L156.754 148.042C156.754 147.376 157.116 146.76 157.691 146.42L168.726 140.067C171.082 138.708 172.239 136.887 172.239 134.989L172.246 134.982Z" fill="#053448"/>
<path d="M171.756 114.04C171.373 115.804 169.783 117.716 167.001 119.416L152.908 128.07V130.28L167.001 121.632C169.783 119.933 171.373 118.02 171.756 116.257C171.813 115.974 171.848 115.697 171.848 115.428V113.247C171.848 113.516 171.82 113.785 171.756 114.054V114.04Z" fill="#DDDDDD"/>
<path d="M179.349 84.4707V86.7229H179.342C179.321 91.1281 175.716 96.0858 168.605 100.449C165.987 102.056 164.425 103.841 163.929 105.52C163.73 104.91 163.709 104.273 163.851 103.614C164.234 101.851 165.823 99.9386 168.605 98.2389C175.737 93.8549 179.349 88.883 179.349 84.4707Z" fill="white"/>
<path d="M167.796 108.827C164.681 107.687 163.382 105.753 163.844 103.615C164.227 101.851 165.816 99.9388 168.598 98.2319C182.202 89.8889 182.997 79.3573 170.372 74.7325L168.854 74.173C156.229 69.5411 134.961 72.5582 121.358 80.9013L85.0597 103.175L152.908 128.063L167.009 119.415C169.783 117.716 171.38 115.803 171.763 114.04C172.224 111.901 170.919 109.967 167.81 108.827H167.796Z" fill="#053448"/>
<path d="M121.358 80.9086L110.337 87.6723L128.447 119.097L152.042 127.751L124.139 79.3292C123.181 79.8321 122.252 80.3562 121.358 80.9086ZM139.638 73.7554C136.615 74.4424 133.634 75.3206 130.789 76.3829L158.571 124.593L166.228 119.89L139.638 73.7554Z" fill="#DDDDDD"/>
<path d="M85.0597 103.183L85.0597 105.392L152.908 130.28L152.908 128.07L85.0597 103.183Z" fill="white"/>
</g>
<g filter="url(#filter1_d_589_23913)">
<path d="M95.9739 200.268L95.9739 186.167L99.0182 184.411L97.4996 199.39L95.9739 200.268Z" fill="#568C9B"/>
<path d="M95.9739 200.268L95.9739 186.167L99.0182 184.411L97.4996 199.39L95.9739 200.268Z" stroke="#4C0003" stroke-width="0.05" stroke-miterlimit="10"/>
<path d="M95.9738 200.268L95.9738 186.167L92.9224 184.411L94.4481 199.39L95.9738 200.268Z" fill="#053448"/>
<path d="M94.4481 199.39C94.4481 199.432 94.4481 200.098 94.4481 200.098L95.9738 200.976L95.9738 200.268L94.4481 199.39Z" fill="#D268CC"/>
<path d="M94.4481 199.39C94.4481 199.432 94.4481 200.098 94.4481 200.098L95.9738 200.976L95.9738 200.268L94.4481 199.39Z" stroke="#4C0003" stroke-width="0.05" stroke-miterlimit="10"/>
<path d="M94.4481 199.39C94.4481 199.432 94.4481 200.098 94.4481 200.098L95.9738 200.976L95.9738 200.268L94.4481 199.39Z" fill="white"/>
<path d="M97.4996 199.39V200.098L95.9739 200.976L95.9739 200.268L97.4996 199.39Z" fill="#DDDDDD"/>
<path d="M59.4133 179.177L59.4133 165.076L62.4648 163.319L60.939 178.298L59.4133 179.177Z" fill="#568C9B"/>
<path d="M59.4133 179.177L59.4133 165.076L62.4648 163.319L60.939 178.298L59.4133 179.177Z" stroke="#4C0003" stroke-width="0.05" stroke-miterlimit="10"/>
<path d="M59.4134 179.177L59.4134 165.076L56.369 163.319L57.8876 178.299L59.4134 179.177Z" fill="#053448"/>
<path d="M57.8876 178.298C57.8876 178.341 57.8876 179.007 57.8876 179.007L59.4133 179.885V179.177L57.8876 178.298Z" fill="#D268CC"/>
<path d="M57.8876 178.298C57.8876 178.341 57.8876 179.007 57.8876 179.007L59.4133 179.885V179.177L57.8876 178.298Z" stroke="#4C0003" stroke-width="0.05" stroke-miterlimit="10"/>
<path d="M57.8876 178.298C57.8876 178.341 57.8876 179.007 57.8876 179.007L59.4133 179.885V179.177L57.8876 178.298Z" fill="white"/>
<path d="M60.939 178.298L60.939 179.007L59.4133 179.885V179.177L60.939 178.298Z" fill="#DDDDDD"/>
<path d="M109.791 192.307L109.791 178.213L112.835 176.457L111.316 191.429L109.791 192.307Z" fill="#568C9B"/>
<path d="M109.791 192.307L109.791 178.213L112.835 176.457L111.316 191.429L109.791 192.307Z" stroke="#4C0003" stroke-width="0.05" stroke-miterlimit="10"/>
<path d="M109.79 192.307L109.79 178.213L106.739 176.457L108.265 191.429L109.79 192.307Z" fill="#053448"/>
<path d="M108.265 191.429C108.265 191.472 108.265 192.137 108.265 192.137L109.79 193.016L109.79 192.307L108.265 191.429Z" fill="#D268CC"/>
<path d="M108.265 191.429C108.265 191.472 108.265 192.137 108.265 192.137L109.79 193.016L109.79 192.307L108.265 191.429Z" stroke="#4C0003" stroke-width="0.05" stroke-miterlimit="10"/>
<path d="M108.265 191.429C108.265 191.472 108.265 192.137 108.265 192.137L109.79 193.016L109.79 192.307L108.265 191.429Z" fill="white"/>
<path d="M111.316 191.429V192.145L109.791 193.023L109.791 192.307L111.316 191.429Z" fill="#DDDDDD"/>
<path d="M73.23 171.223L73.23 157.122L76.2814 155.365L74.7557 170.338L73.23 171.223Z" fill="#568C9B"/>
<path d="M73.23 171.223L73.23 157.122L76.2814 155.365L74.7557 170.338L73.23 171.223Z" stroke="#4C0003" stroke-width="0.05" stroke-miterlimit="10"/>
<path d="M73.23 171.223L73.23 157.122L70.1857 155.365L71.7043 170.338L73.23 171.223Z" fill="#053448"/>
<path d="M71.7043 170.338C71.7043 170.38 71.7043 171.046 71.7043 171.046L73.2301 171.924L73.2301 171.216L71.7043 170.338Z" fill="#D268CC"/>
<path d="M71.7043 170.338C71.7043 170.38 71.7043 171.046 71.7043 171.046L73.2301 171.924L73.2301 171.216L71.7043 170.338Z" stroke="#4C0003" stroke-width="0.05" stroke-miterlimit="10"/>
<path d="M71.7043 170.338C71.7043 170.38 71.7043 171.046 71.7043 171.046L73.2301 171.924L73.2301 171.216L71.7043 170.338Z" fill="#053448"/>
<path d="M74.7557 170.338V171.053L73.23 171.931L73.23 171.223L74.7557 170.338Z" fill="#D268CC"/>
<path d="M74.7557 170.338V171.053L73.23 171.931L73.23 171.223L74.7557 170.338Z" stroke="#4C0003" stroke-width="0.05" stroke-miterlimit="10"/>
<path d="M112.764 178.957L95.9739 188.618L56.4542 165.826L73.2442 156.166L112.764 178.957Z" fill="#053448"/>
<path d="M112.764 178.957L95.9739 188.617L95.9739 192.152L112.764 182.484L112.764 178.957Z" fill="#063E51"/>
<path d="M56.4542 165.827L56.4542 169.361L95.9739 192.152L95.9739 188.618L56.4542 165.827Z" fill="#063E51"/>
<path d="M113.771 174.793L74.1595 151.959C74.0318 151.888 73.8615 151.895 73.677 152.009L56.8231 161.86C56.447 162.08 56.1348 162.611 56.1348 163.05L56.1348 165.918C56.1348 166.138 56.2128 166.294 56.3335 166.365L95.9454 189.198C96.0731 189.269 96.2434 189.262 96.4279 189.149L113.275 179.29C113.651 179.07 113.963 178.539 113.963 178.1L113.963 175.232C113.963 175.012 113.885 174.856 113.764 174.786L113.771 174.793Z" fill="#D268CC"/>
<path d="M113.771 174.793L74.1595 151.959C74.0318 151.888 73.8615 151.895 73.677 152.009L56.8231 161.86C56.447 162.08 56.1348 162.611 56.1348 163.05L56.1348 165.918C56.1348 166.138 56.2128 166.294 56.3335 166.365L95.9454 189.198C96.0731 189.269 96.2434 189.262 96.4279 189.149L113.275 179.29C113.651 179.07 113.963 178.539 113.963 178.1L113.963 175.232C113.963 175.012 113.885 174.856 113.764 174.786L113.771 174.793Z" stroke="#4C0003" stroke-width="0.05" stroke-miterlimit="10"/>
<path d="M113.771 174.793L74.1595 151.959C74.0318 151.888 73.8615 151.895 73.677 152.009L56.8231 161.86C56.447 162.08 56.1348 162.611 56.1348 163.05L56.1348 165.918C56.1348 166.138 56.2128 166.294 56.3335 166.365L95.9454 189.198C96.0731 189.269 96.2434 189.262 96.4279 189.149L113.275 179.29C113.651 179.07 113.963 178.539 113.963 178.1L113.963 175.232C113.963 175.012 113.885 174.856 113.764 174.786L113.771 174.793Z" fill="#053448"/>
<path d="M56.2058 166.407C56.0852 166.336 56 166.18 56 165.961L56 163.092C56 162.859 56.0923 162.597 56.2342 162.37L95.8461 185.203C95.7042 185.43 95.619 185.692 95.619 185.926V188.794C95.619 189.014 95.6971 189.17 95.8177 189.24" fill="#DDDDDD"/>
<path d="M95.7538 188.752L95.7538 185.884C95.7538 185.444 96.0589 184.913 96.4421 184.694L113.289 174.835C113.481 174.729 113.651 174.715 113.771 174.785C113.899 174.856 113.97 175.012 113.97 175.232L113.97 178.1C113.97 178.539 113.665 179.07 113.282 179.29L96.435 189.149C96.2434 189.255 96.0731 189.269 95.9525 189.198C95.8247 189.127 95.7538 188.971 95.7538 188.752Z" fill="#E1E1E1" stroke="#D32833" stroke-width="0.05" stroke-miterlimit="10"/>
</g>
</g>
</g>
<defs>
<filter id="filter0_d_589_23913" x="69.9266" y="68" width="119.422" height="136.661" filterUnits="userSpaceOnUse" color-interpolation-filters="sRGB">
<feFlood flood-opacity="0" result="BackgroundImageFix"/>
<feColorMatrix in="SourceAlpha" type="matrix" values="0 0 0 0 0 0 0 0 0 0 0 0 0 0 0 0 0 0 127 0" result="hardAlpha"/>
<feOffset dx="2" dy="4"/>
<feGaussianBlur stdDeviation="4"/>
<feComposite in2="hardAlpha" operator="out"/>
<feColorMatrix type="matrix" values="0 0 0 0 0 0 0 0 0 0.137376 0 0 0 0 0.195833 0 0 0 0.4 0"/>
<feBlend mode="normal" in2="BackgroundImageFix" result="effect1_dropShadow_589_23913"/>
<feBlend mode="normal" in="SourceGraphic" in2="effect1_dropShadow_589_23913" result="shape"/>
</filter>
<filter id="filter1_d_589_23913" x="50" y="147.888" width="73.9951" height="65.1313" filterUnits="userSpaceOnUse" color-interpolation-filters="sRGB">
<feFlood flood-opacity="0" result="BackgroundImageFix"/>
<feColorMatrix in="SourceAlpha" type="matrix" values="0 0 0 0 0 0 0 0 0 0 0 0 0 0 0 0 0 0 127 0" result="hardAlpha"/>
<feOffset dx="2" dy="4"/>
<feGaussianBlur stdDeviation="4"/>
<feComposite in2="hardAlpha" operator="out"/>
<feColorMatrix type="matrix" values="0 0 0 0 0 0 0 0 0 0.137376 0 0 0 0 0.195833 0 0 0 0.4 0"/>
<feBlend mode="normal" in2="BackgroundImageFix" result="effect1_dropShadow_589_23913"/>
<feBlend mode="normal" in="SourceGraphic" in2="effect1_dropShadow_589_23913" result="shape"/>
</filter>
<clipPath id="clip0_589_23913">
<rect width="144" height="144" fill="white" transform="translate(46 64)"/>
</clipPath>
<clipPath id="clip1_589_23913">
<rect width="144" height="144" fill="white" transform="translate(46 64)"/>
</clipPath>
</defs>
</svg>
