<svg width="174" height="200" viewBox="0 0 174 200" fill="none" xmlns="http://www.w3.org/2000/svg">
<rect width="174" height="200" fill="white" fill-opacity="0.05"/>
<g clip-path="url(#clip0_622_49913)">
<path d="M76.6372 28.1115C76.6372 28.1115 73.8811 25.1472 72.2476 24.9999C70.614 24.8526 68.1499 28.1115 67.5567 30.4866C67.5567 30.4866 64.2348 30.3301 62.6286 31.5176C62.6286 31.5176 61.4605 33.727 62.1176 35.9824C62.1176 35.9824 57.445 38.9835 57.6458 41.11C57.8465 43.2365 59.69 45.5104 60.9129 46.1179C62.1358 46.7255 73.8811 35.4761 76.6372 28.1023V28.1115Z" fill="#D32833"/>
<path d="M135.732 85.9026C145.716 70.3523 137.619 47.1688 117.648 34.1207C97.6757 21.0726 73.3913 23.101 63.407 38.6512C53.4227 54.2014 61.5192 77.3849 81.4911 90.433C101.463 103.481 125.747 101.453 135.732 85.9026Z" fill="#75C24B"/>
<path d="M62.291 40.5669C53.8219 58.7114 63.8241 78.8997 81.4741 90.4345C95.7382 99.7507 112.211 101.38 124.093 95.8751C90.655 89.965 69.8291 69.5098 62.291 40.5669Z" fill="#66A548"/>
<path d="M71.9464 119C92.9037 119 109.893 104.735 109.893 87.139C109.893 69.5425 92.9037 55.2778 71.9464 55.2778C50.9892 55.2778 34 69.5425 34 87.139C34 104.735 50.9892 119 71.9464 119Z" fill="#8CD246"/>
<path d="M71.9464 113.679C89.4007 113.679 103.55 101.797 103.55 87.1391C103.55 72.4813 89.4007 60.5989 71.9464 60.5989C54.4921 60.5989 40.3427 72.4813 40.3427 87.1391C40.3427 101.797 54.4921 113.679 71.9464 113.679Z" fill="#C3E171"/>
<path d="M72.2476 76.2118L75.0493 68.792C75.1588 68.4974 75.6699 68.5711 75.6699 68.8748L75.6334 76.6629C75.6334 76.9207 76.0258 77.0311 76.2083 76.8194L81.5654 70.5043C81.7753 70.2557 82.2407 70.449 82.1221 70.7436L79.2565 78.145C79.1561 78.3936 79.4937 78.6053 79.7401 78.4488L87.1323 73.846C87.4243 73.6618 87.7894 73.9748 87.5795 74.2234L82.1677 80.5109C81.9852 80.7227 82.2316 81.008 82.5236 80.9252L91.2299 78.4857C91.5767 78.3936 91.8049 78.7802 91.5128 78.9644L84.0842 83.5212C83.8378 83.6777 83.9655 84.0091 84.2667 84.0091L93.4293 83.9815C93.7944 83.9815 93.8765 84.4142 93.5297 84.5062L84.8051 86.8813C84.5131 86.9642 84.5131 87.314 84.8051 87.3968L93.5297 89.7719C93.8765 89.864 93.7944 90.2966 93.4293 90.2966L84.2667 90.269C83.9564 90.269 83.8286 90.6004 84.0842 90.7569L91.5128 95.3138C91.8049 95.4979 91.5767 95.8845 91.2299 95.7925L82.5236 93.353C82.2316 93.2701 81.9852 93.5555 82.1677 93.7672L87.5795 100.055C87.7894 100.303 87.4335 100.616 87.1323 100.432L79.7401 95.8293C79.4937 95.6728 79.1561 95.8845 79.2565 96.1331L82.1221 103.535C82.2316 103.829 81.7753 104.022 81.5654 103.774L76.2083 97.4587C76.0258 97.247 75.6334 97.3575 75.6334 97.6152L75.6699 105.403C75.6699 105.707 75.1588 105.781 75.0493 105.486L72.2476 98.0663C72.1563 97.8177 71.7365 97.8177 71.6453 98.0663L68.8435 105.486C68.734 105.781 68.223 105.707 68.223 105.403L68.2595 97.6152C68.2595 97.3575 67.867 97.247 67.6845 97.4587L62.3275 103.774C62.1176 104.022 61.6521 103.829 61.7708 103.535L64.6364 96.1331C64.7368 95.8845 64.3991 95.6728 64.1527 95.8293L56.7605 100.432C56.4685 100.616 56.1035 100.303 56.3134 100.055L61.7252 93.7672C61.9077 93.5555 61.6613 93.2701 61.3692 93.353L52.6629 95.7925C52.3161 95.8845 52.088 95.4979 52.38 95.3138L59.8087 90.7569C60.0551 90.6004 59.9273 90.269 59.6261 90.269L50.4635 90.2966C50.0985 90.2966 50.0163 89.864 50.3631 89.7719L59.0877 87.3968C59.3797 87.314 59.3797 86.9642 59.0877 86.8813L50.3631 84.5062C50.0163 84.4142 50.0985 83.9815 50.4635 83.9815L59.6261 84.0091C59.9364 84.0091 60.0642 83.6777 59.8087 83.5212L52.38 78.9644C52.088 78.7802 52.3161 78.3936 52.6629 78.4857L61.3692 80.9252C61.6613 81.008 61.9077 80.7227 61.7252 80.5109L56.3134 74.2234C56.1035 73.9748 56.4594 73.6618 56.7605 73.846L64.1527 78.4488C64.3991 78.6053 64.7368 78.3936 64.6364 78.145L61.7708 70.7436C61.6613 70.449 62.1176 70.2557 62.3275 70.5043L67.6845 76.8194C67.867 77.0311 68.2595 76.9207 68.2595 76.6629L68.223 68.8748C68.223 68.5711 68.734 68.4974 68.8435 68.792L71.6453 76.2118C71.7365 76.4604 72.1563 76.4604 72.2476 76.2118Z" fill="#66A548"/>
<path d="M71.9465 92.5612C75.9383 92.5612 79.1744 90.1336 79.1744 87.139C79.1744 84.1444 75.9383 81.7168 71.9465 81.7168C67.9546 81.7168 64.7186 84.1444 64.7186 87.139C64.7186 90.1336 67.9546 92.5612 71.9465 92.5612Z" fill="white"/>
</g>
<path d="M64.6445 167.9H62.7195V176H60.6445V158.5H62.7195V166.3H64.5945L70.2195 158.5H72.6195L66.4445 166.825L73.3945 176H70.7695L64.6445 167.9ZM75.1348 176V174.325H79.4848V165.175H75.1348V163.5H81.4848V174.325H85.7348V176H75.1348ZM78.8098 159.95C78.8098 159.5 78.9598 159.117 79.2598 158.8C79.5598 158.467 79.9431 158.3 80.4098 158.3C80.8931 158.3 81.2931 158.467 81.6098 158.8C81.9431 159.117 82.1098 159.5 82.1098 159.95C82.1098 160.383 81.9431 160.75 81.6098 161.05C81.2931 161.35 80.8931 161.5 80.4098 161.5C79.9431 161.5 79.5598 161.35 79.2598 161.05C78.9598 160.75 78.8098 160.383 78.8098 159.95ZM94.975 166.25L97.475 173.2H97.65L99.425 163.5H101.25L98.8 176H96.575L94.175 169.1H94.1L91.6 176H89.375L86.75 163.5H88.675L90.7 173.25H90.85L93.275 166.25H94.975ZM103.115 176V174.325H107.465V165.175H103.115V163.5H109.465V174.325H113.715V176H103.115ZM106.79 159.95C106.79 159.5 106.94 159.117 107.24 158.8C107.54 158.467 107.924 158.3 108.39 158.3C108.874 158.3 109.274 158.467 109.59 158.8C109.924 159.117 110.09 159.5 110.09 159.95C110.09 160.383 109.924 160.75 109.59 161.05C109.274 161.35 108.874 161.5 108.39 161.5C107.924 161.5 107.54 161.35 107.24 161.05C106.94 160.75 106.79 160.383 106.79 159.95Z" fill="white"/>
<defs>
<clipPath id="clip0_622_49913">
<rect width="106" height="94" fill="white" transform="translate(34 25)"/>
</clipPath>
</defs>
</svg>
