<svg width="236" height="236" viewBox="0 0 236 236" fill="none" xmlns="http://www.w3.org/2000/svg">
<path d="M200.902 236L236 91.5313L118 5.15794e-06L-6.31493e-06 91.5314L35.0981 236L200.902 236Z" fill="white" fill-opacity="0.6"/>
<path d="M200.902 236L236 91.5313L118 5.15794e-06L-6.31493e-06 91.5314L35.0981 236L200.902 236Z" fill="#0E516A"/>
<g clip-path="url(#clip0_589_23914)">
<g clip-path="url(#clip1_589_23914)">
<g filter="url(#filter0_d_589_23914)">
<path d="M130.733 88.7202C130.733 95.7445 125.037 101.44 118.013 101.44C110.988 101.44 105.292 95.7445 105.292 88.7202C105.292 81.696 110.988 76 118.013 76C125.037 76 130.733 81.696 130.733 88.7202Z" fill="white"/>
<path d="M141.424 100.365C142.926 93.4997 149.705 89.1537 156.57 90.6553C163.436 92.1569 167.782 98.9429 166.28 105.801C164.779 112.667 158 117.013 151.134 115.511C144.269 114.009 139.923 107.223 141.424 100.365Z" fill="white"/>
<path d="M153.856 189.428C160.881 189.428 166.576 183.733 166.576 176.708C166.576 169.683 160.881 163.988 153.856 163.988C146.831 163.988 141.136 169.683 141.136 176.708C141.136 183.733 146.831 189.428 153.856 189.428Z" fill="white"/>
<path d="M81.8733 189.428C88.8985 189.428 94.5935 183.733 94.5935 176.708C94.5935 169.683 88.8985 163.988 81.8733 163.988C74.8481 163.988 69.1531 169.683 69.1531 176.708C69.1531 183.733 74.8481 189.428 81.8733 189.428Z" fill="white"/>
<path d="M94.5935 103.086C94.5935 110.11 88.8976 115.806 81.8733 115.806C74.849 115.806 69.1531 110.11 69.1531 103.086C69.1531 96.0619 74.849 90.366 81.8733 90.366C88.8976 90.366 94.5935 96.0619 94.5935 103.086Z" fill="white"/>
<path d="M164.706 152.011C158.159 149.47 154.91 142.099 157.444 135.551C159.985 129.003 167.356 125.747 173.904 128.288C180.452 130.83 183.7 138.2 181.159 144.748C178.618 151.296 171.247 154.552 164.699 152.011H164.706Z" fill="white"/>
<path d="M79.4405 140.157C79.4405 147.181 73.7445 152.877 66.7202 152.877C59.696 152.877 54 147.181 54 140.157C54 133.132 59.696 127.437 66.7202 127.437C73.7445 127.437 79.4405 133.132 79.4405 140.157Z" fill="white"/>
<path d="M118.013 193.298C88.7099 193.298 64.8721 169.46 64.8721 140.157C64.8721 110.855 88.7099 87.0095 118.013 87.0095C147.315 87.0095 171.153 110.847 171.153 140.15C171.153 169.453 147.315 193.291 118.013 193.291V193.298Z" fill="#DDDDDD"/>
<path d="M118.013 195.413C87.5404 195.413 62.7496 170.622 62.7496 140.15C62.7496 109.677 87.5404 84.8938 118.013 84.8938C148.485 84.8938 173.276 109.685 173.276 140.157C173.276 170.629 148.485 195.42 118.013 195.42V195.413ZM118.013 91.4561C91.1644 91.4561 69.3191 113.301 69.3191 140.157C69.3191 167.012 91.1644 188.85 118.013 188.85C144.861 188.85 166.706 167.005 166.706 140.157C166.706 113.309 144.868 91.4561 118.013 91.4561Z" fill="#053448"/>
<path d="M118.013 95.0803C142.861 95.0803 163.082 115.301 163.082 140.15C163.082 164.998 142.861 185.219 118.013 185.219C93.1641 185.219 72.9431 164.998 72.9431 140.15C72.9431 115.301 93.1641 95.0803 118.013 95.0803ZM118.013 91.4563C91.1644 91.4563 69.3191 113.302 69.3191 140.157C69.3191 167.012 91.1644 188.851 118.013 188.851C144.861 188.851 166.706 167.005 166.706 140.157C166.706 113.309 144.868 91.4563 118.013 91.4563Z" fill="#568C9B"/>
</g>
</g>
</g>
<defs>
<filter id="filter0_d_589_23914" x="48" y="72" width="144.024" height="135.42" filterUnits="userSpaceOnUse" color-interpolation-filters="sRGB">
<feFlood flood-opacity="0" result="BackgroundImageFix"/>
<feColorMatrix in="SourceAlpha" type="matrix" values="0 0 0 0 0 0 0 0 0 0 0 0 0 0 0 0 0 0 127 0" result="hardAlpha"/>
<feOffset dx="2" dy="4"/>
<feGaussianBlur stdDeviation="4"/>
<feComposite in2="hardAlpha" operator="out"/>
<feColorMatrix type="matrix" values="0 0 0 0 0 0 0 0 0 0.137376 0 0 0 0 0.195833 0 0 0 0.4 0"/>
<feBlend mode="normal" in2="BackgroundImageFix" result="effect1_dropShadow_589_23914"/>
<feBlend mode="normal" in="SourceGraphic" in2="effect1_dropShadow_589_23914" result="shape"/>
</filter>
<clipPath id="clip0_589_23914">
<rect width="144" height="144" fill="white" transform="translate(46 64)"/>
</clipPath>
<clipPath id="clip1_589_23914">
<rect width="144" height="144" fill="white" transform="translate(46 64)"/>
</clipPath>
</defs>
</svg>
