<svg width="236" height="236" viewBox="0 0 236 236" fill="none" xmlns="http://www.w3.org/2000/svg">
<path d="M200.902 236L236 91.5313L118 1.04032e-05L-1.06972e-06 91.5314L35.0981 236L200.902 236Z" fill="#0E516A" fill-opacity="0.6"/>
<path d="M54 159.236L54 171.656L109.617 189.999L182.99 110.912V102.628L110.217 178.362L54 159.236Z" fill="#3A1B0F"/>
<path d="M182.99 102.629L128.351 85.6689L54 159.238L110.217 178.363L182.99 102.629Z" fill="#542D1E"/>
<path d="M128.896 83C130.279 83.1956 150.843 89.9992 150.843 89.9992L137.432 103.215L115.442 96.3139L128.896 83Z" fill="#7A4A35"/>
<path d="M115.428 99.7642V96.3135L137.432 103.215L137.837 107.252L115.428 99.7642Z" fill="#3A1B0F"/>
<path d="M150.843 89.999L151.821 93.4497L137.837 107.253L137.432 103.215L150.843 89.999Z" fill="#4C2416"/>
<path d="M156.823 92.1367C158.206 92.3323 178.77 99.1359 178.77 99.1359L165.359 112.352L143.369 105.451L156.823 92.1367Z" fill="#7A4A35"/>
<path d="M143.355 108.901V105.45L165.359 112.352L165.764 116.403L143.355 108.901Z" fill="#3A1B0F"/>
<path d="M178.77 99.1357L179.748 102.6L165.764 116.403L165.359 112.352L178.77 99.1357Z" fill="#4C2416"/>
<path d="M111.936 100.352C113.319 100.547 133.883 107.351 133.883 107.351L120.472 120.567L98.482 113.665L111.936 100.352Z" fill="#7A4A35"/>
<path d="M98.468 117.116V113.665L120.472 120.566L120.877 124.618L98.468 117.116Z" fill="#3A1B0F"/>
<path d="M133.883 107.365L134.861 110.816L120.877 124.619L120.472 120.567L133.883 107.365Z" fill="#4C2416"/>
<path d="M139.863 109.502C141.246 109.698 161.81 116.501 161.81 116.501L148.398 129.717L126.409 122.816L139.863 109.502Z" fill="#7A4A35"/>
<path d="M126.395 126.266V122.815L148.399 129.717L148.804 133.754L126.395 126.266Z" fill="#3A1B0F"/>
<path d="M161.81 116.501L162.788 119.952L148.804 133.755L148.399 129.717L161.81 116.501Z" fill="#4C2416"/>
<path d="M92.8658 119.142C94.2489 119.337 114.813 126.141 114.813 126.141L101.402 139.357L79.4122 132.455L92.8658 119.142Z" fill="#7A4A35"/>
<path d="M79.4123 135.906V132.455L101.402 139.356L101.807 143.408L79.4123 135.906Z" fill="#331D10"/>
<path d="M114.813 126.141L115.805 129.591L101.807 143.408L101.402 139.357L114.813 126.141Z" fill="#4C2416"/>
<path d="M120.793 128.278C122.176 128.474 142.741 135.278 142.741 135.278L129.329 148.494L107.339 141.592L120.793 128.278Z" fill="#7A4A35"/>
<path d="M107.325 145.043V141.592L129.329 148.493L129.734 152.545L107.325 145.043Z" fill="#3A1B0F"/>
<path d="M142.741 135.291L143.719 138.742L129.734 152.545L129.329 148.493L142.741 135.291Z" fill="#4C2416"/>
<path d="M90 121.5L54 159.237L110.217 178.362L133 155L102 127.5L90 121.5Z" fill="#D32833"/>
<path d="M110.217 178.363L109.617 190L139.5 158.105L132 155.5L110.217 178.363Z" fill="#811219"/>
<path d="M109.617 190L110.217 178.363L54 159.237L54 171.657L109.617 190Z" fill="#600C14"/>
<path d="M84 124.5L88.5 120.5L103.5 125.5L136.5 151L141.67 158.813L131.909 156L100 129.5L84 124.5Z" fill="#ECDAD8"/>
<path d="M132 156L136.5 151L143.5 154V153.5L145 154.5L141.5 159L132 156Z" fill="#B2A4A3"/>
</svg>
