<svg width="236" height="236" viewBox="0 0 236 236" fill="none" xmlns="http://www.w3.org/2000/svg">
<path d="M35.0981 1.22625e-06L-6.31493e-06 144.469L118 236L236 144.469L200.902 9.08964e-06L35.0981 1.22625e-06Z" fill="white" fill-opacity="0.2"/>
<path d="M198.543 3.00001L37.4565 3L3.37386 143.289L118 232.203L232.626 143.289L198.543 3.00001Z" fill="#D32833" fill-opacity="0.6" stroke="#D32833" stroke-width="6"/>
<g clip-path="url(#clip0_340_23542)">
<g clip-path="url(#clip1_340_23542)">
<g filter="url(#filter0_d_340_23542)">
<path d="M106.013 147.981C106.409 146.816 106.699 145.589 106.874 144.332C107.651 141.018 107.979 137.712 107.88 135.777C107.682 132.075 109.662 128.853 112.892 128.578C114.446 128.449 116.229 128.03 117.646 127.626C120.655 127.085 123.367 125.775 125.5 123.642L130.992 118.149L129.339 116.496C130.962 109.259 127.945 100.103 120.876 93.0408C113.814 85.979 104.65 82.9547 97.4203 84.5849L95.7672 82.9318L90.2747 88.4243C88.8121 89.887 87.7379 91.6315 87.0295 93.5512C87.0295 93.5512 86.9838 93.6655 86.9076 93.8788C86.8847 93.9321 86.8695 93.9854 86.8543 94.0311C86.4505 95.2271 85.4602 98.3734 85.2469 100.933C84.9726 104.163 81.7502 106.144 78.0479 105.946C75.8006 105.831 71.7327 106.288 67.939 107.347C66.8801 107.583 65.8669 107.903 64.8842 108.3C65.0213 107.035 65.1203 106.159 65.1203 106.159L59.8716 111.408L59.8868 111.423C59.6811 111.613 59.4754 111.804 59.2774 112.002C50.5853 120.694 53.084 137.278 64.8613 149.055C76.2958 160.49 92.263 163.179 101.13 155.371L101.153 155.393L107.331 149.215L106.013 147.966V147.981Z" fill="white"/>
<path d="M64.7851 149.146C52.985 137.346 50.4787 120.655 59.2012 111.933C59.3688 111.765 59.5592 111.59 59.7725 111.392C59.7725 111.369 59.7802 111.354 59.7954 111.339L65.0441 106.09C65.0441 106.09 65.1279 106.044 65.1737 106.067C65.2194 106.09 65.2422 106.128 65.2346 106.181L65.0213 108.132C65.9507 107.766 66.9258 107.469 67.9161 107.24C71.9307 106.12 75.9911 105.732 78.0556 105.839C81.9026 106.037 84.8736 103.972 85.1326 100.925C85.3535 98.3578 86.3362 95.2268 86.7476 93.9927L86.8009 93.8403C86.8771 93.6194 86.9228 93.4975 86.9228 93.4975C86.9228 93.4823 86.9304 93.4747 86.9381 93.4594C87.677 91.4864 88.7664 89.7648 90.1985 88.3326L95.691 82.8401C95.7368 82.7944 95.8053 82.7944 95.851 82.8401L97.4584 84.4474C104.924 82.802 114.142 86.131 120.96 92.949C127.778 99.7671 131.107 108.985 129.461 116.45L131.069 118.058C131.114 118.103 131.114 118.172 131.069 118.218L125.576 123.71C123.474 125.813 120.815 127.161 117.654 127.732C115.802 128.25 114.195 128.57 112.892 128.677C109.845 128.936 107.781 131.915 107.979 135.754C108.093 137.88 107.697 141.254 106.973 144.347C106.798 145.581 106.516 146.793 106.135 147.943L107.4 149.139C107.4 149.139 107.438 149.192 107.438 149.215C107.438 149.245 107.43 149.276 107.407 149.299L101.229 155.477C101.229 155.477 101.176 155.507 101.145 155.507C101.145 155.507 101.145 155.507 101.138 155.507C92.1487 163.339 76.1968 160.55 64.7775 149.131L64.7851 149.146Z" fill="white"/>
<path d="M111.643 139.563C112.42 136.249 112.748 132.943 112.649 131.001C112.45 127.298 114.431 124.076 117.661 123.802C119.223 123.672 120.998 123.253 122.415 122.849C125.424 122.308 128.136 120.998 130.276 118.865C137.452 111.689 135.388 97.9845 125.66 88.264C115.932 78.5359 102.227 76.4715 95.0512 83.6475C93.5885 85.1102 92.5144 86.8547 91.8059 88.7744C91.8059 88.7744 91.7602 88.8887 91.684 89.102C91.6612 89.1553 91.6459 89.2086 91.6307 89.2543C91.227 90.4503 90.2366 93.5965 90.0157 96.1562C89.7415 99.3862 86.5191 101.367 82.8168 101.169C80.5695 101.054 76.5015 101.512 72.7002 102.57C70.5214 103.058 68.4798 103.896 66.6592 105.092C66.5144 105.191 66.3697 105.282 66.2326 105.389C65.4555 105.93 64.7242 106.547 64.0386 107.233C55.3465 115.925 57.8528 132.509 69.6225 144.286C81.3998 156.064 97.9841 158.562 106.676 149.87C109.449 147.097 111.079 143.517 111.635 139.555L111.643 139.563Z" fill="#053448"/>
<g style="mix-blend-mode:multiply" opacity="0.29">
<path d="M108.725 147.402C108.512 147.699 108.299 147.996 108.085 148.293C108.306 148.004 108.52 147.707 108.725 147.402Z" fill="#F8B000"/>
<path d="M108.718 147.402C108.497 147.715 108.291 148.019 108.139 148.324L108.032 148.24C108.276 147.996 108.497 147.707 108.725 147.395L108.718 147.402ZM108.718 147.402L108.085 148.301C108.032 148.301 108.733 147.41 108.718 147.402Z" fill="#4C0003"/>
</g>
<path d="M69.5539 144.37C57.7538 132.57 55.2475 115.879 63.97 107.156C64.648 106.478 65.3946 105.854 66.1792 105.297C66.3163 105.198 66.4611 105.099 66.6134 105C68.4112 103.82 70.4529 102.966 72.6925 102.464C76.7072 101.344 80.7675 100.948 82.832 101.062C86.679 101.26 89.65 99.1955 89.909 96.1483C90.1299 93.5811 91.1127 90.4501 91.524 89.216L91.5774 89.0636C91.6535 88.8427 91.6992 88.7208 91.6992 88.7208C91.6992 88.7056 91.7069 88.698 91.7221 88.6827C92.461 86.7097 93.5504 84.9881 94.9826 83.5635C102.189 76.357 115.993 78.4214 125.751 88.18C135.502 97.9309 137.574 111.735 130.368 118.949C128.265 121.051 125.607 122.4 122.445 122.971C120.594 123.489 118.987 123.809 117.684 123.916C114.637 124.175 112.572 127.153 112.77 130.993C112.885 133.118 112.489 136.493 111.765 139.586C111.193 143.677 109.464 147.265 106.775 149.954C98.0526 158.676 81.3617 156.17 69.5616 144.37H69.5539ZM91.8973 88.8427C91.8821 88.8961 91.844 88.9951 91.7983 89.1398L91.7449 89.2922C91.3336 90.5187 90.3509 93.6268 90.1376 96.1712C89.8709 99.3402 86.7933 101.496 82.8244 101.29C80.7751 101.184 76.7453 101.572 72.7458 102.692C70.529 103.187 68.5103 104.033 66.7353 105.198C66.5906 105.297 66.4458 105.389 66.3087 105.488C65.5317 106.036 64.7927 106.653 64.13 107.324C55.4989 115.955 58.0052 132.501 69.7139 144.217C81.4227 155.926 97.9764 158.432 106.608 149.801C109.266 147.143 110.965 143.6 111.536 139.548C112.252 136.462 112.649 133.118 112.542 131.008C112.336 127.039 114.484 123.961 117.661 123.695C118.956 123.58 120.548 123.268 122.392 122.742C125.515 122.186 128.136 120.853 130.2 118.789C137.323 111.666 135.251 98.0071 125.584 88.3399C115.917 78.6728 102.258 76.6007 95.1349 83.7235C93.718 85.1404 92.6362 86.8468 91.9125 88.8046C91.9125 88.8199 91.9049 88.8275 91.8897 88.8427H91.8973Z" fill="#0E516A"/>
<path d="M113.951 114.767C109.967 118.751 103.515 118.743 99.5382 114.767C95.554 110.783 95.554 104.33 99.5382 100.354C103.515 96.3771 109.967 96.3771 113.951 100.354C117.928 104.33 117.935 110.79 113.951 114.767Z" fill="#005268"/>
<path d="M113.951 114.766C107.56 121.181 96.5138 116.61 96.4986 107.56C96.3691 102.06 101.245 97.1841 106.745 97.3136C115.795 97.3289 120.373 108.375 113.959 114.766H113.951ZM113.951 114.766C120.335 108.382 115.772 97.3746 106.745 97.3746C101.283 97.2603 96.4452 102.098 96.5595 107.56C96.5595 116.587 107.567 121.142 113.951 114.766Z" fill="#4C0003"/>
<path d="M112.306 114.767C108.779 118.294 103.065 118.294 99.5381 114.767C96.011 111.24 96.011 105.526 99.5381 101.999C103.065 98.4723 108.779 98.4723 112.306 101.999C115.833 105.526 115.833 111.24 112.306 114.767Z" fill="white"/>
<path d="M99.4543 114.843C95.4321 110.821 95.4321 104.285 99.4543 100.27C103.469 96.2556 110.013 96.248 114.027 100.27C118.042 104.285 118.042 110.829 114.027 114.843C110.013 118.858 103.469 118.858 99.4543 114.843ZM113.867 100.43C109.937 96.4994 103.545 96.4994 99.6143 100.43C95.6835 104.361 95.6835 110.753 99.6143 114.683C103.545 118.614 109.937 118.614 113.867 114.683C117.798 110.753 117.798 104.361 113.867 100.43Z" fill="white"/>
<path d="M156.833 50.57L121.722 85.6804L127.572 91.5304L162.683 56.42L156.833 50.57Z" fill="white"/>
<path d="M127.496 91.6085L121.645 85.7579C121.6 85.7122 121.6 85.6437 121.645 85.598L156.756 50.487C156.802 50.4413 156.871 50.4413 156.916 50.487L162.767 56.3375C162.813 56.3832 162.813 56.4518 162.767 56.4975L127.656 91.6085C127.61 91.6542 127.542 91.6542 127.496 91.6085ZM121.882 85.6818L127.572 91.3724L162.523 56.4213L156.833 50.7308L121.882 85.6818Z" fill="#005268"/>
<path d="M127.496 91.6082C127.161 91.3111 121.79 85.8872 121.691 85.8186C121.516 85.651 121.638 85.5824 121.775 85.4453L122.095 85.1254C122.879 84.3407 125.134 82.0782 125.957 81.2555C135.411 71.7864 147.264 59.9024 156.665 50.4791C156.688 50.4181 156.878 50.3343 156.954 50.441C157.29 50.7381 162.653 56.1696 162.744 56.2458C162.79 56.2763 162.904 56.3982 162.828 56.5125C162.759 56.5963 162.714 56.6267 162.66 56.6877L162.34 57.0076C151.866 67.4594 139.281 80.0137 128.821 90.4503L128.174 91.0902L127.854 91.4102L127.694 91.5701C127.656 91.6311 127.549 91.6692 127.496 91.6006V91.6082ZM127.496 91.6082C127.618 91.7301 127.762 91.4711 127.846 91.4102C128.037 91.2197 128.616 90.6484 128.814 90.4427C139.258 79.9985 151.835 67.4213 162.295 56.9619L162.614 56.642C162.668 56.5886 162.729 56.5353 162.774 56.482C162.82 56.4134 162.759 56.3449 162.706 56.2992L162.058 55.6516L156.909 50.5019C156.794 50.38 156.642 50.639 156.566 50.7C147.226 60.0319 135.365 71.9007 125.98 81.2859C125.188 82.0858 122.902 84.3636 122.118 85.1482L121.798 85.4682C121.744 85.5215 121.683 85.5748 121.638 85.6281C121.592 85.6967 121.653 85.7653 121.706 85.8186C121.737 85.9024 127.229 91.3035 127.503 91.6158L127.496 91.6082Z" fill="#4C0003"/>
<path d="M121.889 85.6813L127.587 91.3643C127.511 91.3871 162.493 56.3752 162.477 56.3752V56.4742L156.794 50.776C157.183 50.616 121.79 85.7118 121.889 85.6813ZM121.881 85.6813C121.881 85.6813 156.832 50.7074 156.84 50.7303C156.84 50.7379 162.554 56.4209 162.531 56.4361C162.531 56.4361 127.58 91.3948 127.572 91.3795L121.881 85.6813Z" fill="#4C0003"/>
<path d="M82.3673 133.019C82.253 132.905 82.253 132.715 82.3673 132.593L160.771 54.189C160.893 54.0672 161.076 54.0748 161.198 54.189C161.319 54.3033 161.319 54.4938 161.198 54.6156L82.7939 133.019C82.6797 133.134 82.4892 133.141 82.3673 133.019Z" fill="#005268"/>
<path d="M82.3597 133.019C82.1007 132.722 82.4587 132.501 82.6416 132.303C82.9844 131.96 84.127 130.818 84.4927 130.452C108.108 106.813 134.969 79.9146 158.585 56.2762L159.819 55.0421L160.436 54.425L160.756 54.1127C160.893 53.9984 161.121 54.0137 161.243 54.1432C161.533 54.486 161.182 54.7145 160.961 54.9507C160.619 55.2935 159.476 56.4362 159.11 56.8018C135.472 80.4174 108.573 107.278 84.9345 130.894L83.7004 132.128L83.0834 132.745L82.7711 133.05C82.6568 133.149 82.474 133.133 82.3673 133.027L82.3597 133.019ZM82.3597 133.019C82.6492 133.271 82.8701 132.912 83.0605 132.737C83.4033 132.394 84.546 131.252 84.9117 130.886C108.535 107.255 135.411 80.3793 159.042 56.7485L160.276 55.5144L160.893 54.8973L161.198 54.585C161.289 54.4707 161.281 54.2955 161.175 54.1965C160.885 53.9451 160.672 54.3031 160.474 54.4783C160.131 54.8212 158.988 55.9638 158.623 56.3295C134.992 79.9527 108.116 106.829 84.4851 130.459L83.251 131.694L82.6339 132.311L82.3292 132.623C82.2378 132.737 82.2454 132.912 82.3521 133.019H82.3597Z" fill="white"/>
<path d="M83.4567 134.109C83.3424 133.994 83.3348 133.796 83.4567 133.682L161.86 55.2784C161.982 55.1565 162.173 55.1641 162.287 55.2784C162.401 55.3927 162.401 55.5831 162.287 55.705L83.8833 134.109C83.769 134.223 83.5786 134.231 83.4567 134.109Z" fill="#005268"/>
<path d="M83.449 134.109C83.19 133.812 83.5481 133.591 83.7309 133.393C84.0737 133.05 85.2164 131.907 85.582 131.542C109.198 107.903 136.058 81.0044 159.674 57.366L160.908 56.1319L161.525 55.5149L161.837 55.2025C161.975 55.0883 162.203 55.1035 162.325 55.233C162.614 55.5758 162.264 55.8043 162.043 56.0405C161.7 56.3833 160.558 57.526 160.192 57.8917C136.554 81.5072 109.655 108.368 86.0163 131.984L84.7822 133.218L84.1651 133.835L83.8528 134.139C83.7385 134.238 83.5557 134.223 83.449 134.117V134.109ZM83.449 134.109C83.7309 134.36 83.967 133.995 84.1499 133.819C84.4927 133.477 85.6354 132.334 86.001 131.968C109.624 108.338 136.5 81.4615 160.131 57.8307L161.365 56.5966L161.982 55.9796L162.287 55.6672C162.378 55.553 162.371 55.3777 162.264 55.2787C161.975 55.0273 161.761 55.3854 161.563 55.5606C161.22 55.9034 160.078 57.0461 159.712 57.4117C136.081 81.0349 109.205 107.911 85.5744 131.542L84.3403 132.776L83.7233 133.393L83.4186 133.705C83.3271 133.819 83.3424 133.995 83.4414 134.101L83.449 134.109Z" fill="white"/>
<path d="M81.278 131.93C81.1638 131.816 81.1638 131.626 81.278 131.504L159.682 53.1C159.804 52.9781 159.994 52.9857 160.108 53.1C160.223 53.2143 160.23 53.4123 160.108 53.5266L81.7046 131.93C81.5904 132.045 81.3923 132.045 81.278 131.93Z" fill="#005268"/>
<path d="M81.2779 131.938C81.0265 131.641 81.3769 131.42 81.5598 131.222C81.9026 130.879 83.0453 129.736 83.4109 129.37C107.026 105.732 133.887 78.8332 157.503 55.1948L158.737 53.9607L159.354 53.3436L159.674 53.0313C159.819 52.917 160.04 52.9322 160.161 53.0617C160.451 53.4045 160.101 53.6331 159.88 53.8692C159.537 54.212 158.394 55.3547 158.028 55.7204C134.39 79.3359 107.491 106.197 83.8528 129.812L82.6187 131.046L82.0016 131.663L81.6893 131.968C81.575 132.06 81.3922 132.052 81.2855 131.945L81.2779 131.938ZM81.2779 131.938C81.5674 132.189 81.7883 131.831 81.9788 131.656C82.3216 131.313 83.4642 130.17 83.8299 129.805C107.453 106.174 134.337 79.2979 157.96 55.6671L159.194 54.433L159.811 53.8159L160.116 53.5036C160.207 53.3893 160.192 53.2141 160.093 53.1151C159.803 52.8637 159.59 53.2217 159.392 53.3969C159.049 53.7397 157.907 54.8824 157.541 55.2481C133.91 78.8713 107.034 105.755 83.4033 129.378L82.1692 130.612L81.5521 131.229L81.2474 131.542C81.156 131.656 81.1636 131.831 81.2703 131.938H81.2779Z" fill="white"/>
<path d="M80.1885 130.848C80.0743 130.734 80.0743 130.544 80.1885 130.422L158.592 52.0105C158.714 51.8886 158.897 51.8962 159.019 52.0105C159.141 52.1248 159.141 52.3152 159.019 52.4371L80.6151 130.841C80.5009 130.955 80.3104 130.963 80.1885 130.841V130.848Z" fill="#005268"/>
<path d="M80.1885 130.848C79.9295 130.551 80.2876 130.33 80.4704 130.132C80.8132 129.789 81.9559 128.647 82.3216 128.281C105.937 104.643 132.798 77.7438 156.413 54.1054L157.648 52.8713L158.265 52.2542L158.585 51.9419C158.722 51.8276 158.95 51.8429 159.072 51.9724C159.362 52.3152 159.011 52.5437 158.79 52.7799C158.447 53.1227 157.305 54.2654 156.939 54.631C133.301 78.2466 106.402 105.107 82.7634 128.723L81.5293 129.957L80.9123 130.574L80.5999 130.879C80.4856 130.978 80.3028 130.963 80.1962 130.856L80.1885 130.848ZM80.1885 130.848C80.478 131.1 80.6989 130.742 80.8894 130.566C81.2322 130.224 82.3749 129.081 82.7406 128.715C106.364 105.085 133.24 78.2085 156.871 54.5777L158.105 53.3436L158.722 52.7266L159.026 52.4142C159.118 52.3 159.11 52.1247 159.004 52.0257C158.714 51.7743 158.501 52.1324 158.303 52.3076C157.96 52.6504 156.817 53.7931 156.452 54.1587C132.821 77.7819 105.945 104.658 82.3139 128.289L81.0798 129.523L80.4628 130.14L80.1581 130.452C80.0667 130.566 80.0743 130.742 80.1809 130.848H80.1885Z" fill="white"/>
<path d="M79.0991 129.759C78.9849 129.645 78.9849 129.454 79.0991 129.332L157.51 50.9285C157.632 50.8067 157.815 50.8143 157.937 50.9285C158.059 51.0428 158.059 51.2333 157.937 51.3552L79.5334 129.759C79.4191 129.873 79.2286 129.873 79.1067 129.759H79.0991Z" fill="#005268"/>
<path d="M79.0992 129.759C78.8402 129.462 79.1982 129.241 79.3811 129.043C79.7239 128.7 80.8665 127.557 81.2322 127.192C104.848 103.553 131.709 76.6544 155.324 53.016L156.558 51.7819L157.175 51.1648L157.495 50.8525C157.632 50.7382 157.861 50.7535 157.983 50.883C158.272 51.2258 157.922 51.4543 157.701 51.6905C157.358 52.0333 156.215 53.176 155.85 53.5416C132.211 77.1572 105.312 104.018 81.6741 127.634L80.4399 128.868L79.8229 129.485L79.5106 129.789C79.3963 129.888 79.2135 129.873 79.1068 129.767L79.0992 129.759ZM79.0992 129.759C79.3887 130.01 79.6096 129.652 79.8 129.477C80.1428 129.134 81.2855 127.992 81.6512 127.626C105.274 103.995 132.15 77.1191 155.781 53.4883L157.015 52.2542L157.632 51.6371L157.937 51.3248C158.028 51.2105 158.021 51.0353 157.914 50.9363C157.625 50.6849 157.411 51.0429 157.213 51.2182C156.871 51.561 155.728 52.7036 155.362 53.0693C131.731 76.6925 104.855 103.569 81.2246 127.199L79.9905 128.433L79.3734 129.05L79.0687 129.363C78.9773 129.477 78.9849 129.652 79.0916 129.759H79.0992Z" fill="white"/>
<path d="M77.0458 126.315L75.3436 128.017L86.0901 138.763L87.7923 137.061L77.0458 126.315Z" fill="#005268"/>
<path d="M86.0852 138.771C86.0166 138.694 75.3135 128.083 75.2601 128.022L75.3058 127.976L77.0046 126.27C77.058 126.224 77.0351 126.201 77.1037 126.27C77.1113 126.277 87.8068 137.057 87.8145 137.064C87.8145 137.072 86.1004 138.763 86.0928 138.771H86.0852ZM86.0852 138.763C86.0852 138.763 87.7916 137.041 87.784 137.064L77.0351 126.323C77.0808 126.292 75.3211 128.06 75.3439 128.014L86.0852 138.755V138.763Z" fill="#4C0003"/>
<path d="M86.0087 138.847L75.2674 128.106C75.2217 128.06 75.2217 127.991 75.2674 127.946L76.9662 126.247C77.0119 126.201 77.0805 126.201 77.1262 126.247L87.8675 136.988C87.9132 137.034 87.9132 137.102 87.8675 137.148L86.1687 138.847C86.123 138.893 86.0544 138.893 86.0087 138.847Z" fill="white"/>
<path d="M84.0661 135.038L78.2155 129.187C78.1013 129.073 78.1013 128.883 78.2155 128.761L156.619 50.3571C156.733 50.2428 156.924 50.2428 157.046 50.3571L162.896 56.2076C163.018 56.3295 163.011 56.5123 162.896 56.6342L84.4927 135.038C84.3784 135.152 84.188 135.16 84.0661 135.038ZM78.8554 128.974L84.2794 134.398L162.256 56.4209L156.832 50.997L78.8554 128.974Z" fill="white"/>
<path d="M158.181 47.4854C157.731 47.0359 157.267 46.6474 156.825 46.3351C157.381 45.3981 157.472 44.4306 156.954 43.9202C156.269 43.2346 154.776 43.6155 153.618 44.7734C152.46 45.9313 152.079 47.4245 152.765 48.1101C153.275 48.6205 154.242 48.5367 155.179 47.9806C155.492 48.4224 155.873 48.8795 156.33 49.3366C157.869 50.8754 159.529 51.7057 160.04 51.1953C160.55 50.6849 159.712 49.0318 158.173 47.493L158.181 47.4854Z" fill="white"/>
<path d="M162.356 41.7489C161.906 41.2995 161.441 40.911 161 40.5986C161.556 39.6616 161.647 38.6942 161.129 38.1838C160.443 37.4981 158.95 37.879 157.792 39.037C156.634 40.1949 156.254 41.688 156.939 42.3736C157.45 42.884 158.417 42.8002 159.354 42.2441C159.666 42.686 160.047 43.143 160.504 43.6001C162.043 45.1389 163.704 45.9693 164.214 45.4589C164.725 44.9485 163.887 43.2954 162.348 41.7566L162.356 41.7489Z" fill="white"/>
<path d="M164.161 57.1598C164.61 57.6093 165.075 57.9978 165.517 58.3101C164.961 59.2471 164.869 60.2146 165.387 60.725C166.073 61.4106 167.566 61.0297 168.724 59.8718C169.882 58.7139 170.263 57.2208 169.577 56.5352C169.067 56.0248 168.099 56.1086 167.162 56.6647C166.85 56.2228 166.469 55.7658 166.012 55.3087C164.473 53.7699 162.813 52.9395 162.302 53.4499C161.792 53.9603 162.63 55.6134 164.169 57.1522L164.161 57.1598Z" fill="white"/>
<path d="M175.824 48.1022C176.273 48.5516 176.738 48.9401 177.18 49.2525C176.624 50.1895 176.532 51.1569 177.05 51.6673C177.736 52.353 179.229 51.9721 180.387 50.8141C181.545 49.6562 181.926 48.1631 181.24 47.4775C180.73 46.9671 179.762 47.0509 178.825 47.607C178.513 47.1652 178.132 46.7081 177.675 46.251C176.136 44.7122 174.476 43.8818 173.965 44.3922C173.455 44.9026 174.293 46.5557 175.832 48.0945L175.824 48.1022Z" fill="white"/>
<path d="M169.76 52.772C170.21 53.2215 170.674 53.61 171.116 53.9223C170.56 54.8593 170.469 55.8268 170.987 56.3372C171.672 57.0228 173.165 56.6419 174.323 55.484C175.481 54.3261 175.862 52.833 175.176 52.1473C174.666 51.6369 173.699 51.7207 172.762 52.2769C172.449 51.835 172.068 51.3779 171.611 50.9209C170.072 49.382 168.412 48.5517 167.901 49.0621C167.391 49.5725 168.229 51.2256 169.768 52.7644L169.76 52.772Z" fill="white"/>
<path d="M163.582 34.1232C163.178 34.527 163.826 36.0505 165.441 37.6732C167.063 39.2958 168.579 39.9433 168.991 39.5319C169.402 39.1206 168.747 37.6046 167.124 35.9896C165.509 34.3746 163.986 33.7195 163.582 34.1308V34.1232Z" fill="#005268"/>
<path d="M163.59 34.131C162.798 35.5708 167.505 40.2025 168.945 39.4864C169.669 38.0618 165.037 33.3463 163.59 34.131ZM163.59 34.131C165.022 33.3082 169.837 38.1075 169.006 39.5473C167.566 40.3777 162.767 35.5708 163.59 34.131Z" fill="#4C0003"/>
<path d="M167.208 35.9061C166.759 35.4566 166.294 35.0681 165.852 34.7557C166.408 33.8187 166.5 32.8513 165.982 32.3409C165.296 31.6553 163.803 32.0361 162.645 33.1941C161.487 34.352 161.106 35.8451 161.792 36.5307C162.302 37.0411 163.27 36.9573 164.207 36.4012C164.519 36.8431 164.9 37.3001 165.357 37.7572C166.896 39.296 168.556 40.1264 169.067 39.616C169.577 39.1056 168.739 37.4525 167.2 35.9137L167.208 35.9061Z" fill="white"/>
<path d="M168.32 34.611L155.873 50.6772L162.896 57.7009L178.856 45.1466L168.32 34.611Z" fill="#053448"/>
<path d="M93.3676 89.445C93.3676 89.445 101.077 74.8414 120.213 85.2018C120.213 85.2018 105.046 77.0049 93.3676 89.445Z" fill="white"/>
</g>
</g>
</g>
<defs>
<filter id="filter0_d_340_23542" x="48" y="28" width="143.581" height="143.944" filterUnits="userSpaceOnUse" color-interpolation-filters="sRGB">
<feFlood flood-opacity="0" result="BackgroundImageFix"/>
<feColorMatrix in="SourceAlpha" type="matrix" values="0 0 0 0 0 0 0 0 0 0 0 0 0 0 0 0 0 0 127 0" result="hardAlpha"/>
<feOffset dx="2" dy="4"/>
<feGaussianBlur stdDeviation="4"/>
<feComposite in2="hardAlpha" operator="out"/>
<feColorMatrix type="matrix" values="0 0 0 0 0 0 0 0 0 0.137376 0 0 0 0 0.195833 0 0 0 0.4 0"/>
<feBlend mode="normal" in2="BackgroundImageFix" result="effect1_dropShadow_340_23542"/>
<feBlend mode="normal" in="SourceGraphic" in2="effect1_dropShadow_340_23542" result="shape"/>
</filter>
<clipPath id="clip0_340_23542">
<rect width="144" height="144" fill="white" transform="translate(46 24)"/>
</clipPath>
<clipPath id="clip1_340_23542">
<rect width="144" height="144" fill="white" transform="translate(46 24)"/>
</clipPath>
</defs>
</svg>
