<svg width="342" height="232" viewBox="0 0 342 232" fill="none" xmlns="http://www.w3.org/2000/svg">
<g filter="url(#filter0_d_399_25323)">
<rect x="179.667" y="32" width="156" height="184" fill="white"/>
<path d="M215.818 199.95C215.368 199.95 214.977 199.767 214.643 199.4C214.31 199.017 214.035 198.575 213.818 198.075C213.602 197.558 213.427 197.117 213.293 196.75C212.993 195.867 212.685 194.908 212.368 193.875C212.052 192.825 211.727 191.767 211.393 190.7C211.077 189.633 210.752 188.625 210.418 187.675C210.085 186.708 209.76 185.883 209.443 185.2V184.925C209.443 184.658 209.502 184.483 209.618 184.4C209.735 184.3 209.985 184.25 210.368 184.25C210.802 184.25 211.118 184.317 211.318 184.45C211.535 184.583 211.718 184.883 211.868 185.35L213.468 190.475C213.935 191.975 214.31 193.158 214.593 194.025C214.877 194.892 215.11 195.533 215.293 195.95C215.477 196.367 215.652 196.633 215.818 196.75C216.002 196.867 216.21 196.925 216.443 196.925C216.743 196.925 217.118 196.625 217.568 196.025C218.018 195.408 218.493 194.55 218.993 193.45C219.493 192.35 219.985 191.058 220.468 189.575C220.968 188.075 221.41 186.45 221.793 184.7C221.843 184.467 221.96 184.267 222.143 184.1C222.343 183.933 222.552 183.85 222.768 183.85C223.018 183.85 223.185 183.942 223.268 184.125C223.368 184.308 223.418 184.525 223.418 184.775C223.418 185.025 223.418 185.25 223.418 185.45C223.418 185.983 223.302 186.692 223.068 187.575C222.835 188.442 222.51 189.408 222.093 190.475C221.693 191.542 221.235 192.633 220.718 193.75C220.202 194.867 219.66 195.925 219.093 196.925C218.86 197.325 218.585 197.758 218.268 198.225C217.968 198.692 217.618 199.1 217.218 199.45C216.818 199.783 216.352 199.95 215.818 199.95ZM226.426 200.825C226.193 200.825 226.01 200.675 225.876 200.375C225.76 200.075 225.676 199.692 225.626 199.225C225.593 198.758 225.576 198.275 225.576 197.775C225.576 197.542 225.576 197.308 225.576 197.075C225.593 196.825 225.601 196.592 225.601 196.375C225.601 196.308 225.626 196.092 225.676 195.725C225.726 195.342 225.785 194.9 225.851 194.4C225.918 193.9 225.985 193.408 226.051 192.925C226.135 192.425 226.201 192.033 226.251 191.75C226.301 191.533 226.36 191.25 226.426 190.9C226.493 190.533 226.61 190.208 226.776 189.925C226.96 189.625 227.218 189.475 227.551 189.475C227.935 189.475 228.201 189.55 228.351 189.7C228.518 189.833 228.601 190.05 228.601 190.35C228.601 190.433 228.593 190.517 228.576 190.6C228.576 190.683 228.568 190.775 228.551 190.875C228.468 191.408 228.36 192.075 228.226 192.875C228.11 193.658 228.001 194.483 227.901 195.35C227.818 196.2 227.793 197.008 227.826 197.775C227.843 197.958 227.86 198.175 227.876 198.425C227.91 198.658 227.926 198.892 227.926 199.125C227.926 199.558 227.835 199.95 227.651 200.3C227.468 200.65 227.06 200.825 226.426 200.825ZM226.126 186.975C225.893 186.975 225.776 186.808 225.776 186.475C225.776 186.275 225.86 186.067 226.026 185.85C226.193 185.633 226.385 185.433 226.601 185.25C226.835 185.05 227.026 184.892 227.176 184.775C227.293 184.675 227.41 184.583 227.526 184.5C227.643 184.4 227.743 184.317 227.826 184.25C227.91 184.183 228.06 184.075 228.276 183.925C228.493 183.775 228.71 183.625 228.926 183.475C229.143 183.325 229.276 183.242 229.326 183.225C229.41 183.192 229.468 183.175 229.501 183.175C229.551 183.175 229.61 183.175 229.676 183.175C229.893 183.175 230.11 183.258 230.326 183.425C230.56 183.575 230.676 183.717 230.676 183.85C230.676 183.917 230.626 184 230.526 184.1L230.376 184.275C230.343 184.325 230.293 184.375 230.226 184.425C230.176 184.458 230.135 184.492 230.101 184.525C230.035 184.592 229.86 184.7 229.576 184.85C229.293 184.983 229.018 185.142 228.751 185.325L227.976 185.825C227.693 186.025 227.526 186.15 227.476 186.2C227.36 186.3 227.16 186.458 226.876 186.675C226.593 186.875 226.343 186.975 226.126 186.975ZM235.719 201.7C235.303 201.7 234.994 201.567 234.794 201.3C234.594 201.033 234.461 200.7 234.394 200.3C234.344 199.9 234.319 199.508 234.319 199.125C234.319 198.942 234.319 198.767 234.319 198.6C234.336 198.433 234.344 198.292 234.344 198.175C234.344 196.975 234.369 195.767 234.419 194.55C234.469 193.317 234.494 191.975 234.494 190.525C233.878 190.525 233.369 190.55 232.969 190.6C232.569 190.65 232.169 190.675 231.769 190.675C231.503 190.675 231.319 190.625 231.219 190.525C231.119 190.425 231.069 190.258 231.069 190.025C231.069 189.758 231.103 189.567 231.169 189.45C231.253 189.317 231.353 189.233 231.469 189.2L233.919 188.7C234.286 188.617 234.544 188.45 234.694 188.2C234.861 187.95 234.978 187.708 235.044 187.475C235.078 187.342 235.094 187.217 235.094 187.1C235.111 186.967 235.128 186.825 235.144 186.675C235.144 186.542 235.144 186.417 235.144 186.3C235.161 186.167 235.169 186.042 235.169 185.925C235.203 185.392 235.286 185 235.419 184.75C235.569 184.5 235.853 184.375 236.269 184.375C236.653 184.375 236.878 184.525 236.944 184.825C237.028 185.125 237.069 185.408 237.069 185.675C237.069 185.858 237.053 186.142 237.019 186.525C237.003 186.892 236.986 187.258 236.969 187.625C236.953 187.992 236.936 188.258 236.919 188.425H240.919C241.069 188.425 241.219 188.525 241.369 188.725C241.519 188.925 241.594 189.183 241.594 189.5C241.594 189.6 241.553 189.733 241.469 189.9C241.386 190.05 241.286 190.125 241.169 190.125C241.003 190.125 240.686 190.133 240.219 190.15C239.769 190.15 239.278 190.158 238.744 190.175C238.228 190.192 237.769 190.208 237.369 190.225C236.969 190.242 236.744 190.267 236.694 190.3C236.611 191.3 236.544 192.267 236.494 193.2C236.461 194.117 236.444 195.008 236.444 195.875C236.444 196.442 236.453 196.992 236.469 197.525C236.503 198.042 236.528 198.558 236.544 199.075C236.544 199.158 236.553 199.283 236.569 199.45C236.586 199.617 236.594 199.8 236.594 200C236.594 200.383 236.536 200.767 236.419 201.15C236.319 201.517 236.086 201.7 235.719 201.7ZM245.978 184.85C245.428 184.85 244.986 184.725 244.653 184.475C244.336 184.208 244.178 183.867 244.178 183.45C244.178 183.067 244.361 182.775 244.728 182.575C245.095 182.358 245.561 182.25 246.128 182.25C246.695 182.25 247.136 182.383 247.453 182.65C247.77 182.9 247.928 183.25 247.928 183.7C247.928 184.067 247.745 184.35 247.378 184.55C247.028 184.75 246.561 184.85 245.978 184.85ZM244.678 200.825C244.445 200.825 244.261 200.675 244.128 200.375C244.011 200.075 243.928 199.692 243.878 199.225C243.845 198.758 243.828 198.275 243.828 197.775C243.828 197.542 243.828 197.308 243.828 197.075C243.845 196.825 243.853 196.592 243.853 196.375C243.853 196.308 243.878 196.092 243.928 195.725C243.978 195.342 244.036 194.9 244.103 194.4C244.17 193.9 244.236 193.408 244.303 192.925C244.386 192.425 244.453 192.033 244.503 191.75C244.553 191.533 244.611 191.25 244.678 190.9C244.745 190.533 244.861 190.208 245.028 189.925C245.211 189.625 245.47 189.475 245.803 189.475C246.186 189.475 246.453 189.55 246.603 189.7C246.77 189.833 246.853 190.05 246.853 190.35C246.853 190.433 246.845 190.517 246.828 190.6C246.828 190.683 246.82 190.775 246.803 190.875C246.72 191.408 246.611 192.075 246.478 192.875C246.361 193.658 246.253 194.483 246.153 195.35C246.07 196.2 246.045 197.008 246.078 197.775C246.095 197.958 246.111 198.175 246.128 198.425C246.161 198.658 246.178 198.892 246.178 199.125C246.178 199.558 246.086 199.95 245.903 200.3C245.72 200.65 245.311 200.825 244.678 200.825ZM250.771 200.95C250.504 200.95 250.288 200.875 250.121 200.725C249.954 200.558 249.871 200.358 249.871 200.125C249.871 199.542 249.888 198.967 249.921 198.4C249.971 197.833 249.996 197.258 249.996 196.675V194.9C249.996 194.417 249.988 193.933 249.971 193.45C249.954 192.95 249.921 192.4 249.871 191.8C249.821 191.333 249.721 190.85 249.571 190.35C249.421 189.833 249.346 189.392 249.346 189.025C249.346 188.308 249.563 187.95 249.996 187.95C250.496 187.95 250.871 188.442 251.121 189.425C251.388 190.392 251.638 191.783 251.871 193.6C251.904 193.817 251.946 193.975 251.996 194.075C252.046 194.158 252.096 194.2 252.146 194.2C252.246 194.2 252.338 194.142 252.421 194.025C252.521 193.892 252.596 193.783 252.646 193.7C252.779 193.45 252.929 193.158 253.096 192.825C253.279 192.492 253.438 192.208 253.571 191.975C253.704 191.742 253.846 191.517 253.996 191.3C254.163 191.067 254.329 190.85 254.496 190.65C254.829 190.233 255.188 189.908 255.571 189.675C255.954 189.425 256.371 189.3 256.821 189.3C257.221 189.3 257.529 189.408 257.746 189.625C257.963 189.842 258.154 190.125 258.321 190.475C258.421 190.675 258.504 190.875 258.571 191.075C258.654 191.258 258.729 191.442 258.796 191.625C258.879 191.808 258.988 192.108 259.121 192.525C259.254 192.925 259.421 193.258 259.621 193.525L260.371 192.45C260.671 192.017 260.963 191.592 261.246 191.175C261.546 190.742 261.879 190.342 262.246 189.975C262.596 189.608 262.963 189.317 263.346 189.1C263.729 188.867 264.129 188.75 264.546 188.75C265.113 188.75 265.588 188.983 265.971 189.45C266.354 189.917 266.646 190.492 266.846 191.175C267.046 191.858 267.154 192.525 267.171 193.175L267.321 198.95C267.338 199.217 267.279 199.533 267.146 199.9C267.013 200.25 266.754 200.425 266.371 200.425C266.154 200.425 265.971 200.342 265.821 200.175C265.671 199.992 265.596 199.808 265.596 199.625V194.65C265.596 194.317 265.571 193.933 265.521 193.5C265.471 193.05 265.388 192.617 265.271 192.2C265.171 191.783 265.029 191.442 264.846 191.175C264.663 190.892 264.429 190.75 264.146 190.75C263.696 190.75 263.288 190.967 262.921 191.4C262.554 191.817 262.213 192.383 261.896 193.1C261.596 193.8 261.288 194.575 260.971 195.425C260.654 196.508 260.379 197.233 260.146 197.6C259.929 197.967 259.696 198.15 259.446 198.15C259.229 198.15 259.054 198.1 258.921 198C258.788 197.9 258.671 197.767 258.571 197.6C258.454 197.4 258.363 197.167 258.296 196.9C258.229 196.617 258.171 196.367 258.121 196.15L257.646 193.95C257.579 193.65 257.504 193.283 257.421 192.85C257.354 192.417 257.238 192.042 257.071 191.725C256.921 191.392 256.688 191.225 256.371 191.225C256.154 191.225 255.921 191.358 255.671 191.625C255.438 191.875 255.196 192.192 254.946 192.575C254.713 192.958 254.496 193.35 254.296 193.75C254.096 194.15 253.929 194.508 253.796 194.825C253.663 195.142 253.579 195.342 253.546 195.425C253.513 195.525 253.413 195.783 253.246 196.2C253.079 196.617 252.888 197.092 252.671 197.625C252.454 198.142 252.254 198.625 252.071 199.075C251.904 199.508 251.796 199.792 251.746 199.925C251.579 200.308 251.429 200.575 251.296 200.725C251.163 200.875 250.988 200.95 250.771 200.95ZM273.972 201.45C273.222 201.45 272.522 201.283 271.872 200.95C271.239 200.617 270.705 200.167 270.272 199.6C269.839 199.033 269.555 198.4 269.422 197.7V196.375C269.422 195.425 269.597 194.467 269.947 193.5C270.297 192.533 270.78 191.642 271.397 190.825C272.03 190.008 272.772 189.358 273.622 188.875C274.489 188.375 275.422 188.125 276.422 188.125C277.055 188.125 277.664 188.233 278.247 188.45C278.847 188.667 279.38 188.917 279.847 189.2C279.947 188.5 280.072 188.017 280.222 187.75C280.372 187.483 280.63 187.35 280.997 187.35C281.28 187.35 281.48 187.442 281.597 187.625C281.714 187.792 281.772 188.092 281.772 188.525C281.772 189.525 281.747 190.508 281.697 191.475C281.664 192.425 281.647 193.4 281.647 194.4C281.647 195.2 281.689 196.025 281.772 196.875C281.872 197.725 281.922 198.542 281.922 199.325C281.922 199.575 281.922 199.825 281.922 200.075C281.939 200.325 281.897 200.533 281.797 200.7C281.714 200.85 281.53 200.925 281.247 200.925C280.847 200.925 280.547 200.742 280.347 200.375C280.164 199.992 280.039 199.533 279.972 199C279.905 198.467 279.839 197.967 279.772 197.5C279.605 197.95 279.322 198.392 278.922 198.825C278.539 199.258 278.147 199.633 277.747 199.95C277.364 200.25 277.064 200.467 276.847 200.6C276.647 200.717 276.647 200.7 276.847 200.55C276.48 200.817 276.022 201.033 275.472 201.2C274.939 201.367 274.439 201.45 273.972 201.45ZM273.722 199.875C274.472 199.875 275.172 199.658 275.822 199.225C276.472 198.792 277.039 198.233 277.522 197.55C278.022 196.867 278.405 196.15 278.672 195.4C278.955 194.65 279.097 193.958 279.097 193.325C279.097 193.008 279.055 192.65 278.972 192.25C278.905 191.833 278.772 191.433 278.572 191.05C278.372 190.667 278.097 190.35 277.747 190.1C277.414 189.85 276.972 189.725 276.422 189.725C275.705 189.725 275.022 189.958 274.372 190.425C273.722 190.875 273.139 191.458 272.622 192.175C272.122 192.875 271.73 193.6 271.447 194.35C271.164 195.1 271.022 195.775 271.022 196.375C271.022 196.825 271.097 197.325 271.247 197.875C271.414 198.425 271.689 198.9 272.072 199.3C272.472 199.683 273.022 199.875 273.722 199.875ZM302.572 201.575C302.272 201.575 302.039 201.492 301.872 201.325C301.722 201.175 301.605 200.942 301.522 200.625C301.472 200.458 301.439 200.283 301.422 200.1C301.405 199.917 301.389 199.725 301.372 199.525V198.425C301.372 197.842 301.397 197.25 301.447 196.65C301.497 196.033 301.522 195.383 301.522 194.7L301.047 194.25H300.272C299.605 194.25 298.939 194.275 298.272 194.325C297.605 194.358 296.939 194.375 296.272 194.375H294.497C293.964 194.142 293.589 193.883 293.372 193.6C293.155 193.3 293.047 192.858 293.047 192.275C293.047 191.892 293.08 191.492 293.147 191.075C293.23 190.658 293.355 190.317 293.522 190.05L295.947 184.9C296.147 184.5 296.472 184.3 296.922 184.3C297.105 184.3 297.289 184.392 297.472 184.575C297.655 184.742 297.747 184.95 297.747 185.2C297.747 185.3 297.739 185.375 297.722 185.425C297.722 185.458 297.714 185.492 297.697 185.525C297.664 185.592 297.622 185.675 297.572 185.775C297.522 185.875 297.455 186.008 297.372 186.175C297.155 186.658 296.905 187.142 296.622 187.625C296.339 188.108 296.08 188.592 295.847 189.075C295.58 189.592 295.355 190.15 295.172 190.75C295.005 191.333 294.922 192.067 294.922 192.95H297.322C297.372 192.95 297.58 192.942 297.947 192.925C298.314 192.892 298.697 192.858 299.097 192.825C299.514 192.775 299.822 192.725 300.022 192.675H299.947C300.064 192.658 300.272 192.6 300.572 192.5C300.889 192.4 301.18 192.292 301.447 192.175C301.73 192.042 301.88 191.925 301.897 191.825L303.247 184.25C303.297 183.967 303.38 183.775 303.497 183.675C303.614 183.558 303.797 183.5 304.047 183.5C304.38 183.5 304.622 183.567 304.772 183.7C304.922 183.817 304.997 183.967 304.997 184.15C304.997 184.267 304.98 184.392 304.947 184.525C304.914 184.658 304.864 184.808 304.797 184.975C304.73 185.158 304.664 185.35 304.597 185.55C304.53 185.75 304.48 185.958 304.447 186.175C304.414 186.375 304.364 186.708 304.297 187.175C304.247 187.625 304.189 188.125 304.122 188.675C304.055 189.208 303.989 189.708 303.922 190.175C303.872 190.642 303.83 190.975 303.797 191.175V191.35C303.797 191.6 303.872 191.792 304.022 191.925C304.172 192.058 304.297 192.15 304.397 192.2C304.497 192.25 304.614 192.3 304.747 192.35C304.88 192.383 305.005 192.425 305.122 192.475C305.572 192.642 305.797 192.883 305.797 193.2C305.797 193.583 305.63 193.858 305.297 194.025C304.964 194.175 304.439 194.25 303.722 194.25L303.397 194.9L303.097 201.275C303.097 201.308 303.047 201.367 302.947 201.45C302.864 201.533 302.739 201.575 302.572 201.575Z" fill="#032B3D"/>
<rect x="186.667" y="38" width="142.63" height="134" fill="black"/>
<path opacity="0.1" d="M329.297 172V38L204.496 172H329.297Z" fill="white"/>
<path opacity="0.15" d="M329.297 38H257.982L186.667 156.686V172H204.496L329.297 38Z" fill="white"/>
<path opacity="0.3" d="M329.297 172V99.2571L240.153 172H329.297Z" fill="black"/>
<path opacity="0.1" d="M186.667 38.0001V156.686L257.982 38.0001H186.667Z" fill="white"/>
</g>
<path d="M251.493 32.5078L261.3 32.2537L259.43 49.3078L257.957 50.3463L255.958 50.3982L254.432 49.4373L251.493 32.5078Z" fill="#A9A9A9"/>
<path d="M261.353 34.2814L253.774 34.4778L259.431 49.3079L261.353 34.2814Z" fill="#878787"/>
<path d="M271.46 30.9902L256.465 31.3788L241.47 31.7673L241.499 32.867L245.872 41.0835L256.75 42.3751L266.662 40.5447L271.488 32.0898L271.46 30.9902Z" fill="#AB1E27"/>
<path d="M266.254 24.7897L256.232 22.3817L245.464 25.3284L241.47 31.7672L245.824 39.227L256.698 40.3757L266.614 38.6883L271.46 30.9901L266.254 24.7897Z" fill="#D32833"/>
<path opacity="0.8" d="M267.635 26.1616L260.282 24.2773L252.389 26.5567L249.467 31.5599L252.669 37.3667L260.645 38.2726L267.915 36.9717L271.46 30.99L267.635 26.1616Z" fill="#A11B24"/>
<path d="M244.847 7.67163L266.84 7.10173L261.841 31.1833L254.517 33.4298L251.086 31.462L244.847 7.67163Z" fill="#D32833"/>
<path d="M266.84 7.10173L244.847 7.67163L247.079 16.6168L254.517 33.4298L258.029 33.8389L261.841 31.1833L266.84 7.10173Z" fill="#A11B24"/>
<path d="M261.841 31.1834L264.856 16.6564L257.835 26.3415L258.029 33.839L261.841 31.1834Z" fill="#811219"/>
<path d="M263.014 2.27346L255.662 0.389119L247.769 2.66854L244.847 7.67172L248.049 13.4785L256.025 14.3844L263.295 13.0835L266.84 7.10182L263.014 2.27346Z" fill="#D32833"/>
<g filter="url(#filter1_d_399_25323)">
<path d="M164 22H0V118H120.842L164 94V22Z" fill="#D4F3FF"/>
<path d="M122.692 97.5L117.143 118H120.842L164 94L122.692 97.5Z" fill="#B4D9E7"/>
<path d="M120.842 118L164 94L127.624 95L120.842 118Z" fill="#91C9DF"/>
</g>
<g filter="url(#filter2_d_399_25323)">
<path d="M0 130H164V226H15.4135L10.4812 221.5L1.23308 188.5L0 171.5V130Z" fill="#FFCDD0"/>
<path opacity="0.5" d="M19.7293 226H16.6466L10.4812 221.523L1.23308 188.907L0 171L11.7143 192.744L34.5263 219.605L27.1278 217.686L20.9624 220.884L19.7293 226Z" fill="#F3A4A9"/>
<path d="M16.9863 226H15.099L10.4812 221.5L1.25825 188.907L0 171L10.6951 194.023L30.8271 217.047L24.5358 215.128L18.2446 218.326L16.9863 226Z" fill="#F3A4A9"/>
</g>
<defs>
<filter id="filter0_d_399_25323" x="179.667" y="32" width="162.296" height="192.395" filterUnits="userSpaceOnUse" color-interpolation-filters="sRGB">
<feFlood flood-opacity="0" result="BackgroundImageFix"/>
<feColorMatrix in="SourceAlpha" type="matrix" values="0 0 0 0 0 0 0 0 0 0 0 0 0 0 0 0 0 0 127 0" result="hardAlpha"/>
<feOffset dx="6.29605" dy="8.39474"/>
<feComposite in2="hardAlpha" operator="out"/>
<feColorMatrix type="matrix" values="0 0 0 0 0.366667 0 0 0 0 0.199655 0 0 0 0 0.113056 0 0 0 0.3 0"/>
<feBlend mode="normal" in2="BackgroundImageFix" result="effect1_dropShadow_399_25323"/>
<feBlend mode="normal" in="SourceGraphic" in2="effect1_dropShadow_399_25323" result="shape"/>
</filter>
<filter id="filter1_d_399_25323" x="0" y="22" width="168" height="102" filterUnits="userSpaceOnUse" color-interpolation-filters="sRGB">
<feFlood flood-opacity="0" result="BackgroundImageFix"/>
<feColorMatrix in="SourceAlpha" type="matrix" values="0 0 0 0 0 0 0 0 0 0 0 0 0 0 0 0 0 0 127 0" result="hardAlpha"/>
<feOffset dx="4" dy="6"/>
<feComposite in2="hardAlpha" operator="out"/>
<feColorMatrix type="matrix" values="0 0 0 0 0.366667 0 0 0 0 0.199655 0 0 0 0 0.113056 0 0 0 0.3 0"/>
<feBlend mode="normal" in2="BackgroundImageFix" result="effect1_dropShadow_399_25323"/>
<feBlend mode="normal" in="SourceGraphic" in2="effect1_dropShadow_399_25323" result="shape"/>
</filter>
<filter id="filter2_d_399_25323" x="0" y="130" width="168" height="102" filterUnits="userSpaceOnUse" color-interpolation-filters="sRGB">
<feFlood flood-opacity="0" result="BackgroundImageFix"/>
<feColorMatrix in="SourceAlpha" type="matrix" values="0 0 0 0 0 0 0 0 0 0 0 0 0 0 0 0 0 0 127 0" result="hardAlpha"/>
<feOffset dx="4" dy="6"/>
<feComposite in2="hardAlpha" operator="out"/>
<feColorMatrix type="matrix" values="0 0 0 0 0.366667 0 0 0 0 0.199655 0 0 0 0 0.113056 0 0 0 0.3 0"/>
<feBlend mode="normal" in2="BackgroundImageFix" result="effect1_dropShadow_399_25323"/>
<feBlend mode="normal" in="SourceGraphic" in2="effect1_dropShadow_399_25323" result="shape"/>
</filter>
</defs>
</svg>
