<svg width="174" height="200" viewBox="0 0 174 200" fill="none" xmlns="http://www.w3.org/2000/svg">
<rect width="174" height="200" fill="white" fill-opacity="0.05"/>
<g filter="url(#filter0_d_622_49909)">
<path d="M131.57 77.3699C131.57 60.5999 124.14 46.2299 113.58 40.1999C112.2 39.4099 111.18 38.1299 110.75 36.6099C109.4 31.8099 106.2 28.4399 102.48 28.4399C98.76 28.4399 95.56 31.8099 94.21 36.6099C93.78 38.1299 92.75 39.4099 91.38 40.1999C80.82 46.2299 73.39 60.5999 73.39 77.3699C73.39 94.1399 80.85 108.57 91.44 114.58C92.8 115.35 93.82 116.61 94.26 118.11C95.65 122.81 98.8 126.09 102.47 126.09C106.14 126.09 109.3 122.81 110.68 118.11C111.12 116.61 112.14 115.35 113.5 114.58C124.09 108.57 131.55 94.1799 131.55 77.3699H131.57Z" fill="#B4D902"/>
<path d="M116.17 24.55C111.07 24.7 106.81 23.01 103.39 19.48L101.17 17V28.65C102.11 29.27 102.98 29.22 103.79 28.65V22.6C107.36 25.04 111.14 26.43 115.09 26.93L116.17 24.55Z" fill="#6DC82A"/>
<path d="M114.17 24.7701C116.05 21.6401 121.74 22.3901 124.42 26.1201L128.38 31.6301C129.3 32.9101 128.5 34.2601 126.93 34.0501L120.2 33.1701C115.64 32.5701 112.3 27.9101 114.17 24.7701Z" fill="#6DC82A"/>
<path d="M128.36 33.67C128.06 34.07 127.25 34.12 127.11 34.07L120.88 33.26C119.77 33.25 118.93 32.95 117.97 32.52C115.44 31.39 113.49 28.92 113.64 26.71C117.65 31.16 122.74 33.05 128.36 33.67Z" fill="white"/>
</g>
<g filter="url(#filter1_d_622_49909)">
<path d="M73.39 126.09C90.7262 126.09 104.78 112.036 104.78 94.7001C104.78 77.3638 90.7262 63.3101 73.39 63.3101C56.0538 63.3101 42 77.3638 42 94.7001C42 112.036 56.0538 126.09 73.39 126.09Z" fill="#6DC82A"/>
<path d="M73.39 119.88C87.2965 119.88 98.57 108.607 98.57 94.7C98.57 80.7935 87.2965 69.52 73.39 69.52C59.4834 69.52 48.21 80.7935 48.21 94.7C48.21 108.607 59.4834 119.88 73.39 119.88Z" fill="white"/>
</g>
<path d="M72.75 73.0701C77.75 73.0701 80.88 78.4901 78.38 82.8201L74.21 90.0401C73.56 91.1701 71.94 91.1701 71.29 90.0401L67.12 82.8201C64.62 78.4901 67.75 73.0701 72.75 73.0701Z" fill="#B4D902"/>
<path d="M91.08 83.0401C93.81 87.2301 90.99 92.8101 85.99 93.0801L77.67 93.5301C76.37 93.6001 75.48 92.2401 76.07 91.0801L79.84 83.6501C82.1 79.1901 88.35 78.8501 91.08 83.0401Z" fill="#B4D902"/>
<path d="M92.7301 104.8C90.3801 109.22 84.1301 109.43 81.4801 105.19L77.0701 98.1201C76.3801 97.0201 77.1401 95.5801 78.4401 95.5401L86.7701 95.2501C91.7701 95.0801 95.0801 100.38 92.7301 104.8Z" fill="#B4D902"/>
<path d="M75.3101 116.3C70.3301 116.75 66.73 111.63 68.84 107.09L72.35 99.5302C72.9 98.3502 74.51 98.2101 75.26 99.2701L80.05 106.09C82.93 110.18 80.2901 115.86 75.3101 116.3Z" fill="#B4D902"/>
<path d="M55.88 107.57C53.06 103.44 55.78 97.8002 60.77 97.4302L69.08 96.8102C70.38 96.7102 71.29 98.0602 70.73 99.2302L67.11 106.74C64.94 111.25 58.7 111.71 55.88 107.58V107.57Z" fill="#D32833"/>
<path d="M53.8 86.8101C55.72 82.1901 61.93 81.3901 64.96 85.3601L70.02 91.9801C70.81 93.0101 70.18 94.5101 68.9 94.6801L60.64 95.7501C55.68 96.3901 51.88 91.4201 53.81 86.8101H53.8Z" fill="#B4D902"/>
<path d="M73.5199 97.0299C74.735 97.0299 75.7199 96.0449 75.7199 94.8299C75.7199 93.6149 74.735 92.6299 73.5199 92.6299C72.3049 92.6299 71.3199 93.6149 71.3199 94.8299C71.3199 96.0449 72.3049 97.0299 73.5199 97.0299Z" fill="#D32833"/>
<path d="M53.7744 158.5H55.8494V174.15H62.9244V169.8H64.7744V176H53.7744V158.5ZM68.1396 176V174.325H72.4896V165.175H68.1396V163.5H74.4896V174.325H78.7396V176H68.1396ZM71.8146 159.95C71.8146 159.5 71.9646 159.117 72.2646 158.8C72.5646 158.467 72.948 158.3 73.4146 158.3C73.898 158.3 74.298 158.467 74.6146 158.8C74.948 159.117 75.1146 159.5 75.1146 159.95C75.1146 160.383 74.948 160.75 74.6146 161.05C74.298 161.35 73.898 161.5 73.4146 161.5C72.948 161.5 72.5646 161.35 72.2646 161.05C71.9646 160.75 71.8146 160.383 71.8146 159.95ZM86.0549 176V167.675C86.0549 167.325 86.0382 166.992 86.0049 166.675C85.9882 166.342 85.9299 166.05 85.8299 165.8C85.7465 165.533 85.6132 165.325 85.4299 165.175C85.2632 165.025 85.0382 164.95 84.7549 164.95C84.1882 164.95 83.7049 165.183 83.3049 165.65C82.9215 166.117 82.6299 166.7 82.4299 167.4V176H80.5299V163.5H81.8299L82.2049 165.025H82.3049C82.4715 164.775 82.6299 164.542 82.7799 164.325C82.9465 164.092 83.1299 163.892 83.3299 163.725C83.5465 163.558 83.7965 163.433 84.0799 163.35C84.3632 163.25 84.7215 163.2 85.1549 163.2C85.4049 163.2 85.6632 163.242 85.9299 163.325C86.1965 163.392 86.4382 163.508 86.6549 163.675C86.8882 163.825 87.0882 164.033 87.2549 164.3C87.4215 164.567 87.5299 164.892 87.5799 165.275C87.9632 164.625 88.3882 164.117 88.8549 163.75C89.3382 163.383 89.9966 163.2 90.8299 163.2C91.3799 163.2 91.8216 163.292 92.1549 163.475C92.5049 163.658 92.7716 163.925 92.9549 164.275C93.1549 164.608 93.2882 165.017 93.3549 165.5C93.4382 165.967 93.4799 166.492 93.4799 167.075V176H91.5799V167.5C91.5799 167.15 91.5632 166.825 91.5299 166.525C91.4966 166.208 91.4299 165.933 91.3299 165.7C91.2466 165.467 91.1216 165.283 90.9549 165.15C90.8049 165.017 90.5966 164.95 90.3299 164.95C89.7466 164.95 89.2549 165.183 88.8549 165.65C88.4549 166.117 88.1549 166.783 87.9549 167.65V176H86.0549ZM96.1951 164.475C96.9118 164.058 97.7201 163.758 98.6201 163.575C99.5201 163.392 100.403 163.3 101.27 163.3C102.12 163.3 102.812 163.433 103.345 163.7C103.895 163.967 104.32 164.317 104.62 164.75C104.937 165.167 105.145 165.65 105.245 166.2C105.362 166.733 105.42 167.275 105.42 167.825C105.42 168.458 105.403 169.133 105.37 169.85C105.337 170.567 105.312 171.283 105.295 172C105.295 172.833 105.345 173.625 105.445 174.375H107.12V176H103.795L103.57 174.125H103.445C103.345 174.275 103.195 174.467 102.995 174.7C102.795 174.933 102.528 175.167 102.195 175.4C101.878 175.617 101.487 175.808 101.02 175.975C100.553 176.142 100.003 176.225 99.3701 176.225C98.1368 176.225 97.1618 175.908 96.4451 175.275C95.7285 174.642 95.3701 173.775 95.3701 172.675C95.3701 171.825 95.5535 171.117 95.9201 170.55C96.3035 169.983 96.8451 169.55 97.5451 169.25C98.2451 168.95 99.0868 168.775 100.07 168.725C101.07 168.675 102.187 168.742 103.42 168.925C103.503 168.158 103.512 167.525 103.445 167.025C103.395 166.508 103.262 166.1 103.045 165.8C102.845 165.5 102.553 165.292 102.17 165.175C101.803 165.042 101.345 164.975 100.795 164.975C100.045 164.975 99.3285 165.083 98.6451 165.3C97.9618 165.5 97.3535 165.708 96.8201 165.925L96.1951 164.475ZM99.8701 174.55C100.337 174.55 100.77 174.475 101.17 174.325C101.57 174.175 101.92 173.983 102.22 173.75C102.52 173.517 102.77 173.267 102.97 173C103.17 172.717 103.32 172.45 103.42 172.2V170.45C102.553 170.3 101.753 170.225 101.02 170.225C100.287 170.225 99.6535 170.308 99.1201 170.475C98.5868 170.625 98.1701 170.867 97.8701 171.2C97.5701 171.533 97.4201 171.967 97.4201 172.5C97.4201 173.05 97.6035 173.533 97.9701 173.95C98.3535 174.35 98.9868 174.55 99.8701 174.55ZM97.0451 159.65C97.5285 159.1 98.0285 158.717 98.5451 158.5C99.0618 158.267 99.4868 158.15 99.8201 158.15C100.103 158.15 100.362 158.208 100.595 158.325C100.845 158.425 101.078 158.542 101.295 158.675C101.528 158.792 101.745 158.9 101.945 159C102.162 159.1 102.387 159.15 102.62 159.15C102.987 159.15 103.37 158.95 103.77 158.55L104.645 159.65C104.212 160.133 103.803 160.467 103.42 160.65C103.053 160.817 102.645 160.892 102.195 160.875C101.928 160.875 101.678 160.825 101.445 160.725C101.212 160.608 100.978 160.492 100.745 160.375C100.528 160.242 100.303 160.125 100.07 160.025C99.8535 159.925 99.6285 159.875 99.3951 159.875C99.1785 159.875 98.9535 159.933 98.7201 160.05C98.5035 160.167 98.2535 160.367 97.9701 160.65L97.0451 159.65ZM108.91 169.75C108.91 167.733 109.435 166.142 110.485 164.975C111.535 163.792 113.035 163.2 114.985 163.2C116.035 163.2 116.935 163.375 117.685 163.725C118.452 164.058 119.085 164.517 119.585 165.1C120.085 165.683 120.452 166.375 120.685 167.175C120.935 167.975 121.06 168.833 121.06 169.75C121.06 170.75 120.927 171.658 120.66 172.475C120.394 173.275 120.002 173.958 119.485 174.525C118.969 175.092 118.327 175.533 117.56 175.85C116.81 176.15 115.952 176.3 114.985 176.3C113.952 176.3 113.052 176.133 112.285 175.8C111.519 175.45 110.885 174.983 110.385 174.4C109.885 173.817 109.51 173.125 109.26 172.325C109.027 171.525 108.91 170.667 108.91 169.75ZM110.985 169.75C110.985 170.333 111.052 170.917 111.185 171.5C111.335 172.083 111.569 172.608 111.885 173.075C112.202 173.542 112.61 173.917 113.11 174.2C113.627 174.483 114.252 174.625 114.985 174.625C116.319 174.625 117.319 174.217 117.985 173.4C118.669 172.567 119.01 171.35 119.01 169.75C119.01 169.15 118.935 168.567 118.785 168C118.652 167.417 118.419 166.892 118.085 166.425C117.769 165.958 117.352 165.583 116.835 165.3C116.335 165.017 115.719 164.875 114.985 164.875C113.652 164.875 112.652 165.283 111.985 166.1C111.319 166.917 110.985 168.133 110.985 169.75Z" fill="white"/>
<defs>
<filter id="filter0_d_622_49909" x="67.39" y="13" width="74.1801" height="125.09" filterUnits="userSpaceOnUse" color-interpolation-filters="sRGB">
<feFlood flood-opacity="0" result="BackgroundImageFix"/>
<feColorMatrix in="SourceAlpha" type="matrix" values="0 0 0 0 0 0 0 0 0 0 0 0 0 0 0 0 0 0 127 0" result="hardAlpha"/>
<feOffset dx="2" dy="4"/>
<feGaussianBlur stdDeviation="4"/>
<feComposite in2="hardAlpha" operator="out"/>
<feColorMatrix type="matrix" values="0 0 0 0 0 0 0 0 0 0.137376 0 0 0 0 0.195833 0 0 0 0.4 0"/>
<feBlend mode="normal" in2="BackgroundImageFix" result="effect1_dropShadow_622_49909"/>
<feBlend mode="normal" in="SourceGraphic" in2="effect1_dropShadow_622_49909" result="shape"/>
</filter>
<filter id="filter1_d_622_49909" x="36" y="59.3101" width="78.78" height="78.78" filterUnits="userSpaceOnUse" color-interpolation-filters="sRGB">
<feFlood flood-opacity="0" result="BackgroundImageFix"/>
<feColorMatrix in="SourceAlpha" type="matrix" values="0 0 0 0 0 0 0 0 0 0 0 0 0 0 0 0 0 0 127 0" result="hardAlpha"/>
<feOffset dx="2" dy="4"/>
<feGaussianBlur stdDeviation="4"/>
<feComposite in2="hardAlpha" operator="out"/>
<feColorMatrix type="matrix" values="0 0 0 0 0 0 0 0 0 0.137376 0 0 0 0 0.195833 0 0 0 0.4 0"/>
<feBlend mode="normal" in2="BackgroundImageFix" result="effect1_dropShadow_622_49909"/>
<feBlend mode="normal" in="SourceGraphic" in2="effect1_dropShadow_622_49909" result="shape"/>
</filter>
</defs>
</svg>
