<svg width="236" height="237" viewBox="0 0 236 237" fill="none" xmlns="http://www.w3.org/2000/svg">
<path d="M200.902 236.486L236 92.0177L118 0.486333L-6.31493e-06 92.0177L35.0981 236.486L200.902 236.486Z" fill="#0080AF"/>
<g filter="url(#filter0_d_612_41082)">
<path d="M89.9462 157.652C89.9462 138.972 105.043 123.831 123.668 123.831C124.212 123.831 124.748 123.847 125.284 123.871C125.556 123.847 125.829 123.831 126.109 123.831L140.285 123.831C135.133 111.771 123.188 103.322 109.275 103.322C108.867 103.322 108.459 103.33 108.059 103.346C107.851 103.33 107.643 103.322 107.427 103.322L93.1624 103.322C92.8824 103.322 92.6103 103.338 92.3383 103.362C91.8023 103.338 91.2662 103.322 90.7222 103.322C72.097 103.322 57 118.463 57 137.143C57 155.822 72.097 170.963 90.7222 170.963C91.2662 170.963 91.8023 170.947 92.3383 170.923C92.4423 170.931 92.5463 170.939 92.6503 170.947C90.9062 166.863 89.9462 162.378 89.9462 157.652Z" fill="#D32833"/>
<path d="M89.9462 157.652C89.9462 138.972 105.043 123.831 123.668 123.831C124.212 123.831 124.748 123.847 125.284 123.871C125.556 123.847 125.829 123.831 126.109 123.831L140.285 123.831C135.133 111.771 123.188 103.322 109.275 103.322C108.867 103.322 108.459 103.33 108.059 103.346C107.851 103.33 107.643 103.322 107.427 103.322L93.1624 103.322C92.8824 103.322 92.6103 103.338 92.3383 103.362C91.8023 103.338 91.2662 103.322 90.7222 103.322C72.097 103.322 57 118.463 57 137.143C57 155.822 72.097 170.963 90.7222 170.963C91.2662 170.963 91.8023 170.947 92.3383 170.923C92.4423 170.931 92.5463 170.939 92.6503 170.947C90.9062 166.863 89.9462 162.378 89.9462 157.652Z" fill="url(#paint0_linear_612_41082)"/>
<path d="M99.9949 98.2673L108.755 93.6455L107.083 103.427L114.164 110.351L104.379 111.779L99.9949 120.678L95.6186 111.779L85.8259 110.351L92.9144 103.427L91.2423 93.6455L99.9949 98.2673Z" fill="white"/>
<path d="M63.7285 136.862C63.5765 143.578 65.8646 149.074 64.4645 149.042C63.0644 149.01 60.5443 143.506 60.6963 136.798C60.8483 130.082 63.6165 124.698 65.0086 124.73C66.4006 124.762 63.8805 130.154 63.7285 136.862Z" fill="white"/>
<path d="M68.2487 119.859C66.9366 121.825 67.1127 124.248 66.3926 123.775C65.6726 123.302 65.3765 120.79 66.6886 118.816C68.0007 116.842 70.4249 116.168 71.1449 116.65C71.865 117.131 69.5608 117.894 68.2487 119.867V119.859Z" fill="white"/>
<path d="M114.164 110.351L104.371 111.779L99.9949 120.678L95.6186 111.779L85.8259 110.351L92.9144 103.427L92.8904 103.322L107.099 103.322L107.083 103.427L114.164 110.351Z" fill="white"/>
<path d="M100.387 80.4863L99.6027 80.4863C97.5614 80.4863 95.9065 82.146 95.9065 84.1934L95.9065 103.098C95.9065 105.145 97.5614 106.805 99.6027 106.805H100.387C102.428 106.805 104.083 105.145 104.083 103.098L104.083 84.1934C104.083 82.146 102.428 80.4863 100.387 80.4863Z" fill="white"/>
</g>
<g filter="url(#filter1_d_612_41082)">
<path d="M145.278 125.845C144.87 125.845 144.462 125.853 144.062 125.869C143.854 125.853 143.646 125.845 143.43 125.845L129.165 125.845C128.885 125.845 128.613 125.861 128.341 125.885C127.805 125.861 127.269 125.845 126.725 125.845C108.099 125.845 93.0024 140.986 93.0024 159.666C93.0024 178.345 108.099 193.486 126.725 193.486C127.269 193.486 127.805 193.47 128.341 193.446C128.613 193.47 128.885 193.486 129.165 193.486L143.43 193.486C143.638 193.486 143.854 193.478 144.062 193.462C144.47 193.478 144.87 193.486 145.278 193.486C163.903 193.486 179 178.345 179 159.666C179 140.986 163.903 125.845 145.278 125.845Z" fill="#D32833"/>
<path d="M145.278 125.845C144.87 125.845 144.462 125.853 144.062 125.869C143.854 125.853 143.646 125.845 143.43 125.845L129.165 125.845C128.885 125.845 128.613 125.861 128.341 125.885C127.805 125.861 127.269 125.845 126.725 125.845C108.099 125.845 93.0024 140.986 93.0024 159.666C93.0024 178.345 108.099 193.486 126.725 193.486C127.269 193.486 127.805 193.47 128.341 193.446C128.613 193.47 128.885 193.486 129.165 193.486L143.43 193.486C143.638 193.486 143.854 193.478 144.062 193.462C144.47 193.478 144.87 193.486 145.278 193.486C163.903 193.486 179 178.345 179 159.666C179 140.986 163.903 125.845 145.278 125.845Z" fill="url(#paint1_linear_612_41082)"/>
<path d="M130.541 139.494L130.541 179.846C130.541 183.609 126.965 186.377 123.357 185.366C112.156 182.221 103.947 171.91 103.947 159.674C103.947 147.437 112.164 137.127 123.357 133.981C126.973 132.97 130.541 135.739 130.541 139.502V139.494Z" fill="white"/>
<path d="M141.454 179.846L141.454 139.494C141.454 135.731 145.03 132.962 148.638 133.973C159.839 137.119 168.047 147.429 168.047 159.666C168.047 171.902 159.831 182.213 148.638 185.358C145.022 186.369 141.454 183.601 141.454 179.838V179.846Z" fill="white"/>
<path d="M151.862 168.725C151.862 167.65 151.542 166.647 150.998 165.804C151.278 165.852 151.566 165.884 151.862 165.884C154.814 165.884 157.207 163.485 157.207 160.524C157.207 157.564 154.814 155.164 151.862 155.164C151.566 155.164 151.278 155.197 150.998 155.245C151.542 154.402 151.862 153.399 151.862 152.324C151.862 149.363 149.47 146.964 146.518 146.964C143.566 146.964 141.174 149.363 141.174 152.324C141.174 152.428 141.182 152.533 141.19 152.637C141.182 152.741 141.174 152.846 141.174 152.95L141.174 168.428C141.174 168.476 141.174 168.524 141.174 168.572C141.174 168.621 141.174 168.669 141.174 168.717C141.174 171.678 143.566 174.077 146.518 174.077C149.47 174.077 151.862 171.678 151.862 168.717V168.725Z" fill="#D32833"/>
<path d="M120.14 152.741C120.14 153.816 120.46 154.819 121.004 155.662C120.724 155.614 120.436 155.582 120.14 155.582C117.188 155.582 114.796 157.981 114.796 160.941C114.796 163.902 117.188 166.301 120.14 166.301C120.436 166.301 120.724 166.269 121.004 166.221C120.46 167.064 120.14 168.067 120.14 169.142C120.14 172.103 122.532 174.502 125.485 174.502C128.437 174.502 130.829 172.103 130.829 169.142C130.829 169.038 130.821 168.933 130.813 168.829C130.821 168.725 130.829 168.62 130.829 168.516L130.829 153.038C130.829 152.99 130.829 152.942 130.829 152.894C130.829 152.845 130.829 152.797 130.829 152.749C130.829 149.788 128.437 147.389 125.485 147.389C122.532 147.389 120.14 149.788 120.14 152.749V152.741Z" fill="#D32833"/>
</g>
<defs>
<filter id="filter0_d_612_41082" x="51" y="76.4863" width="99.2854" height="106.477" filterUnits="userSpaceOnUse" color-interpolation-filters="sRGB">
<feFlood flood-opacity="0" result="BackgroundImageFix"/>
<feColorMatrix in="SourceAlpha" type="matrix" values="0 0 0 0 0 0 0 0 0 0 0 0 0 0 0 0 0 0 127 0" result="hardAlpha"/>
<feOffset dx="2" dy="4"/>
<feGaussianBlur stdDeviation="4"/>
<feComposite in2="hardAlpha" operator="out"/>
<feColorMatrix type="matrix" values="0 0 0 0 0 0 0 0 0 0.137376 0 0 0 0 0.195833 0 0 0 0.4 0"/>
<feBlend mode="normal" in2="BackgroundImageFix" result="effect1_dropShadow_612_41082"/>
<feBlend mode="normal" in="SourceGraphic" in2="effect1_dropShadow_612_41082" result="shape"/>
</filter>
<filter id="filter1_d_612_41082" x="87.0024" y="121.845" width="101.998" height="83.6411" filterUnits="userSpaceOnUse" color-interpolation-filters="sRGB">
<feFlood flood-opacity="0" result="BackgroundImageFix"/>
<feColorMatrix in="SourceAlpha" type="matrix" values="0 0 0 0 0 0 0 0 0 0 0 0 0 0 0 0 0 0 127 0" result="hardAlpha"/>
<feOffset dx="2" dy="4"/>
<feGaussianBlur stdDeviation="4"/>
<feComposite in2="hardAlpha" operator="out"/>
<feColorMatrix type="matrix" values="0 0 0 0 0 0 0 0 0 0.137376 0 0 0 0 0.195833 0 0 0 0.4 0"/>
<feBlend mode="normal" in2="BackgroundImageFix" result="effect1_dropShadow_612_41082"/>
<feBlend mode="normal" in="SourceGraphic" in2="effect1_dropShadow_612_41082" result="shape"/>
</filter>
<linearGradient id="paint0_linear_612_41082" x1="84.0122" y1="170.512" x2="124.008" y2="87.6186" gradientUnits="userSpaceOnUse">
<stop stop-color="#6F081B"/>
<stop offset="0.598958" stop-color="#FB404B"/>
<stop offset="1" stop-color="#FF978C"/>
</linearGradient>
<linearGradient id="paint1_linear_612_41082" x1="120.894" y1="193.035" x2="160.088" y2="109.158" gradientUnits="userSpaceOnUse">
<stop stop-color="#6F081B"/>
<stop offset="0.598958" stop-color="#FB404B"/>
<stop offset="1" stop-color="#FF978C"/>
</linearGradient>
</defs>
</svg>
