<svg width="46" height="44" viewBox="0 0 46 44" fill="none" xmlns="http://www.w3.org/2000/svg">
<rect width="46" height="44" fill="white" fill-opacity="0.2"/>
<path d="M15.6977 20.85C15.6977 17.486 16.2873 14.8953 17.4667 13.078C18.6653 11.2607 20.502 10.352 22.9767 10.352C24.33 10.352 25.4707 10.6033 26.3987 11.106C27.346 11.6087 28.1097 12.324 28.6897 13.252C29.2697 14.1607 29.6853 15.2627 29.9367 16.558C30.188 17.834 30.3137 19.2647 30.3137 20.85C30.3137 24.214 29.7143 26.8047 28.5157 28.622C27.3363 30.4393 25.49 31.348 22.9767 31.348C21.6427 31.348 20.5117 31.0967 19.5837 30.594C18.6557 30.0913 17.9017 29.3857 17.3217 28.477C16.7417 27.549 16.326 26.447 16.0747 25.171C15.8233 23.8757 15.6977 22.4353 15.6977 20.85ZM18.2497 20.85C18.2497 21.9713 18.3173 23.0347 18.4527 24.04C18.6073 25.0453 18.8683 25.9347 19.2357 26.708C19.603 27.462 20.0863 28.071 20.6857 28.535C21.285 28.9797 22.0487 29.202 22.9767 29.202C24.6393 29.202 25.8477 28.5253 26.6017 27.172C27.375 25.8187 27.7617 23.7113 27.7617 20.85C27.7617 19.748 27.6843 18.6943 27.5297 17.689C27.3943 16.6643 27.143 15.775 26.7757 15.021C26.4083 14.2477 25.9153 13.6387 25.2967 13.194C24.678 12.73 23.9047 12.498 22.9767 12.498C21.3333 12.498 20.1347 13.1843 19.3807 14.557C18.6267 15.9103 18.2497 18.008 18.2497 20.85Z" fill="#032B3D"/>
</svg>
