<svg width="190" height="44" viewBox="0 0 190 44" fill="none" xmlns="http://www.w3.org/2000/svg">
<rect width="190" height="44" fill="white" fill-opacity="0.2"/>
<path d="M22.8555 13.8086H24.7188V11.3008C24.7188 10.9727 24.8242 10.707 25.0352 10.5039C25.2539 10.3008 25.5391 10.1992 25.8906 10.1992H30.0859C30.4375 10.1992 30.7188 10.3008 30.9297 10.5039C31.1484 10.707 31.2578 10.9727 31.2578 11.3008V13.8086H33.1211V11.1836C33.1211 10.3398 32.8594 9.67578 32.3359 9.19141C31.8203 8.69922 31.1133 8.45312 30.2148 8.45312H25.7617C24.8633 8.45312 24.1523 8.69922 23.6289 9.19141C23.1133 9.67578 22.8555 10.3398 22.8555 11.1836V13.8086ZM17.5352 14.7461H38.4766C38.7188 14.7461 38.9219 14.6602 39.0859 14.4883C39.2578 14.3086 39.3438 14.0977 39.3438 13.8555C39.3438 13.6133 39.2578 13.4062 39.0859 13.2344C38.9141 13.0625 38.7109 12.9766 38.4766 12.9766H17.5352C17.3008 12.9766 17.0938 13.0664 16.9141 13.2461C16.7422 13.418 16.6562 13.6211 16.6562 13.8555C16.6562 14.0977 16.7422 14.3086 16.9141 14.4883C17.0938 14.6602 17.3008 14.7461 17.5352 14.7461ZM22.6328 34.5508H33.3789C34.2148 34.5508 34.8945 34.3008 35.418 33.8008C35.9414 33.3008 36.2227 32.6289 36.2617 31.7852L37.082 14.5234H35.1953L34.4102 31.5859C34.3945 31.9375 34.2734 32.2227 34.0469 32.4414C33.8203 32.668 33.5352 32.7812 33.1914 32.7812H22.7969C22.4609 32.7812 22.1797 32.668 21.9531 32.4414C21.7266 32.2148 21.6055 31.9297 21.5898 31.5859L20.7578 14.5234H18.918L19.75 31.7969C19.7891 32.6406 20.0664 33.3086 20.582 33.8008C21.1055 34.3008 21.7891 34.5508 22.6328 34.5508ZM24.5312 30.7773C24.75 30.7773 24.9258 30.7148 25.0586 30.5898C25.1914 30.457 25.2578 30.2891 25.2578 30.0859L24.8945 17.5469C24.8945 17.3438 24.8242 17.1797 24.6836 17.0547C24.5508 16.9297 24.3789 16.8672 24.168 16.8672C23.9492 16.8672 23.7695 16.9336 23.6289 17.0664C23.4961 17.1914 23.4336 17.3555 23.4414 17.5586L23.793 30.0859C23.8008 30.2969 23.8711 30.4648 24.0039 30.5898C24.1367 30.7148 24.3125 30.7773 24.5312 30.7773ZM28 30.7773C28.2266 30.7773 28.4102 30.7148 28.5508 30.5898C28.6914 30.457 28.7617 30.2891 28.7617 30.0859V17.5586C28.7617 17.3555 28.6914 17.1914 28.5508 17.0664C28.4102 16.9336 28.2266 16.8672 28 16.8672C27.7812 16.8672 27.6016 16.9336 27.4609 17.0664C27.3203 17.1914 27.25 17.3555 27.25 17.5586V30.0859C27.25 30.2891 27.3203 30.457 27.4609 30.5898C27.6016 30.7148 27.7812 30.7773 28 30.7773ZM31.4805 30.7773C31.6914 30.7773 31.8633 30.7148 31.9961 30.5898C32.1289 30.4648 32.1992 30.2969 32.207 30.0859L32.5586 17.5586C32.5664 17.3555 32.5039 17.1914 32.3711 17.0664C32.2383 16.9336 32.0586 16.8672 31.832 16.8672C31.6211 16.8672 31.4492 16.9297 31.3164 17.0547C31.1836 17.1797 31.1133 17.3477 31.1055 17.5586L30.7539 30.0859C30.7461 30.2891 30.8086 30.457 30.9414 30.5898C31.0742 30.7148 31.2539 30.7773 31.4805 30.7773Z" fill="#032B3D"/>
<path d="M70.775 25.15H64.05L62.45 30H60.4L66.25 12.5H68.7L74.6 30H72.425L70.775 25.15ZM64.7 23.35H70.2L67.625 15.125H67.325L64.7 23.35ZM76.3902 21.875C76.3902 21.725 76.3819 21.5333 76.3652 21.3C76.3652 21.05 76.3569 20.8 76.3402 20.55C76.3236 20.2833 76.2986 20.025 76.2652 19.775C76.2486 19.525 76.2236 19.3083 76.1902 19.125H74.5152V17.5H77.8402L78.0902 19.25H78.2152C78.6652 18.6667 79.2319 18.1833 79.9152 17.8C80.6152 17.4 81.4652 17.2 82.4652 17.2C84.2486 17.2 85.5902 17.6917 86.4902 18.675C87.3902 19.6583 87.8402 21.2667 87.8402 23.5C87.8402 24.55 87.6819 25.5 87.3652 26.35C87.0652 27.1833 86.6319 27.8917 86.0652 28.475C85.4986 29.0583 84.8152 29.5083 84.0152 29.825C83.2152 30.1417 82.3319 30.3 81.3652 30.3C81.0152 30.3 80.6986 30.2833 80.4152 30.25C80.1486 30.2333 79.8986 30.2 79.6652 30.15C79.4486 30.1167 79.2319 30.0667 79.0152 30C78.7986 29.9333 78.5652 29.85 78.3152 29.75V35H76.3902V21.875ZM82.1402 19.025C81.6402 19.025 81.1652 19.1167 80.7152 19.3C80.2819 19.4833 79.8902 19.725 79.5402 20.025C79.2069 20.325 78.9319 20.6583 78.7152 21.025C78.4986 21.3917 78.3652 21.7583 78.3152 22.125V27.825C78.6819 28.075 79.0902 28.275 79.5402 28.425C80.0069 28.5583 80.6152 28.625 81.3652 28.625C82.6986 28.625 83.7652 28.1917 84.5652 27.325C85.3652 26.4417 85.7652 25.1583 85.7652 23.475C85.7652 22.0583 85.4819 20.9667 84.9152 20.2C84.3652 19.4167 83.4402 19.025 82.1402 19.025ZM90.6805 18.475C91.3971 18.0583 92.2055 17.7583 93.1055 17.575C94.0055 17.3917 94.8888 17.3 95.7555 17.3C96.6055 17.3 97.2971 17.4333 97.8305 17.7C98.3805 17.9667 98.8055 18.3167 99.1055 18.75C99.4221 19.1667 99.6305 19.65 99.7305 20.2C99.8471 20.7333 99.9055 21.275 99.9055 21.825C99.9055 22.4583 99.8888 23.1333 99.8555 23.85C99.8221 24.5667 99.7971 25.2833 99.7805 26C99.7805 26.8333 99.8305 27.625 99.9305 28.375H101.605V30H98.2805L98.0555 28.125H97.9305C97.8305 28.275 97.6805 28.4667 97.4805 28.7C97.2805 28.9333 97.0138 29.1667 96.6805 29.4C96.3638 29.6167 95.9721 29.8083 95.5055 29.975C95.0388 30.1417 94.4888 30.225 93.8555 30.225C92.6221 30.225 91.6471 29.9083 90.9305 29.275C90.2138 28.6417 89.8555 27.775 89.8555 26.675C89.8555 25.825 90.0388 25.1167 90.4055 24.55C90.7888 23.9833 91.3305 23.55 92.0305 23.25C92.7305 22.95 93.5721 22.775 94.5555 22.725C95.5555 22.675 96.6721 22.7417 97.9055 22.925C97.9888 22.1583 97.9971 21.525 97.9305 21.025C97.8805 20.5083 97.7471 20.1 97.5305 19.8C97.3305 19.5 97.0388 19.2917 96.6555 19.175C96.2888 19.0417 95.8305 18.975 95.2805 18.975C94.5305 18.975 93.8138 19.0833 93.1305 19.3C92.4471 19.5 91.8388 19.7083 91.3055 19.925L90.6805 18.475ZM94.3555 28.55C94.8221 28.55 95.2555 28.475 95.6555 28.325C96.0555 28.175 96.4055 27.9833 96.7055 27.75C97.0055 27.5167 97.2555 27.2667 97.4555 27C97.6555 26.7167 97.8055 26.45 97.9055 26.2V24.45C97.0388 24.3 96.2388 24.225 95.5055 24.225C94.7721 24.225 94.1388 24.3083 93.6055 24.475C93.0721 24.625 92.6555 24.8667 92.3555 25.2C92.0555 25.5333 91.9055 25.9667 91.9055 26.5C91.9055 27.05 92.0888 27.5333 92.4555 27.95C92.8388 28.35 93.4721 28.55 94.3555 28.55ZM115.071 30.625C115.071 31.4083 114.921 32.0917 114.621 32.675C114.321 33.275 113.904 33.7667 113.371 34.15C112.854 34.5333 112.246 34.8167 111.546 35C110.846 35.2 110.087 35.3 109.271 35.3C108.287 35.3 107.429 35.2 106.696 35C105.962 34.8 105.329 34.5417 104.796 34.225L105.746 32.45C105.896 32.5833 106.087 32.7083 106.321 32.825C106.571 32.9583 106.854 33.075 107.171 33.175C107.487 33.2917 107.821 33.3833 108.171 33.45C108.537 33.5167 108.896 33.55 109.246 33.55C109.979 33.55 110.587 33.4833 111.071 33.35C111.571 33.2167 111.971 33.0083 112.271 32.725C112.571 32.4417 112.787 32.075 112.921 31.625C113.054 31.175 113.121 30.625 113.121 29.975V28.575H113.021C112.637 29.125 112.146 29.55 111.546 29.85C110.946 30.15 110.171 30.3 109.221 30.3C107.321 30.3 105.921 29.775 105.021 28.725C104.137 27.6583 103.696 26.0083 103.696 23.775C103.696 21.6417 104.262 20.0333 105.396 18.95C106.529 17.85 108.212 17.3 110.446 17.3C111.479 17.3 112.354 17.375 113.071 17.525C113.804 17.6583 114.471 17.8333 115.071 18.05V30.625ZM109.496 28.625C110.512 28.625 111.312 28.3667 111.896 27.85C112.479 27.3167 112.887 26.5083 113.121 25.425V19.5C112.387 19.15 111.362 18.975 110.046 18.975C108.712 18.975 107.662 19.3667 106.896 20.15C106.129 20.9333 105.746 22.1333 105.746 23.75C105.746 24.4667 105.812 25.125 105.946 25.725C106.079 26.3083 106.287 26.8167 106.571 27.25C106.871 27.6833 107.254 28.025 107.721 28.275C108.204 28.5083 108.796 28.625 109.496 28.625ZM118.661 18.475C119.378 18.0583 120.186 17.7583 121.086 17.575C121.986 17.3917 122.869 17.3 123.736 17.3C124.586 17.3 125.278 17.4333 125.811 17.7C126.361 17.9667 126.786 18.3167 127.086 18.75C127.403 19.1667 127.611 19.65 127.711 20.2C127.828 20.7333 127.886 21.275 127.886 21.825C127.886 22.4583 127.869 23.1333 127.836 23.85C127.803 24.5667 127.778 25.2833 127.761 26C127.761 26.8333 127.811 27.625 127.911 28.375H129.586V30H126.261L126.036 28.125H125.911C125.811 28.275 125.661 28.4667 125.461 28.7C125.261 28.9333 124.994 29.1667 124.661 29.4C124.344 29.6167 123.953 29.8083 123.486 29.975C123.019 30.1417 122.469 30.225 121.836 30.225C120.603 30.225 119.628 29.9083 118.911 29.275C118.194 28.6417 117.836 27.775 117.836 26.675C117.836 25.825 118.019 25.1167 118.386 24.55C118.769 23.9833 119.311 23.55 120.011 23.25C120.711 22.95 121.553 22.775 122.536 22.725C123.536 22.675 124.653 22.7417 125.886 22.925C125.969 22.1583 125.978 21.525 125.911 21.025C125.861 20.5083 125.728 20.1 125.511 19.8C125.311 19.5 125.019 19.2917 124.636 19.175C124.269 19.0417 123.811 18.975 123.261 18.975C122.511 18.975 121.794 19.0833 121.111 19.3C120.428 19.5 119.819 19.7083 119.286 19.925L118.661 18.475ZM122.336 28.55C122.803 28.55 123.236 28.475 123.636 28.325C124.036 28.175 124.386 27.9833 124.686 27.75C124.986 27.5167 125.236 27.2667 125.436 27C125.636 26.7167 125.786 26.45 125.886 26.2V24.45C125.019 24.3 124.219 24.225 123.486 24.225C122.753 24.225 122.119 24.3083 121.586 24.475C121.053 24.625 120.636 24.8667 120.336 25.2C120.036 25.5333 119.886 25.9667 119.886 26.5C119.886 27.05 120.069 27.5333 120.436 27.95C120.819 28.35 121.453 28.55 122.336 28.55ZM131.601 30V28.325H134.976V19.175H131.601V17.5H136.276L136.676 19.125H136.801C137.368 18.6083 138.001 18.1667 138.701 17.8C139.401 17.4333 140.235 17.25 141.201 17.25C141.768 17.25 142.218 17.3583 142.551 17.575C142.901 17.7917 143.168 18.1083 143.351 18.525C143.551 18.9417 143.685 19.45 143.751 20.05C143.818 20.6333 143.851 21.3 143.851 22.05L142.101 22.075C142.101 21.0083 141.993 20.225 141.776 19.725C141.576 19.225 141.201 18.975 140.651 18.975C140.135 18.975 139.668 19.05 139.251 19.2C138.835 19.35 138.468 19.5333 138.151 19.75C137.851 19.9667 137.593 20.1833 137.376 20.4C137.16 20.6167 137.001 20.8 136.901 20.95V28.325H141.701V30H131.601Z" fill="#032B3D"/>
<path opacity="0.25" d="M182.837 35.3023L190 22V44H144L182.837 35.3023Z" fill="white"/>
</svg>
