<svg width="236" height="236" viewBox="0 0 236 236" fill="none" xmlns="http://www.w3.org/2000/svg">
<path d="M200.902 236L236 91.5313L118 1.04032e-05L-1.06972e-06 91.5314L35.0981 236L200.902 236Z" fill="#0E516A" fill-opacity="0.6"/>
<g clip-path="url(#clip0_111_8233)">
<path d="M89.9461 157.165C89.9461 138.486 105.043 123.345 123.668 123.345C124.212 123.345 124.748 123.361 125.284 123.385C125.556 123.361 125.828 123.345 126.109 123.345L140.285 123.345C135.133 111.285 123.188 102.836 109.275 102.836C108.867 102.836 108.459 102.844 108.059 102.86C107.851 102.844 107.643 102.836 107.427 102.836L93.1624 102.836C92.8823 102.836 92.6103 102.852 92.3383 102.876C91.8023 102.852 91.2662 102.836 90.7222 102.836C72.097 102.836 57 117.977 57 136.657C57 155.336 72.097 170.477 90.7222 170.477C91.2662 170.477 91.8023 170.461 92.3383 170.437C92.4423 170.445 92.5463 170.453 92.6503 170.461C90.9062 166.377 89.9461 161.892 89.9461 157.165Z" fill="#D32833"/>
<path d="M99.9948 97.7809L108.755 93.1592L107.083 102.94L114.164 109.865L104.379 111.293L99.9948 120.192L95.6185 111.293L85.8259 109.865L92.9143 102.94L91.2422 93.1592L99.9948 97.7809Z" fill="#D32833"/>
<path d="M63.7284 136.375C63.5764 143.091 65.8646 148.588 64.4645 148.556C63.0644 148.524 60.5442 143.019 60.6962 136.311C60.8482 129.595 63.6164 124.211 65.0085 124.243C66.4006 124.275 63.8804 129.667 63.7284 136.375Z" fill="white"/>
<path d="M68.2487 119.373C66.9366 121.339 67.1127 123.762 66.3926 123.289C65.6726 122.816 65.3765 120.304 66.6886 118.33C68.0007 116.356 70.4249 115.682 71.1449 116.164C71.865 116.645 69.5608 117.408 68.2487 119.381V119.373Z" fill="white"/>
<path d="M114.164 109.865L104.371 111.293L99.9948 120.192L95.6185 111.293L85.8259 109.865L92.9143 102.94L92.8903 102.836L107.099 102.836L107.083 102.94L114.164 109.865Z" fill="white"/>
<path d="M100.387 80L99.6028 80C97.5614 80 95.9065 81.6597 95.9065 83.707L95.9065 102.611C95.9065 104.659 97.5614 106.318 99.6028 106.318H100.387C102.428 106.318 104.083 104.659 104.083 102.611L104.083 83.707C104.083 81.6597 102.428 80 100.387 80Z" fill="#D32833"/>
<path d="M145.278 125.358C144.87 125.358 144.462 125.366 144.062 125.382C143.854 125.366 143.646 125.358 143.43 125.358L129.165 125.358C128.885 125.358 128.613 125.374 128.341 125.399C127.805 125.374 127.269 125.358 126.725 125.358C108.099 125.358 93.0023 140.499 93.0023 159.179C93.0023 177.859 108.099 193 126.725 193C127.269 193 127.805 192.983 128.341 192.959C128.613 192.983 128.885 193 129.165 193L143.43 193C143.638 193 143.854 192.992 144.062 192.975C144.47 192.992 144.87 193 145.278 193C163.903 193 179 177.859 179 159.179C179 140.499 163.903 125.358 145.278 125.358Z" fill="#D32833"/>
<path d="M130.541 139.007L130.541 179.359C130.541 183.122 126.965 185.89 123.356 184.879C112.156 181.734 103.947 171.423 103.947 159.187C103.947 146.95 112.164 136.64 123.356 133.494C126.973 132.483 130.541 135.251 130.541 139.015V139.007Z" fill="white"/>
<path d="M141.454 179.359L141.454 139.007C141.454 135.244 145.03 132.475 148.638 133.486C159.839 136.632 168.047 146.942 168.047 159.179C168.047 171.415 159.831 181.726 148.638 184.871C145.022 185.882 141.454 183.114 141.454 179.351V179.359Z" fill="white"/>
<path d="M151.862 168.238C151.862 167.163 151.542 166.16 150.998 165.318C151.278 165.366 151.566 165.398 151.862 165.398C154.814 165.398 157.207 162.999 157.207 160.038C157.207 157.077 154.814 154.678 151.862 154.678C151.566 154.678 151.278 154.71 150.998 154.758C151.542 153.916 151.862 152.913 151.862 151.837C151.862 148.877 149.47 146.478 146.518 146.478C143.566 146.478 141.174 148.877 141.174 151.837C141.174 151.942 141.182 152.046 141.19 152.15C141.182 152.255 141.174 152.359 141.174 152.463L141.174 167.941C141.174 167.99 141.174 168.038 141.174 168.086C141.174 168.134 141.174 168.182 141.174 168.23C141.174 171.191 143.566 173.59 146.518 173.59C149.47 173.59 151.862 171.191 151.862 168.23V168.238Z" fill="#D32833"/>
<path d="M120.14 152.254C120.14 153.329 120.46 154.332 121.004 155.175C120.724 155.127 120.436 155.095 120.14 155.095C117.188 155.095 114.796 157.494 114.796 160.455C114.796 163.415 117.188 165.815 120.14 165.815C120.436 165.815 120.724 165.782 121.004 165.734C120.46 166.577 120.14 167.58 120.14 168.655C120.14 171.616 122.532 174.015 125.484 174.015C128.437 174.015 130.829 171.616 130.829 168.655C130.829 168.551 130.821 168.446 130.813 168.342C130.821 168.238 130.829 168.133 130.829 168.029L130.829 152.551C130.829 152.503 130.829 152.455 130.829 152.407C130.829 152.359 130.829 152.31 130.829 152.262C130.829 149.301 128.437 146.902 125.484 146.902C122.532 146.902 120.14 149.301 120.14 152.262V152.254Z" fill="#D32833"/>
</g>
<defs>
<clipPath id="clip0_111_8233">
<rect width="122" height="113" fill="white" transform="translate(57 80)"/>
</clipPath>
</defs>
</svg>
