<svg width="174" height="200" viewBox="0 0 174 200" fill="none" xmlns="http://www.w3.org/2000/svg">
<rect width="174" height="200" fill="white" fill-opacity="0.05"/>
<path d="M84.4291 44.3082C88.4524 44.3082 91.7139 36.8519 91.7139 27.6541C91.7139 18.4563 88.4524 11 84.4291 11C80.4058 11 77.1443 18.4563 77.1443 27.6541C77.1443 36.8519 80.4058 44.3082 84.4291 44.3082Z" fill="#A0101E"/>
<path d="M84.4291 44.3082C88.4524 44.3082 91.7139 36.8519 91.7139 27.6541C91.7139 18.4563 88.4524 11 84.4291 11C80.4058 11 77.1443 18.4563 77.1443 27.6541C77.1443 36.8519 80.4058 44.3082 84.4291 44.3082Z" fill="url(#paint0_linear_622_49918)"/>
<path opacity="0.3" d="M84.4291 14.6479C88.1768 14.6479 91.2704 21.1344 91.6695 29.4836C91.7028 28.8849 91.7139 28.275 91.7139 27.6541C91.7139 18.4511 88.454 11 84.4291 11C80.4042 11 77.1443 18.4622 77.1443 27.6541C77.1443 28.275 77.1665 28.8849 77.1887 29.4836C77.5878 21.1455 80.6703 14.6479 84.4291 14.6479Z" fill="#880C18"/>
<path d="M88.0881 55.0415C87.6778 56.882 85.8816 58.0906 84.0077 57.8467C75.9911 56.7823 56.7203 50.695 74.0175 15.9343C78.2198 7.48527 80.8366 17.542 82.4887 34.052C83.4644 43.7983 90.0839 46.0602 88.0881 55.0415Z" fill="#CC222D"/>
<path d="M88.0881 55.0415C87.6778 56.882 85.8816 58.0906 84.0077 57.8467C75.9911 56.7823 56.7203 50.695 74.0175 15.9343C78.2198 7.48527 80.8366 17.542 82.4887 34.052C83.4644 43.7983 90.0839 46.0602 88.0881 55.0415Z" fill="url(#paint1_linear_622_49918)"/>
<path opacity="0.8" d="M82.4887 34.0411C81.0361 19.5381 78.8407 10.0135 75.4811 13.6504C77.3993 16.0454 78.7964 23.8069 79.8165 34.0411C80.7922 43.7874 87.4117 46.0493 85.4159 55.0306C85.1276 56.3168 84.1629 57.2814 82.9654 57.6695C83.3313 57.736 83.6862 57.7915 84.0077 57.8358C85.8816 58.0797 87.6778 56.8822 88.0881 55.0306C90.0728 46.0493 83.4644 43.7874 82.4887 34.0411Z" fill="#E12B2B"/>
<path d="M80.77 55.0417C81.1803 56.8823 82.9765 58.0909 84.8504 57.8469C92.8669 56.7825 112.138 50.6952 94.8406 15.9345C90.6383 7.48551 88.0215 17.5423 86.3694 34.0522C85.3937 43.7985 78.7742 46.0605 80.77 55.0417Z" fill="#CC222D"/>
<path d="M80.77 55.0417C81.1803 56.8823 82.9765 58.0909 84.8504 57.8469C92.8669 56.7825 112.138 50.6952 94.8406 15.9345C90.6383 7.48551 88.0215 17.5423 86.3694 34.0522C85.3937 43.7985 78.7742 46.0605 80.77 55.0417Z" fill="url(#paint2_linear_622_49918)"/>
<path opacity="0.8" d="M86.3694 34.0414C87.8219 19.5273 90.0173 10.0139 93.377 13.6507C91.4588 16.0457 90.0617 23.8073 89.0416 34.0414C88.0659 43.7877 81.4464 46.0497 83.4422 55.0309C83.7305 56.3171 84.6951 57.2818 85.8926 57.6698C85.5267 57.7364 85.1719 57.7918 84.8504 57.8362C82.9765 58.0801 81.1803 56.8826 80.77 55.0309C78.7853 46.0497 85.3937 43.7877 86.3694 34.0414Z" fill="#E12B2B"/>
<path d="M84.429 57.8354C90.3874 57.8354 95.2176 49.1828 95.2176 38.5091C95.2176 27.8355 90.3874 19.1829 84.429 19.1829C78.4707 19.1829 73.6405 27.8355 73.6405 38.5091C73.6405 49.1828 78.4707 57.8354 84.429 57.8354Z" fill="#A0101E"/>
<path d="M84.429 57.8354C90.3874 57.8354 95.2176 49.1828 95.2176 38.5091C95.2176 27.8355 90.3874 19.1829 84.429 19.1829C78.4707 19.1829 73.6405 27.8355 73.6405 38.5091C73.6405 49.1828 78.4707 57.8354 84.429 57.8354Z" fill="url(#paint3_linear_622_49918)"/>
<path opacity="0.5" d="M84.429 23.4628C89.9841 23.4628 94.5634 31.0691 95.1511 40.8487C95.1954 40.1502 95.2176 39.4294 95.2176 38.7087C95.2176 27.9202 90.3833 19.1829 84.429 19.1829C78.4748 19.1829 73.6405 27.9312 73.6405 38.7087C73.6405 39.4294 73.6626 40.1502 73.707 40.8487C74.2947 31.0691 78.874 23.4628 84.429 23.4628Z" fill="#FF4D4D"/>
<path d="M81.8788 57.4918C81.8788 57.4918 81.0694 81.974 81.2025 90.1902C81.4908 107.82 86.1921 120.638 86.946 123.254C87.6446 125.661 89.6293 123.72 89.6293 123.72C89.6293 123.72 83.9412 105.015 83.7638 89.7467C83.542 70.6976 86.3584 57.6138 86.3584 57.6138C86.3584 57.6138 87.2787 57.5805 88.6647 57.1703C90.2946 56.6824 86.4914 56.2167 84.6952 56.0726C84.0299 56.0171 77.8428 56.0726 79.506 56.7933C80.4263 57.1925 81.8788 57.4918 81.8788 57.4918Z" fill="#3D7A05"/>
<path d="M81.8788 57.4918C81.8788 57.4918 81.0694 81.974 81.2025 90.1902C81.4908 107.82 86.1921 120.638 86.946 123.254C87.6446 125.661 89.6293 123.72 89.6293 123.72C89.6293 123.72 83.9412 105.015 83.7638 89.7467C83.542 70.6976 86.3584 57.6138 86.3584 57.6138C86.3584 57.6138 87.2787 57.5805 88.6647 57.1703C90.2946 56.6824 86.4914 56.2167 84.6952 56.0726C84.0299 56.0171 77.8428 56.0726 79.506 56.7933C80.4263 57.1925 81.8788 57.4918 81.8788 57.4918Z" fill="url(#paint4_linear_622_49918)" style="mix-blend-mode:multiply"/>
<path d="M87.2898 133.3C87.2898 133.3 87.0237 122.578 93.4325 114.673C99.8413 106.767 99.8746 107.532 101.826 101.999C101.826 101.999 108.368 113.386 95.8497 120.904C90.6272 124.042 87.2898 133.3 87.2898 133.3Z" fill="#488901"/>
<path d="M87.2898 133.3C87.2898 133.3 87.0237 122.578 93.4325 114.673C99.8413 106.767 99.8746 107.532 101.826 101.999C101.826 101.999 108.368 113.386 95.8497 120.904C90.6272 124.042 87.2898 133.3 87.2898 133.3Z" fill="url(#paint5_linear_622_49918)" style="mix-blend-mode:multiply"/>
<path d="M87.2898 133.3C87.2898 133.3 87.7111 113.186 77.5435 98.3619C67.3758 83.5373 67.3204 84.9788 64.2158 74.5894C64.2158 74.5894 53.8375 95.9336 73.707 110.049C81.9897 115.925 87.2898 133.3 87.2898 133.3Z" fill="#488901"/>
<path d="M87.6002 133.3C87.6002 133.3 74.2504 95.4126 96.9252 77.5832C98.4553 76.3857 113.369 80.9428 110.796 82.3399C89.7957 93.7383 87.6113 133.289 87.6113 133.289L87.6002 133.3Z" fill="#528301"/>
<path d="M87.6002 133.3C87.6002 133.3 74.2504 95.4126 96.9252 77.5832C98.4553 76.3857 113.369 80.9428 110.796 82.3399C89.7957 93.7383 87.6113 133.289 87.6113 133.289L87.6002 133.3Z" fill="url(#paint6_linear_622_49918)" style="mix-blend-mode:multiply"/>
<path d="M96.9142 77.594C96.9142 77.594 107.481 75.0548 110.741 80.9758C114.832 88.4047 110.508 99.781 103.611 106.046C103.611 106.046 109.122 92.2079 103.999 87.562C98.8878 82.9162 96.9031 77.594 96.9031 77.594H96.9142Z" fill="#488901"/>
<path d="M45.5293 158.5H58.5293V163.075H56.6793V160.35H53.0543V174.15H55.8043V176H48.2293V174.15H50.9793V160.35H47.3793V163.075H45.5293V158.5ZM67.5945 163.5H71.1445V172.025C71.1445 172.842 71.1945 173.625 71.2945 174.375H72.9695V176H69.6445L69.5695 173.875H69.4695C69.0362 174.592 68.4612 175.175 67.7445 175.625C67.0279 176.075 66.1612 176.3 65.1445 176.3C64.3779 176.3 63.7195 176.208 63.1695 176.025C62.6362 175.858 62.1945 175.558 61.8445 175.125C61.4945 174.692 61.2362 174.117 61.0695 173.4C60.9029 172.667 60.8195 171.758 60.8195 170.675V165.175H59.1445V163.5H62.7695V170.275C62.7695 170.958 62.7945 171.575 62.8445 172.125C62.9112 172.658 63.0362 173.117 63.2195 173.5C63.4029 173.867 63.6695 174.15 64.0195 174.35C64.3862 174.533 64.8695 174.625 65.4695 174.625C66.3362 174.625 67.0862 174.342 67.7195 173.775C68.3695 173.208 68.8612 172.5 69.1945 171.65V165.175H67.5945V163.5ZM75.4848 158.5H79.6348V171.8C79.6348 172.817 79.8014 173.533 80.1348 173.95C80.4848 174.367 80.9931 174.575 81.6598 174.575C82.1264 174.575 82.5681 174.492 82.9848 174.325C83.4181 174.158 83.8931 173.875 84.4098 173.475L85.3098 174.85C85.0431 175.083 84.7514 175.292 84.4348 175.475C84.1181 175.658 83.7931 175.817 83.4598 175.95C83.1264 176.067 82.7931 176.158 82.4598 176.225C82.1264 176.292 81.8181 176.325 81.5348 176.325C80.9181 176.325 80.3681 176.242 79.8848 176.075C79.4014 175.925 78.9931 175.675 78.6598 175.325C78.3431 174.975 78.1014 174.517 77.9348 173.95C77.7681 173.367 77.6848 172.65 77.6848 171.8V160.175H75.4848V158.5ZM89.125 176V174.325H93.475V165.175H89.125V163.5H95.475V174.325H99.725V176H89.125ZM92.8 159.95C92.8 159.5 92.95 159.117 93.25 158.8C93.55 158.467 93.9333 158.3 94.4 158.3C94.8833 158.3 95.2833 158.467 95.6 158.8C95.9333 159.117 96.1 159.5 96.1 159.95C96.1 160.383 95.9333 160.75 95.6 161.05C95.2833 161.35 94.8833 161.5 94.4 161.5C93.9333 161.5 93.55 161.35 93.25 161.05C92.95 160.75 92.8 160.383 92.8 159.95ZM102.89 167.875C102.89 167.725 102.882 167.533 102.865 167.3C102.865 167.05 102.857 166.8 102.84 166.55C102.824 166.283 102.799 166.025 102.765 165.775C102.749 165.525 102.724 165.308 102.69 165.125H101.015V163.5H104.34L104.59 165.25H104.715C105.165 164.667 105.732 164.183 106.415 163.8C107.115 163.4 107.965 163.2 108.965 163.2C110.749 163.2 112.09 163.692 112.99 164.675C113.89 165.658 114.34 167.267 114.34 169.5C114.34 170.55 114.182 171.5 113.865 172.35C113.565 173.183 113.132 173.892 112.565 174.475C111.999 175.058 111.315 175.508 110.515 175.825C109.715 176.142 108.832 176.3 107.865 176.3C107.515 176.3 107.199 176.283 106.915 176.25C106.649 176.233 106.399 176.2 106.165 176.15C105.949 176.117 105.732 176.067 105.515 176C105.299 175.933 105.065 175.85 104.815 175.75V181H102.89V167.875ZM108.64 165.025C108.14 165.025 107.665 165.117 107.215 165.3C106.782 165.483 106.39 165.725 106.04 166.025C105.707 166.325 105.432 166.658 105.215 167.025C104.999 167.392 104.865 167.758 104.815 168.125V173.825C105.182 174.075 105.59 174.275 106.04 174.425C106.507 174.558 107.115 174.625 107.865 174.625C109.199 174.625 110.265 174.192 111.065 173.325C111.865 172.442 112.265 171.158 112.265 169.475C112.265 168.058 111.982 166.967 111.415 166.2C110.865 165.417 109.94 165.025 108.64 165.025ZM117.18 164.475C117.897 164.058 118.705 163.758 119.605 163.575C120.505 163.392 121.389 163.3 122.255 163.3C123.105 163.3 123.797 163.433 124.33 163.7C124.88 163.967 125.305 164.317 125.605 164.75C125.922 165.167 126.13 165.65 126.23 166.2C126.347 166.733 126.405 167.275 126.405 167.825C126.405 168.458 126.389 169.133 126.355 169.85C126.322 170.567 126.297 171.283 126.28 172C126.28 172.833 126.33 173.625 126.43 174.375H128.105V176H124.78L124.555 174.125H124.43C124.33 174.275 124.18 174.467 123.98 174.7C123.78 174.933 123.514 175.167 123.18 175.4C122.864 175.617 122.472 175.808 122.005 175.975C121.539 176.142 120.989 176.225 120.355 176.225C119.122 176.225 118.147 175.908 117.43 175.275C116.714 174.642 116.355 173.775 116.355 172.675C116.355 171.825 116.539 171.117 116.905 170.55C117.289 169.983 117.83 169.55 118.53 169.25C119.23 168.95 120.072 168.775 121.055 168.725C122.055 168.675 123.172 168.742 124.405 168.925C124.489 168.158 124.497 167.525 124.43 167.025C124.38 166.508 124.247 166.1 124.03 165.8C123.83 165.5 123.539 165.292 123.155 165.175C122.789 165.042 122.33 164.975 121.78 164.975C121.03 164.975 120.314 165.083 119.63 165.3C118.947 165.5 118.339 165.708 117.805 165.925L117.18 164.475ZM120.855 174.55C121.322 174.55 121.755 174.475 122.155 174.325C122.555 174.175 122.905 173.983 123.205 173.75C123.505 173.517 123.755 173.267 123.955 173C124.155 172.717 124.305 172.45 124.405 172.2V170.45C123.539 170.3 122.739 170.225 122.005 170.225C121.272 170.225 120.639 170.308 120.105 170.475C119.572 170.625 119.155 170.867 118.855 171.2C118.555 171.533 118.405 171.967 118.405 172.5C118.405 173.05 118.589 173.533 118.955 173.95C119.339 174.35 119.972 174.55 120.855 174.55Z" fill="white"/>
<defs>
<linearGradient id="paint0_linear_622_49918" x1="84.7913" y1="44.2638" x2="111.241" y2="3.7179" gradientUnits="userSpaceOnUse">
<stop stop-color="#4E0815"/>
<stop offset="0.598958" stop-color="#F02431"/>
<stop offset="1" stop-color="#FF6D5E"/>
</linearGradient>
<linearGradient id="paint1_linear_622_49918" x1="71.1299" y1="53.8187" x2="95.2874" y2="36.7555" gradientUnits="userSpaceOnUse">
<stop stop-color="#4E0815"/>
<stop offset="0.598958" stop-color="#F02431"/>
<stop offset="1" stop-color="#FF6D5E"/>
</linearGradient>
<linearGradient id="paint2_linear_622_49918" x1="96.988" y1="57.5698" x2="120.008" y2="34.3564" gradientUnits="userSpaceOnUse">
<stop stop-color="#4E0815"/>
<stop offset="0.598958" stop-color="#F02431"/>
<stop offset="1" stop-color="#FF6D5E"/>
</linearGradient>
<linearGradient id="paint3_linear_622_49918" x1="90.3353" y1="55.3519" x2="103.236" y2="15.509" gradientUnits="userSpaceOnUse">
<stop stop-color="#4E0815"/>
<stop offset="0.598958" stop-color="#F02431"/>
<stop offset="1" stop-color="#FF6D5E"/>
</linearGradient>
<linearGradient id="paint4_linear_622_49918" x1="81.9554" y1="65.0482" x2="102.781" y2="89.5244" gradientUnits="userSpaceOnUse">
<stop offset="0.215287" stop-color="#B4D902"/>
<stop offset="0.52" stop-color="#A0C704"/>
<stop offset="1" stop-color="#6C990B"/>
</linearGradient>
<linearGradient id="paint5_linear_622_49918" x1="91.5537" y1="106.114" x2="96.0872" y2="124.292" gradientUnits="userSpaceOnUse">
<stop offset="0.215287" stop-color="#B4D902"/>
<stop offset="0.52" stop-color="#A0C704"/>
<stop offset="1" stop-color="#6C990B"/>
</linearGradient>
<linearGradient id="paint6_linear_622_49918" x1="90.8897" y1="84.7349" x2="104.946" y2="107.155" gradientUnits="userSpaceOnUse">
<stop offset="0.215287" stop-color="#B4D902"/>
<stop offset="0.52" stop-color="#A0C704"/>
<stop offset="0.84" stop-color="#6C990B"/>
<stop offset="1" stop-color="#52820F"/>
</linearGradient>
</defs>
</svg>
