<svg width="340" height="229" viewBox="0 0 340 229" fill="none" xmlns="http://www.w3.org/2000/svg">
<g filter="url(#filter0_d_399_25351)">
<rect y="29" width="156" height="184" fill="white"/>
<path d="M37.9946 196.95C37.5446 196.95 37.153 196.767 36.8196 196.4C36.4863 196.017 36.2113 195.575 35.9946 195.075C35.778 194.558 35.603 194.117 35.4696 193.75C35.1696 192.867 34.8613 191.908 34.5446 190.875C34.228 189.825 33.903 188.767 33.5696 187.7C33.253 186.633 32.928 185.625 32.5946 184.675C32.2613 183.708 31.9363 182.883 31.6196 182.2V181.925C31.6196 181.658 31.678 181.483 31.7946 181.4C31.9113 181.3 32.1613 181.25 32.5446 181.25C32.978 181.25 33.2946 181.317 33.4946 181.45C33.7113 181.583 33.8946 181.883 34.0446 182.35L35.6446 187.475C36.1113 188.975 36.4863 190.158 36.7696 191.025C37.053 191.892 37.2863 192.533 37.4696 192.95C37.653 193.367 37.828 193.633 37.9946 193.75C38.178 193.867 38.3863 193.925 38.6196 193.925C38.9196 193.925 39.2946 193.625 39.7446 193.025C40.1946 192.408 40.6696 191.55 41.1696 190.45C41.6696 189.35 42.1613 188.058 42.6446 186.575C43.1446 185.075 43.5863 183.45 43.9696 181.7C44.0196 181.467 44.1363 181.267 44.3196 181.1C44.5196 180.933 44.728 180.85 44.9446 180.85C45.1946 180.85 45.3613 180.942 45.4446 181.125C45.5446 181.308 45.5946 181.525 45.5946 181.775C45.5946 182.025 45.5946 182.25 45.5946 182.45C45.5946 182.983 45.478 183.692 45.2446 184.575C45.0113 185.442 44.6863 186.408 44.2696 187.475C43.8696 188.542 43.4113 189.633 42.8946 190.75C42.378 191.867 41.8363 192.925 41.2696 193.925C41.0363 194.325 40.7613 194.758 40.4446 195.225C40.1446 195.692 39.7946 196.1 39.3946 196.45C38.9946 196.783 38.528 196.95 37.9946 196.95ZM48.6026 197.825C48.3693 197.825 48.186 197.675 48.0526 197.375C47.936 197.075 47.8526 196.692 47.8026 196.225C47.7693 195.758 47.7526 195.275 47.7526 194.775C47.7526 194.542 47.7526 194.308 47.7526 194.075C47.7693 193.825 47.7776 193.592 47.7776 193.375C47.7776 193.308 47.8026 193.092 47.8526 192.725C47.9026 192.342 47.961 191.9 48.0276 191.4C48.0943 190.9 48.161 190.408 48.2276 189.925C48.311 189.425 48.3776 189.033 48.4276 188.75C48.4776 188.533 48.536 188.25 48.6026 187.9C48.6693 187.533 48.786 187.208 48.9526 186.925C49.136 186.625 49.3943 186.475 49.7276 186.475C50.111 186.475 50.3776 186.55 50.5276 186.7C50.6943 186.833 50.7776 187.05 50.7776 187.35C50.7776 187.433 50.7693 187.517 50.7526 187.6C50.7526 187.683 50.7443 187.775 50.7276 187.875C50.6443 188.408 50.536 189.075 50.4026 189.875C50.286 190.658 50.1776 191.483 50.0776 192.35C49.9943 193.2 49.9693 194.008 50.0026 194.775C50.0193 194.958 50.036 195.175 50.0526 195.425C50.086 195.658 50.1026 195.892 50.1026 196.125C50.1026 196.558 50.011 196.95 49.8276 197.3C49.6443 197.65 49.236 197.825 48.6026 197.825ZM48.3026 183.975C48.0693 183.975 47.9526 183.808 47.9526 183.475C47.9526 183.275 48.036 183.067 48.2026 182.85C48.3693 182.633 48.561 182.433 48.7776 182.25C49.011 182.05 49.2026 181.892 49.3526 181.775C49.4693 181.675 49.586 181.583 49.7026 181.5C49.8193 181.4 49.9193 181.317 50.0026 181.25C50.086 181.183 50.236 181.075 50.4526 180.925C50.6693 180.775 50.886 180.625 51.1026 180.475C51.3193 180.325 51.4526 180.242 51.5026 180.225C51.586 180.192 51.6443 180.175 51.6776 180.175C51.7276 180.175 51.786 180.175 51.8526 180.175C52.0693 180.175 52.286 180.258 52.5026 180.425C52.736 180.575 52.8526 180.717 52.8526 180.85C52.8526 180.917 52.8026 181 52.7026 181.1L52.5526 181.275C52.5193 181.325 52.4693 181.375 52.4026 181.425C52.3526 181.458 52.311 181.492 52.2776 181.525C52.211 181.592 52.036 181.7 51.7526 181.85C51.4693 181.983 51.1943 182.142 50.9276 182.325L50.1526 182.825C49.8693 183.025 49.7026 183.15 49.6526 183.2C49.536 183.3 49.336 183.458 49.0526 183.675C48.7693 183.875 48.5193 183.975 48.3026 183.975ZM57.8956 198.7C57.4789 198.7 57.1706 198.567 56.9706 198.3C56.7706 198.033 56.6373 197.7 56.5706 197.3C56.5206 196.9 56.4956 196.508 56.4956 196.125C56.4956 195.942 56.4956 195.767 56.4956 195.6C56.5123 195.433 56.5206 195.292 56.5206 195.175C56.5206 193.975 56.5456 192.767 56.5956 191.55C56.6456 190.317 56.6706 188.975 56.6706 187.525C56.0539 187.525 55.5456 187.55 55.1456 187.6C54.7456 187.65 54.3456 187.675 53.9456 187.675C53.6789 187.675 53.4956 187.625 53.3956 187.525C53.2956 187.425 53.2456 187.258 53.2456 187.025C53.2456 186.758 53.2789 186.567 53.3456 186.45C53.4289 186.317 53.5289 186.233 53.6456 186.2L56.0956 185.7C56.4623 185.617 56.7206 185.45 56.8706 185.2C57.0373 184.95 57.1539 184.708 57.2206 184.475C57.2539 184.342 57.2706 184.217 57.2706 184.1C57.2873 183.967 57.3039 183.825 57.3206 183.675C57.3206 183.542 57.3206 183.417 57.3206 183.3C57.3373 183.167 57.3456 183.042 57.3456 182.925C57.3789 182.392 57.4623 182 57.5956 181.75C57.7456 181.5 58.0289 181.375 58.4456 181.375C58.8289 181.375 59.0539 181.525 59.1206 181.825C59.2039 182.125 59.2456 182.408 59.2456 182.675C59.2456 182.858 59.2289 183.142 59.1956 183.525C59.1789 183.892 59.1623 184.258 59.1456 184.625C59.1289 184.992 59.1123 185.258 59.0956 185.425H63.0956C63.2456 185.425 63.3956 185.525 63.5456 185.725C63.6956 185.925 63.7706 186.183 63.7706 186.5C63.7706 186.6 63.7289 186.733 63.6456 186.9C63.5623 187.05 63.4623 187.125 63.3456 187.125C63.1789 187.125 62.8623 187.133 62.3956 187.15C61.9456 187.15 61.4539 187.158 60.9206 187.175C60.4039 187.192 59.9456 187.208 59.5456 187.225C59.1456 187.242 58.9206 187.267 58.8706 187.3C58.7873 188.3 58.7206 189.267 58.6706 190.2C58.6373 191.117 58.6206 192.008 58.6206 192.875C58.6206 193.442 58.6289 193.992 58.6456 194.525C58.6789 195.042 58.7039 195.558 58.7206 196.075C58.7206 196.158 58.7289 196.283 58.7456 196.45C58.7623 196.617 58.7706 196.8 58.7706 197C58.7706 197.383 58.7123 197.767 58.5956 198.15C58.4956 198.517 58.2623 198.7 57.8956 198.7ZM68.1544 181.85C67.6044 181.85 67.1627 181.725 66.8294 181.475C66.5127 181.208 66.3544 180.867 66.3544 180.45C66.3544 180.067 66.5377 179.775 66.9044 179.575C67.2711 179.358 67.7377 179.25 68.3044 179.25C68.8711 179.25 69.3127 179.383 69.6294 179.65C69.9461 179.9 70.1044 180.25 70.1044 180.7C70.1044 181.067 69.9211 181.35 69.5544 181.55C69.2044 181.75 68.7377 181.85 68.1544 181.85ZM66.8544 197.825C66.6211 197.825 66.4377 197.675 66.3044 197.375C66.1877 197.075 66.1044 196.692 66.0544 196.225C66.0211 195.758 66.0044 195.275 66.0044 194.775C66.0044 194.542 66.0044 194.308 66.0044 194.075C66.0211 193.825 66.0294 193.592 66.0294 193.375C66.0294 193.308 66.0544 193.092 66.1044 192.725C66.1544 192.342 66.2127 191.9 66.2794 191.4C66.3461 190.9 66.4127 190.408 66.4794 189.925C66.5627 189.425 66.6294 189.033 66.6794 188.75C66.7294 188.533 66.7877 188.25 66.8544 187.9C66.9211 187.533 67.0377 187.208 67.2044 186.925C67.3877 186.625 67.6461 186.475 67.9794 186.475C68.3627 186.475 68.6294 186.55 68.7794 186.7C68.9461 186.833 69.0294 187.05 69.0294 187.35C69.0294 187.433 69.0211 187.517 69.0044 187.6C69.0044 187.683 68.9961 187.775 68.9794 187.875C68.8961 188.408 68.7877 189.075 68.6544 189.875C68.5377 190.658 68.4294 191.483 68.3294 192.35C68.2461 193.2 68.2211 194.008 68.2544 194.775C68.2711 194.958 68.2877 195.175 68.3044 195.425C68.3377 195.658 68.3544 195.892 68.3544 196.125C68.3544 196.558 68.2627 196.95 68.0794 197.3C67.8961 197.65 67.4877 197.825 66.8544 197.825ZM72.9474 197.95C72.6807 197.95 72.464 197.875 72.2974 197.725C72.1307 197.558 72.0474 197.358 72.0474 197.125C72.0474 196.542 72.064 195.967 72.0974 195.4C72.1474 194.833 72.1724 194.258 72.1724 193.675V191.9C72.1724 191.417 72.164 190.933 72.1474 190.45C72.1307 189.95 72.0974 189.4 72.0474 188.8C71.9974 188.333 71.8974 187.85 71.7474 187.35C71.5974 186.833 71.5224 186.392 71.5224 186.025C71.5224 185.308 71.739 184.95 72.1724 184.95C72.6724 184.95 73.0474 185.442 73.2974 186.425C73.564 187.392 73.814 188.783 74.0474 190.6C74.0807 190.817 74.1224 190.975 74.1724 191.075C74.2224 191.158 74.2724 191.2 74.3224 191.2C74.4224 191.2 74.514 191.142 74.5974 191.025C74.6974 190.892 74.7724 190.783 74.8224 190.7C74.9557 190.45 75.1057 190.158 75.2724 189.825C75.4557 189.492 75.614 189.208 75.7474 188.975C75.8807 188.742 76.0224 188.517 76.1724 188.3C76.339 188.067 76.5057 187.85 76.6724 187.65C77.0057 187.233 77.364 186.908 77.7474 186.675C78.1307 186.425 78.5474 186.3 78.9974 186.3C79.3974 186.3 79.7057 186.408 79.9224 186.625C80.139 186.842 80.3307 187.125 80.4974 187.475C80.5974 187.675 80.6807 187.875 80.7474 188.075C80.8307 188.258 80.9057 188.442 80.9724 188.625C81.0557 188.808 81.164 189.108 81.2974 189.525C81.4307 189.925 81.5974 190.258 81.7974 190.525L82.5474 189.45C82.8474 189.017 83.139 188.592 83.4224 188.175C83.7224 187.742 84.0557 187.342 84.4224 186.975C84.7724 186.608 85.139 186.317 85.5224 186.1C85.9057 185.867 86.3057 185.75 86.7224 185.75C87.289 185.75 87.764 185.983 88.1474 186.45C88.5307 186.917 88.8224 187.492 89.0224 188.175C89.2224 188.858 89.3307 189.525 89.3474 190.175L89.4974 195.95C89.514 196.217 89.4557 196.533 89.3224 196.9C89.189 197.25 88.9307 197.425 88.5474 197.425C88.3307 197.425 88.1474 197.342 87.9974 197.175C87.8474 196.992 87.7724 196.808 87.7724 196.625V191.65C87.7724 191.317 87.7474 190.933 87.6974 190.5C87.6474 190.05 87.564 189.617 87.4474 189.2C87.3474 188.783 87.2057 188.442 87.0224 188.175C86.839 187.892 86.6057 187.75 86.3224 187.75C85.8724 187.75 85.464 187.967 85.0974 188.4C84.7307 188.817 84.389 189.383 84.0724 190.1C83.7724 190.8 83.464 191.575 83.1474 192.425C82.8307 193.508 82.5557 194.233 82.3224 194.6C82.1057 194.967 81.8724 195.15 81.6224 195.15C81.4057 195.15 81.2307 195.1 81.0974 195C80.964 194.9 80.8474 194.767 80.7474 194.6C80.6307 194.4 80.539 194.167 80.4724 193.9C80.4057 193.617 80.3474 193.367 80.2974 193.15L79.8224 190.95C79.7557 190.65 79.6807 190.283 79.5974 189.85C79.5307 189.417 79.414 189.042 79.2474 188.725C79.0974 188.392 78.864 188.225 78.5474 188.225C78.3307 188.225 78.0974 188.358 77.8474 188.625C77.614 188.875 77.3724 189.192 77.1224 189.575C76.889 189.958 76.6724 190.35 76.4724 190.75C76.2724 191.15 76.1057 191.508 75.9724 191.825C75.839 192.142 75.7557 192.342 75.7224 192.425C75.689 192.525 75.589 192.783 75.4224 193.2C75.2557 193.617 75.064 194.092 74.8474 194.625C74.6307 195.142 74.4307 195.625 74.2474 196.075C74.0807 196.508 73.9724 196.792 73.9224 196.925C73.7557 197.308 73.6057 197.575 73.4724 197.725C73.339 197.875 73.164 197.95 72.9474 197.95ZM96.1482 198.45C95.3982 198.45 94.6982 198.283 94.0482 197.95C93.4148 197.617 92.8815 197.167 92.4482 196.6C92.0148 196.033 91.7315 195.4 91.5982 194.7V193.375C91.5982 192.425 91.7732 191.467 92.1232 190.5C92.4732 189.533 92.9565 188.642 93.5732 187.825C94.2065 187.008 94.9482 186.358 95.7982 185.875C96.6648 185.375 97.5982 185.125 98.5982 185.125C99.2315 185.125 99.8398 185.233 100.423 185.45C101.023 185.667 101.556 185.917 102.023 186.2C102.123 185.5 102.248 185.017 102.398 184.75C102.548 184.483 102.806 184.35 103.173 184.35C103.456 184.35 103.656 184.442 103.773 184.625C103.89 184.792 103.948 185.092 103.948 185.525C103.948 186.525 103.923 187.508 103.873 188.475C103.84 189.425 103.823 190.4 103.823 191.4C103.823 192.2 103.865 193.025 103.948 193.875C104.048 194.725 104.098 195.542 104.098 196.325C104.098 196.575 104.098 196.825 104.098 197.075C104.115 197.325 104.073 197.533 103.973 197.7C103.89 197.85 103.706 197.925 103.423 197.925C103.023 197.925 102.723 197.742 102.523 197.375C102.34 196.992 102.215 196.533 102.148 196C102.081 195.467 102.015 194.967 101.948 194.5C101.781 194.95 101.498 195.392 101.098 195.825C100.715 196.258 100.323 196.633 99.9232 196.95C99.5398 197.25 99.2398 197.467 99.0232 197.6C98.8232 197.717 98.8232 197.7 99.0232 197.55C98.6565 197.817 98.1982 198.033 97.6482 198.2C97.1148 198.367 96.6148 198.45 96.1482 198.45ZM95.8982 196.875C96.6482 196.875 97.3482 196.658 97.9982 196.225C98.6482 195.792 99.2148 195.233 99.6982 194.55C100.198 193.867 100.581 193.15 100.848 192.4C101.131 191.65 101.273 190.958 101.273 190.325C101.273 190.008 101.231 189.65 101.148 189.25C101.081 188.833 100.948 188.433 100.748 188.05C100.548 187.667 100.273 187.35 99.9232 187.1C99.5898 186.85 99.1482 186.725 98.5982 186.725C97.8815 186.725 97.1982 186.958 96.5482 187.425C95.8982 187.875 95.3148 188.458 94.7982 189.175C94.2982 189.875 93.9065 190.6 93.6232 191.35C93.3398 192.1 93.1982 192.775 93.1982 193.375C93.1982 193.825 93.2732 194.325 93.4232 194.875C93.5898 195.425 93.8648 195.9 94.2482 196.3C94.6482 196.683 95.1982 196.875 95.8982 196.875ZM116.023 197.95C115.856 197.95 115.723 197.908 115.623 197.825C115.523 197.725 115.473 197.5 115.473 197.15C115.473 196.95 115.556 196.792 115.723 196.675C115.89 196.558 116.181 196.458 116.598 196.375C116.798 196.342 116.99 196.317 117.173 196.3C117.373 196.267 117.548 196.242 117.698 196.225C118.031 196.175 118.273 196.075 118.423 195.925C118.59 195.775 118.673 195.633 118.673 195.5L119.373 186.15V184.95C118.973 184.95 118.698 184.967 118.548 185C118.398 185.017 118.281 185.042 118.198 185.075C118.131 185.092 118.065 185.125 117.998 185.175C117.931 185.208 117.856 185.242 117.773 185.275C117.64 185.342 117.523 185.392 117.423 185.425C117.323 185.458 117.223 185.475 117.123 185.475C116.906 185.475 116.715 185.408 116.548 185.275C116.398 185.125 116.323 184.975 116.323 184.825C116.323 184.408 116.556 183.992 117.023 183.575C117.123 183.475 117.231 183.383 117.348 183.3C117.481 183.2 117.615 183.1 117.748 183C117.881 182.917 118.006 182.825 118.123 182.725C118.256 182.625 118.373 182.533 118.473 182.45C118.606 182.35 118.731 182.242 118.848 182.125C118.981 182.008 119.098 181.9 119.198 181.8C119.298 181.7 119.398 181.6 119.498 181.5C119.598 181.4 119.698 181.308 119.798 181.225C120.131 180.908 120.498 180.75 120.898 180.75C120.965 180.75 121.04 180.75 121.123 180.75C121.206 180.733 121.281 180.725 121.348 180.725C121.448 180.725 121.531 180.742 121.598 180.775C121.681 180.808 121.723 180.892 121.723 181.025V182.675L120.748 191.1V195.45C121.431 195.45 121.981 195.408 122.398 195.325C122.831 195.242 123.256 195.2 123.673 195.2C123.99 195.2 124.206 195.25 124.323 195.35C124.44 195.45 124.498 195.617 124.498 195.85C124.498 196.15 124.431 196.367 124.298 196.5C124.165 196.633 123.931 196.717 123.598 196.75C123.381 196.783 123.031 196.842 122.548 196.925C122.081 196.992 121.548 197.083 120.948 197.2C120.348 197.3 119.74 197.408 119.123 197.525C118.523 197.625 117.973 197.717 117.473 197.8C116.99 197.867 116.631 197.917 116.398 197.95H116.023Z" fill="#032B3D"/>
<rect x="7" y="35" width="142.63" height="134" fill="black"/>
<path opacity="0.1" d="M149.63 169V35L24.8288 169H149.63Z" fill="white"/>
<path opacity="0.15" d="M149.63 35H78.315L7 153.686V169H24.8288L149.63 35Z" fill="white"/>
<path opacity="0.3" d="M149.63 169V96.2571L60.4863 169H149.63Z" fill="black"/>
<path opacity="0.1" d="M7 35.0001V153.686L78.315 35.0001H7Z" fill="white"/>
</g>
<path d="M77.9365 33.4519L87.4746 35.749L81.2476 51.7354L79.5552 52.3564L77.6108 51.8881L76.3866 50.5647L77.9365 33.4519Z" fill="#A9A9A9"/>
<path d="M86.9997 37.7211L79.6293 35.946L81.2476 51.7355L86.9997 37.7211Z" fill="#878787"/>
<path d="M97.6147 37.1625L83.0317 33.6503L68.4486 30.1382L68.1911 31.2076L70.2851 40.2771L80.4561 44.3445L90.5039 45.1465L97.3571 38.2319L97.6147 37.1625Z" fill="#AB1E27"/>
<path d="M94.194 29.8244L85.1389 24.9006L73.9753 24.955L68.4486 30.1382L70.7199 38.4718L80.9244 42.4002L90.9387 43.3412L97.6147 37.1625L94.194 29.8244Z" fill="#D32833"/>
<path opacity="0.8" d="M95.1721 31.5077L88.5595 27.7816L80.345 27.9368L76.2263 32.0115L77.8131 38.4498L85.2815 41.3925L92.6402 42.0207L97.6147 37.1626L95.1721 31.5077Z" fill="#A11B24"/>
<path d="M77.9568 7.74194L99.3453 12.8931L88.2746 34.8554L80.619 35.1265L77.815 32.3364L77.9568 7.74194Z" fill="#D32833"/>
<path d="M99.3453 12.8931L77.9568 7.74194L77.794 16.96L80.619 35.1265L83.9046 36.4321L88.2746 34.8554L99.3453 12.8931Z" fill="#A11B24"/>
<path d="M88.2746 34.8553L94.9529 21.6067L85.6607 29.1405L83.9046 36.432L88.2746 34.8553Z" fill="#811219"/>
<path d="M96.9027 7.23814L90.2901 3.51209L82.0756 3.66722L77.9568 7.74194L79.5437 14.1803L87.0121 17.1229L94.3708 17.7512L99.3453 12.8931L96.9027 7.23814Z" fill="#D32833"/>
<g filter="url(#filter1_d_399_25351)">
<path d="M172 127H336V223H209.609L186.797 210L172 184V127Z" fill="#FFCDD0"/>
<path opacity="0.5" d="M211.459 202L212.075 223H209.609L188.03 199.5L172 184L194.812 198.5L211.459 202Z" fill="#F3A4A9"/>
<path d="M209.609 223L186.797 210L172 184L189.88 197.5L208.376 200L209.609 223Z" fill="#F3A4A9"/>
</g>
<g filter="url(#filter2_d_399_25351)">
<path d="M336 19H172V115H292.842L336 91V19Z" fill="#D4F3FF"/>
<path d="M294.692 94.5L289.143 115H292.842L336 91L294.692 94.5Z" fill="#B4D9E7"/>
<path d="M292.842 115L336 91L299.624 92L292.842 115Z" fill="#91C9DF"/>
</g>
<defs>
<filter id="filter0_d_399_25351" x="0" y="29" width="162.296" height="192.395" filterUnits="userSpaceOnUse" color-interpolation-filters="sRGB">
<feFlood flood-opacity="0" result="BackgroundImageFix"/>
<feColorMatrix in="SourceAlpha" type="matrix" values="0 0 0 0 0 0 0 0 0 0 0 0 0 0 0 0 0 0 127 0" result="hardAlpha"/>
<feOffset dx="6.29605" dy="8.39474"/>
<feComposite in2="hardAlpha" operator="out"/>
<feColorMatrix type="matrix" values="0 0 0 0 0.366667 0 0 0 0 0.199655 0 0 0 0 0.113056 0 0 0 0.3 0"/>
<feBlend mode="normal" in2="BackgroundImageFix" result="effect1_dropShadow_399_25351"/>
<feBlend mode="normal" in="SourceGraphic" in2="effect1_dropShadow_399_25351" result="shape"/>
</filter>
<filter id="filter1_d_399_25351" x="172" y="127" width="168" height="102" filterUnits="userSpaceOnUse" color-interpolation-filters="sRGB">
<feFlood flood-opacity="0" result="BackgroundImageFix"/>
<feColorMatrix in="SourceAlpha" type="matrix" values="0 0 0 0 0 0 0 0 0 0 0 0 0 0 0 0 0 0 127 0" result="hardAlpha"/>
<feOffset dx="4" dy="6"/>
<feComposite in2="hardAlpha" operator="out"/>
<feColorMatrix type="matrix" values="0 0 0 0 0.366667 0 0 0 0 0.199655 0 0 0 0 0.113056 0 0 0 0.3 0"/>
<feBlend mode="normal" in2="BackgroundImageFix" result="effect1_dropShadow_399_25351"/>
<feBlend mode="normal" in="SourceGraphic" in2="effect1_dropShadow_399_25351" result="shape"/>
</filter>
<filter id="filter2_d_399_25351" x="172" y="19" width="168" height="102" filterUnits="userSpaceOnUse" color-interpolation-filters="sRGB">
<feFlood flood-opacity="0" result="BackgroundImageFix"/>
<feColorMatrix in="SourceAlpha" type="matrix" values="0 0 0 0 0 0 0 0 0 0 0 0 0 0 0 0 0 0 127 0" result="hardAlpha"/>
<feOffset dx="4" dy="6"/>
<feComposite in2="hardAlpha" operator="out"/>
<feColorMatrix type="matrix" values="0 0 0 0 0.366667 0 0 0 0 0.199655 0 0 0 0 0.113056 0 0 0 0.3 0"/>
<feBlend mode="normal" in2="BackgroundImageFix" result="effect1_dropShadow_399_25351"/>
<feBlend mode="normal" in="SourceGraphic" in2="effect1_dropShadow_399_25351" result="shape"/>
</filter>
</defs>
</svg>
