<svg width="236" height="236" viewBox="0 0 236 236" fill="none" xmlns="http://www.w3.org/2000/svg">
<path d="M200.902 236L236 91.5313L118 5.15794e-06L-6.31493e-06 91.5314L35.0981 236L200.902 236Z" fill="white" fill-opacity="0.2"/>
<g clip-path="url(#clip0_85_2796)">
<g clip-path="url(#clip1_85_2796)">
<g filter="url(#filter0_d_85_2796)">
<path d="M134.187 72.7497C134.411 72.4625 134.846 72.2032 135.133 72C137.663 73.8008 143.044 75.034 145.314 79.4693C146.022 80.8497 146.463 83.0148 147.479 84.3602C146.856 84.9277 144.74 86.273 143.646 87.0929C141.986 84.4162 139.758 83.2811 137.978 80.6535C137.039 79.2661 134.194 72.7497 134.194 72.7497H134.187Z" fill="#DDDDDD"/>
<path d="M71.7417 178.218L72.2602 177.587L69.2192 174.819L69.8428 174.063L70.1511 174.343L75.4834 167.869L75.1681 167.588L76.114 166.453L79.155 169.221L79.6735 168.583L75.9318 165.185L74.4744 166.958L74.2572 166.761L68.9249 173.229L69.1421 173.425L68 174.812L71.7417 178.218Z" fill="#DDDDDD"/>
<path d="M141.068 165.885C141.11 160.238 141.306 155.032 141.614 150.772L141.194 150.926C131.328 154.562 122.002 158.003 108.009 168.401C106.776 169.319 96.3078 178.26 95.2287 179.381L94.0376 180.628L92.2018 182.52C91.7743 182.961 91.3049 183.438 90.6813 184.047C90.429 184.3 90.1698 184.552 89.9175 184.797L89.1468 185.533C88.8945 185.771 88.6423 186.002 88.369 186.24C88.1938 186.409 88.0327 186.549 87.8785 186.682C87.8014 186.752 87.7244 186.815 87.6473 186.885L87.5562 186.962C87.5562 186.962 87.5212 186.99 87.4931 187.018L86.8765 187.516L86.9956 187.677L86.8695 187.523C86.8695 187.523 86.8135 187.565 86.7924 187.586C86.7784 187.6 86.7714 187.6 86.7714 187.607L86.7364 187.628C86.7364 187.628 86.6593 187.67 86.5052 187.684C86.4001 187.698 86.2739 187.684 86.1338 187.649C85.8185 187.565 85.5032 187.362 85.2299 187.053C85.0617 186.864 84.9076 186.64 84.7604 186.36C84.7254 186.282 84.6904 186.212 84.6553 186.142C84.6413 186.114 84.6273 186.086 84.6133 186.051L84.5993 186.023C84.5993 186.023 84.5713 185.96 84.5572 185.925L84.4662 185.673C84.4662 185.673 84.4662 185.568 84.4942 185.414C84.5432 185.112 84.6834 184.706 84.8726 184.286C85.279 183.375 85.9796 182.317 86.8975 181.195C87.6893 180.229 88.6773 179.177 89.9245 178C90.2048 177.734 90.4921 177.468 90.7724 177.216L91.6342 176.452C92.2088 175.947 92.8254 175.436 93.5121 174.868L97.4429 171.645L104.562 165.843L105.851 164.799C116.151 156.412 126.809 147.738 136.59 139.673C142.252 135.006 146.785 131.229 150.863 127.803C153.358 125.701 155.502 123.879 157.429 122.225C159.272 120.635 161.444 118.757 163.511 116.872C164.429 116.031 165.41 115.127 166.363 114.154C166.65 113.852 166.881 113.614 167.098 113.362L167.288 113.138C167.365 113.046 167.442 112.941 167.512 112.843C167.533 112.815 167.568 112.773 167.61 112.71L167.778 112.444L167.883 112.262C167.918 112.185 167.953 112.129 167.981 112.058L168.051 111.911C168.409 111.106 168.647 110.237 168.773 109.333C169.004 107.7 168.843 105.899 168.311 104.141C167.848 102.606 167.126 101.128 166.167 99.7403C165.27 98.444 164.198 97.2879 163.013 96.349C162.411 95.8725 161.787 95.4521 161.157 95.1018C161.08 95.0527 160.988 95.0037 160.897 94.9616L159.594 94.317C157.8 93.4411 156.322 92.6073 155.075 91.7665C152.503 90.0428 150.8 88.235 149.742 87.0228C149.196 86.3922 148.789 85.8807 148.516 85.5303L147.143 83.7366L143.191 86.4973L144.501 88.3611L144.515 88.3821C144.796 88.7745 145.272 89.4262 145.924 90.232C146.036 90.3721 146.155 90.5192 146.288 90.6734C146.989 91.5212 147.703 92.299 148.46 93.0627C149.651 94.2609 150.983 95.396 152.398 96.4261C153.848 97.4841 155.607 98.5702 157.625 99.6632L158.641 100.21L158.732 100.266C158.76 100.28 158.781 100.294 158.809 100.315L158.83 100.329C159.111 100.504 159.398 100.714 159.685 100.96C160.26 101.457 160.799 102.088 161.234 102.774C161.696 103.51 162.046 104.302 162.243 105.073C162.446 105.871 162.488 106.649 162.355 107.329C162.292 107.637 162.194 107.938 162.061 108.212L161.948 108.338C161.801 108.492 161.619 108.667 161.402 108.863C150.576 118.547 139.779 125.322 133.872 129.646C123.621 137.15 107.988 146.28 97.1837 154.093L88.4881 160.385L84.312 163.433C83.6393 163.93 82.9457 164.442 82.231 164.989L81.6774 165.423L81.1379 165.857C80.7875 166.145 80.4302 166.439 80.0798 166.733C78.5453 168.037 77.207 169.333 75.9878 170.699C75.2801 171.505 74.6635 172.29 74.0959 173.089C73.4163 174.048 72.8557 174.987 72.3863 175.954C71.7627 177.23 71.3563 178.407 71.097 179.661C70.9358 180.46 70.8447 181.216 70.8237 181.994C70.7957 182.891 70.8588 183.788 71.0129 184.671C71.111 185.203 71.2091 185.645 71.3352 186.072L71.3563 186.156C71.3773 186.268 71.4193 186.395 71.4684 186.528L71.6716 187.137C71.7276 187.298 71.7767 187.432 71.8257 187.565L71.8678 187.67C71.9168 187.796 71.9729 187.929 72.0219 188.062L72.078 188.209C72.2181 188.539 72.3723 188.882 72.5404 189.239C73.2201 190.634 75.3222 193.458 76.2891 194.614C76.3311 194.663 76.3662 194.705 76.4012 194.754C77.4733 196.029 78.7065 197.136 80.0728 198.047C81.4672 198.986 82.9386 199.687 84.4381 200.135C85.9866 200.598 87.5352 200.808 89.0417 200.745C90.5832 200.689 92.0546 200.359 93.414 199.757C94.0726 199.469 94.7242 199.105 95.3338 198.671L96.0976 198.124C96.1466 198.089 96.2027 198.047 96.2517 198.012L96.518 197.809C96.8333 197.571 97.1556 197.332 97.4219 197.108C97.7162 196.877 98.0595 196.611 98.3818 196.344L99.2997 195.595C99.608 195.349 99.9093 195.097 100.211 194.852L103.637 191.972L105.291 190.599C106.405 189.681 107.463 188.84 108.437 188.118C109.474 187.355 110.637 186.675 111.758 186.016C112.746 185.435 113.769 184.839 114.715 184.18C121.96 179.121 128.518 177.019 134.208 177.937C137.719 178.505 140.059 180.102 141.397 181.209C141.138 176.851 141.005 171.575 141.04 165.913L141.068 165.885ZM84.4732 185.708C84.4732 185.708 84.4942 185.743 84.5152 185.806L84.4732 185.708Z" fill="#053448"/>
<path d="M143.177 129.673C143.177 129.673 143.815 129.092 144.922 128.083C146.043 127.081 147.626 125.631 149.567 123.935C151.508 122.239 153.771 120.263 156.196 118.14C157.422 117.096 158.69 116.017 159.972 114.917C161.248 113.817 162.607 112.731 163.672 111.533C164.751 110.32 165.55 108.933 165.704 107.35C165.788 106.964 165.732 106.551 165.718 106.144L165.704 105.843V105.766V105.731C165.704 105.759 165.69 105.647 165.718 105.787V105.766L165.676 105.591L165.536 104.911L165.396 104.231C165.333 104.035 165.256 103.86 165.186 103.671C165.052 103.3 164.94 102.935 164.709 102.578C163.952 101.106 162.761 99.9152 161.5 98.9132C160.232 97.9112 158.865 97.1265 157.618 96.3767C156.357 95.641 155.18 94.9403 154.157 94.2747C153.134 93.588 152.265 92.9293 151.578 92.3408C151.249 92.0324 150.948 91.7522 150.688 91.5139C150.436 91.2617 150.254 91.0164 150.086 90.8413C149.763 90.4699 149.595 90.2737 149.595 90.2737C149.413 90.0635 149.413 89.7692 149.595 89.6151C149.763 89.4679 150.03 89.503 150.205 89.6781L150.254 89.7272C150.254 89.7272 150.422 89.8953 150.737 90.2107C150.899 90.3648 151.081 90.575 151.326 90.7852C151.578 90.9884 151.866 91.2267 152.188 91.4929C152.846 91.9974 153.694 92.565 154.696 93.1606C155.719 93.7351 156.875 94.3657 158.172 95.0664C159.461 95.7811 160.89 96.5309 162.341 97.5959C163.784 98.6329 165.263 100.062 166.237 101.905C166.517 102.34 166.699 102.851 166.881 103.356C166.972 103.608 167.077 103.874 167.155 104.119L167.302 104.799L167.449 105.486L167.484 105.654V105.675C167.512 105.829 167.498 105.731 167.505 105.773V105.822L167.519 105.92L167.54 106.305C167.568 106.817 167.631 107.336 167.54 107.84C167.379 109.9 166.356 111.666 165.123 112.976C163.875 114.335 162.516 115.365 161.22 116.458C159.916 117.538 158.641 118.603 157.401 119.626C154.899 121.651 152.566 123.542 150.562 125.161C148.551 126.773 146.856 128.09 145.678 129.022C144.487 129.94 143.808 130.465 143.808 130.465C143.618 130.612 143.331 130.549 143.163 130.332C143.002 130.129 143.009 129.849 143.163 129.702L143.177 129.673Z" fill="#DDDDDD"/>
<path d="M74.5163 183.549C74.5163 183.549 74.5654 183.872 74.6565 184.474C74.7055 184.776 74.8246 185.091 74.9227 185.49C75.0559 185.89 75.231 186.359 75.4482 186.871C75.8897 187.894 76.5904 189.099 77.5433 190.36C78.4962 191.621 79.7505 192.925 81.257 194.053C82.0067 194.627 82.8475 195.097 83.7234 195.489C84.6063 195.833 85.5312 196.071 86.4421 196.071H86.5261C86.5261 196.071 86.6032 196.078 86.4841 196.085H86.5121L86.5612 196.078L86.7574 196.057L87.1498 196.022C87.409 195.994 87.6963 195.987 87.9345 195.938C88.39 195.812 88.8384 195.763 89.3149 195.587C90.2678 195.279 91.2138 194.873 92.1247 194.347C93.9745 193.345 95.7472 192.014 97.4639 190.549C99.1876 189.085 100.876 187.494 102.586 185.897C103.441 185.098 104.317 184.299 105.221 183.528C106.138 182.779 107.021 182.057 107.953 181.342C109.803 179.927 111.639 178.554 113.566 177.411C115.486 176.269 117.385 175.204 119.36 174.476C119.837 174.272 120.327 174.09 120.818 173.943C121.308 173.789 121.785 173.635 122.261 173.488C123.249 173.277 124.16 172.983 125.113 172.892C125.583 172.829 126.038 172.766 126.486 172.703C126.949 172.682 127.39 172.668 127.832 172.647C128.701 172.577 129.548 172.696 130.34 172.759C131.125 172.794 131.875 173.018 132.554 173.137C133.241 173.249 133.858 173.481 134.411 173.663C135.539 173.985 136.366 174.448 136.941 174.714C137.515 174.994 137.817 175.141 137.817 175.141C138.055 175.26 138.188 175.541 138.111 175.772C138.041 175.989 137.81 176.087 137.585 176.003L137.522 175.982C137.522 175.982 137.228 175.87 136.667 175.667C136.107 175.464 135.301 175.12 134.243 174.889C133.718 174.756 133.143 174.581 132.505 174.532C131.875 174.469 131.188 174.307 130.459 174.342C129.738 174.335 128.96 174.3 128.168 174.405C127.769 174.441 127.362 174.476 126.942 174.518C126.536 174.595 126.115 174.672 125.688 174.756C124.819 174.875 123.978 175.204 123.074 175.443C122.64 175.604 122.198 175.772 121.75 175.94C121.294 176.094 120.853 176.29 120.411 176.508C118.611 177.306 116.803 178.336 114.995 179.5C113.187 180.663 111.394 181.994 109.607 183.402C108.724 184.096 107.813 184.846 106.937 185.581C106.068 186.31 105.207 187.081 104.352 187.866C100.939 191.019 97.4499 194.298 93.3579 196.414C92.3419 196.947 91.2558 197.353 90.1487 197.668C89.6092 197.837 88.9715 197.907 88.397 198.026C88.1097 198.068 87.8504 198.061 87.5842 198.082L87.1848 198.103H86.9886L86.8204 198.117H86.7083C85.4821 198.061 84.305 197.703 83.2329 197.234C82.1819 196.722 81.2079 196.127 80.3741 195.44C78.6784 194.102 77.4102 192.56 76.4362 191.138C75.4693 189.702 74.7896 188.363 74.3692 187.214C74.159 186.64 74.0048 186.121 73.8927 185.659C73.8086 185.189 73.7035 184.769 73.6825 184.467C73.6405 183.865 73.6124 183.549 73.6124 183.549C73.5914 183.29 73.7806 183.094 74.0328 183.115C74.2711 183.136 74.4813 183.346 74.5233 183.585L74.5163 183.549Z" fill="#DDDDDD"/>
<path d="M142.869 166.061C142.813 174.441 142.126 181.133 141.341 181.006C140.549 180.88 139.954 173.985 140.01 165.598C140.066 157.218 140.746 150.526 141.537 150.653C142.329 150.779 142.925 157.673 142.876 166.061H142.869Z" fill="#FFE085" stroke="#005268" stroke-width="0.09" stroke-miterlimit="10"/>
<path d="M142.869 166.061C142.813 174.441 142.126 181.133 141.341 181.006C140.549 180.88 139.954 173.985 140.01 165.598C140.066 157.218 140.746 150.526 141.537 150.653C142.329 150.779 142.925 157.673 142.876 166.061H142.869Z" fill="#DDDDDD"/>
<path d="M114.932 184.601C113.019 186.191 109.964 185.673 108.115 183.445C106.265 181.216 106.314 178.119 108.227 176.529C110.14 174.938 113.195 175.457 115.044 177.685C116.894 179.913 116.845 183.01 114.932 184.601Z" fill="#568C9B"/>
<path d="M114.995 181.595C114.82 182.071 114.54 182.499 114.133 182.835C112.718 184.012 110.469 183.627 109.102 181.98C108.36 181.083 108.044 180.004 108.129 179.009C107.68 180.2 107.932 181.693 108.906 182.87C110.273 184.51 112.522 184.895 113.937 183.725C114.582 183.192 114.925 182.422 114.995 181.595Z" fill="#DDDDDD"/>
<path d="M106.895 191.426C104.954 193.037 101.85 192.512 99.9655 190.248C98.0806 187.985 98.1297 184.839 100.078 183.221C102.026 181.602 105.123 182.127 107.007 184.391C108.885 186.654 108.836 189.8 106.895 191.419V191.426Z" fill="#568C9B"/>
<path d="M84.2349 198.453C82.6233 199.792 80.0588 199.357 78.4963 197.486C76.9407 195.609 76.9828 193.009 78.5944 191.671C80.1989 190.332 82.7705 190.767 84.326 192.645C85.8815 194.516 85.8395 197.122 84.2349 198.46V198.453Z" fill="#568C9B"/>
<path d="M101.675 193.815L98.4729 189.961C97.576 188.882 97.555 187.418 98.4168 186.696L98.9213 187.306C98.3398 187.789 98.3748 188.784 98.9914 189.527L102.194 193.381C102.81 194.123 103.784 194.341 104.366 193.857L117.791 182.702C118.365 182.226 118.337 181.224 117.721 180.481L114.519 176.627C113.902 175.884 112.928 175.674 112.354 176.151L111.849 175.541C112.718 174.819 114.147 175.114 115.044 176.193L118.246 180.046C119.143 181.126 119.164 182.583 118.302 183.305L104.877 194.46C104.015 195.181 102.579 194.894 101.682 193.808L101.675 193.815Z" fill="#DDDDDD"/>
<path d="M92.3419 178.196L103.931 168.632L103.994 168.716L104.52 168.282L104.45 168.204L115.086 159.432L115.121 159.474L115.64 159.046L115.605 159.004L156.035 125.666L155.972 125.589L156.007 125.56L153.933 123.066L153.414 123.5L155.04 125.462L140.928 137.101L139.281 135.111L138.756 135.545L140.409 137.528L126.781 148.767L125.043 146.665L124.525 147.1L126.262 149.195L115.1 158.395L113.566 156.552L113.047 156.986L114.582 158.829L103.945 167.595L102.453 165.794L101.927 166.229L103.427 168.029L92.3209 177.187L90.6883 175.218L90.1698 175.653L92.2438 178.14L92.2789 178.112L92.3419 178.196Z" fill="#DDDDDD"/>
<path d="M116.425 160.077C115.128 161.149 113.559 161.394 112.907 160.616C112.263 159.839 112.788 158.332 114.077 157.26C115.374 156.181 116.95 155.943 117.595 156.72C118.246 157.498 117.721 158.998 116.425 160.077Z" fill="#568C9B"/>
<path d="M127.783 150.54C126.486 151.619 124.91 151.858 124.265 151.08C123.621 150.302 124.139 148.796 125.435 147.724C126.732 146.645 128.301 146.406 128.953 147.184C129.598 147.962 129.079 149.468 127.783 150.54Z" fill="#568C9B"/>
<path d="M125.905 148.424C126.928 147.576 128.105 147.303 128.645 147.758C128.617 147.632 128.568 147.513 128.491 147.422C128.007 146.841 126.732 147.107 125.646 148.004C124.56 148.908 124.069 150.12 124.546 150.701C124.581 150.743 124.63 150.764 124.665 150.799C124.504 150.169 124.98 149.188 125.905 148.424Z" fill="#DDDDDD"/>
<path d="M114.624 158.073C115.647 157.225 116.859 156.987 117.441 157.491C117.406 157.358 117.357 157.232 117.265 157.127C116.74 156.489 115.423 156.714 114.337 157.617C113.244 158.521 112.788 159.776 113.314 160.406C113.349 160.448 113.398 160.483 113.44 160.518C113.237 159.839 113.699 158.83 114.624 158.066V158.073Z" fill="#DDDDDD"/>
<path d="M105.144 169.452C103.847 170.524 102.278 170.769 101.626 169.991C100.981 169.214 101.507 167.707 102.796 166.628C104.093 165.549 105.662 165.311 106.314 166.088C106.965 166.866 106.44 168.373 105.144 169.445V169.452Z" fill="#568C9B"/>
<path d="M107.063 188.525C106.888 189.001 106.608 189.429 106.209 189.765C104.793 190.942 102.544 190.557 101.178 188.91C100.435 188.013 100.12 186.934 100.204 185.939C99.7553 187.123 100 188.623 100.981 189.8C102.348 191.44 104.604 191.825 106.012 190.648C106.657 190.115 107 189.345 107.07 188.518L107.063 188.525Z" fill="#DDDDDD"/>
<path d="M84.5854 195.608C84.4242 196.029 84.186 196.407 83.8286 196.702C82.5814 197.739 80.5984 197.402 79.3933 195.952C78.7346 195.16 78.4613 194.207 78.5314 193.338C78.139 194.389 78.3562 195.707 79.2181 196.744C80.4233 198.194 82.4132 198.53 83.6535 197.5C84.221 197.031 84.5223 196.351 84.5854 195.615V195.608Z" fill="#DDDDDD"/>
<path d="M103.301 167.448C104.345 166.579 105.543 166.313 106.103 166.782C106.068 166.656 106.026 166.537 105.942 166.432C105.445 165.829 104.135 166.089 103.027 167.014C101.913 167.938 101.423 169.172 101.92 169.774C101.955 169.816 102.004 169.844 102.046 169.879C101.871 169.228 102.362 168.226 103.301 167.448Z" fill="#DDDDDD"/>
<path d="M145.896 84.3743C145.896 84.3743 145.433 83.5615 144.809 82.3213C144.732 82.1671 144.655 82.0059 144.571 81.8378C144.473 81.6836 144.368 81.5295 144.27 81.3683C144.067 81.046 143.85 80.7097 143.625 80.3523C143.513 80.1771 143.415 79.995 143.289 79.8198C143.156 79.6516 143.016 79.4835 142.876 79.3153C142.588 78.986 142.336 78.6146 142.035 78.2853C141.712 77.984 141.397 77.6757 141.082 77.3744C140.781 77.0591 140.402 76.8489 140.08 76.5826C139.765 76.3163 139.414 76.0991 139.092 75.9029C138.763 75.6997 138.461 75.4965 138.16 75.3354C137.571 74.999 137.081 74.6978 136.731 74.4805C136.387 74.2633 136.191 74.1372 136.191 74.1372C136.079 74.0671 136.03 73.92 136.086 73.8079C136.135 73.7098 136.247 73.6747 136.352 73.7238H136.366C136.366 73.7238 137.186 74.0952 138.419 74.6487C138.728 74.7888 139.064 74.971 139.421 75.1602C139.779 75.3424 140.15 75.5456 140.521 75.8048C140.886 76.0711 141.299 76.2953 141.649 76.6246C142.007 76.947 142.364 77.2763 142.721 77.6126C143.051 77.97 143.345 78.3624 143.646 78.7337C143.793 78.9229 143.941 79.1121 144.088 79.2943C144.221 79.4835 144.333 79.6937 144.445 79.8899C144.669 80.2893 144.88 80.6746 145.083 81.039C145.181 81.2212 145.272 81.3963 145.363 81.5715C145.426 81.7467 145.496 81.9149 145.552 82.076C146.036 83.3653 146.309 84.2411 146.309 84.2411C146.351 84.3743 146.288 84.4934 146.169 84.5144C146.064 84.5354 145.959 84.4724 145.896 84.3743Z" fill="#053448"/>
<g opacity="0.6">
<path d="M84.4732 185.708C84.4732 185.708 84.4824 185.723 84.4948 185.752C84.501 185.767 84.5081 185.785 84.5152 185.806L84.509 185.792L84.4732 185.708Z" fill="black" fill-opacity="0.5"/>
<path d="M84.5 186.5C85.2461 187.129 85.0742 186.848 84.8594 186.551L84.7227 186.305L84.5993 186.023L84.5573 185.925L84.509 185.792L84.4732 185.708C84.4732 185.708 84.4824 185.723 84.4948 185.752L84.4662 185.673C84.4662 185.673 84.4662 185.568 84.4942 185.414C84.5433 185.112 84.6834 184.706 84.8726 184.286C85.279 183.375 85.9797 182.317 86.8976 181.195C87.6893 180.229 88.6773 179.177 89.9245 178C90.2048 177.734 90.4921 177.468 90.7724 177.216L91.6342 176.452C92.2088 175.947 92.8254 175.436 93.5121 174.868L97.4429 171.645L104.562 165.843L105.851 164.799L106.92 163.929C116.886 155.814 143.556 133.786 153 126C133.928 138.525 108 157.5 93.512 168.5C80.9993 178 80.9875 182.993 84.5 186.5Z" fill="black" fill-opacity="0.5"/>
</g>
</g>
</g>
</g>
<defs>
<filter id="filter0_d_85_2796" x="62" y="68" width="116.876" height="144.756" filterUnits="userSpaceOnUse" color-interpolation-filters="sRGB">
<feFlood flood-opacity="0" result="BackgroundImageFix"/>
<feColorMatrix in="SourceAlpha" type="matrix" values="0 0 0 0 0 0 0 0 0 0 0 0 0 0 0 0 0 0 127 0" result="hardAlpha"/>
<feOffset dx="2" dy="4"/>
<feGaussianBlur stdDeviation="4"/>
<feComposite in2="hardAlpha" operator="out"/>
<feColorMatrix type="matrix" values="0 0 0 0 0 0 0 0 0 0.137376 0 0 0 0 0.195833 0 0 0 0.4 0"/>
<feBlend mode="normal" in2="BackgroundImageFix" result="effect1_dropShadow_85_2796"/>
<feBlend mode="normal" in="SourceGraphic" in2="effect1_dropShadow_85_2796" result="shape"/>
</filter>
<clipPath id="clip0_85_2796">
<rect width="144" height="144" fill="white" transform="translate(46 64)"/>
</clipPath>
<clipPath id="clip1_85_2796">
<rect width="144" height="144" fill="white" transform="translate(46 64)"/>
</clipPath>
</defs>
</svg>
