<svg width="236" height="236" viewBox="0 0 236 236" fill="none" xmlns="http://www.w3.org/2000/svg">
<path d="M200.902 236L236 91.5313L118 5.15794e-06L-6.31493e-06 91.5314L35.0981 236L200.902 236Z" fill="white" fill-opacity="0.2"/>
<path d="M161.231 96.511C160.521 95.1091 159.576 93.798 158.406 92.6186C157.313 91.5175 156.078 90.5827 154.769 89.8732C154.099 89.5106 153.426 89.2121 152.757 88.9766C152.673 88.942 152.574 88.9098 152.477 88.8846L151.101 88.4837C149.208 87.9408 147.626 87.3785 146.272 86.7759C143.48 85.5431 141.517 84.0791 140.287 83.0871C139.647 82.5707 139.173 82.1453 138.842 81.85L137.209 80.3494L137.166 80.3922C136.213 79.2311 135.51 77.5945 134.721 76.553C131.773 72.654 126.323 72.3635 123.559 71.0479C123.31 71.2899 122.932 71.618 122.766 71.9301C122.766 71.9301 126.623 77.7475 127.766 78.9317C129.754 80.985 131.904 81.7725 133.836 83.6661L133.811 83.6916L135.402 85.2706L135.42 85.2887C135.763 85.6171 136.33 86.1674 137.098 86.8381C137.232 86.9558 137.375 87.079 137.527 87.2079C138.355 87.9032 139.174 88.5436 140.043 89.1468C141.411 90.1076 142.884 90.9791 144.436 91.7307C146.028 92.5104 147.922 93.2652 150.073 93.9748L151.155 94.3284L151.254 94.3674C151.278 94.3775 151.308 94.3863 151.339 94.402L151.362 94.412C151.668 94.5278 151.981 94.6848 152.3 94.876C152.946 95.264 153.572 95.7828 154.111 96.3736C154.685 97.0006 155.153 97.71 155.478 98.4233C155.809 99.164 155.975 99.9053 155.958 100.58C155.949 100.893 155.903 101.198 155.825 101.48L155.735 101.616C155.615 101.786 155.466 101.996 155.29 102.211C146.35 113.388 136.963 121.746 131.926 126.912C123.189 135.883 109.476 147.33 100.251 156.691L92.83 164.228L89.2725 167.875C88.7001 168.47 88.1094 169.084 87.5027 169.728L87.037 170.241L86.5851 170.752C86.2877 171.088 85.9914 171.43 85.7033 171.777C85.3374 172.21 84.9922 172.638 84.6608 173.064L81.4042 171.015L80.2805 172.974L80.0323 172.82L75.9152 179.965L76.1566 180.121L75.2788 181.654L79.2582 184.163C79.1748 184.7 79.1202 185.24 79.1014 185.781C79.0778 186.577 79.1172 187.327 79.2214 188.079C79.346 188.948 79.5537 189.802 79.8501 190.633C80.0307 191.132 80.2106 191.546 80.3995 191.929L80.4348 192.008C80.4749 192.114 80.5312 192.231 80.6083 192.345L80.9059 192.901C80.9822 193.05 81.0605 193.17 81.1237 193.286L81.1834 193.382C81.2535 193.497 81.3249 193.619 81.402 193.732L81.4815 193.86C81.6686 194.152 81.88 194.461 82.1064 194.775C83.0016 196.01 85.5244 198.386 86.6552 199.339C86.6982 199.381 86.747 199.415 86.7888 199.45C87.249 199.835 87.7389 200.187 88.2322 200.517C88.4978 200.972 88.851 201.398 89.288 201.773C90.4525 202.756 91.919 203.105 93.1762 202.834C93.956 203.05 94.7399 203.209 95.5198 203.305C97.1074 203.491 98.6514 203.431 100.108 203.118C101.607 202.804 102.983 202.236 104.204 201.434C104.799 201.046 105.365 200.579 105.895 200.061L106.541 199.403C106.584 199.36 106.632 199.309 106.674 199.266L106.903 199.028C107.168 198.748 107.445 198.459 107.67 198.2C107.915 197.93 108.208 197.61 108.481 197.3L109.253 196.422C109.509 196.129 109.764 195.837 110.012 195.546L111.135 194.231L111.26 194.336C112.317 195.231 113.757 195.267 114.478 194.426L125.701 181.389C126.121 180.905 126.195 180.227 125.993 179.57C130.933 175.595 135.743 173.552 140.327 173.501C143.842 173.46 146.384 174.61 147.88 175.449C147.869 175.388 147.857 175.319 147.839 175.259C148.533 174.867 148.075 168.465 146.773 160.599C145.43 152.493 143.694 145.927 142.905 145.939C142.805 145.942 142.73 146.04 142.67 146.228L142.619 146.258C133.611 151.431 125.102 156.318 113.197 168.718C112.149 169.808 103.435 180.211 102.574 181.472L101.624 182.877L100.154 185.017C99.807 185.517 99.4304 186.05 98.9257 186.747C98.7202 187.037 98.5136 187.321 98.3069 187.605L97.6776 188.444C97.4685 188.715 97.2663 188.984 97.0434 189.256C96.8983 189.444 96.7634 189.61 96.6342 189.767C96.5702 189.849 96.505 189.924 96.4479 190.005L96.3713 190.096C96.3713 190.096 96.3416 190.129 96.3188 190.162L95.8017 190.748L95.9471 190.885L95.796 190.756C95.796 190.756 95.7479 190.807 95.7308 190.831C95.7194 190.847 95.7124 190.848 95.7136 190.855L95.6827 190.882C95.6827 190.882 95.6139 190.936 95.4641 190.977C95.3628 191.009 95.2359 191.017 95.0984 191.006C94.7727 190.979 94.4414 190.839 94.1185 190.585C93.928 190.435 93.7359 190.235 93.5435 189.994C93.4957 189.924 93.449 189.862 93.4092 189.798C93.3906 189.773 93.3719 189.748 93.3589 189.715L93.3403 189.69C93.3403 189.69 93.3017 189.633 93.2818 189.601L93.1484 189.37C93.1484 189.37 93.1303 189.267 93.1325 189.119C93.1302 188.822 93.1984 188.4 93.3138 187.962C93.5532 187.015 94.0647 185.872 94.774 184.637C95.3842 183.567 96.1748 182.389 97.1925 181.043C97.4232 180.733 97.6564 180.438 97.8895 180.142L98.2233 179.73L99.4726 180.789L99.5024 180.756L99.5779 180.82L107.633 171.538C108.445 171.819 109.673 171.298 110.596 170.223C111.513 169.157 111.832 167.891 111.443 167.14L117.121 160.596C117.933 160.834 119.119 160.321 120.025 159.271C120.925 158.228 121.244 157.005 120.902 156.238L126.74 149.51C127.542 149.652 128.651 149.145 129.503 148.154C130.35 147.17 130.682 146.023 130.432 145.254L152.889 119.369L152.813 119.305L152.844 119.278L151.629 118.248C152.342 117.401 153.025 116.581 153.666 115.81C155.202 113.963 157 111.786 158.701 109.62C159.457 108.652 160.259 107.62 161.027 106.516C161.26 106.178 161.44 105.906 161.612 105.628L161.76 105.376C161.814 105.274 161.88 105.164 161.932 105.055C161.948 105.024 161.975 104.977 162.007 104.915L162.127 104.625L162.199 104.429C162.222 104.354 162.246 104.286 162.262 104.219L162.299 104.064C162.507 103.222 162.602 102.343 162.573 101.45C162.523 99.8324 162.065 98.1244 161.252 96.5073L161.231 96.511ZM79.7372 181.985C79.6035 182.44 79.4962 182.883 79.4084 183.316L76.4639 181.46L76.9432 180.619L77.2889 180.84L81.406 173.695L81.0533 173.474L81.7797 172.215L84.1558 173.719C83.5082 174.575 82.9113 175.437 82.3596 176.312C81.8046 177.209 81.3359 178.069 80.918 178.935C80.4172 179.978 80.0305 180.979 79.7303 181.987L79.7372 181.985ZM125.108 180.9L113.886 193.936C113.401 194.503 112.416 194.457 111.694 193.842L111.568 193.737L112.555 192.58C113.866 192.611 115.102 192.138 115.949 191.162C116.766 190.212 117.054 188.973 116.857 187.735C116.875 187.718 116.899 187.692 116.918 187.675C117.798 186.763 118.818 185.912 119.799 185.088C120.035 184.891 120.27 184.687 120.507 184.49C121.328 184.295 122.074 183.874 122.635 183.216C122.991 182.807 123.237 182.34 123.392 181.846C124.053 181.227 124.715 180.651 125.373 180.097C125.382 180.392 125.304 180.674 125.115 180.899L125.108 180.9ZM93.2002 189.503L93.1418 189.414C93.1418 189.414 93.1686 189.445 93.2002 189.503ZM119.248 155.632C121.409 153.165 123.571 150.706 125.706 148.257C125.718 148.609 125.82 148.902 126.018 149.136L120.329 155.696C120.025 155.552 119.645 155.541 119.241 155.633L119.248 155.632ZM116.248 159.046C116.203 159.478 116.264 159.863 116.458 160.154L110.851 166.615C110.49 166.467 110.043 166.482 109.565 166.644L110.475 165.614C112.387 163.438 114.317 161.239 116.247 159.039L116.248 159.046ZM99.366 179.86L98.6117 179.223C99.0816 178.652 99.5848 178.068 100.135 177.427L103.427 173.651L106.86 169.744C106.751 170.258 106.79 170.725 106.994 171.071L99.366 179.86ZM129.918 144.644C129.67 144.49 129.367 144.43 129.03 144.461C131.482 141.661 133.895 138.888 136.242 136.183C137.208 135.066 138.126 134.006 139.022 132.978L139.609 133.476L129.918 144.644ZM151.859 119.353L140.054 132.966L139.467 132.468C142.76 128.657 145.588 125.365 148.181 122.313C149.256 121.049 150.247 119.877 151.179 118.773L151.866 119.352L151.859 119.353Z" fill="black"/>
</svg>
