<svg width="236" height="237" viewBox="0 0 236 237" fill="none" xmlns="http://www.w3.org/2000/svg">
<path d="M200.902 236.486L236 92.0177L118 0.486333L-6.31493e-06 92.0177L35.0981 236.486L200.902 236.486Z" fill="#0080AF"/>
<g filter="url(#filter0_d_612_41078)">
<path d="M157.483 92.713C158.267 90.9333 158.208 89.1037 156.967 87.532C155.742 85.9768 154.084 85.1285 152.051 85.6525C150.484 86.0516 148.926 86.5506 147.435 87.1827C141.852 89.5778 136.011 90.6173 129.961 90.6173C121.945 90.6256 113.938 90.6672 105.922 90.6007C100.681 90.5591 95.5149 90.0102 90.6071 87.9561C88.7739 87.191 86.8908 86.5257 85.016 85.852C82.3913 84.9123 79.9582 85.8022 78.6333 88.1723C77.7584 89.7524 77.8334 91.3408 78.5917 92.9459C80.3082 96.5718 82.0246 100.198 83.7078 103.84C83.9161 104.298 84.0161 104.855 83.9911 105.354C83.5662 112.739 82.9495 120.124 82.7079 127.517C82.283 140.94 82.9079 154.329 84.2994 167.685C84.3494 168.184 84.2577 168.741 84.0661 169.207C82.5163 173.016 80.9081 176.8 79.3666 180.608C78.0667 183.819 80.6998 187.544 84.1661 187.303C86.2742 187.153 88.3657 186.713 90.4738 186.397C95.1066 185.698 99.7145 184.592 104.364 184.401C112.721 184.043 121.121 183.968 129.478 184.301C134.594 184.501 139.669 185.648 144.76 186.413C146.685 186.704 148.593 187.129 150.509 187.494H152.901C156.825 185.773 157.758 183.544 156.225 179.486C154.95 176.101 153.676 172.725 152.426 169.34C152.276 168.924 152.201 168.442 152.226 168.001C152.759 160.857 153.501 153.713 153.826 146.561C154.45 132.806 153.792 119.084 152.259 105.404C152.201 104.88 152.292 104.273 152.501 103.799C154.134 100.098 155.85 96.4388 157.475 92.7297L157.483 92.713ZM95.4399 110.926C94.165 112.356 92.7652 113.67 91.3903 115.009C91.2237 115.175 90.9071 115.175 90.4238 115.333C90.0571 115.067 89.4322 114.818 89.2072 114.369C88.9823 113.92 88.9406 113.063 89.2239 112.739C90.4404 111.342 91.7653 110.036 93.1318 108.789C93.7401 108.24 94.5233 108.398 95.1233 108.963C95.7149 109.52 95.9899 110.31 95.4399 110.926ZM97.0564 102.518C95.8399 103.907 94.515 105.221 93.1485 106.46C92.5402 107.017 91.757 106.834 91.1654 106.26C90.5738 105.695 90.3404 104.888 90.8737 104.289C92.1486 102.859 93.5568 101.545 94.9316 100.214C95.0983 100.048 95.4149 100.04 95.8815 99.8817C96.2565 100.173 96.8898 100.422 97.1064 100.88C97.3231 101.337 97.348 102.185 97.0647 102.51L97.0564 102.518ZM103.922 117.77C102.664 119.176 101.298 120.473 99.9394 121.787C99.7478 121.97 99.3978 121.987 98.9062 122.153C98.5313 121.854 97.9063 121.587 97.698 121.138C97.4897 120.681 97.4647 119.833 97.7563 119.5C98.9479 118.128 100.248 116.839 101.598 115.625C102.231 115.051 103.039 115.192 103.664 115.799C104.247 116.373 104.464 117.163 103.922 117.77ZM105.272 108.057C104.247 109.146 103.189 110.194 102.114 111.234C101.306 112.015 100.314 112.04 99.6395 111.358C98.9229 110.635 98.9229 109.737 99.7311 108.888C100.781 107.782 101.873 106.718 102.972 105.653C103.514 105.129 104.222 104.872 104.872 105.287C105.356 105.587 105.664 106.161 106.089 106.651C105.756 107.242 105.589 107.724 105.272 108.065V108.057ZM135.461 167.435C134.186 168.866 132.786 170.18 131.411 171.519C131.245 171.685 130.928 171.685 130.445 171.843C130.078 171.577 129.453 171.327 129.228 170.878C129.003 170.429 128.961 169.573 129.245 169.248C130.461 167.851 131.786 166.546 133.153 165.298C133.761 164.749 134.544 164.907 135.144 165.473C135.736 166.03 136.011 166.82 135.461 167.435ZM137.077 159.028C135.861 160.416 134.536 161.73 133.169 162.97C132.561 163.527 131.778 163.344 131.186 162.77C130.595 162.204 130.361 161.398 130.895 160.799C132.169 159.369 133.578 158.055 134.952 156.724C135.119 156.558 135.436 156.549 135.902 156.391C136.277 156.682 136.911 156.932 137.127 157.389C137.344 157.847 137.369 158.695 137.086 159.019L137.077 159.028ZM143.943 174.28C142.685 175.685 141.318 176.983 139.96 178.297C139.769 178.48 139.419 178.496 138.927 178.662C138.552 178.363 137.927 178.097 137.719 177.648C137.511 177.19 137.486 176.342 137.777 176.01C138.969 174.637 140.269 173.348 141.618 172.134C142.252 171.56 143.06 171.702 143.685 172.309C144.268 172.883 144.485 173.673 143.943 174.28ZM145.293 164.566C144.268 165.656 143.21 166.704 142.135 167.743C141.327 168.525 140.335 168.55 139.66 167.868C138.944 167.144 138.944 166.246 139.752 165.398C140.802 164.292 141.893 163.227 142.993 162.163C143.535 161.639 144.243 161.381 144.893 161.797C145.376 162.096 145.685 162.67 146.11 163.161C145.776 163.751 145.61 164.234 145.293 164.575V164.566Z" fill="white"/>
</g>
<path d="M118.004 160.916C129.679 160.916 139.144 151.47 139.144 139.817C139.144 128.165 129.679 118.719 118.004 118.719C106.329 118.719 96.8647 128.165 96.8647 139.817C96.8647 151.47 106.329 160.916 118.004 160.916Z" fill="#AF3030"/>
<path d="M118.004 157.498C127.788 157.498 135.719 149.582 135.719 139.817C135.719 130.052 127.788 122.136 118.004 122.136C108.221 122.136 100.289 130.052 100.289 139.817C100.289 149.582 108.221 157.498 118.004 157.498Z" fill="white"/>
<path d="M117.749 143.347C114.631 143.157 112.273 140.017 112.435 136.346C115.572 136.554 118.29 140.112 117.749 143.347Z" fill="#AF3030"/>
<path d="M118.224 143.337C117.758 140.026 120.134 136.905 123.518 136.298C123.661 140.207 121.256 143.205 118.224 143.337Z" fill="#AF3030"/>
<path d="M112.473 141.582C116.057 142.417 118.328 145.453 117.758 148.631C114.84 148.546 112.331 145.624 112.473 141.582Z" fill="#AF3030"/>
<path d="M118.243 148.64C117.625 145.51 119.906 142.446 123.509 141.573C124.013 144.903 121.285 148.565 118.243 148.64Z" fill="#AF3030"/>
<path d="M117.749 138.015C114.849 138.101 112.245 134.676 112.445 131.023C114.963 131.469 118.528 134.145 117.749 138.015Z" fill="#AF3030"/>
<path d="M123.528 131.004C123.632 134.647 121.465 137.892 118.252 138.025C117.558 134.97 120.163 131.517 123.528 131.004Z" fill="#AF3030"/>
<path d="M117.768 153.953C114.412 153.688 112.397 150.557 112.445 146.895C115.8 147.426 118.205 150.585 117.768 153.953Z" fill="#AF3030"/>
<path d="M123.556 146.866C123.623 150.747 121.266 153.849 118.224 153.934C117.682 150.709 119.954 147.673 123.556 146.866Z" fill="#AF3030"/>
<path d="M117.996 134.486C115.239 132.048 116.037 127.969 117.996 125.673C119.925 127.855 120.771 132.001 117.996 134.486Z" fill="#AF3030"/>
<defs>
<filter id="filter0_d_612_41078" x="72" y="81.4839" width="95.9998" height="118.01" filterUnits="userSpaceOnUse" color-interpolation-filters="sRGB">
<feFlood flood-opacity="0" result="BackgroundImageFix"/>
<feColorMatrix in="SourceAlpha" type="matrix" values="0 0 0 0 0 0 0 0 0 0 0 0 0 0 0 0 0 0 127 0" result="hardAlpha"/>
<feOffset dx="2" dy="4"/>
<feGaussianBlur stdDeviation="4"/>
<feComposite in2="hardAlpha" operator="out"/>
<feColorMatrix type="matrix" values="0 0 0 0 0 0 0 0 0 0.137376 0 0 0 0 0.195833 0 0 0 0.4 0"/>
<feBlend mode="normal" in2="BackgroundImageFix" result="effect1_dropShadow_612_41078"/>
<feBlend mode="normal" in="SourceGraphic" in2="effect1_dropShadow_612_41078" result="shape"/>
</filter>
</defs>
</svg>
