<svg width="236" height="236" viewBox="0 0 236 236" fill="none" xmlns="http://www.w3.org/2000/svg">
<path d="M2 199.33V36.6704L143.682 2.24924L233.469 118L143.682 233.751L2 199.33Z" fill="white" fill-opacity="0.5" stroke="white" stroke-width="4"/>
<g clip-path="url(#clip0_340_23538)">
<g clip-path="url(#clip1_340_23538)">
<g filter="url(#filter0_d_340_23538)">
<path d="M108.733 70.7202C108.733 77.7445 103.037 83.4405 96.0126 83.4405C88.9884 83.4405 83.2924 77.7445 83.2924 70.7202C83.2924 63.696 88.9884 58 96.0126 58C103.037 58 108.733 63.696 108.733 70.7202Z" fill="white"/>
<path d="M119.425 82.365C120.926 75.4995 127.705 71.1536 134.57 72.6552C141.436 74.1568 145.782 80.9428 144.28 87.8011C142.779 94.6665 136 99.0125 129.134 97.5109C122.269 96.0093 117.923 89.2232 119.425 82.365Z" fill="white"/>
<path d="M131.856 171.428C138.881 171.428 144.576 165.733 144.576 158.708C144.576 151.683 138.881 145.987 131.856 145.987C124.831 145.987 119.136 151.683 119.136 158.708C119.136 165.733 124.831 171.428 131.856 171.428Z" fill="white"/>
<path d="M59.8733 171.428C66.8985 171.428 72.5935 165.733 72.5935 158.708C72.5935 151.683 66.8985 145.987 59.8733 145.987C52.8481 145.987 47.1531 151.683 47.1531 158.708C47.1531 165.733 52.8481 171.428 59.8733 171.428Z" fill="white"/>
<path d="M72.5935 85.0862C72.5935 92.1105 66.8976 97.8064 59.8733 97.8064C52.849 97.8064 47.1531 92.1105 47.1531 85.0862C47.1531 78.0619 52.849 72.366 59.8733 72.366C66.8976 72.366 72.5935 78.0619 72.5935 85.0862Z" fill="white"/>
<path d="M142.706 134.011C136.159 131.47 132.91 124.099 135.444 117.551C137.985 111.003 145.356 107.747 151.904 110.289C158.451 112.83 161.7 120.201 159.159 126.748C156.618 133.296 149.247 136.552 142.699 134.011H142.706Z" fill="white"/>
<path d="M57.4405 122.157C57.4405 129.181 51.7445 134.877 44.7202 134.877C37.696 134.877 32 129.181 32 122.157C32 115.133 37.696 109.437 44.7202 109.437C51.7445 109.437 57.4405 115.133 57.4405 122.157Z" fill="white"/>
<path d="M96.0127 175.298C66.7099 175.298 42.8721 151.46 42.8721 122.157C42.8721 92.8544 66.7099 69.0094 96.0127 69.0094C125.315 69.0094 149.153 92.8472 149.153 122.15C149.153 151.453 125.315 175.29 96.0127 175.29V175.298Z" fill="#DDDDDD"/>
<path d="M96.0126 177.412C65.5404 177.412 40.7496 152.622 40.7496 122.149C40.7496 91.6772 65.5404 66.8937 96.0126 66.8937C126.485 66.8937 151.276 91.6844 151.276 122.157C151.276 152.629 126.485 177.42 96.0126 177.42V177.412ZM96.0126 73.4559C69.1644 73.4559 47.3191 95.3012 47.3191 122.157C47.3191 149.012 69.1644 170.85 96.0126 170.85C122.861 170.85 144.706 149.005 144.706 122.157C144.706 95.3085 122.868 73.4559 96.0126 73.4559Z" fill="#053448"/>
<path d="M96.0126 77.0803C120.861 77.0803 141.082 97.3013 141.082 122.15C141.082 146.998 120.861 167.219 96.0126 167.219C71.1641 167.219 50.9431 146.998 50.9431 122.15C50.9431 97.3013 71.1641 77.0803 96.0126 77.0803ZM96.0126 73.4563C69.1644 73.4563 47.3191 95.3016 47.3191 122.157C47.3191 149.012 69.1644 170.851 96.0126 170.851C122.861 170.851 144.706 149.005 144.706 122.157C144.706 95.3088 122.868 73.4563 96.0126 73.4563Z" fill="#568C9B"/>
</g>
</g>
</g>
<defs>
<filter id="filter0_d_340_23538" x="26" y="54" width="144.024" height="135.42" filterUnits="userSpaceOnUse" color-interpolation-filters="sRGB">
<feFlood flood-opacity="0" result="BackgroundImageFix"/>
<feColorMatrix in="SourceAlpha" type="matrix" values="0 0 0 0 0 0 0 0 0 0 0 0 0 0 0 0 0 0 127 0" result="hardAlpha"/>
<feOffset dx="2" dy="4"/>
<feGaussianBlur stdDeviation="4"/>
<feComposite in2="hardAlpha" operator="out"/>
<feColorMatrix type="matrix" values="0 0 0 0 0 0 0 0 0 0.137376 0 0 0 0 0.195833 0 0 0 0.4 0"/>
<feBlend mode="normal" in2="BackgroundImageFix" result="effect1_dropShadow_340_23538"/>
<feBlend mode="normal" in="SourceGraphic" in2="effect1_dropShadow_340_23538" result="shape"/>
</filter>
<clipPath id="clip0_340_23538">
<rect width="144" height="144" fill="white" transform="translate(24 46)"/>
</clipPath>
<clipPath id="clip1_340_23538">
<rect width="144" height="144" fill="white" transform="translate(24 46)"/>
</clipPath>
</defs>
</svg>
