<svg width="174" height="200" viewBox="0 0 174 200" fill="none" xmlns="http://www.w3.org/2000/svg">
<rect width="174" height="200" fill="white" fill-opacity="0.05"/>
<path d="M84.0494 107.096C84.0241 106.893 83.9988 106.703 83.9734 106.526C83.9734 106.323 83.9734 106.121 83.9734 105.918C83.9734 104.803 84.1508 103.841 84.5054 103.03C84.8601 102.219 85.3034 101.523 85.8354 100.94C86.3928 100.332 86.9881 99.8127 87.6214 99.382C88.2548 98.926 88.8374 98.4827 89.3694 98.052C89.9268 97.596 90.3828 97.14 90.7374 96.684C91.0921 96.2027 91.2694 95.6327 91.2694 94.974C91.2694 94.0873 90.9021 93.378 90.1674 92.846C89.4328 92.314 88.2928 92.048 86.7474 92.048C85.9621 92.048 85.2401 92.162 84.5814 92.39C83.9228 92.618 83.3148 92.8967 82.7574 93.226C82.2001 93.53 81.7061 93.8593 81.2754 94.214C80.8448 94.5433 80.4648 94.822 80.1354 95.05L77.7414 91.858C78.3494 91.1993 79.0334 90.6167 79.7934 90.11C80.5788 89.6033 81.4021 89.1853 82.2634 88.856C83.1248 88.5267 84.0114 88.286 84.9234 88.134C85.8354 87.9567 86.7348 87.868 87.6214 87.868C90.3828 87.868 92.5234 88.4507 94.0434 89.616C95.5888 90.756 96.3614 92.3013 96.3614 94.252C96.3614 95.544 96.1588 96.6207 95.7534 97.482C95.3734 98.318 94.8794 99.04 94.2714 99.648C93.6634 100.231 93.0048 100.75 92.2954 101.206C91.6114 101.662 90.9654 102.156 90.3574 102.688C89.7748 103.195 89.2808 103.79 88.8754 104.474C88.4701 105.158 88.2674 106.032 88.2674 107.096H84.0494ZM83.2894 112.492C83.2894 111.605 83.5681 110.909 84.1254 110.402C84.6828 109.87 85.4174 109.604 86.3294 109.604C87.2921 109.604 88.0521 109.87 88.6094 110.402C89.1668 110.909 89.4454 111.605 89.4454 112.492C89.4454 113.379 89.1668 114.088 88.6094 114.62C88.0521 115.152 87.2921 115.418 86.3294 115.418C85.4174 115.418 84.6828 115.152 84.1254 114.62C83.5681 114.088 83.2894 113.379 83.2894 112.492Z" fill="white"/>
</svg>
