<svg width="236" height="237" viewBox="0 0 236 237" fill="none" xmlns="http://www.w3.org/2000/svg">
<path d="M200.902 236.486L236 92.0177L118 0.486333L-6.31493e-06 92.0177L35.0981 236.486L200.902 236.486Z" fill="white" fill-opacity="0.3"/>
<g filter="url(#filter0_d_612_41073)">
<path d="M158.806 108.981L124.243 108.981C114.199 108.981 106.056 117.053 106.056 127.011L106.056 132.431C106.056 142.389 114.199 150.461 124.243 150.461L158.806 150.461C168.851 150.461 176.993 142.389 176.993 132.431L176.993 127.011C176.993 117.053 168.851 108.981 158.806 108.981Z" fill="#AF3030"/>
<path d="M158.806 108.981L124.243 108.981C114.199 108.981 106.056 117.053 106.056 127.011L106.056 132.431C106.056 142.389 114.199 150.461 124.243 150.461L158.806 150.461C168.851 150.461 176.993 142.389 176.993 132.431L176.993 127.011C176.993 117.053 168.851 108.981 158.806 108.981Z" fill="url(#paint0_linear_612_41073)"/>
<path d="M141.398 126.279C158.192 126.279 171.806 121.793 171.806 116.258C171.806 110.724 158.192 106.237 141.398 106.237C124.605 106.237 110.991 110.724 110.991 116.258C110.991 121.793 124.605 126.279 141.398 126.279Z" fill="#E5CE6A"/>
<path d="M131.221 117.322L168.552 120.784C168.552 120.784 177.232 133.42 170.938 145.867C170.938 145.867 166.96 150.054 160.111 150.461L148.622 150.461C148.622 150.461 152.334 134.186 147.611 126.279L131.221 117.315V117.322Z" fill="white"/>
<path d="M171.484 144.695L149.88 141.747L148.643 150.461L160.105 150.461C163.146 150.677 171.689 148.028 171.478 144.695H171.484Z" fill="#E5CE6A"/>
</g>
<g filter="url(#filter1_d_612_41073)">
<path d="M62.9333 144.752L131.71 144.752L97.3252 129.935L62.9333 144.752Z" fill="white"/>
<path d="M131.71 144.752L62.9333 144.752L62.9333 168.284L131.71 168.284L131.71 144.752Z" fill="#AF3030"/>
<path d="M131.71 144.752L62.9333 144.752L62.9333 168.284L131.71 168.284L131.71 144.752Z" fill="url(#paint1_linear_612_41073)"/>
<path d="M71.1075 153.926C73.1382 153.926 74.7845 153.42 74.7845 152.795C74.7845 152.17 73.1382 151.663 71.1075 151.663C69.0767 151.663 67.4304 152.17 67.4304 152.795C67.4304 153.42 69.0767 153.926 71.1075 153.926Z" fill="#E5CE6A"/>
<path d="M71.7021 153.926C73.4007 153.926 74.7776 153.42 74.7776 152.795C74.7776 152.17 73.4007 151.663 71.7021 151.663C70.0035 151.663 68.6265 152.17 68.6265 152.795C68.6265 153.42 70.0035 153.926 71.7021 153.926Z" fill="white"/>
<path d="M77.5391 165.228C78.898 165.228 79.9996 164.888 79.9996 164.469C79.9996 164.05 78.898 163.71 77.5391 163.71C76.1802 163.71 75.0786 164.05 75.0786 164.469C75.0786 164.888 76.1802 165.228 77.5391 165.228Z" fill="#E5CE6A"/>
<path d="M77.9354 165.228C79.0716 165.228 79.9926 164.888 79.9926 164.469C79.9926 164.05 79.0716 163.71 77.9354 163.71C76.7992 163.71 75.8782 164.05 75.8782 164.469C75.8782 164.888 76.7992 165.228 77.9354 165.228Z" fill="white"/>
<path d="M90.2856 158.94C91.8257 158.94 93.0741 158.555 93.0741 158.08C93.0741 157.604 91.8257 157.219 90.2856 157.219C88.7455 157.219 87.4971 157.604 87.4971 158.08C87.4971 158.555 88.7455 158.94 90.2856 158.94Z" fill="#E5CE6A"/>
<path d="M90.7366 158.94C92.0276 158.94 93.0741 158.555 93.0741 158.08C93.0741 157.604 92.0276 157.219 90.7366 157.219C89.4457 157.219 88.3992 157.604 88.3992 158.08C88.3992 158.555 89.4457 158.94 90.7366 158.94Z" fill="white"/>
<path d="M125.163 149.956C127.775 149.956 129.892 149.304 129.892 148.499C129.892 147.695 127.775 147.042 125.163 147.042C122.551 147.042 120.433 147.695 120.433 148.499C120.433 149.304 122.551 149.956 125.163 149.956Z" fill="#E5CE6A"/>
<path d="M125.935 149.956C128.121 149.956 129.892 149.304 129.892 148.499C129.892 147.695 128.121 147.042 125.935 147.042C123.75 147.042 121.978 147.695 121.978 148.499C121.978 149.304 123.75 149.956 125.935 149.956Z" fill="white"/>
<path d="M109.669 165.167C111.186 165.167 112.416 164.788 112.416 164.32C112.416 163.852 111.186 163.473 109.669 163.473C108.151 163.473 106.921 163.852 106.921 164.32C106.921 164.788 108.151 165.167 109.669 165.167Z" fill="#E5CE6A"/>
<path d="M110.113 165.167C111.385 165.167 112.416 164.788 112.416 164.32C112.416 163.852 111.385 163.473 110.113 163.473C108.841 163.473 107.81 163.852 107.81 164.32C107.81 164.788 108.841 165.167 110.113 165.167Z" fill="white"/>
<path d="M86.9707 151.894C88.3296 151.894 89.4312 151.554 89.4312 151.135C89.4312 150.716 88.3296 150.376 86.9707 150.376C85.6118 150.376 84.5103 150.716 84.5103 151.135C84.5103 151.554 85.6118 151.894 86.9707 151.894Z" fill="#E5CE6A"/>
<path d="M87.367 151.894C88.5032 151.894 89.4243 151.554 89.4243 151.135C89.4243 150.716 88.5032 150.376 87.367 150.376C86.2309 150.376 85.3098 150.716 85.3098 151.135C85.3098 151.554 86.2309 151.894 87.367 151.894Z" fill="white"/>
<path d="M127.104 166.088C128.644 166.088 129.892 165.703 129.892 165.228C129.892 164.752 128.644 164.367 127.104 164.367C125.564 164.367 124.315 164.752 124.315 165.228C124.315 165.703 125.564 166.088 127.104 166.088Z" fill="#E5CE6A"/>
<path d="M127.562 166.088C128.853 166.088 129.899 165.703 129.899 165.228C129.899 164.752 128.853 164.367 127.562 164.367C126.271 164.367 125.224 164.752 125.224 165.228C125.224 165.703 126.271 166.088 127.562 166.088Z" fill="white"/>
<path d="M66.4873 167.484C67.9934 167.484 69.2143 167.108 69.2143 166.644C69.2143 166.18 67.9934 165.804 66.4873 165.804C64.9812 165.804 63.7603 166.18 63.7603 166.644C63.7603 167.108 64.9812 167.484 66.4873 167.484Z" fill="#E5CE6A"/>
<path d="M66.9315 167.484C68.1922 167.484 69.2142 167.108 69.2142 166.644C69.2142 166.18 68.1922 165.804 66.9315 165.804C65.6707 165.804 64.6487 166.18 64.6487 166.644C64.6487 167.108 65.6707 167.484 66.9315 167.484Z" fill="white"/>
<path d="M93.4568 166.942C95.4876 166.942 97.1339 166.435 97.1339 165.81C97.1339 165.186 95.4876 164.679 93.4568 164.679C91.426 164.679 89.7798 165.186 89.7798 165.81C89.7798 166.435 91.426 166.942 93.4568 166.942Z" fill="#E5CE6A"/>
<path d="M94.0514 166.942C95.75 166.942 97.127 166.435 97.127 165.81C97.127 165.186 95.75 164.679 94.0514 164.679C92.3528 164.679 90.9758 165.186 90.9758 165.81C90.9758 166.435 92.3528 166.942 94.0514 166.942Z" fill="white"/>
<path d="M102.26 161.19C103.619 161.19 104.72 160.901 104.72 160.546C104.72 160.191 103.619 159.902 102.26 159.902C100.901 159.902 99.7993 160.191 99.7993 160.546C99.7993 160.901 100.901 161.19 102.26 161.19Z" fill="#E5CE6A"/>
<path d="M102.656 161.19C103.792 161.19 104.713 160.901 104.713 160.546C104.713 160.191 103.792 159.902 102.656 159.902C101.52 159.902 100.599 160.191 100.599 160.546C100.599 160.901 101.52 161.19 102.656 161.19Z" fill="white"/>
<path d="M120.433 157.274C121.792 157.274 122.894 156.934 122.894 156.515C122.894 156.096 121.792 155.756 120.433 155.756C119.074 155.756 117.973 156.096 117.973 156.515C117.973 156.934 119.074 157.274 120.433 157.274Z" fill="#E5CE6A"/>
<path d="M120.829 157.274C121.966 157.274 122.887 156.934 122.887 156.515C122.887 156.096 121.966 155.756 120.829 155.756C119.693 155.756 118.772 156.096 118.772 156.515C118.772 156.934 119.693 157.274 120.829 157.274Z" fill="white"/>
<path d="M108.739 149.631C110.77 149.631 112.416 149.124 112.416 148.499C112.416 147.874 110.77 147.368 108.739 147.368C106.708 147.368 105.062 147.874 105.062 148.499C105.062 149.124 106.708 149.631 108.739 149.631Z" fill="#E5CE6A"/>
<path d="M109.34 149.631C111.039 149.631 112.416 149.124 112.416 148.499C112.416 147.874 111.039 147.368 109.34 147.368C107.642 147.368 106.265 147.874 106.265 148.499C106.265 149.124 107.642 149.631 109.34 149.631Z" fill="white"/>
<path d="M68.9273 161.034C70.1088 161.034 71.0666 160.74 71.0666 160.377C71.0666 160.014 70.1088 159.719 68.9273 159.719C67.7459 159.719 66.7881 160.014 66.7881 160.377C66.7881 160.74 67.7459 161.034 68.9273 161.034Z" fill="#E5CE6A"/>
<path d="M69.2758 161.034C70.2647 161.034 71.0665 160.74 71.0665 160.377C71.0665 160.014 70.2647 159.719 69.2758 159.719C68.2868 159.719 67.4851 160.014 67.4851 160.377C67.4851 160.74 68.2868 161.034 69.2758 161.034Z" fill="white"/>
</g>
<defs>
<filter id="filter0_d_612_41073" x="100.056" y="102.237" width="86.9368" height="60.2356" filterUnits="userSpaceOnUse" color-interpolation-filters="sRGB">
<feFlood flood-opacity="0" result="BackgroundImageFix"/>
<feColorMatrix in="SourceAlpha" type="matrix" values="0 0 0 0 0 0 0 0 0 0 0 0 0 0 0 0 0 0 127 0" result="hardAlpha"/>
<feOffset dx="2" dy="4"/>
<feGaussianBlur stdDeviation="4"/>
<feComposite in2="hardAlpha" operator="out"/>
<feColorMatrix type="matrix" values="0 0 0 0 0 0 0 0 0 0.137376 0 0 0 0 0.195833 0 0 0 0.4 0"/>
<feBlend mode="normal" in2="BackgroundImageFix" result="effect1_dropShadow_612_41073"/>
<feBlend mode="normal" in="SourceGraphic" in2="effect1_dropShadow_612_41073" result="shape"/>
</filter>
<filter id="filter1_d_612_41073" x="56.9333" y="125.935" width="84.7769" height="54.3489" filterUnits="userSpaceOnUse" color-interpolation-filters="sRGB">
<feFlood flood-opacity="0" result="BackgroundImageFix"/>
<feColorMatrix in="SourceAlpha" type="matrix" values="0 0 0 0 0 0 0 0 0 0 0 0 0 0 0 0 0 0 127 0" result="hardAlpha"/>
<feOffset dx="2" dy="4"/>
<feGaussianBlur stdDeviation="4"/>
<feComposite in2="hardAlpha" operator="out"/>
<feColorMatrix type="matrix" values="0 0 0 0 0 0 0 0 0 0.137376 0 0 0 0 0.195833 0 0 0 0.4 0"/>
<feBlend mode="normal" in2="BackgroundImageFix" result="effect1_dropShadow_612_41073"/>
<feBlend mode="normal" in="SourceGraphic" in2="effect1_dropShadow_612_41073" result="shape"/>
</filter>
<linearGradient id="paint0_linear_612_41073" x1="129.063" y1="150.184" x2="148.488" y2="94.2658" gradientUnits="userSpaceOnUse">
<stop stop-color="#6F081B"/>
<stop offset="0.598958" stop-color="#FB404B"/>
<stop offset="1" stop-color="#FF978C"/>
</linearGradient>
<linearGradient id="paint1_linear_612_41073" x1="85.2399" y1="168.126" x2="92.1791" y2="133.987" gradientUnits="userSpaceOnUse">
<stop stop-color="#6F081B"/>
<stop offset="0.598958" stop-color="#FB404B"/>
<stop offset="1" stop-color="#FF978C"/>
</linearGradient>
</defs>
</svg>
